<svg xmlns="http://www.w3.org/2000/svg" id="sprotty_work.el2_ifu_tb_memread" class="sprotty-graph sprotty-block-diagram blockdiagram" style="font-family:&quot;Noto Sans&quot;, Helvetica, Arial, sans-serif;perspective-origin:0px 0px;transform-origin:0px 0px;" version="1.1" viewBox="7 7 488.859375 160" width="488.859375" height="160"><g transform="scale(1) translate(0,0)"><g id="sprotty_ArchitectureBlockImpl$el2_ifu_tb_memread" class="architecture" transform="translate(12, 12)"><g class="sprotty-block" style="fill:rgb(255, 255, 255);stroke:rgb(48, 48, 48);stroke-dasharray:0px;"><rect x="0" y="0" rx="1" ry="1" width="478.859375" height="150"/><text x="239.4296875" y="12" class="sprotty-block-name" style="cursor:pointer;font-weight:700;perspective-origin:119.711px 0px;fill:rgb(48, 48, 48);stroke:rgba(0, 0, 0, 0);dominant-baseline:middle;text-anchor:middle;">el2_ifu_tb_memread</text><line x1="0" y1="20" x2="478.859375" y2="20"/></g><g id="sprotty_ArchitectureBlockImpl$el2_ifu_tb_memread/AlwaysBlockImpl$null2/GPortImpl$clkOUT_to_ArchitectureBlockImpl$el2_ifu_tb_memread/AlwaysBlockImpl$null1/GPortImpl$clkIN" class="sprotty-edge edge" style="fill:none;stroke:rgb(112, 112, 112);stroke-linejoin:round;"><g><path d="M 52.390625 96 L 72.390625 96 "/><path d="M 52.390625 96 L 72.390625 96 " class="clickable"/></g></g><g id="sprotty_ArchitectureBlockImpl$el2_ifu_tb_memread/AlwaysBlockImpl$null2/GPortImpl$clkOUT_to_ArchitectureBlockImpl$el2_ifu_tb_memread/AlwaysBlockImpl$null0/GPortImpl$clkIN" class="sprotty-edge edge" style="fill:none;stroke:rgb(112, 112, 112);stroke-linejoin:round;"><g><path d="M 52.390625 96 L 60.390625 96 C 61.390625 96 62.390625 95 62.390625 94 L 62.390625 38 C 62.390625 37 63.390625 36 64.390625 36 L 414.46875 36 C 415.46875 36 416.46875 37 416.46875 38 L 416.46875 98 C 416.46875 99 417.46875 100 418.46875 100 L 426.46875 100 "/><path d="M 52.390625 96 L 60.390625 96 C 61.390625 96 62.390625 95 62.390625 94 L 62.390625 38 C 62.390625 37 63.390625 36 64.390625 36 L 414.46875 36 C 415.46875 36 416.46875 37 416.46875 38 L 416.46875 98 C 416.46875 99 417.46875 100 418.46875 100 L 426.46875 100 " class="clickable"/></g><circle r="2" id="sprotty_ArchitectureBlockImpl$el2_ifu_tb_memread/AlwaysBlockImpl$null2/GPortImpl$clkOUT_to_ArchitectureBlockImpl$el2_ifu_tb_memread/AlwaysBlockImpl$null0/GPortImpl$clkIN/junction0" transform="translate(62.390625, 96)" class="sprotty-junction junction" style="fill:rgb(112, 112, 112);stroke:none;"/></g><g id="sprotty_ArchitectureBlockImpl$el2_ifu_tb_memread/AlwaysBlockImpl$null1/GPortImpl$clk_countOUT_to_ArchitectureBlockImpl$el2_ifu_tb_memread/AlwaysBlockImpl$null0/GPortImpl$clk_countIN" class="sprotty-edge thick edge" style="fill:none;stroke:rgb(112, 112, 112);stroke-linejoin:round;stroke-width:3px;"><g><path d="M 109.78125 86 L 117.78125 86 C 118.78125 86 119.78125 85 119.78125 84 L 119.78125 48 C 119.78125 47 120.78125 46 121.78125 46 L 404.46875 46 C 405.46875 46 406.46875 47 406.46875 48 L 406.46875 108 C 406.46875 109 407.46875 110 408.46875 110 L 426.46875 110 "/><path d="M 109.78125 86 L 117.78125 86 C 118.78125 86 119.78125 85 119.78125 84 L 119.78125 48 C 119.78125 47 120.78125 46 121.78125 46 L 404.46875 46 C 405.46875 46 406.46875 47 406.46875 48 L 406.46875 108 C 406.46875 109 407.46875 110 408.46875 110 L 426.46875 110 " class="clickable"/></g></g><g id="sprotty_ArchitectureBlockImpl$el2_ifu_tb_memread/AlwaysBlockImpl$null1/GPortImpl$expected_valOUT_to_ArchitectureBlockImpl$el2_ifu_tb_memread/AssignmentBlockImpl$error/GPortImpl$expected_valIN" class="sprotty-edge thick edge" style="fill:none;stroke:rgb(112, 112, 112);stroke-linejoin:round;stroke-width:3px;"><g><path d="M 109.78125 106 L 117.78125 106 C 118.78125 106 119.78125 107 119.78125 108 L 119.78125 123 C 119.78125 124 120.78125 125 121.78125 125 L 377.03125 125 "/><path d="M 109.78125 106 L 117.78125 106 C 118.78125 106 119.78125 107 119.78125 108 L 119.78125 123 C 119.78125 124 120.78125 125 121.78125 125 L 377.03125 125 " class="clickable"/></g></g><g id="sprotty_ArchitectureBlockImpl$el2_ifu_tb_memread/AlwaysBlockImpl$null1/GPortImpl$compressed_dinOUT_to_ArchitectureBlockImpl$el2_ifu_tb_memread/InstantiationBlockImpl$align/BPortImpl$din" class="sprotty-edge thick edge" style="fill:none;stroke:rgb(112, 112, 112);stroke-linejoin:round;stroke-width:3px;"><g><path d="M 109.78125 96 L 129.78125 96 "/><path d="M 109.78125 96 L 129.78125 96 " class="clickable"/></g></g><g id="sprotty_ArchitectureBlockImpl$el2_ifu_tb_memread/InstantiationBlockImpl$align/BPortImpl$dout_to_ArchitectureBlockImpl$el2_ifu_tb_memread/AssignmentBlockImpl$error/GPortImpl$actualIN" class="sprotty-edge thick edge" style="fill:none;stroke:rgb(112, 112, 112);stroke-linejoin:round;stroke-width:3px;"><g><path d="M 357.03125 96 L 365.03125 96 C 366.03125 96 367.03125 97 367.03125 98 L 367.03125 113 C 367.03125 114 368.03125 115 369.03125 115 L 377.03125 115 "/><path d="M 357.03125 96 L 365.03125 96 C 366.03125 96 367.03125 97 367.03125 98 L 367.03125 113 C 367.03125 114 368.03125 115 369.03125 115 L 377.03125 115 " class="clickable"/></g></g><g id="sprotty_ArchitectureBlockImpl$el2_ifu_tb_memread/AssignmentBlockImpl$error/GPortImpl$expected_valOUT_to_ArchitectureBlockImpl$el2_ifu_tb_memread/AlwaysBlockImpl$null0/GPortImpl$errorIN" class="sprotty-edge thick edge" style="fill:none;stroke:rgb(112, 112, 112);stroke-linejoin:round;stroke-width:3px;"><g><path d="M 396.46875 120 L 426.46875 120 "/><path d="M 396.46875 120 L 426.46875 120 " class="clickable"/></g></g><g id="sprotty_ArchitectureBlockImpl$el2_ifu_tb_memread/AlwaysBlockImpl$null0" class="statement" transform="translate(426.46875, 90)"><rect x="0" y="0" rx="10" ry="5" width="37.390625" height="40" class="sprotty-node" style="fill:rgb(245, 245, 245);stroke:rgb(112, 112, 112);"/><text class="clickable sprotty-label statementtype" id="sprotty_ArchitectureBlockImpl$el2_ifu_tb_memread/AlwaysBlockImpl$null0/labeltype" transform="translate(5, 14) translate(13.671875, 9)" style="cursor:default;font-size:8px;font-weight:700;perspective-origin:0.0078125px 0px;fill:rgb(112, 112, 112);text-anchor:middle;">always</text><g id="sprotty_ArchitectureBlockImpl$el2_ifu_tb_memread/AlwaysBlockImpl$null0/GPortImpl$errorIN" class="sprotty-hidden hidden" transform="translate(0, 30)" style="display:block;height:0px;width:0px;"/><g id="sprotty_ArchitectureBlockImpl$el2_ifu_tb_memread/AlwaysBlockImpl$null0/GPortImpl$clk_countIN" class="sprotty-hidden hidden" transform="translate(0, 20)" style="display:block;height:0px;width:0px;"/><g id="sprotty_ArchitectureBlockImpl$el2_ifu_tb_memread/AlwaysBlockImpl$null0/GPortImpl$clkIN" class="sprotty-hidden hidden" transform="translate(0, 10)" style="display:block;height:0px;width:0px;"/></g><g id="sprotty_ArchitectureBlockImpl$el2_ifu_tb_memread/AlwaysBlockImpl$null1" class="statement" transform="translate(72.390625, 76)"><rect x="0" y="0" rx="10" ry="5" width="37.390625" height="40" class="sprotty-node" style="fill:rgb(245, 245, 245);stroke:rgb(112, 112, 112);"/><text class="clickable sprotty-label statementtype" id="sprotty_ArchitectureBlockImpl$el2_ifu_tb_memread/AlwaysBlockImpl$null1/labeltype" transform="translate(5, 14) translate(13.671875, 9)" style="cursor:default;font-size:8px;font-weight:700;perspective-origin:0.0078125px 0px;fill:rgb(112, 112, 112);text-anchor:middle;">always</text><g id="sprotty_ArchitectureBlockImpl$el2_ifu_tb_memread/AlwaysBlockImpl$null1/GPortImpl$clkIN" class="sprotty-hidden hidden" transform="translate(0, 20)" style="display:block;height:0px;width:0px;"/><g id="sprotty_ArchitectureBlockImpl$el2_ifu_tb_memread/AlwaysBlockImpl$null1/GPortImpl$clk_countOUT" class="sprotty-hidden hidden" transform="translate(37.390625, 10)" style="display:block;height:0px;width:0px;"/><g id="sprotty_ArchitectureBlockImpl$el2_ifu_tb_memread/AlwaysBlockImpl$null1/GPortImpl$compressed_dinOUT" class="sprotty-hidden hidden" transform="translate(37.390625, 20)" style="display:block;height:0px;width:0px;"/><g id="sprotty_ArchitectureBlockImpl$el2_ifu_tb_memread/AlwaysBlockImpl$null1/GPortImpl$expected_valOUT" class="sprotty-hidden hidden" transform="translate(37.390625, 30)" style="display:block;height:0px;width:0px;"/></g><g id="sprotty_ArchitectureBlockImpl$el2_ifu_tb_memread/AlwaysBlockImpl$null2" class="statement" transform="translate(15, 85)"><rect x="0" y="0" rx="10" ry="5" width="37.390625" height="22" class="sprotty-node" style="fill:rgb(245, 245, 245);stroke:rgb(112, 112, 112);"/><text class="clickable sprotty-label statementtype" id="sprotty_ArchitectureBlockImpl$el2_ifu_tb_memread/AlwaysBlockImpl$null2/labeltype" transform="translate(5, 5) translate(13.671875, 9)" style="cursor:default;font-size:8px;font-weight:700;perspective-origin:0.0078125px 0px;fill:rgb(112, 112, 112);text-anchor:middle;">always</text><g id="sprotty_ArchitectureBlockImpl$el2_ifu_tb_memread/AlwaysBlockImpl$null2/GPortImpl$clkOUT" class="sprotty-hidden hidden" transform="translate(37.390625, 11)" style="display:block;height:0px;width:0px;"/></g><g id="sprotty_ArchitectureBlockImpl$el2_ifu_tb_memread/AssignmentBlockImpl$error" class="statement" transform="translate(377.03125, 105)"><rect x="0" y="0" rx="10" ry="5" width="19.4375" height="30" class="sprotty-node" style="fill:rgb(245, 245, 245);stroke:rgb(112, 112, 112);"/><text class="clickable sprotty-label statementtype" id="sprotty_ArchitectureBlockImpl$el2_ifu_tb_memread/AssignmentBlockImpl$error/labeltype" transform="translate(5, 9) translate(4.71875, 9)" style="cursor:default;font-size:8px;font-weight:700;perspective-origin:0px 0px;fill:rgb(112, 112, 112);text-anchor:middle;">&lt;=</text><g id="sprotty_ArchitectureBlockImpl$el2_ifu_tb_memread/AssignmentBlockImpl$error/GPortImpl$expected_valIN" class="sprotty-hidden hidden" transform="translate(0, 20)" style="display:block;height:0px;width:0px;"/><g id="sprotty_ArchitectureBlockImpl$el2_ifu_tb_memread/AssignmentBlockImpl$error/GPortImpl$actualIN" class="sprotty-hidden hidden" transform="translate(0, 10)" style="display:block;height:0px;width:0px;"/><g id="sprotty_ArchitectureBlockImpl$el2_ifu_tb_memread/AssignmentBlockImpl$error/GPortImpl$expected_valOUT" class="sprotty-hidden hidden" transform="translate(19.4375, 15)" style="display:block;height:0px;width:0px;"/></g><g id="sprotty_ArchitectureBlockImpl$el2_ifu_tb_memread/InstantiationBlockImpl$align" class="instantiation" transform="translate(129.78125, 58)"><g class="sprotty-block" style="fill:rgb(255, 255, 255);stroke:rgb(48, 48, 48);stroke-dasharray:0px;"><rect x="0" y="0" rx="1" ry="1" width="227.25" height="56"/><text x="113.625" y="12" class="sprotty-block-name" style="cursor:pointer;font-weight:700;perspective-origin:56.8125px 0px;fill:rgb(48, 48, 48);stroke:rgba(0, 0, 0, 0);dominant-baseline:middle;text-anchor:middle;">align : el2_ifu_compress_ctl</text><line x1="0" y1="20" x2="227.25" y2="20"/></g><g id="sprotty_ArchitectureBlockImpl$el2_ifu_tb_memread/InstantiationBlockImpl$align/BPortImpl$din" class="triangle" transform="translate(0, 38)"><path d="M 0,0 L 5,2.5 L 0,5 Z" transform="translate(-1.67, -2.5)" class="sprotty-port" style="fill:rgb(48, 48, 48);stroke:rgb(48, 48, 48);"/><text class="clickable sprotty-label port" id="sprotty_ArchitectureBlockImpl$el2_ifu_tb_memread/InstantiationBlockImpl$align/BPortImpl$din/label" transform="translate(6, -9) translate(9.046875, 14)" style="cursor:default;font-size:12px;perspective-origin:0px 0px;fill:rgb(48, 48, 48);text-anchor:middle;">din</text></g><g id="sprotty_ArchitectureBlockImpl$el2_ifu_tb_memread/InstantiationBlockImpl$align/BPortImpl$dout" class="triangle" transform="translate(227.25, 38)"><path d="M 0,0 L 5,2.5 L 0,5 Z" transform="translate(-1.67, -2.5)" class="sprotty-port" style="fill:rgb(48, 48, 48);stroke:rgb(48, 48, 48);"/><text class="clickable sprotty-label port" id="sprotty_ArchitectureBlockImpl$el2_ifu_tb_memread/InstantiationBlockImpl$align/BPortImpl$dout/label" transform="translate(-32.53125, -9) translate(13.265625, 14)" style="cursor:default;font-size:12px;perspective-origin:0px 0px;fill:rgb(48, 48, 48);text-anchor:middle;">dout</text></g></g></g></g></svg>