<svg xmlns="http://www.w3.org/2000/svg" id="sprotty_work.rvdff" class="sprotty-graph sprotty-block-diagram blockdiagram" style="font-family:&quot;Noto Sans&quot;, Helvetica, Arial, sans-serif;perspective-origin:0px 0px;transform-origin:0px 0px;" version="1.1" viewBox="7 7 241.546875 172" width="241.546875" height="172"><g transform="scale(1) translate(0,0)"><g id="sprotty_ArchitectureBlockImpl$rvdff" class="architecture" transform="translate(12, 12)"><g class="sprotty-block" style="fill:rgb(255, 255, 255);stroke:rgb(48, 48, 48);stroke-dasharray:0px;"><rect x="0" y="0" rx="1" ry="1" width="231.546875" height="162"/><text x="115.7734375" y="12" class="sprotty-block-name" style="cursor:pointer;font-weight:700;perspective-origin:58.125px 0px;fill:rgb(48, 48, 48);stroke:rgba(0, 0, 0, 0);dominant-baseline:middle;text-anchor:middle;">rvdff</text><line x1="0" y1="20" x2="231.546875" y2="20"/></g><g id="sprotty_ArchitectureBlockImpl$rvdff/GenerateStatementBlockImpl$null4/GPortImpl$dout_to_ArchitectureBlockImpl$rvdff/BPortImpl$dout" class="sprotty-edge thick edge" style="fill:none;stroke:rgb(112, 112, 112);stroke-linejoin:round;stroke-width:3px;"><g><path d="M 184.015625 61 L 231.546875 61 "/><path d="M 184.015625 61 L 231.546875 61 " class="clickable"/></g></g><g id="sprotty_ArchitectureBlockImpl$rvdff/BPortImpl$din_to_ArchitectureBlockImpl$rvdff/GenerateStatementBlockImpl$null4/GPortImpl$din" class="sprotty-edge thick edge" style="fill:none;stroke:rgb(112, 112, 112);stroke-linejoin:round;stroke-width:3px;"><g><path d="M 0 54 L 53.625 54 C 54.625 54 55.625 55 55.625 56 L 55.625 59 C 55.625 60 56.625 61 57.625 61 L 65.625 61 "/><path d="M 0 54 L 53.625 54 C 54.625 54 55.625 55 55.625 56 L 55.625 59 C 55.625 60 56.625 61 57.625 61 L 65.625 61 " class="clickable"/></g></g><g id="sprotty_ArchitectureBlockImpl$rvdff/BPortImpl$clk_to_ArchitectureBlockImpl$rvdff/GenerateStatementBlockImpl$null4/GPortImpl$clk" class="sprotty-edge edge" style="fill:none;stroke:rgb(112, 112, 112);stroke-linejoin:round;"><g><path d="M 0 122 L 65.625 122 "/><path d="M 0 122 L 65.625 122 " class="clickable"/></g></g><g id="sprotty_ArchitectureBlockImpl$rvdff/BPortImpl$rst_l_to_ArchitectureBlockImpl$rvdff/GenerateStatementBlockImpl$null4/GPortImpl$rst_l" class="sprotty-edge edge" style="fill:none;stroke:rgb(112, 112, 112);stroke-linejoin:round;"><g><path d="M 0 88 L 53.625 88 C 54.625 88 55.625 89 55.625 90 L 55.625 110 C 55.625 111 56.625 112 57.625 112 L 65.625 112 "/><path d="M 0 88 L 53.625 88 C 54.625 88 55.625 89 55.625 90 L 55.625 110 C 55.625 111 56.625 112 57.625 112 L 65.625 112 " class="clickable"/></g></g><g id="sprotty_ArchitectureBlockImpl$rvdff/GenerateStatementBlockImpl$null4" class="generate" transform="translate(65.625, 35)"><g class="sprotty-block sprotty-block-generate" style="fill:rgb(255, 255, 255);stroke:rgb(48, 48, 48);stroke-dasharray:0px;"><rect x="0" y="0" rx="1" ry="1" width="118.390625" height="112" style="stroke-dasharray:3px, 1px;"/><text x="59.1953125" y="12" class="sprotty-block-name" style="cursor:pointer;font-weight:700;fill:rgb(48, 48, 48);stroke:rgba(0, 0, 0, 0);dominant-baseline:middle;text-anchor:middle;"/></g><g id="sprotty_ArchitectureBlockImpl$rvdff/GenerateStatementBlockImpl$null4/AssignmentBlockImpl$dout/GPortImpl$doutOUT_to_ArchitectureBlockImpl$rvdff/GenerateStatementBlockImpl$null4/GPortImpl$dout" class="sprotty-edge thick edge" style="fill:none;stroke:rgb(112, 112, 112);stroke-linejoin:round;stroke-width:3px;"><g><path d="M 68.9140625 26 L 118.390625 26 "/><path d="M 68.9140625 26 L 118.390625 26 " class="clickable"/></g></g><g id="sprotty_ArchitectureBlockImpl$rvdff/GenerateStatementBlockImpl$null4/AlwaysBlockImpl$null4/GPortImpl$doutOUT_to_ArchitectureBlockImpl$rvdff/GenerateStatementBlockImpl$null4/GPortImpl$dout" class="sprotty-edge thick edge" style="fill:none;stroke:rgb(112, 112, 112);stroke-linejoin:round;stroke-width:3px;"><g><path d="M 83.390625 77 L 91.390625 77 C 92.390625 77 93.390625 76 93.390625 75 L 93.390625 28 C 93.390625 27 94.390625 26 95.390625 26 L 118.390625 26 "/><path d="M 83.390625 77 L 91.390625 77 C 92.390625 77 93.390625 76 93.390625 75 L 93.390625 28 C 93.390625 27 94.390625 26 95.390625 26 L 118.390625 26 " class="clickable"/></g><circle r="3" id="sprotty_ArchitectureBlockImpl$rvdff/GenerateStatementBlockImpl$null4/AlwaysBlockImpl$null4/GPortImpl$doutOUT_to_ArchitectureBlockImpl$rvdff/GenerateStatementBlockImpl$null4/GPortImpl$dout/junction0" transform="translate(93.390625, 26)" class="sprotty-junction thick" style="fill:rgb(112, 112, 112);stroke:none;"/></g><g id="sprotty_ArchitectureBlockImpl$rvdff/GenerateStatementBlockImpl$null4/GPortImpl$din_to_ArchitectureBlockImpl$rvdff/GenerateStatementBlockImpl$null4/AssignmentBlockImpl$dout/GPortImpl$dinIN" class="sprotty-edge thick edge" style="fill:none;stroke:rgb(112, 112, 112);stroke-linejoin:round;stroke-width:3px;"><g><path d="M 0 26 L 49.4765625 26 "/><path d="M 0 26 L 49.4765625 26 " class="clickable"/></g></g><g id="sprotty_ArchitectureBlockImpl$rvdff/GenerateStatementBlockImpl$null4/GPortImpl$clk_to_ArchitectureBlockImpl$rvdff/GenerateStatementBlockImpl$null4/AlwaysBlockImpl$null4/GPortImpl$clkIN" class="sprotty-edge edge" style="fill:none;stroke:rgb(112, 112, 112);stroke-linejoin:round;"><g><path d="M 0 87 L 35 87 "/><path d="M 0 87 L 35 87 " class="clickable"/></g></g><g id="sprotty_ArchitectureBlockImpl$rvdff/GenerateStatementBlockImpl$null4/GPortImpl$rst_l_to_ArchitectureBlockImpl$rvdff/GenerateStatementBlockImpl$null4/AlwaysBlockImpl$null4/GPortImpl$rst_lIN" class="sprotty-edge edge" style="fill:none;stroke:rgb(112, 112, 112);stroke-linejoin:round;"><g><path d="M 0 77 L 35 77 "/><path d="M 0 77 L 35 77 " class="clickable"/></g></g><g id="sprotty_ArchitectureBlockImpl$rvdff/GenerateStatementBlockImpl$null4/GPortImpl$din_to_ArchitectureBlockImpl$rvdff/GenerateStatementBlockImpl$null4/AlwaysBlockImpl$null4/GPortImpl$dinIN" class="sprotty-edge thick edge" style="fill:none;stroke:rgb(112, 112, 112);stroke-linejoin:round;stroke-width:3px;"><g><path d="M 0 26 L 23 26 C 24 26 25 27 25 28 L 25 65 C 25 66 26 67 27 67 L 35 67 "/><path d="M 0 26 L 23 26 C 24 26 25 27 25 28 L 25 65 C 25 66 26 67 27 67 L 35 67 " class="clickable"/></g><circle r="3" id="sprotty_ArchitectureBlockImpl$rvdff/GenerateStatementBlockImpl$null4/GPortImpl$din_to_ArchitectureBlockImpl$rvdff/GenerateStatementBlockImpl$null4/AlwaysBlockImpl$null4/GPortImpl$dinIN/junction0" transform="translate(25, 26)" class="sprotty-junction thick" style="fill:rgb(112, 112, 112);stroke:none;"/></g><g id="sprotty_ArchitectureBlockImpl$rvdff/GenerateStatementBlockImpl$null4/AlwaysBlockImpl$null4" class="statement" transform="translate(35, 57)"><rect x="0" y="0" rx="10" ry="5" width="48.390625" height="40" class="sprotty-node" style="fill:rgb(245, 245, 245);stroke:rgb(112, 112, 112);"/><text class="clickable sprotty-label statementtype" id="sprotty_ArchitectureBlockImpl$rvdff/GenerateStatementBlockImpl$null4/AlwaysBlockImpl$null4/labeltype" transform="translate(5, 14) translate(18.828125, 9)" style="cursor:default;font-size:8px;font-weight:700;perspective-origin:0.179688px 0px;fill:rgb(112, 112, 112);text-anchor:middle;">always_ff</text><g id="sprotty_ArchitectureBlockImpl$rvdff/GenerateStatementBlockImpl$null4/AlwaysBlockImpl$null4/GPortImpl$dinIN" class="sprotty-hidden hidden" transform="translate(0, 10)" style="display:block;height:0px;width:0px;"/><g id="sprotty_ArchitectureBlockImpl$rvdff/GenerateStatementBlockImpl$null4/AlwaysBlockImpl$null4/GPortImpl$rst_lIN" class="sprotty-hidden hidden" transform="translate(0, 20)" style="display:block;height:0px;width:0px;"/><g id="sprotty_ArchitectureBlockImpl$rvdff/GenerateStatementBlockImpl$null4/AlwaysBlockImpl$null4/GPortImpl$clkIN" class="sprotty-hidden hidden" transform="translate(0, 30)" style="display:block;height:0px;width:0px;"/><g id="sprotty_ArchitectureBlockImpl$rvdff/GenerateStatementBlockImpl$null4/AlwaysBlockImpl$null4/GPortImpl$doutOUT" class="sprotty-hidden hidden" transform="translate(48.390625, 20)" style="display:block;height:0px;width:0px;"/></g><g id="sprotty_ArchitectureBlockImpl$rvdff/GenerateStatementBlockImpl$null4/AssignmentBlockImpl$dout" class="statement" transform="translate(49.4765625, 15)"><rect x="0" y="0" rx="10" ry="5" width="19.4375" height="22" class="sprotty-node" style="fill:rgb(245, 245, 245);stroke:rgb(112, 112, 112);"/><text class="clickable sprotty-label statementtype" id="sprotty_ArchitectureBlockImpl$rvdff/GenerateStatementBlockImpl$null4/AssignmentBlockImpl$dout/labeltype" transform="translate(5, 5) translate(4.71875, 9)" style="cursor:default;font-size:8px;font-weight:700;perspective-origin:0px 0px;fill:rgb(112, 112, 112);text-anchor:middle;">&lt;=</text><g id="sprotty_ArchitectureBlockImpl$rvdff/GenerateStatementBlockImpl$null4/AssignmentBlockImpl$dout/GPortImpl$dinIN" class="sprotty-hidden hidden" transform="translate(0, 11)" style="display:block;height:0px;width:0px;"/><g id="sprotty_ArchitectureBlockImpl$rvdff/GenerateStatementBlockImpl$null4/AssignmentBlockImpl$dout/GPortImpl$doutOUT" class="sprotty-hidden hidden" transform="translate(19.4375, 11)" style="display:block;height:0px;width:0px;"/></g><g id="sprotty_ArchitectureBlockImpl$rvdff/GenerateStatementBlockImpl$null4/GPortImpl$rst_l" class="triangle" transform="translate(0, 77)"><path d="M 0,0 L 5,2.5 L 0,5 Z" transform="translate(-1.67, -2.5)" class="sprotty-port" style="fill:rgb(48, 48, 48);stroke:rgb(48, 48, 48);"/></g><g id="sprotty_ArchitectureBlockImpl$rvdff/GenerateStatementBlockImpl$null4/GPortImpl$clk" class="triangle" transform="translate(0, 87)"><path d="M 0,0 L 5,2.5 L 0,5 Z" transform="translate(-1.67, -2.5)" class="sprotty-port" style="fill:rgb(48, 48, 48);stroke:rgb(48, 48, 48);"/></g><g id="sprotty_ArchitectureBlockImpl$rvdff/GenerateStatementBlockImpl$null4/GPortImpl$din" class="triangle" transform="translate(0, 26)"><path d="M 0,0 L 5,2.5 L 0,5 Z" transform="translate(-1.67, -2.5)" class="sprotty-port" style="fill:rgb(48, 48, 48);stroke:rgb(48, 48, 48);"/></g><g id="sprotty_ArchitectureBlockImpl$rvdff/GenerateStatementBlockImpl$null4/GPortImpl$dout" class="triangle" transform="translate(118.390625, 26)"><path d="M 0,0 L 5,2.5 L 0,5 Z" transform="translate(-1.67, -2.5)" class="sprotty-port" style="fill:rgb(48, 48, 48);stroke:rgb(48, 48, 48);"/></g></g><g id="sprotty_ArchitectureBlockImpl$rvdff/BPortImpl$rst_l" class="triangle" transform="translate(0, 88)"><path d="M 0,0 L 5,2.5 L 0,5 Z" transform="translate(-1.67, -2.5)" class="sprotty-port" style="fill:rgb(48, 48, 48);stroke:rgb(48, 48, 48);"/><text class="clickable sprotty-label port" id="sprotty_ArchitectureBlockImpl$rvdff/BPortImpl$rst_l/label" transform="translate(6, 6) translate(12.3125, 14)" style="cursor:default;font-size:12px;perspective-origin:0px 0px;fill:rgb(48, 48, 48);text-anchor:middle;">rst_l</text></g><g id="sprotty_ArchitectureBlockImpl$rvdff/BPortImpl$clk" class="triangle" transform="translate(0, 122)"><path d="M 0,0 L 5,2.5 L 0,5 Z" transform="translate(-1.67, -2.5)" class="sprotty-port" style="fill:rgb(48, 48, 48);stroke:rgb(48, 48, 48);"/><text class="clickable sprotty-label port" id="sprotty_ArchitectureBlockImpl$rvdff/BPortImpl$clk/label" transform="translate(6, 6) translate(8.078125, 14)" style="cursor:default;font-size:12px;perspective-origin:0.09375px 0px;fill:rgb(48, 48, 48);text-anchor:middle;">clk</text></g><g id="sprotty_ArchitectureBlockImpl$rvdff/BPortImpl$din" class="triangle" transform="translate(0, 54)"><path d="M 0,0 L 5,2.5 L 0,5 Z" transform="translate(-1.67, -2.5)" class="sprotty-port" style="fill:rgb(48, 48, 48);stroke:rgb(48, 48, 48);"/><text class="clickable sprotty-label port" id="sprotty_ArchitectureBlockImpl$rvdff/BPortImpl$din/label" transform="translate(6, 6) translate(9.046875, 14)" style="cursor:default;font-size:12px;perspective-origin:0px 0px;fill:rgb(48, 48, 48);text-anchor:middle;">din</text></g><g id="sprotty_ArchitectureBlockImpl$rvdff/BPortImpl$dout" class="triangle" transform="translate(231.546875, 61)"><path d="M 0,0 L 5,2.5 L 0,5 Z" transform="translate(-1.67, -2.5)" class="sprotty-port" style="fill:rgb(48, 48, 48);stroke:rgb(48, 48, 48);"/><text class="clickable sprotty-label port" id="sprotty_ArchitectureBlockImpl$rvdff/BPortImpl$dout/label" transform="translate(-32.53125, 6) translate(13.265625, 14)" style="cursor:default;font-size:12px;perspective-origin:0px 0px;fill:rgb(48, 48, 48);text-anchor:middle;">dout</text></g></g></g></svg>