<svg xmlns="http://www.w3.org/2000/svg" id="sprotty_work.el2_dec_trigger" class="sprotty-graph sprotty-block-diagram blockdiagram" style="font-family:&quot;Noto Sans&quot;, Helvetica, Arial, sans-serif;perspective-origin:0px 0px;transform-origin:0px 0px;" version="1.1" viewBox="7 7 731.9375 215" width="731.9375" height="215"><g transform="scale(1) translate(0,0)"><g id="sprotty_ArchitectureBlockImpl$el2_dec_trigger" class="architecture" transform="translate(12, 12)"><g class="sprotty-block" style="fill:rgb(255, 255, 255);stroke:rgb(48, 48, 48);stroke-dasharray:0px;"><rect x="0" y="0" rx="1" ry="1" width="721.9375" height="205"/><text x="360.96875" y="12" class="sprotty-block-name" style="cursor:pointer;font-weight:700;perspective-origin:180.609px 0px;fill:rgb(48, 48, 48);stroke:rgba(0, 0, 0, 0);dominant-baseline:middle;text-anchor:middle;">el2_dec_trigger</text><line x1="0" y1="20" x2="721.9375" y2="20"/></g><g id="sprotty_ArchitectureBlockImpl$el2_dec_trigger/GenerateStatementBlockImpl$null3/GPortImpl$dec_i0_trigger_match_d_to_ArchitectureBlockImpl$el2_dec_trigger/BPortImpl$dec_i0_trigger_match_d" class="sprotty-edge thick edge" style="fill:none;stroke:rgb(112, 112, 112);stroke-linejoin:round;stroke-width:3px;"><g><path d="M 563.9375 124 L 721.9375 124 "/><path d="M 563.9375 124 L 721.9375 124 " class="clickable"/></g></g><g id="sprotty_ArchitectureBlockImpl$el2_dec_trigger/BPortImpl$trigger_pkt_any_to_ArchitectureBlockImpl$el2_dec_trigger/GenerateStatementBlockImpl$null3/GPortImpl$trigger_pkt_any" class="sprotty-edge thick edge" style="fill:none;stroke:rgb(112, 112, 112);stroke-linejoin:round;stroke-width:3px;"><g><path d="M 0 131 L 118.46875 131 C 119.46875 131 120.46875 132 120.46875 133 L 120.46875 153 C 120.46875 154 121.46875 155 122.46875 155 L 130.46875 155 "/><path d="M 0 131 L 118.46875 131 C 119.46875 131 120.46875 132 120.46875 133 L 120.46875 153 C 120.46875 154 121.46875 155 122.46875 155 L 130.46875 155 " class="clickable"/></g></g><g id="sprotty_ArchitectureBlockImpl$el2_dec_trigger/BPortImpl$dec_i0_pc_d_to_ArchitectureBlockImpl$el2_dec_trigger/GenerateStatementBlockImpl$null3/GPortImpl$dec_i0_pc_d" class="sprotty-edge thick edge" style="fill:none;stroke:rgb(112, 112, 112);stroke-linejoin:round;stroke-width:3px;"><g><path d="M 0 165 L 130.46875 165 "/><path d="M 0 165 L 130.46875 165 " class="clickable"/></g></g><g id="sprotty_ArchitectureBlockImpl$el2_dec_trigger/GenerateStatementBlockImpl$null3" class="generate" transform="translate(130.46875, 35)"><g class="sprotty-block sprotty-block-generate" style="fill:rgb(255, 255, 255);stroke:rgb(48, 48, 48);stroke-dasharray:0px;"><rect x="0" y="0" rx="1" ry="1" width="433.46875" height="155" style="stroke-dasharray:3px, 1px;"/><text x="216.734375" y="12" class="sprotty-block-name" style="cursor:pointer;font-weight:700;fill:rgb(48, 48, 48);stroke:rgba(0, 0, 0, 0);dominant-baseline:middle;text-anchor:middle;"/></g><g id="sprotty_ArchitectureBlockImpl$el2_dec_trigger/GenerateStatementBlockImpl$null3/AssignmentBlockImpl$dec_i0_trigger_match_d/GPortImpl$dec_i0_trigger_match_dOUT_to_ArchitectureBlockImpl$el2_dec_trigger/GenerateStatementBlockImpl$null3/GPortImpl$dec_i0_trigger_match_d" class="sprotty-edge thick edge" style="fill:none;stroke:rgb(112, 112, 112);stroke-linejoin:round;stroke-width:3px;"><g><path d="M 418.46875 89 L 433.46875 89 "/><path d="M 418.46875 89 L 433.46875 89 " class="clickable"/></g></g><g id="sprotty_ArchitectureBlockImpl$el2_dec_trigger/GenerateStatementBlockImpl$null3/GPortImpl$trigger_pkt_any_to_ArchitectureBlockImpl$el2_dec_trigger/GenerateStatementBlockImpl$null3/InstantiationBlockImpl$trigger_i0_match/BPortImpl$mask" class="sprotty-edge thick edge" style="fill:none;stroke:rgb(112, 112, 112);stroke-linejoin:round;stroke-width:3px;"><g><path d="M 0 120 L 23 120 C 24 120 25 119 25 118 L 25 18 C 25 17 26 16 27 16 L 72.4375 16 C 73.4375 16 74.4375 17 74.4375 18 L 74.4375 64 C 74.4375 65 75.4375 66 76.4375 66 L 84.4375 66 "/><path d="M 0 120 L 23 120 C 24 120 25 119 25 118 L 25 18 C 25 17 26 16 27 16 L 72.4375 16 C 73.4375 16 74.4375 17 74.4375 18 L 74.4375 64 C 74.4375 65 75.4375 66 76.4375 66 L 84.4375 66 " class="clickable"/></g><circle r="3" id="sprotty_ArchitectureBlockImpl$el2_dec_trigger/GenerateStatementBlockImpl$null3/GPortImpl$trigger_pkt_any_to_ArchitectureBlockImpl$el2_dec_trigger/GenerateStatementBlockImpl$null3/InstantiationBlockImpl$trigger_i0_match/BPortImpl$mask/junction0" transform="translate(25, 120)" class="sprotty-junction thick" style="fill:rgb(112, 112, 112);stroke:none;"/><circle r="3" id="sprotty_ArchitectureBlockImpl$el2_dec_trigger/GenerateStatementBlockImpl$null3/GPortImpl$trigger_pkt_any_to_ArchitectureBlockImpl$el2_dec_trigger/GenerateStatementBlockImpl$null3/InstantiationBlockImpl$trigger_i0_match/BPortImpl$mask/junction1" transform="translate(74.4375, 16)" class="sprotty-junction thick" style="fill:rgb(112, 112, 112);stroke:none;"/></g><g id="sprotty_ArchitectureBlockImpl$el2_dec_trigger/GenerateStatementBlockImpl$null3/GPortImpl$trigger_pkt_any_to_ArchitectureBlockImpl$el2_dec_trigger/GenerateStatementBlockImpl$null3/InstantiationBlockImpl$trigger_i0_match/BPortImpl$masken" class="sprotty-edge thick edge" style="fill:none;stroke:rgb(112, 112, 112);stroke-linejoin:round;stroke-width:3px;"><g><path d="M 0 120 L 74.4375 120 L 74.4375 122 L 84.4375 122 "/><path d="M 0 120 L 74.4375 120 L 74.4375 122 L 84.4375 122 " class="clickable"/></g></g><g id="sprotty_ArchitectureBlockImpl$el2_dec_trigger/GenerateStatementBlockImpl$null3/GPortImpl$trigger_pkt_any_to_ArchitectureBlockImpl$el2_dec_trigger/GenerateStatementBlockImpl$null3/AssignmentBlockImpl$dec_i0_match_data/GPortImpl$trigger_pkt_anyIN" class="sprotty-edge thick edge" style="fill:none;stroke:rgb(112, 112, 112);stroke-linejoin:round;stroke-width:3px;"><g><path d="M 0 120 L 23 120 C 24 120 25 119 25 118 L 25 91 C 25 90 26 89 27 89 L 45 89 "/><path d="M 0 120 L 23 120 C 24 120 25 119 25 118 L 25 91 C 25 90 26 89 27 89 L 45 89 " class="clickable"/></g><circle r="3" id="sprotty_ArchitectureBlockImpl$el2_dec_trigger/GenerateStatementBlockImpl$null3/GPortImpl$trigger_pkt_any_to_ArchitectureBlockImpl$el2_dec_trigger/GenerateStatementBlockImpl$null3/AssignmentBlockImpl$dec_i0_match_data/GPortImpl$trigger_pkt_anyIN/junction0" transform="translate(25, 89)" class="sprotty-junction thick" style="fill:rgb(112, 112, 112);stroke:none;"/></g><g id="sprotty_ArchitectureBlockImpl$el2_dec_trigger/GenerateStatementBlockImpl$null3/GPortImpl$dec_i0_pc_d_to_ArchitectureBlockImpl$el2_dec_trigger/GenerateStatementBlockImpl$null3/AssignmentBlockImpl$dec_i0_match_data/GPortImpl$dec_i0_pc_dIN" class="sprotty-edge thick edge" style="fill:none;stroke:rgb(112, 112, 112);stroke-linejoin:round;stroke-width:3px;"><g><path d="M 0 130 L 33 130 C 34 130 35 129 35 128 L 35 101 C 35 100 36 99 37 99 L 45 99 "/><path d="M 0 130 L 33 130 C 34 130 35 129 35 128 L 35 101 C 35 100 36 99 37 99 L 45 99 " class="clickable"/></g></g><g id="sprotty_ArchitectureBlockImpl$el2_dec_trigger/GenerateStatementBlockImpl$null3/GPortImpl$trigger_pkt_any_to_ArchitectureBlockImpl$el2_dec_trigger/GenerateStatementBlockImpl$null3/AssignmentBlockImpl$dec_i0_trigger_match_d/GPortImpl$trigger_pkt_anyIN" class="sprotty-edge thick edge" style="fill:none;stroke:rgb(112, 112, 112);stroke-linejoin:round;stroke-width:3px;"><g><path d="M 0 120 L 23 120 C 24 120 25 119 25 118 L 25 18 C 25 17 26 16 27 16 L 387.03125 16 C 388.03125 16 389.03125 17 389.03125 18 L 389.03125 82 C 389.03125 83 390.03125 84 391.03125 84 L 399.03125 84 "/><path d="M 0 120 L 23 120 C 24 120 25 119 25 118 L 25 18 C 25 17 26 16 27 16 L 387.03125 16 C 388.03125 16 389.03125 17 389.03125 18 L 389.03125 82 C 389.03125 83 390.03125 84 391.03125 84 L 399.03125 84 " class="clickable"/></g></g><g id="sprotty_ArchitectureBlockImpl$el2_dec_trigger/GenerateStatementBlockImpl$null3/InstantiationBlockImpl$trigger_i0_match/BPortImpl$match_to_ArchitectureBlockImpl$el2_dec_trigger/GenerateStatementBlockImpl$null3/AssignmentBlockImpl$dec_i0_trigger_match_d/GPortImpl$dec_i0_trigger_data_matchIN" class="sprotty-edge thick edge" style="fill:none;stroke:rgb(112, 112, 112);stroke-linejoin:round;stroke-width:3px;"><g><path d="M 379.03125 94 L 399.03125 94 "/><path d="M 379.03125 94 L 399.03125 94 " class="clickable"/></g></g><g id="sprotty_ArchitectureBlockImpl$el2_dec_trigger/GenerateStatementBlockImpl$null3/AssignmentBlockImpl$dec_i0_match_data/GPortImpl$dec_i0_match_dataOUT_to_ArchitectureBlockImpl$el2_dec_trigger/GenerateStatementBlockImpl$null3/InstantiationBlockImpl$trigger_i0_match/BPortImpl$data" class="sprotty-edge thick edge" style="fill:none;stroke:rgb(112, 112, 112);stroke-linejoin:round;stroke-width:3px;"><g><path d="M 64.4375 94 L 84.4375 94 "/><path d="M 64.4375 94 L 84.4375 94 " class="clickable"/></g></g><g id="sprotty_ArchitectureBlockImpl$el2_dec_trigger/GenerateStatementBlockImpl$null3/AssignmentBlockImpl$dec_i0_trigger_match_d" class="statement" transform="translate(399.03125, 74)"><rect x="0" y="0" rx="10" ry="5" width="19.4375" height="30" class="sprotty-node" style="fill:rgb(245, 245, 245);stroke:rgb(112, 112, 112);"/><text class="clickable sprotty-label statementtype" id="sprotty_ArchitectureBlockImpl$el2_dec_trigger/GenerateStatementBlockImpl$null3/AssignmentBlockImpl$dec_i0_trigger_match_d/labeltype" transform="translate(5, 9) translate(4.71875, 9)" style="cursor:default;font-size:8px;font-weight:700;perspective-origin:0px 0px;fill:rgb(112, 112, 112);text-anchor:middle;">&lt;=</text><g id="sprotty_ArchitectureBlockImpl$el2_dec_trigger/GenerateStatementBlockImpl$null3/AssignmentBlockImpl$dec_i0_trigger_match_d/GPortImpl$dec_i0_trigger_data_matchIN" class="sprotty-hidden hidden" transform="translate(0, 20)" style="display:block;height:0px;width:0px;"/><g id="sprotty_ArchitectureBlockImpl$el2_dec_trigger/GenerateStatementBlockImpl$null3/AssignmentBlockImpl$dec_i0_trigger_match_d/GPortImpl$trigger_pkt_anyIN" class="sprotty-hidden hidden" transform="translate(0, 10)" style="display:block;height:0px;width:0px;"/><g id="sprotty_ArchitectureBlockImpl$el2_dec_trigger/GenerateStatementBlockImpl$null3/AssignmentBlockImpl$dec_i0_trigger_match_d/GPortImpl$dec_i0_trigger_match_dOUT" class="sprotty-hidden hidden" transform="translate(19.4375, 15)" style="display:block;height:0px;width:0px;"/></g><g id="sprotty_ArchitectureBlockImpl$el2_dec_trigger/GenerateStatementBlockImpl$null3/AssignmentBlockImpl$dec_i0_match_data" class="statement" transform="translate(45, 79)"><rect x="0" y="0" rx="10" ry="5" width="19.4375" height="30" class="sprotty-node" style="fill:rgb(245, 245, 245);stroke:rgb(112, 112, 112);"/><text class="clickable sprotty-label statementtype" id="sprotty_ArchitectureBlockImpl$el2_dec_trigger/GenerateStatementBlockImpl$null3/AssignmentBlockImpl$dec_i0_match_data/labeltype" transform="translate(5, 9) translate(4.71875, 9)" style="cursor:default;font-size:8px;font-weight:700;perspective-origin:0px 0px;fill:rgb(112, 112, 112);text-anchor:middle;">&lt;=</text><g id="sprotty_ArchitectureBlockImpl$el2_dec_trigger/GenerateStatementBlockImpl$null3/AssignmentBlockImpl$dec_i0_match_data/GPortImpl$dec_i0_pc_dIN" class="sprotty-hidden hidden" transform="translate(0, 20)" style="display:block;height:0px;width:0px;"/><g id="sprotty_ArchitectureBlockImpl$el2_dec_trigger/GenerateStatementBlockImpl$null3/AssignmentBlockImpl$dec_i0_match_data/GPortImpl$trigger_pkt_anyIN" class="sprotty-hidden hidden" transform="translate(0, 10)" style="display:block;height:0px;width:0px;"/><g id="sprotty_ArchitectureBlockImpl$el2_dec_trigger/GenerateStatementBlockImpl$null3/AssignmentBlockImpl$dec_i0_match_data/GPortImpl$dec_i0_match_dataOUT" class="sprotty-hidden hidden" transform="translate(19.4375, 15)" style="display:block;height:0px;width:0px;"/></g><g id="sprotty_ArchitectureBlockImpl$el2_dec_trigger/GenerateStatementBlockImpl$null3/InstantiationBlockImpl$trigger_i0_match" class="instantiation" transform="translate(84.4375, 28)"><g class="sprotty-block" style="fill:rgb(255, 255, 255);stroke:rgb(48, 48, 48);stroke-dasharray:0px;"><rect x="0" y="0" rx="1" ry="1" width="294.59375" height="112"/><text x="147.296875" y="12" class="sprotty-block-name" style="cursor:pointer;font-weight:700;perspective-origin:73.6484px 0px;fill:rgb(48, 48, 48);stroke:rgba(0, 0, 0, 0);dominant-baseline:middle;text-anchor:middle;">trigger_i0_match : rvmaskandmatch</text><line x1="0" y1="20" x2="294.59375" y2="20"/></g><g id="sprotty_ArchitectureBlockImpl$el2_dec_trigger/GenerateStatementBlockImpl$null3/InstantiationBlockImpl$trigger_i0_match/BPortImpl$masken" class="triangle" transform="translate(0, 94)"><path d="M 0,0 L 5,2.5 L 0,5 Z" transform="translate(-1.67, -2.5)" class="sprotty-port" style="fill:rgb(48, 48, 48);stroke:rgb(48, 48, 48);"/><text class="clickable sprotty-label port" id="sprotty_ArchitectureBlockImpl$el2_dec_trigger/GenerateStatementBlockImpl$null3/InstantiationBlockImpl$trigger_i0_match/BPortImpl$masken/label" transform="translate(6, -9) translate(21.9375, 14)" style="cursor:default;font-size:12px;perspective-origin:0px 0px;fill:rgb(48, 48, 48);text-anchor:middle;">masken</text></g><g id="sprotty_ArchitectureBlockImpl$el2_dec_trigger/GenerateStatementBlockImpl$null3/InstantiationBlockImpl$trigger_i0_match/BPortImpl$data" class="triangle" transform="translate(0, 66)"><path d="M 0,0 L 5,2.5 L 0,5 Z" transform="translate(-1.67, -2.5)" class="sprotty-port" style="fill:rgb(48, 48, 48);stroke:rgb(48, 48, 48);"/><text class="clickable sprotty-label port" id="sprotty_ArchitectureBlockImpl$el2_dec_trigger/GenerateStatementBlockImpl$null3/InstantiationBlockImpl$trigger_i0_match/BPortImpl$data/label" transform="translate(6, -9) translate(12.53125, 14)" style="cursor:default;font-size:12px;perspective-origin:0px 0px;fill:rgb(48, 48, 48);text-anchor:middle;">data</text></g><g id="sprotty_ArchitectureBlockImpl$el2_dec_trigger/GenerateStatementBlockImpl$null3/InstantiationBlockImpl$trigger_i0_match/BPortImpl$mask" class="triangle" transform="translate(0, 38)"><path d="M 0,0 L 5,2.5 L 0,5 Z" transform="translate(-1.67, -2.5)" class="sprotty-port" style="fill:rgb(48, 48, 48);stroke:rgb(48, 48, 48);"/><text class="clickable sprotty-label port" id="sprotty_ArchitectureBlockImpl$el2_dec_trigger/GenerateStatementBlockImpl$null3/InstantiationBlockImpl$trigger_i0_match/BPortImpl$mask/label" transform="translate(6, -9) translate(15.0625, 14)" style="cursor:default;font-size:12px;perspective-origin:0.09375px 0px;fill:rgb(48, 48, 48);text-anchor:middle;">mask</text></g><g id="sprotty_ArchitectureBlockImpl$el2_dec_trigger/GenerateStatementBlockImpl$null3/InstantiationBlockImpl$trigger_i0_match/BPortImpl$match" class="triangle" transform="translate(294.59375, 66)"><path d="M 0,0 L 5,2.5 L 0,5 Z" transform="translate(-1.67, -2.5)" class="sprotty-port" style="fill:rgb(48, 48, 48);stroke:rgb(48, 48, 48);"/><text class="clickable sprotty-label port" id="sprotty_ArchitectureBlockImpl$el2_dec_trigger/GenerateStatementBlockImpl$null3/InstantiationBlockImpl$trigger_i0_match/BPortImpl$match/label" transform="translate(-41.4375, -9) translate(17.71875, 14)" style="cursor:default;font-size:12px;perspective-origin:0px 0px;fill:rgb(48, 48, 48);text-anchor:middle;">match</text></g></g><g id="sprotty_ArchitectureBlockImpl$el2_dec_trigger/GenerateStatementBlockImpl$null3/GPortImpl$dec_i0_pc_d" class="triangle" transform="translate(0, 130)"><path d="M 0,0 L 5,2.5 L 0,5 Z" transform="translate(-1.67, -2.5)" class="sprotty-port" style="fill:rgb(48, 48, 48);stroke:rgb(48, 48, 48);"/></g><g id="sprotty_ArchitectureBlockImpl$el2_dec_trigger/GenerateStatementBlockImpl$null3/GPortImpl$trigger_pkt_any" class="triangle" transform="translate(0, 120)"><path d="M 0,0 L 5,2.5 L 0,5 Z" transform="translate(-1.67, -2.5)" class="sprotty-port" style="fill:rgb(48, 48, 48);stroke:rgb(48, 48, 48);"/></g><g id="sprotty_ArchitectureBlockImpl$el2_dec_trigger/GenerateStatementBlockImpl$null3/GPortImpl$dec_i0_trigger_match_d" class="triangle" transform="translate(433.46875, 89)"><path d="M 0,0 L 5,2.5 L 0,5 Z" transform="translate(-1.67, -2.5)" class="sprotty-port" style="fill:rgb(48, 48, 48);stroke:rgb(48, 48, 48);"/></g></g><g id="sprotty_ArchitectureBlockImpl$el2_dec_trigger/BPortImpl$dec_i0_pc_d" class="triangle" transform="translate(0, 165)"><path d="M 0,0 L 5,2.5 L 0,5 Z" transform="translate(-1.67, -2.5)" class="sprotty-port" style="fill:rgb(48, 48, 48);stroke:rgb(48, 48, 48);"/><text class="clickable sprotty-label port" id="sprotty_ArchitectureBlockImpl$el2_dec_trigger/BPortImpl$dec_i0_pc_d/label" transform="translate(6, 6) translate(35.640625, 14)" style="cursor:default;font-size:12px;perspective-origin:0px 0px;fill:rgb(48, 48, 48);text-anchor:middle;">dec_i0_pc_d</text></g><g id="sprotty_ArchitectureBlockImpl$el2_dec_trigger/BPortImpl$trigger_pkt_any" class="triangle" transform="translate(0, 131)"><path d="M 0,0 L 5,2.5 L 0,5 Z" transform="translate(-1.67, -2.5)" class="sprotty-port" style="fill:rgb(48, 48, 48);stroke:rgb(48, 48, 48);"/><text class="clickable sprotty-label port" id="sprotty_ArchitectureBlockImpl$el2_dec_trigger/BPortImpl$trigger_pkt_any/label" transform="translate(6, 6) translate(44.609375, 14)" style="cursor:default;font-size:12px;perspective-origin:0.0625px 0px;fill:rgb(48, 48, 48);text-anchor:middle;">trigger_pkt_any</text></g><g id="sprotty_ArchitectureBlockImpl$el2_dec_trigger/BPortImpl$dec_i0_trigger_match_d" class="triangle" transform="translate(721.9375, 124)"><path d="M 0,0 L 5,2.5 L 0,5 Z" transform="translate(-1.67, -2.5)" class="sprotty-port" style="fill:rgb(48, 48, 48);stroke:rgb(48, 48, 48);"/><text class="clickable sprotty-label port" id="sprotty_ArchitectureBlockImpl$el2_dec_trigger/BPortImpl$dec_i0_trigger_match_d/label" transform="translate(-143, 6) translate(68.5, 14)" style="cursor:default;font-size:12px;perspective-origin:0px 0px;fill:rgb(48, 48, 48);text-anchor:middle;">dec_i0_trigger_match_d</text></g></g></g></svg>