<svg xmlns="http://www.w3.org/2000/svg" id="sprotty_work.rvdffe" class="sprotty-graph sprotty-block-diagram blockdiagram" style="font-family:&quot;Noto Sans&quot;, Helvetica, Arial, sans-serif;perspective-origin:0px 0px;transform-origin:0px 0px;" version="1.1" viewBox="7 7 311.375 376" width="311.375" height="376"><g transform="scale(1) translate(0,0)"><g id="sprotty_ArchitectureBlockImpl$rvdffe" class="architecture" transform="translate(12, 12)"><g class="sprotty-block" style="fill:rgb(255, 255, 255);stroke:rgb(48, 48, 48);stroke-dasharray:0px;"><rect x="0" y="0" rx="1" ry="1" width="301.375" height="366"/><text x="150.6875" y="12" class="sprotty-block-name" style="cursor:pointer;font-weight:700;perspective-origin:75.3438px 0px;fill:rgb(48, 48, 48);stroke:rgba(0, 0, 0, 0);dominant-baseline:middle;text-anchor:middle;">rvdffe</text><line x1="0" y1="20" x2="301.375" y2="20"/></g><g id="sprotty_ArchitectureBlockImpl$rvdffe/GenerateStatementBlockImpl$null6/GPortImpl$dout_to_ArchitectureBlockImpl$rvdffe/BPortImpl$dout" class="sprotty-edge thick edge" style="fill:none;stroke:rgb(112, 112, 112);stroke-linejoin:round;stroke-width:3px;"><g><path d="M 253.84375 76 L 301.375 76 "/><path d="M 253.84375 76 L 301.375 76 " class="clickable"/></g></g><g id="sprotty_ArchitectureBlockImpl$rvdffe/BPortImpl$din_to_ArchitectureBlockImpl$rvdffe/GenerateStatementBlockImpl$null6/GPortImpl$din" class="sprotty-edge thick edge" style="fill:none;stroke:rgb(112, 112, 112);stroke-linejoin:round;stroke-width:3px;"><g><path d="M 0 76 L 65.625 76 "/><path d="M 0 76 L 65.625 76 " class="clickable"/></g></g><g id="sprotty_ArchitectureBlockImpl$rvdffe/BPortImpl$en_to_ArchitectureBlockImpl$rvdffe/GenerateStatementBlockImpl$null6/GPortImpl$en" class="sprotty-edge edge" style="fill:none;stroke:rgb(112, 112, 112);stroke-linejoin:round;"><g><path d="M 0 203 L 65.625 203 "/><path d="M 0 203 L 65.625 203 " class="clickable"/></g></g><g id="sprotty_ArchitectureBlockImpl$rvdffe/BPortImpl$clk_to_ArchitectureBlockImpl$rvdffe/GenerateStatementBlockImpl$null6/GPortImpl$clk" class="sprotty-edge edge" style="fill:none;stroke:rgb(112, 112, 112);stroke-linejoin:round;"><g><path d="M 0 237 L 53.625 237 C 54.625 237 55.625 236 55.625 235 L 55.625 233 C 55.625 232 56.625 231 57.625 231 L 65.625 231 "/><path d="M 0 237 L 53.625 237 C 54.625 237 55.625 236 55.625 235 L 55.625 233 C 55.625 232 56.625 231 57.625 231 L 65.625 231 " class="clickable"/></g></g><g id="sprotty_ArchitectureBlockImpl$rvdffe/BPortImpl$rst_l_to_ArchitectureBlockImpl$rvdffe/GenerateStatementBlockImpl$null6/GPortImpl$rst_l" class="sprotty-edge edge" style="fill:none;stroke:rgb(112, 112, 112);stroke-linejoin:round;"><g><path d="M 0 271 L 53.625 271 C 54.625 271 55.625 270 55.625 269 L 55.625 261 C 55.625 260 56.625 259 57.625 259 L 65.625 259 "/><path d="M 0 271 L 53.625 271 C 54.625 271 55.625 270 55.625 269 L 55.625 261 C 55.625 260 56.625 259 57.625 259 L 65.625 259 " class="clickable"/></g></g><g id="sprotty_ArchitectureBlockImpl$rvdffe/GenerateStatementBlockImpl$null6" class="generate" transform="translate(65.625, 35)"><g class="sprotty-block sprotty-block-generate" style="fill:rgb(255, 255, 255);stroke:rgb(48, 48, 48);stroke-dasharray:0px;"><rect x="0" y="0" rx="1" ry="1" width="188.21875" height="272" style="stroke-dasharray:3px, 1px;"/><text x="94.109375" y="12" class="sprotty-block-name" style="cursor:pointer;font-weight:700;fill:rgb(48, 48, 48);stroke:rgba(0, 0, 0, 0);dominant-baseline:middle;text-anchor:middle;"/></g><g id="sprotty_ArchitectureBlockImpl$rvdffe/GenerateStatementBlockImpl$null6/GenerateStatementBlockImpl$null5" class="generate" transform="translate(35, 87)"><g class="sprotty-block sprotty-block-generate" style="fill:rgb(255, 255, 255);stroke:rgb(48, 48, 48);stroke-dasharray:0px;"><rect x="0" y="0" rx="1" ry="1" width="118.21875" height="170" style="stroke-dasharray:3px, 1px;"/><text x="59.109375" y="12" class="sprotty-block-name" style="cursor:pointer;font-weight:700;fill:rgb(48, 48, 48);stroke:rgba(0, 0, 0, 0);dominant-baseline:middle;text-anchor:middle;"/></g><g id="sprotty_ArchitectureBlockImpl$rvdffe/GenerateStatementBlockImpl$null6/GenerateStatementBlockImpl$null5/InstantiationBlockImpl$dff/BPortImpl$dout_to_ArchitectureBlockImpl$rvdffe/GenerateStatementBlockImpl$null6/GenerateStatementBlockImpl$null5/GPortImpl$dout" class="sprotty-edge thick edge" style="fill:none;stroke:rgb(112, 112, 112);stroke-linejoin:round;stroke-width:3px;"><g><path d="M 103.21875 95 L 118.21875 95 "/><path d="M 103.21875 95 L 118.21875 95 " class="clickable"/></g></g><g id="sprotty_ArchitectureBlockImpl$rvdffe/GenerateStatementBlockImpl$null6/GenerateStatementBlockImpl$null5/GPortImpl$dout_to_ArchitectureBlockImpl$rvdffe/GenerateStatementBlockImpl$null6/GPortImpl$dout" class="sprotty-edge thick edge" style="fill:none;stroke:rgb(112, 112, 112);stroke-linejoin:round;stroke-width:3px;"><g><path d="M 118.21875 95 L 126.21875 95 C 127.21875 95 128.21875 94 128.21875 93 L 128.21875 -44 C 128.21875 -45 129.21875 -46 130.21875 -46 L 153.21875 -46 "/><path d="M 118.21875 95 L 126.21875 95 C 127.21875 95 128.21875 94 128.21875 93 L 128.21875 -44 C 128.21875 -45 129.21875 -46 130.21875 -46 L 153.21875 -46 " class="clickable"/></g><circle r="3" id="sprotty_ArchitectureBlockImpl$rvdffe/GenerateStatementBlockImpl$null6/GenerateStatementBlockImpl$null5/GPortImpl$dout_to_ArchitectureBlockImpl$rvdffe/GenerateStatementBlockImpl$null6/GPortImpl$dout/junction0" transform="translate(128.21875, -46)" class="sprotty-junction thick" style="fill:rgb(112, 112, 112);stroke:none;"/></g><g id="sprotty_ArchitectureBlockImpl$rvdffe/GenerateStatementBlockImpl$null6/GenerateStatementBlockImpl$null5/GPortImpl$din_to_ArchitectureBlockImpl$rvdffe/GenerateStatementBlockImpl$null6/GenerateStatementBlockImpl$null5/InstantiationBlockImpl$dff/BPortImpl$din" class="sprotty-edge thick edge" style="fill:none;stroke:rgb(112, 112, 112);stroke-linejoin:round;stroke-width:3px;"><g><path d="M 0 53 L 15 53 "/><path d="M 0 53 L 15 53 " class="clickable"/></g></g><g id="sprotty_ArchitectureBlockImpl$rvdffe/GenerateStatementBlockImpl$null6/GPortImpl$din_to_ArchitectureBlockImpl$rvdffe/GenerateStatementBlockImpl$null6/GenerateStatementBlockImpl$null5/GPortImpl$din" class="sprotty-edge thick edge" style="fill:none;stroke:rgb(112, 112, 112);stroke-linejoin:round;stroke-width:3px;"><g><path d="M -35 -46 L -12 -46 C -11 -46 -10 -45 -10 -44 L -10 51 C -10 52 -9 53 -8 53 L 0 53 "/><path d="M -35 -46 L -12 -46 C -11 -46 -10 -45 -10 -44 L -10 51 C -10 52 -9 53 -8 53 L 0 53 " class="clickable"/></g><circle r="3" id="sprotty_ArchitectureBlockImpl$rvdffe/GenerateStatementBlockImpl$null6/GPortImpl$din_to_ArchitectureBlockImpl$rvdffe/GenerateStatementBlockImpl$null6/GenerateStatementBlockImpl$null5/GPortImpl$din/junction0" transform="translate(-10, -46)" class="sprotty-junction thick" style="fill:rgb(112, 112, 112);stroke:none;"/></g><g id="sprotty_ArchitectureBlockImpl$rvdffe/GenerateStatementBlockImpl$null6/GenerateStatementBlockImpl$null5/GPortImpl$en_to_ArchitectureBlockImpl$rvdffe/GenerateStatementBlockImpl$null6/GenerateStatementBlockImpl$null5/InstantiationBlockImpl$dff/BPortImpl$en" class="sprotty-edge edge" style="fill:none;stroke:rgb(112, 112, 112);stroke-linejoin:round;"><g><path d="M 0 81 L 15 81 "/><path d="M 0 81 L 15 81 " class="clickable"/></g></g><g id="sprotty_ArchitectureBlockImpl$rvdffe/GenerateStatementBlockImpl$null6/GPortImpl$en_to_ArchitectureBlockImpl$rvdffe/GenerateStatementBlockImpl$null6/GenerateStatementBlockImpl$null5/GPortImpl$en" class="sprotty-edge edge" style="fill:none;stroke:rgb(112, 112, 112);stroke-linejoin:round;"><g><path d="M -35 81 L 0 81 "/><path d="M -35 81 L 0 81 " class="clickable"/></g></g><g id="sprotty_ArchitectureBlockImpl$rvdffe/GenerateStatementBlockImpl$null6/GenerateStatementBlockImpl$null5/GPortImpl$clk_to_ArchitectureBlockImpl$rvdffe/GenerateStatementBlockImpl$null6/GenerateStatementBlockImpl$null5/InstantiationBlockImpl$dff/BPortImpl$clk" class="sprotty-edge edge" style="fill:none;stroke:rgb(112, 112, 112);stroke-linejoin:round;"><g><path d="M 0 109 L 15 109 "/><path d="M 0 109 L 15 109 " class="clickable"/></g></g><g id="sprotty_ArchitectureBlockImpl$rvdffe/GenerateStatementBlockImpl$null6/GPortImpl$clk_to_ArchitectureBlockImpl$rvdffe/GenerateStatementBlockImpl$null6/GenerateStatementBlockImpl$null5/GPortImpl$clk" class="sprotty-edge edge" style="fill:none;stroke:rgb(112, 112, 112);stroke-linejoin:round;"><g><path d="M -35 109 L 0 109 "/><path d="M -35 109 L 0 109 " class="clickable"/></g></g><g id="sprotty_ArchitectureBlockImpl$rvdffe/GenerateStatementBlockImpl$null6/GenerateStatementBlockImpl$null5/GPortImpl$rst_l_to_ArchitectureBlockImpl$rvdffe/GenerateStatementBlockImpl$null6/GenerateStatementBlockImpl$null5/InstantiationBlockImpl$dff/BPortImpl$rst_l" class="sprotty-edge edge" style="fill:none;stroke:rgb(112, 112, 112);stroke-linejoin:round;"><g><path d="M 0 137 L 15 137 "/><path d="M 0 137 L 15 137 " class="clickable"/></g></g><g id="sprotty_ArchitectureBlockImpl$rvdffe/GenerateStatementBlockImpl$null6/GPortImpl$rst_l_to_ArchitectureBlockImpl$rvdffe/GenerateStatementBlockImpl$null6/GenerateStatementBlockImpl$null5/GPortImpl$rst_l" class="sprotty-edge edge" style="fill:none;stroke:rgb(112, 112, 112);stroke-linejoin:round;"><g><path d="M -35 137 L 0 137 "/><path d="M -35 137 L 0 137 " class="clickable"/></g></g><g id="sprotty_ArchitectureBlockImpl$rvdffe/GenerateStatementBlockImpl$null6/GenerateStatementBlockImpl$null5/InstantiationBlockImpl$dff" class="instantiation" transform="translate(15, 15)"><g class="sprotty-block" style="fill:rgb(255, 255, 255);stroke:rgb(48, 48, 48);stroke-dasharray:0px;"><rect x="0" y="0" rx="1" ry="1" width="88.21875" height="140"/><text x="44.109375" y="12" class="sprotty-block-name" style="cursor:pointer;font-weight:700;perspective-origin:22.0547px 0px;fill:rgb(48, 48, 48);stroke:rgba(0, 0, 0, 0);dominant-baseline:middle;text-anchor:middle;">dff : rvdffs</text><line x1="0" y1="20" x2="88.21875" y2="20"/></g><g id="sprotty_ArchitectureBlockImpl$rvdffe/GenerateStatementBlockImpl$null6/GenerateStatementBlockImpl$null5/InstantiationBlockImpl$dff/BPortImpl$rst_l" class="triangle" transform="translate(0, 122)"><path d="M 0,0 L 5,2.5 L 0,5 Z" transform="translate(-1.67, -2.5)" class="sprotty-port" style="fill:rgb(48, 48, 48);stroke:rgb(48, 48, 48);"/><text class="clickable sprotty-label port" id="sprotty_ArchitectureBlockImpl$rvdffe/GenerateStatementBlockImpl$null6/GenerateStatementBlockImpl$null5/InstantiationBlockImpl$dff/BPortImpl$rst_l/label" transform="translate(6, -9) translate(12.3125, 14)" style="cursor:default;font-size:12px;perspective-origin:0px 0px;fill:rgb(48, 48, 48);text-anchor:middle;">rst_l</text></g><g id="sprotty_ArchitectureBlockImpl$rvdffe/GenerateStatementBlockImpl$null6/GenerateStatementBlockImpl$null5/InstantiationBlockImpl$dff/BPortImpl$clk" class="triangle" transform="translate(0, 94)"><path d="M 0,0 L 5,2.5 L 0,5 Z" transform="translate(-1.67, -2.5)" class="sprotty-port" style="fill:rgb(48, 48, 48);stroke:rgb(48, 48, 48);"/><text class="clickable sprotty-label port" id="sprotty_ArchitectureBlockImpl$rvdffe/GenerateStatementBlockImpl$null6/GenerateStatementBlockImpl$null5/InstantiationBlockImpl$dff/BPortImpl$clk/label" transform="translate(6, -9) translate(8.078125, 14)" style="cursor:default;font-size:12px;perspective-origin:0.09375px 0px;fill:rgb(48, 48, 48);text-anchor:middle;">clk</text></g><g id="sprotty_ArchitectureBlockImpl$rvdffe/GenerateStatementBlockImpl$null6/GenerateStatementBlockImpl$null5/InstantiationBlockImpl$dff/BPortImpl$en" class="triangle" transform="translate(0, 66)"><path d="M 0,0 L 5,2.5 L 0,5 Z" transform="translate(-1.67, -2.5)" class="sprotty-port" style="fill:rgb(48, 48, 48);stroke:rgb(48, 48, 48);"/><text class="clickable sprotty-label port" id="sprotty_ArchitectureBlockImpl$rvdffe/GenerateStatementBlockImpl$null6/GenerateStatementBlockImpl$null5/InstantiationBlockImpl$dff/BPortImpl$en/label" transform="translate(6, -9) translate(7, 14)" style="cursor:default;font-size:12px;perspective-origin:0px 0px;fill:rgb(48, 48, 48);text-anchor:middle;">en</text></g><g id="sprotty_ArchitectureBlockImpl$rvdffe/GenerateStatementBlockImpl$null6/GenerateStatementBlockImpl$null5/InstantiationBlockImpl$dff/BPortImpl$din" class="triangle" transform="translate(0, 38)"><path d="M 0,0 L 5,2.5 L 0,5 Z" transform="translate(-1.67, -2.5)" class="sprotty-port" style="fill:rgb(48, 48, 48);stroke:rgb(48, 48, 48);"/><text class="clickable sprotty-label port" id="sprotty_ArchitectureBlockImpl$rvdffe/GenerateStatementBlockImpl$null6/GenerateStatementBlockImpl$null5/InstantiationBlockImpl$dff/BPortImpl$din/label" transform="translate(6, -9) translate(9.046875, 14)" style="cursor:default;font-size:12px;perspective-origin:0px 0px;fill:rgb(48, 48, 48);text-anchor:middle;">din</text></g><g id="sprotty_ArchitectureBlockImpl$rvdffe/GenerateStatementBlockImpl$null6/GenerateStatementBlockImpl$null5/InstantiationBlockImpl$dff/BPortImpl$dout" class="triangle" transform="translate(88.21875, 80)"><path d="M 0,0 L 5,2.5 L 0,5 Z" transform="translate(-1.67, -2.5)" class="sprotty-port" style="fill:rgb(48, 48, 48);stroke:rgb(48, 48, 48);"/><text class="clickable sprotty-label port" id="sprotty_ArchitectureBlockImpl$rvdffe/GenerateStatementBlockImpl$null6/GenerateStatementBlockImpl$null5/InstantiationBlockImpl$dff/BPortImpl$dout/label" transform="translate(-32.53125, -9) translate(13.265625, 14)" style="cursor:default;font-size:12px;perspective-origin:0px 0px;fill:rgb(48, 48, 48);text-anchor:middle;">dout</text></g></g><g id="sprotty_ArchitectureBlockImpl$rvdffe/GenerateStatementBlockImpl$null6/GenerateStatementBlockImpl$null5/GPortImpl$rst_l" class="triangle" transform="translate(0, 137)"><path d="M 0,0 L 5,2.5 L 0,5 Z" transform="translate(-1.67, -2.5)" class="sprotty-port" style="fill:rgb(48, 48, 48);stroke:rgb(48, 48, 48);"/></g><g id="sprotty_ArchitectureBlockImpl$rvdffe/GenerateStatementBlockImpl$null6/GenerateStatementBlockImpl$null5/GPortImpl$clk" class="triangle" transform="translate(0, 109)"><path d="M 0,0 L 5,2.5 L 0,5 Z" transform="translate(-1.67, -2.5)" class="sprotty-port" style="fill:rgb(48, 48, 48);stroke:rgb(48, 48, 48);"/></g><g id="sprotty_ArchitectureBlockImpl$rvdffe/GenerateStatementBlockImpl$null6/GenerateStatementBlockImpl$null5/GPortImpl$en" class="triangle" transform="translate(0, 81)"><path d="M 0,0 L 5,2.5 L 0,5 Z" transform="translate(-1.67, -2.5)" class="sprotty-port" style="fill:rgb(48, 48, 48);stroke:rgb(48, 48, 48);"/></g><g id="sprotty_ArchitectureBlockImpl$rvdffe/GenerateStatementBlockImpl$null6/GenerateStatementBlockImpl$null5/GPortImpl$din" class="triangle" transform="translate(0, 53)"><path d="M 0,0 L 5,2.5 L 0,5 Z" transform="translate(-1.67, -2.5)" class="sprotty-port" style="fill:rgb(48, 48, 48);stroke:rgb(48, 48, 48);"/></g><g id="sprotty_ArchitectureBlockImpl$rvdffe/GenerateStatementBlockImpl$null6/GenerateStatementBlockImpl$null5/GPortImpl$dout" class="triangle" transform="translate(118.21875, 95)"><path d="M 0,0 L 5,2.5 L 0,5 Z" transform="translate(-1.67, -2.5)" class="sprotty-port" style="fill:rgb(48, 48, 48);stroke:rgb(48, 48, 48);"/></g></g><g id="sprotty_ArchitectureBlockImpl$rvdffe/GenerateStatementBlockImpl$null6/GenerateStatementBlockImpl$null6" class="generate" transform="translate(54.109375, 15)"><g class="sprotty-block sprotty-block-generate" style="fill:rgb(255, 255, 255);stroke:rgb(48, 48, 48);stroke-dasharray:0px;"><rect x="0" y="0" rx="1" ry="1" width="80" height="52" style="stroke-dasharray:3px, 1px;"/><text x="40" y="12" class="sprotty-block-name" style="cursor:pointer;font-weight:700;fill:rgb(48, 48, 48);stroke:rgba(0, 0, 0, 0);dominant-baseline:middle;text-anchor:middle;"/></g><g id="sprotty_ArchitectureBlockImpl$rvdffe/GenerateStatementBlockImpl$null6/GenerateStatementBlockImpl$null6/AssignmentBlockImpl$dout/GPortImpl$doutOUT_to_ArchitectureBlockImpl$rvdffe/GenerateStatementBlockImpl$null6/GenerateStatementBlockImpl$null6/GPortImpl$dout" class="sprotty-edge thick edge" style="fill:none;stroke:rgb(112, 112, 112);stroke-linejoin:round;stroke-width:3px;"><g><path d="M 34.4375 26 L 80 26 "/><path d="M 34.4375 26 L 80 26 " class="clickable"/></g></g><g id="sprotty_ArchitectureBlockImpl$rvdffe/GenerateStatementBlockImpl$null6/GenerateStatementBlockImpl$null6/GPortImpl$dout_to_ArchitectureBlockImpl$rvdffe/GenerateStatementBlockImpl$null6/GPortImpl$dout" class="sprotty-edge thick edge" style="fill:none;stroke:rgb(112, 112, 112);stroke-linejoin:round;stroke-width:3px;"><g><path d="M 80 26 L 134.109375 26 "/><path d="M 80 26 L 134.109375 26 " class="clickable"/></g></g><g id="sprotty_ArchitectureBlockImpl$rvdffe/GenerateStatementBlockImpl$null6/GenerateStatementBlockImpl$null6/GPortImpl$din_to_ArchitectureBlockImpl$rvdffe/GenerateStatementBlockImpl$null6/GenerateStatementBlockImpl$null6/AssignmentBlockImpl$dout/GPortImpl$dinIN" class="sprotty-edge thick edge" style="fill:none;stroke:rgb(112, 112, 112);stroke-linejoin:round;stroke-width:3px;"><g><path d="M 0 26 L 15 26 "/><path d="M 0 26 L 15 26 " class="clickable"/></g></g><g id="sprotty_ArchitectureBlockImpl$rvdffe/GenerateStatementBlockImpl$null6/GPortImpl$din_to_ArchitectureBlockImpl$rvdffe/GenerateStatementBlockImpl$null6/GenerateStatementBlockImpl$null6/GPortImpl$din" class="sprotty-edge thick edge" style="fill:none;stroke:rgb(112, 112, 112);stroke-linejoin:round;stroke-width:3px;"><g><path d="M -54.109375 26 L 0 26 "/><path d="M -54.109375 26 L 0 26 " class="clickable"/></g></g><g id="sprotty_ArchitectureBlockImpl$rvdffe/GenerateStatementBlockImpl$null6/GenerateStatementBlockImpl$null6/AssignmentBlockImpl$dout" class="statement" transform="translate(15, 15)"><rect x="0" y="0" rx="10" ry="5" width="19.4375" height="22" class="sprotty-node" style="fill:rgb(245, 245, 245);stroke:rgb(112, 112, 112);"/><text class="clickable sprotty-label statementtype" id="sprotty_ArchitectureBlockImpl$rvdffe/GenerateStatementBlockImpl$null6/GenerateStatementBlockImpl$null6/AssignmentBlockImpl$dout/labeltype" transform="translate(5, 5) translate(4.71875, 9)" style="cursor:default;font-size:8px;font-weight:700;perspective-origin:0px 0px;fill:rgb(112, 112, 112);text-anchor:middle;">&lt;=</text><g id="sprotty_ArchitectureBlockImpl$rvdffe/GenerateStatementBlockImpl$null6/GenerateStatementBlockImpl$null6/AssignmentBlockImpl$dout/GPortImpl$dinIN" class="sprotty-hidden hidden" transform="translate(0, 11)" style="display:block;height:0px;width:0px;"/><g id="sprotty_ArchitectureBlockImpl$rvdffe/GenerateStatementBlockImpl$null6/GenerateStatementBlockImpl$null6/AssignmentBlockImpl$dout/GPortImpl$doutOUT" class="sprotty-hidden hidden" transform="translate(19.4375, 11)" style="display:block;height:0px;width:0px;"/></g><g id="sprotty_ArchitectureBlockImpl$rvdffe/GenerateStatementBlockImpl$null6/GenerateStatementBlockImpl$null6/GPortImpl$din" class="triangle" transform="translate(0, 26)"><path d="M 0,0 L 5,2.5 L 0,5 Z" transform="translate(-1.67, -2.5)" class="sprotty-port" style="fill:rgb(48, 48, 48);stroke:rgb(48, 48, 48);"/></g><g id="sprotty_ArchitectureBlockImpl$rvdffe/GenerateStatementBlockImpl$null6/GenerateStatementBlockImpl$null6/GPortImpl$dout" class="triangle" transform="translate(80, 26)"><path d="M 0,0 L 5,2.5 L 0,5 Z" transform="translate(-1.67, -2.5)" class="sprotty-port" style="fill:rgb(48, 48, 48);stroke:rgb(48, 48, 48);"/></g></g><g id="sprotty_ArchitectureBlockImpl$rvdffe/GenerateStatementBlockImpl$null6/GPortImpl$rst_l" class="triangle" transform="translate(0, 224)"><path d="M 0,0 L 5,2.5 L 0,5 Z" transform="translate(-1.67, -2.5)" class="sprotty-port" style="fill:rgb(48, 48, 48);stroke:rgb(48, 48, 48);"/></g><g id="sprotty_ArchitectureBlockImpl$rvdffe/GenerateStatementBlockImpl$null6/GPortImpl$clk" class="triangle" transform="translate(0, 196)"><path d="M 0,0 L 5,2.5 L 0,5 Z" transform="translate(-1.67, -2.5)" class="sprotty-port" style="fill:rgb(48, 48, 48);stroke:rgb(48, 48, 48);"/></g><g id="sprotty_ArchitectureBlockImpl$rvdffe/GenerateStatementBlockImpl$null6/GPortImpl$en" class="triangle" transform="translate(0, 168)"><path d="M 0,0 L 5,2.5 L 0,5 Z" transform="translate(-1.67, -2.5)" class="sprotty-port" style="fill:rgb(48, 48, 48);stroke:rgb(48, 48, 48);"/></g><g id="sprotty_ArchitectureBlockImpl$rvdffe/GenerateStatementBlockImpl$null6/GPortImpl$din" class="triangle" transform="translate(0, 41)"><path d="M 0,0 L 5,2.5 L 0,5 Z" transform="translate(-1.67, -2.5)" class="sprotty-port" style="fill:rgb(48, 48, 48);stroke:rgb(48, 48, 48);"/></g><g id="sprotty_ArchitectureBlockImpl$rvdffe/GenerateStatementBlockImpl$null6/GPortImpl$dout" class="triangle" transform="translate(188.21875, 41)"><path d="M 0,0 L 5,2.5 L 0,5 Z" transform="translate(-1.67, -2.5)" class="sprotty-port" style="fill:rgb(48, 48, 48);stroke:rgb(48, 48, 48);"/></g></g><g id="sprotty_ArchitectureBlockImpl$rvdffe/BPortImpl$scan_mode" class="triangle" transform="translate(0, 327)"><path d="M 0,0 L 5,2.5 L 0,5 Z" transform="translate(-1.67, -2.5)" class="sprotty-port" style="fill:rgb(48, 48, 48);stroke:rgb(48, 48, 48);"/><text class="clickable sprotty-label port" id="sprotty_ArchitectureBlockImpl$rvdffe/BPortImpl$scan_mode/label" transform="translate(6, 6) translate(32.4375, 14)" style="cursor:default;font-size:12px;perspective-origin:0px 0px;fill:rgb(48, 48, 48);text-anchor:middle;">scan_mode</text></g><g id="sprotty_ArchitectureBlockImpl$rvdffe/BPortImpl$rst_l" class="triangle" transform="translate(0, 271)"><path d="M 0,0 L 5,2.5 L 0,5 Z" transform="translate(-1.67, -2.5)" class="sprotty-port" style="fill:rgb(48, 48, 48);stroke:rgb(48, 48, 48);"/><text class="clickable sprotty-label port" id="sprotty_ArchitectureBlockImpl$rvdffe/BPortImpl$rst_l/label" transform="translate(6, 6) translate(12.3125, 14)" style="cursor:default;font-size:12px;perspective-origin:0px 0px;fill:rgb(48, 48, 48);text-anchor:middle;">rst_l</text></g><g id="sprotty_ArchitectureBlockImpl$rvdffe/BPortImpl$clk" class="triangle" transform="translate(0, 237)"><path d="M 0,0 L 5,2.5 L 0,5 Z" transform="translate(-1.67, -2.5)" class="sprotty-port" style="fill:rgb(48, 48, 48);stroke:rgb(48, 48, 48);"/><text class="clickable sprotty-label port" id="sprotty_ArchitectureBlockImpl$rvdffe/BPortImpl$clk/label" transform="translate(6, 6) translate(8.078125, 14)" style="cursor:default;font-size:12px;perspective-origin:0.09375px 0px;fill:rgb(48, 48, 48);text-anchor:middle;">clk</text></g><g id="sprotty_ArchitectureBlockImpl$rvdffe/BPortImpl$en" class="triangle" transform="translate(0, 203)"><path d="M 0,0 L 5,2.5 L 0,5 Z" transform="translate(-1.67, -2.5)" class="sprotty-port" style="fill:rgb(48, 48, 48);stroke:rgb(48, 48, 48);"/><text class="clickable sprotty-label port" id="sprotty_ArchitectureBlockImpl$rvdffe/BPortImpl$en/label" transform="translate(6, 6) translate(7, 14)" style="cursor:default;font-size:12px;perspective-origin:0px 0px;fill:rgb(48, 48, 48);text-anchor:middle;">en</text></g><g id="sprotty_ArchitectureBlockImpl$rvdffe/BPortImpl$din" class="triangle" transform="translate(0, 76)"><path d="M 0,0 L 5,2.5 L 0,5 Z" transform="translate(-1.67, -2.5)" class="sprotty-port" style="fill:rgb(48, 48, 48);stroke:rgb(48, 48, 48);"/><text class="clickable sprotty-label port" id="sprotty_ArchitectureBlockImpl$rvdffe/BPortImpl$din/label" transform="translate(6, 6) translate(9.046875, 14)" style="cursor:default;font-size:12px;perspective-origin:0px 0px;fill:rgb(48, 48, 48);text-anchor:middle;">din</text></g><g id="sprotty_ArchitectureBlockImpl$rvdffe/BPortImpl$dout" class="triangle" transform="translate(301.375, 76)"><path d="M 0,0 L 5,2.5 L 0,5 Z" transform="translate(-1.67, -2.5)" class="sprotty-port" style="fill:rgb(48, 48, 48);stroke:rgb(48, 48, 48);"/><text class="clickable sprotty-label port" id="sprotty_ArchitectureBlockImpl$rvdffe/BPortImpl$dout/label" transform="translate(-32.53125, 6) translate(13.265625, 14)" style="cursor:default;font-size:12px;perspective-origin:0px 0px;fill:rgb(48, 48, 48);text-anchor:middle;">dout</text></g></g></g></svg>