<svg xmlns="http://www.w3.org/2000/svg" id="sprotty_work.rvtwoscomp" class="sprotty-graph sprotty-block-diagram blockdiagram" style="font-family:&quot;Noto Sans&quot;, Helvetica, Arial, sans-serif;perspective-origin:0px 0px;transform-origin:0px 0px;" version="1.1" viewBox="7 7 317.375 145" width="317.375" height="145"><g transform="scale(1) translate(0,0)"><g id="sprotty_ArchitectureBlockImpl$rvtwoscomp" class="architecture" transform="translate(12, 12)"><g class="sprotty-block" style="fill:rgb(255, 255, 255);stroke:rgb(48, 48, 48);stroke-dasharray:0px;"><rect x="0" y="0" rx="1" ry="1" width="307.375" height="135"/><text x="153.6875" y="12" class="sprotty-block-name" style="cursor:pointer;font-weight:700;perspective-origin:76.8438px 0px;fill:rgb(48, 48, 48);stroke:rgba(0, 0, 0, 0);dominant-baseline:middle;text-anchor:middle;">rvtwoscomp</text><line x1="0" y1="20" x2="307.375" y2="20"/></g><g id="sprotty_ArchitectureBlockImpl$rvtwoscomp/AssignmentBlockImpl$dout/GPortImpl$doutOUT_to_ArchitectureBlockImpl$rvtwoscomp/BPortImpl$dout" class="sprotty-edge thick edge" style="fill:none;stroke:rgb(112, 112, 112);stroke-linejoin:round;stroke-width:3px;"><g><path d="M 259.84375 86 L 307.375 86 "/><path d="M 259.84375 86 L 307.375 86 " class="clickable"/></g></g><g id="sprotty_ArchitectureBlockImpl$rvtwoscomp/BPortImpl$din_to_ArchitectureBlockImpl$rvtwoscomp/AssignmentBlockImpl$dout/GPortImpl$dinIN" class="sprotty-edge thick edge" style="fill:none;stroke:rgb(112, 112, 112);stroke-linejoin:round;stroke-width:3px;"><g><path d="M 0 81 L 47.09375 81 C 48.09375 81 49.09375 82 49.09375 83 L 49.09375 116 C 49.09375 117 50.09375 118 51.09375 118 L 228.40625 118 C 229.40625 118 230.40625 117 230.40625 116 L 230.40625 93 C 230.40625 92 231.40625 91 232.40625 91 L 240.40625 91 "/><path d="M 0 81 L 47.09375 81 C 48.09375 81 49.09375 82 49.09375 83 L 49.09375 116 C 49.09375 117 50.09375 118 51.09375 118 L 228.40625 118 C 229.40625 118 230.40625 117 230.40625 116 L 230.40625 93 C 230.40625 92 231.40625 91 232.40625 91 L 240.40625 91 " class="clickable"/></g><circle r="3" id="sprotty_ArchitectureBlockImpl$rvtwoscomp/BPortImpl$din_to_ArchitectureBlockImpl$rvtwoscomp/AssignmentBlockImpl$dout/GPortImpl$dinIN/junction0" transform="translate(49.09375, 81)" class="sprotty-junction thick" style="fill:rgb(112, 112, 112);stroke:none;"/></g><g id="sprotty_ArchitectureBlockImpl$rvtwoscomp/BPortImpl$din_to_ArchitectureBlockImpl$rvtwoscomp/GenerateStatementBlockImpl$flip_after_first_one/GPortImpl$din" class="sprotty-edge thick edge" style="fill:none;stroke:rgb(112, 112, 112);stroke-linejoin:round;stroke-width:3px;"><g><path d="M 0 81 L 59.09375 81 "/><path d="M 0 81 L 59.09375 81 " class="clickable"/></g></g><g id="sprotty_ArchitectureBlockImpl$rvtwoscomp/GenerateStatementBlockImpl$flip_after_first_one/GPortImpl$dout_temp_to_ArchitectureBlockImpl$rvtwoscomp/AssignmentBlockImpl$dout/GPortImpl$dout_tempIN" class="sprotty-edge thick edge" style="fill:none;stroke:rgb(112, 112, 112);stroke-linejoin:round;stroke-width:3px;"><g><path d="M 220.40625 81 L 240.40625 81 "/><path d="M 220.40625 81 L 240.40625 81 " class="clickable"/></g></g><g id="sprotty_ArchitectureBlockImpl$rvtwoscomp/GenerateStatementBlockImpl$flip_after_first_one" class="generate" transform="translate(59.09375, 35)"><g class="sprotty-block sprotty-block-generate" style="fill:rgb(255, 255, 255);stroke:rgb(48, 48, 48);stroke-dasharray:0px;"><rect x="0" y="0" rx="1" ry="1" width="161.3125" height="72" style="stroke-dasharray:3px, 1px;"/><text x="80.65625" y="12" class="sprotty-block-name" style="cursor:pointer;font-weight:700;perspective-origin:40.3281px 0px;fill:rgb(48, 48, 48);stroke:rgba(0, 0, 0, 0);dominant-baseline:middle;text-anchor:middle;">flip_after_first_one</text><line x1="0" y1="20" x2="161.3125" y2="20" style="stroke-dasharray:3px, 1px;"/></g><g id="sprotty_ArchitectureBlockImpl$rvtwoscomp/GenerateStatementBlockImpl$flip_after_first_one/GPortImpl$din_to_ArchitectureBlockImpl$rvtwoscomp/GenerateStatementBlockImpl$flip_after_first_one/AssignmentBlockImpl$dout_temp/GPortImpl$dinIN" class="sprotty-edge thick edge" style="fill:none;stroke:rgb(112, 112, 112);stroke-linejoin:round;stroke-width:3px;"><g><path d="M 0 46 L 15 46 "/><path d="M 0 46 L 15 46 " class="clickable"/></g></g><g id="sprotty_ArchitectureBlockImpl$rvtwoscomp/GenerateStatementBlockImpl$flip_after_first_one/AssignmentBlockImpl$dout_temp/GPortImpl$dout_tempOUT_to_ArchitectureBlockImpl$rvtwoscomp/GenerateStatementBlockImpl$flip_after_first_one/GPortImpl$dout_temp" class="sprotty-edge thick edge" style="fill:none;stroke:rgb(112, 112, 112);stroke-linejoin:round;stroke-width:3px;"><g><path d="M 34.4375 46 L 161.3125 46 "/><path d="M 34.4375 46 L 161.3125 46 " class="clickable"/></g></g><g id="sprotty_ArchitectureBlockImpl$rvtwoscomp/GenerateStatementBlockImpl$flip_after_first_one/AssignmentBlockImpl$dout_temp" class="statement" transform="translate(15, 35)"><rect x="0" y="0" rx="10" ry="5" width="19.4375" height="22" class="sprotty-node" style="fill:rgb(245, 245, 245);stroke:rgb(112, 112, 112);"/><text class="clickable sprotty-label statementtype" id="sprotty_ArchitectureBlockImpl$rvtwoscomp/GenerateStatementBlockImpl$flip_after_first_one/AssignmentBlockImpl$dout_temp/labeltype" transform="translate(5, 5) translate(4.71875, 9)" style="cursor:default;font-size:8px;font-weight:700;perspective-origin:0px 0px;fill:rgb(112, 112, 112);text-anchor:middle;">&lt;=</text><g id="sprotty_ArchitectureBlockImpl$rvtwoscomp/GenerateStatementBlockImpl$flip_after_first_one/AssignmentBlockImpl$dout_temp/GPortImpl$dinIN" class="sprotty-hidden hidden" transform="translate(0, 11)" style="display:block;height:0px;width:0px;"/><g id="sprotty_ArchitectureBlockImpl$rvtwoscomp/GenerateStatementBlockImpl$flip_after_first_one/AssignmentBlockImpl$dout_temp/GPortImpl$dout_tempOUT" class="sprotty-hidden hidden" transform="translate(19.4375, 11)" style="display:block;height:0px;width:0px;"/></g><g id="sprotty_ArchitectureBlockImpl$rvtwoscomp/GenerateStatementBlockImpl$flip_after_first_one/GPortImpl$din" class="triangle" transform="translate(0, 46)"><path d="M 0,0 L 5,2.5 L 0,5 Z" transform="translate(-1.67, -2.5)" class="sprotty-port" style="fill:rgb(48, 48, 48);stroke:rgb(48, 48, 48);"/></g><g id="sprotty_ArchitectureBlockImpl$rvtwoscomp/GenerateStatementBlockImpl$flip_after_first_one/GPortImpl$dout_temp" class="triangle" transform="translate(161.3125, 46)"><path d="M 0,0 L 5,2.5 L 0,5 Z" transform="translate(-1.67, -2.5)" class="sprotty-port" style="fill:rgb(48, 48, 48);stroke:rgb(48, 48, 48);"/></g></g><g id="sprotty_ArchitectureBlockImpl$rvtwoscomp/AssignmentBlockImpl$dout" class="statement" transform="translate(240.40625, 71)"><rect x="0" y="0" rx="10" ry="5" width="19.4375" height="30" class="sprotty-node" style="fill:rgb(245, 245, 245);stroke:rgb(112, 112, 112);"/><text class="clickable sprotty-label statementtype" id="sprotty_ArchitectureBlockImpl$rvtwoscomp/AssignmentBlockImpl$dout/labeltype" transform="translate(5, 9) translate(4.71875, 9)" style="cursor:default;font-size:8px;font-weight:700;perspective-origin:0px 0px;fill:rgb(112, 112, 112);text-anchor:middle;">&lt;=</text><g id="sprotty_ArchitectureBlockImpl$rvtwoscomp/AssignmentBlockImpl$dout/GPortImpl$dinIN" class="sprotty-hidden hidden" transform="translate(0, 20)" style="display:block;height:0px;width:0px;"/><g id="sprotty_ArchitectureBlockImpl$rvtwoscomp/AssignmentBlockImpl$dout/GPortImpl$dout_tempIN" class="sprotty-hidden hidden" transform="translate(0, 10)" style="display:block;height:0px;width:0px;"/><g id="sprotty_ArchitectureBlockImpl$rvtwoscomp/AssignmentBlockImpl$dout/GPortImpl$doutOUT" class="sprotty-hidden hidden" transform="translate(19.4375, 15)" style="display:block;height:0px;width:0px;"/></g><g id="sprotty_ArchitectureBlockImpl$rvtwoscomp/BPortImpl$din" class="triangle" transform="translate(0, 81)"><path d="M 0,0 L 5,2.5 L 0,5 Z" transform="translate(-1.67, -2.5)" class="sprotty-port" style="fill:rgb(48, 48, 48);stroke:rgb(48, 48, 48);"/><text class="clickable sprotty-label port" id="sprotty_ArchitectureBlockImpl$rvtwoscomp/BPortImpl$din/label" transform="translate(6, 6) translate(9.046875, 14)" style="cursor:default;font-size:12px;perspective-origin:0px 0px;fill:rgb(48, 48, 48);text-anchor:middle;">din</text></g><g id="sprotty_ArchitectureBlockImpl$rvtwoscomp/BPortImpl$dout" class="triangle" transform="translate(307.375, 86)"><path d="M 0,0 L 5,2.5 L 0,5 Z" transform="translate(-1.67, -2.5)" class="sprotty-port" style="fill:rgb(48, 48, 48);stroke:rgb(48, 48, 48);"/><text class="clickable sprotty-label port" id="sprotty_ArchitectureBlockImpl$rvtwoscomp/BPortImpl$dout/label" transform="translate(-32.53125, 6) translate(13.265625, 14)" style="cursor:default;font-size:12px;perspective-origin:0px 0px;fill:rgb(48, 48, 48);text-anchor:middle;">dout</text></g></g></g></svg>