<svg xmlns="http://www.w3.org/2000/svg" id="sprotty_work.rvsyncss_fpga" class="sprotty-graph sprotty-block-diagram blockdiagram" style="font-family:&quot;Noto Sans&quot;, Helvetica, Arial, sans-serif;perspective-origin:0px 0px;transform-origin:0px 0px;" version="1.1" viewBox="7 7 524.9375 344" width="524.9375" height="344"><g transform="scale(1) translate(0,0)"><g id="sprotty_ArchitectureBlockImpl$rvsyncss_fpga" class="architecture" transform="translate(12, 12)"><g class="sprotty-block" style="fill:rgb(255, 255, 255);stroke:rgb(48, 48, 48);stroke-dasharray:0px;"><rect x="0" y="0" rx="1" ry="1" width="514.9375" height="334"/><text x="257.46875" y="12" class="sprotty-block-name" style="cursor:pointer;font-weight:700;perspective-origin:128.734px 0px;fill:rgb(48, 48, 48);stroke:rgba(0, 0, 0, 0);dominant-baseline:middle;text-anchor:middle;">rvsyncss_fpga</text><line x1="0" y1="20" x2="514.9375" y2="20"/></g><g id="sprotty_ArchitectureBlockImpl$rvsyncss_fpga/InstantiationBlockImpl$sync_ff2/BPortImpl$dout_to_ArchitectureBlockImpl$rvsyncss_fpga/BPortImpl$dout" class="sprotty-edge thick edge" style="fill:none;stroke:rgb(112, 112, 112);stroke-linejoin:round;stroke-width:3px;"><g><path d="M 467.40625 239 L 514.9375 239 "/><path d="M 467.40625 239 L 514.9375 239 " class="clickable"/></g></g><g id="sprotty_ArchitectureBlockImpl$rvsyncss_fpga/BPortImpl$din_to_ArchitectureBlockImpl$rvsyncss_fpga/InstantiationBlockImpl$sync_ff1/BPortImpl$din" class="sprotty-edge thick edge" style="fill:none;stroke:rgb(112, 112, 112);stroke-linejoin:round;stroke-width:3px;"><g><path d="M 0 80 L 78.59375 80 C 79.59375 80 80.59375 81 80.59375 82 L 80.59375 84 C 80.59375 85 81.59375 86 82.59375 86 L 100.59375 86 "/><path d="M 0 80 L 78.59375 80 C 79.59375 80 80.59375 81 80.59375 82 L 80.59375 84 C 80.59375 85 81.59375 86 82.59375 86 L 100.59375 86 " class="clickable"/></g></g><g id="sprotty_ArchitectureBlockImpl$rvsyncss_fpga/BPortImpl$gw_clk_to_ArchitectureBlockImpl$rvsyncss_fpga/InstantiationBlockImpl$sync_ff1/BPortImpl$clk" class="sprotty-edge edge" style="fill:none;stroke:rgb(112, 112, 112);stroke-linejoin:round;"><g><path d="M 0 114 L 100.59375 114 "/><path d="M 0 114 L 100.59375 114 " class="clickable"/></g></g><g id="sprotty_ArchitectureBlockImpl$rvsyncss_fpga/BPortImpl$clken_to_ArchitectureBlockImpl$rvsyncss_fpga/InstantiationBlockImpl$sync_ff1/BPortImpl$clken" class="sprotty-edge edge" style="fill:none;stroke:rgb(112, 112, 112);stroke-linejoin:round;"><g><path d="M 0 227 L 68.59375 227 C 69.59375 227 70.59375 226 70.59375 225 L 70.59375 144 C 70.59375 143 71.59375 142 72.59375 142 L 100.59375 142 "/><path d="M 0 227 L 68.59375 227 C 69.59375 227 70.59375 226 70.59375 225 L 70.59375 144 C 70.59375 143 71.59375 142 72.59375 142 L 100.59375 142 " class="clickable"/></g><circle r="2" id="sprotty_ArchitectureBlockImpl$rvsyncss_fpga/BPortImpl$clken_to_ArchitectureBlockImpl$rvsyncss_fpga/InstantiationBlockImpl$sync_ff1/BPortImpl$clken/junction0" transform="translate(70.59375, 227)" class="sprotty-junction junction" style="fill:rgb(112, 112, 112);stroke:none;"/></g><g id="sprotty_ArchitectureBlockImpl$rvsyncss_fpga/BPortImpl$rawclk_to_ArchitectureBlockImpl$rvsyncss_fpga/InstantiationBlockImpl$sync_ff1/BPortImpl$rawclk" class="sprotty-edge edge" style="fill:none;stroke:rgb(112, 112, 112);stroke-linejoin:round;"><g><path d="M 0 261 L 78.59375 261 C 79.59375 261 80.59375 260 80.59375 259 L 80.59375 172 C 80.59375 171 81.59375 170 82.59375 170 L 100.59375 170 "/><path d="M 0 261 L 78.59375 261 C 79.59375 261 80.59375 260 80.59375 259 L 80.59375 172 C 80.59375 171 81.59375 170 82.59375 170 L 100.59375 170 " class="clickable"/></g><circle r="2" id="sprotty_ArchitectureBlockImpl$rvsyncss_fpga/BPortImpl$rawclk_to_ArchitectureBlockImpl$rvsyncss_fpga/InstantiationBlockImpl$sync_ff1/BPortImpl$rawclk/junction0" transform="translate(80.59375, 261)" class="sprotty-junction junction" style="fill:rgb(112, 112, 112);stroke:none;"/></g><g id="sprotty_ArchitectureBlockImpl$rvsyncss_fpga/BPortImpl$rst_l_to_ArchitectureBlockImpl$rvsyncss_fpga/InstantiationBlockImpl$sync_ff1/BPortImpl$rst_l" class="sprotty-edge edge" style="fill:none;stroke:rgb(112, 112, 112);stroke-linejoin:round;"><g><path d="M 0 295 L 88.59375 295 C 89.59375 295 90.59375 294 90.59375 293 L 90.59375 200 C 90.59375 199 91.59375 198 92.59375 198 L 100.59375 198 "/><path d="M 0 295 L 88.59375 295 C 89.59375 295 90.59375 294 90.59375 293 L 90.59375 200 C 90.59375 199 91.59375 198 92.59375 198 L 100.59375 198 " class="clickable"/></g><circle r="2" id="sprotty_ArchitectureBlockImpl$rvsyncss_fpga/BPortImpl$rst_l_to_ArchitectureBlockImpl$rvsyncss_fpga/InstantiationBlockImpl$sync_ff1/BPortImpl$rst_l/junction0" transform="translate(90.59375, 295)" class="sprotty-junction junction" style="fill:rgb(112, 112, 112);stroke:none;"/></g><g id="sprotty_ArchitectureBlockImpl$rvsyncss_fpga/BPortImpl$gw_clk_to_ArchitectureBlockImpl$rvsyncss_fpga/InstantiationBlockImpl$sync_ff2/BPortImpl$clk" class="sprotty-edge edge" style="fill:none;stroke:rgb(112, 112, 112);stroke-linejoin:round;"><g><path d="M 0 114 L 68.59375 114 C 69.59375 114 70.59375 113 70.59375 112 L 70.59375 38 C 70.59375 37 71.59375 36 72.59375 36 L 287 36 C 288 36 289 37 289 38 L 289 209 C 289 210 290 211 291 211 L 299 211 "/><path d="M 0 114 L 68.59375 114 C 69.59375 114 70.59375 113 70.59375 112 L 70.59375 38 C 70.59375 37 71.59375 36 72.59375 36 L 287 36 C 288 36 289 37 289 38 L 289 209 C 289 210 290 211 291 211 L 299 211 " class="clickable"/></g><circle r="2" id="sprotty_ArchitectureBlockImpl$rvsyncss_fpga/BPortImpl$gw_clk_to_ArchitectureBlockImpl$rvsyncss_fpga/InstantiationBlockImpl$sync_ff2/BPortImpl$clk/junction0" transform="translate(70.59375, 114)" class="sprotty-junction junction" style="fill:rgb(112, 112, 112);stroke:none;"/></g><g id="sprotty_ArchitectureBlockImpl$rvsyncss_fpga/BPortImpl$clken_to_ArchitectureBlockImpl$rvsyncss_fpga/InstantiationBlockImpl$sync_ff2/BPortImpl$clken" class="sprotty-edge edge" style="fill:none;stroke:rgb(112, 112, 112);stroke-linejoin:round;"><g><path d="M 0 227 L 277 227 C 278 227 279 228 279 229 L 279 237 C 279 238 280 239 281 239 L 299 239 "/><path d="M 0 227 L 277 227 C 278 227 279 228 279 229 L 279 237 C 279 238 280 239 281 239 L 299 239 " class="clickable"/></g></g><g id="sprotty_ArchitectureBlockImpl$rvsyncss_fpga/BPortImpl$rawclk_to_ArchitectureBlockImpl$rvsyncss_fpga/InstantiationBlockImpl$sync_ff2/BPortImpl$rawclk" class="sprotty-edge edge" style="fill:none;stroke:rgb(112, 112, 112);stroke-linejoin:round;"><g><path d="M 0 261 L 277 261 C 278 261 279 262 279 263 L 279 265 C 279 266 280 267 281 267 L 299 267 "/><path d="M 0 261 L 277 261 C 278 261 279 262 279 263 L 279 265 C 279 266 280 267 281 267 L 299 267 " class="clickable"/></g></g><g id="sprotty_ArchitectureBlockImpl$rvsyncss_fpga/BPortImpl$rst_l_to_ArchitectureBlockImpl$rvsyncss_fpga/InstantiationBlockImpl$sync_ff2/BPortImpl$rst_l" class="sprotty-edge edge" style="fill:none;stroke:rgb(112, 112, 112);stroke-linejoin:round;"><g><path d="M 0 295 L 299 295 "/><path d="M 0 295 L 299 295 " class="clickable"/></g></g><g id="sprotty_ArchitectureBlockImpl$rvsyncss_fpga/InstantiationBlockImpl$sync_ff1/BPortImpl$dout_to_ArchitectureBlockImpl$rvsyncss_fpga/InstantiationBlockImpl$sync_ff2/BPortImpl$din" class="sprotty-edge thick edge" style="fill:none;stroke:rgb(112, 112, 112);stroke-linejoin:round;stroke-width:3px;"><g><path d="M 269 142 L 277 142 C 278 142 279 143 279 144 L 279 181 C 279 182 280 183 281 183 L 299 183 "/><path d="M 269 142 L 277 142 C 278 142 279 143 279 144 L 279 181 C 279 182 280 183 281 183 L 299 183 " class="clickable"/></g></g><g id="sprotty_ArchitectureBlockImpl$rvsyncss_fpga/InstantiationBlockImpl$sync_ff2" class="instantiation" transform="translate(299, 145)"><g class="sprotty-block" style="fill:rgb(255, 255, 255);stroke:rgb(48, 48, 48);stroke-dasharray:0px;"><rect x="0" y="0" rx="1" ry="1" width="168.40625" height="168"/><text x="84.203125" y="12" class="sprotty-block-name" style="cursor:pointer;font-weight:700;perspective-origin:42.1016px 0px;fill:rgb(48, 48, 48);stroke:rgba(0, 0, 0, 0);dominant-baseline:middle;text-anchor:middle;">sync_ff2 : rvdff_fpga</text><line x1="0" y1="20" x2="168.40625" y2="20"/></g><g id="sprotty_ArchitectureBlockImpl$rvsyncss_fpga/InstantiationBlockImpl$sync_ff2/BPortImpl$rst_l" class="triangle" transform="translate(0, 150)"><path d="M 0,0 L 5,2.5 L 0,5 Z" transform="translate(-1.67, -2.5)" class="sprotty-port" style="fill:rgb(48, 48, 48);stroke:rgb(48, 48, 48);"/><text class="clickable sprotty-label port" id="sprotty_ArchitectureBlockImpl$rvsyncss_fpga/InstantiationBlockImpl$sync_ff2/BPortImpl$rst_l/label" transform="translate(6, -9) translate(12.3125, 14)" style="cursor:default;font-size:12px;perspective-origin:0px 0px;fill:rgb(48, 48, 48);text-anchor:middle;">rst_l</text></g><g id="sprotty_ArchitectureBlockImpl$rvsyncss_fpga/InstantiationBlockImpl$sync_ff2/BPortImpl$rawclk" class="triangle" transform="translate(0, 122)"><path d="M 0,0 L 5,2.5 L 0,5 Z" transform="translate(-1.67, -2.5)" class="sprotty-port" style="fill:rgb(48, 48, 48);stroke:rgb(48, 48, 48);"/><text class="clickable sprotty-label port" id="sprotty_ArchitectureBlockImpl$rvsyncss_fpga/InstantiationBlockImpl$sync_ff2/BPortImpl$rawclk/label" transform="translate(6, -9) translate(18.421875, 14)" style="cursor:default;font-size:12px;perspective-origin:0.09375px 0px;fill:rgb(48, 48, 48);text-anchor:middle;">rawclk</text></g><g id="sprotty_ArchitectureBlockImpl$rvsyncss_fpga/InstantiationBlockImpl$sync_ff2/BPortImpl$clken" class="triangle" transform="translate(0, 94)"><path d="M 0,0 L 5,2.5 L 0,5 Z" transform="translate(-1.67, -2.5)" class="sprotty-port" style="fill:rgb(48, 48, 48);stroke:rgb(48, 48, 48);"/><text class="clickable sprotty-label port" id="sprotty_ArchitectureBlockImpl$rvsyncss_fpga/InstantiationBlockImpl$sync_ff2/BPortImpl$clken/label" transform="translate(6, -9) translate(14.953125, 14)" style="cursor:default;font-size:12px;perspective-origin:0px 0px;fill:rgb(48, 48, 48);text-anchor:middle;">clken</text></g><g id="sprotty_ArchitectureBlockImpl$rvsyncss_fpga/InstantiationBlockImpl$sync_ff2/BPortImpl$clk" class="triangle" transform="translate(0, 66)"><path d="M 0,0 L 5,2.5 L 0,5 Z" transform="translate(-1.67, -2.5)" class="sprotty-port" style="fill:rgb(48, 48, 48);stroke:rgb(48, 48, 48);"/><text class="clickable sprotty-label port" id="sprotty_ArchitectureBlockImpl$rvsyncss_fpga/InstantiationBlockImpl$sync_ff2/BPortImpl$clk/label" transform="translate(6, -9) translate(8.078125, 14)" style="cursor:default;font-size:12px;perspective-origin:0.09375px 0px;fill:rgb(48, 48, 48);text-anchor:middle;">clk</text></g><g id="sprotty_ArchitectureBlockImpl$rvsyncss_fpga/InstantiationBlockImpl$sync_ff2/BPortImpl$din" class="triangle" transform="translate(0, 38)"><path d="M 0,0 L 5,2.5 L 0,5 Z" transform="translate(-1.67, -2.5)" class="sprotty-port" style="fill:rgb(48, 48, 48);stroke:rgb(48, 48, 48);"/><text class="clickable sprotty-label port" id="sprotty_ArchitectureBlockImpl$rvsyncss_fpga/InstantiationBlockImpl$sync_ff2/BPortImpl$din/label" transform="translate(6, -9) translate(9.046875, 14)" style="cursor:default;font-size:12px;perspective-origin:0px 0px;fill:rgb(48, 48, 48);text-anchor:middle;">din</text></g><g id="sprotty_ArchitectureBlockImpl$rvsyncss_fpga/InstantiationBlockImpl$sync_ff2/BPortImpl$dout" class="triangle" transform="translate(168.40625, 94)"><path d="M 0,0 L 5,2.5 L 0,5 Z" transform="translate(-1.67, -2.5)" class="sprotty-port" style="fill:rgb(48, 48, 48);stroke:rgb(48, 48, 48);"/><text class="clickable sprotty-label port" id="sprotty_ArchitectureBlockImpl$rvsyncss_fpga/InstantiationBlockImpl$sync_ff2/BPortImpl$dout/label" transform="translate(-32.53125, -9) translate(13.265625, 14)" style="cursor:default;font-size:12px;perspective-origin:0px 0px;fill:rgb(48, 48, 48);text-anchor:middle;">dout</text></g></g><g id="sprotty_ArchitectureBlockImpl$rvsyncss_fpga/InstantiationBlockImpl$sync_ff1" class="instantiation" transform="translate(100.59375, 48)"><g class="sprotty-block" style="fill:rgb(255, 255, 255);stroke:rgb(48, 48, 48);stroke-dasharray:0px;"><rect x="0" y="0" rx="1" ry="1" width="168.40625" height="168"/><text x="84.203125" y="12" class="sprotty-block-name" style="cursor:pointer;font-weight:700;perspective-origin:42.1016px 0px;fill:rgb(48, 48, 48);stroke:rgba(0, 0, 0, 0);dominant-baseline:middle;text-anchor:middle;">sync_ff1 : rvdff_fpga</text><line x1="0" y1="20" x2="168.40625" y2="20"/></g><g id="sprotty_ArchitectureBlockImpl$rvsyncss_fpga/InstantiationBlockImpl$sync_ff1/BPortImpl$rst_l" class="triangle" transform="translate(0, 150)"><path d="M 0,0 L 5,2.5 L 0,5 Z" transform="translate(-1.67, -2.5)" class="sprotty-port" style="fill:rgb(48, 48, 48);stroke:rgb(48, 48, 48);"/><text class="clickable sprotty-label port" id="sprotty_ArchitectureBlockImpl$rvsyncss_fpga/InstantiationBlockImpl$sync_ff1/BPortImpl$rst_l/label" transform="translate(6, -9) translate(12.3125, 14)" style="cursor:default;font-size:12px;perspective-origin:0px 0px;fill:rgb(48, 48, 48);text-anchor:middle;">rst_l</text></g><g id="sprotty_ArchitectureBlockImpl$rvsyncss_fpga/InstantiationBlockImpl$sync_ff1/BPortImpl$rawclk" class="triangle" transform="translate(0, 122)"><path d="M 0,0 L 5,2.5 L 0,5 Z" transform="translate(-1.67, -2.5)" class="sprotty-port" style="fill:rgb(48, 48, 48);stroke:rgb(48, 48, 48);"/><text class="clickable sprotty-label port" id="sprotty_ArchitectureBlockImpl$rvsyncss_fpga/InstantiationBlockImpl$sync_ff1/BPortImpl$rawclk/label" transform="translate(6, -9) translate(18.421875, 14)" style="cursor:default;font-size:12px;perspective-origin:0.09375px 0px;fill:rgb(48, 48, 48);text-anchor:middle;">rawclk</text></g><g id="sprotty_ArchitectureBlockImpl$rvsyncss_fpga/InstantiationBlockImpl$sync_ff1/BPortImpl$clken" class="triangle" transform="translate(0, 94)"><path d="M 0,0 L 5,2.5 L 0,5 Z" transform="translate(-1.67, -2.5)" class="sprotty-port" style="fill:rgb(48, 48, 48);stroke:rgb(48, 48, 48);"/><text class="clickable sprotty-label port" id="sprotty_ArchitectureBlockImpl$rvsyncss_fpga/InstantiationBlockImpl$sync_ff1/BPortImpl$clken/label" transform="translate(6, -9) translate(14.953125, 14)" style="cursor:default;font-size:12px;perspective-origin:0px 0px;fill:rgb(48, 48, 48);text-anchor:middle;">clken</text></g><g id="sprotty_ArchitectureBlockImpl$rvsyncss_fpga/InstantiationBlockImpl$sync_ff1/BPortImpl$clk" class="triangle" transform="translate(0, 66)"><path d="M 0,0 L 5,2.5 L 0,5 Z" transform="translate(-1.67, -2.5)" class="sprotty-port" style="fill:rgb(48, 48, 48);stroke:rgb(48, 48, 48);"/><text class="clickable sprotty-label port" id="sprotty_ArchitectureBlockImpl$rvsyncss_fpga/InstantiationBlockImpl$sync_ff1/BPortImpl$clk/label" transform="translate(6, -9) translate(8.078125, 14)" style="cursor:default;font-size:12px;perspective-origin:0.09375px 0px;fill:rgb(48, 48, 48);text-anchor:middle;">clk</text></g><g id="sprotty_ArchitectureBlockImpl$rvsyncss_fpga/InstantiationBlockImpl$sync_ff1/BPortImpl$din" class="triangle" transform="translate(0, 38)"><path d="M 0,0 L 5,2.5 L 0,5 Z" transform="translate(-1.67, -2.5)" class="sprotty-port" style="fill:rgb(48, 48, 48);stroke:rgb(48, 48, 48);"/><text class="clickable sprotty-label port" id="sprotty_ArchitectureBlockImpl$rvsyncss_fpga/InstantiationBlockImpl$sync_ff1/BPortImpl$din/label" transform="translate(6, -9) translate(9.046875, 14)" style="cursor:default;font-size:12px;perspective-origin:0px 0px;fill:rgb(48, 48, 48);text-anchor:middle;">din</text></g><g id="sprotty_ArchitectureBlockImpl$rvsyncss_fpga/InstantiationBlockImpl$sync_ff1/BPortImpl$dout" class="triangle" transform="translate(168.40625, 94)"><path d="M 0,0 L 5,2.5 L 0,5 Z" transform="translate(-1.67, -2.5)" class="sprotty-port" style="fill:rgb(48, 48, 48);stroke:rgb(48, 48, 48);"/><text class="clickable sprotty-label port" id="sprotty_ArchitectureBlockImpl$rvsyncss_fpga/InstantiationBlockImpl$sync_ff1/BPortImpl$dout/label" transform="translate(-32.53125, -9) translate(13.265625, 14)" style="cursor:default;font-size:12px;perspective-origin:0px 0px;fill:rgb(48, 48, 48);text-anchor:middle;">dout</text></g></g><g id="sprotty_ArchitectureBlockImpl$rvsyncss_fpga/BPortImpl$din" class="triangle" transform="translate(0, 80)"><path d="M 0,0 L 5,2.5 L 0,5 Z" transform="translate(-1.67, -2.5)" class="sprotty-port" style="fill:rgb(48, 48, 48);stroke:rgb(48, 48, 48);"/><text class="clickable sprotty-label port" id="sprotty_ArchitectureBlockImpl$rvsyncss_fpga/BPortImpl$din/label" transform="translate(6, 6) translate(9.046875, 14)" style="cursor:default;font-size:12px;perspective-origin:0px 0px;fill:rgb(48, 48, 48);text-anchor:middle;">din</text></g><g id="sprotty_ArchitectureBlockImpl$rvsyncss_fpga/BPortImpl$rst_l" class="triangle" transform="translate(0, 295)"><path d="M 0,0 L 5,2.5 L 0,5 Z" transform="translate(-1.67, -2.5)" class="sprotty-port" style="fill:rgb(48, 48, 48);stroke:rgb(48, 48, 48);"/><text class="clickable sprotty-label port" id="sprotty_ArchitectureBlockImpl$rvsyncss_fpga/BPortImpl$rst_l/label" transform="translate(6, 6) translate(12.3125, 14)" style="cursor:default;font-size:12px;perspective-origin:0px 0px;fill:rgb(48, 48, 48);text-anchor:middle;">rst_l</text></g><g id="sprotty_ArchitectureBlockImpl$rvsyncss_fpga/BPortImpl$clken" class="triangle" transform="translate(0, 227)"><path d="M 0,0 L 5,2.5 L 0,5 Z" transform="translate(-1.67, -2.5)" class="sprotty-port" style="fill:rgb(48, 48, 48);stroke:rgb(48, 48, 48);"/><text class="clickable sprotty-label port" id="sprotty_ArchitectureBlockImpl$rvsyncss_fpga/BPortImpl$clken/label" transform="translate(6, 6) translate(14.953125, 14)" style="cursor:default;font-size:12px;perspective-origin:0px 0px;fill:rgb(48, 48, 48);text-anchor:middle;">clken</text></g><g id="sprotty_ArchitectureBlockImpl$rvsyncss_fpga/BPortImpl$rawclk" class="triangle" transform="translate(0, 261)"><path d="M 0,0 L 5,2.5 L 0,5 Z" transform="translate(-1.67, -2.5)" class="sprotty-port" style="fill:rgb(48, 48, 48);stroke:rgb(48, 48, 48);"/><text class="clickable sprotty-label port" id="sprotty_ArchitectureBlockImpl$rvsyncss_fpga/BPortImpl$rawclk/label" transform="translate(6, 6) translate(18.421875, 14)" style="cursor:default;font-size:12px;perspective-origin:0.09375px 0px;fill:rgb(48, 48, 48);text-anchor:middle;">rawclk</text></g><g id="sprotty_ArchitectureBlockImpl$rvsyncss_fpga/BPortImpl$gw_clk" class="triangle" transform="translate(0, 114)"><path d="M 0,0 L 5,2.5 L 0,5 Z" transform="translate(-1.67, -2.5)" class="sprotty-port" style="fill:rgb(48, 48, 48);stroke:rgb(48, 48, 48);"/><text class="clickable sprotty-label port" id="sprotty_ArchitectureBlockImpl$rvsyncss_fpga/BPortImpl$gw_clk/label" transform="translate(6, 6) translate(19.609375, 14)" style="cursor:default;font-size:12px;perspective-origin:0.09375px 0px;fill:rgb(48, 48, 48);text-anchor:middle;">gw_clk</text></g><g id="sprotty_ArchitectureBlockImpl$rvsyncss_fpga/BPortImpl$dout" class="triangle" transform="translate(514.9375, 239)"><path d="M 0,0 L 5,2.5 L 0,5 Z" transform="translate(-1.67, -2.5)" class="sprotty-port" style="fill:rgb(48, 48, 48);stroke:rgb(48, 48, 48);"/><text class="clickable sprotty-label port" id="sprotty_ArchitectureBlockImpl$rvsyncss_fpga/BPortImpl$dout/label" transform="translate(-32.53125, 6) translate(13.265625, 14)" style="cursor:default;font-size:12px;perspective-origin:0px 0px;fill:rgb(48, 48, 48);text-anchor:middle;">dout</text></g></g></g></svg>