<svg xmlns="http://www.w3.org/2000/svg" id="sprotty_work.axi_slv" class="sprotty-graph sprotty-block-diagram blockdiagram" style="font-family:&quot;Noto Sans&quot;, Helvetica, Arial, sans-serif;perspective-origin:0px 0px;transform-origin:0px 0px;" version="1.1" viewBox="7 7 344.40625 816" width="344.40625" height="816"><g transform="scale(1) translate(0,0)"><g id="sprotty_ArchitectureBlockImpl$axi_slv" class="architecture" transform="translate(12, 12)"><g class="sprotty-block" style="fill:rgb(255, 255, 255);stroke:rgb(48, 48, 48);stroke-dasharray:0px;"><rect x="0" y="0" rx="1" ry="1" width="334.40625" height="806"/><text x="167.203125" y="12" class="sprotty-block-name" style="cursor:pointer;font-weight:700;perspective-origin:83.6016px 0px;fill:rgb(48, 48, 48);stroke:rgba(0, 0, 0, 0);dominant-baseline:middle;text-anchor:middle;">axi_slv</text><line x1="0" y1="20" x2="334.40625" y2="20"/></g><g id="sprotty_ArchitectureBlockImpl$axi_slv/AssignmentBlockImpl$arready/GPortImpl$arreadyOUT_to_ArchitectureBlockImpl$axi_slv/BPortImpl$arready" class="sprotty-edge edge" style="fill:none;stroke:rgb(112, 112, 112);stroke-linejoin:round;"><g><path d="M 106.03125 426 L 334.40625 426 "/><path d="M 106.03125 426 L 334.40625 426 " class="clickable"/></g></g><g id="sprotty_ArchitectureBlockImpl$axi_slv/AlwaysBlockImpl$null31/GPortImpl$rvalidOUT_to_ArchitectureBlockImpl$axi_slv/BPortImpl$rvalid" class="sprotty-edge edge" style="fill:none;stroke:rgb(112, 112, 112);stroke-linejoin:round;"><g><path d="M 229.09375 206.66666666666666 L 267.09375 206.66666666666666 C 268.09375 206.66666666666666 269.09375 207.66666666666666 269.09375 208.66666666666666 L 269.09375 225.33333333333334 C 269.09375 226.33333333333334 270.09375 227.33333333333334 271.09375 227.33333333333334 L 334.40625 227.33333333333334 "/><path d="M 229.09375 206.66666666666666 L 267.09375 206.66666666666666 C 268.09375 206.66666666666666 269.09375 207.66666666666666 269.09375 208.66666666666666 L 269.09375 225.33333333333334 C 269.09375 226.33333333333334 270.09375 227.33333333333334 271.09375 227.33333333333334 L 334.40625 227.33333333333334 " class="clickable"/></g></g><g id="sprotty_ArchitectureBlockImpl$axi_slv/AlwaysBlockImpl$null31/GPortImpl$rdataOUT_to_ArchitectureBlockImpl$axi_slv/BPortImpl$rdata" class="sprotty-edge thick edge" style="fill:none;stroke:rgb(112, 112, 112);stroke-linejoin:round;stroke-width:3px;"><g><path d="M 229.09375 220 L 257.09375 220 C 258.09375 220 259.09375 221 259.09375 222 L 259.09375 259.33333333333337 C 259.09375 260.33333333333337 260.09375 261.33333333333337 261.09375 261.33333333333337 L 334.40625 261.33333333333337 "/><path d="M 229.09375 220 L 257.09375 220 C 258.09375 220 259.09375 221 259.09375 222 L 259.09375 259.33333333333337 C 259.09375 260.33333333333337 260.09375 261.33333333333337 261.09375 261.33333333333337 L 334.40625 261.33333333333337 " class="clickable"/></g></g><g id="sprotty_ArchitectureBlockImpl$axi_slv/AssignmentBlockImpl$rresp/GPortImpl$rrespOUT_to_ArchitectureBlockImpl$axi_slv/BPortImpl$rresp" class="sprotty-edge thick edge" style="fill:none;stroke:rgb(112, 112, 112);stroke-linejoin:round;stroke-width:3px;"><g><path d="M 106.03125 481 L 334.40625 481 "/><path d="M 106.03125 481 L 334.40625 481 " class="clickable"/></g></g><g id="sprotty_ArchitectureBlockImpl$axi_slv/AlwaysBlockImpl$null31/GPortImpl$ridOUT_to_ArchitectureBlockImpl$axi_slv/BPortImpl$rid" class="sprotty-edge thick edge" style="fill:none;stroke:rgb(112, 112, 112);stroke-linejoin:round;stroke-width:3px;"><g><path d="M 229.09375 193.33333333333334 L 334.40625 193.33333333333334 "/><path d="M 229.09375 193.33333333333334 L 334.40625 193.33333333333334 " class="clickable"/></g></g><g id="sprotty_ArchitectureBlockImpl$axi_slv/AssignmentBlockImpl$rlast/GPortImpl$rlastOUT_to_ArchitectureBlockImpl$axi_slv/BPortImpl$rlast" class="sprotty-edge edge" style="fill:none;stroke:rgb(112, 112, 112);stroke-linejoin:round;"><g><path d="M 106.03125 536 L 334.40625 536 "/><path d="M 106.03125 536 L 334.40625 536 " class="clickable"/></g></g><g id="sprotty_ArchitectureBlockImpl$axi_slv/AssignmentBlockImpl$awready/GPortImpl$awreadyOUT_to_ArchitectureBlockImpl$axi_slv/BPortImpl$awready" class="sprotty-edge edge" style="fill:none;stroke:rgb(112, 112, 112);stroke-linejoin:round;"><g><path d="M 106.03125 591 L 334.40625 591 "/><path d="M 106.03125 591 L 334.40625 591 " class="clickable"/></g></g><g id="sprotty_ArchitectureBlockImpl$axi_slv/AlwaysBlockImpl$null30/GPortImpl$awaddrOUT_to_ArchitectureBlockImpl$axi_slv/BPortImpl$awaddr" class="sprotty-edge thick edge" style="fill:none;stroke:rgb(112, 112, 112);stroke-linejoin:round;stroke-width:3px;"><g><path d="M 141.703125 262.3333333333333 L 149.703125 262.33333333333337 C 150.703125 262.33333333333337 151.703125 261.33333333333337 151.703125 260.33333333333337 L 151.703125 231 C 151.703125 230 150.703125 229 149.703125 229 L 0 229 "/><path d="M 141.703125 262.3333333333333 L 149.703125 262.33333333333337 C 150.703125 262.33333333333337 151.703125 261.33333333333337 151.703125 260.33333333333337 L 151.703125 231 C 151.703125 230 150.703125 229 149.703125 229 L 0 229 " class="clickable"/></g></g><g id="sprotty_ArchitectureBlockImpl$axi_slv/AssignmentBlockImpl$wready/GPortImpl$wreadyOUT_to_ArchitectureBlockImpl$axi_slv/BPortImpl$wready" class="sprotty-edge edge" style="fill:none;stroke:rgb(112, 112, 112);stroke-linejoin:round;"><g><path d="M 106.03125 646 L 334.40625 646 "/><path d="M 106.03125 646 L 334.40625 646 " class="clickable"/></g></g><g id="sprotty_ArchitectureBlockImpl$axi_slv/AlwaysBlockImpl$null31/GPortImpl$bvalidOUT_to_ArchitectureBlockImpl$axi_slv/BPortImpl$bvalid" class="sprotty-edge edge" style="fill:none;stroke:rgb(112, 112, 112);stroke-linejoin:round;"><g><path d="M 229.09375 233.33333333333334 L 247.09375 233.33333333333334 C 248.09375 233.33333333333334 249.09375 234.33333333333334 249.09375 235.33333333333334 L 249.09375 293.33333333333337 C 249.09375 294.33333333333337 250.09375 295.33333333333337 251.09375 295.33333333333337 L 334.40625 295.33333333333337 "/><path d="M 229.09375 233.33333333333334 L 247.09375 233.33333333333334 C 248.09375 233.33333333333334 249.09375 234.33333333333334 249.09375 235.33333333333334 L 249.09375 293.33333333333337 C 249.09375 294.33333333333337 250.09375 295.33333333333337 251.09375 295.33333333333337 L 334.40625 295.33333333333337 " class="clickable"/></g></g><g id="sprotty_ArchitectureBlockImpl$axi_slv/AssignmentBlockImpl$bresp/GPortImpl$brespOUT_to_ArchitectureBlockImpl$axi_slv/BPortImpl$bresp" class="sprotty-edge thick edge" style="fill:none;stroke:rgb(112, 112, 112);stroke-linejoin:round;stroke-width:3px;"><g><path d="M 106.03125 701 L 334.40625 701 "/><path d="M 106.03125 701 L 334.40625 701 " class="clickable"/></g></g><g id="sprotty_ArchitectureBlockImpl$axi_slv/AlwaysBlockImpl$null31/GPortImpl$bidOUT_to_ArchitectureBlockImpl$axi_slv/BPortImpl$bid" class="sprotty-edge thick edge" style="fill:none;stroke:rgb(112, 112, 112);stroke-linejoin:round;stroke-width:3px;"><g><path d="M 229.09375 246.66666666666669 L 237.09375 246.66666666666669 C 238.09375 246.66666666666669 239.09375 247.66666666666669 239.09375 248.66666666666669 L 239.09375 327.33333333333337 C 239.09375 328.33333333333337 240.09375 329.33333333333337 241.09375 329.33333333333337 L 334.40625 329.33333333333337 "/><path d="M 229.09375 246.66666666666669 L 237.09375 246.66666666666669 C 238.09375 246.66666666666669 239.09375 247.66666666666669 239.09375 248.66666666666669 L 239.09375 327.33333333333337 C 239.09375 328.33333333333337 240.09375 329.33333333333337 241.09375 329.33333333333337 L 334.40625 329.33333333333337 " class="clickable"/></g></g><g id="sprotty_ArchitectureBlockImpl$axi_slv/BPortImpl$awvalid_to_ArchitectureBlockImpl$axi_slv/AssignmentBlockImpl$mailbox_write/GPortImpl$awvalidIN" class="sprotty-edge edge" style="fill:none;stroke:rgb(112, 112, 112);stroke-linejoin:round;"><g><path d="M 0 189 L 104.3125 189 "/><path d="M 0 189 L 104.3125 189 " class="clickable"/></g></g><g id="sprotty_ArchitectureBlockImpl$axi_slv/BPortImpl$awaddr_to_ArchitectureBlockImpl$axi_slv/AssignmentBlockImpl$mailbox_write/GPortImpl$awaddrIN" class="sprotty-edge thick edge" style="fill:none;stroke:rgb(112, 112, 112);stroke-linejoin:round;stroke-width:3px;"><g><path d="M 0 229 L 82.3125 229 C 83.3125 229 84.3125 228 84.3125 227 L 84.3125 201 C 84.3125 200 85.3125 199 86.3125 199 L 104.3125 199 "/><path d="M 0 229 L 82.3125 229 C 83.3125 229 84.3125 228 84.3125 227 L 84.3125 201 C 84.3125 200 85.3125 199 86.3125 199 L 104.3125 199 " class="clickable"/></g><circle r="3" id="sprotty_ArchitectureBlockImpl$axi_slv/BPortImpl$awaddr_to_ArchitectureBlockImpl$axi_slv/AssignmentBlockImpl$mailbox_write/GPortImpl$awaddrIN/junction0" transform="translate(84.3125, 229)" class="sprotty-junction thick" style="fill:rgb(112, 112, 112);stroke:none;"/></g><g id="sprotty_ArchitectureBlockImpl$axi_slv/BPortImpl$rst_l_to_ArchitectureBlockImpl$axi_slv/AssignmentBlockImpl$mailbox_write/GPortImpl$rst_lIN" class="sprotty-edge edge" style="fill:none;stroke:rgb(112, 112, 112);stroke-linejoin:round;"><g><path d="M 0 104 L 82.3125 104 C 83.3125 104 84.3125 105 84.3125 106 L 84.3125 177 C 84.3125 178 85.3125 179 86.3125 179 L 104.3125 179 "/><path d="M 0 104 L 82.3125 104 C 83.3125 104 84.3125 105 84.3125 106 L 84.3125 177 C 84.3125 178 85.3125 179 86.3125 179 L 104.3125 179 " class="clickable"/></g><circle r="2" id="sprotty_ArchitectureBlockImpl$axi_slv/BPortImpl$rst_l_to_ArchitectureBlockImpl$axi_slv/AssignmentBlockImpl$mailbox_write/GPortImpl$rst_lIN/junction0" transform="translate(84.3125, 104)" class="sprotty-junction junction" style="fill:rgb(112, 112, 112);stroke:none;"/></g><g id="sprotty_ArchitectureBlockImpl$axi_slv/BPortImpl$wdata_to_ArchitectureBlockImpl$axi_slv/AssignmentBlockImpl$WriteData/GPortImpl$wdataIN" class="sprotty-edge thick edge" style="fill:none;stroke:rgb(112, 112, 112);stroke-linejoin:round;stroke-width:3px;"><g><path d="M 0 138 L 104.3125 138 "/><path d="M 0 138 L 104.3125 138 " class="clickable"/></g></g><g id="sprotty_ArchitectureBlockImpl$axi_slv/BPortImpl$aclk_to_ArchitectureBlockImpl$axi_slv/AlwaysBlockImpl$null31/GPortImpl$aclkIN" class="sprotty-edge edge" style="fill:none;stroke:rgb(112, 112, 112);stroke-linejoin:round;"><g><path d="M 0 371 L 179.703125 371 C 180.703125 371 181.703125 370 181.703125 369 L 181.703125 252 C 181.703125 251 182.703125 250 183.703125 250 L 191.703125 250 "/><path d="M 0 371 L 179.703125 371 C 180.703125 371 181.703125 370 181.703125 369 L 181.703125 252 C 181.703125 251 182.703125 250 183.703125 250 L 191.703125 250 " class="clickable"/></g></g><g id="sprotty_ArchitectureBlockImpl$axi_slv/BPortImpl$rst_l_to_ArchitectureBlockImpl$axi_slv/AlwaysBlockImpl$null31/GPortImpl$rst_lIN" class="sprotty-edge edge" style="fill:none;stroke:rgb(112, 112, 112);stroke-linejoin:round;"><g><path d="M 0 104 L 149.703125 104 C 150.703125 104 151.703125 105 151.703125 106 L 151.703125 208 C 151.703125 209 152.703125 210 153.703125 210 L 191.703125 210 "/><path d="M 0 104 L 149.703125 104 C 150.703125 104 151.703125 105 151.703125 106 L 151.703125 208 C 151.703125 209 152.703125 210 153.703125 210 L 191.703125 210 " class="clickable"/></g></g><g id="sprotty_ArchitectureBlockImpl$axi_slv/BPortImpl$awid_to_ArchitectureBlockImpl$axi_slv/AlwaysBlockImpl$null31/GPortImpl$awidIN" class="sprotty-edge thick edge" style="fill:none;stroke:rgb(112, 112, 112);stroke-linejoin:round;stroke-width:3px;"><g><path d="M 0 70 L 159.703125 70 C 160.703125 70 161.703125 71 161.703125 72 L 161.703125 198 C 161.703125 199 162.703125 200 163.703125 200 L 191.703125 200 "/><path d="M 0 70 L 159.703125 70 C 160.703125 70 161.703125 71 161.703125 72 L 161.703125 198 C 161.703125 199 162.703125 200 163.703125 200 L 191.703125 200 " class="clickable"/></g></g><g id="sprotty_ArchitectureBlockImpl$axi_slv/BPortImpl$arid_to_ArchitectureBlockImpl$axi_slv/AlwaysBlockImpl$null31/GPortImpl$aridIN" class="sprotty-edge thick edge" style="fill:none;stroke:rgb(112, 112, 112);stroke-linejoin:round;stroke-width:3px;"><g><path d="M 0 36 L 169.703125 36 C 170.703125 36 171.703125 37 171.703125 38 L 171.703125 188 C 171.703125 189 172.703125 190 173.703125 190 L 191.703125 190 "/><path d="M 0 36 L 169.703125 36 C 170.703125 36 171.703125 37 171.703125 38 L 171.703125 188 C 171.703125 189 172.703125 190 173.703125 190 L 191.703125 190 " class="clickable"/></g></g><g id="sprotty_ArchitectureBlockImpl$axi_slv/BPortImpl$arvalid_to_ArchitectureBlockImpl$axi_slv/AlwaysBlockImpl$null31/GPortImpl$arvalidIN" class="sprotty-edge edge" style="fill:none;stroke:rgb(112, 112, 112);stroke-linejoin:round;"><g><path d="M 0 337 L 169.703125 337 C 170.703125 337 171.703125 336 171.703125 335 L 171.703125 242 C 171.703125 241 172.703125 240 173.703125 240 L 191.703125 240 "/><path d="M 0 337 L 169.703125 337 C 170.703125 337 171.703125 336 171.703125 335 L 171.703125 242 C 171.703125 241 172.703125 240 173.703125 240 L 191.703125 240 " class="clickable"/></g></g><g id="sprotty_ArchitectureBlockImpl$axi_slv/BPortImpl$awvalid_to_ArchitectureBlockImpl$axi_slv/AlwaysBlockImpl$null31/GPortImpl$awvalidIN" class="sprotty-edge edge" style="fill:none;stroke:rgb(112, 112, 112);stroke-linejoin:round;"><g><path d="M 0 189 L 92.3125 189 C 93.3125 189 94.3125 190 94.3125 191 L 94.3125 218 C 94.3125 219 95.3125 220 96.3125 220 L 191.703125 220 "/><path d="M 0 189 L 92.3125 189 C 93.3125 189 94.3125 190 94.3125 191 L 94.3125 218 C 94.3125 219 95.3125 220 96.3125 220 L 191.703125 220 " class="clickable"/></g><circle r="2" id="sprotty_ArchitectureBlockImpl$axi_slv/BPortImpl$awvalid_to_ArchitectureBlockImpl$axi_slv/AlwaysBlockImpl$null31/GPortImpl$awvalidIN/junction0" transform="translate(94.3125, 189)" class="sprotty-junction junction" style="fill:rgb(112, 112, 112);stroke:none;"/><circle r="2" id="sprotty_ArchitectureBlockImpl$axi_slv/BPortImpl$awvalid_to_ArchitectureBlockImpl$axi_slv/AlwaysBlockImpl$null31/GPortImpl$awvalidIN/junction1" transform="translate(94.3125, 220)" class="sprotty-junction junction" style="fill:rgb(112, 112, 112);stroke:none;"/></g><g id="sprotty_ArchitectureBlockImpl$axi_slv/BPortImpl$aclk_to_ArchitectureBlockImpl$axi_slv/AlwaysBlockImpl$null30/GPortImpl$aclkIN" class="sprotty-edge edge" style="fill:none;stroke:rgb(112, 112, 112);stroke-linejoin:round;"><g><path d="M 0 371 L 92.3125 371 C 93.3125 371 94.3125 370 94.3125 369 L 94.3125 301 C 94.3125 300 95.3125 299 96.3125 299 L 104.3125 299 "/><path d="M 0 371 L 92.3125 371 C 93.3125 371 94.3125 370 94.3125 369 L 94.3125 301 C 94.3125 300 95.3125 299 96.3125 299 L 104.3125 299 " class="clickable"/></g><circle r="2" id="sprotty_ArchitectureBlockImpl$axi_slv/BPortImpl$aclk_to_ArchitectureBlockImpl$axi_slv/AlwaysBlockImpl$null30/GPortImpl$aclkIN/junction0" transform="translate(94.3125, 371)" class="sprotty-junction junction" style="fill:rgb(112, 112, 112);stroke:none;"/></g><g id="sprotty_ArchitectureBlockImpl$axi_slv/BPortImpl$arvalid_to_ArchitectureBlockImpl$axi_slv/AlwaysBlockImpl$null30/GPortImpl$arvalidIN" class="sprotty-edge edge" style="fill:none;stroke:rgb(112, 112, 112);stroke-linejoin:round;"><g><path d="M 0 337 L 82.3125 337 C 83.3125 337 84.3125 336 84.3125 335 L 84.3125 291 C 84.3125 290 85.3125 289 86.3125 289 L 104.3125 289 "/><path d="M 0 337 L 82.3125 337 C 83.3125 337 84.3125 336 84.3125 335 L 84.3125 291 C 84.3125 290 85.3125 289 86.3125 289 L 104.3125 289 " class="clickable"/></g><circle r="2" id="sprotty_ArchitectureBlockImpl$axi_slv/BPortImpl$arvalid_to_ArchitectureBlockImpl$axi_slv/AlwaysBlockImpl$null30/GPortImpl$arvalidIN/junction0" transform="translate(84.3125, 337)" class="sprotty-junction junction" style="fill:rgb(112, 112, 112);stroke:none;"/></g><g id="sprotty_ArchitectureBlockImpl$axi_slv/BPortImpl$araddr_to_ArchitectureBlockImpl$axi_slv/AlwaysBlockImpl$null30/GPortImpl$araddrIN" class="sprotty-edge thick edge" style="fill:none;stroke:rgb(112, 112, 112);stroke-linejoin:round;stroke-width:3px;"><g><path d="M 0 269 L 104.3125 269 "/><path d="M 0 269 L 104.3125 269 " class="clickable"/></g></g><g id="sprotty_ArchitectureBlockImpl$axi_slv/BPortImpl$awvalid_to_ArchitectureBlockImpl$axi_slv/AlwaysBlockImpl$null30/GPortImpl$awvalidIN" class="sprotty-edge edge" style="fill:none;stroke:rgb(112, 112, 112);stroke-linejoin:round;"><g><path d="M 0 189 L 92.3125 189 C 93.3125 189 94.3125 190 94.3125 191 L 94.3125 257 C 94.3125 258 95.3125 259 96.3125 259 L 104.3125 259 "/><path d="M 0 189 L 92.3125 189 C 93.3125 189 94.3125 190 94.3125 191 L 94.3125 257 C 94.3125 258 95.3125 259 96.3125 259 L 104.3125 259 " class="clickable"/></g></g><g id="sprotty_ArchitectureBlockImpl$axi_slv/BPortImpl$wstrb_to_ArchitectureBlockImpl$axi_slv/AlwaysBlockImpl$null30/GPortImpl$wstrbIN" class="sprotty-edge thick edge" style="fill:none;stroke:rgb(112, 112, 112);stroke-linejoin:round;stroke-width:3px;"><g><path d="M 0 303 L 72.3125 303 C 73.3125 303 74.3125 302 74.3125 301 L 74.3125 281 C 74.3125 280 75.3125 279 76.3125 279 L 104.3125 279 "/><path d="M 0 303 L 72.3125 303 C 73.3125 303 74.3125 302 74.3125 301 L 74.3125 281 C 74.3125 280 75.3125 279 76.3125 279 L 104.3125 279 " class="clickable"/></g></g><g id="sprotty_ArchitectureBlockImpl$axi_slv/BPortImpl$wdata_to_ArchitectureBlockImpl$axi_slv/AlwaysBlockImpl$null30/GPortImpl$wdataIN" class="sprotty-edge thick edge" style="fill:none;stroke:rgb(112, 112, 112);stroke-linejoin:round;stroke-width:3px;"><g><path d="M 0 138 L 72.3125 138 C 73.3125 138 74.3125 139 74.3125 140 L 74.3125 247 C 74.3125 248 75.3125 249 76.3125 249 L 104.3125 249 "/><path d="M 0 138 L 72.3125 138 C 73.3125 138 74.3125 139 74.3125 140 L 74.3125 247 C 74.3125 248 75.3125 249 76.3125 249 L 104.3125 249 " class="clickable"/></g><circle r="3" id="sprotty_ArchitectureBlockImpl$axi_slv/BPortImpl$wdata_to_ArchitectureBlockImpl$axi_slv/AlwaysBlockImpl$null30/GPortImpl$wdataIN/junction0" transform="translate(74.3125, 138)" class="sprotty-junction thick" style="fill:rgb(112, 112, 112);stroke:none;"/></g><g id="sprotty_ArchitectureBlockImpl$axi_slv/AlwaysBlockImpl$null30/GPortImpl$memdataOUT_to_ArchitectureBlockImpl$axi_slv/AlwaysBlockImpl$null31/GPortImpl$memdataIN" class="sprotty-edge thick edge" style="fill:none;stroke:rgb(112, 112, 112);stroke-linejoin:round;stroke-width:3px;"><g><path d="M 141.703125 285.6666666666667 L 159.703125 285.6666666666667 C 160.703125 285.6666666666667 161.703125 284.6666666666667 161.703125 283.6666666666667 L 161.703125 232 C 161.703125 231 162.703125 230 163.703125 230 L 191.703125 230 "/><path d="M 141.703125 285.6666666666667 L 159.703125 285.6666666666667 C 160.703125 285.6666666666667 161.703125 284.6666666666667 161.703125 283.6666666666667 L 161.703125 232 C 161.703125 231 162.703125 230 163.703125 230 L 191.703125 230 " class="clickable"/></g></g><g id="sprotty_ArchitectureBlockImpl$axi_slv/AlwaysBlockImpl$null30" class="statement" transform="translate(104.3125, 239)"><rect x="0" y="0" rx="10" ry="5" width="37.390625" height="70" class="sprotty-node" style="fill:rgb(245, 245, 245);stroke:rgb(112, 112, 112);"/><text class="clickable sprotty-label statementtype" id="sprotty_ArchitectureBlockImpl$axi_slv/AlwaysBlockImpl$null30/labeltype" transform="translate(5, 29) translate(13.671875, 9)" style="cursor:default;font-size:8px;font-weight:700;perspective-origin:0.0078125px 0px;fill:rgb(112, 112, 112);text-anchor:middle;">always</text><g id="sprotty_ArchitectureBlockImpl$axi_slv/AlwaysBlockImpl$null30/GPortImpl$wdataIN" class="sprotty-hidden hidden" transform="translate(0, 10)" style="display:block;height:0px;width:0px;"/><g id="sprotty_ArchitectureBlockImpl$axi_slv/AlwaysBlockImpl$null30/GPortImpl$wstrbIN" class="sprotty-hidden hidden" transform="translate(0, 40)" style="display:block;height:0px;width:0px;"/><g id="sprotty_ArchitectureBlockImpl$axi_slv/AlwaysBlockImpl$null30/GPortImpl$awvalidIN" class="sprotty-hidden hidden" transform="translate(0, 20)" style="display:block;height:0px;width:0px;"/><g id="sprotty_ArchitectureBlockImpl$axi_slv/AlwaysBlockImpl$null30/GPortImpl$araddrIN" class="sprotty-hidden hidden" transform="translate(0, 30)" style="display:block;height:0px;width:0px;"/><g id="sprotty_ArchitectureBlockImpl$axi_slv/AlwaysBlockImpl$null30/GPortImpl$arvalidIN" class="sprotty-hidden hidden" transform="translate(0, 50)" style="display:block;height:0px;width:0px;"/><g id="sprotty_ArchitectureBlockImpl$axi_slv/AlwaysBlockImpl$null30/GPortImpl$aclkIN" class="sprotty-hidden hidden" transform="translate(0, 60)" style="display:block;height:0px;width:0px;"/><g id="sprotty_ArchitectureBlockImpl$axi_slv/AlwaysBlockImpl$null30/GPortImpl$memdataOUT" class="sprotty-hidden hidden" transform="translate(37.390625, 46.66666666666667)" style="display:block;height:0px;width:0px;"/><g id="sprotty_ArchitectureBlockImpl$axi_slv/AlwaysBlockImpl$null30/GPortImpl$awaddrOUT" class="sprotty-hidden hidden" transform="translate(37.390625, 23.333333333333336)" style="display:block;height:0px;width:0px;"/></g><g id="sprotty_ArchitectureBlockImpl$axi_slv/AlwaysBlockImpl$null31" class="statement" transform="translate(191.703125, 180)"><rect x="0" y="0" rx="10" ry="5" width="37.390625" height="80" class="sprotty-node" style="fill:rgb(245, 245, 245);stroke:rgb(112, 112, 112);"/><text class="clickable sprotty-label statementtype" id="sprotty_ArchitectureBlockImpl$axi_slv/AlwaysBlockImpl$null31/labeltype" transform="translate(5, 34) translate(13.671875, 9)" style="cursor:default;font-size:8px;font-weight:700;perspective-origin:0.0078125px 0px;fill:rgb(112, 112, 112);text-anchor:middle;">always</text><g id="sprotty_ArchitectureBlockImpl$axi_slv/AlwaysBlockImpl$null31/GPortImpl$memdataIN" class="sprotty-hidden hidden" transform="translate(0, 50)" style="display:block;height:0px;width:0px;"/><g id="sprotty_ArchitectureBlockImpl$axi_slv/AlwaysBlockImpl$null31/GPortImpl$awvalidIN" class="sprotty-hidden hidden" transform="translate(0, 40)" style="display:block;height:0px;width:0px;"/><g id="sprotty_ArchitectureBlockImpl$axi_slv/AlwaysBlockImpl$null31/GPortImpl$arvalidIN" class="sprotty-hidden hidden" transform="translate(0, 60)" style="display:block;height:0px;width:0px;"/><g id="sprotty_ArchitectureBlockImpl$axi_slv/AlwaysBlockImpl$null31/GPortImpl$aridIN" class="sprotty-hidden hidden" transform="translate(0, 10)" style="display:block;height:0px;width:0px;"/><g id="sprotty_ArchitectureBlockImpl$axi_slv/AlwaysBlockImpl$null31/GPortImpl$awidIN" class="sprotty-hidden hidden" transform="translate(0, 20)" style="display:block;height:0px;width:0px;"/><g id="sprotty_ArchitectureBlockImpl$axi_slv/AlwaysBlockImpl$null31/GPortImpl$rst_lIN" class="sprotty-hidden hidden" transform="translate(0, 30)" style="display:block;height:0px;width:0px;"/><g id="sprotty_ArchitectureBlockImpl$axi_slv/AlwaysBlockImpl$null31/GPortImpl$aclkIN" class="sprotty-hidden hidden" transform="translate(0, 70)" style="display:block;height:0px;width:0px;"/><g id="sprotty_ArchitectureBlockImpl$axi_slv/AlwaysBlockImpl$null31/GPortImpl$rvalidOUT" class="sprotty-hidden hidden" transform="translate(37.390625, 26.666666666666668)" style="display:block;height:0px;width:0px;"/><g id="sprotty_ArchitectureBlockImpl$axi_slv/AlwaysBlockImpl$null31/GPortImpl$bvalidOUT" class="sprotty-hidden hidden" transform="translate(37.390625, 53.333333333333336)" style="display:block;height:0px;width:0px;"/><g id="sprotty_ArchitectureBlockImpl$axi_slv/AlwaysBlockImpl$null31/GPortImpl$bidOUT" class="sprotty-hidden hidden" transform="translate(37.390625, 66.66666666666667)" style="display:block;height:0px;width:0px;"/><g id="sprotty_ArchitectureBlockImpl$axi_slv/AlwaysBlockImpl$null31/GPortImpl$ridOUT" class="sprotty-hidden hidden" transform="translate(37.390625, 13.333333333333334)" style="display:block;height:0px;width:0px;"/><g id="sprotty_ArchitectureBlockImpl$axi_slv/AlwaysBlockImpl$null31/GPortImpl$rdataOUT" class="sprotty-hidden hidden" transform="translate(37.390625, 40)" style="display:block;height:0px;width:0px;"/></g><g id="sprotty_ArchitectureBlockImpl$axi_slv/AssignmentBlockImpl$rlast" class="statement" transform="translate(86.59375, 525)"><rect x="0" y="0" rx="10" ry="5" width="19.4375" height="22" class="sprotty-node" style="fill:rgb(245, 245, 245);stroke:rgb(112, 112, 112);"/><text class="clickable sprotty-label statementtype" id="sprotty_ArchitectureBlockImpl$axi_slv/AssignmentBlockImpl$rlast/labeltype" transform="translate(5, 5) translate(4.71875, 9)" style="cursor:default;font-size:8px;font-weight:700;perspective-origin:0px 0px;fill:rgb(112, 112, 112);text-anchor:middle;">&lt;=</text><g id="sprotty_ArchitectureBlockImpl$axi_slv/AssignmentBlockImpl$rlast/GPortImpl$rlastOUT" class="sprotty-hidden hidden" transform="translate(19.4375, 11)" style="display:block;height:0px;width:0px;"/></g><g id="sprotty_ArchitectureBlockImpl$axi_slv/AssignmentBlockImpl$bresp" class="statement" transform="translate(86.59375, 690)"><rect x="0" y="0" rx="10" ry="5" width="19.4375" height="22" class="sprotty-node" style="fill:rgb(245, 245, 245);stroke:rgb(112, 112, 112);"/><text class="clickable sprotty-label statementtype" id="sprotty_ArchitectureBlockImpl$axi_slv/AssignmentBlockImpl$bresp/labeltype" transform="translate(5, 5) translate(4.71875, 9)" style="cursor:default;font-size:8px;font-weight:700;perspective-origin:0px 0px;fill:rgb(112, 112, 112);text-anchor:middle;">&lt;=</text><g id="sprotty_ArchitectureBlockImpl$axi_slv/AssignmentBlockImpl$bresp/GPortImpl$brespOUT" class="sprotty-hidden hidden" transform="translate(19.4375, 11)" style="display:block;height:0px;width:0px;"/></g><g id="sprotty_ArchitectureBlockImpl$axi_slv/AssignmentBlockImpl$rresp" class="statement" transform="translate(86.59375, 470)"><rect x="0" y="0" rx="10" ry="5" width="19.4375" height="22" class="sprotty-node" style="fill:rgb(245, 245, 245);stroke:rgb(112, 112, 112);"/><text class="clickable sprotty-label statementtype" id="sprotty_ArchitectureBlockImpl$axi_slv/AssignmentBlockImpl$rresp/labeltype" transform="translate(5, 5) translate(4.71875, 9)" style="cursor:default;font-size:8px;font-weight:700;perspective-origin:0px 0px;fill:rgb(112, 112, 112);text-anchor:middle;">&lt;=</text><g id="sprotty_ArchitectureBlockImpl$axi_slv/AssignmentBlockImpl$rresp/GPortImpl$rrespOUT" class="sprotty-hidden hidden" transform="translate(19.4375, 11)" style="display:block;height:0px;width:0px;"/></g><g id="sprotty_ArchitectureBlockImpl$axi_slv/AssignmentBlockImpl$wready" class="statement" transform="translate(86.59375, 635)"><rect x="0" y="0" rx="10" ry="5" width="19.4375" height="22" class="sprotty-node" style="fill:rgb(245, 245, 245);stroke:rgb(112, 112, 112);"/><text class="clickable sprotty-label statementtype" id="sprotty_ArchitectureBlockImpl$axi_slv/AssignmentBlockImpl$wready/labeltype" transform="translate(5, 5) translate(4.71875, 9)" style="cursor:default;font-size:8px;font-weight:700;perspective-origin:0px 0px;fill:rgb(112, 112, 112);text-anchor:middle;">&lt;=</text><g id="sprotty_ArchitectureBlockImpl$axi_slv/AssignmentBlockImpl$wready/GPortImpl$wreadyOUT" class="sprotty-hidden hidden" transform="translate(19.4375, 11)" style="display:block;height:0px;width:0px;"/></g><g id="sprotty_ArchitectureBlockImpl$axi_slv/AssignmentBlockImpl$awready" class="statement" transform="translate(86.59375, 580)"><rect x="0" y="0" rx="10" ry="5" width="19.4375" height="22" class="sprotty-node" style="fill:rgb(245, 245, 245);stroke:rgb(112, 112, 112);"/><text class="clickable sprotty-label statementtype" id="sprotty_ArchitectureBlockImpl$axi_slv/AssignmentBlockImpl$awready/labeltype" transform="translate(5, 5) translate(4.71875, 9)" style="cursor:default;font-size:8px;font-weight:700;perspective-origin:0px 0px;fill:rgb(112, 112, 112);text-anchor:middle;">&lt;=</text><g id="sprotty_ArchitectureBlockImpl$axi_slv/AssignmentBlockImpl$awready/GPortImpl$awreadyOUT" class="sprotty-hidden hidden" transform="translate(19.4375, 11)" style="display:block;height:0px;width:0px;"/></g><g id="sprotty_ArchitectureBlockImpl$axi_slv/AssignmentBlockImpl$arready" class="statement" transform="translate(86.59375, 415)"><rect x="0" y="0" rx="10" ry="5" width="19.4375" height="22" class="sprotty-node" style="fill:rgb(245, 245, 245);stroke:rgb(112, 112, 112);"/><text class="clickable sprotty-label statementtype" id="sprotty_ArchitectureBlockImpl$axi_slv/AssignmentBlockImpl$arready/labeltype" transform="translate(5, 5) translate(4.71875, 9)" style="cursor:default;font-size:8px;font-weight:700;perspective-origin:0px 0px;fill:rgb(112, 112, 112);text-anchor:middle;">&lt;=</text><g id="sprotty_ArchitectureBlockImpl$axi_slv/AssignmentBlockImpl$arready/GPortImpl$arreadyOUT" class="sprotty-hidden hidden" transform="translate(19.4375, 11)" style="display:block;height:0px;width:0px;"/></g><g id="sprotty_ArchitectureBlockImpl$axi_slv/AssignmentBlockImpl$WriteData" class="statement" transform="translate(104.3125, 127)"><rect x="0" y="0" rx="10" ry="5" width="19.4375" height="22" class="sprotty-node" style="fill:rgb(245, 245, 245);stroke:rgb(112, 112, 112);"/><text class="clickable sprotty-label statementtype" id="sprotty_ArchitectureBlockImpl$axi_slv/AssignmentBlockImpl$WriteData/labeltype" transform="translate(5, 5) translate(4.71875, 9)" style="cursor:default;font-size:8px;font-weight:700;perspective-origin:0px 0px;fill:rgb(112, 112, 112);text-anchor:middle;">&lt;=</text><g id="sprotty_ArchitectureBlockImpl$axi_slv/AssignmentBlockImpl$WriteData/GPortImpl$wdataIN" class="sprotty-hidden hidden" transform="translate(0, 11)" style="display:block;height:0px;width:0px;"/></g><g id="sprotty_ArchitectureBlockImpl$axi_slv/AssignmentBlockImpl$mailbox_write" class="statement" transform="translate(104.3125, 169)"><rect x="0" y="0" rx="10" ry="5" width="19.4375" height="40" class="sprotty-node" style="fill:rgb(245, 245, 245);stroke:rgb(112, 112, 112);"/><text class="clickable sprotty-label statementtype" id="sprotty_ArchitectureBlockImpl$axi_slv/AssignmentBlockImpl$mailbox_write/labeltype" transform="translate(5, 14) translate(4.71875, 9)" style="cursor:default;font-size:8px;font-weight:700;perspective-origin:0px 0px;fill:rgb(112, 112, 112);text-anchor:middle;">&lt;=</text><g id="sprotty_ArchitectureBlockImpl$axi_slv/AssignmentBlockImpl$mailbox_write/GPortImpl$rst_lIN" class="sprotty-hidden hidden" transform="translate(0, 10)" style="display:block;height:0px;width:0px;"/><g id="sprotty_ArchitectureBlockImpl$axi_slv/AssignmentBlockImpl$mailbox_write/GPortImpl$awaddrIN" class="sprotty-hidden hidden" transform="translate(0, 30)" style="display:block;height:0px;width:0px;"/><g id="sprotty_ArchitectureBlockImpl$axi_slv/AssignmentBlockImpl$mailbox_write/GPortImpl$awvalidIN" class="sprotty-hidden hidden" transform="translate(0, 20)" style="display:block;height:0px;width:0px;"/></g><g id="sprotty_ArchitectureBlockImpl$axi_slv/BPortImpl$bready" class="triangle" transform="translate(0, 415)"><path d="M 0,0 L 5,2.5 L 0,5 Z" transform="translate(-1.67, -2.5)" class="sprotty-port" style="fill:rgb(48, 48, 48);stroke:rgb(48, 48, 48);"/><text class="clickable sprotty-label port" id="sprotty_ArchitectureBlockImpl$axi_slv/BPortImpl$bready/label" transform="translate(6, 6) translate(19.4375, 14)" style="cursor:default;font-size:12px;perspective-origin:0.0625px 0px;fill:rgb(48, 48, 48);text-anchor:middle;">bready</text></g><g id="sprotty_ArchitectureBlockImpl$axi_slv/BPortImpl$wvalid" class="triangle" transform="translate(0, 459)"><path d="M 0,0 L 5,2.5 L 0,5 Z" transform="translate(-1.67, -2.5)" class="sprotty-port" style="fill:rgb(48, 48, 48);stroke:rgb(48, 48, 48);"/><text class="clickable sprotty-label port" id="sprotty_ArchitectureBlockImpl$axi_slv/BPortImpl$wvalid/label" transform="translate(6, 6) translate(18.28125, 14)" style="cursor:default;font-size:12px;perspective-origin:0px 0px;fill:rgb(48, 48, 48);text-anchor:middle;">wvalid</text></g><g id="sprotty_ArchitectureBlockImpl$axi_slv/BPortImpl$wstrb" class="triangle" transform="translate(0, 303)"><path d="M 0,0 L 5,2.5 L 0,5 Z" transform="translate(-1.67, -2.5)" class="sprotty-port" style="fill:rgb(48, 48, 48);stroke:rgb(48, 48, 48);"/><text class="clickable sprotty-label port" id="sprotty_ArchitectureBlockImpl$axi_slv/BPortImpl$wstrb/label" transform="translate(6, 6) translate(15.796875, 14)" style="cursor:default;font-size:12px;perspective-origin:0px 0px;fill:rgb(48, 48, 48);text-anchor:middle;">wstrb</text></g><g id="sprotty_ArchitectureBlockImpl$axi_slv/BPortImpl$wdata" class="triangle" transform="translate(0, 138)"><path d="M 0,0 L 5,2.5 L 0,5 Z" transform="translate(-1.67, -2.5)" class="sprotty-port" style="fill:rgb(48, 48, 48);stroke:rgb(48, 48, 48);"/><text class="clickable sprotty-label port" id="sprotty_ArchitectureBlockImpl$axi_slv/BPortImpl$wdata/label" transform="translate(6, 6) translate(17.3125, 14)" style="cursor:default;font-size:12px;perspective-origin:0px 0px;fill:rgb(48, 48, 48);text-anchor:middle;">wdata</text></g><g id="sprotty_ArchitectureBlockImpl$axi_slv/BPortImpl$awsize" class="triangle" transform="translate(0, 503)"><path d="M 0,0 L 5,2.5 L 0,5 Z" transform="translate(-1.67, -2.5)" class="sprotty-port" style="fill:rgb(48, 48, 48);stroke:rgb(48, 48, 48);"/><text class="clickable sprotty-label port" id="sprotty_ArchitectureBlockImpl$axi_slv/BPortImpl$awsize/label" transform="translate(6, 6) translate(18.765625, 14)" style="cursor:default;font-size:12px;perspective-origin:0px 0px;fill:rgb(48, 48, 48);text-anchor:middle;">awsize</text></g><g id="sprotty_ArchitectureBlockImpl$axi_slv/BPortImpl$awburst" class="triangle" transform="translate(0, 547)"><path d="M 0,0 L 5,2.5 L 0,5 Z" transform="translate(-1.67, -2.5)" class="sprotty-port" style="fill:rgb(48, 48, 48);stroke:rgb(48, 48, 48);"/><text class="clickable sprotty-label port" id="sprotty_ArchitectureBlockImpl$axi_slv/BPortImpl$awburst/label" transform="translate(6, 6) translate(22.796875, 14)" style="cursor:default;font-size:12px;perspective-origin:0px 0px;fill:rgb(48, 48, 48);text-anchor:middle;">awburst</text></g><g id="sprotty_ArchitectureBlockImpl$axi_slv/BPortImpl$awlen" class="triangle" transform="translate(0, 591)"><path d="M 0,0 L 5,2.5 L 0,5 Z" transform="translate(-1.67, -2.5)" class="sprotty-port" style="fill:rgb(48, 48, 48);stroke:rgb(48, 48, 48);"/><text class="clickable sprotty-label port" id="sprotty_ArchitectureBlockImpl$axi_slv/BPortImpl$awlen/label" transform="translate(6, 6) translate(16.90625, 14)" style="cursor:default;font-size:12px;perspective-origin:0px 0px;fill:rgb(48, 48, 48);text-anchor:middle;">awlen</text></g><g id="sprotty_ArchitectureBlockImpl$axi_slv/BPortImpl$awid" class="triangle" transform="translate(0, 70)"><path d="M 0,0 L 5,2.5 L 0,5 Z" transform="translate(-1.67, -2.5)" class="sprotty-port" style="fill:rgb(48, 48, 48);stroke:rgb(48, 48, 48);"/><text class="clickable sprotty-label port" id="sprotty_ArchitectureBlockImpl$axi_slv/BPortImpl$awid/label" transform="translate(6, 6) translate(13.578125, 14)" style="cursor:default;font-size:12px;perspective-origin:0px 0px;fill:rgb(48, 48, 48);text-anchor:middle;">awid</text></g><g id="sprotty_ArchitectureBlockImpl$axi_slv/BPortImpl$awaddr" class="triangle" transform="translate(0, 229)"><path d="M 0,0 L 5,2.5 L 0,5 Z" transform="translate(-1.67, -2.5)" class="sprotty-port" style="fill:rgb(48, 48, 48);stroke:rgb(48, 48, 48);"/><text class="clickable sprotty-label port" id="sprotty_ArchitectureBlockImpl$axi_slv/BPortImpl$awaddr/label" transform="translate(6, 6) translate(21.296875, 14)" style="cursor:default;font-size:12px;perspective-origin:0.0859375px 0px;fill:rgb(48, 48, 48);text-anchor:middle;">awaddr</text></g><g id="sprotty_ArchitectureBlockImpl$axi_slv/BPortImpl$awvalid" class="triangle" transform="translate(0, 189)"><path d="M 0,0 L 5,2.5 L 0,5 Z" transform="translate(-1.67, -2.5)" class="sprotty-port" style="fill:rgb(48, 48, 48);stroke:rgb(48, 48, 48);"/><text class="clickable sprotty-label port" id="sprotty_ArchitectureBlockImpl$axi_slv/BPortImpl$awvalid/label" transform="translate(6, 6) translate(21.65625, 14)" style="cursor:default;font-size:12px;perspective-origin:0px 0px;fill:rgb(48, 48, 48);text-anchor:middle;">awvalid</text></g><g id="sprotty_ArchitectureBlockImpl$axi_slv/BPortImpl$rready" class="triangle" transform="translate(0, 635)"><path d="M 0,0 L 5,2.5 L 0,5 Z" transform="translate(-1.67, -2.5)" class="sprotty-port" style="fill:rgb(48, 48, 48);stroke:rgb(48, 48, 48);"/><text class="clickable sprotty-label port" id="sprotty_ArchitectureBlockImpl$axi_slv/BPortImpl$rready/label" transform="translate(6, 6) translate(18.0625, 14)" style="cursor:default;font-size:12px;perspective-origin:0.0546875px 0px;fill:rgb(48, 48, 48);text-anchor:middle;">rready</text></g><g id="sprotty_ArchitectureBlockImpl$axi_slv/BPortImpl$arsize" class="triangle" transform="translate(0, 679)"><path d="M 0,0 L 5,2.5 L 0,5 Z" transform="translate(-1.67, -2.5)" class="sprotty-port" style="fill:rgb(48, 48, 48);stroke:rgb(48, 48, 48);"/><text class="clickable sprotty-label port" id="sprotty_ArchitectureBlockImpl$axi_slv/BPortImpl$arsize/label" transform="translate(6, 6) translate(16.25, 14)" style="cursor:default;font-size:12px;perspective-origin:0px 0px;fill:rgb(48, 48, 48);text-anchor:middle;">arsize</text></g><g id="sprotty_ArchitectureBlockImpl$axi_slv/BPortImpl$arburst" class="triangle" transform="translate(0, 723)"><path d="M 0,0 L 5,2.5 L 0,5 Z" transform="translate(-1.67, -2.5)" class="sprotty-port" style="fill:rgb(48, 48, 48);stroke:rgb(48, 48, 48);"/><text class="clickable sprotty-label port" id="sprotty_ArchitectureBlockImpl$axi_slv/BPortImpl$arburst/label" transform="translate(6, 6) translate(20.3125, 14)" style="cursor:default;font-size:12px;perspective-origin:0px 0px;fill:rgb(48, 48, 48);text-anchor:middle;">arburst</text></g><g id="sprotty_ArchitectureBlockImpl$axi_slv/BPortImpl$arlen" class="triangle" transform="translate(0, 767)"><path d="M 0,0 L 5,2.5 L 0,5 Z" transform="translate(-1.67, -2.5)" class="sprotty-port" style="fill:rgb(48, 48, 48);stroke:rgb(48, 48, 48);"/><text class="clickable sprotty-label port" id="sprotty_ArchitectureBlockImpl$axi_slv/BPortImpl$arlen/label" transform="translate(6, 6) translate(14.421875, 14)" style="cursor:default;font-size:12px;perspective-origin:0px 0px;fill:rgb(48, 48, 48);text-anchor:middle;">arlen</text></g><g id="sprotty_ArchitectureBlockImpl$axi_slv/BPortImpl$arid" class="triangle" transform="translate(0, 36)"><path d="M 0,0 L 5,2.5 L 0,5 Z" transform="translate(-1.67, -2.5)" class="sprotty-port" style="fill:rgb(48, 48, 48);stroke:rgb(48, 48, 48);"/><text class="clickable sprotty-label port" id="sprotty_ArchitectureBlockImpl$axi_slv/BPortImpl$arid/label" transform="translate(6, 6) translate(11.09375, 14)" style="cursor:default;font-size:12px;perspective-origin:0px 0px;fill:rgb(48, 48, 48);text-anchor:middle;">arid</text></g><g id="sprotty_ArchitectureBlockImpl$axi_slv/BPortImpl$araddr" class="triangle" transform="translate(0, 269)"><path d="M 0,0 L 5,2.5 L 0,5 Z" transform="translate(-1.67, -2.5)" class="sprotty-port" style="fill:rgb(48, 48, 48);stroke:rgb(48, 48, 48);"/><text class="clickable sprotty-label port" id="sprotty_ArchitectureBlockImpl$axi_slv/BPortImpl$araddr/label" transform="translate(6, 6) translate(18.703125, 14)" style="cursor:default;font-size:12px;perspective-origin:0.0859375px 0px;fill:rgb(48, 48, 48);text-anchor:middle;">araddr</text></g><g id="sprotty_ArchitectureBlockImpl$axi_slv/BPortImpl$arvalid" class="triangle" transform="translate(0, 337)"><path d="M 0,0 L 5,2.5 L 0,5 Z" transform="translate(-1.67, -2.5)" class="sprotty-port" style="fill:rgb(48, 48, 48);stroke:rgb(48, 48, 48);"/><text class="clickable sprotty-label port" id="sprotty_ArchitectureBlockImpl$axi_slv/BPortImpl$arvalid/label" transform="translate(6, 6) translate(19.359375, 14)" style="cursor:default;font-size:12px;perspective-origin:0px 0px;fill:rgb(48, 48, 48);text-anchor:middle;">arvalid</text></g><g id="sprotty_ArchitectureBlockImpl$axi_slv/BPortImpl$rst_l" class="triangle" transform="translate(0, 104)"><path d="M 0,0 L 5,2.5 L 0,5 Z" transform="translate(-1.67, -2.5)" class="sprotty-port" style="fill:rgb(48, 48, 48);stroke:rgb(48, 48, 48);"/><text class="clickable sprotty-label port" id="sprotty_ArchitectureBlockImpl$axi_slv/BPortImpl$rst_l/label" transform="translate(6, 6) translate(12.3125, 14)" style="cursor:default;font-size:12px;perspective-origin:0px 0px;fill:rgb(48, 48, 48);text-anchor:middle;">rst_l</text></g><g id="sprotty_ArchitectureBlockImpl$axi_slv/BPortImpl$aclk" class="triangle" transform="translate(0, 371)"><path d="M 0,0 L 5,2.5 L 0,5 Z" transform="translate(-1.67, -2.5)" class="sprotty-port" style="fill:rgb(48, 48, 48);stroke:rgb(48, 48, 48);"/><text class="clickable sprotty-label port" id="sprotty_ArchitectureBlockImpl$axi_slv/BPortImpl$aclk/label" transform="translate(6, 6) translate(11.46875, 14)" style="cursor:default;font-size:12px;perspective-origin:0.09375px 0px;fill:rgb(48, 48, 48);text-anchor:middle;">aclk</text></g><g id="sprotty_ArchitectureBlockImpl$axi_slv/BPortImpl$arready" class="triangle" transform="translate(334.40625, 426)"><path d="M 0,0 L 5,2.5 L 0,5 Z" transform="translate(-1.67, -2.5)" class="sprotty-port" style="fill:rgb(48, 48, 48);stroke:rgb(48, 48, 48);"/><text class="clickable sprotty-label port" id="sprotty_ArchitectureBlockImpl$axi_slv/BPortImpl$arready/label" transform="translate(-49.125, 6) translate(21.4375, 14)" style="cursor:default;font-size:12px;perspective-origin:0.0625px 0px;fill:rgb(48, 48, 48);text-anchor:middle;">arready</text></g><g id="sprotty_ArchitectureBlockImpl$axi_slv/BPortImpl$rvalid" class="triangle" transform="translate(334.40625, 227.33333333333334)"><path d="M 0,0 L 5,2.5 L 0,5 Z" transform="translate(-1.67, -2.5)" class="sprotty-port" style="fill:rgb(48, 48, 48);stroke:rgb(48, 48, 48);"/><text class="clickable sprotty-label port" id="sprotty_ArchitectureBlockImpl$axi_slv/BPortImpl$rvalid/label" transform="translate(-37.9375, 6) translate(15.96875, 14)" style="cursor:default;font-size:12px;perspective-origin:0px 0px;fill:rgb(48, 48, 48);text-anchor:middle;">rvalid</text></g><g id="sprotty_ArchitectureBlockImpl$axi_slv/BPortImpl$rdata" class="triangle" transform="translate(334.40625, 261.33333333333337)"><path d="M 0,0 L 5,2.5 L 0,5 Z" transform="translate(-1.67, -2.5)" class="sprotty-port" style="fill:rgb(48, 48, 48);stroke:rgb(48, 48, 48);"/><text class="clickable sprotty-label port" id="sprotty_ArchitectureBlockImpl$axi_slv/BPortImpl$rdata/label" transform="translate(-35.5625, 6) translate(14.78125, 14)" style="cursor:default;font-size:12px;perspective-origin:0px 0px;fill:rgb(48, 48, 48);text-anchor:middle;">rdata</text></g><g id="sprotty_ArchitectureBlockImpl$axi_slv/BPortImpl$rresp" class="triangle" transform="translate(334.40625, 481)"><path d="M 0,0 L 5,2.5 L 0,5 Z" transform="translate(-1.67, -2.5)" class="sprotty-port" style="fill:rgb(48, 48, 48);stroke:rgb(48, 48, 48);"/><text class="clickable sprotty-label port" id="sprotty_ArchitectureBlockImpl$axi_slv/BPortImpl$rresp/label" transform="translate(-34.90625, 6) translate(14.453125, 14)" style="cursor:default;font-size:12px;perspective-origin:0px 0px;fill:rgb(48, 48, 48);text-anchor:middle;">rresp</text></g><g id="sprotty_ArchitectureBlockImpl$axi_slv/BPortImpl$rid" class="triangle" transform="translate(334.40625, 193.33333333333334)"><path d="M 0,0 L 5,2.5 L 0,5 Z" transform="translate(-1.67, -2.5)" class="sprotty-port" style="fill:rgb(48, 48, 48);stroke:rgb(48, 48, 48);"/><text class="clickable sprotty-label port" id="sprotty_ArchitectureBlockImpl$axi_slv/BPortImpl$rid/label" transform="translate(-21.40625, 6) translate(7.703125, 14)" style="cursor:default;font-size:12px;perspective-origin:0px 0px;fill:rgb(48, 48, 48);text-anchor:middle;">rid</text></g><g id="sprotty_ArchitectureBlockImpl$axi_slv/BPortImpl$rlast" class="triangle" transform="translate(334.40625, 536)"><path d="M 0,0 L 5,2.5 L 0,5 Z" transform="translate(-1.67, -2.5)" class="sprotty-port" style="fill:rgb(48, 48, 48);stroke:rgb(48, 48, 48);"/><text class="clickable sprotty-label port" id="sprotty_ArchitectureBlockImpl$axi_slv/BPortImpl$rlast/label" transform="translate(-30.75, 6) translate(12.375, 14)" style="cursor:default;font-size:12px;perspective-origin:0px 0px;fill:rgb(48, 48, 48);text-anchor:middle;">rlast</text></g><g id="sprotty_ArchitectureBlockImpl$axi_slv/BPortImpl$awready" class="triangle" transform="translate(334.40625, 591)"><path d="M 0,0 L 5,2.5 L 0,5 Z" transform="translate(-1.67, -2.5)" class="sprotty-port" style="fill:rgb(48, 48, 48);stroke:rgb(48, 48, 48);"/><text class="clickable sprotty-label port" id="sprotty_ArchitectureBlockImpl$axi_slv/BPortImpl$awready/label" transform="translate(-54.09375, 6) translate(23.921875, 14)" style="cursor:default;font-size:12px;perspective-origin:0.0625px 0px;fill:rgb(48, 48, 48);text-anchor:middle;">awready</text></g><g id="sprotty_ArchitectureBlockImpl$axi_slv/BPortImpl$wready" class="triangle" transform="translate(334.40625, 646)"><path d="M 0,0 L 5,2.5 L 0,5 Z" transform="translate(-1.67, -2.5)" class="sprotty-port" style="fill:rgb(48, 48, 48);stroke:rgb(48, 48, 48);"/><text class="clickable sprotty-label port" id="sprotty_ArchitectureBlockImpl$axi_slv/BPortImpl$wready/label" transform="translate(-47.328125, 6) translate(20.546875, 14)" style="cursor:default;font-size:12px;perspective-origin:0.0546875px 0px;fill:rgb(48, 48, 48);text-anchor:middle;">wready</text></g><g id="sprotty_ArchitectureBlockImpl$axi_slv/BPortImpl$bvalid" class="triangle" transform="translate(334.40625, 295.33333333333337)"><path d="M 0,0 L 5,2.5 L 0,5 Z" transform="translate(-1.67, -2.5)" class="sprotty-port" style="fill:rgb(48, 48, 48);stroke:rgb(48, 48, 48);"/><text class="clickable sprotty-label port" id="sprotty_ArchitectureBlockImpl$axi_slv/BPortImpl$bvalid/label" transform="translate(-40.3125, 6) translate(17.15625, 14)" style="cursor:default;font-size:12px;perspective-origin:0px 0px;fill:rgb(48, 48, 48);text-anchor:middle;">bvalid</text></g><g id="sprotty_ArchitectureBlockImpl$axi_slv/BPortImpl$bresp" class="triangle" transform="translate(334.40625, 701)"><path d="M 0,0 L 5,2.5 L 0,5 Z" transform="translate(-1.67, -2.5)" class="sprotty-port" style="fill:rgb(48, 48, 48);stroke:rgb(48, 48, 48);"/><text class="clickable sprotty-label port" id="sprotty_ArchitectureBlockImpl$axi_slv/BPortImpl$bresp/label" transform="translate(-37.65625, 6) translate(15.828125, 14)" style="cursor:default;font-size:12px;perspective-origin:0px 0px;fill:rgb(48, 48, 48);text-anchor:middle;">bresp</text></g><g id="sprotty_ArchitectureBlockImpl$axi_slv/BPortImpl$bid" class="triangle" transform="translate(334.40625, 329.33333333333337)"><path d="M 0,0 L 5,2.5 L 0,5 Z" transform="translate(-1.67, -2.5)" class="sprotty-port" style="fill:rgb(48, 48, 48);stroke:rgb(48, 48, 48);"/><text class="clickable sprotty-label port" id="sprotty_ArchitectureBlockImpl$axi_slv/BPortImpl$bid/label" transform="translate(-24.15625, 6) translate(9.078125, 14)" style="cursor:default;font-size:12px;perspective-origin:0px 0px;fill:rgb(48, 48, 48);text-anchor:middle;">bid</text></g></g></g></svg>