<svg xmlns="http://www.w3.org/2000/svg" id="sprotty_work.ram_be_2048x272" class="sprotty-graph sprotty-block-diagram blockdiagram" style="font-family:&quot;Noto Sans&quot;, Helvetica, Arial, sans-serif;perspective-origin:0px 0px;transform-origin:0px 0px;" version="1.1" viewBox="7 7 200.859375 650" width="200.859375" height="650"><g transform="scale(1) translate(0,0)"><g id="sprotty_ArchitectureBlockImpl$ram_be_2048x272" class="architecture" transform="translate(12, 12)"><g class="sprotty-block" style="fill:rgb(255, 255, 255);stroke:rgb(48, 48, 48);stroke-dasharray:0px;"><rect x="0" y="0" rx="1" ry="1" width="190.859375" height="640"/><text x="95.4296875" y="12" class="sprotty-block-name" style="cursor:pointer;font-weight:700;perspective-origin:47.7109px 0px;fill:rgb(48, 48, 48);stroke:rgba(0, 0, 0, 0);dominant-baseline:middle;text-anchor:middle;">ram_be_2048x272</text><line x1="0" y1="20" x2="190.859375" y2="20"/></g><g id="sprotty_ArchitectureBlockImpl$ram_be_2048x272/AlwaysBlockImpl$null17/GPortImpl$ADROUT_to_ArchitectureBlockImpl$ram_be_2048x272/BPortImpl$ADR" class="sprotty-edge thick edge" style="fill:none;stroke:rgb(112, 112, 112);stroke-linejoin:round;stroke-width:3px;"><g><path d="M 125.734375 96.33333333333334 L 133.734375 96.33333333333334 C 134.734375 96.33333333333334 135.734375 95.33333333333334 135.734375 94.33333333333334 L 135.734375 37 C 135.734375 36 134.734375 35 133.734375 35 L 0 35 "/><path d="M 125.734375 96.33333333333334 L 133.734375 96.33333333333334 C 134.734375 96.33333333333334 135.734375 95.33333333333334 135.734375 94.33333333333334 L 135.734375 37 C 135.734375 36 134.734375 35 133.734375 35 L 0 35 " class="clickable"/></g></g><g id="sprotty_ArchitectureBlockImpl$ram_be_2048x272/AlwaysBlockImpl$null17/GPortImpl$QOUT_to_ArchitectureBlockImpl$ram_be_2048x272/BPortImpl$Q" class="sprotty-edge thick edge" style="fill:none;stroke:rgb(112, 112, 112);stroke-linejoin:round;stroke-width:3px;"><g><path d="M 125.734375 119.66666666666667 L 190.859375 119.66666666666667 "/><path d="M 125.734375 119.66666666666667 L 190.859375 119.66666666666667 " class="clickable"/></g></g><g id="sprotty_ArchitectureBlockImpl$ram_be_2048x272/AssignmentBlockImpl$ROP/GPortImpl$ROPOUT_to_ArchitectureBlockImpl$ram_be_2048x272/BPortImpl$ROP" class="sprotty-edge edge" style="fill:none;stroke:rgb(112, 112, 112);stroke-linejoin:round;"><g><path d="M 116.7578125 205 L 190.859375 205 "/><path d="M 116.7578125 205 L 190.859375 205 " class="clickable"/></g></g><g id="sprotty_ArchitectureBlockImpl$ram_be_2048x272/BPortImpl$ME_to_ArchitectureBlockImpl$ram_be_2048x272/AssignmentBlockImpl$ROP/GPortImpl$MEIN" class="sprotty-edge edge" style="fill:none;stroke:rgb(112, 112, 112);stroke-linejoin:round;"><g><path d="M 0 205 L 97.3203125 205 "/><path d="M 0 205 L 97.3203125 205 " class="clickable"/></g></g><g id="sprotty_ArchitectureBlockImpl$ram_be_2048x272/BPortImpl$CLK_to_ArchitectureBlockImpl$ram_be_2048x272/AlwaysBlockImpl$null17/GPortImpl$CLKIN" class="sprotty-edge edge" style="fill:none;stroke:rgb(112, 112, 112);stroke-linejoin:round;"><g><path d="M 0 137 L 56.34375 137 C 57.34375 137 58.34375 136 58.34375 135 L 58.34375 115 C 58.34375 114 59.34375 113 60.34375 113 L 88.34375 113 "/><path d="M 0 137 L 56.34375 137 C 57.34375 137 58.34375 136 58.34375 135 L 58.34375 115 C 58.34375 114 59.34375 113 60.34375 113 L 88.34375 113 " class="clickable"/></g></g><g id="sprotty_ArchitectureBlockImpl$ram_be_2048x272/BPortImpl$ME_to_ArchitectureBlockImpl$ram_be_2048x272/AlwaysBlockImpl$null17/GPortImpl$MEIN" class="sprotty-edge edge" style="fill:none;stroke:rgb(112, 112, 112);stroke-linejoin:round;"><g><path d="M 0 205 L 76.34375 205 C 77.34375 205 78.34375 204 78.34375 203 L 78.34375 135 C 78.34375 134 79.34375 133 80.34375 133 L 88.34375 133 "/><path d="M 0 205 L 76.34375 205 C 77.34375 205 78.34375 204 78.34375 203 L 78.34375 135 C 78.34375 134 79.34375 133 80.34375 133 L 88.34375 133 " class="clickable"/></g><circle r="2" id="sprotty_ArchitectureBlockImpl$ram_be_2048x272/BPortImpl$ME_to_ArchitectureBlockImpl$ram_be_2048x272/AlwaysBlockImpl$null17/GPortImpl$MEIN/junction0" transform="translate(78.34375, 205)" class="sprotty-junction junction" style="fill:rgb(112, 112, 112);stroke:none;"/></g><g id="sprotty_ArchitectureBlockImpl$ram_be_2048x272/BPortImpl$WE_to_ArchitectureBlockImpl$ram_be_2048x272/AlwaysBlockImpl$null17/GPortImpl$WEIN" class="sprotty-edge edge" style="fill:none;stroke:rgb(112, 112, 112);stroke-linejoin:round;"><g><path d="M 0 103 L 88.34375 103 "/><path d="M 0 103 L 88.34375 103 " class="clickable"/></g></g><g id="sprotty_ArchitectureBlockImpl$ram_be_2048x272/BPortImpl$D_to_ArchitectureBlockImpl$ram_be_2048x272/AlwaysBlockImpl$null17/GPortImpl$DIN" class="sprotty-edge thick edge" style="fill:none;stroke:rgb(112, 112, 112);stroke-linejoin:round;stroke-width:3px;"><g><path d="M 0 171 L 66.34375 171 C 67.34375 171 68.34375 170 68.34375 169 L 68.34375 125 C 68.34375 124 69.34375 123 70.34375 123 L 88.34375 123 "/><path d="M 0 171 L 66.34375 171 C 67.34375 171 68.34375 170 68.34375 169 L 68.34375 125 C 68.34375 124 69.34375 123 70.34375 123 L 88.34375 123 " class="clickable"/></g></g><g id="sprotty_ArchitectureBlockImpl$ram_be_2048x272/BPortImpl$WEM_to_ArchitectureBlockImpl$ram_be_2048x272/AlwaysBlockImpl$null17/GPortImpl$WEMIN" class="sprotty-edge thick edge" style="fill:none;stroke:rgb(112, 112, 112);stroke-linejoin:round;stroke-width:3px;"><g><path d="M 0 69 L 56.34375 69 C 57.34375 69 58.34375 70 58.34375 71 L 58.34375 91 C 58.34375 92 59.34375 93 60.34375 93 L 88.34375 93 "/><path d="M 0 69 L 56.34375 69 C 57.34375 69 58.34375 70 58.34375 71 L 58.34375 91 C 58.34375 92 59.34375 93 60.34375 93 L 88.34375 93 " class="clickable"/></g></g><g id="sprotty_ArchitectureBlockImpl$ram_be_2048x272/BPortImpl$ADR_to_ArchitectureBlockImpl$ram_be_2048x272/AlwaysBlockImpl$null17/GPortImpl$ADRIN" class="sprotty-edge thick edge" style="fill:none;stroke:rgb(112, 112, 112);stroke-linejoin:round;stroke-width:3px;"><g><path d="M 0 35 L 66.34375 35 C 67.34375 35 68.34375 36 68.34375 37 L 68.34375 81 C 68.34375 82 69.34375 83 70.34375 83 L 88.34375 83 "/><path d="M 0 35 L 66.34375 35 C 67.34375 35 68.34375 36 68.34375 37 L 68.34375 81 C 68.34375 82 69.34375 83 70.34375 83 L 88.34375 83 " class="clickable"/></g><circle r="3" id="sprotty_ArchitectureBlockImpl$ram_be_2048x272/BPortImpl$ADR_to_ArchitectureBlockImpl$ram_be_2048x272/AlwaysBlockImpl$null17/GPortImpl$ADRIN/junction0" transform="translate(68.34375, 35)" class="sprotty-junction thick" style="fill:rgb(112, 112, 112);stroke:none;"/></g><g id="sprotty_ArchitectureBlockImpl$ram_be_2048x272/AlwaysBlockImpl$null17" class="statement" transform="translate(88.34375, 73)"><rect x="0" y="0" rx="10" ry="5" width="37.390625" height="70" class="sprotty-node" style="fill:rgb(245, 245, 245);stroke:rgb(112, 112, 112);"/><text class="clickable sprotty-label statementtype" id="sprotty_ArchitectureBlockImpl$ram_be_2048x272/AlwaysBlockImpl$null17/labeltype" transform="translate(5, 29) translate(13.671875, 9)" style="cursor:default;font-size:8px;font-weight:700;perspective-origin:0.0078125px 0px;fill:rgb(112, 112, 112);text-anchor:middle;">always</text><g id="sprotty_ArchitectureBlockImpl$ram_be_2048x272/AlwaysBlockImpl$null17/GPortImpl$ADRIN" class="sprotty-hidden hidden" transform="translate(0, 10)" style="display:block;height:0px;width:0px;"/><g id="sprotty_ArchitectureBlockImpl$ram_be_2048x272/AlwaysBlockImpl$null17/GPortImpl$WEMIN" class="sprotty-hidden hidden" transform="translate(0, 20)" style="display:block;height:0px;width:0px;"/><g id="sprotty_ArchitectureBlockImpl$ram_be_2048x272/AlwaysBlockImpl$null17/GPortImpl$DIN" class="sprotty-hidden hidden" transform="translate(0, 50)" style="display:block;height:0px;width:0px;"/><g id="sprotty_ArchitectureBlockImpl$ram_be_2048x272/AlwaysBlockImpl$null17/GPortImpl$WEIN" class="sprotty-hidden hidden" transform="translate(0, 30)" style="display:block;height:0px;width:0px;"/><g id="sprotty_ArchitectureBlockImpl$ram_be_2048x272/AlwaysBlockImpl$null17/GPortImpl$MEIN" class="sprotty-hidden hidden" transform="translate(0, 60)" style="display:block;height:0px;width:0px;"/><g id="sprotty_ArchitectureBlockImpl$ram_be_2048x272/AlwaysBlockImpl$null17/GPortImpl$CLKIN" class="sprotty-hidden hidden" transform="translate(0, 40)" style="display:block;height:0px;width:0px;"/><g id="sprotty_ArchitectureBlockImpl$ram_be_2048x272/AlwaysBlockImpl$null17/GPortImpl$ADROUT" class="sprotty-hidden hidden" transform="translate(37.390625, 23.333333333333336)" style="display:block;height:0px;width:0px;"/><g id="sprotty_ArchitectureBlockImpl$ram_be_2048x272/AlwaysBlockImpl$null17/GPortImpl$QOUT" class="sprotty-hidden hidden" transform="translate(37.390625, 46.66666666666667)" style="display:block;height:0px;width:0px;"/></g><g id="sprotty_ArchitectureBlockImpl$ram_be_2048x272/AssignmentBlockImpl$ROP" class="statement" transform="translate(97.3203125, 194)"><rect x="0" y="0" rx="10" ry="5" width="19.4375" height="22" class="sprotty-node" style="fill:rgb(245, 245, 245);stroke:rgb(112, 112, 112);"/><text class="clickable sprotty-label statementtype" id="sprotty_ArchitectureBlockImpl$ram_be_2048x272/AssignmentBlockImpl$ROP/labeltype" transform="translate(5, 5) translate(4.71875, 9)" style="cursor:default;font-size:8px;font-weight:700;perspective-origin:0px 0px;fill:rgb(112, 112, 112);text-anchor:middle;">&lt;=</text><g id="sprotty_ArchitectureBlockImpl$ram_be_2048x272/AssignmentBlockImpl$ROP/GPortImpl$MEIN" class="sprotty-hidden hidden" transform="translate(0, 11)" style="display:block;height:0px;width:0px;"/><g id="sprotty_ArchitectureBlockImpl$ram_be_2048x272/AssignmentBlockImpl$ROP/GPortImpl$ROPOUT" class="sprotty-hidden hidden" transform="translate(19.4375, 11)" style="display:block;height:0px;width:0px;"/></g><g id="sprotty_ArchitectureBlockImpl$ram_be_2048x272/BPortImpl$BC2" class="triangle" transform="translate(0, 249)"><path d="M 0,0 L 5,2.5 L 0,5 Z" transform="translate(-1.67, -2.5)" class="sprotty-port" style="fill:rgb(48, 48, 48);stroke:rgb(48, 48, 48);"/><text class="clickable sprotty-label port" id="sprotty_ArchitectureBlockImpl$ram_be_2048x272/BPortImpl$BC2/label" transform="translate(6, 6) translate(11.109375, 14)" style="cursor:default;font-size:12px;perspective-origin:0px 0px;fill:rgb(48, 48, 48);text-anchor:middle;">BC2</text></g><g id="sprotty_ArchitectureBlockImpl$ram_be_2048x272/BPortImpl$BC1" class="triangle" transform="translate(0, 293)"><path d="M 0,0 L 5,2.5 L 0,5 Z" transform="translate(-1.67, -2.5)" class="sprotty-port" style="fill:rgb(48, 48, 48);stroke:rgb(48, 48, 48);"/><text class="clickable sprotty-label port" id="sprotty_ArchitectureBlockImpl$ram_be_2048x272/BPortImpl$BC1/label" transform="translate(6, 6) translate(11.109375, 14)" style="cursor:default;font-size:12px;perspective-origin:0px 0px;fill:rgb(48, 48, 48);text-anchor:middle;">BC1</text></g><g id="sprotty_ArchitectureBlockImpl$ram_be_2048x272/BPortImpl$TEST_RNM" class="triangle" transform="translate(0, 337)"><path d="M 0,0 L 5,2.5 L 0,5 Z" transform="translate(-1.67, -2.5)" class="sprotty-port" style="fill:rgb(48, 48, 48);stroke:rgb(48, 48, 48);"/><text class="clickable sprotty-label port" id="sprotty_ArchitectureBlockImpl$ram_be_2048x272/BPortImpl$TEST_RNM/label" transform="translate(6, 6) translate(30.546875, 14)" style="cursor:default;font-size:12px;perspective-origin:0px 0px;fill:rgb(48, 48, 48);text-anchor:middle;">TEST_RNM</text></g><g id="sprotty_ArchitectureBlockImpl$ram_be_2048x272/BPortImpl$SD" class="triangle" transform="translate(0, 381)"><path d="M 0,0 L 5,2.5 L 0,5 Z" transform="translate(-1.67, -2.5)" class="sprotty-port" style="fill:rgb(48, 48, 48);stroke:rgb(48, 48, 48);"/><text class="clickable sprotty-label port" id="sprotty_ArchitectureBlockImpl$ram_be_2048x272/BPortImpl$SD/label" transform="translate(6, 6) translate(7.71875, 14)" style="cursor:default;font-size:12px;perspective-origin:0px 0px;fill:rgb(48, 48, 48);text-anchor:middle;">SD</text></g><g id="sprotty_ArchitectureBlockImpl$ram_be_2048x272/BPortImpl$DS" class="triangle" transform="translate(0, 425)"><path d="M 0,0 L 5,2.5 L 0,5 Z" transform="translate(-1.67, -2.5)" class="sprotty-port" style="fill:rgb(48, 48, 48);stroke:rgb(48, 48, 48);"/><text class="clickable sprotty-label port" id="sprotty_ArchitectureBlockImpl$ram_be_2048x272/BPortImpl$DS/label" transform="translate(6, 6) translate(7.71875, 14)" style="cursor:default;font-size:12px;perspective-origin:0px 0px;fill:rgb(48, 48, 48);text-anchor:middle;">DS</text></g><g id="sprotty_ArchitectureBlockImpl$ram_be_2048x272/BPortImpl$LS" class="triangle" transform="translate(0, 469)"><path d="M 0,0 L 5,2.5 L 0,5 Z" transform="translate(-1.67, -2.5)" class="sprotty-port" style="fill:rgb(48, 48, 48);stroke:rgb(48, 48, 48);"/><text class="clickable sprotty-label port" id="sprotty_ArchitectureBlockImpl$ram_be_2048x272/BPortImpl$LS/label" transform="translate(6, 6) translate(6.6875, 14)" style="cursor:default;font-size:12px;perspective-origin:0px 0px;fill:rgb(48, 48, 48);text-anchor:middle;">LS</text></g><g id="sprotty_ArchitectureBlockImpl$ram_be_2048x272/BPortImpl$RM" class="triangle" transform="translate(0, 513)"><path d="M 0,0 L 5,2.5 L 0,5 Z" transform="translate(-1.67, -2.5)" class="sprotty-port" style="fill:rgb(48, 48, 48);stroke:rgb(48, 48, 48);"/><text class="clickable sprotty-label port" id="sprotty_ArchitectureBlockImpl$ram_be_2048x272/BPortImpl$RM/label" transform="translate(6, 6) translate(8.6875, 14)" style="cursor:default;font-size:12px;perspective-origin:0px 0px;fill:rgb(48, 48, 48);text-anchor:middle;">RM</text></g><g id="sprotty_ArchitectureBlockImpl$ram_be_2048x272/BPortImpl$RME" class="triangle" transform="translate(0, 557)"><path d="M 0,0 L 5,2.5 L 0,5 Z" transform="translate(-1.67, -2.5)" class="sprotty-port" style="fill:rgb(48, 48, 48);stroke:rgb(48, 48, 48);"/><text class="clickable sprotty-label port" id="sprotty_ArchitectureBlockImpl$ram_be_2048x272/BPortImpl$RME/label" transform="translate(6, 6) translate(12.21875, 14)" style="cursor:default;font-size:12px;perspective-origin:0px 0px;fill:rgb(48, 48, 48);text-anchor:middle;">RME</text></g><g id="sprotty_ArchitectureBlockImpl$ram_be_2048x272/BPortImpl$TEST1" class="triangle" transform="translate(0, 601)"><path d="M 0,0 L 5,2.5 L 0,5 Z" transform="translate(-1.67, -2.5)" class="sprotty-port" style="fill:rgb(48, 48, 48);stroke:rgb(48, 48, 48);"/><text class="clickable sprotty-label port" id="sprotty_ArchitectureBlockImpl$ram_be_2048x272/BPortImpl$TEST1/label" transform="translate(6, 6) translate(17.5, 14)" style="cursor:default;font-size:12px;perspective-origin:0px 0px;fill:rgb(48, 48, 48);text-anchor:middle;">TEST1</text></g><g id="sprotty_ArchitectureBlockImpl$ram_be_2048x272/BPortImpl$CLK" class="triangle" transform="translate(0, 137)"><path d="M 0,0 L 5,2.5 L 0,5 Z" transform="translate(-1.67, -2.5)" class="sprotty-port" style="fill:rgb(48, 48, 48);stroke:rgb(48, 48, 48);"/><text class="clickable sprotty-label port" id="sprotty_ArchitectureBlockImpl$ram_be_2048x272/BPortImpl$CLK/label" transform="translate(6, 6) translate(10.96875, 14)" style="cursor:default;font-size:12px;perspective-origin:0.0625px 0px;fill:rgb(48, 48, 48);text-anchor:middle;">CLK</text></g><g id="sprotty_ArchitectureBlockImpl$ram_be_2048x272/BPortImpl$ME" class="triangle" transform="translate(0, 205)"><path d="M 0,0 L 5,2.5 L 0,5 Z" transform="translate(-1.67, -2.5)" class="sprotty-port" style="fill:rgb(48, 48, 48);stroke:rgb(48, 48, 48);"/><text class="clickable sprotty-label port" id="sprotty_ArchitectureBlockImpl$ram_be_2048x272/BPortImpl$ME/label" transform="translate(6, 6) translate(8.40625, 14)" style="cursor:default;font-size:12px;perspective-origin:0px 0px;fill:rgb(48, 48, 48);text-anchor:middle;">ME</text></g><g id="sprotty_ArchitectureBlockImpl$ram_be_2048x272/BPortImpl$WE" class="triangle" transform="translate(0, 103)"><path d="M 0,0 L 5,2.5 L 0,5 Z" transform="translate(-1.67, -2.5)" class="sprotty-port" style="fill:rgb(48, 48, 48);stroke:rgb(48, 48, 48);"/><text class="clickable sprotty-label port" id="sprotty_ArchitectureBlockImpl$ram_be_2048x272/BPortImpl$WE/label" transform="translate(6, 6) translate(8.796875, 14)" style="cursor:default;font-size:12px;perspective-origin:0px 0px;fill:rgb(48, 48, 48);text-anchor:middle;">WE</text></g><g id="sprotty_ArchitectureBlockImpl$ram_be_2048x272/BPortImpl$WEM" class="triangle" transform="translate(0, 69)"><path d="M 0,0 L 5,2.5 L 0,5 Z" transform="translate(-1.67, -2.5)" class="sprotty-port" style="fill:rgb(48, 48, 48);stroke:rgb(48, 48, 48);"/><text class="clickable sprotty-label port" id="sprotty_ArchitectureBlockImpl$ram_be_2048x272/BPortImpl$WEM/label" transform="translate(6, 6) translate(13.671875, 14)" style="cursor:default;font-size:12px;perspective-origin:0px 0px;fill:rgb(48, 48, 48);text-anchor:middle;">WEM</text></g><g id="sprotty_ArchitectureBlockImpl$ram_be_2048x272/BPortImpl$D" class="triangle" transform="translate(0, 171)"><path d="M 0,0 L 5,2.5 L 0,5 Z" transform="translate(-1.67, -2.5)" class="sprotty-port" style="fill:rgb(48, 48, 48);stroke:rgb(48, 48, 48);"/><text class="clickable sprotty-label port" id="sprotty_ArchitectureBlockImpl$ram_be_2048x272/BPortImpl$D/label" transform="translate(6, 6) translate(4.125, 14)" style="cursor:default;font-size:12px;perspective-origin:0px 0px;fill:rgb(48, 48, 48);text-anchor:middle;">D</text></g><g id="sprotty_ArchitectureBlockImpl$ram_be_2048x272/BPortImpl$ADR" class="triangle" transform="translate(0, 35)"><path d="M 0,0 L 5,2.5 L 0,5 Z" transform="translate(-1.67, -2.5)" class="sprotty-port" style="fill:rgb(48, 48, 48);stroke:rgb(48, 48, 48);"/><text class="clickable sprotty-label port" id="sprotty_ArchitectureBlockImpl$ram_be_2048x272/BPortImpl$ADR/label" transform="translate(6, 6) translate(11.578125, 14)" style="cursor:default;font-size:12px;perspective-origin:0px 0px;fill:rgb(48, 48, 48);text-anchor:middle;">ADR</text></g><g id="sprotty_ArchitectureBlockImpl$ram_be_2048x272/BPortImpl$Q" class="triangle" transform="translate(190.859375, 119.66666666666667)"><path d="M 0,0 L 5,2.5 L 0,5 Z" transform="translate(-1.67, -2.5)" class="sprotty-port" style="fill:rgb(48, 48, 48);stroke:rgb(48, 48, 48);"/><text class="clickable sprotty-label port" id="sprotty_ArchitectureBlockImpl$ram_be_2048x272/BPortImpl$Q/label" transform="translate(-14.90625, 6) translate(4.453125, 14)" style="cursor:default;font-size:12px;perspective-origin:0px 0px;fill:rgb(48, 48, 48);text-anchor:middle;">Q</text></g><g id="sprotty_ArchitectureBlockImpl$ram_be_2048x272/BPortImpl$ROP" class="triangle" transform="translate(190.859375, 205)"><path d="M 0,0 L 5,2.5 L 0,5 Z" transform="translate(-1.67, -2.5)" class="sprotty-port" style="fill:rgb(48, 48, 48);stroke:rgb(48, 48, 48);"/><text class="clickable sprotty-label port" id="sprotty_ArchitectureBlockImpl$ram_be_2048x272/BPortImpl$ROP/label" transform="translate(-30.125, 6) translate(12.0625, 14)" style="cursor:default;font-size:12px;perspective-origin:0px 0px;fill:rgb(48, 48, 48);text-anchor:middle;">ROP</text></g></g></g></svg>