<svg xmlns="http://www.w3.org/2000/svg" id="sprotty_work.el2_lsu_trigger" class="sprotty-graph sprotty-block-diagram blockdiagram" style="font-family:&quot;Noto Sans&quot;, Helvetica, Arial, sans-serif;perspective-origin:0px 0px;transform-origin:0px 0px;" version="1.1" viewBox="7 7 824.875 255" width="824.875" height="255"><g transform="scale(1) translate(0,0)"><g id="sprotty_ArchitectureBlockImpl$el2_lsu_trigger" class="architecture" transform="translate(12, 12)"><g class="sprotty-block" style="fill:rgb(255, 255, 255);stroke:rgb(48, 48, 48);stroke-dasharray:0px;"><rect x="0" y="0" rx="1" ry="1" width="814.875" height="245"/><text x="407.4375" y="12" class="sprotty-block-name" style="cursor:pointer;font-weight:700;perspective-origin:203.844px 0px;fill:rgb(48, 48, 48);stroke:rgba(0, 0, 0, 0);dominant-baseline:middle;text-anchor:middle;">el2_lsu_trigger</text><line x1="0" y1="20" x2="814.875" y2="20"/></g><g id="sprotty_ArchitectureBlockImpl$el2_lsu_trigger/GenerateStatementBlockImpl$null5/GPortImpl$lsu_trigger_match_m_to_ArchitectureBlockImpl$el2_lsu_trigger/BPortImpl$lsu_trigger_match_m" class="sprotty-edge thick edge" style="fill:none;stroke:rgb(112, 112, 112);stroke-linejoin:round;stroke-width:3px;"><g><path d="M 673.75 134 L 814.875 134 "/><path d="M 673.75 134 L 814.875 134 " class="clickable"/></g></g><g id="sprotty_ArchitectureBlockImpl$el2_lsu_trigger/BPortImpl$lsu_pkt_m_to_ArchitectureBlockImpl$el2_lsu_trigger/AssignmentBlockImpl$store_data_trigger_m/GPortImpl$lsu_pkt_mIN" class="sprotty-edge thick edge" style="fill:none;stroke:rgb(112, 112, 112);stroke-linejoin:round;stroke-width:3px;"><g><path d="M 0 75 L 118.46875 75 C 119.46875 75 120.46875 76 120.46875 77 L 120.46875 117 C 120.46875 118 121.46875 119 122.46875 119 L 202.21875 119 C 203.21875 119 204.21875 120 204.21875 121 L 204.21875 131 C 204.21875 132 205.21875 133 206.21875 133 L 214.21875 133 "/><path d="M 0 75 L 118.46875 75 C 119.46875 75 120.46875 76 120.46875 77 L 120.46875 117 C 120.46875 118 121.46875 119 122.46875 119 L 202.21875 119 C 203.21875 119 204.21875 120 204.21875 121 L 204.21875 131 C 204.21875 132 205.21875 133 206.21875 133 L 214.21875 133 " class="clickable"/></g><circle r="3" id="sprotty_ArchitectureBlockImpl$el2_lsu_trigger/BPortImpl$lsu_pkt_m_to_ArchitectureBlockImpl$el2_lsu_trigger/AssignmentBlockImpl$store_data_trigger_m/GPortImpl$lsu_pkt_mIN/junction0" transform="translate(120.46875, 75)" class="sprotty-junction thick" style="fill:rgb(112, 112, 112);stroke:none;"/></g><g id="sprotty_ArchitectureBlockImpl$el2_lsu_trigger/BPortImpl$store_data_m_to_ArchitectureBlockImpl$el2_lsu_trigger/AssignmentBlockImpl$store_data_trigger_m/GPortImpl$store_data_mIN" class="sprotty-edge thick edge" style="fill:none;stroke:rgb(112, 112, 112);stroke-linejoin:round;stroke-width:3px;"><g><path d="M 0 143 L 214.21875 143 "/><path d="M 0 143 L 214.21875 143 " class="clickable"/></g></g><g id="sprotty_ArchitectureBlockImpl$el2_lsu_trigger/BPortImpl$lsu_addr_m_to_ArchitectureBlockImpl$el2_lsu_trigger/AssignmentBlockImpl$ldst_addr_trigger_m/GPortImpl$lsu_addr_mIN" class="sprotty-edge thick edge" style="fill:none;stroke:rgb(112, 112, 112);stroke-linejoin:round;stroke-width:3px;"><g><path d="M 0 206 L 214.21875 206 "/><path d="M 0 206 L 214.21875 206 " class="clickable"/></g></g><g id="sprotty_ArchitectureBlockImpl$el2_lsu_trigger/BPortImpl$trigger_pkt_any_to_ArchitectureBlockImpl$el2_lsu_trigger/GenerateStatementBlockImpl$null5/GPortImpl$trigger_pkt_any" class="sprotty-edge thick edge" style="fill:none;stroke:rgb(112, 112, 112);stroke-linejoin:round;stroke-width:3px;"><g><path d="M 0 109 L 241.65625 109 C 242.65625 109 243.65625 108 243.65625 107 L 243.65625 103 C 243.65625 102 244.65625 101 245.65625 101 L 253.65625 101 "/><path d="M 0 109 L 241.65625 109 C 242.65625 109 243.65625 108 243.65625 107 L 243.65625 103 C 243.65625 102 244.65625 101 245.65625 101 L 253.65625 101 " class="clickable"/></g></g><g id="sprotty_ArchitectureBlockImpl$el2_lsu_trigger/BPortImpl$lsu_pkt_m_to_ArchitectureBlockImpl$el2_lsu_trigger/GenerateStatementBlockImpl$null5/GPortImpl$lsu_pkt_m" class="sprotty-edge thick edge" style="fill:none;stroke:rgb(112, 112, 112);stroke-linejoin:round;stroke-width:3px;"><g><path d="M 0 75 L 241.65625 75 C 242.65625 75 243.65625 74 243.65625 73 L 243.65625 53 C 243.65625 52 244.65625 51 245.65625 51 L 253.65625 51 "/><path d="M 0 75 L 241.65625 75 C 242.65625 75 243.65625 74 243.65625 73 L 243.65625 53 C 243.65625 52 244.65625 51 245.65625 51 L 253.65625 51 " class="clickable"/></g></g><g id="sprotty_ArchitectureBlockImpl$el2_lsu_trigger/AlwaysBlockImpl$null6/GPortImpl$trigger_enableOUT_to_ArchitectureBlockImpl$el2_lsu_trigger/AssignmentBlockImpl$store_data_trigger_m/GPortImpl$trigger_enableIN" class="sprotty-edge edge" style="fill:none;stroke:rgb(112, 112, 112);stroke-linejoin:round;"><g><path d="M 194.21875 174 L 202.21875 174 C 203.21875 174 204.21875 173 204.21875 172 L 204.21875 155 C 204.21875 154 205.21875 153 206.21875 153 L 214.21875 153 "/><path d="M 194.21875 174 L 202.21875 174 C 203.21875 174 204.21875 173 204.21875 172 L 204.21875 155 C 204.21875 154 205.21875 153 206.21875 153 L 214.21875 153 " class="clickable"/></g><circle r="2" id="sprotty_ArchitectureBlockImpl$el2_lsu_trigger/AlwaysBlockImpl$null6/GPortImpl$trigger_enableOUT_to_ArchitectureBlockImpl$el2_lsu_trigger/AssignmentBlockImpl$store_data_trigger_m/GPortImpl$trigger_enableIN/junction0" transform="translate(204.21875, 174)" class="sprotty-junction junction" style="fill:rgb(112, 112, 112);stroke:none;"/></g><g id="sprotty_ArchitectureBlockImpl$el2_lsu_trigger/AlwaysBlockImpl$null6/GPortImpl$trigger_enableOUT_to_ArchitectureBlockImpl$el2_lsu_trigger/AssignmentBlockImpl$ldst_addr_trigger_m/GPortImpl$trigger_enableIN" class="sprotty-edge edge" style="fill:none;stroke:rgb(112, 112, 112);stroke-linejoin:round;"><g><path d="M 194.21875 174 L 202.21875 174 C 203.21875 174 204.21875 175 204.21875 176 L 204.21875 194 C 204.21875 195 205.21875 196 206.21875 196 L 214.21875 196 "/><path d="M 194.21875 174 L 202.21875 174 C 203.21875 174 204.21875 175 204.21875 176 L 204.21875 194 C 204.21875 195 205.21875 196 206.21875 196 L 214.21875 196 " class="clickable"/></g></g><g id="sprotty_ArchitectureBlockImpl$el2_lsu_trigger/AlwaysBlockImpl$null6/GPortImpl$trigger_enableOUT_to_ArchitectureBlockImpl$el2_lsu_trigger/GenerateStatementBlockImpl$null5/GPortImpl$trigger_enable" class="sprotty-edge edge" style="fill:none;stroke:rgb(112, 112, 112);stroke-linejoin:round;"><g><path d="M 194.21875 174 L 241.65625 174 C 242.65625 174 243.65625 173 243.65625 172 L 243.65625 145 C 243.65625 144 244.65625 143 245.65625 143 L 253.65625 143 "/><path d="M 194.21875 174 L 241.65625 174 C 242.65625 174 243.65625 173 243.65625 172 L 243.65625 145 C 243.65625 144 244.65625 143 245.65625 143 L 253.65625 143 " class="clickable"/></g><circle r="2" id="sprotty_ArchitectureBlockImpl$el2_lsu_trigger/AlwaysBlockImpl$null6/GPortImpl$trigger_enableOUT_to_ArchitectureBlockImpl$el2_lsu_trigger/GenerateStatementBlockImpl$null5/GPortImpl$trigger_enable/junction0" transform="translate(243.65625, 174)" class="sprotty-junction junction" style="fill:rgb(112, 112, 112);stroke:none;"/></g><g id="sprotty_ArchitectureBlockImpl$el2_lsu_trigger/AssignmentBlockImpl$store_data_trigger_m/GPortImpl$trigger_enableOUT_to_ArchitectureBlockImpl$el2_lsu_trigger/GenerateStatementBlockImpl$null5/GPortImpl$trigger_enable" class="sprotty-edge thick edge" style="fill:none;stroke:rgb(112, 112, 112);stroke-linejoin:round;stroke-width:3px;"><g><path d="M 233.65625 143 L 253.65625 143 "/><path d="M 233.65625 143 L 253.65625 143 " class="clickable"/></g></g><g id="sprotty_ArchitectureBlockImpl$el2_lsu_trigger/AssignmentBlockImpl$ldst_addr_trigger_m/GPortImpl$trigger_enableOUT_to_ArchitectureBlockImpl$el2_lsu_trigger/GenerateStatementBlockImpl$null5/GPortImpl$trigger_enable" class="sprotty-edge thick edge" style="fill:none;stroke:rgb(112, 112, 112);stroke-linejoin:round;stroke-width:3px;"><g><path d="M 233.65625 201 L 241.65625 201 C 242.65625 201 243.65625 200 243.65625 199 L 243.65625 145 C 243.65625 144 244.65625 143 245.65625 143 L 253.65625 143 "/><path d="M 233.65625 201 L 241.65625 201 C 242.65625 201 243.65625 200 243.65625 199 L 243.65625 145 C 243.65625 144 244.65625 143 245.65625 143 L 253.65625 143 " class="clickable"/></g><circle r="3" id="sprotty_ArchitectureBlockImpl$el2_lsu_trigger/AssignmentBlockImpl$ldst_addr_trigger_m/GPortImpl$trigger_enableOUT_to_ArchitectureBlockImpl$el2_lsu_trigger/GenerateStatementBlockImpl$null5/GPortImpl$trigger_enable/junction0" transform="translate(243.65625, 143)" class="sprotty-junction thick" style="fill:rgb(112, 112, 112);stroke:none;"/></g><g id="sprotty_ArchitectureBlockImpl$el2_lsu_trigger/GenerateStatementBlockImpl$null5" class="generate" transform="translate(253.65625, 35)"><g class="sprotty-block sprotty-block-generate" style="fill:rgb(255, 255, 255);stroke:rgb(48, 48, 48);stroke-dasharray:0px;"><rect x="0" y="0" rx="1" ry="1" width="420.09375" height="178" style="stroke-dasharray:3px, 1px;"/><text x="210.046875" y="12" class="sprotty-block-name" style="cursor:pointer;font-weight:700;fill:rgb(48, 48, 48);stroke:rgba(0, 0, 0, 0);dominant-baseline:middle;text-anchor:middle;"/></g><g id="sprotty_ArchitectureBlockImpl$el2_lsu_trigger/GenerateStatementBlockImpl$null5/AssignmentBlockImpl$lsu_trigger_match_m/GPortImpl$lsu_trigger_match_mOUT_to_ArchitectureBlockImpl$el2_lsu_trigger/GenerateStatementBlockImpl$null5/GPortImpl$lsu_trigger_match_m" class="sprotty-edge thick edge" style="fill:none;stroke:rgb(112, 112, 112);stroke-linejoin:round;stroke-width:3px;"><g><path d="M 405.09375 99 L 420.09375 99 "/><path d="M 405.09375 99 L 420.09375 99 " class="clickable"/></g></g><g id="sprotty_ArchitectureBlockImpl$el2_lsu_trigger/GenerateStatementBlockImpl$null5/GPortImpl$trigger_pkt_any_to_ArchitectureBlockImpl$el2_lsu_trigger/GenerateStatementBlockImpl$null5/InstantiationBlockImpl$trigger_match/BPortImpl$mask" class="sprotty-edge thick edge" style="fill:none;stroke:rgb(112, 112, 112);stroke-linejoin:round;stroke-width:3px;"><g><path d="M 0 66 L 84.4375 66 "/><path d="M 0 66 L 84.4375 66 " class="clickable"/></g></g><g id="sprotty_ArchitectureBlockImpl$el2_lsu_trigger/GenerateStatementBlockImpl$null5/GPortImpl$trigger_pkt_any_to_ArchitectureBlockImpl$el2_lsu_trigger/GenerateStatementBlockImpl$null5/InstantiationBlockImpl$trigger_match/BPortImpl$masken" class="sprotty-edge thick edge" style="fill:none;stroke:rgb(112, 112, 112);stroke-linejoin:round;stroke-width:3px;"><g><path d="M 0 66 L 72.4375 66 C 73.4375 66 74.4375 67 74.4375 68 L 74.4375 120 C 74.4375 121 75.4375 122 76.4375 122 L 84.4375 122 "/><path d="M 0 66 L 72.4375 66 C 73.4375 66 74.4375 67 74.4375 68 L 74.4375 120 C 74.4375 121 75.4375 122 76.4375 122 L 84.4375 122 " class="clickable"/></g><circle r="3" id="sprotty_ArchitectureBlockImpl$el2_lsu_trigger/GenerateStatementBlockImpl$null5/GPortImpl$trigger_pkt_any_to_ArchitectureBlockImpl$el2_lsu_trigger/GenerateStatementBlockImpl$null5/InstantiationBlockImpl$trigger_match/BPortImpl$masken/junction0" transform="translate(74.4375, 66)" class="sprotty-junction thick" style="fill:rgb(112, 112, 112);stroke:none;"/><circle r="3" id="sprotty_ArchitectureBlockImpl$el2_lsu_trigger/GenerateStatementBlockImpl$null5/GPortImpl$trigger_pkt_any_to_ArchitectureBlockImpl$el2_lsu_trigger/GenerateStatementBlockImpl$null5/InstantiationBlockImpl$trigger_match/BPortImpl$masken/junction1" transform="translate(74.4375, 122)" class="sprotty-junction thick" style="fill:rgb(112, 112, 112);stroke:none;"/></g><g id="sprotty_ArchitectureBlockImpl$el2_lsu_trigger/GenerateStatementBlockImpl$null5/GPortImpl$trigger_pkt_any_to_ArchitectureBlockImpl$el2_lsu_trigger/GenerateStatementBlockImpl$null5/AssignmentBlockImpl$lsu_match_data/GPortImpl$trigger_pkt_anyIN" class="sprotty-edge thick edge" style="fill:none;stroke:rgb(112, 112, 112);stroke-linejoin:round;stroke-width:3px;"><g><path d="M 0 66 L 23 66 C 24 66 25 67 25 68 L 25 86 C 25 87 26 88 27 88 L 35 88 "/><path d="M 0 66 L 23 66 C 24 66 25 67 25 68 L 25 86 C 25 87 26 88 27 88 L 35 88 " class="clickable"/></g><circle r="3" id="sprotty_ArchitectureBlockImpl$el2_lsu_trigger/GenerateStatementBlockImpl$null5/GPortImpl$trigger_pkt_any_to_ArchitectureBlockImpl$el2_lsu_trigger/GenerateStatementBlockImpl$null5/AssignmentBlockImpl$lsu_match_data/GPortImpl$trigger_pkt_anyIN/junction0" transform="translate(25, 66)" class="sprotty-junction thick" style="fill:rgb(112, 112, 112);stroke:none;"/></g><g id="sprotty_ArchitectureBlockImpl$el2_lsu_trigger/GenerateStatementBlockImpl$null5/GPortImpl$lsu_pkt_m_to_ArchitectureBlockImpl$el2_lsu_trigger/GenerateStatementBlockImpl$null5/AssignmentBlockImpl$lsu_trigger_match_m/GPortImpl$lsu_pkt_mIN" class="sprotty-edge thick edge" style="fill:none;stroke:rgb(112, 112, 112);stroke-linejoin:round;stroke-width:3px;"><g><path d="M 0 16 L 363.65625 16 C 364.65625 16 365.65625 17 365.65625 18 L 365.65625 82 C 365.65625 83 366.65625 84 367.65625 84 L 385.65625 84 "/><path d="M 0 16 L 363.65625 16 C 364.65625 16 365.65625 17 365.65625 18 L 365.65625 82 C 365.65625 83 366.65625 84 367.65625 84 L 385.65625 84 " class="clickable"/></g></g><g id="sprotty_ArchitectureBlockImpl$el2_lsu_trigger/GenerateStatementBlockImpl$null5/GPortImpl$trigger_pkt_any_to_ArchitectureBlockImpl$el2_lsu_trigger/GenerateStatementBlockImpl$null5/AssignmentBlockImpl$lsu_trigger_match_m/GPortImpl$trigger_pkt_anyIN" class="sprotty-edge thick edge" style="fill:none;stroke:rgb(112, 112, 112);stroke-linejoin:round;stroke-width:3px;"><g><path d="M 0 66 L 72.4375 66 C 73.4375 66 74.4375 67 74.4375 68 L 74.4375 149 C 74.4375 150 75.4375 151 76.4375 151 L 363.65625 151 C 364.65625 151 365.65625 150 365.65625 149 L 365.65625 106 C 365.65625 105 366.65625 104 367.65625 104 L 385.65625 104 "/><path d="M 0 66 L 72.4375 66 C 73.4375 66 74.4375 67 74.4375 68 L 74.4375 149 C 74.4375 150 75.4375 151 76.4375 151 L 363.65625 151 C 364.65625 151 365.65625 150 365.65625 149 L 365.65625 106 C 365.65625 105 366.65625 104 367.65625 104 L 385.65625 104 " class="clickable"/></g></g><g id="sprotty_ArchitectureBlockImpl$el2_lsu_trigger/GenerateStatementBlockImpl$null5/GPortImpl$trigger_enable_to_ArchitectureBlockImpl$el2_lsu_trigger/GenerateStatementBlockImpl$null5/AssignmentBlockImpl$lsu_trigger_match_m/GPortImpl$trigger_enableIN" class="sprotty-edge edge" style="fill:none;stroke:rgb(112, 112, 112);stroke-linejoin:round;"><g><path d="M 0 108 L 23 108 C 24 108 25 109 25 110 L 25 159 C 25 160 26 161 27 161 L 373.65625 161 C 374.65625 161 375.65625 160 375.65625 159 L 375.65625 116 C 375.65625 115 376.65625 114 377.65625 114 L 385.65625 114 "/><path d="M 0 108 L 23 108 C 24 108 25 109 25 110 L 25 159 C 25 160 26 161 27 161 L 373.65625 161 C 374.65625 161 375.65625 160 375.65625 159 L 375.65625 116 C 375.65625 115 376.65625 114 377.65625 114 L 385.65625 114 " class="clickable"/></g><circle r="2" id="sprotty_ArchitectureBlockImpl$el2_lsu_trigger/GenerateStatementBlockImpl$null5/GPortImpl$trigger_enable_to_ArchitectureBlockImpl$el2_lsu_trigger/GenerateStatementBlockImpl$null5/AssignmentBlockImpl$lsu_trigger_match_m/GPortImpl$trigger_enableIN/junction0" transform="translate(25, 108)" class="sprotty-junction junction" style="fill:rgb(112, 112, 112);stroke:none;"/></g><g id="sprotty_ArchitectureBlockImpl$el2_lsu_trigger/GenerateStatementBlockImpl$null5/GPortImpl$trigger_enable_to_ArchitectureBlockImpl$el2_lsu_trigger/GenerateStatementBlockImpl$null5/AssignmentBlockImpl$lsu_match_data/GPortImpl$store_data_trigger_mIN" class="sprotty-edge thick edge" style="fill:none;stroke:rgb(112, 112, 112);stroke-linejoin:round;stroke-width:3px;"><g><path d="M 0 108 L 35 108 "/><path d="M 0 108 L 35 108 " class="clickable"/></g></g><g id="sprotty_ArchitectureBlockImpl$el2_lsu_trigger/GenerateStatementBlockImpl$null5/GPortImpl$trigger_enable_to_ArchitectureBlockImpl$el2_lsu_trigger/GenerateStatementBlockImpl$null5/AssignmentBlockImpl$lsu_match_data/GPortImpl$ldst_addr_trigger_mIN" class="sprotty-edge thick edge" style="fill:none;stroke:rgb(112, 112, 112);stroke-linejoin:round;stroke-width:3px;"><g><path d="M 0 108 L 23 108 C 24 108 25 107 25 106 L 25 100 C 25 99 26 98 27 98 L 35 98 "/><path d="M 0 108 L 23 108 C 24 108 25 107 25 106 L 25 100 C 25 99 26 98 27 98 L 35 98 " class="clickable"/></g></g><g id="sprotty_ArchitectureBlockImpl$el2_lsu_trigger/GenerateStatementBlockImpl$null5/AssignmentBlockImpl$lsu_match_data/GPortImpl$store_data_trigger_mOUT_to_ArchitectureBlockImpl$el2_lsu_trigger/GenerateStatementBlockImpl$null5/InstantiationBlockImpl$trigger_match/BPortImpl$data" class="sprotty-edge thick edge" style="fill:none;stroke:rgb(112, 112, 112);stroke-linejoin:round;stroke-width:3px;"><g><path d="M 54.4375 98 L 62.4375 98 C 63.4375 98 64.4375 97 64.4375 96 L 64.4375 96 C 64.4375 95 65.4375 94 66.4375 94 L 84.4375 94 "/><path d="M 54.4375 98 L 62.4375 98 C 63.4375 98 64.4375 97 64.4375 96 L 64.4375 96 C 64.4375 95 65.4375 94 66.4375 94 L 84.4375 94 " class="clickable"/></g></g><g id="sprotty_ArchitectureBlockImpl$el2_lsu_trigger/GenerateStatementBlockImpl$null5/InstantiationBlockImpl$trigger_match/BPortImpl$match_to_ArchitectureBlockImpl$el2_lsu_trigger/GenerateStatementBlockImpl$null5/AssignmentBlockImpl$lsu_trigger_match_m/GPortImpl$lsu_trigger_data_matchIN" class="sprotty-edge thick edge" style="fill:none;stroke:rgb(112, 112, 112);stroke-linejoin:round;stroke-width:3px;"><g><path d="M 355.65625 94 L 385.65625 94 "/><path d="M 355.65625 94 L 385.65625 94 " class="clickable"/></g></g><g id="sprotty_ArchitectureBlockImpl$el2_lsu_trigger/GenerateStatementBlockImpl$null5/AssignmentBlockImpl$lsu_trigger_match_m" class="statement" transform="translate(385.65625, 74)"><rect x="0" y="0" rx="10" ry="5" width="19.4375" height="50" class="sprotty-node" style="fill:rgb(245, 245, 245);stroke:rgb(112, 112, 112);"/><text class="clickable sprotty-label statementtype" id="sprotty_ArchitectureBlockImpl$el2_lsu_trigger/GenerateStatementBlockImpl$null5/AssignmentBlockImpl$lsu_trigger_match_m/labeltype" transform="translate(5, 19) translate(4.71875, 9)" style="cursor:default;font-size:8px;font-weight:700;perspective-origin:0px 0px;fill:rgb(112, 112, 112);text-anchor:middle;">&lt;=</text><g id="sprotty_ArchitectureBlockImpl$el2_lsu_trigger/GenerateStatementBlockImpl$null5/AssignmentBlockImpl$lsu_trigger_match_m/GPortImpl$lsu_trigger_data_matchIN" class="sprotty-hidden hidden" transform="translate(0, 20)" style="display:block;height:0px;width:0px;"/><g id="sprotty_ArchitectureBlockImpl$el2_lsu_trigger/GenerateStatementBlockImpl$null5/AssignmentBlockImpl$lsu_trigger_match_m/GPortImpl$trigger_pkt_anyIN" class="sprotty-hidden hidden" transform="translate(0, 30)" style="display:block;height:0px;width:0px;"/><g id="sprotty_ArchitectureBlockImpl$el2_lsu_trigger/GenerateStatementBlockImpl$null5/AssignmentBlockImpl$lsu_trigger_match_m/GPortImpl$trigger_enableIN" class="sprotty-hidden hidden" transform="translate(0, 40)" style="display:block;height:0px;width:0px;"/><g id="sprotty_ArchitectureBlockImpl$el2_lsu_trigger/GenerateStatementBlockImpl$null5/AssignmentBlockImpl$lsu_trigger_match_m/GPortImpl$lsu_pkt_mIN" class="sprotty-hidden hidden" transform="translate(0, 10)" style="display:block;height:0px;width:0px;"/><g id="sprotty_ArchitectureBlockImpl$el2_lsu_trigger/GenerateStatementBlockImpl$null5/AssignmentBlockImpl$lsu_trigger_match_m/GPortImpl$lsu_trigger_match_mOUT" class="sprotty-hidden hidden" transform="translate(19.4375, 25)" style="display:block;height:0px;width:0px;"/></g><g id="sprotty_ArchitectureBlockImpl$el2_lsu_trigger/GenerateStatementBlockImpl$null5/AssignmentBlockImpl$lsu_match_data" class="statement" transform="translate(35, 78)"><rect x="0" y="0" rx="10" ry="5" width="19.4375" height="40" class="sprotty-node" style="fill:rgb(245, 245, 245);stroke:rgb(112, 112, 112);"/><text class="clickable sprotty-label statementtype" id="sprotty_ArchitectureBlockImpl$el2_lsu_trigger/GenerateStatementBlockImpl$null5/AssignmentBlockImpl$lsu_match_data/labeltype" transform="translate(5, 14) translate(4.71875, 9)" style="cursor:default;font-size:8px;font-weight:700;perspective-origin:0px 0px;fill:rgb(112, 112, 112);text-anchor:middle;">&lt;=</text><g id="sprotty_ArchitectureBlockImpl$el2_lsu_trigger/GenerateStatementBlockImpl$null5/AssignmentBlockImpl$lsu_match_data/GPortImpl$store_data_trigger_mIN" class="sprotty-hidden hidden" transform="translate(0, 30)" style="display:block;height:0px;width:0px;"/><g id="sprotty_ArchitectureBlockImpl$el2_lsu_trigger/GenerateStatementBlockImpl$null5/AssignmentBlockImpl$lsu_match_data/GPortImpl$ldst_addr_trigger_mIN" class="sprotty-hidden hidden" transform="translate(0, 20)" style="display:block;height:0px;width:0px;"/><g id="sprotty_ArchitectureBlockImpl$el2_lsu_trigger/GenerateStatementBlockImpl$null5/AssignmentBlockImpl$lsu_match_data/GPortImpl$trigger_pkt_anyIN" class="sprotty-hidden hidden" transform="translate(0, 10)" style="display:block;height:0px;width:0px;"/><g id="sprotty_ArchitectureBlockImpl$el2_lsu_trigger/GenerateStatementBlockImpl$null5/AssignmentBlockImpl$lsu_match_data/GPortImpl$store_data_trigger_mOUT" class="sprotty-hidden hidden" transform="translate(19.4375, 20)" style="display:block;height:0px;width:0px;"/></g><g id="sprotty_ArchitectureBlockImpl$el2_lsu_trigger/GenerateStatementBlockImpl$null5/InstantiationBlockImpl$trigger_match" class="instantiation" transform="translate(84.4375, 28)"><g class="sprotty-block" style="fill:rgb(255, 255, 255);stroke:rgb(48, 48, 48);stroke-dasharray:0px;"><rect x="0" y="0" rx="1" ry="1" width="271.21875" height="112"/><text x="135.609375" y="12" class="sprotty-block-name" style="cursor:pointer;font-weight:700;perspective-origin:67.8047px 0px;fill:rgb(48, 48, 48);stroke:rgba(0, 0, 0, 0);dominant-baseline:middle;text-anchor:middle;">trigger_match : rvmaskandmatch</text><line x1="0" y1="20" x2="271.21875" y2="20"/></g><g id="sprotty_ArchitectureBlockImpl$el2_lsu_trigger/GenerateStatementBlockImpl$null5/InstantiationBlockImpl$trigger_match/BPortImpl$masken" class="triangle" transform="translate(0, 94)"><path d="M 0,0 L 5,2.5 L 0,5 Z" transform="translate(-1.67, -2.5)" class="sprotty-port" style="fill:rgb(48, 48, 48);stroke:rgb(48, 48, 48);"/><text class="clickable sprotty-label port" id="sprotty_ArchitectureBlockImpl$el2_lsu_trigger/GenerateStatementBlockImpl$null5/InstantiationBlockImpl$trigger_match/BPortImpl$masken/label" transform="translate(6, -9) translate(21.9375, 14)" style="cursor:default;font-size:12px;perspective-origin:0px 0px;fill:rgb(48, 48, 48);text-anchor:middle;">masken</text></g><g id="sprotty_ArchitectureBlockImpl$el2_lsu_trigger/GenerateStatementBlockImpl$null5/InstantiationBlockImpl$trigger_match/BPortImpl$data" class="triangle" transform="translate(0, 66)"><path d="M 0,0 L 5,2.5 L 0,5 Z" transform="translate(-1.67, -2.5)" class="sprotty-port" style="fill:rgb(48, 48, 48);stroke:rgb(48, 48, 48);"/><text class="clickable sprotty-label port" id="sprotty_ArchitectureBlockImpl$el2_lsu_trigger/GenerateStatementBlockImpl$null5/InstantiationBlockImpl$trigger_match/BPortImpl$data/label" transform="translate(6, -9) translate(12.53125, 14)" style="cursor:default;font-size:12px;perspective-origin:0px 0px;fill:rgb(48, 48, 48);text-anchor:middle;">data</text></g><g id="sprotty_ArchitectureBlockImpl$el2_lsu_trigger/GenerateStatementBlockImpl$null5/InstantiationBlockImpl$trigger_match/BPortImpl$mask" class="triangle" transform="translate(0, 38)"><path d="M 0,0 L 5,2.5 L 0,5 Z" transform="translate(-1.67, -2.5)" class="sprotty-port" style="fill:rgb(48, 48, 48);stroke:rgb(48, 48, 48);"/><text class="clickable sprotty-label port" id="sprotty_ArchitectureBlockImpl$el2_lsu_trigger/GenerateStatementBlockImpl$null5/InstantiationBlockImpl$trigger_match/BPortImpl$mask/label" transform="translate(6, -9) translate(15.0625, 14)" style="cursor:default;font-size:12px;perspective-origin:0.09375px 0px;fill:rgb(48, 48, 48);text-anchor:middle;">mask</text></g><g id="sprotty_ArchitectureBlockImpl$el2_lsu_trigger/GenerateStatementBlockImpl$null5/InstantiationBlockImpl$trigger_match/BPortImpl$match" class="triangle" transform="translate(271.21875, 66)"><path d="M 0,0 L 5,2.5 L 0,5 Z" transform="translate(-1.67, -2.5)" class="sprotty-port" style="fill:rgb(48, 48, 48);stroke:rgb(48, 48, 48);"/><text class="clickable sprotty-label port" id="sprotty_ArchitectureBlockImpl$el2_lsu_trigger/GenerateStatementBlockImpl$null5/InstantiationBlockImpl$trigger_match/BPortImpl$match/label" transform="translate(-41.4375, -9) translate(17.71875, 14)" style="cursor:default;font-size:12px;perspective-origin:0px 0px;fill:rgb(48, 48, 48);text-anchor:middle;">match</text></g></g><g id="sprotty_ArchitectureBlockImpl$el2_lsu_trigger/GenerateStatementBlockImpl$null5/GPortImpl$trigger_enable" class="triangle" transform="translate(0, 108)"><path d="M 0,0 L 5,2.5 L 0,5 Z" transform="translate(-1.67, -2.5)" class="sprotty-port" style="fill:rgb(48, 48, 48);stroke:rgb(48, 48, 48);"/></g><g id="sprotty_ArchitectureBlockImpl$el2_lsu_trigger/GenerateStatementBlockImpl$null5/GPortImpl$lsu_pkt_m" class="triangle" transform="translate(0, 16)"><path d="M 0,0 L 5,2.5 L 0,5 Z" transform="translate(-1.67, -2.5)" class="sprotty-port" style="fill:rgb(48, 48, 48);stroke:rgb(48, 48, 48);"/></g><g id="sprotty_ArchitectureBlockImpl$el2_lsu_trigger/GenerateStatementBlockImpl$null5/GPortImpl$trigger_pkt_any" class="triangle" transform="translate(0, 66)"><path d="M 0,0 L 5,2.5 L 0,5 Z" transform="translate(-1.67, -2.5)" class="sprotty-port" style="fill:rgb(48, 48, 48);stroke:rgb(48, 48, 48);"/></g><g id="sprotty_ArchitectureBlockImpl$el2_lsu_trigger/GenerateStatementBlockImpl$null5/GPortImpl$lsu_trigger_match_m" class="triangle" transform="translate(420.09375, 99)"><path d="M 0,0 L 5,2.5 L 0,5 Z" transform="translate(-1.67, -2.5)" class="sprotty-port" style="fill:rgb(48, 48, 48);stroke:rgb(48, 48, 48);"/></g></g><g id="sprotty_ArchitectureBlockImpl$el2_lsu_trigger/AlwaysBlockImpl$null6" class="statement" transform="translate(130.46875, 163)"><rect x="0" y="0" rx="10" ry="5" width="63.75" height="22" class="sprotty-node" style="fill:rgb(245, 245, 245);stroke:rgb(112, 112, 112);"/><text class="clickable sprotty-label statementtype" id="sprotty_ArchitectureBlockImpl$el2_lsu_trigger/AlwaysBlockImpl$null6/labeltype" transform="translate(5, 5) translate(26.875, 9)" style="cursor:default;font-size:8px;font-weight:700;perspective-origin:0px 0px;fill:rgb(112, 112, 112);text-anchor:middle;">always_comb</text><g id="sprotty_ArchitectureBlockImpl$el2_lsu_trigger/AlwaysBlockImpl$null6/GPortImpl$trigger_enableOUT" class="sprotty-hidden hidden" transform="translate(63.75, 11)" style="display:block;height:0px;width:0px;"/></g><g id="sprotty_ArchitectureBlockImpl$el2_lsu_trigger/AssignmentBlockImpl$ldst_addr_trigger_m" class="statement" transform="translate(214.21875, 186)"><rect x="0" y="0" rx="10" ry="5" width="19.4375" height="30" class="sprotty-node" style="fill:rgb(245, 245, 245);stroke:rgb(112, 112, 112);"/><text class="clickable sprotty-label statementtype" id="sprotty_ArchitectureBlockImpl$el2_lsu_trigger/AssignmentBlockImpl$ldst_addr_trigger_m/labeltype" transform="translate(5, 9) translate(4.71875, 9)" style="cursor:default;font-size:8px;font-weight:700;perspective-origin:0px 0px;fill:rgb(112, 112, 112);text-anchor:middle;">&lt;=</text><g id="sprotty_ArchitectureBlockImpl$el2_lsu_trigger/AssignmentBlockImpl$ldst_addr_trigger_m/GPortImpl$trigger_enableIN" class="sprotty-hidden hidden" transform="translate(0, 10)" style="display:block;height:0px;width:0px;"/><g id="sprotty_ArchitectureBlockImpl$el2_lsu_trigger/AssignmentBlockImpl$ldst_addr_trigger_m/GPortImpl$lsu_addr_mIN" class="sprotty-hidden hidden" transform="translate(0, 20)" style="display:block;height:0px;width:0px;"/><g id="sprotty_ArchitectureBlockImpl$el2_lsu_trigger/AssignmentBlockImpl$ldst_addr_trigger_m/GPortImpl$trigger_enableOUT" class="sprotty-hidden hidden" transform="translate(19.4375, 15)" style="display:block;height:0px;width:0px;"/></g><g id="sprotty_ArchitectureBlockImpl$el2_lsu_trigger/AssignmentBlockImpl$store_data_trigger_m" class="statement" transform="translate(214.21875, 123)"><rect x="0" y="0" rx="10" ry="5" width="19.4375" height="40" class="sprotty-node" style="fill:rgb(245, 245, 245);stroke:rgb(112, 112, 112);"/><text class="clickable sprotty-label statementtype" id="sprotty_ArchitectureBlockImpl$el2_lsu_trigger/AssignmentBlockImpl$store_data_trigger_m/labeltype" transform="translate(5, 14) translate(4.71875, 9)" style="cursor:default;font-size:8px;font-weight:700;perspective-origin:0px 0px;fill:rgb(112, 112, 112);text-anchor:middle;">&lt;=</text><g id="sprotty_ArchitectureBlockImpl$el2_lsu_trigger/AssignmentBlockImpl$store_data_trigger_m/GPortImpl$trigger_enableIN" class="sprotty-hidden hidden" transform="translate(0, 30)" style="display:block;height:0px;width:0px;"/><g id="sprotty_ArchitectureBlockImpl$el2_lsu_trigger/AssignmentBlockImpl$store_data_trigger_m/GPortImpl$store_data_mIN" class="sprotty-hidden hidden" transform="translate(0, 20)" style="display:block;height:0px;width:0px;"/><g id="sprotty_ArchitectureBlockImpl$el2_lsu_trigger/AssignmentBlockImpl$store_data_trigger_m/GPortImpl$lsu_pkt_mIN" class="sprotty-hidden hidden" transform="translate(0, 10)" style="display:block;height:0px;width:0px;"/><g id="sprotty_ArchitectureBlockImpl$el2_lsu_trigger/AssignmentBlockImpl$store_data_trigger_m/GPortImpl$trigger_enableOUT" class="sprotty-hidden hidden" transform="translate(19.4375, 20)" style="display:block;height:0px;width:0px;"/></g><g id="sprotty_ArchitectureBlockImpl$el2_lsu_trigger/BPortImpl$store_data_m" class="triangle" transform="translate(0, 143)"><path d="M 0,0 L 5,2.5 L 0,5 Z" transform="translate(-1.67, -2.5)" class="sprotty-port" style="fill:rgb(48, 48, 48);stroke:rgb(48, 48, 48);"/><text class="clickable sprotty-label port" id="sprotty_ArchitectureBlockImpl$el2_lsu_trigger/BPortImpl$store_data_m/label" transform="translate(6, 6) translate(38.859375, 14)" style="cursor:default;font-size:12px;perspective-origin:0px 0px;fill:rgb(48, 48, 48);text-anchor:middle;">store_data_m</text></g><g id="sprotty_ArchitectureBlockImpl$el2_lsu_trigger/BPortImpl$lsu_addr_m" class="triangle" transform="translate(0, 206)"><path d="M 0,0 L 5,2.5 L 0,5 Z" transform="translate(-1.67, -2.5)" class="sprotty-port" style="fill:rgb(48, 48, 48);stroke:rgb(48, 48, 48);"/><text class="clickable sprotty-label port" id="sprotty_ArchitectureBlockImpl$el2_lsu_trigger/BPortImpl$lsu_addr_m/label" transform="translate(6, 6) translate(33.578125, 14)" style="cursor:default;font-size:12px;perspective-origin:0px 0px;fill:rgb(48, 48, 48);text-anchor:middle;">lsu_addr_m</text></g><g id="sprotty_ArchitectureBlockImpl$el2_lsu_trigger/BPortImpl$lsu_pkt_m" class="triangle" transform="translate(0, 75)"><path d="M 0,0 L 5,2.5 L 0,5 Z" transform="translate(-1.67, -2.5)" class="sprotty-port" style="fill:rgb(48, 48, 48);stroke:rgb(48, 48, 48);"/><text class="clickable sprotty-label port" id="sprotty_ArchitectureBlockImpl$el2_lsu_trigger/BPortImpl$lsu_pkt_m/label" transform="translate(6, 6) translate(29.59375, 14)" style="cursor:default;font-size:12px;perspective-origin:0px 0px;fill:rgb(48, 48, 48);text-anchor:middle;">lsu_pkt_m</text></g><g id="sprotty_ArchitectureBlockImpl$el2_lsu_trigger/BPortImpl$trigger_pkt_any" class="triangle" transform="translate(0, 109)"><path d="M 0,0 L 5,2.5 L 0,5 Z" transform="translate(-1.67, -2.5)" class="sprotty-port" style="fill:rgb(48, 48, 48);stroke:rgb(48, 48, 48);"/><text class="clickable sprotty-label port" id="sprotty_ArchitectureBlockImpl$el2_lsu_trigger/BPortImpl$trigger_pkt_any/label" transform="translate(6, 6) translate(44.609375, 14)" style="cursor:default;font-size:12px;perspective-origin:0.0625px 0px;fill:rgb(48, 48, 48);text-anchor:middle;">trigger_pkt_any</text></g><g id="sprotty_ArchitectureBlockImpl$el2_lsu_trigger/BPortImpl$lsu_trigger_match_m" class="triangle" transform="translate(814.875, 134)"><path d="M 0,0 L 5,2.5 L 0,5 Z" transform="translate(-1.67, -2.5)" class="sprotty-port" style="fill:rgb(48, 48, 48);stroke:rgb(48, 48, 48);"/><text class="clickable sprotty-label port" id="sprotty_ArchitectureBlockImpl$el2_lsu_trigger/BPortImpl$lsu_trigger_match_m/label" transform="translate(-126.125, 6) translate(60.0625, 14)" style="cursor:default;font-size:12px;perspective-origin:0px 0px;fill:rgb(48, 48, 48);text-anchor:middle;">lsu_trigger_match_m</text></g></g></g></svg>