<svg xmlns="http://www.w3.org/2000/svg" id="sprotty_work.rvecc_encode" class="sprotty-graph sprotty-block-diagram blockdiagram" style="font-family:&quot;Noto Sans&quot;, Helvetica, Arial, sans-serif;perspective-origin:0px 0px;transform-origin:0px 0px;" version="1.1" viewBox="7 7 203.34375 305" width="203.34375" height="305"><g transform="scale(1) translate(0,0)"><g id="sprotty_ArchitectureBlockImpl$rvecc_encode" class="architecture" transform="translate(12, 12)"><g class="sprotty-block" style="fill:rgb(255, 255, 255);stroke:rgb(48, 48, 48);stroke-dasharray:0px;"><rect x="0" y="0" rx="1" ry="1" width="193.34375" height="295"/><text x="96.671875" y="12" class="sprotty-block-name" style="cursor:pointer;font-weight:700;perspective-origin:48.3359px 0px;fill:rgb(48, 48, 48);stroke:rgba(0, 0, 0, 0);dominant-baseline:middle;text-anchor:middle;">rvecc_encode</text><line x1="0" y1="20" x2="193.34375" y2="20"/></g><g id="sprotty_ArchitectureBlockImpl$rvecc_encode/AssignmentBlockImpl$ecc_out/GPortImpl$ecc_outOUT_to_ArchitectureBlockImpl$rvecc_encode/BPortImpl$ecc_out" class="sprotty-edge thick edge" style="fill:none;stroke:rgb(112, 112, 112);stroke-linejoin:round;stroke-width:3px;"><g><path d="M 127.96875 138 L 193.34375 138 "/><path d="M 127.96875 138 L 193.34375 138 " class="clickable"/></g></g><g id="sprotty_ArchitectureBlockImpl$rvecc_encode/BPortImpl$din_to_ArchitectureBlockImpl$rvecc_encode/AssignmentBlockImpl$ecc_out_temp5/GPortImpl$dinIN" class="sprotty-edge thick edge" style="fill:none;stroke:rgb(112, 112, 112);stroke-linejoin:round;stroke-width:3px;"><g><path d="M 0 36 L 47.09375 36 C 48.09375 36 49.09375 37 49.09375 38 L 49.09375 99 C 49.09375 100 50.09375 101 51.09375 101 L 59.09375 101 "/><path d="M 0 36 L 47.09375 36 C 48.09375 36 49.09375 37 49.09375 38 L 49.09375 99 C 49.09375 100 50.09375 101 51.09375 101 L 59.09375 101 " class="clickable"/></g><circle r="3" id="sprotty_ArchitectureBlockImpl$rvecc_encode/BPortImpl$din_to_ArchitectureBlockImpl$rvecc_encode/AssignmentBlockImpl$ecc_out_temp5/GPortImpl$dinIN/junction0" transform="translate(49.09375, 36)" class="sprotty-junction thick" style="fill:rgb(112, 112, 112);stroke:none;"/><circle r="3" id="sprotty_ArchitectureBlockImpl$rvecc_encode/BPortImpl$din_to_ArchitectureBlockImpl$rvecc_encode/AssignmentBlockImpl$ecc_out_temp5/GPortImpl$dinIN/junction1" transform="translate(49.09375, 101)" class="sprotty-junction thick" style="fill:rgb(112, 112, 112);stroke:none;"/></g><g id="sprotty_ArchitectureBlockImpl$rvecc_encode/BPortImpl$din_to_ArchitectureBlockImpl$rvecc_encode/AssignmentBlockImpl$ecc_out_temp4/GPortImpl$dinIN" class="sprotty-edge thick edge" style="fill:none;stroke:rgb(112, 112, 112);stroke-linejoin:round;stroke-width:3px;"><g><path d="M 0 36 L 47.09375 36 C 48.09375 36 49.09375 37 49.09375 38 L 49.09375 57 C 49.09375 58 50.09375 59 51.09375 59 L 59.09375 59 "/><path d="M 0 36 L 47.09375 36 C 48.09375 36 49.09375 37 49.09375 38 L 49.09375 57 C 49.09375 58 50.09375 59 51.09375 59 L 59.09375 59 " class="clickable"/></g><circle r="3" id="sprotty_ArchitectureBlockImpl$rvecc_encode/BPortImpl$din_to_ArchitectureBlockImpl$rvecc_encode/AssignmentBlockImpl$ecc_out_temp4/GPortImpl$dinIN/junction0" transform="translate(49.09375, 59)" class="sprotty-junction thick" style="fill:rgb(112, 112, 112);stroke:none;"/></g><g id="sprotty_ArchitectureBlockImpl$rvecc_encode/BPortImpl$din_to_ArchitectureBlockImpl$rvecc_encode/AssignmentBlockImpl$ecc_out_temp3/GPortImpl$dinIN" class="sprotty-edge thick edge" style="fill:none;stroke:rgb(112, 112, 112);stroke-linejoin:round;stroke-width:3px;"><g><path d="M 0 36 L 47.09375 36 C 48.09375 36 49.09375 37 49.09375 38 L 49.09375 267 C 49.09375 268 50.09375 269 51.09375 269 L 59.09375 269 "/><path d="M 0 36 L 47.09375 36 C 48.09375 36 49.09375 37 49.09375 38 L 49.09375 267 C 49.09375 268 50.09375 269 51.09375 269 L 59.09375 269 " class="clickable"/></g></g><g id="sprotty_ArchitectureBlockImpl$rvecc_encode/BPortImpl$din_to_ArchitectureBlockImpl$rvecc_encode/AssignmentBlockImpl$ecc_out_temp2/GPortImpl$dinIN" class="sprotty-edge thick edge" style="fill:none;stroke:rgb(112, 112, 112);stroke-linejoin:round;stroke-width:3px;"><g><path d="M 0 36 L 47.09375 36 C 48.09375 36 49.09375 37 49.09375 38 L 49.09375 183 C 49.09375 184 50.09375 185 51.09375 185 L 59.09375 185 "/><path d="M 0 36 L 47.09375 36 C 48.09375 36 49.09375 37 49.09375 38 L 49.09375 183 C 49.09375 184 50.09375 185 51.09375 185 L 59.09375 185 " class="clickable"/></g><circle r="3" id="sprotty_ArchitectureBlockImpl$rvecc_encode/BPortImpl$din_to_ArchitectureBlockImpl$rvecc_encode/AssignmentBlockImpl$ecc_out_temp2/GPortImpl$dinIN/junction0" transform="translate(49.09375, 185)" class="sprotty-junction thick" style="fill:rgb(112, 112, 112);stroke:none;"/></g><g id="sprotty_ArchitectureBlockImpl$rvecc_encode/BPortImpl$din_to_ArchitectureBlockImpl$rvecc_encode/AssignmentBlockImpl$ecc_out_temp1/GPortImpl$dinIN" class="sprotty-edge thick edge" style="fill:none;stroke:rgb(112, 112, 112);stroke-linejoin:round;stroke-width:3px;"><g><path d="M 0 36 L 47.09375 36 C 48.09375 36 49.09375 37 49.09375 38 L 49.09375 141 C 49.09375 142 50.09375 143 51.09375 143 L 59.09375 143 "/><path d="M 0 36 L 47.09375 36 C 48.09375 36 49.09375 37 49.09375 38 L 49.09375 141 C 49.09375 142 50.09375 143 51.09375 143 L 59.09375 143 " class="clickable"/></g><circle r="3" id="sprotty_ArchitectureBlockImpl$rvecc_encode/BPortImpl$din_to_ArchitectureBlockImpl$rvecc_encode/AssignmentBlockImpl$ecc_out_temp1/GPortImpl$dinIN/junction0" transform="translate(49.09375, 143)" class="sprotty-junction thick" style="fill:rgb(112, 112, 112);stroke:none;"/></g><g id="sprotty_ArchitectureBlockImpl$rvecc_encode/BPortImpl$din_to_ArchitectureBlockImpl$rvecc_encode/AssignmentBlockImpl$ecc_out_temp/GPortImpl$dinIN" class="sprotty-edge thick edge" style="fill:none;stroke:rgb(112, 112, 112);stroke-linejoin:round;stroke-width:3px;"><g><path d="M 0 36 L 47.09375 36 C 48.09375 36 49.09375 37 49.09375 38 L 49.09375 225 C 49.09375 226 50.09375 227 51.09375 227 L 59.09375 227 "/><path d="M 0 36 L 47.09375 36 C 48.09375 36 49.09375 37 49.09375 38 L 49.09375 225 C 49.09375 226 50.09375 227 51.09375 227 L 59.09375 227 " class="clickable"/></g><circle r="3" id="sprotty_ArchitectureBlockImpl$rvecc_encode/BPortImpl$din_to_ArchitectureBlockImpl$rvecc_encode/AssignmentBlockImpl$ecc_out_temp/GPortImpl$dinIN/junction0" transform="translate(49.09375, 227)" class="sprotty-junction thick" style="fill:rgb(112, 112, 112);stroke:none;"/></g><g id="sprotty_ArchitectureBlockImpl$rvecc_encode/BPortImpl$din_to_ArchitectureBlockImpl$rvecc_encode/AssignmentBlockImpl$ecc_out/GPortImpl$dinIN" class="sprotty-edge thick edge" style="fill:none;stroke:rgb(112, 112, 112);stroke-linejoin:round;stroke-width:3px;"><g><path d="M 0 36 L 96.53125 36 C 97.53125 36 98.53125 37 98.53125 38 L 98.53125 131 C 98.53125 132 99.53125 133 100.53125 133 L 108.53125 133 "/><path d="M 0 36 L 96.53125 36 C 97.53125 36 98.53125 37 98.53125 38 L 98.53125 131 C 98.53125 132 99.53125 133 100.53125 133 L 108.53125 133 " class="clickable"/></g></g><g id="sprotty_ArchitectureBlockImpl$rvecc_encode/AssignmentBlockImpl$ecc_out_temp5/GPortImpl$ecc_out_tempOUT_to_ArchitectureBlockImpl$rvecc_encode/AssignmentBlockImpl$ecc_out/GPortImpl$ecc_out_tempIN" class="sprotty-edge thick edge" style="fill:none;stroke:rgb(112, 112, 112);stroke-linejoin:round;stroke-width:3px;"><g><path d="M 78.53125 101 L 86.53125 101 C 87.53125 101 88.53125 102 88.53125 103 L 88.53125 141 C 88.53125 142 89.53125 143 90.53125 143 L 108.53125 143 "/><path d="M 78.53125 101 L 86.53125 101 C 87.53125 101 88.53125 102 88.53125 103 L 88.53125 141 C 88.53125 142 89.53125 143 90.53125 143 L 108.53125 143 " class="clickable"/></g><circle r="3" id="sprotty_ArchitectureBlockImpl$rvecc_encode/AssignmentBlockImpl$ecc_out_temp5/GPortImpl$ecc_out_tempOUT_to_ArchitectureBlockImpl$rvecc_encode/AssignmentBlockImpl$ecc_out/GPortImpl$ecc_out_tempIN/junction0" transform="translate(88.53125, 101)" class="sprotty-junction thick" style="fill:rgb(112, 112, 112);stroke:none;"/></g><g id="sprotty_ArchitectureBlockImpl$rvecc_encode/AssignmentBlockImpl$ecc_out_temp4/GPortImpl$ecc_out_tempOUT_to_ArchitectureBlockImpl$rvecc_encode/AssignmentBlockImpl$ecc_out/GPortImpl$ecc_out_tempIN" class="sprotty-edge thick edge" style="fill:none;stroke:rgb(112, 112, 112);stroke-linejoin:round;stroke-width:3px;"><g><path d="M 78.53125 59 L 86.53125 59 C 87.53125 59 88.53125 60 88.53125 61 L 88.53125 141 C 88.53125 142 89.53125 143 90.53125 143 L 108.53125 143 "/><path d="M 78.53125 59 L 86.53125 59 C 87.53125 59 88.53125 60 88.53125 61 L 88.53125 141 C 88.53125 142 89.53125 143 90.53125 143 L 108.53125 143 " class="clickable"/></g><circle r="3" id="sprotty_ArchitectureBlockImpl$rvecc_encode/AssignmentBlockImpl$ecc_out_temp4/GPortImpl$ecc_out_tempOUT_to_ArchitectureBlockImpl$rvecc_encode/AssignmentBlockImpl$ecc_out/GPortImpl$ecc_out_tempIN/junction0" transform="translate(88.53125, 143)" class="sprotty-junction thick" style="fill:rgb(112, 112, 112);stroke:none;"/></g><g id="sprotty_ArchitectureBlockImpl$rvecc_encode/AssignmentBlockImpl$ecc_out_temp3/GPortImpl$ecc_out_tempOUT_to_ArchitectureBlockImpl$rvecc_encode/AssignmentBlockImpl$ecc_out/GPortImpl$ecc_out_tempIN" class="sprotty-edge thick edge" style="fill:none;stroke:rgb(112, 112, 112);stroke-linejoin:round;stroke-width:3px;"><g><path d="M 78.53125 269 L 86.53125 269 C 87.53125 269 88.53125 268 88.53125 267 L 88.53125 145 C 88.53125 144 89.53125 143 90.53125 143 L 108.53125 143 "/><path d="M 78.53125 269 L 86.53125 269 C 87.53125 269 88.53125 268 88.53125 267 L 88.53125 145 C 88.53125 144 89.53125 143 90.53125 143 L 108.53125 143 " class="clickable"/></g></g><g id="sprotty_ArchitectureBlockImpl$rvecc_encode/AssignmentBlockImpl$ecc_out_temp2/GPortImpl$ecc_out_tempOUT_to_ArchitectureBlockImpl$rvecc_encode/AssignmentBlockImpl$ecc_out/GPortImpl$ecc_out_tempIN" class="sprotty-edge thick edge" style="fill:none;stroke:rgb(112, 112, 112);stroke-linejoin:round;stroke-width:3px;"><g><path d="M 78.53125 185 L 86.53125 185 C 87.53125 185 88.53125 184 88.53125 183 L 88.53125 145 C 88.53125 144 89.53125 143 90.53125 143 L 108.53125 143 "/><path d="M 78.53125 185 L 86.53125 185 C 87.53125 185 88.53125 184 88.53125 183 L 88.53125 145 C 88.53125 144 89.53125 143 90.53125 143 L 108.53125 143 " class="clickable"/></g><circle r="3" id="sprotty_ArchitectureBlockImpl$rvecc_encode/AssignmentBlockImpl$ecc_out_temp2/GPortImpl$ecc_out_tempOUT_to_ArchitectureBlockImpl$rvecc_encode/AssignmentBlockImpl$ecc_out/GPortImpl$ecc_out_tempIN/junction0" transform="translate(88.53125, 185)" class="sprotty-junction thick" style="fill:rgb(112, 112, 112);stroke:none;"/></g><g id="sprotty_ArchitectureBlockImpl$rvecc_encode/AssignmentBlockImpl$ecc_out_temp1/GPortImpl$ecc_out_tempOUT_to_ArchitectureBlockImpl$rvecc_encode/AssignmentBlockImpl$ecc_out/GPortImpl$ecc_out_tempIN" class="sprotty-edge thick edge" style="fill:none;stroke:rgb(112, 112, 112);stroke-linejoin:round;stroke-width:3px;"><g><path d="M 78.53125 143 L 108.53125 143 "/><path d="M 78.53125 143 L 108.53125 143 " class="clickable"/></g></g><g id="sprotty_ArchitectureBlockImpl$rvecc_encode/AssignmentBlockImpl$ecc_out_temp/GPortImpl$ecc_out_tempOUT_to_ArchitectureBlockImpl$rvecc_encode/AssignmentBlockImpl$ecc_out/GPortImpl$ecc_out_tempIN" class="sprotty-edge thick edge" style="fill:none;stroke:rgb(112, 112, 112);stroke-linejoin:round;stroke-width:3px;"><g><path d="M 78.53125 227 L 86.53125 227 C 87.53125 227 88.53125 226 88.53125 225 L 88.53125 145 C 88.53125 144 89.53125 143 90.53125 143 L 108.53125 143 "/><path d="M 78.53125 227 L 86.53125 227 C 87.53125 227 88.53125 226 88.53125 225 L 88.53125 145 C 88.53125 144 89.53125 143 90.53125 143 L 108.53125 143 " class="clickable"/></g><circle r="3" id="sprotty_ArchitectureBlockImpl$rvecc_encode/AssignmentBlockImpl$ecc_out_temp/GPortImpl$ecc_out_tempOUT_to_ArchitectureBlockImpl$rvecc_encode/AssignmentBlockImpl$ecc_out/GPortImpl$ecc_out_tempIN/junction0" transform="translate(88.53125, 227)" class="sprotty-junction thick" style="fill:rgb(112, 112, 112);stroke:none;"/></g><g id="sprotty_ArchitectureBlockImpl$rvecc_encode/AssignmentBlockImpl$ecc_out" class="statement" transform="translate(108.53125, 123)"><rect x="0" y="0" rx="10" ry="5" width="19.4375" height="30" class="sprotty-node" style="fill:rgb(245, 245, 245);stroke:rgb(112, 112, 112);"/><text class="clickable sprotty-label statementtype" id="sprotty_ArchitectureBlockImpl$rvecc_encode/AssignmentBlockImpl$ecc_out/labeltype" transform="translate(5, 9) translate(4.71875, 9)" style="cursor:default;font-size:8px;font-weight:700;perspective-origin:0px 0px;fill:rgb(112, 112, 112);text-anchor:middle;">&lt;=</text><g id="sprotty_ArchitectureBlockImpl$rvecc_encode/AssignmentBlockImpl$ecc_out/GPortImpl$ecc_out_tempIN" class="sprotty-hidden hidden" transform="translate(0, 20)" style="display:block;height:0px;width:0px;"/><g id="sprotty_ArchitectureBlockImpl$rvecc_encode/AssignmentBlockImpl$ecc_out/GPortImpl$dinIN" class="sprotty-hidden hidden" transform="translate(0, 10)" style="display:block;height:0px;width:0px;"/><g id="sprotty_ArchitectureBlockImpl$rvecc_encode/AssignmentBlockImpl$ecc_out/GPortImpl$ecc_outOUT" class="sprotty-hidden hidden" transform="translate(19.4375, 15)" style="display:block;height:0px;width:0px;"/></g><g id="sprotty_ArchitectureBlockImpl$rvecc_encode/AssignmentBlockImpl$ecc_out_temp" class="statement" transform="translate(59.09375, 216)"><rect x="0" y="0" rx="10" ry="5" width="19.4375" height="22" class="sprotty-node" style="fill:rgb(245, 245, 245);stroke:rgb(112, 112, 112);"/><text class="clickable sprotty-label statementtype" id="sprotty_ArchitectureBlockImpl$rvecc_encode/AssignmentBlockImpl$ecc_out_temp/labeltype" transform="translate(5, 5) translate(4.71875, 9)" style="cursor:default;font-size:8px;font-weight:700;perspective-origin:0px 0px;fill:rgb(112, 112, 112);text-anchor:middle;">&lt;=</text><g id="sprotty_ArchitectureBlockImpl$rvecc_encode/AssignmentBlockImpl$ecc_out_temp/GPortImpl$dinIN" class="sprotty-hidden hidden" transform="translate(0, 11)" style="display:block;height:0px;width:0px;"/><g id="sprotty_ArchitectureBlockImpl$rvecc_encode/AssignmentBlockImpl$ecc_out_temp/GPortImpl$ecc_out_tempOUT" class="sprotty-hidden hidden" transform="translate(19.4375, 11)" style="display:block;height:0px;width:0px;"/></g><g id="sprotty_ArchitectureBlockImpl$rvecc_encode/AssignmentBlockImpl$ecc_out_temp1" class="statement" transform="translate(59.09375, 132)"><rect x="0" y="0" rx="10" ry="5" width="19.4375" height="22" class="sprotty-node" style="fill:rgb(245, 245, 245);stroke:rgb(112, 112, 112);"/><text class="clickable sprotty-label statementtype" id="sprotty_ArchitectureBlockImpl$rvecc_encode/AssignmentBlockImpl$ecc_out_temp1/labeltype" transform="translate(5, 5) translate(4.71875, 9)" style="cursor:default;font-size:8px;font-weight:700;perspective-origin:0px 0px;fill:rgb(112, 112, 112);text-anchor:middle;">&lt;=</text><g id="sprotty_ArchitectureBlockImpl$rvecc_encode/AssignmentBlockImpl$ecc_out_temp1/GPortImpl$dinIN" class="sprotty-hidden hidden" transform="translate(0, 11)" style="display:block;height:0px;width:0px;"/><g id="sprotty_ArchitectureBlockImpl$rvecc_encode/AssignmentBlockImpl$ecc_out_temp1/GPortImpl$ecc_out_tempOUT" class="sprotty-hidden hidden" transform="translate(19.4375, 11)" style="display:block;height:0px;width:0px;"/></g><g id="sprotty_ArchitectureBlockImpl$rvecc_encode/AssignmentBlockImpl$ecc_out_temp2" class="statement" transform="translate(59.09375, 174)"><rect x="0" y="0" rx="10" ry="5" width="19.4375" height="22" class="sprotty-node" style="fill:rgb(245, 245, 245);stroke:rgb(112, 112, 112);"/><text class="clickable sprotty-label statementtype" id="sprotty_ArchitectureBlockImpl$rvecc_encode/AssignmentBlockImpl$ecc_out_temp2/labeltype" transform="translate(5, 5) translate(4.71875, 9)" style="cursor:default;font-size:8px;font-weight:700;perspective-origin:0px 0px;fill:rgb(112, 112, 112);text-anchor:middle;">&lt;=</text><g id="sprotty_ArchitectureBlockImpl$rvecc_encode/AssignmentBlockImpl$ecc_out_temp2/GPortImpl$dinIN" class="sprotty-hidden hidden" transform="translate(0, 11)" style="display:block;height:0px;width:0px;"/><g id="sprotty_ArchitectureBlockImpl$rvecc_encode/AssignmentBlockImpl$ecc_out_temp2/GPortImpl$ecc_out_tempOUT" class="sprotty-hidden hidden" transform="translate(19.4375, 11)" style="display:block;height:0px;width:0px;"/></g><g id="sprotty_ArchitectureBlockImpl$rvecc_encode/AssignmentBlockImpl$ecc_out_temp3" class="statement" transform="translate(59.09375, 258)"><rect x="0" y="0" rx="10" ry="5" width="19.4375" height="22" class="sprotty-node" style="fill:rgb(245, 245, 245);stroke:rgb(112, 112, 112);"/><text class="clickable sprotty-label statementtype" id="sprotty_ArchitectureBlockImpl$rvecc_encode/AssignmentBlockImpl$ecc_out_temp3/labeltype" transform="translate(5, 5) translate(4.71875, 9)" style="cursor:default;font-size:8px;font-weight:700;perspective-origin:0px 0px;fill:rgb(112, 112, 112);text-anchor:middle;">&lt;=</text><g id="sprotty_ArchitectureBlockImpl$rvecc_encode/AssignmentBlockImpl$ecc_out_temp3/GPortImpl$dinIN" class="sprotty-hidden hidden" transform="translate(0, 11)" style="display:block;height:0px;width:0px;"/><g id="sprotty_ArchitectureBlockImpl$rvecc_encode/AssignmentBlockImpl$ecc_out_temp3/GPortImpl$ecc_out_tempOUT" class="sprotty-hidden hidden" transform="translate(19.4375, 11)" style="display:block;height:0px;width:0px;"/></g><g id="sprotty_ArchitectureBlockImpl$rvecc_encode/AssignmentBlockImpl$ecc_out_temp4" class="statement" transform="translate(59.09375, 48)"><rect x="0" y="0" rx="10" ry="5" width="19.4375" height="22" class="sprotty-node" style="fill:rgb(245, 245, 245);stroke:rgb(112, 112, 112);"/><text class="clickable sprotty-label statementtype" id="sprotty_ArchitectureBlockImpl$rvecc_encode/AssignmentBlockImpl$ecc_out_temp4/labeltype" transform="translate(5, 5) translate(4.71875, 9)" style="cursor:default;font-size:8px;font-weight:700;perspective-origin:0px 0px;fill:rgb(112, 112, 112);text-anchor:middle;">&lt;=</text><g id="sprotty_ArchitectureBlockImpl$rvecc_encode/AssignmentBlockImpl$ecc_out_temp4/GPortImpl$dinIN" class="sprotty-hidden hidden" transform="translate(0, 11)" style="display:block;height:0px;width:0px;"/><g id="sprotty_ArchitectureBlockImpl$rvecc_encode/AssignmentBlockImpl$ecc_out_temp4/GPortImpl$ecc_out_tempOUT" class="sprotty-hidden hidden" transform="translate(19.4375, 11)" style="display:block;height:0px;width:0px;"/></g><g id="sprotty_ArchitectureBlockImpl$rvecc_encode/AssignmentBlockImpl$ecc_out_temp5" class="statement" transform="translate(59.09375, 90)"><rect x="0" y="0" rx="10" ry="5" width="19.4375" height="22" class="sprotty-node" style="fill:rgb(245, 245, 245);stroke:rgb(112, 112, 112);"/><text class="clickable sprotty-label statementtype" id="sprotty_ArchitectureBlockImpl$rvecc_encode/AssignmentBlockImpl$ecc_out_temp5/labeltype" transform="translate(5, 5) translate(4.71875, 9)" style="cursor:default;font-size:8px;font-weight:700;perspective-origin:0px 0px;fill:rgb(112, 112, 112);text-anchor:middle;">&lt;=</text><g id="sprotty_ArchitectureBlockImpl$rvecc_encode/AssignmentBlockImpl$ecc_out_temp5/GPortImpl$dinIN" class="sprotty-hidden hidden" transform="translate(0, 11)" style="display:block;height:0px;width:0px;"/><g id="sprotty_ArchitectureBlockImpl$rvecc_encode/AssignmentBlockImpl$ecc_out_temp5/GPortImpl$ecc_out_tempOUT" class="sprotty-hidden hidden" transform="translate(19.4375, 11)" style="display:block;height:0px;width:0px;"/></g><g id="sprotty_ArchitectureBlockImpl$rvecc_encode/BPortImpl$din" class="triangle" transform="translate(0, 36)"><path d="M 0,0 L 5,2.5 L 0,5 Z" transform="translate(-1.67, -2.5)" class="sprotty-port" style="fill:rgb(48, 48, 48);stroke:rgb(48, 48, 48);"/><text class="clickable sprotty-label port" id="sprotty_ArchitectureBlockImpl$rvecc_encode/BPortImpl$din/label" transform="translate(6, 6) translate(9.046875, 14)" style="cursor:default;font-size:12px;perspective-origin:0px 0px;fill:rgb(48, 48, 48);text-anchor:middle;">din</text></g><g id="sprotty_ArchitectureBlockImpl$rvecc_encode/BPortImpl$ecc_out" class="triangle" transform="translate(193.34375, 138)"><path d="M 0,0 L 5,2.5 L 0,5 Z" transform="translate(-1.67, -2.5)" class="sprotty-port" style="fill:rgb(48, 48, 48);stroke:rgb(48, 48, 48);"/><text class="clickable sprotty-label port" id="sprotty_ArchitectureBlockImpl$rvecc_encode/BPortImpl$ecc_out/label" transform="translate(-50.375, 6) translate(22.1875, 14)" style="cursor:default;font-size:12px;perspective-origin:0px 0px;fill:rgb(48, 48, 48);text-anchor:middle;">ecc_out</text></g></g></g></svg>