<svg xmlns="http://www.w3.org/2000/svg" id="sprotty_work.dmi_jtag_to_core_sync" class="sprotty-graph sprotty-block-diagram blockdiagram" style="font-family:&quot;Noto Sans&quot;, Helvetica, Arial, sans-serif;perspective-origin:0px 0px;transform-origin:0px 0px;" version="1.1" viewBox="7 7 292.734375 186" width="292.734375" height="186"><g transform="scale(1) translate(0,0)"><g id="sprotty_ArchitectureBlockImpl$dmi_jtag_to_core_sync" class="architecture" transform="translate(12, 12)"><g class="sprotty-block" style="fill:rgb(255, 255, 255);stroke:rgb(48, 48, 48);stroke-dasharray:0px;"><rect x="0" y="0" rx="1" ry="1" width="282.734375" height="176"/><text x="141.3671875" y="12" class="sprotty-block-name" style="cursor:pointer;font-weight:700;perspective-origin:70.6797px 0px;fill:rgb(48, 48, 48);stroke:rgba(0, 0, 0, 0);dominant-baseline:middle;text-anchor:middle;">dmi_jtag_to_core_sync</text><line x1="0" y1="20" x2="282.734375" y2="20"/></g><g id="sprotty_ArchitectureBlockImpl$dmi_jtag_to_core_sync/AssignmentBlockImpl$reg_en/GPortImpl$reg_enOUT_to_ArchitectureBlockImpl$dmi_jtag_to_core_sync/BPortImpl$reg_en" class="sprotty-edge edge" style="fill:none;stroke:rgb(112, 112, 112);stroke-linejoin:round;"><g><path d="M 202.234375 111.66666666666667 L 282.734375 111.66666666666667 "/><path d="M 202.234375 111.66666666666667 L 282.734375 111.66666666666667 " class="clickable"/></g></g><g id="sprotty_ArchitectureBlockImpl$dmi_jtag_to_core_sync/AssignmentBlockImpl$reg_wr_en/GPortImpl$reg_wr_enOUT_to_ArchitectureBlockImpl$dmi_jtag_to_core_sync/BPortImpl$reg_wr_en" class="sprotty-edge edge" style="fill:none;stroke:rgb(112, 112, 112);stroke-linejoin:round;"><g><path d="M 202.234375 65.66666666666667 L 282.734375 65.66666666666667 "/><path d="M 202.234375 65.66666666666667 L 282.734375 65.66666666666667 " class="clickable"/></g></g><g id="sprotty_ArchitectureBlockImpl$dmi_jtag_to_core_sync/BPortImpl$clk_to_ArchitectureBlockImpl$dmi_jtag_to_core_sync/AlwaysBlockImpl$null6/GPortImpl$clkIN" class="sprotty-edge edge" style="fill:none;stroke:rgb(112, 112, 112);stroke-linejoin:round;"><g><path d="M 0 35 L 63.96875 35 C 64.96875 35 65.96875 36 65.96875 37 L 65.96875 57 C 65.96875 58 66.96875 59 67.96875 59 L 85.96875 59 "/><path d="M 0 35 L 63.96875 35 C 64.96875 35 65.96875 36 65.96875 37 L 65.96875 57 C 65.96875 58 66.96875 59 67.96875 59 L 85.96875 59 " class="clickable"/></g></g><g id="sprotty_ArchitectureBlockImpl$dmi_jtag_to_core_sync/BPortImpl$rst_n_to_ArchitectureBlockImpl$dmi_jtag_to_core_sync/AlwaysBlockImpl$null6/GPortImpl$rst_nIN" class="sprotty-edge edge" style="fill:none;stroke:rgb(112, 112, 112);stroke-linejoin:round;"><g><path d="M 0 137 L 73.96875 137 C 74.96875 137 75.96875 136 75.96875 135 L 75.96875 91 C 75.96875 90 76.96875 89 77.96875 89 L 85.96875 89 "/><path d="M 0 137 L 73.96875 137 C 74.96875 137 75.96875 136 75.96875 135 L 75.96875 91 C 75.96875 90 76.96875 89 77.96875 89 L 85.96875 89 " class="clickable"/></g></g><g id="sprotty_ArchitectureBlockImpl$dmi_jtag_to_core_sync/BPortImpl$rd_en_to_ArchitectureBlockImpl$dmi_jtag_to_core_sync/AlwaysBlockImpl$null6/GPortImpl$rd_enIN" class="sprotty-edge edge" style="fill:none;stroke:rgb(112, 112, 112);stroke-linejoin:round;"><g><path d="M 0 103 L 63.96875 103 C 64.96875 103 65.96875 102 65.96875 101 L 65.96875 81 C 65.96875 80 66.96875 79 67.96875 79 L 85.96875 79 "/><path d="M 0 103 L 63.96875 103 C 64.96875 103 65.96875 102 65.96875 101 L 65.96875 81 C 65.96875 80 66.96875 79 67.96875 79 L 85.96875 79 " class="clickable"/></g></g><g id="sprotty_ArchitectureBlockImpl$dmi_jtag_to_core_sync/BPortImpl$wr_en_to_ArchitectureBlockImpl$dmi_jtag_to_core_sync/AlwaysBlockImpl$null6/GPortImpl$wr_enIN" class="sprotty-edge edge" style="fill:none;stroke:rgb(112, 112, 112);stroke-linejoin:round;"><g><path d="M 0 69 L 85.96875 69 "/><path d="M 0 69 L 85.96875 69 " class="clickable"/></g></g><g id="sprotty_ArchitectureBlockImpl$dmi_jtag_to_core_sync/AssignmentBlockImpl$c_rd_en/GPortImpl$rdenOUT_to_ArchitectureBlockImpl$dmi_jtag_to_core_sync/AssignmentBlockImpl$reg_en/GPortImpl$c_rd_enIN" class="sprotty-edge thick edge" style="fill:none;stroke:rgb(112, 112, 112);stroke-linejoin:round;stroke-width:3px;"><g><path d="M 162.796875 116.66666666666667 L 182.796875 116.66666666666667 "/><path d="M 162.796875 116.66666666666667 L 182.796875 116.66666666666667 " class="clickable"/></g></g><g id="sprotty_ArchitectureBlockImpl$dmi_jtag_to_core_sync/AssignmentBlockImpl$c_wr_en/GPortImpl$wrenOUT_to_ArchitectureBlockImpl$dmi_jtag_to_core_sync/AssignmentBlockImpl$reg_en/GPortImpl$c_wr_enIN" class="sprotty-edge thick edge" style="fill:none;stroke:rgb(112, 112, 112);stroke-linejoin:round;stroke-width:3px;"><g><path d="M 162.796875 65.66666666666667 L 170.796875 65.66666666666667 C 171.796875 65.66666666666667 172.796875 66.66666666666667 172.796875 67.66666666666667 L 172.796875 104.66666666666667 C 172.796875 105.66666666666667 173.796875 106.66666666666667 174.796875 106.66666666666667 L 182.796875 106.66666666666667 "/><path d="M 162.796875 65.66666666666667 L 170.796875 65.66666666666667 C 171.796875 65.66666666666667 172.796875 66.66666666666667 172.796875 67.66666666666667 L 172.796875 104.66666666666667 C 172.796875 105.66666666666667 173.796875 106.66666666666667 174.796875 106.66666666666667 L 182.796875 106.66666666666667 " class="clickable"/></g><circle r="3" id="sprotty_ArchitectureBlockImpl$dmi_jtag_to_core_sync/AssignmentBlockImpl$c_wr_en/GPortImpl$wrenOUT_to_ArchitectureBlockImpl$dmi_jtag_to_core_sync/AssignmentBlockImpl$reg_en/GPortImpl$c_wr_enIN/junction0" transform="translate(172.796875, 65.66666666666667)" class="sprotty-junction thick" style="fill:rgb(112, 112, 112);stroke:none;"/></g><g id="sprotty_ArchitectureBlockImpl$dmi_jtag_to_core_sync/AssignmentBlockImpl$c_wr_en/GPortImpl$wrenOUT_to_ArchitectureBlockImpl$dmi_jtag_to_core_sync/AssignmentBlockImpl$reg_wr_en/GPortImpl$c_wr_enIN" class="sprotty-edge thick edge" style="fill:none;stroke:rgb(112, 112, 112);stroke-linejoin:round;stroke-width:3px;"><g><path d="M 162.796875 65.66666666666667 L 182.796875 65.66666666666667 "/><path d="M 162.796875 65.66666666666667 L 182.796875 65.66666666666667 " class="clickable"/></g></g><g id="sprotty_ArchitectureBlockImpl$dmi_jtag_to_core_sync/AlwaysBlockImpl$null6/GPortImpl$rdenOUT_to_ArchitectureBlockImpl$dmi_jtag_to_core_sync/AssignmentBlockImpl$c_rd_en/GPortImpl$rdenIN" class="sprotty-edge thick edge" style="fill:none;stroke:rgb(112, 112, 112);stroke-linejoin:round;stroke-width:3px;"><g><path d="M 123.359375 82.33333333333334 L 131.359375 82.33333333333334 C 132.359375 82.33333333333334 133.359375 83.33333333333334 133.359375 84.33333333333334 L 133.359375 114.66666666666667 C 133.359375 115.66666666666667 134.359375 116.66666666666667 135.359375 116.66666666666667 L 143.359375 116.66666666666667 "/><path d="M 123.359375 82.33333333333334 L 131.359375 82.33333333333334 C 132.359375 82.33333333333334 133.359375 83.33333333333334 133.359375 84.33333333333334 L 133.359375 114.66666666666667 C 133.359375 115.66666666666667 134.359375 116.66666666666667 135.359375 116.66666666666667 L 143.359375 116.66666666666667 " class="clickable"/></g></g><g id="sprotty_ArchitectureBlockImpl$dmi_jtag_to_core_sync/AlwaysBlockImpl$null6/GPortImpl$wrenOUT_to_ArchitectureBlockImpl$dmi_jtag_to_core_sync/AssignmentBlockImpl$c_wr_en/GPortImpl$wrenIN" class="sprotty-edge thick edge" style="fill:none;stroke:rgb(112, 112, 112);stroke-linejoin:round;stroke-width:3px;"><g><path d="M 123.359375 65.66666666666667 L 143.359375 65.66666666666667 "/><path d="M 123.359375 65.66666666666667 L 143.359375 65.66666666666667 " class="clickable"/></g></g><g id="sprotty_ArchitectureBlockImpl$dmi_jtag_to_core_sync/AlwaysBlockImpl$null6" class="statement" transform="translate(85.96875, 49)"><rect x="0" y="0" rx="10" ry="5" width="37.390625" height="50" class="sprotty-node" style="fill:rgb(245, 245, 245);stroke:rgb(112, 112, 112);"/><text class="clickable sprotty-label statementtype" id="sprotty_ArchitectureBlockImpl$dmi_jtag_to_core_sync/AlwaysBlockImpl$null6/labeltype" transform="translate(5, 19) translate(13.671875, 9)" style="cursor:default;font-size:8px;font-weight:700;perspective-origin:0.0078125px 0px;fill:rgb(112, 112, 112);text-anchor:middle;">always</text><g id="sprotty_ArchitectureBlockImpl$dmi_jtag_to_core_sync/AlwaysBlockImpl$null6/GPortImpl$wr_enIN" class="sprotty-hidden hidden" transform="translate(0, 20)" style="display:block;height:0px;width:0px;"/><g id="sprotty_ArchitectureBlockImpl$dmi_jtag_to_core_sync/AlwaysBlockImpl$null6/GPortImpl$rd_enIN" class="sprotty-hidden hidden" transform="translate(0, 30)" style="display:block;height:0px;width:0px;"/><g id="sprotty_ArchitectureBlockImpl$dmi_jtag_to_core_sync/AlwaysBlockImpl$null6/GPortImpl$rst_nIN" class="sprotty-hidden hidden" transform="translate(0, 40)" style="display:block;height:0px;width:0px;"/><g id="sprotty_ArchitectureBlockImpl$dmi_jtag_to_core_sync/AlwaysBlockImpl$null6/GPortImpl$clkIN" class="sprotty-hidden hidden" transform="translate(0, 10)" style="display:block;height:0px;width:0px;"/><g id="sprotty_ArchitectureBlockImpl$dmi_jtag_to_core_sync/AlwaysBlockImpl$null6/GPortImpl$rdenOUT" class="sprotty-hidden hidden" transform="translate(37.390625, 33.333333333333336)" style="display:block;height:0px;width:0px;"/><g id="sprotty_ArchitectureBlockImpl$dmi_jtag_to_core_sync/AlwaysBlockImpl$null6/GPortImpl$wrenOUT" class="sprotty-hidden hidden" transform="translate(37.390625, 16.666666666666668)" style="display:block;height:0px;width:0px;"/></g><g id="sprotty_ArchitectureBlockImpl$dmi_jtag_to_core_sync/AssignmentBlockImpl$c_wr_en" class="statement" transform="translate(143.359375, 54.66666666666667)"><rect x="0" y="0" rx="10" ry="5" width="19.4375" height="22" class="sprotty-node" style="fill:rgb(245, 245, 245);stroke:rgb(112, 112, 112);"/><text class="clickable sprotty-label statementtype" id="sprotty_ArchitectureBlockImpl$dmi_jtag_to_core_sync/AssignmentBlockImpl$c_wr_en/labeltype" transform="translate(5, 5) translate(4.71875, 9)" style="cursor:default;font-size:8px;font-weight:700;perspective-origin:0px 0px;fill:rgb(112, 112, 112);text-anchor:middle;">&lt;=</text><g id="sprotty_ArchitectureBlockImpl$dmi_jtag_to_core_sync/AssignmentBlockImpl$c_wr_en/GPortImpl$wrenIN" class="sprotty-hidden hidden" transform="translate(0, 11)" style="display:block;height:0px;width:0px;"/><g id="sprotty_ArchitectureBlockImpl$dmi_jtag_to_core_sync/AssignmentBlockImpl$c_wr_en/GPortImpl$wrenOUT" class="sprotty-hidden hidden" transform="translate(19.4375, 11)" style="display:block;height:0px;width:0px;"/></g><g id="sprotty_ArchitectureBlockImpl$dmi_jtag_to_core_sync/AssignmentBlockImpl$c_rd_en" class="statement" transform="translate(143.359375, 105.66666666666667)"><rect x="0" y="0" rx="10" ry="5" width="19.4375" height="22" class="sprotty-node" style="fill:rgb(245, 245, 245);stroke:rgb(112, 112, 112);"/><text class="clickable sprotty-label statementtype" id="sprotty_ArchitectureBlockImpl$dmi_jtag_to_core_sync/AssignmentBlockImpl$c_rd_en/labeltype" transform="translate(5, 5) translate(4.71875, 9)" style="cursor:default;font-size:8px;font-weight:700;perspective-origin:0px 0px;fill:rgb(112, 112, 112);text-anchor:middle;">&lt;=</text><g id="sprotty_ArchitectureBlockImpl$dmi_jtag_to_core_sync/AssignmentBlockImpl$c_rd_en/GPortImpl$rdenIN" class="sprotty-hidden hidden" transform="translate(0, 11)" style="display:block;height:0px;width:0px;"/><g id="sprotty_ArchitectureBlockImpl$dmi_jtag_to_core_sync/AssignmentBlockImpl$c_rd_en/GPortImpl$rdenOUT" class="sprotty-hidden hidden" transform="translate(19.4375, 11)" style="display:block;height:0px;width:0px;"/></g><g id="sprotty_ArchitectureBlockImpl$dmi_jtag_to_core_sync/AssignmentBlockImpl$reg_wr_en" class="statement" transform="translate(182.796875, 54.66666666666667)"><rect x="0" y="0" rx="10" ry="5" width="19.4375" height="22" class="sprotty-node" style="fill:rgb(245, 245, 245);stroke:rgb(112, 112, 112);"/><text class="clickable sprotty-label statementtype" id="sprotty_ArchitectureBlockImpl$dmi_jtag_to_core_sync/AssignmentBlockImpl$reg_wr_en/labeltype" transform="translate(5, 5) translate(4.71875, 9)" style="cursor:default;font-size:8px;font-weight:700;perspective-origin:0px 0px;fill:rgb(112, 112, 112);text-anchor:middle;">&lt;=</text><g id="sprotty_ArchitectureBlockImpl$dmi_jtag_to_core_sync/AssignmentBlockImpl$reg_wr_en/GPortImpl$c_wr_enIN" class="sprotty-hidden hidden" transform="translate(0, 11)" style="display:block;height:0px;width:0px;"/><g id="sprotty_ArchitectureBlockImpl$dmi_jtag_to_core_sync/AssignmentBlockImpl$reg_wr_en/GPortImpl$reg_wr_enOUT" class="sprotty-hidden hidden" transform="translate(19.4375, 11)" style="display:block;height:0px;width:0px;"/></g><g id="sprotty_ArchitectureBlockImpl$dmi_jtag_to_core_sync/AssignmentBlockImpl$reg_en" class="statement" transform="translate(182.796875, 96.66666666666667)"><rect x="0" y="0" rx="10" ry="5" width="19.4375" height="30" class="sprotty-node" style="fill:rgb(245, 245, 245);stroke:rgb(112, 112, 112);"/><text class="clickable sprotty-label statementtype" id="sprotty_ArchitectureBlockImpl$dmi_jtag_to_core_sync/AssignmentBlockImpl$reg_en/labeltype" transform="translate(5, 9) translate(4.71875, 9)" style="cursor:default;font-size:8px;font-weight:700;perspective-origin:0px 0px;fill:rgb(112, 112, 112);text-anchor:middle;">&lt;=</text><g id="sprotty_ArchitectureBlockImpl$dmi_jtag_to_core_sync/AssignmentBlockImpl$reg_en/GPortImpl$c_rd_enIN" class="sprotty-hidden hidden" transform="translate(0, 20)" style="display:block;height:0px;width:0px;"/><g id="sprotty_ArchitectureBlockImpl$dmi_jtag_to_core_sync/AssignmentBlockImpl$reg_en/GPortImpl$c_wr_enIN" class="sprotty-hidden hidden" transform="translate(0, 10)" style="display:block;height:0px;width:0px;"/><g id="sprotty_ArchitectureBlockImpl$dmi_jtag_to_core_sync/AssignmentBlockImpl$reg_en/GPortImpl$reg_enOUT" class="sprotty-hidden hidden" transform="translate(19.4375, 15)" style="display:block;height:0px;width:0px;"/></g><g id="sprotty_ArchitectureBlockImpl$dmi_jtag_to_core_sync/BPortImpl$clk" class="triangle" transform="translate(0, 35)"><path d="M 0,0 L 5,2.5 L 0,5 Z" transform="translate(-1.67, -2.5)" class="sprotty-port" style="fill:rgb(48, 48, 48);stroke:rgb(48, 48, 48);"/><text class="clickable sprotty-label port" id="sprotty_ArchitectureBlockImpl$dmi_jtag_to_core_sync/BPortImpl$clk/label" transform="translate(6, 6) translate(8.078125, 14)" style="cursor:default;font-size:12px;perspective-origin:0.09375px 0px;fill:rgb(48, 48, 48);text-anchor:middle;">clk</text></g><g id="sprotty_ArchitectureBlockImpl$dmi_jtag_to_core_sync/BPortImpl$rst_n" class="triangle" transform="translate(0, 137)"><path d="M 0,0 L 5,2.5 L 0,5 Z" transform="translate(-1.67, -2.5)" class="sprotty-port" style="fill:rgb(48, 48, 48);stroke:rgb(48, 48, 48);"/><text class="clickable sprotty-label port" id="sprotty_ArchitectureBlockImpl$dmi_jtag_to_core_sync/BPortImpl$rst_n/label" transform="translate(6, 6) translate(14.265625, 14)" style="cursor:default;font-size:12px;perspective-origin:0px 0px;fill:rgb(48, 48, 48);text-anchor:middle;">rst_n</text></g><g id="sprotty_ArchitectureBlockImpl$dmi_jtag_to_core_sync/BPortImpl$wr_en" class="triangle" transform="translate(0, 69)"><path d="M 0,0 L 5,2.5 L 0,5 Z" transform="translate(-1.67, -2.5)" class="sprotty-port" style="fill:rgb(48, 48, 48);stroke:rgb(48, 48, 48);"/><text class="clickable sprotty-label port" id="sprotty_ArchitectureBlockImpl$dmi_jtag_to_core_sync/BPortImpl$wr_en/label" transform="translate(6, 6) translate(17.484375, 14)" style="cursor:default;font-size:12px;perspective-origin:0px 0px;fill:rgb(48, 48, 48);text-anchor:middle;">wr_en</text></g><g id="sprotty_ArchitectureBlockImpl$dmi_jtag_to_core_sync/BPortImpl$rd_en" class="triangle" transform="translate(0, 103)"><path d="M 0,0 L 5,2.5 L 0,5 Z" transform="translate(-1.67, -2.5)" class="sprotty-port" style="fill:rgb(48, 48, 48);stroke:rgb(48, 48, 48);"/><text class="clickable sprotty-label port" id="sprotty_ArchitectureBlockImpl$dmi_jtag_to_core_sync/BPortImpl$rd_en/label" transform="translate(6, 6) translate(16.328125, 14)" style="cursor:default;font-size:12px;perspective-origin:0px 0px;fill:rgb(48, 48, 48);text-anchor:middle;">rd_en</text></g><g id="sprotty_ArchitectureBlockImpl$dmi_jtag_to_core_sync/BPortImpl$reg_en" class="triangle" transform="translate(282.734375, 111.66666666666667)"><path d="M 0,0 L 5,2.5 L 0,5 Z" transform="translate(-1.67, -2.5)" class="sprotty-port" style="fill:rgb(48, 48, 48);stroke:rgb(48, 48, 48);"/><text class="clickable sprotty-label port" id="sprotty_ArchitectureBlockImpl$dmi_jtag_to_core_sync/BPortImpl$reg_en/label" transform="translate(-44.5, 6) translate(19.25, 14)" style="cursor:default;font-size:12px;perspective-origin:0px 0px;fill:rgb(48, 48, 48);text-anchor:middle;">reg_en</text></g><g id="sprotty_ArchitectureBlockImpl$dmi_jtag_to_core_sync/BPortImpl$reg_wr_en" class="triangle" transform="translate(282.734375, 65.66666666666667)"><path d="M 0,0 L 5,2.5 L 0,5 Z" transform="translate(-1.67, -2.5)" class="sprotty-port" style="fill:rgb(48, 48, 48);stroke:rgb(48, 48, 48);"/><text class="clickable sprotty-label port" id="sprotty_ArchitectureBlockImpl$dmi_jtag_to_core_sync/BPortImpl$reg_wr_en/label" transform="translate(-65.5, 6) translate(29.75, 14)" style="cursor:default;font-size:12px;perspective-origin:0px 0px;fill:rgb(48, 48, 48);text-anchor:middle;">reg_wr_en</text></g></g></g></svg>