<svg xmlns="http://www.w3.org/2000/svg" id="sprotty_work.rvdffppe" class="sprotty-graph sprotty-block-diagram blockdiagram" style="font-family:&quot;Noto Sans&quot;, Helvetica, Arial, sans-serif;perspective-origin:0px 0px;transform-origin:0px 0px;" version="1.1" viewBox="7 7 241.375 274" width="241.375" height="274"><g transform="scale(1) translate(0,0)"><g id="sprotty_ArchitectureBlockImpl$rvdffppe" class="architecture" transform="translate(12, 12)"><g class="sprotty-block" style="fill:rgb(255, 255, 255);stroke:rgb(48, 48, 48);stroke-dasharray:0px;"><rect x="0" y="0" rx="1" ry="1" width="231.375" height="264"/><text x="115.6875" y="12" class="sprotty-block-name" style="cursor:pointer;font-weight:700;perspective-origin:57.8438px 0px;fill:rgb(48, 48, 48);stroke:rgba(0, 0, 0, 0);dominant-baseline:middle;text-anchor:middle;">rvdffppe</text><line x1="0" y1="20" x2="231.375" y2="20"/></g><g id="sprotty_ArchitectureBlockImpl$rvdffppe/GenerateStatementBlockImpl$null6/GPortImpl$dout_to_ArchitectureBlockImpl$rvdffppe/BPortImpl$dout" class="sprotty-edge thick edge" style="fill:none;stroke:rgb(112, 112, 112);stroke-linejoin:round;stroke-width:3px;"><g><path d="M 183.84375 130 L 231.375 130 "/><path d="M 183.84375 130 L 231.375 130 " class="clickable"/></g></g><g id="sprotty_ArchitectureBlockImpl$rvdffppe/BPortImpl$din_to_ArchitectureBlockImpl$rvdffppe/GenerateStatementBlockImpl$null6/GPortImpl$din" class="sprotty-edge thick edge" style="fill:none;stroke:rgb(112, 112, 112);stroke-linejoin:round;stroke-width:3px;"><g><path d="M 0 76 L 53.625 76 C 54.625 76 55.625 77 55.625 78 L 55.625 86 C 55.625 87 56.625 88 57.625 88 L 65.625 88 "/><path d="M 0 76 L 53.625 76 C 54.625 76 55.625 77 55.625 78 L 55.625 86 C 55.625 87 56.625 88 57.625 88 L 65.625 88 " class="clickable"/></g></g><g id="sprotty_ArchitectureBlockImpl$rvdffppe/BPortImpl$en_to_ArchitectureBlockImpl$rvdffppe/GenerateStatementBlockImpl$null6/GPortImpl$en" class="sprotty-edge edge" style="fill:none;stroke:rgb(112, 112, 112);stroke-linejoin:round;"><g><path d="M 0 110 L 53.625 110 C 54.625 110 55.625 111 55.625 112 L 55.625 114 C 55.625 115 56.625 116 57.625 116 L 65.625 116 "/><path d="M 0 110 L 53.625 110 C 54.625 110 55.625 111 55.625 112 L 55.625 114 C 55.625 115 56.625 116 57.625 116 L 65.625 116 " class="clickable"/></g></g><g id="sprotty_ArchitectureBlockImpl$rvdffppe/BPortImpl$clk_to_ArchitectureBlockImpl$rvdffppe/GenerateStatementBlockImpl$null6/GPortImpl$clk" class="sprotty-edge edge" style="fill:none;stroke:rgb(112, 112, 112);stroke-linejoin:round;"><g><path d="M 0 144 L 65.625 144 "/><path d="M 0 144 L 65.625 144 " class="clickable"/></g></g><g id="sprotty_ArchitectureBlockImpl$rvdffppe/BPortImpl$rst_l_to_ArchitectureBlockImpl$rvdffppe/GenerateStatementBlockImpl$null6/GPortImpl$rst_l" class="sprotty-edge edge" style="fill:none;stroke:rgb(112, 112, 112);stroke-linejoin:round;"><g><path d="M 0 178 L 53.625 178 C 54.625 178 55.625 177 55.625 176 L 55.625 174 C 55.625 173 56.625 172 57.625 172 L 65.625 172 "/><path d="M 0 178 L 53.625 178 C 54.625 178 55.625 177 55.625 176 L 55.625 174 C 55.625 173 56.625 172 57.625 172 L 65.625 172 " class="clickable"/></g></g><g id="sprotty_ArchitectureBlockImpl$rvdffppe/GenerateStatementBlockImpl$null6" class="generate" transform="translate(65.625, 35)"><g class="sprotty-block sprotty-block-generate" style="fill:rgb(255, 255, 255);stroke:rgb(48, 48, 48);stroke-dasharray:0px;"><rect x="0" y="0" rx="1" ry="1" width="118.21875" height="170" style="stroke-dasharray:3px, 1px;"/><text x="59.109375" y="12" class="sprotty-block-name" style="cursor:pointer;font-weight:700;fill:rgb(48, 48, 48);stroke:rgba(0, 0, 0, 0);dominant-baseline:middle;text-anchor:middle;"/></g><g id="sprotty_ArchitectureBlockImpl$rvdffppe/GenerateStatementBlockImpl$null6/InstantiationBlockImpl$dff/BPortImpl$dout_to_ArchitectureBlockImpl$rvdffppe/GenerateStatementBlockImpl$null6/GPortImpl$dout" class="sprotty-edge thick edge" style="fill:none;stroke:rgb(112, 112, 112);stroke-linejoin:round;stroke-width:3px;"><g><path d="M 103.21875 95 L 118.21875 95 "/><path d="M 103.21875 95 L 118.21875 95 " class="clickable"/></g></g><g id="sprotty_ArchitectureBlockImpl$rvdffppe/GenerateStatementBlockImpl$null6/GPortImpl$din_to_ArchitectureBlockImpl$rvdffppe/GenerateStatementBlockImpl$null6/InstantiationBlockImpl$dff/BPortImpl$din" class="sprotty-edge thick edge" style="fill:none;stroke:rgb(112, 112, 112);stroke-linejoin:round;stroke-width:3px;"><g><path d="M 0 53 L 15 53 "/><path d="M 0 53 L 15 53 " class="clickable"/></g></g><g id="sprotty_ArchitectureBlockImpl$rvdffppe/GenerateStatementBlockImpl$null6/GPortImpl$en_to_ArchitectureBlockImpl$rvdffppe/GenerateStatementBlockImpl$null6/InstantiationBlockImpl$dff/BPortImpl$en" class="sprotty-edge edge" style="fill:none;stroke:rgb(112, 112, 112);stroke-linejoin:round;"><g><path d="M 0 81 L 15 81 "/><path d="M 0 81 L 15 81 " class="clickable"/></g></g><g id="sprotty_ArchitectureBlockImpl$rvdffppe/GenerateStatementBlockImpl$null6/GPortImpl$clk_to_ArchitectureBlockImpl$rvdffppe/GenerateStatementBlockImpl$null6/InstantiationBlockImpl$dff/BPortImpl$clk" class="sprotty-edge edge" style="fill:none;stroke:rgb(112, 112, 112);stroke-linejoin:round;"><g><path d="M 0 109 L 15 109 "/><path d="M 0 109 L 15 109 " class="clickable"/></g></g><g id="sprotty_ArchitectureBlockImpl$rvdffppe/GenerateStatementBlockImpl$null6/GPortImpl$rst_l_to_ArchitectureBlockImpl$rvdffppe/GenerateStatementBlockImpl$null6/InstantiationBlockImpl$dff/BPortImpl$rst_l" class="sprotty-edge edge" style="fill:none;stroke:rgb(112, 112, 112);stroke-linejoin:round;"><g><path d="M 0 137 L 15 137 "/><path d="M 0 137 L 15 137 " class="clickable"/></g></g><g id="sprotty_ArchitectureBlockImpl$rvdffppe/GenerateStatementBlockImpl$null6/InstantiationBlockImpl$dff" class="instantiation" transform="translate(15, 15)"><g class="sprotty-block" style="fill:rgb(255, 255, 255);stroke:rgb(48, 48, 48);stroke-dasharray:0px;"><rect x="0" y="0" rx="1" ry="1" width="88.21875" height="140"/><text x="44.109375" y="12" class="sprotty-block-name" style="cursor:pointer;font-weight:700;perspective-origin:22.0547px 0px;fill:rgb(48, 48, 48);stroke:rgba(0, 0, 0, 0);dominant-baseline:middle;text-anchor:middle;">dff : rvdffs</text><line x1="0" y1="20" x2="88.21875" y2="20"/></g><g id="sprotty_ArchitectureBlockImpl$rvdffppe/GenerateStatementBlockImpl$null6/InstantiationBlockImpl$dff/BPortImpl$rst_l" class="triangle" transform="translate(0, 122)"><path d="M 0,0 L 5,2.5 L 0,5 Z" transform="translate(-1.67, -2.5)" class="sprotty-port" style="fill:rgb(48, 48, 48);stroke:rgb(48, 48, 48);"/><text class="clickable sprotty-label port" id="sprotty_ArchitectureBlockImpl$rvdffppe/GenerateStatementBlockImpl$null6/InstantiationBlockImpl$dff/BPortImpl$rst_l/label" transform="translate(6, -9) translate(12.3125, 14)" style="cursor:default;font-size:12px;perspective-origin:0px 0px;fill:rgb(48, 48, 48);text-anchor:middle;">rst_l</text></g><g id="sprotty_ArchitectureBlockImpl$rvdffppe/GenerateStatementBlockImpl$null6/InstantiationBlockImpl$dff/BPortImpl$clk" class="triangle" transform="translate(0, 94)"><path d="M 0,0 L 5,2.5 L 0,5 Z" transform="translate(-1.67, -2.5)" class="sprotty-port" style="fill:rgb(48, 48, 48);stroke:rgb(48, 48, 48);"/><text class="clickable sprotty-label port" id="sprotty_ArchitectureBlockImpl$rvdffppe/GenerateStatementBlockImpl$null6/InstantiationBlockImpl$dff/BPortImpl$clk/label" transform="translate(6, -9) translate(8.078125, 14)" style="cursor:default;font-size:12px;perspective-origin:0.09375px 0px;fill:rgb(48, 48, 48);text-anchor:middle;">clk</text></g><g id="sprotty_ArchitectureBlockImpl$rvdffppe/GenerateStatementBlockImpl$null6/InstantiationBlockImpl$dff/BPortImpl$en" class="triangle" transform="translate(0, 66)"><path d="M 0,0 L 5,2.5 L 0,5 Z" transform="translate(-1.67, -2.5)" class="sprotty-port" style="fill:rgb(48, 48, 48);stroke:rgb(48, 48, 48);"/><text class="clickable sprotty-label port" id="sprotty_ArchitectureBlockImpl$rvdffppe/GenerateStatementBlockImpl$null6/InstantiationBlockImpl$dff/BPortImpl$en/label" transform="translate(6, -9) translate(7, 14)" style="cursor:default;font-size:12px;perspective-origin:0px 0px;fill:rgb(48, 48, 48);text-anchor:middle;">en</text></g><g id="sprotty_ArchitectureBlockImpl$rvdffppe/GenerateStatementBlockImpl$null6/InstantiationBlockImpl$dff/BPortImpl$din" class="triangle" transform="translate(0, 38)"><path d="M 0,0 L 5,2.5 L 0,5 Z" transform="translate(-1.67, -2.5)" class="sprotty-port" style="fill:rgb(48, 48, 48);stroke:rgb(48, 48, 48);"/><text class="clickable sprotty-label port" id="sprotty_ArchitectureBlockImpl$rvdffppe/GenerateStatementBlockImpl$null6/InstantiationBlockImpl$dff/BPortImpl$din/label" transform="translate(6, -9) translate(9.046875, 14)" style="cursor:default;font-size:12px;perspective-origin:0px 0px;fill:rgb(48, 48, 48);text-anchor:middle;">din</text></g><g id="sprotty_ArchitectureBlockImpl$rvdffppe/GenerateStatementBlockImpl$null6/InstantiationBlockImpl$dff/BPortImpl$dout" class="triangle" transform="translate(88.21875, 80)"><path d="M 0,0 L 5,2.5 L 0,5 Z" transform="translate(-1.67, -2.5)" class="sprotty-port" style="fill:rgb(48, 48, 48);stroke:rgb(48, 48, 48);"/><text class="clickable sprotty-label port" id="sprotty_ArchitectureBlockImpl$rvdffppe/GenerateStatementBlockImpl$null6/InstantiationBlockImpl$dff/BPortImpl$dout/label" transform="translate(-32.53125, -9) translate(13.265625, 14)" style="cursor:default;font-size:12px;perspective-origin:0px 0px;fill:rgb(48, 48, 48);text-anchor:middle;">dout</text></g></g><g id="sprotty_ArchitectureBlockImpl$rvdffppe/GenerateStatementBlockImpl$null6/GPortImpl$rst_l" class="triangle" transform="translate(0, 137)"><path d="M 0,0 L 5,2.5 L 0,5 Z" transform="translate(-1.67, -2.5)" class="sprotty-port" style="fill:rgb(48, 48, 48);stroke:rgb(48, 48, 48);"/></g><g id="sprotty_ArchitectureBlockImpl$rvdffppe/GenerateStatementBlockImpl$null6/GPortImpl$clk" class="triangle" transform="translate(0, 109)"><path d="M 0,0 L 5,2.5 L 0,5 Z" transform="translate(-1.67, -2.5)" class="sprotty-port" style="fill:rgb(48, 48, 48);stroke:rgb(48, 48, 48);"/></g><g id="sprotty_ArchitectureBlockImpl$rvdffppe/GenerateStatementBlockImpl$null6/GPortImpl$en" class="triangle" transform="translate(0, 81)"><path d="M 0,0 L 5,2.5 L 0,5 Z" transform="translate(-1.67, -2.5)" class="sprotty-port" style="fill:rgb(48, 48, 48);stroke:rgb(48, 48, 48);"/></g><g id="sprotty_ArchitectureBlockImpl$rvdffppe/GenerateStatementBlockImpl$null6/GPortImpl$din" class="triangle" transform="translate(0, 53)"><path d="M 0,0 L 5,2.5 L 0,5 Z" transform="translate(-1.67, -2.5)" class="sprotty-port" style="fill:rgb(48, 48, 48);stroke:rgb(48, 48, 48);"/></g><g id="sprotty_ArchitectureBlockImpl$rvdffppe/GenerateStatementBlockImpl$null6/GPortImpl$dout" class="triangle" transform="translate(118.21875, 95)"><path d="M 0,0 L 5,2.5 L 0,5 Z" transform="translate(-1.67, -2.5)" class="sprotty-port" style="fill:rgb(48, 48, 48);stroke:rgb(48, 48, 48);"/></g></g><g id="sprotty_ArchitectureBlockImpl$rvdffppe/BPortImpl$scan_mode" class="triangle" transform="translate(0, 225)"><path d="M 0,0 L 5,2.5 L 0,5 Z" transform="translate(-1.67, -2.5)" class="sprotty-port" style="fill:rgb(48, 48, 48);stroke:rgb(48, 48, 48);"/><text class="clickable sprotty-label port" id="sprotty_ArchitectureBlockImpl$rvdffppe/BPortImpl$scan_mode/label" transform="translate(6, 6) translate(32.4375, 14)" style="cursor:default;font-size:12px;perspective-origin:0px 0px;fill:rgb(48, 48, 48);text-anchor:middle;">scan_mode</text></g><g id="sprotty_ArchitectureBlockImpl$rvdffppe/BPortImpl$en" class="triangle" transform="translate(0, 110)"><path d="M 0,0 L 5,2.5 L 0,5 Z" transform="translate(-1.67, -2.5)" class="sprotty-port" style="fill:rgb(48, 48, 48);stroke:rgb(48, 48, 48);"/><text class="clickable sprotty-label port" id="sprotty_ArchitectureBlockImpl$rvdffppe/BPortImpl$en/label" transform="translate(6, 6) translate(7, 14)" style="cursor:default;font-size:12px;perspective-origin:0px 0px;fill:rgb(48, 48, 48);text-anchor:middle;">en</text></g><g id="sprotty_ArchitectureBlockImpl$rvdffppe/BPortImpl$rst_l" class="triangle" transform="translate(0, 178)"><path d="M 0,0 L 5,2.5 L 0,5 Z" transform="translate(-1.67, -2.5)" class="sprotty-port" style="fill:rgb(48, 48, 48);stroke:rgb(48, 48, 48);"/><text class="clickable sprotty-label port" id="sprotty_ArchitectureBlockImpl$rvdffppe/BPortImpl$rst_l/label" transform="translate(6, 6) translate(12.3125, 14)" style="cursor:default;font-size:12px;perspective-origin:0px 0px;fill:rgb(48, 48, 48);text-anchor:middle;">rst_l</text></g><g id="sprotty_ArchitectureBlockImpl$rvdffppe/BPortImpl$clk" class="triangle" transform="translate(0, 144)"><path d="M 0,0 L 5,2.5 L 0,5 Z" transform="translate(-1.67, -2.5)" class="sprotty-port" style="fill:rgb(48, 48, 48);stroke:rgb(48, 48, 48);"/><text class="clickable sprotty-label port" id="sprotty_ArchitectureBlockImpl$rvdffppe/BPortImpl$clk/label" transform="translate(6, 6) translate(8.078125, 14)" style="cursor:default;font-size:12px;perspective-origin:0.09375px 0px;fill:rgb(48, 48, 48);text-anchor:middle;">clk</text></g><g id="sprotty_ArchitectureBlockImpl$rvdffppe/BPortImpl$din" class="triangle" transform="translate(0, 76)"><path d="M 0,0 L 5,2.5 L 0,5 Z" transform="translate(-1.67, -2.5)" class="sprotty-port" style="fill:rgb(48, 48, 48);stroke:rgb(48, 48, 48);"/><text class="clickable sprotty-label port" id="sprotty_ArchitectureBlockImpl$rvdffppe/BPortImpl$din/label" transform="translate(6, 6) translate(9.046875, 14)" style="cursor:default;font-size:12px;perspective-origin:0px 0px;fill:rgb(48, 48, 48);text-anchor:middle;">din</text></g><g id="sprotty_ArchitectureBlockImpl$rvdffppe/BPortImpl$dout" class="triangle" transform="translate(231.375, 130)"><path d="M 0,0 L 5,2.5 L 0,5 Z" transform="translate(-1.67, -2.5)" class="sprotty-port" style="fill:rgb(48, 48, 48);stroke:rgb(48, 48, 48);"/><text class="clickable sprotty-label port" id="sprotty_ArchitectureBlockImpl$rvdffppe/BPortImpl$dout/label" transform="translate(-32.53125, 6) translate(13.265625, 14)" style="cursor:default;font-size:12px;perspective-origin:0px 0px;fill:rgb(48, 48, 48);text-anchor:middle;">dout</text></g></g></g></svg>