<svg xmlns="http://www.w3.org/2000/svg" id="sprotty_work.rvecc_decode_64" class="sprotty-graph sprotty-block-diagram blockdiagram" style="font-family:&quot;Noto Sans&quot;, Helvetica, Arial, sans-serif;perspective-origin:0px 0px;transform-origin:0px 0px;" version="1.1" viewBox="7 7 240.21875 407" width="240.21875" height="407"><g transform="scale(1) translate(0,0)"><g id="sprotty_ArchitectureBlockImpl$rvecc_decode_64" class="architecture" transform="translate(12, 12)"><g class="sprotty-block" style="fill:rgb(255, 255, 255);stroke:rgb(48, 48, 48);stroke-dasharray:0px;"><rect x="0" y="0" rx="1" ry="1" width="230.21875" height="397"/><text x="115.109375" y="12" class="sprotty-block-name" style="cursor:pointer;font-weight:700;perspective-origin:57.5547px 0px;fill:rgb(48, 48, 48);stroke:rgba(0, 0, 0, 0);dominant-baseline:middle;text-anchor:middle;">rvecc_decode_64</text><line x1="0" y1="20" x2="230.21875" y2="20"/></g><g id="sprotty_ArchitectureBlockImpl$rvecc_decode_64/AssignmentBlockImpl$ecc_error/GPortImpl$ecc_errorOUT_to_ArchitectureBlockImpl$rvecc_decode_64/BPortImpl$ecc_error" class="sprotty-edge edge" style="fill:none;stroke:rgb(112, 112, 112);stroke-linejoin:round;"><g><path d="M 155.8125 358 L 230.21875 358 "/><path d="M 155.8125 358 L 230.21875 358 " class="clickable"/></g></g><g id="sprotty_ArchitectureBlockImpl$rvecc_decode_64/BPortImpl$ecc_in_to_ArchitectureBlockImpl$rvecc_decode_64/AssignmentBlockImpl$ecc_check6/GPortImpl$ecc_inIN" class="sprotty-edge thick edge" style="fill:none;stroke:rgb(112, 112, 112);stroke-linejoin:round;stroke-width:3px;"><g><path d="M 0 108 L 86.9375 108 "/><path d="M 0 108 L 86.9375 108 " class="clickable"/></g></g><g id="sprotty_ArchitectureBlockImpl$rvecc_decode_64/BPortImpl$din_to_ArchitectureBlockImpl$rvecc_decode_64/AssignmentBlockImpl$ecc_check6/GPortImpl$dinIN" class="sprotty-edge thick edge" style="fill:none;stroke:rgb(112, 112, 112);stroke-linejoin:round;stroke-width:3px;"><g><path d="M 0 218 L 64.9375 218 C 65.9375 218 66.9375 217 66.9375 216 L 66.9375 120 C 66.9375 119 67.9375 118 68.9375 118 L 86.9375 118 "/><path d="M 0 218 L 64.9375 218 C 65.9375 218 66.9375 217 66.9375 216 L 66.9375 120 C 66.9375 119 67.9375 118 68.9375 118 L 86.9375 118 " class="clickable"/></g><circle r="3" id="sprotty_ArchitectureBlockImpl$rvecc_decode_64/BPortImpl$din_to_ArchitectureBlockImpl$rvecc_decode_64/AssignmentBlockImpl$ecc_check6/GPortImpl$dinIN/junction0" transform="translate(66.9375, 218)" class="sprotty-junction thick" style="fill:rgb(112, 112, 112);stroke:none;"/><circle r="3" id="sprotty_ArchitectureBlockImpl$rvecc_decode_64/BPortImpl$din_to_ArchitectureBlockImpl$rvecc_decode_64/AssignmentBlockImpl$ecc_check6/GPortImpl$dinIN/junction1" transform="translate(66.9375, 118)" class="sprotty-junction thick" style="fill:rgb(112, 112, 112);stroke:none;"/></g><g id="sprotty_ArchitectureBlockImpl$rvecc_decode_64/BPortImpl$ecc_in_to_ArchitectureBlockImpl$rvecc_decode_64/AssignmentBlockImpl$ecc_check5/GPortImpl$ecc_inIN" class="sprotty-edge thick edge" style="fill:none;stroke:rgb(112, 112, 112);stroke-linejoin:round;stroke-width:3px;"><g><path d="M 0 108 L 74.9375 108 C 75.9375 108 76.9375 107 76.9375 106 L 76.9375 60 C 76.9375 59 77.9375 58 78.9375 58 L 86.9375 58 "/><path d="M 0 108 L 74.9375 108 C 75.9375 108 76.9375 107 76.9375 106 L 76.9375 60 C 76.9375 59 77.9375 58 78.9375 58 L 86.9375 58 " class="clickable"/></g><circle r="3" id="sprotty_ArchitectureBlockImpl$rvecc_decode_64/BPortImpl$ecc_in_to_ArchitectureBlockImpl$rvecc_decode_64/AssignmentBlockImpl$ecc_check5/GPortImpl$ecc_inIN/junction0" transform="translate(76.9375, 108)" class="sprotty-junction thick" style="fill:rgb(112, 112, 112);stroke:none;"/></g><g id="sprotty_ArchitectureBlockImpl$rvecc_decode_64/BPortImpl$din_to_ArchitectureBlockImpl$rvecc_decode_64/AssignmentBlockImpl$ecc_check5/GPortImpl$dinIN" class="sprotty-edge thick edge" style="fill:none;stroke:rgb(112, 112, 112);stroke-linejoin:round;stroke-width:3px;"><g><path d="M 0 218 L 64.9375 218 C 65.9375 218 66.9375 217 66.9375 216 L 66.9375 70 C 66.9375 69 67.9375 68 68.9375 68 L 86.9375 68 "/><path d="M 0 218 L 64.9375 218 C 65.9375 218 66.9375 217 66.9375 216 L 66.9375 70 C 66.9375 69 67.9375 68 68.9375 68 L 86.9375 68 " class="clickable"/></g></g><g id="sprotty_ArchitectureBlockImpl$rvecc_decode_64/BPortImpl$ecc_in_to_ArchitectureBlockImpl$rvecc_decode_64/AssignmentBlockImpl$ecc_check4/GPortImpl$ecc_inIN" class="sprotty-edge thick edge" style="fill:none;stroke:rgb(112, 112, 112);stroke-linejoin:round;stroke-width:3px;"><g><path d="M 0 108 L 74.9375 108 C 75.9375 108 76.9375 109 76.9375 110 L 76.9375 356 C 76.9375 357 77.9375 358 78.9375 358 L 86.9375 358 "/><path d="M 0 108 L 74.9375 108 C 75.9375 108 76.9375 109 76.9375 110 L 76.9375 356 C 76.9375 357 77.9375 358 78.9375 358 L 86.9375 358 " class="clickable"/></g></g><g id="sprotty_ArchitectureBlockImpl$rvecc_decode_64/BPortImpl$din_to_ArchitectureBlockImpl$rvecc_decode_64/AssignmentBlockImpl$ecc_check4/GPortImpl$dinIN" class="sprotty-edge thick edge" style="fill:none;stroke:rgb(112, 112, 112);stroke-linejoin:round;stroke-width:3px;"><g><path d="M 0 218 L 64.9375 218 C 65.9375 218 66.9375 219 66.9375 220 L 66.9375 366 C 66.9375 367 67.9375 368 68.9375 368 L 86.9375 368 "/><path d="M 0 218 L 64.9375 218 C 65.9375 218 66.9375 219 66.9375 220 L 66.9375 366 C 66.9375 367 67.9375 368 68.9375 368 L 86.9375 368 " class="clickable"/></g></g><g id="sprotty_ArchitectureBlockImpl$rvecc_decode_64/BPortImpl$ecc_in_to_ArchitectureBlockImpl$rvecc_decode_64/AssignmentBlockImpl$ecc_check3/GPortImpl$ecc_inIN" class="sprotty-edge thick edge" style="fill:none;stroke:rgb(112, 112, 112);stroke-linejoin:round;stroke-width:3px;"><g><path d="M 0 108 L 74.9375 108 C 75.9375 108 76.9375 109 76.9375 110 L 76.9375 256 C 76.9375 257 77.9375 258 78.9375 258 L 86.9375 258 "/><path d="M 0 108 L 74.9375 108 C 75.9375 108 76.9375 109 76.9375 110 L 76.9375 256 C 76.9375 257 77.9375 258 78.9375 258 L 86.9375 258 " class="clickable"/></g><circle r="3" id="sprotty_ArchitectureBlockImpl$rvecc_decode_64/BPortImpl$ecc_in_to_ArchitectureBlockImpl$rvecc_decode_64/AssignmentBlockImpl$ecc_check3/GPortImpl$ecc_inIN/junction0" transform="translate(76.9375, 258)" class="sprotty-junction thick" style="fill:rgb(112, 112, 112);stroke:none;"/></g><g id="sprotty_ArchitectureBlockImpl$rvecc_decode_64/BPortImpl$din_to_ArchitectureBlockImpl$rvecc_decode_64/AssignmentBlockImpl$ecc_check3/GPortImpl$dinIN" class="sprotty-edge thick edge" style="fill:none;stroke:rgb(112, 112, 112);stroke-linejoin:round;stroke-width:3px;"><g><path d="M 0 218 L 64.9375 218 C 65.9375 218 66.9375 219 66.9375 220 L 66.9375 266 C 66.9375 267 67.9375 268 68.9375 268 L 86.9375 268 "/><path d="M 0 218 L 64.9375 218 C 65.9375 218 66.9375 219 66.9375 220 L 66.9375 266 C 66.9375 267 67.9375 268 68.9375 268 L 86.9375 268 " class="clickable"/></g><circle r="3" id="sprotty_ArchitectureBlockImpl$rvecc_decode_64/BPortImpl$din_to_ArchitectureBlockImpl$rvecc_decode_64/AssignmentBlockImpl$ecc_check3/GPortImpl$dinIN/junction0" transform="translate(66.9375, 268)" class="sprotty-junction thick" style="fill:rgb(112, 112, 112);stroke:none;"/></g><g id="sprotty_ArchitectureBlockImpl$rvecc_decode_64/BPortImpl$ecc_in_to_ArchitectureBlockImpl$rvecc_decode_64/AssignmentBlockImpl$ecc_check2/GPortImpl$ecc_inIN" class="sprotty-edge thick edge" style="fill:none;stroke:rgb(112, 112, 112);stroke-linejoin:round;stroke-width:3px;"><g><path d="M 0 108 L 74.9375 108 C 75.9375 108 76.9375 109 76.9375 110 L 76.9375 156 C 76.9375 157 77.9375 158 78.9375 158 L 86.9375 158 "/><path d="M 0 108 L 74.9375 108 C 75.9375 108 76.9375 109 76.9375 110 L 76.9375 156 C 76.9375 157 77.9375 158 78.9375 158 L 86.9375 158 " class="clickable"/></g><circle r="3" id="sprotty_ArchitectureBlockImpl$rvecc_decode_64/BPortImpl$ecc_in_to_ArchitectureBlockImpl$rvecc_decode_64/AssignmentBlockImpl$ecc_check2/GPortImpl$ecc_inIN/junction0" transform="translate(76.9375, 158)" class="sprotty-junction thick" style="fill:rgb(112, 112, 112);stroke:none;"/></g><g id="sprotty_ArchitectureBlockImpl$rvecc_decode_64/BPortImpl$din_to_ArchitectureBlockImpl$rvecc_decode_64/AssignmentBlockImpl$ecc_check2/GPortImpl$dinIN" class="sprotty-edge thick edge" style="fill:none;stroke:rgb(112, 112, 112);stroke-linejoin:round;stroke-width:3px;"><g><path d="M 0 218 L 64.9375 218 C 65.9375 218 66.9375 217 66.9375 216 L 66.9375 170 C 66.9375 169 67.9375 168 68.9375 168 L 86.9375 168 "/><path d="M 0 218 L 64.9375 218 C 65.9375 218 66.9375 217 66.9375 216 L 66.9375 170 C 66.9375 169 67.9375 168 68.9375 168 L 86.9375 168 " class="clickable"/></g><circle r="3" id="sprotty_ArchitectureBlockImpl$rvecc_decode_64/BPortImpl$din_to_ArchitectureBlockImpl$rvecc_decode_64/AssignmentBlockImpl$ecc_check2/GPortImpl$dinIN/junction0" transform="translate(66.9375, 168)" class="sprotty-junction thick" style="fill:rgb(112, 112, 112);stroke:none;"/></g><g id="sprotty_ArchitectureBlockImpl$rvecc_decode_64/BPortImpl$ecc_in_to_ArchitectureBlockImpl$rvecc_decode_64/AssignmentBlockImpl$ecc_check1/GPortImpl$ecc_inIN" class="sprotty-edge thick edge" style="fill:none;stroke:rgb(112, 112, 112);stroke-linejoin:round;stroke-width:3px;"><g><path d="M 0 108 L 74.9375 108 C 75.9375 108 76.9375 109 76.9375 110 L 76.9375 306 C 76.9375 307 77.9375 308 78.9375 308 L 86.9375 308 "/><path d="M 0 108 L 74.9375 108 C 75.9375 108 76.9375 109 76.9375 110 L 76.9375 306 C 76.9375 307 77.9375 308 78.9375 308 L 86.9375 308 " class="clickable"/></g><circle r="3" id="sprotty_ArchitectureBlockImpl$rvecc_decode_64/BPortImpl$ecc_in_to_ArchitectureBlockImpl$rvecc_decode_64/AssignmentBlockImpl$ecc_check1/GPortImpl$ecc_inIN/junction0" transform="translate(76.9375, 308)" class="sprotty-junction thick" style="fill:rgb(112, 112, 112);stroke:none;"/></g><g id="sprotty_ArchitectureBlockImpl$rvecc_decode_64/BPortImpl$din_to_ArchitectureBlockImpl$rvecc_decode_64/AssignmentBlockImpl$ecc_check1/GPortImpl$dinIN" class="sprotty-edge thick edge" style="fill:none;stroke:rgb(112, 112, 112);stroke-linejoin:round;stroke-width:3px;"><g><path d="M 0 218 L 64.9375 218 C 65.9375 218 66.9375 219 66.9375 220 L 66.9375 316 C 66.9375 317 67.9375 318 68.9375 318 L 86.9375 318 "/><path d="M 0 218 L 64.9375 218 C 65.9375 218 66.9375 219 66.9375 220 L 66.9375 316 C 66.9375 317 67.9375 318 68.9375 318 L 86.9375 318 " class="clickable"/></g><circle r="3" id="sprotty_ArchitectureBlockImpl$rvecc_decode_64/BPortImpl$din_to_ArchitectureBlockImpl$rvecc_decode_64/AssignmentBlockImpl$ecc_check1/GPortImpl$dinIN/junction0" transform="translate(66.9375, 318)" class="sprotty-junction thick" style="fill:rgb(112, 112, 112);stroke:none;"/></g><g id="sprotty_ArchitectureBlockImpl$rvecc_decode_64/BPortImpl$ecc_in_to_ArchitectureBlockImpl$rvecc_decode_64/AssignmentBlockImpl$ecc_check/GPortImpl$ecc_inIN" class="sprotty-edge thick edge" style="fill:none;stroke:rgb(112, 112, 112);stroke-linejoin:round;stroke-width:3px;"><g><path d="M 0 108 L 74.9375 108 C 75.9375 108 76.9375 109 76.9375 110 L 76.9375 206 C 76.9375 207 77.9375 208 78.9375 208 L 86.9375 208 "/><path d="M 0 108 L 74.9375 108 C 75.9375 108 76.9375 109 76.9375 110 L 76.9375 206 C 76.9375 207 77.9375 208 78.9375 208 L 86.9375 208 " class="clickable"/></g><circle r="3" id="sprotty_ArchitectureBlockImpl$rvecc_decode_64/BPortImpl$ecc_in_to_ArchitectureBlockImpl$rvecc_decode_64/AssignmentBlockImpl$ecc_check/GPortImpl$ecc_inIN/junction0" transform="translate(76.9375, 208)" class="sprotty-junction thick" style="fill:rgb(112, 112, 112);stroke:none;"/></g><g id="sprotty_ArchitectureBlockImpl$rvecc_decode_64/BPortImpl$din_to_ArchitectureBlockImpl$rvecc_decode_64/AssignmentBlockImpl$ecc_check/GPortImpl$dinIN" class="sprotty-edge thick edge" style="fill:none;stroke:rgb(112, 112, 112);stroke-linejoin:round;stroke-width:3px;"><g><path d="M 0 218 L 86.9375 218 "/><path d="M 0 218 L 86.9375 218 " class="clickable"/></g></g><g id="sprotty_ArchitectureBlockImpl$rvecc_decode_64/BPortImpl$en_to_ArchitectureBlockImpl$rvecc_decode_64/AssignmentBlockImpl$ecc_error/GPortImpl$enIN" class="sprotty-edge edge" style="fill:none;stroke:rgb(112, 112, 112);stroke-linejoin:round;"><g><path d="M 0 36 L 124.375 36 C 125.375 36 126.375 37 126.375 38 L 126.375 351 C 126.375 352 127.375 353 128.375 353 L 136.375 353 "/><path d="M 0 36 L 124.375 36 C 125.375 36 126.375 37 126.375 38 L 126.375 351 C 126.375 352 127.375 353 128.375 353 L 136.375 353 " class="clickable"/></g></g><g id="sprotty_ArchitectureBlockImpl$rvecc_decode_64/AssignmentBlockImpl$ecc_check6/GPortImpl$ecc_checkOUT_to_ArchitectureBlockImpl$rvecc_decode_64/AssignmentBlockImpl$ecc_error/GPortImpl$ecc_checkIN" class="sprotty-edge thick edge" style="fill:none;stroke:rgb(112, 112, 112);stroke-linejoin:round;stroke-width:3px;"><g><path d="M 106.375 113 L 114.375 113 C 115.375 113 116.375 114 116.375 115 L 116.375 361 C 116.375 362 117.375 363 118.375 363 L 136.375 363 "/><path d="M 106.375 113 L 114.375 113 C 115.375 113 116.375 114 116.375 115 L 116.375 361 C 116.375 362 117.375 363 118.375 363 L 136.375 363 " class="clickable"/></g><circle r="3" id="sprotty_ArchitectureBlockImpl$rvecc_decode_64/AssignmentBlockImpl$ecc_check6/GPortImpl$ecc_checkOUT_to_ArchitectureBlockImpl$rvecc_decode_64/AssignmentBlockImpl$ecc_error/GPortImpl$ecc_checkIN/junction0" transform="translate(116.375, 113)" class="sprotty-junction thick" style="fill:rgb(112, 112, 112);stroke:none;"/></g><g id="sprotty_ArchitectureBlockImpl$rvecc_decode_64/AssignmentBlockImpl$ecc_check5/GPortImpl$ecc_checkOUT_to_ArchitectureBlockImpl$rvecc_decode_64/AssignmentBlockImpl$ecc_error/GPortImpl$ecc_checkIN" class="sprotty-edge thick edge" style="fill:none;stroke:rgb(112, 112, 112);stroke-linejoin:round;stroke-width:3px;"><g><path d="M 106.375 63 L 114.375 63 C 115.375 63 116.375 64 116.375 65 L 116.375 361 C 116.375 362 117.375 363 118.375 363 L 136.375 363 "/><path d="M 106.375 63 L 114.375 63 C 115.375 63 116.375 64 116.375 65 L 116.375 361 C 116.375 362 117.375 363 118.375 363 L 136.375 363 " class="clickable"/></g><circle r="3" id="sprotty_ArchitectureBlockImpl$rvecc_decode_64/AssignmentBlockImpl$ecc_check5/GPortImpl$ecc_checkOUT_to_ArchitectureBlockImpl$rvecc_decode_64/AssignmentBlockImpl$ecc_error/GPortImpl$ecc_checkIN/junction0" transform="translate(116.375, 363)" class="sprotty-junction thick" style="fill:rgb(112, 112, 112);stroke:none;"/></g><g id="sprotty_ArchitectureBlockImpl$rvecc_decode_64/AssignmentBlockImpl$ecc_check4/GPortImpl$ecc_checkOUT_to_ArchitectureBlockImpl$rvecc_decode_64/AssignmentBlockImpl$ecc_error/GPortImpl$ecc_checkIN" class="sprotty-edge thick edge" style="fill:none;stroke:rgb(112, 112, 112);stroke-linejoin:round;stroke-width:3px;"><g><path d="M 106.375 363 L 136.375 363 "/><path d="M 106.375 363 L 136.375 363 " class="clickable"/></g></g><g id="sprotty_ArchitectureBlockImpl$rvecc_decode_64/AssignmentBlockImpl$ecc_check3/GPortImpl$ecc_checkOUT_to_ArchitectureBlockImpl$rvecc_decode_64/AssignmentBlockImpl$ecc_error/GPortImpl$ecc_checkIN" class="sprotty-edge thick edge" style="fill:none;stroke:rgb(112, 112, 112);stroke-linejoin:round;stroke-width:3px;"><g><path d="M 106.375 263 L 114.375 263 C 115.375 263 116.375 264 116.375 265 L 116.375 361 C 116.375 362 117.375 363 118.375 363 L 136.375 363 "/><path d="M 106.375 263 L 114.375 263 C 115.375 263 116.375 264 116.375 265 L 116.375 361 C 116.375 362 117.375 363 118.375 363 L 136.375 363 " class="clickable"/></g><circle r="3" id="sprotty_ArchitectureBlockImpl$rvecc_decode_64/AssignmentBlockImpl$ecc_check3/GPortImpl$ecc_checkOUT_to_ArchitectureBlockImpl$rvecc_decode_64/AssignmentBlockImpl$ecc_error/GPortImpl$ecc_checkIN/junction0" transform="translate(116.375, 263)" class="sprotty-junction thick" style="fill:rgb(112, 112, 112);stroke:none;"/></g><g id="sprotty_ArchitectureBlockImpl$rvecc_decode_64/AssignmentBlockImpl$ecc_check2/GPortImpl$ecc_checkOUT_to_ArchitectureBlockImpl$rvecc_decode_64/AssignmentBlockImpl$ecc_error/GPortImpl$ecc_checkIN" class="sprotty-edge thick edge" style="fill:none;stroke:rgb(112, 112, 112);stroke-linejoin:round;stroke-width:3px;"><g><path d="M 106.375 163 L 114.375 163 C 115.375 163 116.375 164 116.375 165 L 116.375 361 C 116.375 362 117.375 363 118.375 363 L 136.375 363 "/><path d="M 106.375 163 L 114.375 163 C 115.375 163 116.375 164 116.375 165 L 116.375 361 C 116.375 362 117.375 363 118.375 363 L 136.375 363 " class="clickable"/></g><circle r="3" id="sprotty_ArchitectureBlockImpl$rvecc_decode_64/AssignmentBlockImpl$ecc_check2/GPortImpl$ecc_checkOUT_to_ArchitectureBlockImpl$rvecc_decode_64/AssignmentBlockImpl$ecc_error/GPortImpl$ecc_checkIN/junction0" transform="translate(116.375, 163)" class="sprotty-junction thick" style="fill:rgb(112, 112, 112);stroke:none;"/></g><g id="sprotty_ArchitectureBlockImpl$rvecc_decode_64/AssignmentBlockImpl$ecc_check1/GPortImpl$ecc_checkOUT_to_ArchitectureBlockImpl$rvecc_decode_64/AssignmentBlockImpl$ecc_error/GPortImpl$ecc_checkIN" class="sprotty-edge thick edge" style="fill:none;stroke:rgb(112, 112, 112);stroke-linejoin:round;stroke-width:3px;"><g><path d="M 106.375 313 L 114.375 313 C 115.375 313 116.375 314 116.375 315 L 116.375 361 C 116.375 362 117.375 363 118.375 363 L 136.375 363 "/><path d="M 106.375 313 L 114.375 313 C 115.375 313 116.375 314 116.375 315 L 116.375 361 C 116.375 362 117.375 363 118.375 363 L 136.375 363 " class="clickable"/></g><circle r="3" id="sprotty_ArchitectureBlockImpl$rvecc_decode_64/AssignmentBlockImpl$ecc_check1/GPortImpl$ecc_checkOUT_to_ArchitectureBlockImpl$rvecc_decode_64/AssignmentBlockImpl$ecc_error/GPortImpl$ecc_checkIN/junction0" transform="translate(116.375, 313)" class="sprotty-junction thick" style="fill:rgb(112, 112, 112);stroke:none;"/></g><g id="sprotty_ArchitectureBlockImpl$rvecc_decode_64/AssignmentBlockImpl$ecc_check/GPortImpl$ecc_checkOUT_to_ArchitectureBlockImpl$rvecc_decode_64/AssignmentBlockImpl$ecc_error/GPortImpl$ecc_checkIN" class="sprotty-edge thick edge" style="fill:none;stroke:rgb(112, 112, 112);stroke-linejoin:round;stroke-width:3px;"><g><path d="M 106.375 213 L 114.375 213 C 115.375 213 116.375 214 116.375 215 L 116.375 361 C 116.375 362 117.375 363 118.375 363 L 136.375 363 "/><path d="M 106.375 213 L 114.375 213 C 115.375 213 116.375 214 116.375 215 L 116.375 361 C 116.375 362 117.375 363 118.375 363 L 136.375 363 " class="clickable"/></g><circle r="3" id="sprotty_ArchitectureBlockImpl$rvecc_decode_64/AssignmentBlockImpl$ecc_check/GPortImpl$ecc_checkOUT_to_ArchitectureBlockImpl$rvecc_decode_64/AssignmentBlockImpl$ecc_error/GPortImpl$ecc_checkIN/junction0" transform="translate(116.375, 213)" class="sprotty-junction thick" style="fill:rgb(112, 112, 112);stroke:none;"/></g><g id="sprotty_ArchitectureBlockImpl$rvecc_decode_64/AssignmentBlockImpl$ecc_error" class="statement" transform="translate(136.375, 343)"><rect x="0" y="0" rx="10" ry="5" width="19.4375" height="30" class="sprotty-node" style="fill:rgb(245, 245, 245);stroke:rgb(112, 112, 112);"/><text class="clickable sprotty-label statementtype" id="sprotty_ArchitectureBlockImpl$rvecc_decode_64/AssignmentBlockImpl$ecc_error/labeltype" transform="translate(5, 9) translate(4.71875, 9)" style="cursor:default;font-size:8px;font-weight:700;perspective-origin:0px 0px;fill:rgb(112, 112, 112);text-anchor:middle;">&lt;=</text><g id="sprotty_ArchitectureBlockImpl$rvecc_decode_64/AssignmentBlockImpl$ecc_error/GPortImpl$ecc_checkIN" class="sprotty-hidden hidden" transform="translate(0, 20)" style="display:block;height:0px;width:0px;"/><g id="sprotty_ArchitectureBlockImpl$rvecc_decode_64/AssignmentBlockImpl$ecc_error/GPortImpl$enIN" class="sprotty-hidden hidden" transform="translate(0, 10)" style="display:block;height:0px;width:0px;"/><g id="sprotty_ArchitectureBlockImpl$rvecc_decode_64/AssignmentBlockImpl$ecc_error/GPortImpl$ecc_errorOUT" class="sprotty-hidden hidden" transform="translate(19.4375, 15)" style="display:block;height:0px;width:0px;"/></g><g id="sprotty_ArchitectureBlockImpl$rvecc_decode_64/AssignmentBlockImpl$ecc_check" class="statement" transform="translate(86.9375, 198)"><rect x="0" y="0" rx="10" ry="5" width="19.4375" height="30" class="sprotty-node" style="fill:rgb(245, 245, 245);stroke:rgb(112, 112, 112);"/><text class="clickable sprotty-label statementtype" id="sprotty_ArchitectureBlockImpl$rvecc_decode_64/AssignmentBlockImpl$ecc_check/labeltype" transform="translate(5, 9) translate(4.71875, 9)" style="cursor:default;font-size:8px;font-weight:700;perspective-origin:0px 0px;fill:rgb(112, 112, 112);text-anchor:middle;">&lt;=</text><g id="sprotty_ArchitectureBlockImpl$rvecc_decode_64/AssignmentBlockImpl$ecc_check/GPortImpl$dinIN" class="sprotty-hidden hidden" transform="translate(0, 20)" style="display:block;height:0px;width:0px;"/><g id="sprotty_ArchitectureBlockImpl$rvecc_decode_64/AssignmentBlockImpl$ecc_check/GPortImpl$ecc_inIN" class="sprotty-hidden hidden" transform="translate(0, 10)" style="display:block;height:0px;width:0px;"/><g id="sprotty_ArchitectureBlockImpl$rvecc_decode_64/AssignmentBlockImpl$ecc_check/GPortImpl$ecc_checkOUT" class="sprotty-hidden hidden" transform="translate(19.4375, 15)" style="display:block;height:0px;width:0px;"/></g><g id="sprotty_ArchitectureBlockImpl$rvecc_decode_64/AssignmentBlockImpl$ecc_check1" class="statement" transform="translate(86.9375, 298)"><rect x="0" y="0" rx="10" ry="5" width="19.4375" height="30" class="sprotty-node" style="fill:rgb(245, 245, 245);stroke:rgb(112, 112, 112);"/><text class="clickable sprotty-label statementtype" id="sprotty_ArchitectureBlockImpl$rvecc_decode_64/AssignmentBlockImpl$ecc_check1/labeltype" transform="translate(5, 9) translate(4.71875, 9)" style="cursor:default;font-size:8px;font-weight:700;perspective-origin:0px 0px;fill:rgb(112, 112, 112);text-anchor:middle;">&lt;=</text><g id="sprotty_ArchitectureBlockImpl$rvecc_decode_64/AssignmentBlockImpl$ecc_check1/GPortImpl$dinIN" class="sprotty-hidden hidden" transform="translate(0, 20)" style="display:block;height:0px;width:0px;"/><g id="sprotty_ArchitectureBlockImpl$rvecc_decode_64/AssignmentBlockImpl$ecc_check1/GPortImpl$ecc_inIN" class="sprotty-hidden hidden" transform="translate(0, 10)" style="display:block;height:0px;width:0px;"/><g id="sprotty_ArchitectureBlockImpl$rvecc_decode_64/AssignmentBlockImpl$ecc_check1/GPortImpl$ecc_checkOUT" class="sprotty-hidden hidden" transform="translate(19.4375, 15)" style="display:block;height:0px;width:0px;"/></g><g id="sprotty_ArchitectureBlockImpl$rvecc_decode_64/AssignmentBlockImpl$ecc_check2" class="statement" transform="translate(86.9375, 148)"><rect x="0" y="0" rx="10" ry="5" width="19.4375" height="30" class="sprotty-node" style="fill:rgb(245, 245, 245);stroke:rgb(112, 112, 112);"/><text class="clickable sprotty-label statementtype" id="sprotty_ArchitectureBlockImpl$rvecc_decode_64/AssignmentBlockImpl$ecc_check2/labeltype" transform="translate(5, 9) translate(4.71875, 9)" style="cursor:default;font-size:8px;font-weight:700;perspective-origin:0px 0px;fill:rgb(112, 112, 112);text-anchor:middle;">&lt;=</text><g id="sprotty_ArchitectureBlockImpl$rvecc_decode_64/AssignmentBlockImpl$ecc_check2/GPortImpl$dinIN" class="sprotty-hidden hidden" transform="translate(0, 20)" style="display:block;height:0px;width:0px;"/><g id="sprotty_ArchitectureBlockImpl$rvecc_decode_64/AssignmentBlockImpl$ecc_check2/GPortImpl$ecc_inIN" class="sprotty-hidden hidden" transform="translate(0, 10)" style="display:block;height:0px;width:0px;"/><g id="sprotty_ArchitectureBlockImpl$rvecc_decode_64/AssignmentBlockImpl$ecc_check2/GPortImpl$ecc_checkOUT" class="sprotty-hidden hidden" transform="translate(19.4375, 15)" style="display:block;height:0px;width:0px;"/></g><g id="sprotty_ArchitectureBlockImpl$rvecc_decode_64/AssignmentBlockImpl$ecc_check3" class="statement" transform="translate(86.9375, 248)"><rect x="0" y="0" rx="10" ry="5" width="19.4375" height="30" class="sprotty-node" style="fill:rgb(245, 245, 245);stroke:rgb(112, 112, 112);"/><text class="clickable sprotty-label statementtype" id="sprotty_ArchitectureBlockImpl$rvecc_decode_64/AssignmentBlockImpl$ecc_check3/labeltype" transform="translate(5, 9) translate(4.71875, 9)" style="cursor:default;font-size:8px;font-weight:700;perspective-origin:0px 0px;fill:rgb(112, 112, 112);text-anchor:middle;">&lt;=</text><g id="sprotty_ArchitectureBlockImpl$rvecc_decode_64/AssignmentBlockImpl$ecc_check3/GPortImpl$dinIN" class="sprotty-hidden hidden" transform="translate(0, 20)" style="display:block;height:0px;width:0px;"/><g id="sprotty_ArchitectureBlockImpl$rvecc_decode_64/AssignmentBlockImpl$ecc_check3/GPortImpl$ecc_inIN" class="sprotty-hidden hidden" transform="translate(0, 10)" style="display:block;height:0px;width:0px;"/><g id="sprotty_ArchitectureBlockImpl$rvecc_decode_64/AssignmentBlockImpl$ecc_check3/GPortImpl$ecc_checkOUT" class="sprotty-hidden hidden" transform="translate(19.4375, 15)" style="display:block;height:0px;width:0px;"/></g><g id="sprotty_ArchitectureBlockImpl$rvecc_decode_64/AssignmentBlockImpl$ecc_check4" class="statement" transform="translate(86.9375, 348)"><rect x="0" y="0" rx="10" ry="5" width="19.4375" height="30" class="sprotty-node" style="fill:rgb(245, 245, 245);stroke:rgb(112, 112, 112);"/><text class="clickable sprotty-label statementtype" id="sprotty_ArchitectureBlockImpl$rvecc_decode_64/AssignmentBlockImpl$ecc_check4/labeltype" transform="translate(5, 9) translate(4.71875, 9)" style="cursor:default;font-size:8px;font-weight:700;perspective-origin:0px 0px;fill:rgb(112, 112, 112);text-anchor:middle;">&lt;=</text><g id="sprotty_ArchitectureBlockImpl$rvecc_decode_64/AssignmentBlockImpl$ecc_check4/GPortImpl$dinIN" class="sprotty-hidden hidden" transform="translate(0, 20)" style="display:block;height:0px;width:0px;"/><g id="sprotty_ArchitectureBlockImpl$rvecc_decode_64/AssignmentBlockImpl$ecc_check4/GPortImpl$ecc_inIN" class="sprotty-hidden hidden" transform="translate(0, 10)" style="display:block;height:0px;width:0px;"/><g id="sprotty_ArchitectureBlockImpl$rvecc_decode_64/AssignmentBlockImpl$ecc_check4/GPortImpl$ecc_checkOUT" class="sprotty-hidden hidden" transform="translate(19.4375, 15)" style="display:block;height:0px;width:0px;"/></g><g id="sprotty_ArchitectureBlockImpl$rvecc_decode_64/AssignmentBlockImpl$ecc_check5" class="statement" transform="translate(86.9375, 48)"><rect x="0" y="0" rx="10" ry="5" width="19.4375" height="30" class="sprotty-node" style="fill:rgb(245, 245, 245);stroke:rgb(112, 112, 112);"/><text class="clickable sprotty-label statementtype" id="sprotty_ArchitectureBlockImpl$rvecc_decode_64/AssignmentBlockImpl$ecc_check5/labeltype" transform="translate(5, 9) translate(4.71875, 9)" style="cursor:default;font-size:8px;font-weight:700;perspective-origin:0px 0px;fill:rgb(112, 112, 112);text-anchor:middle;">&lt;=</text><g id="sprotty_ArchitectureBlockImpl$rvecc_decode_64/AssignmentBlockImpl$ecc_check5/GPortImpl$dinIN" class="sprotty-hidden hidden" transform="translate(0, 20)" style="display:block;height:0px;width:0px;"/><g id="sprotty_ArchitectureBlockImpl$rvecc_decode_64/AssignmentBlockImpl$ecc_check5/GPortImpl$ecc_inIN" class="sprotty-hidden hidden" transform="translate(0, 10)" style="display:block;height:0px;width:0px;"/><g id="sprotty_ArchitectureBlockImpl$rvecc_decode_64/AssignmentBlockImpl$ecc_check5/GPortImpl$ecc_checkOUT" class="sprotty-hidden hidden" transform="translate(19.4375, 15)" style="display:block;height:0px;width:0px;"/></g><g id="sprotty_ArchitectureBlockImpl$rvecc_decode_64/AssignmentBlockImpl$ecc_check6" class="statement" transform="translate(86.9375, 98)"><rect x="0" y="0" rx="10" ry="5" width="19.4375" height="30" class="sprotty-node" style="fill:rgb(245, 245, 245);stroke:rgb(112, 112, 112);"/><text class="clickable sprotty-label statementtype" id="sprotty_ArchitectureBlockImpl$rvecc_decode_64/AssignmentBlockImpl$ecc_check6/labeltype" transform="translate(5, 9) translate(4.71875, 9)" style="cursor:default;font-size:8px;font-weight:700;perspective-origin:0px 0px;fill:rgb(112, 112, 112);text-anchor:middle;">&lt;=</text><g id="sprotty_ArchitectureBlockImpl$rvecc_decode_64/AssignmentBlockImpl$ecc_check6/GPortImpl$dinIN" class="sprotty-hidden hidden" transform="translate(0, 20)" style="display:block;height:0px;width:0px;"/><g id="sprotty_ArchitectureBlockImpl$rvecc_decode_64/AssignmentBlockImpl$ecc_check6/GPortImpl$ecc_inIN" class="sprotty-hidden hidden" transform="translate(0, 10)" style="display:block;height:0px;width:0px;"/><g id="sprotty_ArchitectureBlockImpl$rvecc_decode_64/AssignmentBlockImpl$ecc_check6/GPortImpl$ecc_checkOUT" class="sprotty-hidden hidden" transform="translate(19.4375, 15)" style="display:block;height:0px;width:0px;"/></g><g id="sprotty_ArchitectureBlockImpl$rvecc_decode_64/BPortImpl$ecc_in" class="triangle" transform="translate(0, 108)"><path d="M 0,0 L 5,2.5 L 0,5 Z" transform="translate(-1.67, -2.5)" class="sprotty-port" style="fill:rgb(48, 48, 48);stroke:rgb(48, 48, 48);"/><text class="clickable sprotty-label port" id="sprotty_ArchitectureBlockImpl$rvecc_decode_64/BPortImpl$ecc_in/label" transform="translate(6, 6) translate(17.96875, 14)" style="cursor:default;font-size:12px;perspective-origin:0px 0px;fill:rgb(48, 48, 48);text-anchor:middle;">ecc_in</text></g><g id="sprotty_ArchitectureBlockImpl$rvecc_decode_64/BPortImpl$din" class="triangle" transform="translate(0, 218)"><path d="M 0,0 L 5,2.5 L 0,5 Z" transform="translate(-1.67, -2.5)" class="sprotty-port" style="fill:rgb(48, 48, 48);stroke:rgb(48, 48, 48);"/><text class="clickable sprotty-label port" id="sprotty_ArchitectureBlockImpl$rvecc_decode_64/BPortImpl$din/label" transform="translate(6, 6) translate(9.046875, 14)" style="cursor:default;font-size:12px;perspective-origin:0px 0px;fill:rgb(48, 48, 48);text-anchor:middle;">din</text></g><g id="sprotty_ArchitectureBlockImpl$rvecc_decode_64/BPortImpl$en" class="triangle" transform="translate(0, 36)"><path d="M 0,0 L 5,2.5 L 0,5 Z" transform="translate(-1.67, -2.5)" class="sprotty-port" style="fill:rgb(48, 48, 48);stroke:rgb(48, 48, 48);"/><text class="clickable sprotty-label port" id="sprotty_ArchitectureBlockImpl$rvecc_decode_64/BPortImpl$en/label" transform="translate(6, 6) translate(7, 14)" style="cursor:default;font-size:12px;perspective-origin:0px 0px;fill:rgb(48, 48, 48);text-anchor:middle;">en</text></g><g id="sprotty_ArchitectureBlockImpl$rvecc_decode_64/BPortImpl$ecc_error" class="triangle" transform="translate(230.21875, 358)"><path d="M 0,0 L 5,2.5 L 0,5 Z" transform="translate(-1.67, -2.5)" class="sprotty-port" style="fill:rgb(48, 48, 48);stroke:rgb(48, 48, 48);"/><text class="clickable sprotty-label port" id="sprotty_ArchitectureBlockImpl$rvecc_decode_64/BPortImpl$ecc_error/label" transform="translate(-59.40625, 6) translate(26.53125, 14)" style="cursor:default;font-size:12px;perspective-origin:0.0859375px 0px;fill:rgb(48, 48, 48);text-anchor:middle;">ecc_error</text></g></g></g></svg>