<svg xmlns="http://www.w3.org/2000/svg" id="sprotty_work.rvdffsc" class="sprotty-graph sprotty-block-diagram blockdiagram" style="font-family:&quot;Noto Sans&quot;, Helvetica, Arial, sans-serif;perspective-origin:0px 0px;transform-origin:0px 0px;" version="1.1" viewBox="7 7 353.359375 231" width="353.359375" height="231"><g transform="scale(1) translate(0,0)"><g id="sprotty_ArchitectureBlockImpl$rvdffsc" class="architecture" transform="translate(12, 12)"><g class="sprotty-block" style="fill:rgb(255, 255, 255);stroke:rgb(48, 48, 48);stroke-dasharray:0px;"><rect x="0" y="0" rx="1" ry="1" width="343.359375" height="221"/><text x="171.6796875" y="12" class="sprotty-block-name" style="cursor:pointer;font-weight:700;perspective-origin:85.8359px 0px;fill:rgb(48, 48, 48);stroke:rgba(0, 0, 0, 0);dominant-baseline:middle;text-anchor:middle;">rvdffsc</text><line x1="0" y1="20" x2="343.359375" y2="20"/></g><g id="sprotty_ArchitectureBlockImpl$rvdffsc/GenerateStatementBlockImpl$null6/GPortImpl$dout_to_ArchitectureBlockImpl$rvdffsc/BPortImpl$dout" class="sprotty-edge thick edge" style="fill:none;stroke:rgb(112, 112, 112);stroke-linejoin:round;stroke-width:3px;"><g><path d="M 295.828125 61 L 343.359375 61 "/><path d="M 295.828125 61 L 343.359375 61 " class="clickable"/></g></g><g id="sprotty_ArchitectureBlockImpl$rvdffsc/BPortImpl$clk_to_ArchitectureBlockImpl$rvdffsc/GenerateStatementBlockImpl$null6/GPortImpl$clk" class="sprotty-edge edge" style="fill:none;stroke:rgb(112, 112, 112);stroke-linejoin:round;"><g><path d="M 0 139 L 56.78125 139 C 57.78125 139 58.78125 140 58.78125 141 L 58.78125 151 C 58.78125 152 59.78125 153 60.78125 153 L 78.78125 153 "/><path d="M 0 139 L 56.78125 139 C 57.78125 139 58.78125 140 58.78125 141 L 58.78125 151 C 58.78125 152 59.78125 153 60.78125 153 L 78.78125 153 " class="clickable"/></g></g><g id="sprotty_ArchitectureBlockImpl$rvdffsc/BPortImpl$rst_l_to_ArchitectureBlockImpl$rvdffsc/GenerateStatementBlockImpl$null6/GPortImpl$rst_l" class="sprotty-edge edge" style="fill:none;stroke:rgb(112, 112, 112);stroke-linejoin:round;"><g><path d="M 0 173 L 78.78125 173 "/><path d="M 0 173 L 78.78125 173 " class="clickable"/></g></g><g id="sprotty_ArchitectureBlockImpl$rvdffsc/BPortImpl$din_to_ArchitectureBlockImpl$rvdffsc/GenerateStatementBlockImpl$null6/GPortImpl$din" class="sprotty-edge thick edge" style="fill:none;stroke:rgb(112, 112, 112);stroke-linejoin:round;stroke-width:3px;"><g><path d="M 0 37 L 56.78125 37 C 57.78125 37 58.78125 38 58.78125 39 L 58.78125 59 C 58.78125 60 59.78125 61 60.78125 61 L 78.78125 61 "/><path d="M 0 37 L 56.78125 37 C 57.78125 37 58.78125 38 58.78125 39 L 58.78125 59 C 58.78125 60 59.78125 61 60.78125 61 L 78.78125 61 " class="clickable"/></g></g><g id="sprotty_ArchitectureBlockImpl$rvdffsc/BPortImpl$clear_to_ArchitectureBlockImpl$rvdffsc/GenerateStatementBlockImpl$null6/GPortImpl$clear" class="sprotty-edge edge" style="fill:none;stroke:rgb(112, 112, 112);stroke-linejoin:round;"><g><path d="M 0 71 L 66.78125 71 C 67.78125 71 68.78125 72 68.78125 73 L 68.78125 120 C 68.78125 121 69.78125 122 70.78125 122 L 78.78125 122 "/><path d="M 0 71 L 66.78125 71 C 67.78125 71 68.78125 72 68.78125 73 L 68.78125 120 C 68.78125 121 69.78125 122 70.78125 122 L 78.78125 122 " class="clickable"/></g></g><g id="sprotty_ArchitectureBlockImpl$rvdffsc/BPortImpl$en_to_ArchitectureBlockImpl$rvdffsc/GenerateStatementBlockImpl$null6/GPortImpl$en" class="sprotty-edge edge" style="fill:none;stroke:rgb(112, 112, 112);stroke-linejoin:round;"><g><path d="M 0 105 L 56.78125 105 C 57.78125 105 58.78125 106 58.78125 107 L 58.78125 130 C 58.78125 131 59.78125 132 60.78125 132 L 78.78125 132 "/><path d="M 0 105 L 56.78125 105 C 57.78125 105 58.78125 106 58.78125 107 L 58.78125 130 C 58.78125 131 59.78125 132 60.78125 132 L 78.78125 132 " class="clickable"/></g></g><g id="sprotty_ArchitectureBlockImpl$rvdffsc/BPortImpl$dout_to_ArchitectureBlockImpl$rvdffsc/GenerateStatementBlockImpl$null6/GPortImpl$dout" class="sprotty-edge thick edge" style="fill:none;stroke:rgb(112, 112, 112);stroke-linejoin:round;stroke-width:3px;"><g><path d="M 343.359375 61 L 295.828125 61 "/><path d="M 343.359375 61 L 295.828125 61 " class="clickable"/></g></g><g id="sprotty_ArchitectureBlockImpl$rvdffsc/GenerateStatementBlockImpl$null6" class="generate" transform="translate(78.78125, 35)"><g class="sprotty-block sprotty-block-generate" style="fill:rgb(255, 255, 255);stroke:rgb(48, 48, 48);stroke-dasharray:0px;"><rect x="0" y="0" rx="1" ry="1" width="217.046875" height="171" style="stroke-dasharray:3px, 1px;"/><text x="108.5234375" y="12" class="sprotty-block-name" style="cursor:pointer;font-weight:700;fill:rgb(48, 48, 48);stroke:rgba(0, 0, 0, 0);dominant-baseline:middle;text-anchor:middle;"/></g><g id="sprotty_ArchitectureBlockImpl$rvdffsc/GenerateStatementBlockImpl$null6/AssignmentBlockImpl$dout/GPortImpl$doutOUT_to_ArchitectureBlockImpl$rvdffsc/GenerateStatementBlockImpl$null6/GPortImpl$dout" class="sprotty-edge thick edge" style="fill:none;stroke:rgb(112, 112, 112);stroke-linejoin:round;stroke-width:3px;"><g><path d="M 64.4375 26 L 217.046875 26 "/><path d="M 64.4375 26 L 217.046875 26 " class="clickable"/></g></g><g id="sprotty_ArchitectureBlockImpl$rvdffsc/GenerateStatementBlockImpl$null6/InstantiationBlockImpl$dffsc/BPortImpl$dout_to_ArchitectureBlockImpl$rvdffsc/GenerateStatementBlockImpl$null6/GPortImpl$dout" class="sprotty-edge thick edge" style="fill:none;stroke:rgb(112, 112, 112);stroke-linejoin:round;stroke-width:3px;"><g><path d="M 182.046875 110 L 190.046875 110 C 191.046875 110 192.046875 109 192.046875 108 L 192.046875 28 C 192.046875 27 193.046875 26 194.046875 26 L 217.046875 26 "/><path d="M 182.046875 110 L 190.046875 110 C 191.046875 110 192.046875 109 192.046875 108 L 192.046875 28 C 192.046875 27 193.046875 26 194.046875 26 L 217.046875 26 " class="clickable"/></g><circle r="3" id="sprotty_ArchitectureBlockImpl$rvdffsc/GenerateStatementBlockImpl$null6/InstantiationBlockImpl$dffsc/BPortImpl$dout_to_ArchitectureBlockImpl$rvdffsc/GenerateStatementBlockImpl$null6/GPortImpl$dout/junction0" transform="translate(192.046875, 26)" class="sprotty-junction thick" style="fill:rgb(112, 112, 112);stroke:none;"/></g><g id="sprotty_ArchitectureBlockImpl$rvdffsc/GenerateStatementBlockImpl$null6/GPortImpl$clk_to_ArchitectureBlockImpl$rvdffsc/GenerateStatementBlockImpl$null6/InstantiationBlockImpl$dffsc/BPortImpl$clk" class="sprotty-edge edge" style="fill:none;stroke:rgb(112, 112, 112);stroke-linejoin:round;"><g><path d="M 0 118 L 72.4375 118 C 73.4375 118 74.4375 117 74.4375 116 L 74.4375 112 C 74.4375 111 75.4375 110 76.4375 110 L 84.4375 110 "/><path d="M 0 118 L 72.4375 118 C 73.4375 118 74.4375 117 74.4375 116 L 74.4375 112 C 74.4375 111 75.4375 110 76.4375 110 L 84.4375 110 " class="clickable"/></g></g><g id="sprotty_ArchitectureBlockImpl$rvdffsc/GenerateStatementBlockImpl$null6/GPortImpl$rst_l_to_ArchitectureBlockImpl$rvdffsc/GenerateStatementBlockImpl$null6/InstantiationBlockImpl$dffsc/BPortImpl$rst_l" class="sprotty-edge edge" style="fill:none;stroke:rgb(112, 112, 112);stroke-linejoin:round;"><g><path d="M 0 138 L 84.4375 138 "/><path d="M 0 138 L 84.4375 138 " class="clickable"/></g></g><g id="sprotty_ArchitectureBlockImpl$rvdffsc/GenerateStatementBlockImpl$null6/GPortImpl$din_to_ArchitectureBlockImpl$rvdffsc/GenerateStatementBlockImpl$null6/AssignmentBlockImpl$dout/GPortImpl$dinIN" class="sprotty-edge thick edge" style="fill:none;stroke:rgb(112, 112, 112);stroke-linejoin:round;stroke-width:3px;"><g><path d="M 0 26 L 45 26 "/><path d="M 0 26 L 45 26 " class="clickable"/></g></g><g id="sprotty_ArchitectureBlockImpl$rvdffsc/GenerateStatementBlockImpl$null6/GPortImpl$clear_to_ArchitectureBlockImpl$rvdffsc/GenerateStatementBlockImpl$null6/AssignmentBlockImpl$din_new/GPortImpl$clearIN" class="sprotty-edge edge" style="fill:none;stroke:rgb(112, 112, 112);stroke-linejoin:round;"><g><path d="M 0 87 L 45 87 "/><path d="M 0 87 L 45 87 " class="clickable"/></g></g><g id="sprotty_ArchitectureBlockImpl$rvdffsc/GenerateStatementBlockImpl$null6/GPortImpl$en_to_ArchitectureBlockImpl$rvdffsc/GenerateStatementBlockImpl$null6/AssignmentBlockImpl$din_new/GPortImpl$enIN" class="sprotty-edge edge" style="fill:none;stroke:rgb(112, 112, 112);stroke-linejoin:round;"><g><path d="M 0 97 L 45 97 "/><path d="M 0 97 L 45 97 " class="clickable"/></g></g><g id="sprotty_ArchitectureBlockImpl$rvdffsc/GenerateStatementBlockImpl$null6/GPortImpl$din_to_ArchitectureBlockImpl$rvdffsc/GenerateStatementBlockImpl$null6/AssignmentBlockImpl$din_new/GPortImpl$dinIN" class="sprotty-edge thick edge" style="fill:none;stroke:rgb(112, 112, 112);stroke-linejoin:round;stroke-width:3px;"><g><path d="M 0 26 L 23 26 C 24 26 25 27 25 28 L 25 75 C 25 76 26 77 27 77 L 45 77 "/><path d="M 0 26 L 23 26 C 24 26 25 27 25 28 L 25 75 C 25 76 26 77 27 77 L 45 77 " class="clickable"/></g><circle r="3" id="sprotty_ArchitectureBlockImpl$rvdffsc/GenerateStatementBlockImpl$null6/GPortImpl$din_to_ArchitectureBlockImpl$rvdffsc/GenerateStatementBlockImpl$null6/AssignmentBlockImpl$din_new/GPortImpl$dinIN/junction0" transform="translate(25, 26)" class="sprotty-junction thick" style="fill:rgb(112, 112, 112);stroke:none;"/></g><g id="sprotty_ArchitectureBlockImpl$rvdffsc/GenerateStatementBlockImpl$null6/GPortImpl$dout_to_ArchitectureBlockImpl$rvdffsc/GenerateStatementBlockImpl$null6/AssignmentBlockImpl$din_new/GPortImpl$doutIN" class="sprotty-edge thick edge" style="fill:none;stroke:rgb(112, 112, 112);stroke-linejoin:round;stroke-width:3px;"><g><path d="M 217.046875 26 L 76.4375 26 C 75.4375 26 74.4375 27 74.4375 28 L 74.4375 45 C 74.4375 46 73.4375 47 72.4375 47 L 37 47 C 36 47 35 48 35 49 L 35 65 C 35 66 36 67 37 67 L 45 67 "/><path d="M 217.046875 26 L 76.4375 26 C 75.4375 26 74.4375 27 74.4375 28 L 74.4375 45 C 74.4375 46 73.4375 47 72.4375 47 L 37 47 C 36 47 35 48 35 49 L 35 65 C 35 66 36 67 37 67 L 45 67 " class="clickable"/></g><circle r="3" id="sprotty_ArchitectureBlockImpl$rvdffsc/GenerateStatementBlockImpl$null6/GPortImpl$dout_to_ArchitectureBlockImpl$rvdffsc/GenerateStatementBlockImpl$null6/AssignmentBlockImpl$din_new/GPortImpl$doutIN/junction0" transform="translate(74.4375, 26)" class="sprotty-junction thick" style="fill:rgb(112, 112, 112);stroke:none;"/></g><g id="sprotty_ArchitectureBlockImpl$rvdffsc/GenerateStatementBlockImpl$null6/AssignmentBlockImpl$din_new/GPortImpl$doutOUT_to_ArchitectureBlockImpl$rvdffsc/GenerateStatementBlockImpl$null6/InstantiationBlockImpl$dffsc/BPortImpl$din" class="sprotty-edge thick edge" style="fill:none;stroke:rgb(112, 112, 112);stroke-linejoin:round;stroke-width:3px;"><g><path d="M 64.4375 82 L 84.4375 82 "/><path d="M 64.4375 82 L 84.4375 82 " class="clickable"/></g></g><g id="sprotty_ArchitectureBlockImpl$rvdffsc/GenerateStatementBlockImpl$null6/AssignmentBlockImpl$din_new" class="statement" transform="translate(45, 57)"><rect x="0" y="0" rx="10" ry="5" width="19.4375" height="50" class="sprotty-node" style="fill:rgb(245, 245, 245);stroke:rgb(112, 112, 112);"/><text class="clickable sprotty-label statementtype" id="sprotty_ArchitectureBlockImpl$rvdffsc/GenerateStatementBlockImpl$null6/AssignmentBlockImpl$din_new/labeltype" transform="translate(5, 19) translate(4.71875, 9)" style="cursor:default;font-size:8px;font-weight:700;perspective-origin:0px 0px;fill:rgb(112, 112, 112);text-anchor:middle;">&lt;=</text><g id="sprotty_ArchitectureBlockImpl$rvdffsc/GenerateStatementBlockImpl$null6/AssignmentBlockImpl$din_new/GPortImpl$doutIN" class="sprotty-hidden hidden" transform="translate(0, 10)" style="display:block;height:0px;width:0px;"/><g id="sprotty_ArchitectureBlockImpl$rvdffsc/GenerateStatementBlockImpl$null6/AssignmentBlockImpl$din_new/GPortImpl$dinIN" class="sprotty-hidden hidden" transform="translate(0, 20)" style="display:block;height:0px;width:0px;"/><g id="sprotty_ArchitectureBlockImpl$rvdffsc/GenerateStatementBlockImpl$null6/AssignmentBlockImpl$din_new/GPortImpl$enIN" class="sprotty-hidden hidden" transform="translate(0, 40)" style="display:block;height:0px;width:0px;"/><g id="sprotty_ArchitectureBlockImpl$rvdffsc/GenerateStatementBlockImpl$null6/AssignmentBlockImpl$din_new/GPortImpl$clearIN" class="sprotty-hidden hidden" transform="translate(0, 30)" style="display:block;height:0px;width:0px;"/><g id="sprotty_ArchitectureBlockImpl$rvdffsc/GenerateStatementBlockImpl$null6/AssignmentBlockImpl$din_new/GPortImpl$doutOUT" class="sprotty-hidden hidden" transform="translate(19.4375, 25)" style="display:block;height:0px;width:0px;"/></g><g id="sprotty_ArchitectureBlockImpl$rvdffsc/GenerateStatementBlockImpl$null6/AssignmentBlockImpl$dout" class="statement" transform="translate(45, 15)"><rect x="0" y="0" rx="10" ry="5" width="19.4375" height="22" class="sprotty-node" style="fill:rgb(245, 245, 245);stroke:rgb(112, 112, 112);"/><text class="clickable sprotty-label statementtype" id="sprotty_ArchitectureBlockImpl$rvdffsc/GenerateStatementBlockImpl$null6/AssignmentBlockImpl$dout/labeltype" transform="translate(5, 5) translate(4.71875, 9)" style="cursor:default;font-size:8px;font-weight:700;perspective-origin:0px 0px;fill:rgb(112, 112, 112);text-anchor:middle;">&lt;=</text><g id="sprotty_ArchitectureBlockImpl$rvdffsc/GenerateStatementBlockImpl$null6/AssignmentBlockImpl$dout/GPortImpl$dinIN" class="sprotty-hidden hidden" transform="translate(0, 11)" style="display:block;height:0px;width:0px;"/><g id="sprotty_ArchitectureBlockImpl$rvdffsc/GenerateStatementBlockImpl$null6/AssignmentBlockImpl$dout/GPortImpl$doutOUT" class="sprotty-hidden hidden" transform="translate(19.4375, 11)" style="display:block;height:0px;width:0px;"/></g><g id="sprotty_ArchitectureBlockImpl$rvdffsc/GenerateStatementBlockImpl$null6/InstantiationBlockImpl$dffsc" class="instantiation" transform="translate(84.4375, 44)"><g class="sprotty-block" style="fill:rgb(255, 255, 255);stroke:rgb(48, 48, 48);stroke-dasharray:0px;"><rect x="0" y="0" rx="1" ry="1" width="97.609375" height="112"/><text x="48.8046875" y="12" class="sprotty-block-name" style="cursor:pointer;font-weight:700;perspective-origin:24.6484px 0px;fill:rgb(48, 48, 48);stroke:rgba(0, 0, 0, 0);dominant-baseline:middle;text-anchor:middle;">dffsc : rvdff</text><line x1="0" y1="20" x2="97.609375" y2="20"/></g><g id="sprotty_ArchitectureBlockImpl$rvdffsc/GenerateStatementBlockImpl$null6/InstantiationBlockImpl$dffsc/BPortImpl$rst_l" class="triangle" transform="translate(0, 94)"><path d="M 0,0 L 5,2.5 L 0,5 Z" transform="translate(-1.67, -2.5)" class="sprotty-port" style="fill:rgb(48, 48, 48);stroke:rgb(48, 48, 48);"/><text class="clickable sprotty-label port" id="sprotty_ArchitectureBlockImpl$rvdffsc/GenerateStatementBlockImpl$null6/InstantiationBlockImpl$dffsc/BPortImpl$rst_l/label" transform="translate(6, -9) translate(12.3125, 14)" style="cursor:default;font-size:12px;perspective-origin:0px 0px;fill:rgb(48, 48, 48);text-anchor:middle;">rst_l</text></g><g id="sprotty_ArchitectureBlockImpl$rvdffsc/GenerateStatementBlockImpl$null6/InstantiationBlockImpl$dffsc/BPortImpl$clk" class="triangle" transform="translate(0, 66)"><path d="M 0,0 L 5,2.5 L 0,5 Z" transform="translate(-1.67, -2.5)" class="sprotty-port" style="fill:rgb(48, 48, 48);stroke:rgb(48, 48, 48);"/><text class="clickable sprotty-label port" id="sprotty_ArchitectureBlockImpl$rvdffsc/GenerateStatementBlockImpl$null6/InstantiationBlockImpl$dffsc/BPortImpl$clk/label" transform="translate(6, -9) translate(8.078125, 14)" style="cursor:default;font-size:12px;perspective-origin:0.09375px 0px;fill:rgb(48, 48, 48);text-anchor:middle;">clk</text></g><g id="sprotty_ArchitectureBlockImpl$rvdffsc/GenerateStatementBlockImpl$null6/InstantiationBlockImpl$dffsc/BPortImpl$din" class="triangle" transform="translate(0, 38)"><path d="M 0,0 L 5,2.5 L 0,5 Z" transform="translate(-1.67, -2.5)" class="sprotty-port" style="fill:rgb(48, 48, 48);stroke:rgb(48, 48, 48);"/><text class="clickable sprotty-label port" id="sprotty_ArchitectureBlockImpl$rvdffsc/GenerateStatementBlockImpl$null6/InstantiationBlockImpl$dffsc/BPortImpl$din/label" transform="translate(6, -9) translate(9.046875, 14)" style="cursor:default;font-size:12px;perspective-origin:0px 0px;fill:rgb(48, 48, 48);text-anchor:middle;">din</text></g><g id="sprotty_ArchitectureBlockImpl$rvdffsc/GenerateStatementBlockImpl$null6/InstantiationBlockImpl$dffsc/BPortImpl$dout" class="triangle" transform="translate(97.609375, 66)"><path d="M 0,0 L 5,2.5 L 0,5 Z" transform="translate(-1.67, -2.5)" class="sprotty-port" style="fill:rgb(48, 48, 48);stroke:rgb(48, 48, 48);"/><text class="clickable sprotty-label port" id="sprotty_ArchitectureBlockImpl$rvdffsc/GenerateStatementBlockImpl$null6/InstantiationBlockImpl$dffsc/BPortImpl$dout/label" transform="translate(-32.53125, -9) translate(13.265625, 14)" style="cursor:default;font-size:12px;perspective-origin:0px 0px;fill:rgb(48, 48, 48);text-anchor:middle;">dout</text></g></g><g id="sprotty_ArchitectureBlockImpl$rvdffsc/GenerateStatementBlockImpl$null6/GPortImpl$en" class="triangle" transform="translate(0, 97)"><path d="M 0,0 L 5,2.5 L 0,5 Z" transform="translate(-1.67, -2.5)" class="sprotty-port" style="fill:rgb(48, 48, 48);stroke:rgb(48, 48, 48);"/></g><g id="sprotty_ArchitectureBlockImpl$rvdffsc/GenerateStatementBlockImpl$null6/GPortImpl$clear" class="triangle" transform="translate(0, 87)"><path d="M 0,0 L 5,2.5 L 0,5 Z" transform="translate(-1.67, -2.5)" class="sprotty-port" style="fill:rgb(48, 48, 48);stroke:rgb(48, 48, 48);"/></g><g id="sprotty_ArchitectureBlockImpl$rvdffsc/GenerateStatementBlockImpl$null6/GPortImpl$din" class="triangle" transform="translate(0, 26)"><path d="M 0,0 L 5,2.5 L 0,5 Z" transform="translate(-1.67, -2.5)" class="sprotty-port" style="fill:rgb(48, 48, 48);stroke:rgb(48, 48, 48);"/></g><g id="sprotty_ArchitectureBlockImpl$rvdffsc/GenerateStatementBlockImpl$null6/GPortImpl$rst_l" class="triangle" transform="translate(0, 138)"><path d="M 0,0 L 5,2.5 L 0,5 Z" transform="translate(-1.67, -2.5)" class="sprotty-port" style="fill:rgb(48, 48, 48);stroke:rgb(48, 48, 48);"/></g><g id="sprotty_ArchitectureBlockImpl$rvdffsc/GenerateStatementBlockImpl$null6/GPortImpl$clk" class="triangle" transform="translate(0, 118)"><path d="M 0,0 L 5,2.5 L 0,5 Z" transform="translate(-1.67, -2.5)" class="sprotty-port" style="fill:rgb(48, 48, 48);stroke:rgb(48, 48, 48);"/></g><g id="sprotty_ArchitectureBlockImpl$rvdffsc/GenerateStatementBlockImpl$null6/GPortImpl$dout" class="triangle" transform="translate(217.046875, 26)"><path d="M 0,0 L 5,2.5 L 0,5 Z" transform="translate(-1.67, -2.5)" class="sprotty-port" style="fill:rgb(48, 48, 48);stroke:rgb(48, 48, 48);"/></g></g><g id="sprotty_ArchitectureBlockImpl$rvdffsc/BPortImpl$rst_l" class="triangle" transform="translate(0, 173)"><path d="M 0,0 L 5,2.5 L 0,5 Z" transform="translate(-1.67, -2.5)" class="sprotty-port" style="fill:rgb(48, 48, 48);stroke:rgb(48, 48, 48);"/><text class="clickable sprotty-label port" id="sprotty_ArchitectureBlockImpl$rvdffsc/BPortImpl$rst_l/label" transform="translate(6, 6) translate(12.3125, 14)" style="cursor:default;font-size:12px;perspective-origin:0px 0px;fill:rgb(48, 48, 48);text-anchor:middle;">rst_l</text></g><g id="sprotty_ArchitectureBlockImpl$rvdffsc/BPortImpl$clk" class="triangle" transform="translate(0, 139)"><path d="M 0,0 L 5,2.5 L 0,5 Z" transform="translate(-1.67, -2.5)" class="sprotty-port" style="fill:rgb(48, 48, 48);stroke:rgb(48, 48, 48);"/><text class="clickable sprotty-label port" id="sprotty_ArchitectureBlockImpl$rvdffsc/BPortImpl$clk/label" transform="translate(6, 6) translate(8.078125, 14)" style="cursor:default;font-size:12px;perspective-origin:0.09375px 0px;fill:rgb(48, 48, 48);text-anchor:middle;">clk</text></g><g id="sprotty_ArchitectureBlockImpl$rvdffsc/BPortImpl$clear" class="triangle" transform="translate(0, 71)"><path d="M 0,0 L 5,2.5 L 0,5 Z" transform="translate(-1.67, -2.5)" class="sprotty-port" style="fill:rgb(48, 48, 48);stroke:rgb(48, 48, 48);"/><text class="clickable sprotty-label port" id="sprotty_ArchitectureBlockImpl$rvdffsc/BPortImpl$clear/label" transform="translate(6, 6) translate(13.71875, 14)" style="cursor:default;font-size:12px;perspective-origin:0.0859375px 0px;fill:rgb(48, 48, 48);text-anchor:middle;">clear</text></g><g id="sprotty_ArchitectureBlockImpl$rvdffsc/BPortImpl$en" class="triangle" transform="translate(0, 105)"><path d="M 0,0 L 5,2.5 L 0,5 Z" transform="translate(-1.67, -2.5)" class="sprotty-port" style="fill:rgb(48, 48, 48);stroke:rgb(48, 48, 48);"/><text class="clickable sprotty-label port" id="sprotty_ArchitectureBlockImpl$rvdffsc/BPortImpl$en/label" transform="translate(6, 6) translate(7, 14)" style="cursor:default;font-size:12px;perspective-origin:0px 0px;fill:rgb(48, 48, 48);text-anchor:middle;">en</text></g><g id="sprotty_ArchitectureBlockImpl$rvdffsc/BPortImpl$din" class="triangle" transform="translate(0, 37)"><path d="M 0,0 L 5,2.5 L 0,5 Z" transform="translate(-1.67, -2.5)" class="sprotty-port" style="fill:rgb(48, 48, 48);stroke:rgb(48, 48, 48);"/><text class="clickable sprotty-label port" id="sprotty_ArchitectureBlockImpl$rvdffsc/BPortImpl$din/label" transform="translate(6, 6) translate(9.046875, 14)" style="cursor:default;font-size:12px;perspective-origin:0px 0px;fill:rgb(48, 48, 48);text-anchor:middle;">din</text></g><g id="sprotty_ArchitectureBlockImpl$rvdffsc/BPortImpl$dout" class="triangle" transform="translate(343.359375, 61)"><path d="M 0,0 L 5,2.5 L 0,5 Z" transform="translate(-1.67, -2.5)" class="sprotty-port" style="fill:rgb(48, 48, 48);stroke:rgb(48, 48, 48);"/><text class="clickable sprotty-label port" id="sprotty_ArchitectureBlockImpl$rvdffsc/BPortImpl$dout/label" transform="translate(-32.53125, 6) translate(13.265625, 14)" style="cursor:default;font-size:12px;perspective-origin:0px 0px;fill:rgb(48, 48, 48);text-anchor:middle;">dout</text></g></g></g></svg>