<svg xmlns="http://www.w3.org/2000/svg" id="sprotty_work.el2_dec_gpr_ctl" class="sprotty-graph sprotty-block-diagram blockdiagram" style="font-family:&quot;Noto Sans&quot;, Helvetica, Arial, sans-serif;perspective-origin:0px 0px;transform-origin:0px 0px;" version="1.1" viewBox="7 7 560.4375 558" width="560.4375" height="558"><g transform="scale(1) translate(0,0)"><g id="sprotty_ArchitectureBlockImpl$el2_dec_gpr_ctl" class="architecture" transform="translate(12, 12)"><g class="sprotty-block" style="fill:rgb(255, 255, 255);stroke:rgb(48, 48, 48);stroke-dasharray:0px;"><rect x="0" y="0" rx="1" ry="1" width="550.4375" height="548"/><text x="275.21875" y="12" class="sprotty-block-name" style="cursor:pointer;font-weight:700;perspective-origin:137.609px 0px;fill:rgb(48, 48, 48);stroke:rgba(0, 0, 0, 0);dominant-baseline:middle;text-anchor:middle;">el2_dec_gpr_ctl</text><line x1="0" y1="20" x2="550.4375" y2="20"/></g><g id="sprotty_ArchitectureBlockImpl$el2_dec_gpr_ctl/AlwaysBlockImpl$null17/GPortImpl$rd0OUT_to_ArchitectureBlockImpl$el2_dec_gpr_ctl/BPortImpl$rd0" class="sprotty-edge thick edge" style="fill:none;stroke:rgb(112, 112, 112);stroke-linejoin:round;stroke-width:3px;"><g><path d="M 219.625 153.57142857142856 L 550.4375 153.57142857142856 "/><path d="M 219.625 153.57142857142856 L 550.4375 153.57142857142856 " class="clickable"/></g></g><g id="sprotty_ArchitectureBlockImpl$el2_dec_gpr_ctl/AlwaysBlockImpl$null17/GPortImpl$rd1OUT_to_ArchitectureBlockImpl$el2_dec_gpr_ctl/BPortImpl$rd1" class="sprotty-edge thick edge" style="fill:none;stroke:rgb(112, 112, 112);stroke-linejoin:round;stroke-width:3px;"><g><path d="M 219.625 246.42857142857142 L 227.625 246.42857142857142 C 228.625 246.42857142857142 229.625 247.42857142857142 229.625 248.42857142857142 L 229.625 507 C 229.625 508 230.625 509 231.625 509 L 550.4375 509 "/><path d="M 219.625 246.42857142857142 L 227.625 246.42857142857142 C 228.625 246.42857142857142 229.625 247.42857142857142 229.625 248.42857142857142 L 229.625 507 C 229.625 508 230.625 509 231.625 509 L 550.4375 509 " class="clickable"/></g></g><g id="sprotty_ArchitectureBlockImpl$el2_dec_gpr_ctl/BPortImpl$wen0_to_ArchitectureBlockImpl$el2_dec_gpr_ctl/AssignmentBlockImpl$write_collision_unused/GPortImpl$wen0IN" class="sprotty-edge edge" style="fill:none;stroke:rgb(112, 112, 112);stroke-linejoin:round;"><g><path d="M 0 375 L 247.625 375 C 248.625 375 249.625 374 249.625 373 L 249.625 319.85714285714283 C 249.625 318.85714285714283 250.625 317.85714285714283 251.625 317.85714285714283 L 269.625 317.85714285714283 "/><path d="M 0 375 L 247.625 375 C 248.625 375 249.625 374 249.625 373 L 249.625 319.85714285714283 C 249.625 318.85714285714283 250.625 317.85714285714283 251.625 317.85714285714283 L 269.625 317.85714285714283 " class="clickable"/></g></g><g id="sprotty_ArchitectureBlockImpl$el2_dec_gpr_ctl/BPortImpl$wen1_to_ArchitectureBlockImpl$el2_dec_gpr_ctl/AssignmentBlockImpl$write_collision_unused/GPortImpl$wen1IN" class="sprotty-edge edge" style="fill:none;stroke:rgb(112, 112, 112);stroke-linejoin:round;"><g><path d="M 0 205 L 143.875 205 C 144.875 205 145.875 206 145.875 207 L 145.875 295.85714285714283 C 145.875 296.85714285714283 146.875 297.85714285714283 147.875 297.85714285714283 L 269.625 297.85714285714283 "/><path d="M 0 205 L 143.875 205 C 144.875 205 145.875 206 145.875 207 L 145.875 295.85714285714283 C 145.875 296.85714285714283 146.875 297.85714285714283 147.875 297.85714285714283 L 269.625 297.85714285714283 " class="clickable"/></g><circle r="2" id="sprotty_ArchitectureBlockImpl$el2_dec_gpr_ctl/BPortImpl$wen1_to_ArchitectureBlockImpl$el2_dec_gpr_ctl/AssignmentBlockImpl$write_collision_unused/GPortImpl$wen1IN/junction0" transform="translate(145.875, 205)" class="sprotty-junction junction" style="fill:rgb(112, 112, 112);stroke:none;"/></g><g id="sprotty_ArchitectureBlockImpl$el2_dec_gpr_ctl/BPortImpl$wen2_to_ArchitectureBlockImpl$el2_dec_gpr_ctl/AssignmentBlockImpl$write_collision_unused/GPortImpl$wen2IN" class="sprotty-edge edge" style="fill:none;stroke:rgb(112, 112, 112);stroke-linejoin:round;"><g><path d="M 0 341 L 237.625 341 C 238.625 341 239.625 340 239.625 339 L 239.625 309.85714285714283 C 239.625 308.85714285714283 240.625 307.85714285714283 241.625 307.85714285714283 L 269.625 307.85714285714283 "/><path d="M 0 341 L 237.625 341 C 238.625 341 239.625 340 239.625 339 L 239.625 309.85714285714283 C 239.625 308.85714285714283 240.625 307.85714285714283 241.625 307.85714285714283 L 269.625 307.85714285714283 " class="clickable"/></g></g><g id="sprotty_ArchitectureBlockImpl$el2_dec_gpr_ctl/BPortImpl$raddr0_to_ArchitectureBlockImpl$el2_dec_gpr_ctl/AlwaysBlockImpl$null17/GPortImpl$raddr0IN" class="sprotty-edge thick edge" style="fill:none;stroke:rgb(112, 112, 112);stroke-linejoin:round;stroke-width:3px;"><g><path d="M 0 69 L 123.875 69 C 124.875 69 125.875 70 125.875 71 L 125.875 163 C 125.875 164 126.875 165 127.875 165 L 155.875 165 "/><path d="M 0 69 L 123.875 69 C 124.875 69 125.875 70 125.875 71 L 125.875 163 C 125.875 164 126.875 165 127.875 165 L 155.875 165 " class="clickable"/></g></g><g id="sprotty_ArchitectureBlockImpl$el2_dec_gpr_ctl/BPortImpl$raddr1_to_ArchitectureBlockImpl$el2_dec_gpr_ctl/AlwaysBlockImpl$null17/GPortImpl$raddr1IN" class="sprotty-edge thick edge" style="fill:none;stroke:rgb(112, 112, 112);stroke-linejoin:round;stroke-width:3px;"><g><path d="M 0 103 L 113.875 103 C 114.875 103 115.875 104 115.875 105 L 115.875 173 C 115.875 174 116.875 175 117.875 175 L 155.875 175 "/><path d="M 0 103 L 113.875 103 C 114.875 103 115.875 104 115.875 105 L 115.875 173 C 115.875 174 116.875 175 117.875 175 L 155.875 175 " class="clickable"/></g></g><g id="sprotty_ArchitectureBlockImpl$el2_dec_gpr_ctl/BPortImpl$wen0_to_ArchitectureBlockImpl$el2_dec_gpr_ctl/AlwaysBlockImpl$null17/GPortImpl$wen0IN" class="sprotty-edge edge" style="fill:none;stroke:rgb(112, 112, 112);stroke-linejoin:round;"><g><path d="M 0 375 L 133.875 375 C 134.875 375 135.875 374 135.875 373 L 135.875 257 C 135.875 256 136.875 255 137.875 255 L 155.875 255 "/><path d="M 0 375 L 133.875 375 C 134.875 375 135.875 374 135.875 373 L 135.875 257 C 135.875 256 136.875 255 137.875 255 L 155.875 255 " class="clickable"/></g><circle r="2" id="sprotty_ArchitectureBlockImpl$el2_dec_gpr_ctl/BPortImpl$wen0_to_ArchitectureBlockImpl$el2_dec_gpr_ctl/AlwaysBlockImpl$null17/GPortImpl$wen0IN/junction0" transform="translate(135.875, 375)" class="sprotty-junction junction" style="fill:rgb(112, 112, 112);stroke:none;"/></g><g id="sprotty_ArchitectureBlockImpl$el2_dec_gpr_ctl/BPortImpl$waddr0_to_ArchitectureBlockImpl$el2_dec_gpr_ctl/AlwaysBlockImpl$null17/GPortImpl$waddr0IN" class="sprotty-edge thick edge" style="fill:none;stroke:rgb(112, 112, 112);stroke-linejoin:round;stroke-width:3px;"><g><path d="M 0 171 L 93.875 171 C 94.875 171 95.875 172 95.875 173 L 95.875 193 C 95.875 194 96.875 195 97.875 195 L 155.875 195 "/><path d="M 0 171 L 93.875 171 C 94.875 171 95.875 172 95.875 173 L 95.875 193 C 95.875 194 96.875 195 97.875 195 L 155.875 195 " class="clickable"/></g></g><g id="sprotty_ArchitectureBlockImpl$el2_dec_gpr_ctl/BPortImpl$wen1_to_ArchitectureBlockImpl$el2_dec_gpr_ctl/AlwaysBlockImpl$null17/GPortImpl$wen1IN" class="sprotty-edge edge" style="fill:none;stroke:rgb(112, 112, 112);stroke-linejoin:round;"><g><path d="M 0 205 L 155.875 205 "/><path d="M 0 205 L 155.875 205 " class="clickable"/></g></g><g id="sprotty_ArchitectureBlockImpl$el2_dec_gpr_ctl/BPortImpl$waddr1_to_ArchitectureBlockImpl$el2_dec_gpr_ctl/AlwaysBlockImpl$null17/GPortImpl$waddr1IN" class="sprotty-edge thick edge" style="fill:none;stroke:rgb(112, 112, 112);stroke-linejoin:round;stroke-width:3px;"><g><path d="M 0 35 L 133.875 35 C 134.875 35 135.875 36 135.875 37 L 135.875 153 C 135.875 154 136.875 155 137.875 155 L 155.875 155 "/><path d="M 0 35 L 133.875 35 C 134.875 35 135.875 36 135.875 37 L 135.875 153 C 135.875 154 136.875 155 137.875 155 L 155.875 155 " class="clickable"/></g></g><g id="sprotty_ArchitectureBlockImpl$el2_dec_gpr_ctl/BPortImpl$wen2_to_ArchitectureBlockImpl$el2_dec_gpr_ctl/AlwaysBlockImpl$null17/GPortImpl$wen2IN" class="sprotty-edge edge" style="fill:none;stroke:rgb(112, 112, 112);stroke-linejoin:round;"><g><path d="M 0 341 L 123.875 341 C 124.875 341 125.875 340 125.875 339 L 125.875 247 C 125.875 246 126.875 245 127.875 245 L 155.875 245 "/><path d="M 0 341 L 123.875 341 C 124.875 341 125.875 340 125.875 339 L 125.875 247 C 125.875 246 126.875 245 127.875 245 L 155.875 245 " class="clickable"/></g><circle r="2" id="sprotty_ArchitectureBlockImpl$el2_dec_gpr_ctl/BPortImpl$wen2_to_ArchitectureBlockImpl$el2_dec_gpr_ctl/AlwaysBlockImpl$null17/GPortImpl$wen2IN/junction0" transform="translate(125.875, 341)" class="sprotty-junction junction" style="fill:rgb(112, 112, 112);stroke:none;"/></g><g id="sprotty_ArchitectureBlockImpl$el2_dec_gpr_ctl/BPortImpl$waddr2_to_ArchitectureBlockImpl$el2_dec_gpr_ctl/AlwaysBlockImpl$null17/GPortImpl$waddr2IN" class="sprotty-edge thick edge" style="fill:none;stroke:rgb(112, 112, 112);stroke-linejoin:round;stroke-width:3px;"><g><path d="M 0 239 L 93.875 239 C 94.875 239 95.875 238 95.875 237 L 95.875 217 C 95.875 216 96.875 215 97.875 215 L 155.875 215 "/><path d="M 0 239 L 93.875 239 C 94.875 239 95.875 238 95.875 237 L 95.875 217 C 95.875 216 96.875 215 97.875 215 L 155.875 215 " class="clickable"/></g></g><g id="sprotty_ArchitectureBlockImpl$el2_dec_gpr_ctl/BPortImpl$wd0_to_ArchitectureBlockImpl$el2_dec_gpr_ctl/AlwaysBlockImpl$null17/GPortImpl$wd0IN" class="sprotty-edge thick edge" style="fill:none;stroke:rgb(112, 112, 112);stroke-linejoin:round;stroke-width:3px;"><g><path d="M 0 137 L 103.875 137 C 104.875 137 105.875 138 105.875 139 L 105.875 183 C 105.875 184 106.875 185 107.875 185 L 155.875 185 "/><path d="M 0 137 L 103.875 137 C 104.875 137 105.875 138 105.875 139 L 105.875 183 C 105.875 184 106.875 185 107.875 185 L 155.875 185 " class="clickable"/></g></g><g id="sprotty_ArchitectureBlockImpl$el2_dec_gpr_ctl/BPortImpl$wd1_to_ArchitectureBlockImpl$el2_dec_gpr_ctl/AlwaysBlockImpl$null17/GPortImpl$wd1IN" class="sprotty-edge thick edge" style="fill:none;stroke:rgb(112, 112, 112);stroke-linejoin:round;stroke-width:3px;"><g><path d="M 0 307 L 113.875 307 C 114.875 307 115.875 306 115.875 305 L 115.875 237 C 115.875 236 116.875 235 117.875 235 L 155.875 235 "/><path d="M 0 307 L 113.875 307 C 114.875 307 115.875 306 115.875 305 L 115.875 237 C 115.875 236 116.875 235 117.875 235 L 155.875 235 " class="clickable"/></g></g><g id="sprotty_ArchitectureBlockImpl$el2_dec_gpr_ctl/BPortImpl$wd2_to_ArchitectureBlockImpl$el2_dec_gpr_ctl/AlwaysBlockImpl$null17/GPortImpl$wd2IN" class="sprotty-edge thick edge" style="fill:none;stroke:rgb(112, 112, 112);stroke-linejoin:round;stroke-width:3px;"><g><path d="M 0 273 L 103.875 273 C 104.875 273 105.875 272 105.875 271 L 105.875 227 C 105.875 226 106.875 225 107.875 225 L 155.875 225 "/><path d="M 0 273 L 103.875 273 C 104.875 273 105.875 272 105.875 271 L 105.875 227 C 105.875 226 106.875 225 107.875 225 L 155.875 225 " class="clickable"/></g></g><g id="sprotty_ArchitectureBlockImpl$el2_dec_gpr_ctl/BPortImpl$clk_to_ArchitectureBlockImpl$el2_dec_gpr_ctl/GenerateStatementBlockImpl$gpr/GPortImpl$clk" class="sprotty-edge edge" style="fill:none;stroke:rgb(112, 112, 112);stroke-linejoin:round;"><g><path d="M 0 409 L 319.0625 409 "/><path d="M 0 409 L 319.0625 409 " class="clickable"/></g></g><g id="sprotty_ArchitectureBlockImpl$el2_dec_gpr_ctl/BPortImpl$rst_l_to_ArchitectureBlockImpl$el2_dec_gpr_ctl/GenerateStatementBlockImpl$gpr/GPortImpl$rst_l" class="sprotty-edge edge" style="fill:none;stroke:rgb(112, 112, 112);stroke-linejoin:round;"><g><path d="M 0 443 L 297.0625 443 C 298.0625 443 299.0625 442 299.0625 441 L 299.0625 439 C 299.0625 438 300.0625 437 301.0625 437 L 319.0625 437 "/><path d="M 0 443 L 297.0625 443 C 298.0625 443 299.0625 442 299.0625 441 L 299.0625 439 C 299.0625 438 300.0625 437 301.0625 437 L 319.0625 437 " class="clickable"/></g></g><g id="sprotty_ArchitectureBlockImpl$el2_dec_gpr_ctl/BPortImpl$scan_mode_to_ArchitectureBlockImpl$el2_dec_gpr_ctl/GenerateStatementBlockImpl$gpr/GPortImpl$scan_mode" class="sprotty-edge edge" style="fill:none;stroke:rgb(112, 112, 112);stroke-linejoin:round;"><g><path d="M 0 477 L 297.0625 477 C 298.0625 477 299.0625 476 299.0625 475 L 299.0625 467 C 299.0625 466 300.0625 465 301.0625 465 L 319.0625 465 "/><path d="M 0 477 L 297.0625 477 C 298.0625 477 299.0625 476 299.0625 475 L 299.0625 467 C 299.0625 466 300.0625 465 301.0625 465 L 319.0625 465 " class="clickable"/></g></g><g id="sprotty_ArchitectureBlockImpl$el2_dec_gpr_ctl/GenerateStatementBlockImpl$gpr/GPortImpl$gpr_out_to_ArchitectureBlockImpl$el2_dec_gpr_ctl/AlwaysBlockImpl$null17/GPortImpl$gpr_outIN" class="sprotty-edge thick edge" style="fill:none;stroke:rgb(112, 112, 112);stroke-linejoin:round;stroke-width:3px;"><g><path d="M 490.8125 409 L 498.8125 409 C 499.8125 409 500.8125 408 500.8125 407 L 500.8125 127 C 500.8125 126 499.8125 125 498.8125 125 L 147.875 125 C 146.875 125 145.875 126 145.875 127 L 145.875 143 C 145.875 144 146.875 145 147.875 145 L 155.875 145 "/><path d="M 490.8125 409 L 498.8125 409 C 499.8125 409 500.8125 408 500.8125 407 L 500.8125 127 C 500.8125 126 499.8125 125 498.8125 125 L 147.875 125 C 146.875 125 145.875 126 145.875 127 L 145.875 143 C 145.875 144 146.875 145 147.875 145 L 155.875 145 " class="clickable"/></g></g><g id="sprotty_ArchitectureBlockImpl$el2_dec_gpr_ctl/AlwaysBlockImpl$null17/GPortImpl$gpr_inOUT_to_ArchitectureBlockImpl$el2_dec_gpr_ctl/GenerateStatementBlockImpl$gpr/GPortImpl$gpr_in" class="sprotty-edge thick edge" style="fill:none;stroke:rgb(112, 112, 112);stroke-linejoin:round;stroke-width:3px;"><g><path d="M 219.625 172.14285714285714 L 307.0625 172.14285714285714 C 308.0625 172.14285714285714 309.0625 173.14285714285714 309.0625 174.14285714285714 L 309.0625 351 C 309.0625 352 310.0625 353 311.0625 353 L 319.0625 353 "/><path d="M 219.625 172.14285714285714 L 307.0625 172.14285714285714 C 308.0625 172.14285714285714 309.0625 173.14285714285714 309.0625 174.14285714285714 L 309.0625 351 C 309.0625 352 310.0625 353 311.0625 353 L 319.0625 353 " class="clickable"/></g></g><g id="sprotty_ArchitectureBlockImpl$el2_dec_gpr_ctl/AlwaysBlockImpl$null17/GPortImpl$w0vOUT_to_ArchitectureBlockImpl$el2_dec_gpr_ctl/AssignmentBlockImpl$gpr_wr_en/GPortImpl$w0vIN" class="sprotty-edge thick edge" style="fill:none;stroke:rgb(112, 112, 112);stroke-linejoin:round;stroke-width:3px;"><g><path d="M 219.625 190.71428571428572 L 257.625 190.71428571428572 C 258.625 190.71428571428572 259.625 191.71428571428572 259.625 192.71428571428572 L 259.625 205.85714285714283 C 259.625 206.85714285714283 260.625 207.85714285714283 261.625 207.85714285714283 L 269.625 207.85714285714283 "/><path d="M 219.625 190.71428571428572 L 257.625 190.71428571428572 C 258.625 190.71428571428572 259.625 191.71428571428572 259.625 192.71428571428572 L 259.625 205.85714285714283 C 259.625 206.85714285714283 260.625 207.85714285714283 261.625 207.85714285714283 L 269.625 207.85714285714283 " class="clickable"/></g><circle r="3" id="sprotty_ArchitectureBlockImpl$el2_dec_gpr_ctl/AlwaysBlockImpl$null17/GPortImpl$w0vOUT_to_ArchitectureBlockImpl$el2_dec_gpr_ctl/AssignmentBlockImpl$gpr_wr_en/GPortImpl$w0vIN/junction0" transform="translate(259.625, 207.85714285714283)" class="sprotty-junction thick" style="fill:rgb(112, 112, 112);stroke:none;"/></g><g id="sprotty_ArchitectureBlockImpl$el2_dec_gpr_ctl/AlwaysBlockImpl$null17/GPortImpl$w0vOUT_to_ArchitectureBlockImpl$el2_dec_gpr_ctl/AssignmentBlockImpl$write_collision_unused/GPortImpl$w0vIN" class="sprotty-edge thick edge" style="fill:none;stroke:rgb(112, 112, 112);stroke-linejoin:round;stroke-width:3px;"><g><path d="M 219.625 190.71428571428572 L 257.625 190.71428571428572 C 258.625 190.71428571428572 259.625 191.71428571428572 259.625 192.71428571428572 L 259.625 265.85714285714283 C 259.625 266.85714285714283 260.625 267.85714285714283 261.625 267.85714285714283 L 269.625 267.85714285714283 "/><path d="M 219.625 190.71428571428572 L 257.625 190.71428571428572 C 258.625 190.71428571428572 259.625 191.71428571428572 259.625 192.71428571428572 L 259.625 265.85714285714283 C 259.625 266.85714285714283 260.625 267.85714285714283 261.625 267.85714285714283 L 269.625 267.85714285714283 " class="clickable"/></g></g><g id="sprotty_ArchitectureBlockImpl$el2_dec_gpr_ctl/AlwaysBlockImpl$null17/GPortImpl$w1vOUT_to_ArchitectureBlockImpl$el2_dec_gpr_ctl/AssignmentBlockImpl$gpr_wr_en/GPortImpl$w1vIN" class="sprotty-edge thick edge" style="fill:none;stroke:rgb(112, 112, 112);stroke-linejoin:round;stroke-width:3px;"><g><path d="M 219.625 227.85714285714283 L 269.625 227.85714285714283 "/><path d="M 219.625 227.85714285714283 L 269.625 227.85714285714283 " class="clickable"/></g></g><g id="sprotty_ArchitectureBlockImpl$el2_dec_gpr_ctl/AlwaysBlockImpl$null17/GPortImpl$w1vOUT_to_ArchitectureBlockImpl$el2_dec_gpr_ctl/AssignmentBlockImpl$write_collision_unused/GPortImpl$w1vIN" class="sprotty-edge thick edge" style="fill:none;stroke:rgb(112, 112, 112);stroke-linejoin:round;stroke-width:3px;"><g><path d="M 219.625 227.85714285714283 L 237.625 227.85714285714283 C 238.625 227.85714285714283 239.625 228.85714285714283 239.625 229.85714285714283 L 239.625 285.85714285714283 C 239.625 286.85714285714283 240.625 287.85714285714283 241.625 287.85714285714283 L 269.625 287.85714285714283 "/><path d="M 219.625 227.85714285714283 L 237.625 227.85714285714283 C 238.625 227.85714285714283 239.625 228.85714285714283 239.625 229.85714285714283 L 239.625 285.85714285714283 C 239.625 286.85714285714283 240.625 287.85714285714283 241.625 287.85714285714283 L 269.625 287.85714285714283 " class="clickable"/></g><circle r="3" id="sprotty_ArchitectureBlockImpl$el2_dec_gpr_ctl/AlwaysBlockImpl$null17/GPortImpl$w1vOUT_to_ArchitectureBlockImpl$el2_dec_gpr_ctl/AssignmentBlockImpl$write_collision_unused/GPortImpl$w1vIN/junction0" transform="translate(239.625, 227.85714285714283)" class="sprotty-junction thick" style="fill:rgb(112, 112, 112);stroke:none;"/></g><g id="sprotty_ArchitectureBlockImpl$el2_dec_gpr_ctl/AlwaysBlockImpl$null17/GPortImpl$w2vOUT_to_ArchitectureBlockImpl$el2_dec_gpr_ctl/AssignmentBlockImpl$gpr_wr_en/GPortImpl$w2vIN" class="sprotty-edge thick edge" style="fill:none;stroke:rgb(112, 112, 112);stroke-linejoin:round;stroke-width:3px;"><g><path d="M 219.625 209.28571428571428 L 247.625 209.28571428571428 C 248.625 209.28571428571428 249.625 210.28571428571428 249.625 211.28571428571428 L 249.625 215.85714285714283 C 249.625 216.85714285714283 250.625 217.85714285714283 251.625 217.85714285714283 L 269.625 217.85714285714283 "/><path d="M 219.625 209.28571428571428 L 247.625 209.28571428571428 C 248.625 209.28571428571428 249.625 210.28571428571428 249.625 211.28571428571428 L 249.625 215.85714285714283 C 249.625 216.85714285714283 250.625 217.85714285714283 251.625 217.85714285714283 L 269.625 217.85714285714283 " class="clickable"/></g><circle r="3" id="sprotty_ArchitectureBlockImpl$el2_dec_gpr_ctl/AlwaysBlockImpl$null17/GPortImpl$w2vOUT_to_ArchitectureBlockImpl$el2_dec_gpr_ctl/AssignmentBlockImpl$gpr_wr_en/GPortImpl$w2vIN/junction0" transform="translate(249.625, 217.85714285714283)" class="sprotty-junction thick" style="fill:rgb(112, 112, 112);stroke:none;"/></g><g id="sprotty_ArchitectureBlockImpl$el2_dec_gpr_ctl/AlwaysBlockImpl$null17/GPortImpl$w2vOUT_to_ArchitectureBlockImpl$el2_dec_gpr_ctl/AssignmentBlockImpl$write_collision_unused/GPortImpl$w2vIN" class="sprotty-edge thick edge" style="fill:none;stroke:rgb(112, 112, 112);stroke-linejoin:round;stroke-width:3px;"><g><path d="M 219.625 209.28571428571428 L 247.625 209.28571428571428 C 248.625 209.28571428571428 249.625 210.28571428571428 249.625 211.28571428571428 L 249.625 275.85714285714283 C 249.625 276.85714285714283 250.625 277.85714285714283 251.625 277.85714285714283 L 269.625 277.85714285714283 "/><path d="M 219.625 209.28571428571428 L 247.625 209.28571428571428 C 248.625 209.28571428571428 249.625 210.28571428571428 249.625 211.28571428571428 L 249.625 275.85714285714283 C 249.625 276.85714285714283 250.625 277.85714285714283 251.625 277.85714285714283 L 269.625 277.85714285714283 " class="clickable"/></g></g><g id="sprotty_ArchitectureBlockImpl$el2_dec_gpr_ctl/AssignmentBlockImpl$gpr_wr_en/GPortImpl$w2vOUT_to_ArchitectureBlockImpl$el2_dec_gpr_ctl/GenerateStatementBlockImpl$gpr/GPortImpl$gpr_wr_en" class="sprotty-edge thick edge" style="fill:none;stroke:rgb(112, 112, 112);stroke-linejoin:round;stroke-width:3px;"><g><path d="M 289.0625 217.85714285714283 L 297.0625 217.85714285714283 C 298.0625 217.85714285714283 299.0625 218.85714285714283 299.0625 219.85714285714283 L 299.0625 379 C 299.0625 380 300.0625 381 301.0625 381 L 319.0625 381 "/><path d="M 289.0625 217.85714285714283 L 297.0625 217.85714285714283 C 298.0625 217.85714285714283 299.0625 218.85714285714283 299.0625 219.85714285714283 L 299.0625 379 C 299.0625 380 300.0625 381 301.0625 381 L 319.0625 381 " class="clickable"/></g></g><g id="sprotty_ArchitectureBlockImpl$el2_dec_gpr_ctl/GenerateStatementBlockImpl$gpr" class="generate" transform="translate(319.0625, 280)"><g class="sprotty-block sprotty-block-generate" style="fill:rgb(255, 255, 255);stroke:rgb(48, 48, 48);stroke-dasharray:0px;"><rect x="0" y="0" rx="1" ry="1" width="171.75" height="218" style="stroke-dasharray:3px, 1px;"/><text x="85.875" y="12" class="sprotty-block-name" style="cursor:pointer;font-weight:700;perspective-origin:43.0703px 0px;fill:rgb(48, 48, 48);stroke:rgba(0, 0, 0, 0);dominant-baseline:middle;text-anchor:middle;">gpr</text><line x1="0" y1="20" x2="171.75" y2="20" style="stroke-dasharray:3px, 1px;"/></g><g id="sprotty_ArchitectureBlockImpl$el2_dec_gpr_ctl/GenerateStatementBlockImpl$gpr/GPortImpl$clk_to_ArchitectureBlockImpl$el2_dec_gpr_ctl/GenerateStatementBlockImpl$gpr/InstantiationBlockImpl$gprff/BPortImpl$clk" class="sprotty-edge edge" style="fill:none;stroke:rgb(112, 112, 112);stroke-linejoin:round;"><g><path d="M 0 129 L 15 129 "/><path d="M 0 129 L 15 129 " class="clickable"/></g></g><g id="sprotty_ArchitectureBlockImpl$el2_dec_gpr_ctl/GenerateStatementBlockImpl$gpr/GPortImpl$rst_l_to_ArchitectureBlockImpl$el2_dec_gpr_ctl/GenerateStatementBlockImpl$gpr/InstantiationBlockImpl$gprff/BPortImpl$rst_l" class="sprotty-edge edge" style="fill:none;stroke:rgb(112, 112, 112);stroke-linejoin:round;"><g><path d="M 0 157 L 15 157 "/><path d="M 0 157 L 15 157 " class="clickable"/></g></g><g id="sprotty_ArchitectureBlockImpl$el2_dec_gpr_ctl/GenerateStatementBlockImpl$gpr/GPortImpl$scan_mode_to_ArchitectureBlockImpl$el2_dec_gpr_ctl/GenerateStatementBlockImpl$gpr/InstantiationBlockImpl$gprff/BPortImpl$scan_mode" class="sprotty-edge edge" style="fill:none;stroke:rgb(112, 112, 112);stroke-linejoin:round;"><g><path d="M 0 185 L 15 185 "/><path d="M 0 185 L 15 185 " class="clickable"/></g></g><g id="sprotty_ArchitectureBlockImpl$el2_dec_gpr_ctl/GenerateStatementBlockImpl$gpr/InstantiationBlockImpl$gprff/BPortImpl$dout_to_ArchitectureBlockImpl$el2_dec_gpr_ctl/GenerateStatementBlockImpl$gpr/GPortImpl$gpr_out" class="sprotty-edge thick edge" style="fill:none;stroke:rgb(112, 112, 112);stroke-linejoin:round;stroke-width:3px;"><g><path d="M 156.75 129 L 171.75 129 "/><path d="M 156.75 129 L 171.75 129 " class="clickable"/></g></g><g id="sprotty_ArchitectureBlockImpl$el2_dec_gpr_ctl/GenerateStatementBlockImpl$gpr/GPortImpl$gpr_in_to_ArchitectureBlockImpl$el2_dec_gpr_ctl/GenerateStatementBlockImpl$gpr/InstantiationBlockImpl$gprff/BPortImpl$din" class="sprotty-edge thick edge" style="fill:none;stroke:rgb(112, 112, 112);stroke-linejoin:round;stroke-width:3px;"><g><path d="M 0 73 L 15 73 "/><path d="M 0 73 L 15 73 " class="clickable"/></g></g><g id="sprotty_ArchitectureBlockImpl$el2_dec_gpr_ctl/GenerateStatementBlockImpl$gpr/GPortImpl$gpr_wr_en_to_ArchitectureBlockImpl$el2_dec_gpr_ctl/GenerateStatementBlockImpl$gpr/InstantiationBlockImpl$gprff/BPortImpl$en" class="sprotty-edge thick edge" style="fill:none;stroke:rgb(112, 112, 112);stroke-linejoin:round;stroke-width:3px;"><g><path d="M 0 101 L 15 101 "/><path d="M 0 101 L 15 101 " class="clickable"/></g></g><g id="sprotty_ArchitectureBlockImpl$el2_dec_gpr_ctl/GenerateStatementBlockImpl$gpr/InstantiationBlockImpl$gprff" class="instantiation" transform="translate(15, 35)"><g class="sprotty-block" style="fill:rgb(255, 255, 255);stroke:rgb(48, 48, 48);stroke-dasharray:0px;"><rect x="0" y="0" rx="1" ry="1" width="141.75" height="168"/><text x="70.875" y="12" class="sprotty-block-name" style="cursor:pointer;font-weight:700;perspective-origin:35.4375px 0px;fill:rgb(48, 48, 48);stroke:rgba(0, 0, 0, 0);dominant-baseline:middle;text-anchor:middle;">gprff : rvdffe</text><line x1="0" y1="20" x2="141.75" y2="20"/></g><g id="sprotty_ArchitectureBlockImpl$el2_dec_gpr_ctl/GenerateStatementBlockImpl$gpr/InstantiationBlockImpl$gprff/BPortImpl$scan_mode" class="triangle" transform="translate(0, 150)"><path d="M 0,0 L 5,2.5 L 0,5 Z" transform="translate(-1.67, -2.5)" class="sprotty-port" style="fill:rgb(48, 48, 48);stroke:rgb(48, 48, 48);"/><text class="clickable sprotty-label port" id="sprotty_ArchitectureBlockImpl$el2_dec_gpr_ctl/GenerateStatementBlockImpl$gpr/InstantiationBlockImpl$gprff/BPortImpl$scan_mode/label" transform="translate(6, -9) translate(32.4375, 14)" style="cursor:default;font-size:12px;perspective-origin:0px 0px;fill:rgb(48, 48, 48);text-anchor:middle;">scan_mode</text></g><g id="sprotty_ArchitectureBlockImpl$el2_dec_gpr_ctl/GenerateStatementBlockImpl$gpr/InstantiationBlockImpl$gprff/BPortImpl$rst_l" class="triangle" transform="translate(0, 122)"><path d="M 0,0 L 5,2.5 L 0,5 Z" transform="translate(-1.67, -2.5)" class="sprotty-port" style="fill:rgb(48, 48, 48);stroke:rgb(48, 48, 48);"/><text class="clickable sprotty-label port" id="sprotty_ArchitectureBlockImpl$el2_dec_gpr_ctl/GenerateStatementBlockImpl$gpr/InstantiationBlockImpl$gprff/BPortImpl$rst_l/label" transform="translate(6, -9) translate(12.3125, 14)" style="cursor:default;font-size:12px;perspective-origin:0px 0px;fill:rgb(48, 48, 48);text-anchor:middle;">rst_l</text></g><g id="sprotty_ArchitectureBlockImpl$el2_dec_gpr_ctl/GenerateStatementBlockImpl$gpr/InstantiationBlockImpl$gprff/BPortImpl$clk" class="triangle" transform="translate(0, 94)"><path d="M 0,0 L 5,2.5 L 0,5 Z" transform="translate(-1.67, -2.5)" class="sprotty-port" style="fill:rgb(48, 48, 48);stroke:rgb(48, 48, 48);"/><text class="clickable sprotty-label port" id="sprotty_ArchitectureBlockImpl$el2_dec_gpr_ctl/GenerateStatementBlockImpl$gpr/InstantiationBlockImpl$gprff/BPortImpl$clk/label" transform="translate(6, -9) translate(8.078125, 14)" style="cursor:default;font-size:12px;perspective-origin:0.09375px 0px;fill:rgb(48, 48, 48);text-anchor:middle;">clk</text></g><g id="sprotty_ArchitectureBlockImpl$el2_dec_gpr_ctl/GenerateStatementBlockImpl$gpr/InstantiationBlockImpl$gprff/BPortImpl$en" class="triangle" transform="translate(0, 66)"><path d="M 0,0 L 5,2.5 L 0,5 Z" transform="translate(-1.67, -2.5)" class="sprotty-port" style="fill:rgb(48, 48, 48);stroke:rgb(48, 48, 48);"/><text class="clickable sprotty-label port" id="sprotty_ArchitectureBlockImpl$el2_dec_gpr_ctl/GenerateStatementBlockImpl$gpr/InstantiationBlockImpl$gprff/BPortImpl$en/label" transform="translate(6, -9) translate(7, 14)" style="cursor:default;font-size:12px;perspective-origin:0px 0px;fill:rgb(48, 48, 48);text-anchor:middle;">en</text></g><g id="sprotty_ArchitectureBlockImpl$el2_dec_gpr_ctl/GenerateStatementBlockImpl$gpr/InstantiationBlockImpl$gprff/BPortImpl$din" class="triangle" transform="translate(0, 38)"><path d="M 0,0 L 5,2.5 L 0,5 Z" transform="translate(-1.67, -2.5)" class="sprotty-port" style="fill:rgb(48, 48, 48);stroke:rgb(48, 48, 48);"/><text class="clickable sprotty-label port" id="sprotty_ArchitectureBlockImpl$el2_dec_gpr_ctl/GenerateStatementBlockImpl$gpr/InstantiationBlockImpl$gprff/BPortImpl$din/label" transform="translate(6, -9) translate(9.046875, 14)" style="cursor:default;font-size:12px;perspective-origin:0px 0px;fill:rgb(48, 48, 48);text-anchor:middle;">din</text></g><g id="sprotty_ArchitectureBlockImpl$el2_dec_gpr_ctl/GenerateStatementBlockImpl$gpr/InstantiationBlockImpl$gprff/BPortImpl$dout" class="triangle" transform="translate(141.75, 94)"><path d="M 0,0 L 5,2.5 L 0,5 Z" transform="translate(-1.67, -2.5)" class="sprotty-port" style="fill:rgb(48, 48, 48);stroke:rgb(48, 48, 48);"/><text class="clickable sprotty-label port" id="sprotty_ArchitectureBlockImpl$el2_dec_gpr_ctl/GenerateStatementBlockImpl$gpr/InstantiationBlockImpl$gprff/BPortImpl$dout/label" transform="translate(-32.53125, -9) translate(13.265625, 14)" style="cursor:default;font-size:12px;perspective-origin:0px 0px;fill:rgb(48, 48, 48);text-anchor:middle;">dout</text></g></g><g id="sprotty_ArchitectureBlockImpl$el2_dec_gpr_ctl/GenerateStatementBlockImpl$gpr/GPortImpl$gpr_wr_en" class="triangle" transform="translate(0, 101)"><path d="M 0,0 L 5,2.5 L 0,5 Z" transform="translate(-1.67, -2.5)" class="sprotty-port" style="fill:rgb(48, 48, 48);stroke:rgb(48, 48, 48);"/></g><g id="sprotty_ArchitectureBlockImpl$el2_dec_gpr_ctl/GenerateStatementBlockImpl$gpr/GPortImpl$gpr_in" class="triangle" transform="translate(0, 73)"><path d="M 0,0 L 5,2.5 L 0,5 Z" transform="translate(-1.67, -2.5)" class="sprotty-port" style="fill:rgb(48, 48, 48);stroke:rgb(48, 48, 48);"/></g><g id="sprotty_ArchitectureBlockImpl$el2_dec_gpr_ctl/GenerateStatementBlockImpl$gpr/GPortImpl$scan_mode" class="triangle" transform="translate(0, 185)"><path d="M 0,0 L 5,2.5 L 0,5 Z" transform="translate(-1.67, -2.5)" class="sprotty-port" style="fill:rgb(48, 48, 48);stroke:rgb(48, 48, 48);"/></g><g id="sprotty_ArchitectureBlockImpl$el2_dec_gpr_ctl/GenerateStatementBlockImpl$gpr/GPortImpl$rst_l" class="triangle" transform="translate(0, 157)"><path d="M 0,0 L 5,2.5 L 0,5 Z" transform="translate(-1.67, -2.5)" class="sprotty-port" style="fill:rgb(48, 48, 48);stroke:rgb(48, 48, 48);"/></g><g id="sprotty_ArchitectureBlockImpl$el2_dec_gpr_ctl/GenerateStatementBlockImpl$gpr/GPortImpl$clk" class="triangle" transform="translate(0, 129)"><path d="M 0,0 L 5,2.5 L 0,5 Z" transform="translate(-1.67, -2.5)" class="sprotty-port" style="fill:rgb(48, 48, 48);stroke:rgb(48, 48, 48);"/></g><g id="sprotty_ArchitectureBlockImpl$el2_dec_gpr_ctl/GenerateStatementBlockImpl$gpr/GPortImpl$gpr_out" class="triangle" transform="translate(171.75, 129)"><path d="M 0,0 L 5,2.5 L 0,5 Z" transform="translate(-1.67, -2.5)" class="sprotty-port" style="fill:rgb(48, 48, 48);stroke:rgb(48, 48, 48);"/></g></g><g id="sprotty_ArchitectureBlockImpl$el2_dec_gpr_ctl/AlwaysBlockImpl$null17" class="statement" transform="translate(155.875, 135)"><rect x="0" y="0" rx="10" ry="5" width="63.75" height="130" class="sprotty-node" style="fill:rgb(245, 245, 245);stroke:rgb(112, 112, 112);"/><text class="clickable sprotty-label statementtype" id="sprotty_ArchitectureBlockImpl$el2_dec_gpr_ctl/AlwaysBlockImpl$null17/labeltype" transform="translate(5, 59) translate(26.875, 9)" style="cursor:default;font-size:8px;font-weight:700;perspective-origin:0px 0px;fill:rgb(112, 112, 112);text-anchor:middle;">always_comb</text><g id="sprotty_ArchitectureBlockImpl$el2_dec_gpr_ctl/AlwaysBlockImpl$null17/GPortImpl$wd2IN" class="sprotty-hidden hidden" transform="translate(0, 90)" style="display:block;height:0px;width:0px;"/><g id="sprotty_ArchitectureBlockImpl$el2_dec_gpr_ctl/AlwaysBlockImpl$null17/GPortImpl$wd1IN" class="sprotty-hidden hidden" transform="translate(0, 100)" style="display:block;height:0px;width:0px;"/><g id="sprotty_ArchitectureBlockImpl$el2_dec_gpr_ctl/AlwaysBlockImpl$null17/GPortImpl$wd0IN" class="sprotty-hidden hidden" transform="translate(0, 50)" style="display:block;height:0px;width:0px;"/><g id="sprotty_ArchitectureBlockImpl$el2_dec_gpr_ctl/AlwaysBlockImpl$null17/GPortImpl$waddr2IN" class="sprotty-hidden hidden" transform="translate(0, 80)" style="display:block;height:0px;width:0px;"/><g id="sprotty_ArchitectureBlockImpl$el2_dec_gpr_ctl/AlwaysBlockImpl$null17/GPortImpl$wen2IN" class="sprotty-hidden hidden" transform="translate(0, 110)" style="display:block;height:0px;width:0px;"/><g id="sprotty_ArchitectureBlockImpl$el2_dec_gpr_ctl/AlwaysBlockImpl$null17/GPortImpl$waddr1IN" class="sprotty-hidden hidden" transform="translate(0, 20)" style="display:block;height:0px;width:0px;"/><g id="sprotty_ArchitectureBlockImpl$el2_dec_gpr_ctl/AlwaysBlockImpl$null17/GPortImpl$wen1IN" class="sprotty-hidden hidden" transform="translate(0, 70)" style="display:block;height:0px;width:0px;"/><g id="sprotty_ArchitectureBlockImpl$el2_dec_gpr_ctl/AlwaysBlockImpl$null17/GPortImpl$waddr0IN" class="sprotty-hidden hidden" transform="translate(0, 60)" style="display:block;height:0px;width:0px;"/><g id="sprotty_ArchitectureBlockImpl$el2_dec_gpr_ctl/AlwaysBlockImpl$null17/GPortImpl$wen0IN" class="sprotty-hidden hidden" transform="translate(0, 120)" style="display:block;height:0px;width:0px;"/><g id="sprotty_ArchitectureBlockImpl$el2_dec_gpr_ctl/AlwaysBlockImpl$null17/GPortImpl$raddr1IN" class="sprotty-hidden hidden" transform="translate(0, 40)" style="display:block;height:0px;width:0px;"/><g id="sprotty_ArchitectureBlockImpl$el2_dec_gpr_ctl/AlwaysBlockImpl$null17/GPortImpl$gpr_outIN" class="sprotty-hidden hidden" transform="translate(0, 10)" style="display:block;height:0px;width:0px;"/><g id="sprotty_ArchitectureBlockImpl$el2_dec_gpr_ctl/AlwaysBlockImpl$null17/GPortImpl$raddr0IN" class="sprotty-hidden hidden" transform="translate(0, 30)" style="display:block;height:0px;width:0px;"/><g id="sprotty_ArchitectureBlockImpl$el2_dec_gpr_ctl/AlwaysBlockImpl$null17/GPortImpl$rd0OUT" class="sprotty-hidden hidden" transform="translate(63.75, 18.57142857142857)" style="display:block;height:0px;width:0px;"/><g id="sprotty_ArchitectureBlockImpl$el2_dec_gpr_ctl/AlwaysBlockImpl$null17/GPortImpl$rd1OUT" class="sprotty-hidden hidden" transform="translate(63.75, 111.42857142857142)" style="display:block;height:0px;width:0px;"/><g id="sprotty_ArchitectureBlockImpl$el2_dec_gpr_ctl/AlwaysBlockImpl$null17/GPortImpl$w0vOUT" class="sprotty-hidden hidden" transform="translate(63.75, 55.71428571428571)" style="display:block;height:0px;width:0px;"/><g id="sprotty_ArchitectureBlockImpl$el2_dec_gpr_ctl/AlwaysBlockImpl$null17/GPortImpl$w1vOUT" class="sprotty-hidden hidden" transform="translate(63.75, 92.85714285714285)" style="display:block;height:0px;width:0px;"/><g id="sprotty_ArchitectureBlockImpl$el2_dec_gpr_ctl/AlwaysBlockImpl$null17/GPortImpl$w2vOUT" class="sprotty-hidden hidden" transform="translate(63.75, 74.28571428571428)" style="display:block;height:0px;width:0px;"/><g id="sprotty_ArchitectureBlockImpl$el2_dec_gpr_ctl/AlwaysBlockImpl$null17/GPortImpl$gpr_inOUT" class="sprotty-hidden hidden" transform="translate(63.75, 37.14285714285714)" style="display:block;height:0px;width:0px;"/></g><g id="sprotty_ArchitectureBlockImpl$el2_dec_gpr_ctl/AssignmentBlockImpl$write_collision_unused" class="statement" transform="translate(269.625, 257.85714285714283)"><rect x="0" y="0" rx="10" ry="5" width="19.4375" height="70" class="sprotty-node" style="fill:rgb(245, 245, 245);stroke:rgb(112, 112, 112);"/><text class="clickable sprotty-label statementtype" id="sprotty_ArchitectureBlockImpl$el2_dec_gpr_ctl/AssignmentBlockImpl$write_collision_unused/labeltype" transform="translate(5, 29) translate(4.71875, 9)" style="cursor:default;font-size:8px;font-weight:700;perspective-origin:0px 0px;fill:rgb(112, 112, 112);text-anchor:middle;">&lt;=</text><g id="sprotty_ArchitectureBlockImpl$el2_dec_gpr_ctl/AssignmentBlockImpl$write_collision_unused/GPortImpl$wen2IN" class="sprotty-hidden hidden" transform="translate(0, 50)" style="display:block;height:0px;width:0px;"/><g id="sprotty_ArchitectureBlockImpl$el2_dec_gpr_ctl/AssignmentBlockImpl$write_collision_unused/GPortImpl$w2vIN" class="sprotty-hidden hidden" transform="translate(0, 20)" style="display:block;height:0px;width:0px;"/><g id="sprotty_ArchitectureBlockImpl$el2_dec_gpr_ctl/AssignmentBlockImpl$write_collision_unused/GPortImpl$wen1IN" class="sprotty-hidden hidden" transform="translate(0, 40)" style="display:block;height:0px;width:0px;"/><g id="sprotty_ArchitectureBlockImpl$el2_dec_gpr_ctl/AssignmentBlockImpl$write_collision_unused/GPortImpl$wen0IN" class="sprotty-hidden hidden" transform="translate(0, 60)" style="display:block;height:0px;width:0px;"/><g id="sprotty_ArchitectureBlockImpl$el2_dec_gpr_ctl/AssignmentBlockImpl$write_collision_unused/GPortImpl$w1vIN" class="sprotty-hidden hidden" transform="translate(0, 30)" style="display:block;height:0px;width:0px;"/><g id="sprotty_ArchitectureBlockImpl$el2_dec_gpr_ctl/AssignmentBlockImpl$write_collision_unused/GPortImpl$w0vIN" class="sprotty-hidden hidden" transform="translate(0, 10)" style="display:block;height:0px;width:0px;"/></g><g id="sprotty_ArchitectureBlockImpl$el2_dec_gpr_ctl/AssignmentBlockImpl$gpr_wr_en" class="statement" transform="translate(269.625, 197.85714285714283)"><rect x="0" y="0" rx="10" ry="5" width="19.4375" height="40" class="sprotty-node" style="fill:rgb(245, 245, 245);stroke:rgb(112, 112, 112);"/><text class="clickable sprotty-label statementtype" id="sprotty_ArchitectureBlockImpl$el2_dec_gpr_ctl/AssignmentBlockImpl$gpr_wr_en/labeltype" transform="translate(5, 14) translate(4.71875, 9)" style="cursor:default;font-size:8px;font-weight:700;perspective-origin:0px 0px;fill:rgb(112, 112, 112);text-anchor:middle;">&lt;=</text><g id="sprotty_ArchitectureBlockImpl$el2_dec_gpr_ctl/AssignmentBlockImpl$gpr_wr_en/GPortImpl$w2vIN" class="sprotty-hidden hidden" transform="translate(0, 20)" style="display:block;height:0px;width:0px;"/><g id="sprotty_ArchitectureBlockImpl$el2_dec_gpr_ctl/AssignmentBlockImpl$gpr_wr_en/GPortImpl$w1vIN" class="sprotty-hidden hidden" transform="translate(0, 30)" style="display:block;height:0px;width:0px;"/><g id="sprotty_ArchitectureBlockImpl$el2_dec_gpr_ctl/AssignmentBlockImpl$gpr_wr_en/GPortImpl$w0vIN" class="sprotty-hidden hidden" transform="translate(0, 10)" style="display:block;height:0px;width:0px;"/><g id="sprotty_ArchitectureBlockImpl$el2_dec_gpr_ctl/AssignmentBlockImpl$gpr_wr_en/GPortImpl$w2vOUT" class="sprotty-hidden hidden" transform="translate(19.4375, 20)" style="display:block;height:0px;width:0px;"/></g><g id="sprotty_ArchitectureBlockImpl$el2_dec_gpr_ctl/BPortImpl$scan_mode" class="triangle" transform="translate(0, 477)"><path d="M 0,0 L 5,2.5 L 0,5 Z" transform="translate(-1.67, -2.5)" class="sprotty-port" style="fill:rgb(48, 48, 48);stroke:rgb(48, 48, 48);"/><text class="clickable sprotty-label port" id="sprotty_ArchitectureBlockImpl$el2_dec_gpr_ctl/BPortImpl$scan_mode/label" transform="translate(6, 6) translate(32.4375, 14)" style="cursor:default;font-size:12px;perspective-origin:0px 0px;fill:rgb(48, 48, 48);text-anchor:middle;">scan_mode</text></g><g id="sprotty_ArchitectureBlockImpl$el2_dec_gpr_ctl/BPortImpl$rst_l" class="triangle" transform="translate(0, 443)"><path d="M 0,0 L 5,2.5 L 0,5 Z" transform="translate(-1.67, -2.5)" class="sprotty-port" style="fill:rgb(48, 48, 48);stroke:rgb(48, 48, 48);"/><text class="clickable sprotty-label port" id="sprotty_ArchitectureBlockImpl$el2_dec_gpr_ctl/BPortImpl$rst_l/label" transform="translate(6, 6) translate(12.3125, 14)" style="cursor:default;font-size:12px;perspective-origin:0px 0px;fill:rgb(48, 48, 48);text-anchor:middle;">rst_l</text></g><g id="sprotty_ArchitectureBlockImpl$el2_dec_gpr_ctl/BPortImpl$clk" class="triangle" transform="translate(0, 409)"><path d="M 0,0 L 5,2.5 L 0,5 Z" transform="translate(-1.67, -2.5)" class="sprotty-port" style="fill:rgb(48, 48, 48);stroke:rgb(48, 48, 48);"/><text class="clickable sprotty-label port" id="sprotty_ArchitectureBlockImpl$el2_dec_gpr_ctl/BPortImpl$clk/label" transform="translate(6, 6) translate(8.078125, 14)" style="cursor:default;font-size:12px;perspective-origin:0.09375px 0px;fill:rgb(48, 48, 48);text-anchor:middle;">clk</text></g><g id="sprotty_ArchitectureBlockImpl$el2_dec_gpr_ctl/BPortImpl$wd2" class="triangle" transform="translate(0, 273)"><path d="M 0,0 L 5,2.5 L 0,5 Z" transform="translate(-1.67, -2.5)" class="sprotty-port" style="fill:rgb(48, 48, 48);stroke:rgb(48, 48, 48);"/><text class="clickable sprotty-label port" id="sprotty_ArchitectureBlockImpl$el2_dec_gpr_ctl/BPortImpl$wd2/label" transform="translate(6, 6) translate(11.84375, 14)" style="cursor:default;font-size:12px;perspective-origin:0px 0px;fill:rgb(48, 48, 48);text-anchor:middle;">wd2</text></g><g id="sprotty_ArchitectureBlockImpl$el2_dec_gpr_ctl/BPortImpl$waddr2" class="triangle" transform="translate(0, 239)"><path d="M 0,0 L 5,2.5 L 0,5 Z" transform="translate(-1.67, -2.5)" class="sprotty-port" style="fill:rgb(48, 48, 48);stroke:rgb(48, 48, 48);"/><text class="clickable sprotty-label port" id="sprotty_ArchitectureBlockImpl$el2_dec_gpr_ctl/BPortImpl$waddr2/label" transform="translate(6, 6) translate(21.234375, 14)" style="cursor:default;font-size:12px;perspective-origin:0px 0px;fill:rgb(48, 48, 48);text-anchor:middle;">waddr2</text></g><g id="sprotty_ArchitectureBlockImpl$el2_dec_gpr_ctl/BPortImpl$wen2" class="triangle" transform="translate(0, 341)"><path d="M 0,0 L 5,2.5 L 0,5 Z" transform="translate(-1.67, -2.5)" class="sprotty-port" style="fill:rgb(48, 48, 48);stroke:rgb(48, 48, 48);"/><text class="clickable sprotty-label port" id="sprotty_ArchitectureBlockImpl$el2_dec_gpr_ctl/BPortImpl$wen2/label" transform="translate(6, 6) translate(15.109375, 14)" style="cursor:default;font-size:12px;perspective-origin:0px 0px;fill:rgb(48, 48, 48);text-anchor:middle;">wen2</text></g><g id="sprotty_ArchitectureBlockImpl$el2_dec_gpr_ctl/BPortImpl$wd1" class="triangle" transform="translate(0, 307)"><path d="M 0,0 L 5,2.5 L 0,5 Z" transform="translate(-1.67, -2.5)" class="sprotty-port" style="fill:rgb(48, 48, 48);stroke:rgb(48, 48, 48);"/><text class="clickable sprotty-label port" id="sprotty_ArchitectureBlockImpl$el2_dec_gpr_ctl/BPortImpl$wd1/label" transform="translate(6, 6) translate(11.84375, 14)" style="cursor:default;font-size:12px;perspective-origin:0px 0px;fill:rgb(48, 48, 48);text-anchor:middle;">wd1</text></g><g id="sprotty_ArchitectureBlockImpl$el2_dec_gpr_ctl/BPortImpl$waddr1" class="triangle" transform="translate(0, 35)"><path d="M 0,0 L 5,2.5 L 0,5 Z" transform="translate(-1.67, -2.5)" class="sprotty-port" style="fill:rgb(48, 48, 48);stroke:rgb(48, 48, 48);"/><text class="clickable sprotty-label port" id="sprotty_ArchitectureBlockImpl$el2_dec_gpr_ctl/BPortImpl$waddr1/label" transform="translate(6, 6) translate(21.234375, 14)" style="cursor:default;font-size:12px;perspective-origin:0px 0px;fill:rgb(48, 48, 48);text-anchor:middle;">waddr1</text></g><g id="sprotty_ArchitectureBlockImpl$el2_dec_gpr_ctl/BPortImpl$wen1" class="triangle" transform="translate(0, 205)"><path d="M 0,0 L 5,2.5 L 0,5 Z" transform="translate(-1.67, -2.5)" class="sprotty-port" style="fill:rgb(48, 48, 48);stroke:rgb(48, 48, 48);"/><text class="clickable sprotty-label port" id="sprotty_ArchitectureBlockImpl$el2_dec_gpr_ctl/BPortImpl$wen1/label" transform="translate(6, 6) translate(15.109375, 14)" style="cursor:default;font-size:12px;perspective-origin:0px 0px;fill:rgb(48, 48, 48);text-anchor:middle;">wen1</text></g><g id="sprotty_ArchitectureBlockImpl$el2_dec_gpr_ctl/BPortImpl$wd0" class="triangle" transform="translate(0, 137)"><path d="M 0,0 L 5,2.5 L 0,5 Z" transform="translate(-1.67, -2.5)" class="sprotty-port" style="fill:rgb(48, 48, 48);stroke:rgb(48, 48, 48);"/><text class="clickable sprotty-label port" id="sprotty_ArchitectureBlockImpl$el2_dec_gpr_ctl/BPortImpl$wd0/label" transform="translate(6, 6) translate(11.84375, 14)" style="cursor:default;font-size:12px;perspective-origin:0px 0px;fill:rgb(48, 48, 48);text-anchor:middle;">wd0</text></g><g id="sprotty_ArchitectureBlockImpl$el2_dec_gpr_ctl/BPortImpl$waddr0" class="triangle" transform="translate(0, 171)"><path d="M 0,0 L 5,2.5 L 0,5 Z" transform="translate(-1.67, -2.5)" class="sprotty-port" style="fill:rgb(48, 48, 48);stroke:rgb(48, 48, 48);"/><text class="clickable sprotty-label port" id="sprotty_ArchitectureBlockImpl$el2_dec_gpr_ctl/BPortImpl$waddr0/label" transform="translate(6, 6) translate(21.234375, 14)" style="cursor:default;font-size:12px;perspective-origin:0px 0px;fill:rgb(48, 48, 48);text-anchor:middle;">waddr0</text></g><g id="sprotty_ArchitectureBlockImpl$el2_dec_gpr_ctl/BPortImpl$wen0" class="triangle" transform="translate(0, 375)"><path d="M 0,0 L 5,2.5 L 0,5 Z" transform="translate(-1.67, -2.5)" class="sprotty-port" style="fill:rgb(48, 48, 48);stroke:rgb(48, 48, 48);"/><text class="clickable sprotty-label port" id="sprotty_ArchitectureBlockImpl$el2_dec_gpr_ctl/BPortImpl$wen0/label" transform="translate(6, 6) translate(15.109375, 14)" style="cursor:default;font-size:12px;perspective-origin:0px 0px;fill:rgb(48, 48, 48);text-anchor:middle;">wen0</text></g><g id="sprotty_ArchitectureBlockImpl$el2_dec_gpr_ctl/BPortImpl$raddr1" class="triangle" transform="translate(0, 103)"><path d="M 0,0 L 5,2.5 L 0,5 Z" transform="translate(-1.67, -2.5)" class="sprotty-port" style="fill:rgb(48, 48, 48);stroke:rgb(48, 48, 48);"/><text class="clickable sprotty-label port" id="sprotty_ArchitectureBlockImpl$el2_dec_gpr_ctl/BPortImpl$raddr1/label" transform="translate(6, 6) translate(18.65625, 14)" style="cursor:default;font-size:12px;perspective-origin:0px 0px;fill:rgb(48, 48, 48);text-anchor:middle;">raddr1</text></g><g id="sprotty_ArchitectureBlockImpl$el2_dec_gpr_ctl/BPortImpl$raddr0" class="triangle" transform="translate(0, 69)"><path d="M 0,0 L 5,2.5 L 0,5 Z" transform="translate(-1.67, -2.5)" class="sprotty-port" style="fill:rgb(48, 48, 48);stroke:rgb(48, 48, 48);"/><text class="clickable sprotty-label port" id="sprotty_ArchitectureBlockImpl$el2_dec_gpr_ctl/BPortImpl$raddr0/label" transform="translate(6, 6) translate(18.65625, 14)" style="cursor:default;font-size:12px;perspective-origin:0px 0px;fill:rgb(48, 48, 48);text-anchor:middle;">raddr0</text></g><g id="sprotty_ArchitectureBlockImpl$el2_dec_gpr_ctl/BPortImpl$rd0" class="triangle" transform="translate(550.4375, 153.57142857142856)"><path d="M 0,0 L 5,2.5 L 0,5 Z" transform="translate(-1.67, -2.5)" class="sprotty-port" style="fill:rgb(48, 48, 48);stroke:rgb(48, 48, 48);"/><text class="clickable sprotty-label port" id="sprotty_ArchitectureBlockImpl$el2_dec_gpr_ctl/BPortImpl$rd0/label" transform="translate(-24.625, 6) translate(9.3125, 14)" style="cursor:default;font-size:12px;perspective-origin:0px 0px;fill:rgb(48, 48, 48);text-anchor:middle;">rd0</text></g><g id="sprotty_ArchitectureBlockImpl$el2_dec_gpr_ctl/BPortImpl$rd1" class="triangle" transform="translate(550.4375, 509)"><path d="M 0,0 L 5,2.5 L 0,5 Z" transform="translate(-1.67, -2.5)" class="sprotty-port" style="fill:rgb(48, 48, 48);stroke:rgb(48, 48, 48);"/><text class="clickable sprotty-label port" id="sprotty_ArchitectureBlockImpl$el2_dec_gpr_ctl/BPortImpl$rd1/label" transform="translate(-24.625, 6) translate(9.3125, 14)" style="cursor:default;font-size:12px;perspective-origin:0px 0px;fill:rgb(48, 48, 48);text-anchor:middle;">rd1</text></g></g></g></svg>