<svg xmlns="http://www.w3.org/2000/svg" id="sprotty_work.el2_configurable_gw" class="sprotty-graph sprotty-block-diagram blockdiagram" style="font-family:&quot;Noto Sans&quot;, Helvetica, Arial, sans-serif;perspective-origin:0px 0px;transform-origin:0px 0px;" version="1.1" viewBox="7 7 609.65625 505" width="609.65625" height="505"><g transform="scale(1) translate(0,0)"><g id="sprotty_ArchitectureBlockImpl$el2_configurable_gw" class="architecture" transform="translate(12, 12)"><g class="sprotty-block" style="fill:rgb(255, 255, 255);stroke:rgb(48, 48, 48);stroke-dasharray:0px;"><rect x="0" y="0" rx="1" ry="1" width="599.65625" height="495"/><text x="299.828125" y="12" class="sprotty-block-name" style="cursor:pointer;font-weight:700;perspective-origin:149.914px 0px;fill:rgb(48, 48, 48);stroke:rgba(0, 0, 0, 0);dominant-baseline:middle;text-anchor:middle;">el2_configurable_gw</text><line x1="0" y1="20" x2="599.65625" y2="20"/></g><g id="sprotty_ArchitectureBlockImpl$el2_configurable_gw/AssignmentBlockImpl$extintsrc_req_config/GPortImpl$extintsrc_req_configOUT_to_ArchitectureBlockImpl$el2_configurable_gw/BPortImpl$extintsrc_req_config" class="sprotty-edge edge" style="fill:none;stroke:rgb(112, 112, 112);stroke-linejoin:round;"><g><path d="M 443.75 417 L 599.65625 417 "/><path d="M 443.75 417 L 599.65625 417 " class="clickable"/></g></g><g id="sprotty_ArchitectureBlockImpl$el2_configurable_gw/BPortImpl$gw_clk_to_ArchitectureBlockImpl$el2_configurable_gw/InstantiationBlockImpl$sync_inst/BPortImpl$gw_clk" class="sprotty-edge edge" style="fill:none;stroke:rgb(112, 112, 112);stroke-linejoin:round;"><g><path d="M 0 115 L 165.53125 115 C 166.53125 115 167.53125 116 167.53125 117 L 167.53125 279 C 167.53125 280 168.53125 281 169.53125 281 L 177.53125 281 "/><path d="M 0 115 L 165.53125 115 C 166.53125 115 167.53125 116 167.53125 117 L 167.53125 279 C 167.53125 280 168.53125 281 169.53125 281 L 177.53125 281 " class="clickable"/></g></g><g id="sprotty_ArchitectureBlockImpl$el2_configurable_gw/BPortImpl$rawclk_to_ArchitectureBlockImpl$el2_configurable_gw/InstantiationBlockImpl$sync_inst/BPortImpl$rawclk" class="sprotty-edge edge" style="fill:none;stroke:rgb(112, 112, 112);stroke-linejoin:round;"><g><path d="M 0 309 L 177.53125 309 "/><path d="M 0 309 L 177.53125 309 " class="clickable"/></g></g><g id="sprotty_ArchitectureBlockImpl$el2_configurable_gw/BPortImpl$clken_to_ArchitectureBlockImpl$el2_configurable_gw/InstantiationBlockImpl$sync_inst/BPortImpl$clken" class="sprotty-edge edge" style="fill:none;stroke:rgb(112, 112, 112);stroke-linejoin:round;"><g><path d="M 0 149 L 135.53125 149 C 136.53125 149 137.53125 150 137.53125 151 L 137.53125 335 C 137.53125 336 138.53125 337 139.53125 337 L 177.53125 337 "/><path d="M 0 149 L 135.53125 149 C 136.53125 149 137.53125 150 137.53125 151 L 137.53125 335 C 137.53125 336 138.53125 337 139.53125 337 L 177.53125 337 " class="clickable"/></g><circle r="2" id="sprotty_ArchitectureBlockImpl$el2_configurable_gw/BPortImpl$clken_to_ArchitectureBlockImpl$el2_configurable_gw/InstantiationBlockImpl$sync_inst/BPortImpl$clken/junction0" transform="translate(137.53125, 149)" class="sprotty-junction junction" style="fill:rgb(112, 112, 112);stroke:none;"/></g><g id="sprotty_ArchitectureBlockImpl$el2_configurable_gw/BPortImpl$rst_l_to_ArchitectureBlockImpl$el2_configurable_gw/InstantiationBlockImpl$sync_inst/BPortImpl$rst_l" class="sprotty-edge edge" style="fill:none;stroke:rgb(112, 112, 112);stroke-linejoin:round;"><g><path d="M 0 354 L 155.53125 354 C 156.53125 354 157.53125 355 157.53125 356 L 157.53125 363 C 157.53125 364 158.53125 365 159.53125 365 L 177.53125 365 "/><path d="M 0 354 L 155.53125 354 C 156.53125 354 157.53125 355 157.53125 356 L 157.53125 363 C 157.53125 364 158.53125 365 159.53125 365 L 177.53125 365 " class="clickable"/></g><circle r="2" id="sprotty_ArchitectureBlockImpl$el2_configurable_gw/BPortImpl$rst_l_to_ArchitectureBlockImpl$el2_configurable_gw/InstantiationBlockImpl$sync_inst/BPortImpl$rst_l/junction0" transform="translate(157.53125, 354)" class="sprotty-junction junction" style="fill:rgb(112, 112, 112);stroke:none;"/></g><g id="sprotty_ArchitectureBlockImpl$el2_configurable_gw/BPortImpl$extintsrc_req_to_ArchitectureBlockImpl$el2_configurable_gw/InstantiationBlockImpl$sync_inst/BPortImpl$din" class="sprotty-edge edge" style="fill:none;stroke:rgb(112, 112, 112);stroke-linejoin:round;"><g><path d="M 0 388 L 135.53125 388 C 136.53125 388 137.53125 389 137.53125 390 L 137.53125 391 C 137.53125 392 138.53125 393 139.53125 393 L 177.53125 393 "/><path d="M 0 388 L 135.53125 388 C 136.53125 388 137.53125 389 137.53125 390 L 137.53125 391 C 137.53125 392 138.53125 393 139.53125 393 L 177.53125 393 " class="clickable"/></g></g><g id="sprotty_ArchitectureBlockImpl$el2_configurable_gw/BPortImpl$gw_clk_to_ArchitectureBlockImpl$el2_configurable_gw/InstantiationBlockImpl$int_pend_ff/BPortImpl$clk" class="sprotty-edge edge" style="fill:none;stroke:rgb(112, 112, 112);stroke-linejoin:round;"><g><path d="M 0 115 L 165.53125 115 C 166.53125 115 167.53125 116 167.53125 117 L 167.53125 119 C 167.53125 120 168.53125 121 169.53125 121 L 181.70833333333334 121 "/><path d="M 0 115 L 165.53125 115 C 166.53125 115 167.53125 116 167.53125 117 L 167.53125 119 C 167.53125 120 168.53125 121 169.53125 121 L 181.70833333333334 121 " class="clickable"/></g><circle r="2" id="sprotty_ArchitectureBlockImpl$el2_configurable_gw/BPortImpl$gw_clk_to_ArchitectureBlockImpl$el2_configurable_gw/InstantiationBlockImpl$int_pend_ff/BPortImpl$clk/junction0" transform="translate(167.53125, 121)" class="sprotty-junction junction" style="fill:rgb(112, 112, 112);stroke:none;"/></g><g id="sprotty_ArchitectureBlockImpl$el2_configurable_gw/BPortImpl$clken_to_ArchitectureBlockImpl$el2_configurable_gw/InstantiationBlockImpl$int_pend_ff/BPortImpl$clken" class="sprotty-edge edge" style="fill:none;stroke:rgb(112, 112, 112);stroke-linejoin:round;"><g><path d="M 0 149 L 181.70833333333334 149 "/><path d="M 0 149 L 181.70833333333334 149 " class="clickable"/></g></g><g id="sprotty_ArchitectureBlockImpl$el2_configurable_gw/BPortImpl$rawclk_to_ArchitectureBlockImpl$el2_configurable_gw/InstantiationBlockImpl$int_pend_ff/BPortImpl$rawclk" class="sprotty-edge edge" style="fill:none;stroke:rgb(112, 112, 112);stroke-linejoin:round;"><g><path d="M 0 309 L 145.53125 309 C 146.53125 309 147.53125 308 147.53125 307 L 147.53125 179 C 147.53125 178 148.53125 177 149.53125 177 L 181.70833333333334 177 "/><path d="M 0 309 L 145.53125 309 C 146.53125 309 147.53125 308 147.53125 307 L 147.53125 179 C 147.53125 178 148.53125 177 149.53125 177 L 181.70833333333334 177 " class="clickable"/></g><circle r="2" id="sprotty_ArchitectureBlockImpl$el2_configurable_gw/BPortImpl$rawclk_to_ArchitectureBlockImpl$el2_configurable_gw/InstantiationBlockImpl$int_pend_ff/BPortImpl$rawclk/junction0" transform="translate(147.53125, 309)" class="sprotty-junction junction" style="fill:rgb(112, 112, 112);stroke:none;"/></g><g id="sprotty_ArchitectureBlockImpl$el2_configurable_gw/BPortImpl$rst_l_to_ArchitectureBlockImpl$el2_configurable_gw/InstantiationBlockImpl$int_pend_ff/BPortImpl$rst_l" class="sprotty-edge edge" style="fill:none;stroke:rgb(112, 112, 112);stroke-linejoin:round;"><g><path d="M 0 354 L 155.53125 354 C 156.53125 354 157.53125 353 157.53125 352 L 157.53125 207 C 157.53125 206 158.53125 205 159.53125 205 L 181.70833333333334 205 "/><path d="M 0 354 L 155.53125 354 C 156.53125 354 157.53125 353 157.53125 352 L 157.53125 207 C 157.53125 206 158.53125 205 159.53125 205 L 181.70833333333334 205 " class="clickable"/></g></g><g id="sprotty_ArchitectureBlockImpl$el2_configurable_gw/BPortImpl$meigwctrl_polarity_to_ArchitectureBlockImpl$el2_configurable_gw/AssignmentBlockImpl$gw_int_pending_in/GPortImpl$meigwctrl_polarityIN" class="sprotty-edge edge" style="fill:none;stroke:rgb(112, 112, 112);stroke-linejoin:round;"><g><path d="M 0 422 L 412.3125 422 C 413.3125 422 414.3125 421 414.3125 420 L 414.3125 349 C 414.3125 348 415.3125 347 416.3125 347 L 424.3125 347 "/><path d="M 0 422 L 412.3125 422 C 413.3125 422 414.3125 421 414.3125 420 L 414.3125 349 C 414.3125 348 415.3125 347 416.3125 347 L 424.3125 347 " class="clickable"/></g><circle r="2" id="sprotty_ArchitectureBlockImpl$el2_configurable_gw/BPortImpl$meigwctrl_polarity_to_ArchitectureBlockImpl$el2_configurable_gw/AssignmentBlockImpl$gw_int_pending_in/GPortImpl$meigwctrl_polarityIN/junction0" transform="translate(414.3125, 422)" class="sprotty-junction junction" style="fill:rgb(112, 112, 112);stroke:none;"/></g><g id="sprotty_ArchitectureBlockImpl$el2_configurable_gw/BPortImpl$meigwclr_to_ArchitectureBlockImpl$el2_configurable_gw/AssignmentBlockImpl$gw_int_pending_in/GPortImpl$meigwclrIN" class="sprotty-edge edge" style="fill:none;stroke:rgb(112, 112, 112);stroke-linejoin:round;"><g><path d="M 0 43 L 412.3125 43 C 413.3125 43 414.3125 44 414.3125 45 L 414.3125 315 C 414.3125 316 415.3125 317 416.3125 317 L 424.3125 317 "/><path d="M 0 43 L 412.3125 43 C 413.3125 43 414.3125 44 414.3125 45 L 414.3125 315 C 414.3125 316 415.3125 317 416.3125 317 L 424.3125 317 " class="clickable"/></g></g><g id="sprotty_ArchitectureBlockImpl$el2_configurable_gw/BPortImpl$meigwctrl_type_to_ArchitectureBlockImpl$el2_configurable_gw/AssignmentBlockImpl$extintsrc_req_config/GPortImpl$meigwctrl_typeIN" class="sprotty-edge edge" style="fill:none;stroke:rgb(112, 112, 112);stroke-linejoin:round;"><g><path d="M 0 456 L 392.3125 456 C 393.3125 456 394.3125 455 394.3125 454 L 394.3125 434 C 394.3125 433 395.3125 432 396.3125 432 L 424.3125 432 "/><path d="M 0 456 L 392.3125 456 C 393.3125 456 394.3125 455 394.3125 454 L 394.3125 434 C 394.3125 433 395.3125 432 396.3125 432 L 424.3125 432 " class="clickable"/></g></g><g id="sprotty_ArchitectureBlockImpl$el2_configurable_gw/BPortImpl$meigwctrl_polarity_to_ArchitectureBlockImpl$el2_configurable_gw/AssignmentBlockImpl$extintsrc_req_config/GPortImpl$meigwctrl_polarityIN" class="sprotty-edge edge" style="fill:none;stroke:rgb(112, 112, 112);stroke-linejoin:round;"><g><path d="M 0 422 L 424.3125 422 "/><path d="M 0 422 L 424.3125 422 " class="clickable"/></g></g><g id="sprotty_ArchitectureBlockImpl$el2_configurable_gw/AssignmentBlockImpl$gw_int_pending_in/GPortImpl$gw_int_pending_inOUT_to_ArchitectureBlockImpl$el2_configurable_gw/InstantiationBlockImpl$int_pend_ff/BPortImpl$din" class="sprotty-edge edge" style="fill:none;stroke:rgb(112, 112, 112);stroke-linejoin:round;"><g><path d="M 443.75 332 L 451.75 332 C 452.75 332 453.75 331 453.75 330 L 453.75 37 C 453.75 36 452.75 35 451.75 35 L 169.53125 35 C 168.53125 35 167.53125 36 167.53125 37 L 167.53125 91 C 167.53125 92 168.53125 93 169.53125 93 L 181.70833333333334 93 "/><path d="M 443.75 332 L 451.75 332 C 452.75 332 453.75 331 453.75 330 L 453.75 37 C 453.75 36 452.75 35 451.75 35 L 169.53125 35 C 168.53125 35 167.53125 36 167.53125 37 L 167.53125 91 C 167.53125 92 168.53125 93 169.53125 93 L 181.70833333333334 93 " class="clickable"/></g></g><g id="sprotty_ArchitectureBlockImpl$el2_configurable_gw/InstantiationBlockImpl$int_pend_ff/BPortImpl$dout_to_ArchitectureBlockImpl$el2_configurable_gw/AssignmentBlockImpl$gw_int_pending_in/GPortImpl$gw_int_pendingIN" class="sprotty-edge edge" style="fill:none;stroke:rgb(112, 112, 112);stroke-linejoin:round;"><g><path d="M 375.95833333333337 149 L 402.3125 149 C 403.3125 149 404.3125 150 404.3125 151 L 404.3125 325 C 404.3125 326 405.3125 327 406.3125 327 L 424.3125 327 "/><path d="M 375.95833333333337 149 L 402.3125 149 C 403.3125 149 404.3125 150 404.3125 151 L 404.3125 325 C 404.3125 326 405.3125 327 406.3125 327 L 424.3125 327 " class="clickable"/></g><circle r="2" id="sprotty_ArchitectureBlockImpl$el2_configurable_gw/InstantiationBlockImpl$int_pend_ff/BPortImpl$dout_to_ArchitectureBlockImpl$el2_configurable_gw/AssignmentBlockImpl$gw_int_pending_in/GPortImpl$gw_int_pendingIN/junction0" transform="translate(404.3125, 327)" class="sprotty-junction junction" style="fill:rgb(112, 112, 112);stroke:none;"/></g><g id="sprotty_ArchitectureBlockImpl$el2_configurable_gw/InstantiationBlockImpl$int_pend_ff/BPortImpl$dout_to_ArchitectureBlockImpl$el2_configurable_gw/AssignmentBlockImpl$extintsrc_req_config/GPortImpl$gw_int_pendingIN" class="sprotty-edge edge" style="fill:none;stroke:rgb(112, 112, 112);stroke-linejoin:round;"><g><path d="M 375.95833333333337 149 L 402.3125 149 C 403.3125 149 404.3125 150 404.3125 151 L 404.3125 400 C 404.3125 401 405.3125 402 406.3125 402 L 424.3125 402 "/><path d="M 375.95833333333337 149 L 402.3125 149 C 403.3125 149 404.3125 150 404.3125 151 L 404.3125 400 C 404.3125 401 405.3125 402 406.3125 402 L 424.3125 402 " class="clickable"/></g></g><g id="sprotty_ArchitectureBlockImpl$el2_configurable_gw/InstantiationBlockImpl$sync_inst/BPortImpl$dout_to_ArchitectureBlockImpl$el2_configurable_gw/AssignmentBlockImpl$gw_int_pending_in/GPortImpl$extintsrc_req_syncIN" class="sprotty-edge edge" style="fill:none;stroke:rgb(112, 112, 112);stroke-linejoin:round;"><g><path d="M 384.3125 337 L 424.3125 337 "/><path d="M 384.3125 337 L 424.3125 337 " class="clickable"/></g></g><g id="sprotty_ArchitectureBlockImpl$el2_configurable_gw/InstantiationBlockImpl$sync_inst/BPortImpl$dout_to_ArchitectureBlockImpl$el2_configurable_gw/AssignmentBlockImpl$extintsrc_req_config/GPortImpl$extintsrc_req_syncIN" class="sprotty-edge edge" style="fill:none;stroke:rgb(112, 112, 112);stroke-linejoin:round;"><g><path d="M 384.3125 337 L 392.3125 337 C 393.3125 337 394.3125 338 394.3125 339 L 394.3125 410 C 394.3125 411 395.3125 412 396.3125 412 L 424.3125 412 "/><path d="M 384.3125 337 L 392.3125 337 C 393.3125 337 394.3125 338 394.3125 339 L 394.3125 410 C 394.3125 411 395.3125 412 396.3125 412 L 424.3125 412 " class="clickable"/></g><circle r="2" id="sprotty_ArchitectureBlockImpl$el2_configurable_gw/InstantiationBlockImpl$sync_inst/BPortImpl$dout_to_ArchitectureBlockImpl$el2_configurable_gw/AssignmentBlockImpl$extintsrc_req_config/GPortImpl$extintsrc_req_syncIN/junction0" transform="translate(394.3125, 337)" class="sprotty-junction junction" style="fill:rgb(112, 112, 112);stroke:none;"/></g><g id="sprotty_ArchitectureBlockImpl$el2_configurable_gw/AssignmentBlockImpl$extintsrc_req_config" class="statement" transform="translate(424.3125, 392)"><rect x="0" y="0" rx="10" ry="5" width="19.4375" height="50" class="sprotty-node" style="fill:rgb(245, 245, 245);stroke:rgb(112, 112, 112);"/><text class="clickable sprotty-label statementtype" id="sprotty_ArchitectureBlockImpl$el2_configurable_gw/AssignmentBlockImpl$extintsrc_req_config/labeltype" transform="translate(5, 19) translate(4.71875, 9)" style="cursor:default;font-size:8px;font-weight:700;perspective-origin:0px 0px;fill:rgb(112, 112, 112);text-anchor:middle;">&lt;=</text><g id="sprotty_ArchitectureBlockImpl$el2_configurable_gw/AssignmentBlockImpl$extintsrc_req_config/GPortImpl$gw_int_pendingIN" class="sprotty-hidden hidden" transform="translate(0, 10)" style="display:block;height:0px;width:0px;"/><g id="sprotty_ArchitectureBlockImpl$el2_configurable_gw/AssignmentBlockImpl$extintsrc_req_config/GPortImpl$meigwctrl_polarityIN" class="sprotty-hidden hidden" transform="translate(0, 30)" style="display:block;height:0px;width:0px;"/><g id="sprotty_ArchitectureBlockImpl$el2_configurable_gw/AssignmentBlockImpl$extintsrc_req_config/GPortImpl$extintsrc_req_syncIN" class="sprotty-hidden hidden" transform="translate(0, 20)" style="display:block;height:0px;width:0px;"/><g id="sprotty_ArchitectureBlockImpl$el2_configurable_gw/AssignmentBlockImpl$extintsrc_req_config/GPortImpl$meigwctrl_typeIN" class="sprotty-hidden hidden" transform="translate(0, 40)" style="display:block;height:0px;width:0px;"/><g id="sprotty_ArchitectureBlockImpl$el2_configurable_gw/AssignmentBlockImpl$extintsrc_req_config/GPortImpl$extintsrc_req_configOUT" class="sprotty-hidden hidden" transform="translate(19.4375, 25)" style="display:block;height:0px;width:0px;"/></g><g id="sprotty_ArchitectureBlockImpl$el2_configurable_gw/AssignmentBlockImpl$gw_int_pending_in" class="statement" transform="translate(424.3125, 307)"><rect x="0" y="0" rx="10" ry="5" width="19.4375" height="50" class="sprotty-node" style="fill:rgb(245, 245, 245);stroke:rgb(112, 112, 112);"/><text class="clickable sprotty-label statementtype" id="sprotty_ArchitectureBlockImpl$el2_configurable_gw/AssignmentBlockImpl$gw_int_pending_in/labeltype" transform="translate(5, 19) translate(4.71875, 9)" style="cursor:default;font-size:8px;font-weight:700;perspective-origin:0px 0px;fill:rgb(112, 112, 112);text-anchor:middle;">&lt;=</text><g id="sprotty_ArchitectureBlockImpl$el2_configurable_gw/AssignmentBlockImpl$gw_int_pending_in/GPortImpl$meigwclrIN" class="sprotty-hidden hidden" transform="translate(0, 10)" style="display:block;height:0px;width:0px;"/><g id="sprotty_ArchitectureBlockImpl$el2_configurable_gw/AssignmentBlockImpl$gw_int_pending_in/GPortImpl$gw_int_pendingIN" class="sprotty-hidden hidden" transform="translate(0, 20)" style="display:block;height:0px;width:0px;"/><g id="sprotty_ArchitectureBlockImpl$el2_configurable_gw/AssignmentBlockImpl$gw_int_pending_in/GPortImpl$meigwctrl_polarityIN" class="sprotty-hidden hidden" transform="translate(0, 40)" style="display:block;height:0px;width:0px;"/><g id="sprotty_ArchitectureBlockImpl$el2_configurable_gw/AssignmentBlockImpl$gw_int_pending_in/GPortImpl$extintsrc_req_syncIN" class="sprotty-hidden hidden" transform="translate(0, 30)" style="display:block;height:0px;width:0px;"/><g id="sprotty_ArchitectureBlockImpl$el2_configurable_gw/AssignmentBlockImpl$gw_int_pending_in/GPortImpl$gw_int_pending_inOUT" class="sprotty-hidden hidden" transform="translate(19.4375, 25)" style="display:block;height:0px;width:0px;"/></g><g id="sprotty_ArchitectureBlockImpl$el2_configurable_gw/InstantiationBlockImpl$int_pend_ff" class="instantiation" transform="translate(181.70833333333334, 55)"><g class="sprotty-block" style="fill:rgb(255, 255, 255);stroke:rgb(48, 48, 48);stroke-dasharray:0px;"><rect x="0" y="0" rx="1" ry="1" width="194.25" height="168"/><text x="97.125" y="12" class="sprotty-block-name" style="cursor:pointer;font-weight:700;perspective-origin:48.5625px 0px;fill:rgb(48, 48, 48);stroke:rgba(0, 0, 0, 0);dominant-baseline:middle;text-anchor:middle;">int_pend_ff : rvdff_fpga</text><line x1="0" y1="20" x2="194.25" y2="20"/></g><g id="sprotty_ArchitectureBlockImpl$el2_configurable_gw/InstantiationBlockImpl$int_pend_ff/BPortImpl$rst_l" class="triangle" transform="translate(0, 150)"><path d="M 0,0 L 5,2.5 L 0,5 Z" transform="translate(-1.67, -2.5)" class="sprotty-port" style="fill:rgb(48, 48, 48);stroke:rgb(48, 48, 48);"/><text class="clickable sprotty-label port" id="sprotty_ArchitectureBlockImpl$el2_configurable_gw/InstantiationBlockImpl$int_pend_ff/BPortImpl$rst_l/label" transform="translate(6, -9) translate(12.3125, 14)" style="cursor:default;font-size:12px;perspective-origin:0px 0px;fill:rgb(48, 48, 48);text-anchor:middle;">rst_l</text></g><g id="sprotty_ArchitectureBlockImpl$el2_configurable_gw/InstantiationBlockImpl$int_pend_ff/BPortImpl$rawclk" class="triangle" transform="translate(0, 122)"><path d="M 0,0 L 5,2.5 L 0,5 Z" transform="translate(-1.67, -2.5)" class="sprotty-port" style="fill:rgb(48, 48, 48);stroke:rgb(48, 48, 48);"/><text class="clickable sprotty-label port" id="sprotty_ArchitectureBlockImpl$el2_configurable_gw/InstantiationBlockImpl$int_pend_ff/BPortImpl$rawclk/label" transform="translate(6, -9) translate(18.421875, 14)" style="cursor:default;font-size:12px;perspective-origin:0.09375px 0px;fill:rgb(48, 48, 48);text-anchor:middle;">rawclk</text></g><g id="sprotty_ArchitectureBlockImpl$el2_configurable_gw/InstantiationBlockImpl$int_pend_ff/BPortImpl$clken" class="triangle" transform="translate(0, 94)"><path d="M 0,0 L 5,2.5 L 0,5 Z" transform="translate(-1.67, -2.5)" class="sprotty-port" style="fill:rgb(48, 48, 48);stroke:rgb(48, 48, 48);"/><text class="clickable sprotty-label port" id="sprotty_ArchitectureBlockImpl$el2_configurable_gw/InstantiationBlockImpl$int_pend_ff/BPortImpl$clken/label" transform="translate(6, -9) translate(14.953125, 14)" style="cursor:default;font-size:12px;perspective-origin:0px 0px;fill:rgb(48, 48, 48);text-anchor:middle;">clken</text></g><g id="sprotty_ArchitectureBlockImpl$el2_configurable_gw/InstantiationBlockImpl$int_pend_ff/BPortImpl$clk" class="triangle" transform="translate(0, 66)"><path d="M 0,0 L 5,2.5 L 0,5 Z" transform="translate(-1.67, -2.5)" class="sprotty-port" style="fill:rgb(48, 48, 48);stroke:rgb(48, 48, 48);"/><text class="clickable sprotty-label port" id="sprotty_ArchitectureBlockImpl$el2_configurable_gw/InstantiationBlockImpl$int_pend_ff/BPortImpl$clk/label" transform="translate(6, -9) translate(8.078125, 14)" style="cursor:default;font-size:12px;perspective-origin:0.09375px 0px;fill:rgb(48, 48, 48);text-anchor:middle;">clk</text></g><g id="sprotty_ArchitectureBlockImpl$el2_configurable_gw/InstantiationBlockImpl$int_pend_ff/BPortImpl$din" class="triangle" transform="translate(0, 38)"><path d="M 0,0 L 5,2.5 L 0,5 Z" transform="translate(-1.67, -2.5)" class="sprotty-port" style="fill:rgb(48, 48, 48);stroke:rgb(48, 48, 48);"/><text class="clickable sprotty-label port" id="sprotty_ArchitectureBlockImpl$el2_configurable_gw/InstantiationBlockImpl$int_pend_ff/BPortImpl$din/label" transform="translate(6, -9) translate(9.046875, 14)" style="cursor:default;font-size:12px;perspective-origin:0px 0px;fill:rgb(48, 48, 48);text-anchor:middle;">din</text></g><g id="sprotty_ArchitectureBlockImpl$el2_configurable_gw/InstantiationBlockImpl$int_pend_ff/BPortImpl$dout" class="triangle" transform="translate(194.25, 94)"><path d="M 0,0 L 5,2.5 L 0,5 Z" transform="translate(-1.67, -2.5)" class="sprotty-port" style="fill:rgb(48, 48, 48);stroke:rgb(48, 48, 48);"/><text class="clickable sprotty-label port" id="sprotty_ArchitectureBlockImpl$el2_configurable_gw/InstantiationBlockImpl$int_pend_ff/BPortImpl$dout/label" transform="translate(-32.53125, -9) translate(13.265625, 14)" style="cursor:default;font-size:12px;perspective-origin:0px 0px;fill:rgb(48, 48, 48);text-anchor:middle;">dout</text></g></g><g id="sprotty_ArchitectureBlockImpl$el2_configurable_gw/InstantiationBlockImpl$sync_inst" class="instantiation" transform="translate(177.53125, 243)"><g class="sprotty-block" style="fill:rgb(255, 255, 255);stroke:rgb(48, 48, 48);stroke-dasharray:0px;"><rect x="0" y="0" rx="1" ry="1" width="206.78125" height="168"/><text x="103.390625" y="12" class="sprotty-block-name" style="cursor:pointer;font-weight:700;perspective-origin:51.6953px 0px;fill:rgb(48, 48, 48);stroke:rgba(0, 0, 0, 0);dominant-baseline:middle;text-anchor:middle;">sync_inst : rvsyncss_fpga</text><line x1="0" y1="20" x2="206.78125" y2="20"/></g><g id="sprotty_ArchitectureBlockImpl$el2_configurable_gw/InstantiationBlockImpl$sync_inst/BPortImpl$din" class="triangle" transform="translate(0, 150)"><path d="M 0,0 L 5,2.5 L 0,5 Z" transform="translate(-1.67, -2.5)" class="sprotty-port" style="fill:rgb(48, 48, 48);stroke:rgb(48, 48, 48);"/><text class="clickable sprotty-label port" id="sprotty_ArchitectureBlockImpl$el2_configurable_gw/InstantiationBlockImpl$sync_inst/BPortImpl$din/label" transform="translate(6, -9) translate(9.046875, 14)" style="cursor:default;font-size:12px;perspective-origin:0px 0px;fill:rgb(48, 48, 48);text-anchor:middle;">din</text></g><g id="sprotty_ArchitectureBlockImpl$el2_configurable_gw/InstantiationBlockImpl$sync_inst/BPortImpl$rst_l" class="triangle" transform="translate(0, 122)"><path d="M 0,0 L 5,2.5 L 0,5 Z" transform="translate(-1.67, -2.5)" class="sprotty-port" style="fill:rgb(48, 48, 48);stroke:rgb(48, 48, 48);"/><text class="clickable sprotty-label port" id="sprotty_ArchitectureBlockImpl$el2_configurable_gw/InstantiationBlockImpl$sync_inst/BPortImpl$rst_l/label" transform="translate(6, -9) translate(12.3125, 14)" style="cursor:default;font-size:12px;perspective-origin:0px 0px;fill:rgb(48, 48, 48);text-anchor:middle;">rst_l</text></g><g id="sprotty_ArchitectureBlockImpl$el2_configurable_gw/InstantiationBlockImpl$sync_inst/BPortImpl$clken" class="triangle" transform="translate(0, 94)"><path d="M 0,0 L 5,2.5 L 0,5 Z" transform="translate(-1.67, -2.5)" class="sprotty-port" style="fill:rgb(48, 48, 48);stroke:rgb(48, 48, 48);"/><text class="clickable sprotty-label port" id="sprotty_ArchitectureBlockImpl$el2_configurable_gw/InstantiationBlockImpl$sync_inst/BPortImpl$clken/label" transform="translate(6, -9) translate(14.953125, 14)" style="cursor:default;font-size:12px;perspective-origin:0px 0px;fill:rgb(48, 48, 48);text-anchor:middle;">clken</text></g><g id="sprotty_ArchitectureBlockImpl$el2_configurable_gw/InstantiationBlockImpl$sync_inst/BPortImpl$rawclk" class="triangle" transform="translate(0, 66)"><path d="M 0,0 L 5,2.5 L 0,5 Z" transform="translate(-1.67, -2.5)" class="sprotty-port" style="fill:rgb(48, 48, 48);stroke:rgb(48, 48, 48);"/><text class="clickable sprotty-label port" id="sprotty_ArchitectureBlockImpl$el2_configurable_gw/InstantiationBlockImpl$sync_inst/BPortImpl$rawclk/label" transform="translate(6, -9) translate(18.421875, 14)" style="cursor:default;font-size:12px;perspective-origin:0.09375px 0px;fill:rgb(48, 48, 48);text-anchor:middle;">rawclk</text></g><g id="sprotty_ArchitectureBlockImpl$el2_configurable_gw/InstantiationBlockImpl$sync_inst/BPortImpl$gw_clk" class="triangle" transform="translate(0, 38)"><path d="M 0,0 L 5,2.5 L 0,5 Z" transform="translate(-1.67, -2.5)" class="sprotty-port" style="fill:rgb(48, 48, 48);stroke:rgb(48, 48, 48);"/><text class="clickable sprotty-label port" id="sprotty_ArchitectureBlockImpl$el2_configurable_gw/InstantiationBlockImpl$sync_inst/BPortImpl$gw_clk/label" transform="translate(6, -9) translate(19.609375, 14)" style="cursor:default;font-size:12px;perspective-origin:0.09375px 0px;fill:rgb(48, 48, 48);text-anchor:middle;">gw_clk</text></g><g id="sprotty_ArchitectureBlockImpl$el2_configurable_gw/InstantiationBlockImpl$sync_inst/BPortImpl$dout" class="triangle" transform="translate(206.78125, 94)"><path d="M 0,0 L 5,2.5 L 0,5 Z" transform="translate(-1.67, -2.5)" class="sprotty-port" style="fill:rgb(48, 48, 48);stroke:rgb(48, 48, 48);"/><text class="clickable sprotty-label port" id="sprotty_ArchitectureBlockImpl$el2_configurable_gw/InstantiationBlockImpl$sync_inst/BPortImpl$dout/label" transform="translate(-32.53125, -9) translate(13.265625, 14)" style="cursor:default;font-size:12px;perspective-origin:0px 0px;fill:rgb(48, 48, 48);text-anchor:middle;">dout</text></g></g><g id="sprotty_ArchitectureBlockImpl$el2_configurable_gw/BPortImpl$meigwclr" class="triangle" transform="translate(0, 43)"><path d="M 0,0 L 5,2.5 L 0,5 Z" transform="translate(-1.67, -2.5)" class="sprotty-port" style="fill:rgb(48, 48, 48);stroke:rgb(48, 48, 48);"/><text class="clickable sprotty-label port" id="sprotty_ArchitectureBlockImpl$el2_configurable_gw/BPortImpl$meigwclr/label" transform="translate(6, 6) translate(25.765625, 14)" style="cursor:default;font-size:12px;perspective-origin:0.0859375px 0px;fill:rgb(48, 48, 48);text-anchor:middle;">meigwclr</text></g><g id="sprotty_ArchitectureBlockImpl$el2_configurable_gw/BPortImpl$meigwctrl_type" class="triangle" transform="translate(0, 456)"><path d="M 0,0 L 5,2.5 L 0,5 Z" transform="translate(-1.67, -2.5)" class="sprotty-port" style="fill:rgb(48, 48, 48);stroke:rgb(48, 48, 48);"/><text class="clickable sprotty-label port" id="sprotty_ArchitectureBlockImpl$el2_configurable_gw/BPortImpl$meigwctrl_type/label" transform="translate(6, 6) translate(43.75, 14)" style="cursor:default;font-size:12px;perspective-origin:0px 0px;fill:rgb(48, 48, 48);text-anchor:middle;">meigwctrl_type</text></g><g id="sprotty_ArchitectureBlockImpl$el2_configurable_gw/BPortImpl$meigwctrl_polarity" class="triangle" transform="translate(0, 422)"><path d="M 0,0 L 5,2.5 L 0,5 Z" transform="translate(-1.67, -2.5)" class="sprotty-port" style="fill:rgb(48, 48, 48);stroke:rgb(48, 48, 48);"/><text class="clickable sprotty-label port" id="sprotty_ArchitectureBlockImpl$el2_configurable_gw/BPortImpl$meigwctrl_polarity/label" transform="translate(6, 6) translate(53.140625, 14)" style="cursor:default;font-size:12px;perspective-origin:0.0625px 0px;fill:rgb(48, 48, 48);text-anchor:middle;">meigwctrl_polarity</text></g><g id="sprotty_ArchitectureBlockImpl$el2_configurable_gw/BPortImpl$extintsrc_req" class="triangle" transform="translate(0, 388)"><path d="M 0,0 L 5,2.5 L 0,5 Z" transform="translate(-1.67, -2.5)" class="sprotty-port" style="fill:rgb(48, 48, 48);stroke:rgb(48, 48, 48);"/><text class="clickable sprotty-label port" id="sprotty_ArchitectureBlockImpl$el2_configurable_gw/BPortImpl$extintsrc_req/label" transform="translate(6, 6) translate(36.671875, 14)" style="cursor:default;font-size:12px;perspective-origin:0px 0px;fill:rgb(48, 48, 48);text-anchor:middle;">extintsrc_req</text></g><g id="sprotty_ArchitectureBlockImpl$el2_configurable_gw/BPortImpl$rst_l" class="triangle" transform="translate(0, 354)"><path d="M 0,0 L 5,2.5 L 0,5 Z" transform="translate(-1.67, -2.5)" class="sprotty-port" style="fill:rgb(48, 48, 48);stroke:rgb(48, 48, 48);"/><text class="clickable sprotty-label port" id="sprotty_ArchitectureBlockImpl$el2_configurable_gw/BPortImpl$rst_l/label" transform="translate(6, 6) translate(12.3125, 14)" style="cursor:default;font-size:12px;perspective-origin:0px 0px;fill:rgb(48, 48, 48);text-anchor:middle;">rst_l</text></g><g id="sprotty_ArchitectureBlockImpl$el2_configurable_gw/BPortImpl$clken" class="triangle" transform="translate(0, 149)"><path d="M 0,0 L 5,2.5 L 0,5 Z" transform="translate(-1.67, -2.5)" class="sprotty-port" style="fill:rgb(48, 48, 48);stroke:rgb(48, 48, 48);"/><text class="clickable sprotty-label port" id="sprotty_ArchitectureBlockImpl$el2_configurable_gw/BPortImpl$clken/label" transform="translate(6, 6) translate(14.953125, 14)" style="cursor:default;font-size:12px;perspective-origin:0px 0px;fill:rgb(48, 48, 48);text-anchor:middle;">clken</text></g><g id="sprotty_ArchitectureBlockImpl$el2_configurable_gw/BPortImpl$rawclk" class="triangle" transform="translate(0, 309)"><path d="M 0,0 L 5,2.5 L 0,5 Z" transform="translate(-1.67, -2.5)" class="sprotty-port" style="fill:rgb(48, 48, 48);stroke:rgb(48, 48, 48);"/><text class="clickable sprotty-label port" id="sprotty_ArchitectureBlockImpl$el2_configurable_gw/BPortImpl$rawclk/label" transform="translate(6, 6) translate(18.421875, 14)" style="cursor:default;font-size:12px;perspective-origin:0.09375px 0px;fill:rgb(48, 48, 48);text-anchor:middle;">rawclk</text></g><g id="sprotty_ArchitectureBlockImpl$el2_configurable_gw/BPortImpl$gw_clk" class="triangle" transform="translate(0, 115)"><path d="M 0,0 L 5,2.5 L 0,5 Z" transform="translate(-1.67, -2.5)" class="sprotty-port" style="fill:rgb(48, 48, 48);stroke:rgb(48, 48, 48);"/><text class="clickable sprotty-label port" id="sprotty_ArchitectureBlockImpl$el2_configurable_gw/BPortImpl$gw_clk/label" transform="translate(6, 6) translate(19.609375, 14)" style="cursor:default;font-size:12px;perspective-origin:0.09375px 0px;fill:rgb(48, 48, 48);text-anchor:middle;">gw_clk</text></g><g id="sprotty_ArchitectureBlockImpl$el2_configurable_gw/BPortImpl$extintsrc_req_config" class="triangle" transform="translate(599.65625, 417)"><path d="M 0,0 L 5,2.5 L 0,5 Z" transform="translate(-1.67, -2.5)" class="sprotty-port" style="fill:rgb(48, 48, 48);stroke:rgb(48, 48, 48);"/><text class="clickable sprotty-label port" id="sprotty_ArchitectureBlockImpl$el2_configurable_gw/BPortImpl$extintsrc_req_config/label" transform="translate(-120.90625, 6) translate(57.328125, 14)" style="cursor:default;font-size:12px;perspective-origin:0.0625px 0px;fill:rgb(48, 48, 48);text-anchor:middle;">extintsrc_req_config</text></g></g></g></svg>