<svg xmlns="http://www.w3.org/2000/svg" id="sprotty_work.el2_btb_addr_hash" class="sprotty-graph sprotty-block-diagram blockdiagram" style="font-family:&quot;Noto Sans&quot;, Helvetica, Arial, sans-serif;perspective-origin:0px 0px;transform-origin:0px 0px;" version="1.1" viewBox="7 7 181.96875 154" width="181.96875" height="154"><g transform="scale(1) translate(0,0)"><g id="sprotty_ArchitectureBlockImpl$el2_btb_addr_hash" class="architecture" transform="translate(12, 12)"><g class="sprotty-block" style="fill:rgb(255, 255, 255);stroke:rgb(48, 48, 48);stroke-dasharray:0px;"><rect x="0" y="0" rx="1" ry="1" width="171.96875" height="144"/><text x="85.984375" y="12" class="sprotty-block-name" style="cursor:pointer;font-weight:700;perspective-origin:42.9922px 0px;fill:rgb(48, 48, 48);stroke:rgba(0, 0, 0, 0);dominant-baseline:middle;text-anchor:middle;">el2_btb_addr_hash</text><line x1="0" y1="20" x2="171.96875" y2="20"/></g><g id="sprotty_ArchitectureBlockImpl$el2_btb_addr_hash/GenerateStatementBlockImpl$null2/GPortImpl$hash_to_ArchitectureBlockImpl$el2_btb_addr_hash/BPortImpl$hash" class="sprotty-edge thick edge" style="fill:none;stroke:rgb(112, 112, 112);stroke-linejoin:round;stroke-width:3px;"><g><path d="M 124 61 L 171.96875 61 "/><path d="M 124 61 L 171.96875 61 " class="clickable"/></g></g><g id="sprotty_ArchitectureBlockImpl$el2_btb_addr_hash/BPortImpl$pc_to_ArchitectureBlockImpl$el2_btb_addr_hash/GenerateStatementBlockImpl$null2/GPortImpl$pc" class="sprotty-edge thick edge" style="fill:none;stroke:rgb(112, 112, 112);stroke-linejoin:round;stroke-width:3px;"><g><path d="M 0 61 L 34.5625 61 "/><path d="M 0 61 L 34.5625 61 " class="clickable"/></g></g><g id="sprotty_ArchitectureBlockImpl$el2_btb_addr_hash/GenerateStatementBlockImpl$null2" class="generate" transform="translate(34.5625, 35)"><g class="sprotty-block sprotty-block-generate" style="fill:rgb(255, 255, 255);stroke:rgb(48, 48, 48);stroke-dasharray:0px;"><rect x="0" y="0" rx="1" ry="1" width="89.4375" height="94" style="stroke-dasharray:3px, 1px;"/><text x="44.71875" y="12" class="sprotty-block-name" style="cursor:pointer;font-weight:700;fill:rgb(48, 48, 48);stroke:rgba(0, 0, 0, 0);dominant-baseline:middle;text-anchor:middle;"/></g><g id="sprotty_ArchitectureBlockImpl$el2_btb_addr_hash/GenerateStatementBlockImpl$null2/AssignmentBlockImpl$hash1/GPortImpl$hashOUT_to_ArchitectureBlockImpl$el2_btb_addr_hash/GenerateStatementBlockImpl$null2/GPortImpl$hash" class="sprotty-edge thick edge" style="fill:none;stroke:rgb(112, 112, 112);stroke-linejoin:round;stroke-width:3px;"><g><path d="M 54.4375 68 L 62.4375 68 C 63.4375 68 64.4375 67 64.4375 66 L 64.4375 28 C 64.4375 27 65.4375 26 66.4375 26 L 89.4375 26 "/><path d="M 54.4375 68 L 62.4375 68 C 63.4375 68 64.4375 67 64.4375 66 L 64.4375 28 C 64.4375 27 65.4375 26 66.4375 26 L 89.4375 26 " class="clickable"/></g><circle r="3" id="sprotty_ArchitectureBlockImpl$el2_btb_addr_hash/GenerateStatementBlockImpl$null2/AssignmentBlockImpl$hash1/GPortImpl$hashOUT_to_ArchitectureBlockImpl$el2_btb_addr_hash/GenerateStatementBlockImpl$null2/GPortImpl$hash/junction0" transform="translate(64.4375, 26)" class="sprotty-junction thick" style="fill:rgb(112, 112, 112);stroke:none;"/></g><g id="sprotty_ArchitectureBlockImpl$el2_btb_addr_hash/GenerateStatementBlockImpl$null2/AssignmentBlockImpl$hash/GPortImpl$hashOUT_to_ArchitectureBlockImpl$el2_btb_addr_hash/GenerateStatementBlockImpl$null2/GPortImpl$hash" class="sprotty-edge thick edge" style="fill:none;stroke:rgb(112, 112, 112);stroke-linejoin:round;stroke-width:3px;"><g><path d="M 54.4375 26 L 89.4375 26 "/><path d="M 54.4375 26 L 89.4375 26 " class="clickable"/></g></g><g id="sprotty_ArchitectureBlockImpl$el2_btb_addr_hash/GenerateStatementBlockImpl$null2/GPortImpl$pc_to_ArchitectureBlockImpl$el2_btb_addr_hash/GenerateStatementBlockImpl$null2/AssignmentBlockImpl$hash1/GPortImpl$pcIN" class="sprotty-edge thick edge" style="fill:none;stroke:rgb(112, 112, 112);stroke-linejoin:round;stroke-width:3px;"><g><path d="M 0 26 L 23 26 C 24 26 25 27 25 28 L 25 66 C 25 67 26 68 27 68 L 35 68 "/><path d="M 0 26 L 23 26 C 24 26 25 27 25 28 L 25 66 C 25 67 26 68 27 68 L 35 68 " class="clickable"/></g><circle r="3" id="sprotty_ArchitectureBlockImpl$el2_btb_addr_hash/GenerateStatementBlockImpl$null2/GPortImpl$pc_to_ArchitectureBlockImpl$el2_btb_addr_hash/GenerateStatementBlockImpl$null2/AssignmentBlockImpl$hash1/GPortImpl$pcIN/junction0" transform="translate(25, 26)" class="sprotty-junction thick" style="fill:rgb(112, 112, 112);stroke:none;"/></g><g id="sprotty_ArchitectureBlockImpl$el2_btb_addr_hash/GenerateStatementBlockImpl$null2/GPortImpl$pc_to_ArchitectureBlockImpl$el2_btb_addr_hash/GenerateStatementBlockImpl$null2/AssignmentBlockImpl$hash/GPortImpl$pcIN" class="sprotty-edge thick edge" style="fill:none;stroke:rgb(112, 112, 112);stroke-linejoin:round;stroke-width:3px;"><g><path d="M 0 26 L 35 26 "/><path d="M 0 26 L 35 26 " class="clickable"/></g></g><g id="sprotty_ArchitectureBlockImpl$el2_btb_addr_hash/GenerateStatementBlockImpl$null2/AssignmentBlockImpl$hash" class="statement" transform="translate(35, 15)"><rect x="0" y="0" rx="10" ry="5" width="19.4375" height="22" class="sprotty-node" style="fill:rgb(245, 245, 245);stroke:rgb(112, 112, 112);"/><text class="clickable sprotty-label statementtype" id="sprotty_ArchitectureBlockImpl$el2_btb_addr_hash/GenerateStatementBlockImpl$null2/AssignmentBlockImpl$hash/labeltype" transform="translate(5, 5) translate(4.71875, 9)" style="cursor:default;font-size:8px;font-weight:700;perspective-origin:0px 0px;fill:rgb(112, 112, 112);text-anchor:middle;">&lt;=</text><g id="sprotty_ArchitectureBlockImpl$el2_btb_addr_hash/GenerateStatementBlockImpl$null2/AssignmentBlockImpl$hash/GPortImpl$pcIN" class="sprotty-hidden hidden" transform="translate(0, 11)" style="display:block;height:0px;width:0px;"/><g id="sprotty_ArchitectureBlockImpl$el2_btb_addr_hash/GenerateStatementBlockImpl$null2/AssignmentBlockImpl$hash/GPortImpl$hashOUT" class="sprotty-hidden hidden" transform="translate(19.4375, 11)" style="display:block;height:0px;width:0px;"/></g><g id="sprotty_ArchitectureBlockImpl$el2_btb_addr_hash/GenerateStatementBlockImpl$null2/AssignmentBlockImpl$hash1" class="statement" transform="translate(35, 57)"><rect x="0" y="0" rx="10" ry="5" width="19.4375" height="22" class="sprotty-node" style="fill:rgb(245, 245, 245);stroke:rgb(112, 112, 112);"/><text class="clickable sprotty-label statementtype" id="sprotty_ArchitectureBlockImpl$el2_btb_addr_hash/GenerateStatementBlockImpl$null2/AssignmentBlockImpl$hash1/labeltype" transform="translate(5, 5) translate(4.71875, 9)" style="cursor:default;font-size:8px;font-weight:700;perspective-origin:0px 0px;fill:rgb(112, 112, 112);text-anchor:middle;">&lt;=</text><g id="sprotty_ArchitectureBlockImpl$el2_btb_addr_hash/GenerateStatementBlockImpl$null2/AssignmentBlockImpl$hash1/GPortImpl$pcIN" class="sprotty-hidden hidden" transform="translate(0, 11)" style="display:block;height:0px;width:0px;"/><g id="sprotty_ArchitectureBlockImpl$el2_btb_addr_hash/GenerateStatementBlockImpl$null2/AssignmentBlockImpl$hash1/GPortImpl$hashOUT" class="sprotty-hidden hidden" transform="translate(19.4375, 11)" style="display:block;height:0px;width:0px;"/></g><g id="sprotty_ArchitectureBlockImpl$el2_btb_addr_hash/GenerateStatementBlockImpl$null2/GPortImpl$pc" class="triangle" transform="translate(0, 26)"><path d="M 0,0 L 5,2.5 L 0,5 Z" transform="translate(-1.67, -2.5)" class="sprotty-port" style="fill:rgb(48, 48, 48);stroke:rgb(48, 48, 48);"/></g><g id="sprotty_ArchitectureBlockImpl$el2_btb_addr_hash/GenerateStatementBlockImpl$null2/GPortImpl$hash" class="triangle" transform="translate(89.4375, 26)"><path d="M 0,0 L 5,2.5 L 0,5 Z" transform="translate(-1.67, -2.5)" class="sprotty-port" style="fill:rgb(48, 48, 48);stroke:rgb(48, 48, 48);"/></g></g><g id="sprotty_ArchitectureBlockImpl$el2_btb_addr_hash/BPortImpl$pc" class="triangle" transform="translate(0, 61)"><path d="M 0,0 L 5,2.5 L 0,5 Z" transform="translate(-1.67, -2.5)" class="sprotty-port" style="fill:rgb(48, 48, 48);stroke:rgb(48, 48, 48);"/><text class="clickable sprotty-label port" id="sprotty_ArchitectureBlockImpl$el2_btb_addr_hash/BPortImpl$pc/label" transform="translate(6, 6) translate(6.78125, 14)" style="cursor:default;font-size:12px;perspective-origin:0px 0px;fill:rgb(48, 48, 48);text-anchor:middle;">pc</text></g><g id="sprotty_ArchitectureBlockImpl$el2_btb_addr_hash/BPortImpl$hash" class="triangle" transform="translate(171.96875, 61)"><path d="M 0,0 L 5,2.5 L 0,5 Z" transform="translate(-1.67, -2.5)" class="sprotty-port" style="fill:rgb(48, 48, 48);stroke:rgb(48, 48, 48);"/><text class="clickable sprotty-label port" id="sprotty_ArchitectureBlockImpl$el2_btb_addr_hash/BPortImpl$hash/label" transform="translate(-32.96875, 6) translate(13.484375, 14)" style="cursor:default;font-size:12px;perspective-origin:0px 0px;fill:rgb(48, 48, 48);text-anchor:middle;">hash</text></g></g></g></svg>