<svg xmlns="http://www.w3.org/2000/svg" id="sprotty_work.rvdffs" class="sprotty-graph sprotty-block-diagram blockdiagram" style="font-family:&quot;Noto Sans&quot;, Helvetica, Arial, sans-serif;perspective-origin:0px 0px;transform-origin:0px 0px;" version="1.1" viewBox="7 7 262.34375 288" width="262.34375" height="288"><g transform="scale(1) translate(0,0)"><g id="sprotty_ArchitectureBlockImpl$rvdffs" class="architecture" transform="translate(12, 12)"><g class="sprotty-block" style="fill:rgb(255, 255, 255);stroke:rgb(48, 48, 48);stroke-dasharray:0px;"><rect x="0" y="0" rx="1" ry="1" width="252.34375" height="278"/><text x="126.171875" y="12" class="sprotty-block-name" style="cursor:pointer;font-weight:700;perspective-origin:63.0859px 0px;fill:rgb(48, 48, 48);stroke:rgba(0, 0, 0, 0);dominant-baseline:middle;text-anchor:middle;">rvdffs</text><line x1="0" y1="20" x2="252.34375" y2="20"/></g><g id="sprotty_ArchitectureBlockImpl$rvdffs/GenerateStatementBlockImpl$null5/GPortImpl$dout_to_ArchitectureBlockImpl$rvdffs/BPortImpl$dout" class="sprotty-edge thick edge" style="fill:none;stroke:rgb(112, 112, 112);stroke-linejoin:round;stroke-width:3px;"><g><path d="M 204.8125 116 L 252.34375 116 "/><path d="M 204.8125 116 L 252.34375 116 " class="clickable"/></g></g><g id="sprotty_ArchitectureBlockImpl$rvdffs/BPortImpl$clk_to_ArchitectureBlockImpl$rvdffs/GenerateStatementBlockImpl$null5/GPortImpl$clk" class="sprotty-edge edge" style="fill:none;stroke:rgb(112, 112, 112);stroke-linejoin:round;"><g><path d="M 0 110 L 53.625 110 C 54.625 110 55.625 111 55.625 112 L 55.625 114 C 55.625 115 56.625 116 57.625 116 L 65.625 116 "/><path d="M 0 110 L 53.625 110 C 54.625 110 55.625 111 55.625 112 L 55.625 114 C 55.625 115 56.625 116 57.625 116 L 65.625 116 " class="clickable"/></g></g><g id="sprotty_ArchitectureBlockImpl$rvdffs/BPortImpl$rst_l_to_ArchitectureBlockImpl$rvdffs/GenerateStatementBlockImpl$null5/GPortImpl$rst_l" class="sprotty-edge edge" style="fill:none;stroke:rgb(112, 112, 112);stroke-linejoin:round;"><g><path d="M 0 144 L 65.625 144 "/><path d="M 0 144 L 65.625 144 " class="clickable"/></g></g><g id="sprotty_ArchitectureBlockImpl$rvdffs/BPortImpl$din_to_ArchitectureBlockImpl$rvdffs/GenerateStatementBlockImpl$null5/GPortImpl$din" class="sprotty-edge thick edge" style="fill:none;stroke:rgb(112, 112, 112);stroke-linejoin:round;stroke-width:3px;"><g><path d="M 0 193 L 65.625 193 "/><path d="M 0 193 L 65.625 193 " class="clickable"/></g></g><g id="sprotty_ArchitectureBlockImpl$rvdffs/GenerateStatementBlockImpl$null5" class="generate" transform="translate(65.625, 35)"><g class="sprotty-block sprotty-block-generate" style="fill:rgb(255, 255, 255);stroke:rgb(48, 48, 48);stroke-dasharray:0px;"><rect x="0" y="0" rx="1" ry="1" width="139.1875" height="184" style="stroke-dasharray:3px, 1px;"/><text x="69.59375" y="12" class="sprotty-block-name" style="cursor:pointer;font-weight:700;fill:rgb(48, 48, 48);stroke:rgba(0, 0, 0, 0);dominant-baseline:middle;text-anchor:middle;"/></g><g id="sprotty_ArchitectureBlockImpl$rvdffs/GenerateStatementBlockImpl$null5/AssignmentBlockImpl$dout/GPortImpl$doutOUT_to_ArchitectureBlockImpl$rvdffs/GenerateStatementBlockImpl$null5/GPortImpl$dout" class="sprotty-edge thick edge" style="fill:none;stroke:rgb(112, 112, 112);stroke-linejoin:round;stroke-width:3px;"><g><path d="M 69.3125 158 L 112.1875 158 C 113.1875 158 114.1875 157 114.1875 156 L 114.1875 83 C 114.1875 82 115.1875 81 116.1875 81 L 139.1875 81 "/><path d="M 69.3125 158 L 112.1875 158 C 113.1875 158 114.1875 157 114.1875 156 L 114.1875 83 C 114.1875 82 115.1875 81 116.1875 81 L 139.1875 81 " class="clickable"/></g><circle r="3" id="sprotty_ArchitectureBlockImpl$rvdffs/GenerateStatementBlockImpl$null5/AssignmentBlockImpl$dout/GPortImpl$doutOUT_to_ArchitectureBlockImpl$rvdffs/GenerateStatementBlockImpl$null5/GPortImpl$dout/junction0" transform="translate(114.1875, 81)" class="sprotty-junction thick" style="fill:rgb(112, 112, 112);stroke:none;"/></g><g id="sprotty_ArchitectureBlockImpl$rvdffs/GenerateStatementBlockImpl$null5/InstantiationBlockImpl$dffs/BPortImpl$dout_to_ArchitectureBlockImpl$rvdffs/GenerateStatementBlockImpl$null5/GPortImpl$dout" class="sprotty-edge thick edge" style="fill:none;stroke:rgb(112, 112, 112);stroke-linejoin:round;stroke-width:3px;"><g><path d="M 104.1875 81 L 139.1875 81 "/><path d="M 104.1875 81 L 139.1875 81 " class="clickable"/></g></g><g id="sprotty_ArchitectureBlockImpl$rvdffs/GenerateStatementBlockImpl$null5/GPortImpl$clk_to_ArchitectureBlockImpl$rvdffs/GenerateStatementBlockImpl$null5/InstantiationBlockImpl$dffs/BPortImpl$clk" class="sprotty-edge edge" style="fill:none;stroke:rgb(112, 112, 112);stroke-linejoin:round;"><g><path d="M 0 81 L 15 81 "/><path d="M 0 81 L 15 81 " class="clickable"/></g></g><g id="sprotty_ArchitectureBlockImpl$rvdffs/GenerateStatementBlockImpl$null5/GPortImpl$rst_l_to_ArchitectureBlockImpl$rvdffs/GenerateStatementBlockImpl$null5/InstantiationBlockImpl$dffs/BPortImpl$rst_l" class="sprotty-edge edge" style="fill:none;stroke:rgb(112, 112, 112);stroke-linejoin:round;"><g><path d="M 0 109 L 15 109 "/><path d="M 0 109 L 15 109 " class="clickable"/></g></g><g id="sprotty_ArchitectureBlockImpl$rvdffs/GenerateStatementBlockImpl$null5/GPortImpl$din_to_ArchitectureBlockImpl$rvdffs/GenerateStatementBlockImpl$null5/AssignmentBlockImpl$dout/GPortImpl$dinIN" class="sprotty-edge thick edge" style="fill:none;stroke:rgb(112, 112, 112);stroke-linejoin:round;stroke-width:3px;"><g><path d="M 0 158 L 49.875 158 "/><path d="M 0 158 L 49.875 158 " class="clickable"/></g></g><g id="sprotty_ArchitectureBlockImpl$rvdffs/GenerateStatementBlockImpl$null5/AssignmentBlockImpl$dout" class="statement" transform="translate(49.875, 147)"><rect x="0" y="0" rx="10" ry="5" width="19.4375" height="22" class="sprotty-node" style="fill:rgb(245, 245, 245);stroke:rgb(112, 112, 112);"/><text class="clickable sprotty-label statementtype" id="sprotty_ArchitectureBlockImpl$rvdffs/GenerateStatementBlockImpl$null5/AssignmentBlockImpl$dout/labeltype" transform="translate(5, 5) translate(4.71875, 9)" style="cursor:default;font-size:8px;font-weight:700;perspective-origin:0px 0px;fill:rgb(112, 112, 112);text-anchor:middle;">&lt;=</text><g id="sprotty_ArchitectureBlockImpl$rvdffs/GenerateStatementBlockImpl$null5/AssignmentBlockImpl$dout/GPortImpl$dinIN" class="sprotty-hidden hidden" transform="translate(0, 11)" style="display:block;height:0px;width:0px;"/><g id="sprotty_ArchitectureBlockImpl$rvdffs/GenerateStatementBlockImpl$null5/AssignmentBlockImpl$dout/GPortImpl$doutOUT" class="sprotty-hidden hidden" transform="translate(19.4375, 11)" style="display:block;height:0px;width:0px;"/></g><g id="sprotty_ArchitectureBlockImpl$rvdffs/GenerateStatementBlockImpl$null5/InstantiationBlockImpl$dffs" class="instantiation" transform="translate(15, 15)"><g class="sprotty-block" style="fill:rgb(255, 255, 255);stroke:rgb(48, 48, 48);stroke-dasharray:0px;"><rect x="0" y="0" rx="1" ry="1" width="89.1875" height="112"/><text x="44.59375" y="12" class="sprotty-block-name" style="cursor:pointer;font-weight:700;perspective-origin:22.5391px 0px;fill:rgb(48, 48, 48);stroke:rgba(0, 0, 0, 0);dominant-baseline:middle;text-anchor:middle;">dffs : rvdff</text><line x1="0" y1="20" x2="89.1875" y2="20"/></g><g id="sprotty_ArchitectureBlockImpl$rvdffs/GenerateStatementBlockImpl$null5/InstantiationBlockImpl$dffs/BPortImpl$rst_l" class="triangle" transform="translate(0, 94)"><path d="M 0,0 L 5,2.5 L 0,5 Z" transform="translate(-1.67, -2.5)" class="sprotty-port" style="fill:rgb(48, 48, 48);stroke:rgb(48, 48, 48);"/><text class="clickable sprotty-label port" id="sprotty_ArchitectureBlockImpl$rvdffs/GenerateStatementBlockImpl$null5/InstantiationBlockImpl$dffs/BPortImpl$rst_l/label" transform="translate(6, -9) translate(12.3125, 14)" style="cursor:default;font-size:12px;perspective-origin:0px 0px;fill:rgb(48, 48, 48);text-anchor:middle;">rst_l</text></g><g id="sprotty_ArchitectureBlockImpl$rvdffs/GenerateStatementBlockImpl$null5/InstantiationBlockImpl$dffs/BPortImpl$clk" class="triangle" transform="translate(0, 66)"><path d="M 0,0 L 5,2.5 L 0,5 Z" transform="translate(-1.67, -2.5)" class="sprotty-port" style="fill:rgb(48, 48, 48);stroke:rgb(48, 48, 48);"/><text class="clickable sprotty-label port" id="sprotty_ArchitectureBlockImpl$rvdffs/GenerateStatementBlockImpl$null5/InstantiationBlockImpl$dffs/BPortImpl$clk/label" transform="translate(6, -9) translate(8.078125, 14)" style="cursor:default;font-size:12px;perspective-origin:0.09375px 0px;fill:rgb(48, 48, 48);text-anchor:middle;">clk</text></g><g id="sprotty_ArchitectureBlockImpl$rvdffs/GenerateStatementBlockImpl$null5/InstantiationBlockImpl$dffs/BPortImpl$din" class="triangle" transform="translate(0, 38)"><path d="M 0,0 L 5,2.5 L 0,5 Z" transform="translate(-1.67, -2.5)" class="sprotty-port" style="fill:rgb(48, 48, 48);stroke:rgb(48, 48, 48);"/><text class="clickable sprotty-label port" id="sprotty_ArchitectureBlockImpl$rvdffs/GenerateStatementBlockImpl$null5/InstantiationBlockImpl$dffs/BPortImpl$din/label" transform="translate(6, -9) translate(9.046875, 14)" style="cursor:default;font-size:12px;perspective-origin:0px 0px;fill:rgb(48, 48, 48);text-anchor:middle;">din</text></g><g id="sprotty_ArchitectureBlockImpl$rvdffs/GenerateStatementBlockImpl$null5/InstantiationBlockImpl$dffs/BPortImpl$dout" class="triangle" transform="translate(89.1875, 66)"><path d="M 0,0 L 5,2.5 L 0,5 Z" transform="translate(-1.67, -2.5)" class="sprotty-port" style="fill:rgb(48, 48, 48);stroke:rgb(48, 48, 48);"/><text class="clickable sprotty-label port" id="sprotty_ArchitectureBlockImpl$rvdffs/GenerateStatementBlockImpl$null5/InstantiationBlockImpl$dffs/BPortImpl$dout/label" transform="translate(-32.53125, -9) translate(13.265625, 14)" style="cursor:default;font-size:12px;perspective-origin:0px 0px;fill:rgb(48, 48, 48);text-anchor:middle;">dout</text></g></g><g id="sprotty_ArchitectureBlockImpl$rvdffs/GenerateStatementBlockImpl$null5/GPortImpl$din" class="triangle" transform="translate(0, 158)"><path d="M 0,0 L 5,2.5 L 0,5 Z" transform="translate(-1.67, -2.5)" class="sprotty-port" style="fill:rgb(48, 48, 48);stroke:rgb(48, 48, 48);"/></g><g id="sprotty_ArchitectureBlockImpl$rvdffs/GenerateStatementBlockImpl$null5/GPortImpl$rst_l" class="triangle" transform="translate(0, 109)"><path d="M 0,0 L 5,2.5 L 0,5 Z" transform="translate(-1.67, -2.5)" class="sprotty-port" style="fill:rgb(48, 48, 48);stroke:rgb(48, 48, 48);"/></g><g id="sprotty_ArchitectureBlockImpl$rvdffs/GenerateStatementBlockImpl$null5/GPortImpl$clk" class="triangle" transform="translate(0, 81)"><path d="M 0,0 L 5,2.5 L 0,5 Z" transform="translate(-1.67, -2.5)" class="sprotty-port" style="fill:rgb(48, 48, 48);stroke:rgb(48, 48, 48);"/></g><g id="sprotty_ArchitectureBlockImpl$rvdffs/GenerateStatementBlockImpl$null5/GPortImpl$dout" class="triangle" transform="translate(139.1875, 81)"><path d="M 0,0 L 5,2.5 L 0,5 Z" transform="translate(-1.67, -2.5)" class="sprotty-port" style="fill:rgb(48, 48, 48);stroke:rgb(48, 48, 48);"/></g></g><g id="sprotty_ArchitectureBlockImpl$rvdffs/BPortImpl$rst_l" class="triangle" transform="translate(0, 144)"><path d="M 0,0 L 5,2.5 L 0,5 Z" transform="translate(-1.67, -2.5)" class="sprotty-port" style="fill:rgb(48, 48, 48);stroke:rgb(48, 48, 48);"/><text class="clickable sprotty-label port" id="sprotty_ArchitectureBlockImpl$rvdffs/BPortImpl$rst_l/label" transform="translate(6, 6) translate(12.3125, 14)" style="cursor:default;font-size:12px;perspective-origin:0px 0px;fill:rgb(48, 48, 48);text-anchor:middle;">rst_l</text></g><g id="sprotty_ArchitectureBlockImpl$rvdffs/BPortImpl$clk" class="triangle" transform="translate(0, 110)"><path d="M 0,0 L 5,2.5 L 0,5 Z" transform="translate(-1.67, -2.5)" class="sprotty-port" style="fill:rgb(48, 48, 48);stroke:rgb(48, 48, 48);"/><text class="clickable sprotty-label port" id="sprotty_ArchitectureBlockImpl$rvdffs/BPortImpl$clk/label" transform="translate(6, 6) translate(8.078125, 14)" style="cursor:default;font-size:12px;perspective-origin:0.09375px 0px;fill:rgb(48, 48, 48);text-anchor:middle;">clk</text></g><g id="sprotty_ArchitectureBlockImpl$rvdffs/BPortImpl$en" class="triangle" transform="translate(0, 239)"><path d="M 0,0 L 5,2.5 L 0,5 Z" transform="translate(-1.67, -2.5)" class="sprotty-port" style="fill:rgb(48, 48, 48);stroke:rgb(48, 48, 48);"/><text class="clickable sprotty-label port" id="sprotty_ArchitectureBlockImpl$rvdffs/BPortImpl$en/label" transform="translate(6, 6) translate(7, 14)" style="cursor:default;font-size:12px;perspective-origin:0px 0px;fill:rgb(48, 48, 48);text-anchor:middle;">en</text></g><g id="sprotty_ArchitectureBlockImpl$rvdffs/BPortImpl$din" class="triangle" transform="translate(0, 193)"><path d="M 0,0 L 5,2.5 L 0,5 Z" transform="translate(-1.67, -2.5)" class="sprotty-port" style="fill:rgb(48, 48, 48);stroke:rgb(48, 48, 48);"/><text class="clickable sprotty-label port" id="sprotty_ArchitectureBlockImpl$rvdffs/BPortImpl$din/label" transform="translate(6, 6) translate(9.046875, 14)" style="cursor:default;font-size:12px;perspective-origin:0px 0px;fill:rgb(48, 48, 48);text-anchor:middle;">din</text></g><g id="sprotty_ArchitectureBlockImpl$rvdffs/BPortImpl$dout" class="triangle" transform="translate(252.34375, 116)"><path d="M 0,0 L 5,2.5 L 0,5 Z" transform="translate(-1.67, -2.5)" class="sprotty-port" style="fill:rgb(48, 48, 48);stroke:rgb(48, 48, 48);"/><text class="clickable sprotty-label port" id="sprotty_ArchitectureBlockImpl$rvdffs/BPortImpl$dout/label" transform="translate(-32.53125, 6) translate(13.265625, 14)" style="cursor:default;font-size:12px;perspective-origin:0px 0px;fill:rgb(48, 48, 48);text-anchor:middle;">dout</text></g></g></g></svg>