<svg xmlns="http://www.w3.org/2000/svg" id="sprotty_work.rvdffie" class="sprotty-graph sprotty-block-diagram blockdiagram" style="font-family:&quot;Noto Sans&quot;, Helvetica, Arial, sans-serif;perspective-origin:0px 0px;transform-origin:0px 0px;" version="1.1" viewBox="7 7 330.8125 287" width="330.8125" height="287"><g transform="scale(1) translate(0,0)"><g id="sprotty_ArchitectureBlockImpl$rvdffie" class="architecture" transform="translate(12, 12)"><g class="sprotty-block" style="fill:rgb(255, 255, 255);stroke:rgb(48, 48, 48);stroke-dasharray:0px;"><rect x="0" y="0" rx="1" ry="1" width="320.8125" height="277"/><text x="160.40625" y="12" class="sprotty-block-name" style="cursor:pointer;font-weight:700;perspective-origin:80.2031px 0px;fill:rgb(48, 48, 48);stroke:rgba(0, 0, 0, 0);dominant-baseline:middle;text-anchor:middle;">rvdffie</text><line x1="0" y1="20" x2="320.8125" y2="20"/></g><g id="sprotty_ArchitectureBlockImpl$rvdffie/GenerateStatementBlockImpl$null5/GPortImpl$dout_to_ArchitectureBlockImpl$rvdffie/BPortImpl$dout" class="sprotty-edge thick edge" style="fill:none;stroke:rgb(112, 112, 112);stroke-linejoin:round;stroke-width:3px;"><g><path d="M 273.28125 51 L 320.8125 51 "/><path d="M 273.28125 51 L 320.8125 51 " class="clickable"/></g></g><g id="sprotty_ArchitectureBlockImpl$rvdffie/BPortImpl$din_to_ArchitectureBlockImpl$rvdffie/GenerateStatementBlockImpl$null5/GPortImpl$din" class="sprotty-edge thick edge" style="fill:none;stroke:rgb(112, 112, 112);stroke-linejoin:round;stroke-width:3px;"><g><path d="M 0 117 L 53.625 117 C 54.625 117 55.625 118 55.625 119 L 55.625 132 C 55.625 133 56.625 134 57.625 134 L 65.625 134 "/><path d="M 0 117 L 53.625 117 C 54.625 117 55.625 118 55.625 119 L 55.625 132 C 55.625 133 56.625 134 57.625 134 L 65.625 134 " class="clickable"/></g></g><g id="sprotty_ArchitectureBlockImpl$rvdffie/BPortImpl$clk_to_ArchitectureBlockImpl$rvdffie/GenerateStatementBlockImpl$null5/GPortImpl$clk" class="sprotty-edge edge" style="fill:none;stroke:rgb(112, 112, 112);stroke-linejoin:round;"><g><path d="M 0 151 L 53.625 151 C 54.625 151 55.625 152 55.625 153 L 55.625 163 C 55.625 164 56.625 165 57.625 165 L 65.625 165 "/><path d="M 0 151 L 53.625 151 C 54.625 151 55.625 152 55.625 153 L 55.625 163 C 55.625 164 56.625 165 57.625 165 L 65.625 165 " class="clickable"/></g></g><g id="sprotty_ArchitectureBlockImpl$rvdffie/BPortImpl$rst_l_to_ArchitectureBlockImpl$rvdffie/GenerateStatementBlockImpl$null5/GPortImpl$rst_l" class="sprotty-edge edge" style="fill:none;stroke:rgb(112, 112, 112);stroke-linejoin:round;"><g><path d="M 0 185 L 65.625 185 "/><path d="M 0 185 L 65.625 185 " class="clickable"/></g></g><g id="sprotty_ArchitectureBlockImpl$rvdffie/BPortImpl$dout_to_ArchitectureBlockImpl$rvdffie/GenerateStatementBlockImpl$null5/GPortImpl$dout" class="sprotty-edge thick edge" style="fill:none;stroke:rgb(112, 112, 112);stroke-linejoin:round;stroke-width:3px;"><g><path d="M 320.8125 51 L 273.28125 51 "/><path d="M 320.8125 51 L 273.28125 51 " class="clickable"/></g></g><g id="sprotty_ArchitectureBlockImpl$rvdffie/GenerateStatementBlockImpl$null5" class="generate" transform="translate(65.625, 35)"><g class="sprotty-block sprotty-block-generate" style="fill:rgb(255, 255, 255);stroke:rgb(48, 48, 48);stroke-dasharray:0px;"><rect x="0" y="0" rx="1" ry="1" width="207.65625" height="183" style="stroke-dasharray:3px, 1px;"/><text x="103.828125" y="12" class="sprotty-block-name" style="cursor:pointer;font-weight:700;fill:rgb(48, 48, 48);stroke:rgba(0, 0, 0, 0);dominant-baseline:middle;text-anchor:middle;"/></g><g id="sprotty_ArchitectureBlockImpl$rvdffie/GenerateStatementBlockImpl$null5/InstantiationBlockImpl$dff/BPortImpl$dout_to_ArchitectureBlockImpl$rvdffie/GenerateStatementBlockImpl$null5/GPortImpl$dout" class="sprotty-edge thick edge" style="fill:none;stroke:rgb(112, 112, 112);stroke-linejoin:round;stroke-width:3px;"><g><path d="M 172.65625 108 L 180.65625 108 C 181.65625 108 182.65625 107 182.65625 106 L 182.65625 18 C 182.65625 17 183.65625 16 184.65625 16 L 207.65625 16 "/><path d="M 172.65625 108 L 180.65625 108 C 181.65625 108 182.65625 107 182.65625 106 L 182.65625 18 C 182.65625 17 183.65625 16 184.65625 16 L 207.65625 16 " class="clickable"/></g><circle r="3" id="sprotty_ArchitectureBlockImpl$rvdffie/GenerateStatementBlockImpl$null5/InstantiationBlockImpl$dff/BPortImpl$dout_to_ArchitectureBlockImpl$rvdffie/GenerateStatementBlockImpl$null5/GPortImpl$dout/junction0" transform="translate(182.65625, 16)" class="sprotty-junction thick" style="fill:rgb(112, 112, 112);stroke:none;"/></g><g id="sprotty_ArchitectureBlockImpl$rvdffie/GenerateStatementBlockImpl$null5/GPortImpl$din_to_ArchitectureBlockImpl$rvdffie/GenerateStatementBlockImpl$null5/InstantiationBlockImpl$dff/BPortImpl$din" class="sprotty-edge thick edge" style="fill:none;stroke:rgb(112, 112, 112);stroke-linejoin:round;stroke-width:3px;"><g><path d="M 0 99 L 23 99 C 24 99 25 100 25 101 L 25 118 C 25 119 26 120 27 120 L 62.4375 120 C 63.4375 120 64.4375 119 64.4375 118 L 64.4375 68 C 64.4375 67 65.4375 66 66.4375 66 L 84.4375 66 "/><path d="M 0 99 L 23 99 C 24 99 25 100 25 101 L 25 118 C 25 119 26 120 27 120 L 62.4375 120 C 63.4375 120 64.4375 119 64.4375 118 L 64.4375 68 C 64.4375 67 65.4375 66 66.4375 66 L 84.4375 66 " class="clickable"/></g><circle r="3" id="sprotty_ArchitectureBlockImpl$rvdffie/GenerateStatementBlockImpl$null5/GPortImpl$din_to_ArchitectureBlockImpl$rvdffie/GenerateStatementBlockImpl$null5/InstantiationBlockImpl$dff/BPortImpl$din/junction0" transform="translate(25, 99)" class="sprotty-junction thick" style="fill:rgb(112, 112, 112);stroke:none;"/></g><g id="sprotty_ArchitectureBlockImpl$rvdffie/GenerateStatementBlockImpl$null5/GPortImpl$clk_to_ArchitectureBlockImpl$rvdffie/GenerateStatementBlockImpl$null5/InstantiationBlockImpl$dff/BPortImpl$clk" class="sprotty-edge edge" style="fill:none;stroke:rgb(112, 112, 112);stroke-linejoin:round;"><g><path d="M 0 130 L 72.4375 130 C 73.4375 130 74.4375 129 74.4375 128 L 74.4375 124 C 74.4375 123 75.4375 122 76.4375 122 L 84.4375 122 "/><path d="M 0 130 L 72.4375 130 C 73.4375 130 74.4375 129 74.4375 128 L 74.4375 124 C 74.4375 123 75.4375 122 76.4375 122 L 84.4375 122 " class="clickable"/></g></g><g id="sprotty_ArchitectureBlockImpl$rvdffie/GenerateStatementBlockImpl$null5/GPortImpl$rst_l_to_ArchitectureBlockImpl$rvdffie/GenerateStatementBlockImpl$null5/InstantiationBlockImpl$dff/BPortImpl$rst_l" class="sprotty-edge edge" style="fill:none;stroke:rgb(112, 112, 112);stroke-linejoin:round;"><g><path d="M 0 150 L 84.4375 150 "/><path d="M 0 150 L 84.4375 150 " class="clickable"/></g></g><g id="sprotty_ArchitectureBlockImpl$rvdffie/GenerateStatementBlockImpl$null5/GPortImpl$din_to_ArchitectureBlockImpl$rvdffie/GenerateStatementBlockImpl$null5/AssignmentBlockImpl$en/GPortImpl$dinIN" class="sprotty-edge thick edge" style="fill:none;stroke:rgb(112, 112, 112);stroke-linejoin:round;stroke-width:3px;"><g><path d="M 0 99 L 35 99 "/><path d="M 0 99 L 35 99 " class="clickable"/></g></g><g id="sprotty_ArchitectureBlockImpl$rvdffie/GenerateStatementBlockImpl$null5/GPortImpl$dout_to_ArchitectureBlockImpl$rvdffie/GenerateStatementBlockImpl$null5/AssignmentBlockImpl$en/GPortImpl$doutIN" class="sprotty-edge thick edge" style="fill:none;stroke:rgb(112, 112, 112);stroke-linejoin:round;stroke-width:3px;"><g><path d="M 207.65625 16 L 27 16 C 26 16 25 17 25 18 L 25 87 C 25 88 26 89 27 89 L 35 89 "/><path d="M 207.65625 16 L 27 16 C 26 16 25 17 25 18 L 25 87 C 25 88 26 89 27 89 L 35 89 " class="clickable"/></g></g><g id="sprotty_ArchitectureBlockImpl$rvdffie/GenerateStatementBlockImpl$null5/AssignmentBlockImpl$en/GPortImpl$doutOUT_to_ArchitectureBlockImpl$rvdffie/GenerateStatementBlockImpl$null5/InstantiationBlockImpl$dff/BPortImpl$en" class="sprotty-edge thick edge" style="fill:none;stroke:rgb(112, 112, 112);stroke-linejoin:round;stroke-width:3px;"><g><path d="M 54.4375 94 L 84.4375 94 "/><path d="M 54.4375 94 L 84.4375 94 " class="clickable"/></g></g><g id="sprotty_ArchitectureBlockImpl$rvdffie/GenerateStatementBlockImpl$null5/AssignmentBlockImpl$en" class="statement" transform="translate(35, 79)"><rect x="0" y="0" rx="10" ry="5" width="19.4375" height="30" class="sprotty-node" style="fill:rgb(245, 245, 245);stroke:rgb(112, 112, 112);"/><text class="clickable sprotty-label statementtype" id="sprotty_ArchitectureBlockImpl$rvdffie/GenerateStatementBlockImpl$null5/AssignmentBlockImpl$en/labeltype" transform="translate(5, 9) translate(4.71875, 9)" style="cursor:default;font-size:8px;font-weight:700;perspective-origin:0px 0px;fill:rgb(112, 112, 112);text-anchor:middle;">&lt;=</text><g id="sprotty_ArchitectureBlockImpl$rvdffie/GenerateStatementBlockImpl$null5/AssignmentBlockImpl$en/GPortImpl$doutIN" class="sprotty-hidden hidden" transform="translate(0, 10)" style="display:block;height:0px;width:0px;"/><g id="sprotty_ArchitectureBlockImpl$rvdffie/GenerateStatementBlockImpl$null5/AssignmentBlockImpl$en/GPortImpl$dinIN" class="sprotty-hidden hidden" transform="translate(0, 20)" style="display:block;height:0px;width:0px;"/><g id="sprotty_ArchitectureBlockImpl$rvdffie/GenerateStatementBlockImpl$null5/AssignmentBlockImpl$en/GPortImpl$doutOUT" class="sprotty-hidden hidden" transform="translate(19.4375, 15)" style="display:block;height:0px;width:0px;"/></g><g id="sprotty_ArchitectureBlockImpl$rvdffie/GenerateStatementBlockImpl$null5/InstantiationBlockImpl$dff" class="instantiation" transform="translate(84.4375, 28)"><g class="sprotty-block" style="fill:rgb(255, 255, 255);stroke:rgb(48, 48, 48);stroke-dasharray:0px;"><rect x="0" y="0" rx="1" ry="1" width="88.21875" height="140"/><text x="44.109375" y="12" class="sprotty-block-name" style="cursor:pointer;font-weight:700;perspective-origin:22.0547px 0px;fill:rgb(48, 48, 48);stroke:rgba(0, 0, 0, 0);dominant-baseline:middle;text-anchor:middle;">dff : rvdffs</text><line x1="0" y1="20" x2="88.21875" y2="20"/></g><g id="sprotty_ArchitectureBlockImpl$rvdffie/GenerateStatementBlockImpl$null5/InstantiationBlockImpl$dff/BPortImpl$rst_l" class="triangle" transform="translate(0, 122)"><path d="M 0,0 L 5,2.5 L 0,5 Z" transform="translate(-1.67, -2.5)" class="sprotty-port" style="fill:rgb(48, 48, 48);stroke:rgb(48, 48, 48);"/><text class="clickable sprotty-label port" id="sprotty_ArchitectureBlockImpl$rvdffie/GenerateStatementBlockImpl$null5/InstantiationBlockImpl$dff/BPortImpl$rst_l/label" transform="translate(6, -9) translate(12.3125, 14)" style="cursor:default;font-size:12px;perspective-origin:0px 0px;fill:rgb(48, 48, 48);text-anchor:middle;">rst_l</text></g><g id="sprotty_ArchitectureBlockImpl$rvdffie/GenerateStatementBlockImpl$null5/InstantiationBlockImpl$dff/BPortImpl$clk" class="triangle" transform="translate(0, 94)"><path d="M 0,0 L 5,2.5 L 0,5 Z" transform="translate(-1.67, -2.5)" class="sprotty-port" style="fill:rgb(48, 48, 48);stroke:rgb(48, 48, 48);"/><text class="clickable sprotty-label port" id="sprotty_ArchitectureBlockImpl$rvdffie/GenerateStatementBlockImpl$null5/InstantiationBlockImpl$dff/BPortImpl$clk/label" transform="translate(6, -9) translate(8.078125, 14)" style="cursor:default;font-size:12px;perspective-origin:0.09375px 0px;fill:rgb(48, 48, 48);text-anchor:middle;">clk</text></g><g id="sprotty_ArchitectureBlockImpl$rvdffie/GenerateStatementBlockImpl$null5/InstantiationBlockImpl$dff/BPortImpl$en" class="triangle" transform="translate(0, 66)"><path d="M 0,0 L 5,2.5 L 0,5 Z" transform="translate(-1.67, -2.5)" class="sprotty-port" style="fill:rgb(48, 48, 48);stroke:rgb(48, 48, 48);"/><text class="clickable sprotty-label port" id="sprotty_ArchitectureBlockImpl$rvdffie/GenerateStatementBlockImpl$null5/InstantiationBlockImpl$dff/BPortImpl$en/label" transform="translate(6, -9) translate(7, 14)" style="cursor:default;font-size:12px;perspective-origin:0px 0px;fill:rgb(48, 48, 48);text-anchor:middle;">en</text></g><g id="sprotty_ArchitectureBlockImpl$rvdffie/GenerateStatementBlockImpl$null5/InstantiationBlockImpl$dff/BPortImpl$din" class="triangle" transform="translate(0, 38)"><path d="M 0,0 L 5,2.5 L 0,5 Z" transform="translate(-1.67, -2.5)" class="sprotty-port" style="fill:rgb(48, 48, 48);stroke:rgb(48, 48, 48);"/><text class="clickable sprotty-label port" id="sprotty_ArchitectureBlockImpl$rvdffie/GenerateStatementBlockImpl$null5/InstantiationBlockImpl$dff/BPortImpl$din/label" transform="translate(6, -9) translate(9.046875, 14)" style="cursor:default;font-size:12px;perspective-origin:0px 0px;fill:rgb(48, 48, 48);text-anchor:middle;">din</text></g><g id="sprotty_ArchitectureBlockImpl$rvdffie/GenerateStatementBlockImpl$null5/InstantiationBlockImpl$dff/BPortImpl$dout" class="triangle" transform="translate(88.21875, 80)"><path d="M 0,0 L 5,2.5 L 0,5 Z" transform="translate(-1.67, -2.5)" class="sprotty-port" style="fill:rgb(48, 48, 48);stroke:rgb(48, 48, 48);"/><text class="clickable sprotty-label port" id="sprotty_ArchitectureBlockImpl$rvdffie/GenerateStatementBlockImpl$null5/InstantiationBlockImpl$dff/BPortImpl$dout/label" transform="translate(-32.53125, -9) translate(13.265625, 14)" style="cursor:default;font-size:12px;perspective-origin:0px 0px;fill:rgb(48, 48, 48);text-anchor:middle;">dout</text></g></g><g id="sprotty_ArchitectureBlockImpl$rvdffie/GenerateStatementBlockImpl$null5/GPortImpl$rst_l" class="triangle" transform="translate(0, 150)"><path d="M 0,0 L 5,2.5 L 0,5 Z" transform="translate(-1.67, -2.5)" class="sprotty-port" style="fill:rgb(48, 48, 48);stroke:rgb(48, 48, 48);"/></g><g id="sprotty_ArchitectureBlockImpl$rvdffie/GenerateStatementBlockImpl$null5/GPortImpl$clk" class="triangle" transform="translate(0, 130)"><path d="M 0,0 L 5,2.5 L 0,5 Z" transform="translate(-1.67, -2.5)" class="sprotty-port" style="fill:rgb(48, 48, 48);stroke:rgb(48, 48, 48);"/></g><g id="sprotty_ArchitectureBlockImpl$rvdffie/GenerateStatementBlockImpl$null5/GPortImpl$din" class="triangle" transform="translate(0, 99)"><path d="M 0,0 L 5,2.5 L 0,5 Z" transform="translate(-1.67, -2.5)" class="sprotty-port" style="fill:rgb(48, 48, 48);stroke:rgb(48, 48, 48);"/></g><g id="sprotty_ArchitectureBlockImpl$rvdffie/GenerateStatementBlockImpl$null5/GPortImpl$dout" class="triangle" transform="translate(207.65625, 16)"><path d="M 0,0 L 5,2.5 L 0,5 Z" transform="translate(-1.67, -2.5)" class="sprotty-port" style="fill:rgb(48, 48, 48);stroke:rgb(48, 48, 48);"/></g></g><g id="sprotty_ArchitectureBlockImpl$rvdffie/BPortImpl$scan_mode" class="triangle" transform="translate(0, 238)"><path d="M 0,0 L 5,2.5 L 0,5 Z" transform="translate(-1.67, -2.5)" class="sprotty-port" style="fill:rgb(48, 48, 48);stroke:rgb(48, 48, 48);"/><text class="clickable sprotty-label port" id="sprotty_ArchitectureBlockImpl$rvdffie/BPortImpl$scan_mode/label" transform="translate(6, 6) translate(32.4375, 14)" style="cursor:default;font-size:12px;perspective-origin:0px 0px;fill:rgb(48, 48, 48);text-anchor:middle;">scan_mode</text></g><g id="sprotty_ArchitectureBlockImpl$rvdffie/BPortImpl$rst_l" class="triangle" transform="translate(0, 185)"><path d="M 0,0 L 5,2.5 L 0,5 Z" transform="translate(-1.67, -2.5)" class="sprotty-port" style="fill:rgb(48, 48, 48);stroke:rgb(48, 48, 48);"/><text class="clickable sprotty-label port" id="sprotty_ArchitectureBlockImpl$rvdffie/BPortImpl$rst_l/label" transform="translate(6, 6) translate(12.3125, 14)" style="cursor:default;font-size:12px;perspective-origin:0px 0px;fill:rgb(48, 48, 48);text-anchor:middle;">rst_l</text></g><g id="sprotty_ArchitectureBlockImpl$rvdffie/BPortImpl$clk" class="triangle" transform="translate(0, 151)"><path d="M 0,0 L 5,2.5 L 0,5 Z" transform="translate(-1.67, -2.5)" class="sprotty-port" style="fill:rgb(48, 48, 48);stroke:rgb(48, 48, 48);"/><text class="clickable sprotty-label port" id="sprotty_ArchitectureBlockImpl$rvdffie/BPortImpl$clk/label" transform="translate(6, 6) translate(8.078125, 14)" style="cursor:default;font-size:12px;perspective-origin:0.09375px 0px;fill:rgb(48, 48, 48);text-anchor:middle;">clk</text></g><g id="sprotty_ArchitectureBlockImpl$rvdffie/BPortImpl$din" class="triangle" transform="translate(0, 117)"><path d="M 0,0 L 5,2.5 L 0,5 Z" transform="translate(-1.67, -2.5)" class="sprotty-port" style="fill:rgb(48, 48, 48);stroke:rgb(48, 48, 48);"/><text class="clickable sprotty-label port" id="sprotty_ArchitectureBlockImpl$rvdffie/BPortImpl$din/label" transform="translate(6, 6) translate(9.046875, 14)" style="cursor:default;font-size:12px;perspective-origin:0px 0px;fill:rgb(48, 48, 48);text-anchor:middle;">din</text></g><g id="sprotty_ArchitectureBlockImpl$rvdffie/BPortImpl$dout" class="triangle" transform="translate(320.8125, 51)"><path d="M 0,0 L 5,2.5 L 0,5 Z" transform="translate(-1.67, -2.5)" class="sprotty-port" style="fill:rgb(48, 48, 48);stroke:rgb(48, 48, 48);"/><text class="clickable sprotty-label port" id="sprotty_ArchitectureBlockImpl$rvdffie/BPortImpl$dout/label" transform="translate(-32.53125, 6) translate(13.265625, 14)" style="cursor:default;font-size:12px;perspective-origin:0px 0px;fill:rgb(48, 48, 48);text-anchor:middle;">dout</text></g></g></g></svg>