<svg xmlns="http://www.w3.org/2000/svg" id="sprotty_work.rvdff_fpga" class="sprotty-graph sprotty-block-diagram blockdiagram" style="font-family:&quot;Noto Sans&quot;, Helvetica, Arial, sans-serif;perspective-origin:0px 0px;transform-origin:0px 0px;" version="1.1" viewBox="7 7 301.75 316" width="301.75" height="316"><g transform="scale(1) translate(0,0)"><g id="sprotty_ArchitectureBlockImpl$rvdff_fpga" class="architecture" transform="translate(12, 12)"><g class="sprotty-block" style="fill:rgb(255, 255, 255);stroke:rgb(48, 48, 48);stroke-dasharray:0px;"><rect x="0" y="0" rx="1" ry="1" width="291.75" height="306"/><text x="145.875" y="12" class="sprotty-block-name" style="cursor:pointer;font-weight:700;perspective-origin:72.9375px 0px;fill:rgb(48, 48, 48);stroke:rgba(0, 0, 0, 0);dominant-baseline:middle;text-anchor:middle;">rvdff_fpga</text><line x1="0" y1="20" x2="291.75" y2="20"/></g><g id="sprotty_ArchitectureBlockImpl$rvdff_fpga/GenerateStatementBlockImpl$null6/GPortImpl$dout_to_ArchitectureBlockImpl$rvdff_fpga/BPortImpl$dout" class="sprotty-edge thick edge" style="fill:none;stroke:rgb(112, 112, 112);stroke-linejoin:round;stroke-width:3px;"><g><path d="M 244.21875 61 L 291.75 61 "/><path d="M 244.21875 61 L 291.75 61 " class="clickable"/></g></g><g id="sprotty_ArchitectureBlockImpl$rvdff_fpga/BPortImpl$din_to_ArchitectureBlockImpl$rvdff_fpga/GenerateStatementBlockImpl$null6/GPortImpl$din" class="sprotty-edge thick edge" style="fill:none;stroke:rgb(112, 112, 112);stroke-linejoin:round;stroke-width:3px;"><g><path d="M 0 61 L 78.21875 61 "/><path d="M 0 61 L 78.21875 61 " class="clickable"/></g></g><g id="sprotty_ArchitectureBlockImpl$rvdff_fpga/BPortImpl$clken_to_ArchitectureBlockImpl$rvdff_fpga/GenerateStatementBlockImpl$null6/GPortImpl$clken" class="sprotty-edge edge" style="fill:none;stroke:rgb(112, 112, 112);stroke-linejoin:round;"><g><path d="M 0 152 L 66.21875 152 C 67.21875 152 68.21875 153 68.21875 154 L 68.21875 156 C 68.21875 157 69.21875 158 70.21875 158 L 78.21875 158 "/><path d="M 0 152 L 66.21875 152 C 67.21875 152 68.21875 153 68.21875 154 L 68.21875 156 C 68.21875 157 69.21875 158 70.21875 158 L 78.21875 158 " class="clickable"/></g></g><g id="sprotty_ArchitectureBlockImpl$rvdff_fpga/BPortImpl$rawclk_to_ArchitectureBlockImpl$rvdff_fpga/GenerateStatementBlockImpl$null6/GPortImpl$rawclk" class="sprotty-edge edge" style="fill:none;stroke:rgb(112, 112, 112);stroke-linejoin:round;"><g><path d="M 0 186 L 78.21875 186 "/><path d="M 0 186 L 78.21875 186 " class="clickable"/></g></g><g id="sprotty_ArchitectureBlockImpl$rvdff_fpga/BPortImpl$rst_l_to_ArchitectureBlockImpl$rvdff_fpga/GenerateStatementBlockImpl$null6/GPortImpl$rst_l" class="sprotty-edge edge" style="fill:none;stroke:rgb(112, 112, 112);stroke-linejoin:round;"><g><path d="M 0 220 L 66.21875 220 C 67.21875 220 68.21875 219 68.21875 218 L 68.21875 216 C 68.21875 215 69.21875 214 70.21875 214 L 78.21875 214 "/><path d="M 0 220 L 66.21875 220 C 67.21875 220 68.21875 219 68.21875 218 L 68.21875 216 C 68.21875 215 69.21875 214 70.21875 214 L 78.21875 214 " class="clickable"/></g></g><g id="sprotty_ArchitectureBlockImpl$rvdff_fpga/GenerateStatementBlockImpl$null6" class="generate" transform="translate(78.21875, 35)"><g class="sprotty-block sprotty-block-generate" style="fill:rgb(255, 255, 255);stroke:rgb(48, 48, 48);stroke-dasharray:0px;"><rect x="0" y="0" rx="1" ry="1" width="166" height="212" style="stroke-dasharray:3px, 1px;"/><text x="83" y="12" class="sprotty-block-name" style="cursor:pointer;font-weight:700;fill:rgb(48, 48, 48);stroke:rgba(0, 0, 0, 0);dominant-baseline:middle;text-anchor:middle;"/></g><g id="sprotty_ArchitectureBlockImpl$rvdff_fpga/GenerateStatementBlockImpl$null6/AssignmentBlockImpl$dout/GPortImpl$doutOUT_to_ArchitectureBlockImpl$rvdff_fpga/GenerateStatementBlockImpl$null6/GPortImpl$dout" class="sprotty-edge thick edge" style="fill:none;stroke:rgb(112, 112, 112);stroke-linejoin:round;stroke-width:3px;"><g><path d="M 92.71875 26 L 166 26 "/><path d="M 92.71875 26 L 166 26 " class="clickable"/></g></g><g id="sprotty_ArchitectureBlockImpl$rvdff_fpga/GenerateStatementBlockImpl$null6/InstantiationBlockImpl$dffs/BPortImpl$dout_to_ArchitectureBlockImpl$rvdff_fpga/GenerateStatementBlockImpl$null6/GPortImpl$dout" class="sprotty-edge thick edge" style="fill:none;stroke:rgb(112, 112, 112);stroke-linejoin:round;stroke-width:3px;"><g><path d="M 131 137 L 139 137 C 140 137 141 136 141 135 L 141 28 C 141 27 142 26 143 26 L 166 26 "/><path d="M 131 137 L 139 137 C 140 137 141 136 141 135 L 141 28 C 141 27 142 26 143 26 L 166 26 " class="clickable"/></g><circle r="3" id="sprotty_ArchitectureBlockImpl$rvdff_fpga/GenerateStatementBlockImpl$null6/InstantiationBlockImpl$dffs/BPortImpl$dout_to_ArchitectureBlockImpl$rvdff_fpga/GenerateStatementBlockImpl$null6/GPortImpl$dout/junction0" transform="translate(141, 26)" class="sprotty-junction thick" style="fill:rgb(112, 112, 112);stroke:none;"/></g><g id="sprotty_ArchitectureBlockImpl$rvdff_fpga/GenerateStatementBlockImpl$null6/GPortImpl$din_to_ArchitectureBlockImpl$rvdff_fpga/GenerateStatementBlockImpl$null6/InstantiationBlockImpl$dffs/BPortImpl$din" class="sprotty-edge thick edge" style="fill:none;stroke:rgb(112, 112, 112);stroke-linejoin:round;stroke-width:3px;"><g><path d="M 0 26 L 23 26 C 24 26 25 27 25 28 L 25 93 C 25 94 26 95 27 95 L 35 95 "/><path d="M 0 26 L 23 26 C 24 26 25 27 25 28 L 25 93 C 25 94 26 95 27 95 L 35 95 " class="clickable"/></g><circle r="3" id="sprotty_ArchitectureBlockImpl$rvdff_fpga/GenerateStatementBlockImpl$null6/GPortImpl$din_to_ArchitectureBlockImpl$rvdff_fpga/GenerateStatementBlockImpl$null6/InstantiationBlockImpl$dffs/BPortImpl$din/junction0" transform="translate(25, 26)" class="sprotty-junction thick" style="fill:rgb(112, 112, 112);stroke:none;"/></g><g id="sprotty_ArchitectureBlockImpl$rvdff_fpga/GenerateStatementBlockImpl$null6/GPortImpl$clken_to_ArchitectureBlockImpl$rvdff_fpga/GenerateStatementBlockImpl$null6/InstantiationBlockImpl$dffs/BPortImpl$en" class="sprotty-edge edge" style="fill:none;stroke:rgb(112, 112, 112);stroke-linejoin:round;"><g><path d="M 0 123 L 35 123 "/><path d="M 0 123 L 35 123 " class="clickable"/></g></g><g id="sprotty_ArchitectureBlockImpl$rvdff_fpga/GenerateStatementBlockImpl$null6/GPortImpl$rawclk_to_ArchitectureBlockImpl$rvdff_fpga/GenerateStatementBlockImpl$null6/InstantiationBlockImpl$dffs/BPortImpl$clk" class="sprotty-edge edge" style="fill:none;stroke:rgb(112, 112, 112);stroke-linejoin:round;"><g><path d="M 0 151 L 35 151 "/><path d="M 0 151 L 35 151 " class="clickable"/></g></g><g id="sprotty_ArchitectureBlockImpl$rvdff_fpga/GenerateStatementBlockImpl$null6/GPortImpl$rst_l_to_ArchitectureBlockImpl$rvdff_fpga/GenerateStatementBlockImpl$null6/InstantiationBlockImpl$dffs/BPortImpl$rst_l" class="sprotty-edge edge" style="fill:none;stroke:rgb(112, 112, 112);stroke-linejoin:round;"><g><path d="M 0 179 L 35 179 "/><path d="M 0 179 L 35 179 " class="clickable"/></g></g><g id="sprotty_ArchitectureBlockImpl$rvdff_fpga/GenerateStatementBlockImpl$null6/GPortImpl$din_to_ArchitectureBlockImpl$rvdff_fpga/GenerateStatementBlockImpl$null6/AssignmentBlockImpl$dout/GPortImpl$dinIN" class="sprotty-edge thick edge" style="fill:none;stroke:rgb(112, 112, 112);stroke-linejoin:round;stroke-width:3px;"><g><path d="M 0 26 L 73.28125 26 "/><path d="M 0 26 L 73.28125 26 " class="clickable"/></g></g><g id="sprotty_ArchitectureBlockImpl$rvdff_fpga/GenerateStatementBlockImpl$null6/AssignmentBlockImpl$dout" class="statement" transform="translate(73.28125, 15)"><rect x="0" y="0" rx="10" ry="5" width="19.4375" height="22" class="sprotty-node" style="fill:rgb(245, 245, 245);stroke:rgb(112, 112, 112);"/><text class="clickable sprotty-label statementtype" id="sprotty_ArchitectureBlockImpl$rvdff_fpga/GenerateStatementBlockImpl$null6/AssignmentBlockImpl$dout/labeltype" transform="translate(5, 5) translate(4.71875, 9)" style="cursor:default;font-size:8px;font-weight:700;perspective-origin:0px 0px;fill:rgb(112, 112, 112);text-anchor:middle;">&lt;=</text><g id="sprotty_ArchitectureBlockImpl$rvdff_fpga/GenerateStatementBlockImpl$null6/AssignmentBlockImpl$dout/GPortImpl$dinIN" class="sprotty-hidden hidden" transform="translate(0, 11)" style="display:block;height:0px;width:0px;"/><g id="sprotty_ArchitectureBlockImpl$rvdff_fpga/GenerateStatementBlockImpl$null6/AssignmentBlockImpl$dout/GPortImpl$doutOUT" class="sprotty-hidden hidden" transform="translate(19.4375, 11)" style="display:block;height:0px;width:0px;"/></g><g id="sprotty_ArchitectureBlockImpl$rvdff_fpga/GenerateStatementBlockImpl$null6/InstantiationBlockImpl$dffs" class="instantiation" transform="translate(35, 57)"><g class="sprotty-block" style="fill:rgb(255, 255, 255);stroke:rgb(48, 48, 48);stroke-dasharray:0px;"><rect x="0" y="0" rx="1" ry="1" width="96" height="140"/><text x="48" y="12" class="sprotty-block-name" style="cursor:pointer;font-weight:700;perspective-origin:24px 0px;fill:rgb(48, 48, 48);stroke:rgba(0, 0, 0, 0);dominant-baseline:middle;text-anchor:middle;">dffs : rvdffs</text><line x1="0" y1="20" x2="96" y2="20"/></g><g id="sprotty_ArchitectureBlockImpl$rvdff_fpga/GenerateStatementBlockImpl$null6/InstantiationBlockImpl$dffs/BPortImpl$rst_l" class="triangle" transform="translate(0, 122)"><path d="M 0,0 L 5,2.5 L 0,5 Z" transform="translate(-1.67, -2.5)" class="sprotty-port" style="fill:rgb(48, 48, 48);stroke:rgb(48, 48, 48);"/><text class="clickable sprotty-label port" id="sprotty_ArchitectureBlockImpl$rvdff_fpga/GenerateStatementBlockImpl$null6/InstantiationBlockImpl$dffs/BPortImpl$rst_l/label" transform="translate(6, -9) translate(12.3125, 14)" style="cursor:default;font-size:12px;perspective-origin:0px 0px;fill:rgb(48, 48, 48);text-anchor:middle;">rst_l</text></g><g id="sprotty_ArchitectureBlockImpl$rvdff_fpga/GenerateStatementBlockImpl$null6/InstantiationBlockImpl$dffs/BPortImpl$clk" class="triangle" transform="translate(0, 94)"><path d="M 0,0 L 5,2.5 L 0,5 Z" transform="translate(-1.67, -2.5)" class="sprotty-port" style="fill:rgb(48, 48, 48);stroke:rgb(48, 48, 48);"/><text class="clickable sprotty-label port" id="sprotty_ArchitectureBlockImpl$rvdff_fpga/GenerateStatementBlockImpl$null6/InstantiationBlockImpl$dffs/BPortImpl$clk/label" transform="translate(6, -9) translate(8.078125, 14)" style="cursor:default;font-size:12px;perspective-origin:0.09375px 0px;fill:rgb(48, 48, 48);text-anchor:middle;">clk</text></g><g id="sprotty_ArchitectureBlockImpl$rvdff_fpga/GenerateStatementBlockImpl$null6/InstantiationBlockImpl$dffs/BPortImpl$en" class="triangle" transform="translate(0, 66)"><path d="M 0,0 L 5,2.5 L 0,5 Z" transform="translate(-1.67, -2.5)" class="sprotty-port" style="fill:rgb(48, 48, 48);stroke:rgb(48, 48, 48);"/><text class="clickable sprotty-label port" id="sprotty_ArchitectureBlockImpl$rvdff_fpga/GenerateStatementBlockImpl$null6/InstantiationBlockImpl$dffs/BPortImpl$en/label" transform="translate(6, -9) translate(7, 14)" style="cursor:default;font-size:12px;perspective-origin:0px 0px;fill:rgb(48, 48, 48);text-anchor:middle;">en</text></g><g id="sprotty_ArchitectureBlockImpl$rvdff_fpga/GenerateStatementBlockImpl$null6/InstantiationBlockImpl$dffs/BPortImpl$din" class="triangle" transform="translate(0, 38)"><path d="M 0,0 L 5,2.5 L 0,5 Z" transform="translate(-1.67, -2.5)" class="sprotty-port" style="fill:rgb(48, 48, 48);stroke:rgb(48, 48, 48);"/><text class="clickable sprotty-label port" id="sprotty_ArchitectureBlockImpl$rvdff_fpga/GenerateStatementBlockImpl$null6/InstantiationBlockImpl$dffs/BPortImpl$din/label" transform="translate(6, -9) translate(9.046875, 14)" style="cursor:default;font-size:12px;perspective-origin:0px 0px;fill:rgb(48, 48, 48);text-anchor:middle;">din</text></g><g id="sprotty_ArchitectureBlockImpl$rvdff_fpga/GenerateStatementBlockImpl$null6/InstantiationBlockImpl$dffs/BPortImpl$dout" class="triangle" transform="translate(96, 80)"><path d="M 0,0 L 5,2.5 L 0,5 Z" transform="translate(-1.67, -2.5)" class="sprotty-port" style="fill:rgb(48, 48, 48);stroke:rgb(48, 48, 48);"/><text class="clickable sprotty-label port" id="sprotty_ArchitectureBlockImpl$rvdff_fpga/GenerateStatementBlockImpl$null6/InstantiationBlockImpl$dffs/BPortImpl$dout/label" transform="translate(-32.53125, -9) translate(13.265625, 14)" style="cursor:default;font-size:12px;perspective-origin:0px 0px;fill:rgb(48, 48, 48);text-anchor:middle;">dout</text></g></g><g id="sprotty_ArchitectureBlockImpl$rvdff_fpga/GenerateStatementBlockImpl$null6/GPortImpl$rst_l" class="triangle" transform="translate(0, 179)"><path d="M 0,0 L 5,2.5 L 0,5 Z" transform="translate(-1.67, -2.5)" class="sprotty-port" style="fill:rgb(48, 48, 48);stroke:rgb(48, 48, 48);"/></g><g id="sprotty_ArchitectureBlockImpl$rvdff_fpga/GenerateStatementBlockImpl$null6/GPortImpl$rawclk" class="triangle" transform="translate(0, 151)"><path d="M 0,0 L 5,2.5 L 0,5 Z" transform="translate(-1.67, -2.5)" class="sprotty-port" style="fill:rgb(48, 48, 48);stroke:rgb(48, 48, 48);"/></g><g id="sprotty_ArchitectureBlockImpl$rvdff_fpga/GenerateStatementBlockImpl$null6/GPortImpl$clken" class="triangle" transform="translate(0, 123)"><path d="M 0,0 L 5,2.5 L 0,5 Z" transform="translate(-1.67, -2.5)" class="sprotty-port" style="fill:rgb(48, 48, 48);stroke:rgb(48, 48, 48);"/></g><g id="sprotty_ArchitectureBlockImpl$rvdff_fpga/GenerateStatementBlockImpl$null6/GPortImpl$din" class="triangle" transform="translate(0, 26)"><path d="M 0,0 L 5,2.5 L 0,5 Z" transform="translate(-1.67, -2.5)" class="sprotty-port" style="fill:rgb(48, 48, 48);stroke:rgb(48, 48, 48);"/></g><g id="sprotty_ArchitectureBlockImpl$rvdff_fpga/GenerateStatementBlockImpl$null6/GPortImpl$dout" class="triangle" transform="translate(166, 26)"><path d="M 0,0 L 5,2.5 L 0,5 Z" transform="translate(-1.67, -2.5)" class="sprotty-port" style="fill:rgb(48, 48, 48);stroke:rgb(48, 48, 48);"/></g></g><g id="sprotty_ArchitectureBlockImpl$rvdff_fpga/BPortImpl$rst_l" class="triangle" transform="translate(0, 220)"><path d="M 0,0 L 5,2.5 L 0,5 Z" transform="translate(-1.67, -2.5)" class="sprotty-port" style="fill:rgb(48, 48, 48);stroke:rgb(48, 48, 48);"/><text class="clickable sprotty-label port" id="sprotty_ArchitectureBlockImpl$rvdff_fpga/BPortImpl$rst_l/label" transform="translate(6, 6) translate(12.3125, 14)" style="cursor:default;font-size:12px;perspective-origin:0px 0px;fill:rgb(48, 48, 48);text-anchor:middle;">rst_l</text></g><g id="sprotty_ArchitectureBlockImpl$rvdff_fpga/BPortImpl$rawclk" class="triangle" transform="translate(0, 186)"><path d="M 0,0 L 5,2.5 L 0,5 Z" transform="translate(-1.67, -2.5)" class="sprotty-port" style="fill:rgb(48, 48, 48);stroke:rgb(48, 48, 48);"/><text class="clickable sprotty-label port" id="sprotty_ArchitectureBlockImpl$rvdff_fpga/BPortImpl$rawclk/label" transform="translate(6, 6) translate(18.421875, 14)" style="cursor:default;font-size:12px;perspective-origin:0.09375px 0px;fill:rgb(48, 48, 48);text-anchor:middle;">rawclk</text></g><g id="sprotty_ArchitectureBlockImpl$rvdff_fpga/BPortImpl$clken" class="triangle" transform="translate(0, 152)"><path d="M 0,0 L 5,2.5 L 0,5 Z" transform="translate(-1.67, -2.5)" class="sprotty-port" style="fill:rgb(48, 48, 48);stroke:rgb(48, 48, 48);"/><text class="clickable sprotty-label port" id="sprotty_ArchitectureBlockImpl$rvdff_fpga/BPortImpl$clken/label" transform="translate(6, 6) translate(14.953125, 14)" style="cursor:default;font-size:12px;perspective-origin:0px 0px;fill:rgb(48, 48, 48);text-anchor:middle;">clken</text></g><g id="sprotty_ArchitectureBlockImpl$rvdff_fpga/BPortImpl$clk" class="triangle" transform="translate(0, 267)"><path d="M 0,0 L 5,2.5 L 0,5 Z" transform="translate(-1.67, -2.5)" class="sprotty-port" style="fill:rgb(48, 48, 48);stroke:rgb(48, 48, 48);"/><text class="clickable sprotty-label port" id="sprotty_ArchitectureBlockImpl$rvdff_fpga/BPortImpl$clk/label" transform="translate(6, 6) translate(8.078125, 14)" style="cursor:default;font-size:12px;perspective-origin:0.09375px 0px;fill:rgb(48, 48, 48);text-anchor:middle;">clk</text></g><g id="sprotty_ArchitectureBlockImpl$rvdff_fpga/BPortImpl$din" class="triangle" transform="translate(0, 61)"><path d="M 0,0 L 5,2.5 L 0,5 Z" transform="translate(-1.67, -2.5)" class="sprotty-port" style="fill:rgb(48, 48, 48);stroke:rgb(48, 48, 48);"/><text class="clickable sprotty-label port" id="sprotty_ArchitectureBlockImpl$rvdff_fpga/BPortImpl$din/label" transform="translate(6, 6) translate(9.046875, 14)" style="cursor:default;font-size:12px;perspective-origin:0px 0px;fill:rgb(48, 48, 48);text-anchor:middle;">din</text></g><g id="sprotty_ArchitectureBlockImpl$rvdff_fpga/BPortImpl$dout" class="triangle" transform="translate(291.75, 61)"><path d="M 0,0 L 5,2.5 L 0,5 Z" transform="translate(-1.67, -2.5)" class="sprotty-port" style="fill:rgb(48, 48, 48);stroke:rgb(48, 48, 48);"/><text class="clickable sprotty-label port" id="sprotty_ArchitectureBlockImpl$rvdff_fpga/BPortImpl$dout/label" transform="translate(-32.53125, 6) translate(13.265625, 14)" style="cursor:default;font-size:12px;perspective-origin:0px 0px;fill:rgb(48, 48, 48);text-anchor:middle;">dout</text></g></g></g></svg>