<svg xmlns="http://www.w3.org/2000/svg" id="sprotty_root" class="sprotty-graph sprotty-state-machine statemachine" style="font-family:&quot;Noto Sans&quot;, Helvetica, Arial, sans-serif;perspective-origin:0px 0px;transform-origin:0px 0px;" version="1.1" viewBox="10 10 850.578125 391.611328125" width="850.578125" height="391.611328125"><g transform="scale(1) translate(0,0)"><g id="sprotty_fsm$buf_state" class="statemachine" transform="translate(15, 15)"><g class="sprotty-block" style="fill:rgb(255, 255, 255);stroke:rgb(48, 48, 48);stroke-dasharray:0px;"><rect x="0" y="0" rx="1" ry="1" width="840.578125" height="381.611328125"/><text x="420.2890625" y="12" class="sprotty-block-name" style="cursor:pointer;font-weight:700;perspective-origin:420.281px 0px;fill:rgb(48, 48, 48);stroke:rgba(0, 0, 0, 0);dominant-baseline:middle;text-anchor:middle;">buf_state</text><line x1="0" y1="20" x2="840.578125" y2="20"/></g><g id="sprotty_fsm$buf_state/state$RD" class="state" transform="translate(43.72265625, 36)"><ellipse cx="20" cy="19.75" rx="20" ry="19.75" class="sprotty-node clickable" style="fill:rgb(255, 255, 255);stroke:rgb(48, 48, 48);"/><text class="clickable sprotty-label state" id="sprotty_fsm$buf_state/state$RD/label" transform="translate(9.421875, 8) translate(10.578125, 18.5)" style="cursor:default;perspective-origin:0px 0px;fill:rgb(48, 48, 48);text-anchor:middle;">RD</text></g><g id="sprotty_fsm$buf_state/state$IDLE" class="state" transform="translate(40.109375, 270.611328125)"><ellipse cx="22.890625" cy="19.75" rx="22.890625" ry="19.75" class="sprotty-node clickable" style="fill:rgb(255, 255, 255);stroke:rgb(48, 48, 48);"/><text class="clickable sprotty-label state" id="sprotty_fsm$buf_state/state$IDLE/label" transform="translate(6, 8) translate(16.890625, 18.5)" style="cursor:default;perspective-origin:0px 0px;fill:rgb(48, 48, 48);text-anchor:middle;">IDLE</text></g><g id="sprotty_fsm$buf_state/state$WR" class="state" transform="translate(43.296875, 330.111328125)"><ellipse cx="18.109375" cy="19.75" rx="18.109375" ry="19.75" class="sprotty-node clickable" style="fill:rgb(255, 255, 255);stroke:rgb(48, 48, 48);"/><text class="clickable sprotty-label state" id="sprotty_fsm$buf_state/state$WR/label" transform="translate(6, 8) translate(12.109375, 18.5)" style="cursor:default;perspective-origin:0px 0px;fill:rgb(48, 48, 48);text-anchor:middle;">WR</text></g><g id="sprotty_fsm$buf_state/state$PEND" class="state" transform="translate(390.09375, 153.341796875)"><ellipse cx="27.046875" cy="19.75" rx="27.046875" ry="19.75" class="sprotty-node clickable" style="fill:rgb(255, 255, 255);stroke:rgb(48, 48, 48);"/><text class="clickable sprotty-label state" id="sprotty_fsm$buf_state/state$PEND/label" transform="translate(6, 8) translate(21.046875, 18.5)" style="cursor:default;perspective-origin:0px 0px;fill:rgb(48, 48, 48);text-anchor:middle;">PEND</text></g><g id="sprotty_fsm$buf_state/state$IDLE_to_fsm$buf_state/state$WR" class="sprotty-edge transition" style="fill:none;stroke:rgb(48, 48, 48);stroke-linejoin:round;"><g><path d=" M55.36979166666667,310.111328125 C55.369791666666686,310.111328125 55.369791666666686,320.111328125 55.369791666666664,330.111328125"/><path d=" M55.36979166666667,310.111328125 C55.369791666666686,310.111328125 55.369791666666686,320.111328125 55.369791666666664,330.111328125" class="clickable"/></g><path d="M 55.369791666666664,330.111328125 L 62.369791666666664,327.611328125 L 62.369791666666664,332.611328125 Z" transform="rotate(-89.9999999999999 55.369791666666664 330.111328125)" class="arrow" style="fill:rgb(48, 48, 48);stroke-linejoin:miter;stroke-miterlimit:2;"/></g><g id="sprotty_fsm$buf_state/state$IDLE_to_fsm$buf_state/state$RD" class="sprotty-edge transition" style="fill:none;stroke:rgb(48, 48, 48);stroke-linejoin:round;"><g><path d=" M51.5546875,270.611328125 C12,253.4765625 12,244.90917968749997 12,237.8338216145833 C12,230.75846354166663 12,225.17513020833331 12,219.59179687499997 C12,214.00846354166666 12,208.42513020833334 12,195.716796875 C12,183.00846354166669 12,163.17513020833331 12,150.466796875 C12,137.75846354166666 12,132.17513020833331 12,126.591796875 C12,121.00846354166666 12,115.42513020833333 12,108.34073893229166 C12,101.25634765625 12,92.6708984375 53.72265625,75.5"/><path d=" M51.5546875,270.611328125 C12,253.4765625 12,244.90917968749997 12,237.8338216145833 C12,230.75846354166663 12,225.17513020833331 12,219.59179687499997 C12,214.00846354166666 12,208.42513020833334 12,195.716796875 C12,183.00846354166669 12,163.17513020833331 12,150.466796875 C12,137.75846354166666 12,132.17513020833331 12,126.591796875 C12,121.00846354166666 12,115.42513020833333 12,108.34073893229166 C12,101.25634765625 12,92.6708984375 53.72265625,75.5" class="clickable"/></g><path d="M 53.72265625,75.5 L 60.72265625,73 L 60.72265625,78 Z" transform="rotate(157.63045542811622 53.72265625 75.5)" class="arrow" style="fill:rgb(48, 48, 48);stroke-linejoin:miter;stroke-miterlimit:2;"/></g><g id="sprotty_fsm$buf_state/state$WR_to_fsm$buf_state/state$IDLE" class="sprotty-edge transition" style="fill:none;stroke:rgb(48, 48, 48);stroke-linejoin:round;"><g><path d=" M67.44270833333333,330.111328125 C69.03645833333331,320.111328125 70.63020833333331,310.111328125 70.63020833333334,310.111328125"/><path d=" M67.44270833333333,330.111328125 C69.03645833333331,320.111328125 70.63020833333331,310.111328125 70.63020833333334,310.111328125" class="clickable"/></g><path d="M 70.63020833333334,310.111328125 L 77.63020833333334,307.611328125 L 77.63020833333334,312.611328125 Z" transform="rotate(99.05535750808535 70.63020833333334 310.111328125)" class="arrow" style="fill:rgb(48, 48, 48);stroke-linejoin:miter;stroke-miterlimit:2;"/></g><g id="sprotty_fsm$buf_state/state$RD_to_fsm$buf_state/state$IDLE" class="sprotty-edge transition" style="fill:none;stroke:rgb(48, 48, 48);stroke-linejoin:round;"><g><path d=" M63.72265625,75.5 C63,92.6708984375 63,101.25634765625 63,108.34073893229166 C63,115.42513020833334 63,121.00846354166667 63,126.59179687499999 C63,132.17513020833331 63,137.75846354166663 63,150.466796875 C63,163.17513020833334 63,183.00846354166666 63,197.14469401041663 C63,211.28092447916666 63,219.72005208333331 63,230.26896158854163 C63,240.81787109374997 63,253.4765625 63,270.611328125"/><path d=" M63.72265625,75.5 C63,92.6708984375 63,101.25634765625 63,108.34073893229166 C63,115.42513020833334 63,121.00846354166667 63,126.59179687499999 C63,132.17513020833331 63,137.75846354166663 63,150.466796875 C63,163.17513020833334 63,183.00846354166666 63,197.14469401041663 C63,211.28092447916666 63,219.72005208333331 63,230.26896158854163 C63,240.81787109374997 63,253.4765625 63,270.611328125" class="clickable"/></g><path d="M 63,270.611328125 L 70,268.111328125 L 70,273.111328125 Z" transform="rotate(-90 63 270.611328125)" class="arrow" style="fill:rgb(48, 48, 48);stroke-linejoin:miter;stroke-miterlimit:2;"/><text class="clickable sprotty-label transition" id="sprotty_fsm$buf_state/state$RD_to_fsm$buf_state/state$IDLE/label0" transform="translate(70, 161.341796875) translate(147.546875, 18.5)" style="cursor:default;perspective-origin:0px 0px;fill:rgb(48, 48, 48);stroke:none;text-anchor:middle;">If error go to idle, else wait for read data</text></g><g id="sprotty_fsm$buf_state/state$RD_to_fsm$buf_state/state$PEND" class="sprotty-edge transition" style="fill:none;stroke:rgb(48, 48, 48);stroke-linejoin:round;"><g><path d=" M73.72265625,75.5 C417.140625,92.6708984375 417.140625,101.25634765625 417.140625,108.34073893229166 C417.140625,115.42513020833334 417.140625,121.00846354166667 417.140625,127.98763020833331 C417.140625,134.96679687499997 417.140625,143.341796875 417.140625,153.341796875"/><path d=" M73.72265625,75.5 C417.140625,92.6708984375 417.140625,101.25634765625 417.140625,108.34073893229166 C417.140625,115.42513020833334 417.140625,121.00846354166667 417.140625,127.98763020833331 C417.140625,134.96679687499997 417.140625,143.341796875 417.140625,153.341796875" class="clickable"/></g><path d="M 417.140625,153.341796875 L 424.140625,150.841796875 L 424.140625,155.841796875 Z" transform="rotate(-90 417.140625 153.341796875)" class="arrow" style="fill:rgb(48, 48, 48);stroke-linejoin:miter;stroke-miterlimit:2;"/><text class="clickable sprotty-label transition" id="sprotty_fsm$buf_state/state$RD_to_fsm$buf_state/state$PEND/label0" transform="translate(424.140625, 109.841796875) translate(147.546875, 18.5)" style="cursor:default;perspective-origin:0px 0px;fill:rgb(48, 48, 48);stroke:none;text-anchor:middle;">If error go to idle, else wait for read data</text></g><g id="sprotty_fsm$buf_state/state$PEND_to_fsm$buf_state/state$IDLE" class="sprotty-edge transition" style="fill:none;stroke:rgb(48, 48, 48);stroke-linejoin:round;"><g><path d=" M417.140625,192.841796875 C417.140625,202.841796875 417.140625,211.216796875 417.140625,218.19596354166666 C417.140625,225.17513020833334 417.140625,230.75846354166666 417.140625,237.8338216145833 C417.140625,244.90917968749997 417.140625,253.4765625 74.4453125,270.611328125"/><path d=" M417.140625,192.841796875 C417.140625,202.841796875 417.140625,211.216796875 417.140625,218.19596354166666 C417.140625,225.17513020833334 417.140625,230.75846354166666 417.140625,237.8338216145833 C417.140625,244.90917968749997 417.140625,253.4765625 74.4453125,270.611328125" class="clickable"/></g><path d="M 74.4453125,270.611328125 L 81.4453125,268.111328125 L 81.4453125,273.111328125 Z" transform="rotate(-2.8624052261117474 74.4453125 270.611328125)" class="arrow" style="fill:rgb(48, 48, 48);stroke-linejoin:miter;stroke-miterlimit:2;"/><text class="clickable sprotty-label transition" id="sprotty_fsm$buf_state/state$PEND_to_fsm$buf_state/state$IDLE/label0" transform="translate(424.140625, 212.841796875) translate(202.21875, 18.5)" style="cursor:default;perspective-origin:0px 0px;fill:rgb(48, 48, 48);stroke:none;text-anchor:middle;">go back for next command and present data next cycle</text></g></g></g></svg>