<svg xmlns="http://www.w3.org/2000/svg" id="sprotty_root" class="sprotty-graph sprotty-state-machine statemachine" style="font-family:&quot;Noto Sans&quot;, Helvetica, Arial, sans-serif;perspective-origin:0px 0px;transform-origin:0px 0px;" version="1.1" viewBox="10 10 850.578125 394.611328125" width="850.578125" height="394.611328125"><g transform="scale(1) translate(0,0)"><g id="sprotty_fsm$buf_state" class="statemachine" transform="translate(15, 15)"><g class="sprotty-block" style="fill:rgb(255, 255, 255);stroke:rgb(48, 48, 48);stroke-dasharray:0px;"><rect x="0" y="0" rx="1" ry="1" width="840.578125" height="384.611328125"/><text x="420.2890625" y="12" class="sprotty-block-name" style="cursor:pointer;font-weight:700;perspective-origin:420.281px 0px;fill:rgb(48, 48, 48);stroke:rgba(0, 0, 0, 0);dominant-baseline:middle;text-anchor:middle;">buf_state</text><line x1="0" y1="20" x2="840.578125" y2="20"/></g><g id="sprotty_fsm$buf_state/state$RD" class="state" transform="translate(43.72265625, 36)"><ellipse cx="20" cy="20" rx="20" ry="20" class="sprotty-node clickable" style="fill:rgb(255, 255, 255);stroke:rgb(48, 48, 48);"/><text class="clickable sprotty-label state" id="sprotty_fsm$buf_state/state$RD/label" transform="translate(9.421875, 8) translate(10.578125, 19)" style="cursor:default;perspective-origin:0px 0px;fill:rgb(48, 48, 48);text-anchor:middle;">RD</text></g><g id="sprotty_fsm$buf_state/state$IDLE" class="state" transform="translate(40.109375, 272.611328125)"><ellipse cx="22.890625" cy="20" rx="22.890625" ry="20" class="sprotty-node clickable" style="fill:rgb(255, 255, 255);stroke:rgb(48, 48, 48);"/><text class="clickable sprotty-label state" id="sprotty_fsm$buf_state/state$IDLE/label" transform="translate(6, 8) translate(16.890625, 19)" style="cursor:default;perspective-origin:0px 0px;fill:rgb(48, 48, 48);text-anchor:middle;">IDLE</text></g><g id="sprotty_fsm$buf_state/state$WR" class="state" transform="translate(43.296875, 332.611328125)"><ellipse cx="18.109375" cy="20" rx="18.109375" ry="20" class="sprotty-node clickable" style="fill:rgb(255, 255, 255);stroke:rgb(48, 48, 48);"/><text class="clickable sprotty-label state" id="sprotty_fsm$buf_state/state$WR/label" transform="translate(6, 8) translate(12.109375, 19)" style="cursor:default;perspective-origin:0px 0px;fill:rgb(48, 48, 48);text-anchor:middle;">WR</text></g><g id="sprotty_fsm$buf_state/state$PEND" class="state" transform="translate(390.09375, 154.341796875)"><ellipse cx="27.046875" cy="20" rx="27.046875" ry="20" class="sprotty-node clickable" style="fill:rgb(255, 255, 255);stroke:rgb(48, 48, 48);"/><text class="clickable sprotty-label state" id="sprotty_fsm$buf_state/state$PEND/label" transform="translate(6, 8) translate(21.046875, 19)" style="cursor:default;perspective-origin:0px 0px;fill:rgb(48, 48, 48);text-anchor:middle;">PEND</text></g><g id="sprotty_fsm$buf_state/state$IDLE_to_fsm$buf_state/state$WR" class="sprotty-edge transition" style="fill:none;stroke:rgb(48, 48, 48);stroke-linejoin:round;"><g><path d=" M55.36979166666667,312.611328125 C55.369791666666686,312.611328125 55.369791666666686,322.611328125 55.369791666666664,332.611328125"/><path d=" M55.36979166666667,312.611328125 C55.369791666666686,312.611328125 55.369791666666686,322.611328125 55.369791666666664,332.611328125" class="clickable"/></g><path d="M 55.369791666666664,332.611328125 L 62.369791666666664,330.111328125 L 62.369791666666664,335.111328125 Z" transform="rotate(-89.9999999999999 55.369791666666664 332.611328125)" class="arrow" style="fill:rgb(48, 48, 48);stroke-linejoin:miter;stroke-miterlimit:2;"/></g><g id="sprotty_fsm$buf_state/state$IDLE_to_fsm$buf_state/state$RD" class="sprotty-edge transition" style="fill:none;stroke:rgb(48, 48, 48);stroke-linejoin:round;"><g><path d=" M51.5546875,272.611328125 C12,255.4765625 12,246.9091796875 12,239.79215494791663 C12,232.67513020833331 12,227.00846354166666 12,221.341796875 C12,215.67513020833334 12,210.00846354166669 12,197.17513020833334 C12,184.341796875 12,164.341796875 12,151.50846354166663 C12,138.67513020833331 12,133.00846354166669 12,127.341796875 C12,121.67513020833333 12,116.00846354166666 12,108.88240559895831 C12,101.75634765625 12,93.1708984375 53.72265625,76"/><path d=" M51.5546875,272.611328125 C12,255.4765625 12,246.9091796875 12,239.79215494791663 C12,232.67513020833331 12,227.00846354166666 12,221.341796875 C12,215.67513020833334 12,210.00846354166669 12,197.17513020833334 C12,184.341796875 12,164.341796875 12,151.50846354166663 C12,138.67513020833331 12,133.00846354166669 12,127.341796875 C12,121.67513020833333 12,116.00846354166666 12,108.88240559895831 C12,101.75634765625 12,93.1708984375 53.72265625,76" class="clickable"/></g><path d="M 53.72265625,76 L 60.72265625,73.5 L 60.72265625,78.5 Z" transform="rotate(157.63045542811622 53.72265625 76)" class="arrow" style="fill:rgb(48, 48, 48);stroke-linejoin:miter;stroke-miterlimit:2;"/></g><g id="sprotty_fsm$buf_state/state$WR_to_fsm$buf_state/state$IDLE" class="sprotty-edge transition" style="fill:none;stroke:rgb(48, 48, 48);stroke-linejoin:round;"><g><path d=" M67.44270833333333,332.611328125 C69.03645833333331,322.611328125 70.63020833333331,312.611328125 70.63020833333334,312.611328125"/><path d=" M67.44270833333333,332.611328125 C69.03645833333331,322.611328125 70.63020833333331,312.611328125 70.63020833333334,312.611328125" class="clickable"/></g><path d="M 70.63020833333334,312.611328125 L 77.63020833333334,310.111328125 L 77.63020833333334,315.111328125 Z" transform="rotate(99.05535750808535 70.63020833333334 312.611328125)" class="arrow" style="fill:rgb(48, 48, 48);stroke-linejoin:miter;stroke-miterlimit:2;"/></g><g id="sprotty_fsm$buf_state/state$RD_to_fsm$buf_state/state$IDLE" class="sprotty-edge transition" style="fill:none;stroke:rgb(48, 48, 48);stroke-linejoin:round;"><g><path d=" M63.72265625,76 C63,93.1708984375 63,101.75634765625 63,108.88240559895834 C63,116.00846354166667 63,121.67513020833333 63,127.34179687499999 C63,133.00846354166666 63,138.67513020833331 63,151.50846354166666 C63,164.341796875 63,184.34179687499997 63,198.60302734374997 C63,212.8642578125 63,221.38671875 63,232.03979492187497 C63,242.69287109375003 63,255.4765625 63,272.611328125"/><path d=" M63.72265625,76 C63,93.1708984375 63,101.75634765625 63,108.88240559895834 C63,116.00846354166667 63,121.67513020833333 63,127.34179687499999 C63,133.00846354166666 63,138.67513020833331 63,151.50846354166666 C63,164.341796875 63,184.34179687499997 63,198.60302734374997 C63,212.8642578125 63,221.38671875 63,232.03979492187497 C63,242.69287109375003 63,255.4765625 63,272.611328125" class="clickable"/></g><path d="M 63,272.611328125 L 70,270.111328125 L 70,275.111328125 Z" transform="rotate(-90 63 272.611328125)" class="arrow" style="fill:rgb(48, 48, 48);stroke-linejoin:miter;stroke-miterlimit:2;"/><text class="clickable sprotty-label transition" id="sprotty_fsm$buf_state/state$RD_to_fsm$buf_state/state$IDLE/label0" transform="translate(70, 162.341796875) translate(147.546875, 19)" style="cursor:default;perspective-origin:0px 0px;fill:rgb(48, 48, 48);stroke:none;text-anchor:middle;">If error go to idle, else wait for read data</text></g><g id="sprotty_fsm$buf_state/state$RD_to_fsm$buf_state/state$PEND" class="sprotty-edge transition" style="fill:none;stroke:rgb(48, 48, 48);stroke-linejoin:round;"><g><path d=" M73.72265625,76 C417.140625,93.1708984375 417.140625,101.75634765625 417.140625,108.88240559895834 C417.140625,116.00846354166667 417.140625,121.67513020833333 417.140625,128.75846354166666 C417.140625,135.841796875 417.140625,144.341796875 417.140625,154.341796875"/><path d=" M73.72265625,76 C417.140625,93.1708984375 417.140625,101.75634765625 417.140625,108.88240559895834 C417.140625,116.00846354166667 417.140625,121.67513020833333 417.140625,128.75846354166666 C417.140625,135.841796875 417.140625,144.341796875 417.140625,154.341796875" class="clickable"/></g><path d="M 417.140625,154.341796875 L 424.140625,151.841796875 L 424.140625,156.841796875 Z" transform="rotate(-90 417.140625 154.341796875)" class="arrow" style="fill:rgb(48, 48, 48);stroke-linejoin:miter;stroke-miterlimit:2;"/><text class="clickable sprotty-label transition" id="sprotty_fsm$buf_state/state$RD_to_fsm$buf_state/state$PEND/label0" transform="translate(424.140625, 110.341796875) translate(147.546875, 19)" style="cursor:default;perspective-origin:0px 0px;fill:rgb(48, 48, 48);stroke:none;text-anchor:middle;">If error go to idle, else wait for read data</text></g><g id="sprotty_fsm$buf_state/state$PEND_to_fsm$buf_state/state$IDLE" class="sprotty-edge transition" style="fill:none;stroke:rgb(48, 48, 48);stroke-linejoin:round;"><g><path d=" M417.140625,194.341796875 C417.140625,204.341796875 417.140625,212.841796875 417.140625,219.92513020833334 C417.140625,227.00846354166669 417.140625,232.67513020833331 417.140625,239.79215494791666 C417.140625,246.9091796875 417.140625,255.4765625 74.4453125,272.611328125"/><path d=" M417.140625,194.341796875 C417.140625,204.341796875 417.140625,212.841796875 417.140625,219.92513020833334 C417.140625,227.00846354166669 417.140625,232.67513020833331 417.140625,239.79215494791666 C417.140625,246.9091796875 417.140625,255.4765625 74.4453125,272.611328125" class="clickable"/></g><path d="M 74.4453125,272.611328125 L 81.4453125,270.111328125 L 81.4453125,275.111328125 Z" transform="rotate(-2.8624052261117474 74.4453125 272.611328125)" class="arrow" style="fill:rgb(48, 48, 48);stroke-linejoin:miter;stroke-miterlimit:2;"/><text class="clickable sprotty-label transition" id="sprotty_fsm$buf_state/state$PEND_to_fsm$buf_state/state$IDLE/label0" transform="translate(424.140625, 214.341796875) translate(202.21875, 19)" style="cursor:default;perspective-origin:0px 0px;fill:rgb(48, 48, 48);stroke:none;text-anchor:middle;">go back for next command and present data next cycle</text></g></g></g></svg>