<svg xmlns="http://www.w3.org/2000/svg" id="sprotty_root" class="sprotty-graph sprotty-state-machine statemachine" style="font-family:&quot;Noto Sans&quot;, Helvetica, Arial, sans-serif;perspective-origin:0px 0px;transform-origin:0px 0px;" version="1.1" viewBox="10 10 716.9296875 546.9809895833334" width="716.9296875" height="546.9809895833334"><g transform="scale(1) translate(0,0)"><g id="sprotty_fsm$buf_state" class="statemachine" transform="translate(15, 15)"><g class="sprotty-block" style="fill:rgb(255, 255, 255);stroke:rgb(48, 48, 48);stroke-dasharray:0px;"><rect x="0" y="0" rx="1" ry="1" width="706.9296875" height="536.9809895833334"/><text x="353.46484375" y="12" class="sprotty-block-name" style="cursor:pointer;font-weight:700;perspective-origin:353.453px 0px;fill:rgb(48, 48, 48);stroke:rgba(0, 0, 0, 0);dominant-baseline:middle;text-anchor:middle;">buf_state</text><line x1="0" y1="20" x2="706.9296875" y2="20"/></g><g id="sprotty_fsm$buf_state/state$DATA_WR" class="state" transform="translate(611.6484375, 287.4984375)"><ellipse cx="41.640625" cy="20" rx="41.640625" ry="20" class="sprotty-node clickable" style="fill:rgb(255, 255, 255);stroke:rgb(48, 48, 48);"/><text class="clickable sprotty-label state" id="sprotty_fsm$buf_state/state$DATA_WR/label" transform="translate(6, 8) translate(35.640625, 19)" style="cursor:default;perspective-origin:0px 0px;fill:rgb(48, 48, 48);text-anchor:middle;">DATA_WR</text></g><g id="sprotty_fsm$buf_state/state$CMD_WR" class="state" transform="translate(317.3802083333333, 484.9809895833334)"><ellipse cx="39.6875" cy="20" rx="39.6875" ry="20" class="sprotty-node clickable" style="fill:rgb(255, 255, 255);stroke:rgb(48, 48, 48);"/><text class="clickable sprotty-label state" id="sprotty_fsm$buf_state/state$CMD_WR/label" transform="translate(6, 8) translate(33.6875, 19)" style="cursor:default;perspective-origin:0px 0px;fill:rgb(48, 48, 48);text-anchor:middle;">CMD_WR</text></g><g id="sprotty_fsm$buf_state/state$DONE" class="state" transform="translate(527.9088541666666, 347.4984375)"><ellipse cx="27.921875" cy="20" rx="27.921875" ry="20" class="sprotty-node clickable" style="fill:rgb(255, 255, 255);stroke:rgb(48, 48, 48);"/><text class="clickable sprotty-label state" id="sprotty_fsm$buf_state/state$DONE/label" transform="translate(6, 8) translate(21.921875, 19)" style="cursor:default;perspective-origin:0px 0px;fill:rgb(48, 48, 48);text-anchor:middle;">DONE</text></g><g id="sprotty_fsm$buf_state/state$CMD_RD" class="state" transform="translate(467.90625, 36)"><ellipse cx="38.15625" cy="20" rx="38.15625" ry="20" class="sprotty-node clickable" style="fill:rgb(255, 255, 255);stroke:rgb(48, 48, 48);"/><text class="clickable sprotty-label state" id="sprotty_fsm$buf_state/state$CMD_RD/label" transform="translate(6, 8) translate(32.15625, 19)" style="cursor:default;perspective-origin:0px 0px;fill:rgb(48, 48, 48);text-anchor:middle;">CMD_RD</text></g><g id="sprotty_fsm$buf_state/state$IDLE" class="state" transform="translate(274.6927083333333, 415.29375000000005)"><ellipse cx="22.890625" cy="20" rx="22.890625" ry="20" class="sprotty-node clickable" style="fill:rgb(255, 255, 255);stroke:rgb(48, 48, 48);"/><text class="clickable sprotty-label state" id="sprotty_fsm$buf_state/state$IDLE/label" transform="translate(6, 8) translate(16.890625, 19)" style="cursor:default;perspective-origin:0px 0px;fill:rgb(48, 48, 48);text-anchor:middle;">IDLE</text></g><g id="sprotty_fsm$buf_state/state$DATA_RD" class="state" transform="translate(506.3984375, 287.4984375)"><ellipse cx="40.125" cy="20" rx="40.125" ry="20" class="sprotty-node clickable" style="fill:rgb(255, 255, 255);stroke:rgb(48, 48, 48);"/><text class="clickable sprotty-label state" id="sprotty_fsm$buf_state/state$DATA_RD/label" transform="translate(6, 8) translate(34.125, 19)" style="cursor:default;perspective-origin:0px 0px;fill:rgb(48, 48, 48);text-anchor:middle;">DATA_RD</text></g><g id="sprotty_fsm$buf_state/state$STREAM_RD" class="state" transform="translate(454.484375, 123.4984375)"><ellipse cx="51.578125" cy="20" rx="51.578125" ry="20" class="sprotty-node clickable" style="fill:rgb(255, 255, 255);stroke:rgb(48, 48, 48);"/><text class="clickable sprotty-label state" id="sprotty_fsm$buf_state/state$STREAM_RD/label" transform="translate(6, 8) translate(45.578125, 19)" style="cursor:default;perspective-origin:0px 0px;fill:rgb(48, 48, 48);text-anchor:middle;">STREAM_RD</text></g><g id="sprotty_fsm$buf_state/state$STREAM_ERR_RD" class="state" transform="translate(435.140625, 227.4984375)"><ellipse cx="70.921875" cy="20" rx="70.921875" ry="20" class="sprotty-node clickable" style="fill:rgb(255, 255, 255);stroke:rgb(48, 48, 48);"/><text class="clickable sprotty-label state" id="sprotty_fsm$buf_state/state$STREAM_ERR_RD/label" transform="translate(6, 8) translate(64.921875, 19)" style="cursor:default;perspective-origin:0px 0px;fill:rgb(48, 48, 48);text-anchor:middle;">STREAM_ERR_RD</text></g><g id="sprotty_fsm$buf_state/state$IDLE_to_fsm$buf_state/state$CMD_WR" class="sprotty-edge transition" style="fill:none;stroke:rgb(48, 48, 48);stroke-linejoin:round;"><g><path d=" M297.5833333333333,455.29375000000005 C297.5833333333333,455.29375000000005 302.2088541666667,470.13736979166674 343.83854166666663,484.9809895833334"/><path d=" M297.5833333333333,455.29375000000005 C297.5833333333333,455.29375000000005 302.2088541666667,470.13736979166674 343.83854166666663,484.9809895833334" class="clickable"/></g><path d="M 343.83854166666663,484.9809895833334 L 350.83854166666663,482.4809895833334 L 350.83854166666663,487.4809895833334 Z" transform="rotate(-160.37562990138773 343.83854166666663 484.9809895833334)" class="arrow" style="fill:rgb(48, 48, 48);stroke-linejoin:miter;stroke-miterlimit:2;"/></g><g id="sprotty_fsm$buf_state/state$IDLE_to_fsm$buf_state/state$CMD_RD" class="sprotty-edge transition" style="fill:none;stroke:rgb(48, 48, 48);stroke-linejoin:round;"><g><path d=" M289.953125,415.29375000000005 C12,401.39609375000003 12,394.44726562500006 12,386.8061848958334 C12,379.16510416666665 12,370.8317708333334 12,362.4984375 C12,354.1651041666667 12,345.8317708333334 12,331.66510416666665 C12,317.49843749999997 12,297.4984375 12.000000000000002,282.4984375 C12.000000000000002,267.4984375 12.000000000000002,257.49843749999997 12.000000000000002,247.4984375 C12,237.4984375 12,227.4984375 12,215.16510416666668 C12,202.83177083333334 12,188.16510416666665 12,176.66510416666665 C12,165.16510416666668 12,156.83177083333334 12,148.49843749999997 C12,140.16510416666665 12,131.83177083333334 12,121.72779947916666 C12,111.623828125 12,99.74921875 486.984375,76"/><path d=" M289.953125,415.29375000000005 C12,401.39609375000003 12,394.44726562500006 12,386.8061848958334 C12,379.16510416666665 12,370.8317708333334 12,362.4984375 C12,354.1651041666667 12,345.8317708333334 12,331.66510416666665 C12,317.49843749999997 12,297.4984375 12.000000000000002,282.4984375 C12.000000000000002,267.4984375 12.000000000000002,257.49843749999997 12.000000000000002,247.4984375 C12,237.4984375 12,227.4984375 12,215.16510416666668 C12,202.83177083333334 12,188.16510416666665 12,176.66510416666665 C12,165.16510416666668 12,156.83177083333334 12,148.49843749999997 C12,140.16510416666665 12,131.83177083333334 12,121.72779947916666 C12,111.623828125 12,99.74921875 486.984375,76" class="clickable"/></g><path d="M 486.984375,76 L 493.984375,73.5 L 493.984375,78.5 Z" transform="rotate(177.13759477388828 486.984375 76)" class="arrow" style="fill:rgb(48, 48, 48);stroke-linejoin:miter;stroke-miterlimit:2;"/></g><g id="sprotty_fsm$buf_state/state$CMD_RD_to_fsm$buf_state/state$STREAM_RD" class="sprotty-edge transition" style="fill:none;stroke:rgb(48, 48, 48);stroke-linejoin:round;"><g><path d=" M506.0625,76 C506.0625,76 506.0625,99.74921875 506.0625,123.4984375"/><path d=" M506.0625,76 C506.0625,76 506.0625,99.74921875 506.0625,123.4984375" class="clickable"/></g><path d="M 506.0625,123.4984375 L 513.0625,120.9984375 L 513.0625,125.9984375 Z" transform="rotate(-90 506.0625 123.4984375)" class="arrow" style="fill:rgb(48, 48, 48);stroke-linejoin:miter;stroke-miterlimit:2;"/></g><g id="sprotty_fsm$buf_state/state$CMD_RD_to_fsm$buf_state/state$DATA_RD" class="sprotty-edge transition" style="fill:none;stroke:rgb(48, 48, 48);stroke-linejoin:round;"><g><path d=" M525.140625,76 C586.984375,99.74921875 586.984375,111.62382812499999 586.984375,121.72779947916663 C586.984375,131.83177083333334 586.984375,140.16510416666665 586.984375,148.49843749999997 C586.984375,156.83177083333334 586.984375,165.16510416666665 586.984375,176.66510416666665 C586.984375,188.16510416666665 586.984375,202.83177083333334 586.984375,214.3317708333333 C586.984375,225.8317708333333 586.984375,234.16510416666665 586.984375,242.49843749999997 C586.984375,250.83177083333328 586.984375,259.16510416666665 586.984375,265.8317708333333 C586.984375,272.49843749999997 586.984375,277.4984375 559.8984375,287.4984375"/><path d=" M525.140625,76 C586.984375,99.74921875 586.984375,111.62382812499999 586.984375,121.72779947916663 C586.984375,131.83177083333334 586.984375,140.16510416666665 586.984375,148.49843749999997 C586.984375,156.83177083333334 586.984375,165.16510416666665 586.984375,176.66510416666665 C586.984375,188.16510416666665 586.984375,202.83177083333334 586.984375,214.3317708333333 C586.984375,225.8317708333333 586.984375,234.16510416666665 586.984375,242.49843749999997 C586.984375,250.83177083333328 586.984375,259.16510416666665 586.984375,265.8317708333333 C586.984375,272.49843749999997 586.984375,277.4984375 559.8984375,287.4984375" class="clickable"/></g><path d="M 559.8984375,287.4984375 L 566.8984375,284.9984375 L 566.8984375,289.9984375 Z" transform="rotate(-20.2639075022432 559.8984375 287.4984375)" class="arrow" style="fill:rgb(48, 48, 48);stroke-linejoin:miter;stroke-miterlimit:2;"/></g><g id="sprotty_fsm$buf_state/state$STREAM_RD_to_fsm$buf_state/state$STREAM_ERR_RD" class="sprotty-edge transition" style="fill:none;stroke:rgb(48, 48, 48);stroke-linejoin:round;"><g><path d=" M506.0625,163.4984375 C506.0625,173.4984375 506.0625,184.4984375 506.0625,195.4984375 C506.0625,206.4984375 506.0625,217.4984375 506.0625,227.4984375"/><path d=" M506.0625,163.4984375 C506.0625,173.4984375 506.0625,184.4984375 506.0625,195.4984375 C506.0625,206.4984375 506.0625,217.4984375 506.0625,227.4984375" class="clickable"/></g><path d="M 506.0625,227.4984375 L 513.0625,224.9984375 L 513.0625,229.9984375 Z" transform="rotate(-90 506.0625 227.4984375)" class="arrow" style="fill:rgb(48, 48, 48);stroke-linejoin:miter;stroke-miterlimit:2;"/><text class="clickable sprotty-label transition" id="sprotty_fsm$buf_state/state$STREAM_RD_to_fsm$buf_state/state$STREAM_ERR_RD/label0" transform="translate(23, 183.4984375) translate(238.53125, 19)" style="cursor:default;perspective-origin:0px 0px;fill:rgb(48, 48, 48);stroke:none;text-anchor:middle;">assuming that the master accpets the slave response right away.</text></g><g id="sprotty_fsm$buf_state/state$STREAM_ERR_RD_to_fsm$buf_state/state$DATA_RD" class="sprotty-edge transition" style="fill:none;stroke:rgb(48, 48, 48);stroke-linejoin:round;"><g><path d=" M506.0625,267.4984375 C506.0625,267.4984375 508.77109375,277.4984375 533.1484375,287.4984375"/><path d=" M506.0625,267.4984375 C506.0625,267.4984375 508.77109375,277.4984375 533.1484375,287.4984375" class="clickable"/></g><path d="M 533.1484375,287.4984375 L 540.1484375,284.9984375 L 540.1484375,289.9984375 Z" transform="rotate(-157.6957293648226 533.1484375 287.4984375)" class="arrow" style="fill:rgb(48, 48, 48);stroke-linejoin:miter;stroke-miterlimit:2;"/></g><g id="sprotty_fsm$buf_state/state$DATA_RD_to_fsm$buf_state/state$DONE" class="sprotty-edge transition" style="fill:none;stroke:rgb(48, 48, 48);stroke-linejoin:round;"><g><path d=" M546.5234375,327.4984375 C546.5234375,327.4984375 546.5234375,337.4984375 546.5234375,347.4984375"/><path d=" M546.5234375,327.4984375 C546.5234375,327.4984375 546.5234375,337.4984375 546.5234375,347.4984375" class="clickable"/></g><path d="M 546.5234375,347.4984375 L 553.5234375,344.9984375 L 553.5234375,349.9984375 Z" transform="rotate(-90 546.5234375 347.4984375)" class="arrow" style="fill:rgb(48, 48, 48);stroke-linejoin:miter;stroke-miterlimit:2;"/></g><g id="sprotty_fsm$buf_state/state$CMD_WR_to_fsm$buf_state/state$DATA_WR" class="sprotty-edge transition" style="fill:none;stroke:rgb(48, 48, 48);stroke-linejoin:round;"><g><path d=" M370.296875,484.9809895833334 C667.1692708333334,470.13736979166674 667.1692708333334,462.7155598958334 667.1692708333333,450.0217122395834 C667.1692708333333,437.32786458333334 667.1692708333333,419.36197916666663 667.1692708333333,405.0542317708333 C667.1692708333333,390.746484375 667.1692708333333,380.096875 667.1692708333333,366.78486328125 C667.1692708333334,353.4728515625 667.1692708333334,337.4984375 667.1692708333334,327.4984375"/><path d=" M370.296875,484.9809895833334 C667.1692708333334,470.13736979166674 667.1692708333334,462.7155598958334 667.1692708333333,450.0217122395834 C667.1692708333333,437.32786458333334 667.1692708333333,419.36197916666663 667.1692708333333,405.0542317708333 C667.1692708333333,390.746484375 667.1692708333333,380.096875 667.1692708333333,366.78486328125 C667.1692708333334,353.4728515625 667.1692708333334,337.4984375 667.1692708333334,327.4984375" class="clickable"/></g><path d="M 667.1692708333334,327.4984375 L 674.1692708333334,324.9984375 L 674.1692708333334,329.9984375 Z" transform="rotate(90 667.1692708333334 327.4984375)" class="arrow" style="fill:rgb(48, 48, 48);stroke-linejoin:miter;stroke-miterlimit:2;"/></g><g id="sprotty_fsm$buf_state/state$DATA_WR_to_fsm$buf_state/state$DONE" class="sprotty-edge transition" style="fill:none;stroke:rgb(48, 48, 48);stroke-linejoin:round;"><g><path d=" M639.4088541666666,327.4984375 C639.4088541666666,327.4984375 602.2734375,337.4984375 565.1380208333333,347.4984375"/><path d=" M639.4088541666666,327.4984375 C639.4088541666666,327.4984375 602.2734375,337.4984375 565.1380208333333,347.4984375" class="clickable"/></g><path d="M 565.1380208333333,347.4984375 L 572.1380208333333,344.9984375 L 572.1380208333333,349.9984375 Z" transform="rotate(-15.071369951035525 565.1380208333333 347.4984375)" class="arrow" style="fill:rgb(48, 48, 48);stroke-linejoin:miter;stroke-miterlimit:2;"/></g><g id="sprotty_fsm$buf_state/state$DONE_to_fsm$buf_state/state$IDLE" class="sprotty-edge transition" style="fill:none;stroke:rgb(48, 48, 48);stroke-linejoin:round;"><g><path d=" M555.8307291666666,387.4984375 C555.8307291666666,387.4984375 530.7690104166666,401.39609375000003 305.21354166666663,415.29375000000005"/><path d=" M555.8307291666666,387.4984375 C555.8307291666666,387.4984375 530.7690104166666,401.39609375000003 305.21354166666663,415.29375000000005" class="clickable"/></g><path d="M 305.21354166666663,415.29375000000005 L 312.21354166666663,412.79375000000005 L 312.21354166666663,417.79375000000005 Z" transform="rotate(-3.5258363249523734 305.21354166666663 415.29375000000005)" class="arrow" style="fill:rgb(48, 48, 48);stroke-linejoin:miter;stroke-miterlimit:2;"/></g></g></g></svg>