<svg xmlns="http://www.w3.org/2000/svg" id="sprotty_root" class="sprotty-graph sprotty-state-machine statemachine" style="font-family:&quot;Noto Sans&quot;, Helvetica, Arial, sans-serif;perspective-origin:0px 0px;transform-origin:0px 0px;" version="1.1" viewBox="10 10 716.9296875 542.9809895833334" width="716.9296875" height="542.9809895833334"><g transform="scale(1) translate(0,0)"><g id="sprotty_fsm$buf_state" class="statemachine" transform="translate(15, 15)"><g class="sprotty-block" style="fill:rgb(255, 255, 255);stroke:rgb(48, 48, 48);stroke-dasharray:0px;"><rect x="0" y="0" rx="1" ry="1" width="706.9296875" height="532.9809895833334"/><text x="353.46484375" y="12" class="sprotty-block-name" style="cursor:pointer;font-weight:700;perspective-origin:353.453px 0px;fill:rgb(48, 48, 48);stroke:rgba(0, 0, 0, 0);dominant-baseline:middle;text-anchor:middle;">buf_state</text><line x1="0" y1="20" x2="706.9296875" y2="20"/></g><g id="sprotty_fsm$buf_state/state$DATA_WR" class="state" transform="translate(611.6484375, 285.4984375)"><ellipse cx="41.640625" cy="19.75" rx="41.640625" ry="19.75" class="sprotty-node clickable" style="fill:rgb(255, 255, 255);stroke:rgb(48, 48, 48);"/><text class="clickable sprotty-label state" id="sprotty_fsm$buf_state/state$DATA_WR/label" transform="translate(6, 8) translate(35.640625, 18.5)" style="cursor:default;perspective-origin:0px 0px;fill:rgb(48, 48, 48);text-anchor:middle;">DATA_WR</text></g><g id="sprotty_fsm$buf_state/state$CMD_WR" class="state" transform="translate(317.3802083333333, 481.4809895833334)"><ellipse cx="39.6875" cy="19.75" rx="39.6875" ry="19.75" class="sprotty-node clickable" style="fill:rgb(255, 255, 255);stroke:rgb(48, 48, 48);"/><text class="clickable sprotty-label state" id="sprotty_fsm$buf_state/state$CMD_WR/label" transform="translate(6, 8) translate(33.6875, 18.5)" style="cursor:default;perspective-origin:0px 0px;fill:rgb(48, 48, 48);text-anchor:middle;">CMD_WR</text></g><g id="sprotty_fsm$buf_state/state$DONE" class="state" transform="translate(527.9088541666666, 344.9984375)"><ellipse cx="27.921875" cy="19.75" rx="27.921875" ry="19.75" class="sprotty-node clickable" style="fill:rgb(255, 255, 255);stroke:rgb(48, 48, 48);"/><text class="clickable sprotty-label state" id="sprotty_fsm$buf_state/state$DONE/label" transform="translate(6, 8) translate(21.921875, 18.5)" style="cursor:default;perspective-origin:0px 0px;fill:rgb(48, 48, 48);text-anchor:middle;">DONE</text></g><g id="sprotty_fsm$buf_state/state$CMD_RD" class="state" transform="translate(467.90625, 36)"><ellipse cx="38.15625" cy="19.75" rx="38.15625" ry="19.75" class="sprotty-node clickable" style="fill:rgb(255, 255, 255);stroke:rgb(48, 48, 48);"/><text class="clickable sprotty-label state" id="sprotty_fsm$buf_state/state$CMD_RD/label" transform="translate(6, 8) translate(32.15625, 18.5)" style="cursor:default;perspective-origin:0px 0px;fill:rgb(48, 48, 48);text-anchor:middle;">CMD_RD</text></g><g id="sprotty_fsm$buf_state/state$IDLE" class="state" transform="translate(274.6927083333333, 412.29375000000005)"><ellipse cx="22.890625" cy="19.75" rx="22.890625" ry="19.75" class="sprotty-node clickable" style="fill:rgb(255, 255, 255);stroke:rgb(48, 48, 48);"/><text class="clickable sprotty-label state" id="sprotty_fsm$buf_state/state$IDLE/label" transform="translate(6, 8) translate(16.890625, 18.5)" style="cursor:default;perspective-origin:0px 0px;fill:rgb(48, 48, 48);text-anchor:middle;">IDLE</text></g><g id="sprotty_fsm$buf_state/state$DATA_RD" class="state" transform="translate(506.3984375, 285.4984375)"><ellipse cx="40.125" cy="19.75" rx="40.125" ry="19.75" class="sprotty-node clickable" style="fill:rgb(255, 255, 255);stroke:rgb(48, 48, 48);"/><text class="clickable sprotty-label state" id="sprotty_fsm$buf_state/state$DATA_RD/label" transform="translate(6, 8) translate(34.125, 18.5)" style="cursor:default;perspective-origin:0px 0px;fill:rgb(48, 48, 48);text-anchor:middle;">DATA_RD</text></g><g id="sprotty_fsm$buf_state/state$STREAM_RD" class="state" transform="translate(454.484375, 122.9984375)"><ellipse cx="51.578125" cy="19.75" rx="51.578125" ry="19.75" class="sprotty-node clickable" style="fill:rgb(255, 255, 255);stroke:rgb(48, 48, 48);"/><text class="clickable sprotty-label state" id="sprotty_fsm$buf_state/state$STREAM_RD/label" transform="translate(6, 8) translate(45.578125, 18.5)" style="cursor:default;perspective-origin:0px 0px;fill:rgb(48, 48, 48);text-anchor:middle;">STREAM_RD</text></g><g id="sprotty_fsm$buf_state/state$STREAM_ERR_RD" class="state" transform="translate(435.140625, 225.9984375)"><ellipse cx="70.921875" cy="19.75" rx="70.921875" ry="19.75" class="sprotty-node clickable" style="fill:rgb(255, 255, 255);stroke:rgb(48, 48, 48);"/><text class="clickable sprotty-label state" id="sprotty_fsm$buf_state/state$STREAM_ERR_RD/label" transform="translate(6, 8) translate(64.921875, 18.5)" style="cursor:default;perspective-origin:0px 0px;fill:rgb(48, 48, 48);text-anchor:middle;">STREAM_ERR_RD</text></g><g id="sprotty_fsm$buf_state/state$IDLE_to_fsm$buf_state/state$CMD_WR" class="sprotty-edge transition" style="fill:none;stroke:rgb(48, 48, 48);stroke-linejoin:round;"><g><path d=" M297.5833333333333,451.79375000000005 C297.5833333333333,451.79375000000005 302.2088541666667,466.63736979166674 343.83854166666663,481.4809895833334"/><path d=" M297.5833333333333,451.79375000000005 C297.5833333333333,451.79375000000005 302.2088541666667,466.63736979166674 343.83854166666663,481.4809895833334" class="clickable"/></g><path d="M 343.83854166666663,481.4809895833334 L 350.83854166666663,478.9809895833334 L 350.83854166666663,483.9809895833334 Z" transform="rotate(-160.37562990138773 343.83854166666663 481.4809895833334)" class="arrow" style="fill:rgb(48, 48, 48);stroke-linejoin:miter;stroke-miterlimit:2;"/></g><g id="sprotty_fsm$buf_state/state$IDLE_to_fsm$buf_state/state$CMD_RD" class="sprotty-edge transition" style="fill:none;stroke:rgb(48, 48, 48);stroke-linejoin:round;"><g><path d=" M289.953125,412.29375000000005 C12,398.39609375000003 12,391.447265625 12,383.8478515625 C12,376.2484375000001 12,367.9984375000001 12,359.74843749999997 C12,351.4984375 12,343.2484375000001 12,329.20677083333334 C12,315.16510416666665 12,295.33177083333334 12.000000000000002,280.45677083333334 C12.000000000000002,265.58177083333334 12.000000000000002,255.66510416666665 12.000000000000002,245.74843750000002 C12,235.83177083333334 12,225.91510416666668 12,213.70677083333337 C12,201.49843750000002 12,186.99843750000002 12,175.62343750000002 C12,164.24843750000002 12,155.99843750000002 12,147.74843750000002 C12,139.4984375 12,131.24843750000002 12,121.1861328125 C12,111.123828125 12,99.24921875 486.984375,75.5"/><path d=" M289.953125,412.29375000000005 C12,398.39609375000003 12,391.447265625 12,383.8478515625 C12,376.2484375000001 12,367.9984375000001 12,359.74843749999997 C12,351.4984375 12,343.2484375000001 12,329.20677083333334 C12,315.16510416666665 12,295.33177083333334 12.000000000000002,280.45677083333334 C12.000000000000002,265.58177083333334 12.000000000000002,255.66510416666665 12.000000000000002,245.74843750000002 C12,235.83177083333334 12,225.91510416666668 12,213.70677083333337 C12,201.49843750000002 12,186.99843750000002 12,175.62343750000002 C12,164.24843750000002 12,155.99843750000002 12,147.74843750000002 C12,139.4984375 12,131.24843750000002 12,121.1861328125 C12,111.123828125 12,99.24921875 486.984375,75.5" class="clickable"/></g><path d="M 486.984375,75.5 L 493.984375,73 L 493.984375,78 Z" transform="rotate(177.13759477388828 486.984375 75.5)" class="arrow" style="fill:rgb(48, 48, 48);stroke-linejoin:miter;stroke-miterlimit:2;"/></g><g id="sprotty_fsm$buf_state/state$CMD_RD_to_fsm$buf_state/state$STREAM_RD" class="sprotty-edge transition" style="fill:none;stroke:rgb(48, 48, 48);stroke-linejoin:round;"><g><path d=" M506.0625,75.5 C506.0625,75.5 506.0625,99.24921875 506.0625,122.9984375"/><path d=" M506.0625,75.5 C506.0625,75.5 506.0625,99.24921875 506.0625,122.9984375" class="clickable"/></g><path d="M 506.0625,122.9984375 L 513.0625,120.4984375 L 513.0625,125.4984375 Z" transform="rotate(-90 506.0625 122.9984375)" class="arrow" style="fill:rgb(48, 48, 48);stroke-linejoin:miter;stroke-miterlimit:2;"/></g><g id="sprotty_fsm$buf_state/state$CMD_RD_to_fsm$buf_state/state$DATA_RD" class="sprotty-edge transition" style="fill:none;stroke:rgb(48, 48, 48);stroke-linejoin:round;"><g><path d=" M525.140625,75.5 C586.984375,99.24921875 586.984375,111.12382812499999 586.984375,121.18613281249999 C586.984375,131.2484375 586.984375,139.4984375 586.984375,147.7484375 C586.984375,155.99843750000002 586.984375,164.24843750000002 586.984375,175.62343750000002 C586.984375,186.9984375 586.984375,201.49843749999997 586.984375,212.87343749999997 C586.984375,224.2484375 586.984375,232.49843750000002 586.984375,240.74843749999997 C586.984375,248.99843749999997 586.984375,257.24843749999997 586.984375,263.8734374999999 C586.984375,270.49843749999997 586.984375,275.4984375 559.8984375,285.4984375"/><path d=" M525.140625,75.5 C586.984375,99.24921875 586.984375,111.12382812499999 586.984375,121.18613281249999 C586.984375,131.2484375 586.984375,139.4984375 586.984375,147.7484375 C586.984375,155.99843750000002 586.984375,164.24843750000002 586.984375,175.62343750000002 C586.984375,186.9984375 586.984375,201.49843749999997 586.984375,212.87343749999997 C586.984375,224.2484375 586.984375,232.49843750000002 586.984375,240.74843749999997 C586.984375,248.99843749999997 586.984375,257.24843749999997 586.984375,263.8734374999999 C586.984375,270.49843749999997 586.984375,275.4984375 559.8984375,285.4984375" class="clickable"/></g><path d="M 559.8984375,285.4984375 L 566.8984375,282.9984375 L 566.8984375,287.9984375 Z" transform="rotate(-20.2639075022432 559.8984375 285.4984375)" class="arrow" style="fill:rgb(48, 48, 48);stroke-linejoin:miter;stroke-miterlimit:2;"/></g><g id="sprotty_fsm$buf_state/state$STREAM_RD_to_fsm$buf_state/state$STREAM_ERR_RD" class="sprotty-edge transition" style="fill:none;stroke:rgb(48, 48, 48);stroke-linejoin:round;"><g><path d=" M506.0625,162.4984375 C506.0625,172.4984375 506.0625,183.3734375 506.0625,194.2484375 C506.0625,205.1234375 506.0625,215.9984375 506.0625,225.9984375"/><path d=" M506.0625,162.4984375 C506.0625,172.4984375 506.0625,183.3734375 506.0625,194.2484375 C506.0625,205.1234375 506.0625,215.9984375 506.0625,225.9984375" class="clickable"/></g><path d="M 506.0625,225.9984375 L 513.0625,223.4984375 L 513.0625,228.4984375 Z" transform="rotate(-90 506.0625 225.9984375)" class="arrow" style="fill:rgb(48, 48, 48);stroke-linejoin:miter;stroke-miterlimit:2;"/><text class="clickable sprotty-label transition" id="sprotty_fsm$buf_state/state$STREAM_RD_to_fsm$buf_state/state$STREAM_ERR_RD/label0" transform="translate(23, 182.4984375) translate(238.53125, 18.5)" style="cursor:default;perspective-origin:0px 0px;fill:rgb(48, 48, 48);stroke:none;text-anchor:middle;">assuming that the master accpets the slave response right away.</text></g><g id="sprotty_fsm$buf_state/state$STREAM_ERR_RD_to_fsm$buf_state/state$DATA_RD" class="sprotty-edge transition" style="fill:none;stroke:rgb(48, 48, 48);stroke-linejoin:round;"><g><path d=" M506.0625,265.4984375 C506.0625,265.4984375 508.77109375,275.4984375 533.1484375,285.4984375"/><path d=" M506.0625,265.4984375 C506.0625,265.4984375 508.77109375,275.4984375 533.1484375,285.4984375" class="clickable"/></g><path d="M 533.1484375,285.4984375 L 540.1484375,282.9984375 L 540.1484375,287.9984375 Z" transform="rotate(-157.6957293648226 533.1484375 285.4984375)" class="arrow" style="fill:rgb(48, 48, 48);stroke-linejoin:miter;stroke-miterlimit:2;"/></g><g id="sprotty_fsm$buf_state/state$DATA_RD_to_fsm$buf_state/state$DONE" class="sprotty-edge transition" style="fill:none;stroke:rgb(48, 48, 48);stroke-linejoin:round;"><g><path d=" M546.5234375,324.9984375 C546.5234375,324.9984375 546.5234375,334.9984375 546.5234375,344.9984375"/><path d=" M546.5234375,324.9984375 C546.5234375,324.9984375 546.5234375,334.9984375 546.5234375,344.9984375" class="clickable"/></g><path d="M 546.5234375,344.9984375 L 553.5234375,342.4984375 L 553.5234375,347.4984375 Z" transform="rotate(-90 546.5234375 344.9984375)" class="arrow" style="fill:rgb(48, 48, 48);stroke-linejoin:miter;stroke-miterlimit:2;"/></g><g id="sprotty_fsm$buf_state/state$CMD_WR_to_fsm$buf_state/state$DATA_WR" class="sprotty-edge transition" style="fill:none;stroke:rgb(48, 48, 48);stroke-linejoin:round;"><g><path d=" M370.296875,481.4809895833334 C667.1692708333334,466.63736979166674 667.1692708333334,459.2155598958334 667.1692708333333,446.6050455729167 C667.1692708333333,433.99453125 667.1692708333333,416.1953125 667.1692708333333,402.0125651041667 C667.1692708333333,387.8298177083334 667.1692708333333,377.2635416666667 667.1692708333333,364.0556966145833 C667.1692708333334,350.8478515625 667.1692708333334,334.9984375 667.1692708333334,324.9984375"/><path d=" M370.296875,481.4809895833334 C667.1692708333334,466.63736979166674 667.1692708333334,459.2155598958334 667.1692708333333,446.6050455729167 C667.1692708333333,433.99453125 667.1692708333333,416.1953125 667.1692708333333,402.0125651041667 C667.1692708333333,387.8298177083334 667.1692708333333,377.2635416666667 667.1692708333333,364.0556966145833 C667.1692708333334,350.8478515625 667.1692708333334,334.9984375 667.1692708333334,324.9984375" class="clickable"/></g><path d="M 667.1692708333334,324.9984375 L 674.1692708333334,322.4984375 L 674.1692708333334,327.4984375 Z" transform="rotate(90 667.1692708333334 324.9984375)" class="arrow" style="fill:rgb(48, 48, 48);stroke-linejoin:miter;stroke-miterlimit:2;"/></g><g id="sprotty_fsm$buf_state/state$DATA_WR_to_fsm$buf_state/state$DONE" class="sprotty-edge transition" style="fill:none;stroke:rgb(48, 48, 48);stroke-linejoin:round;"><g><path d=" M639.4088541666666,324.9984375 C639.4088541666666,324.9984375 602.2734375,334.9984375 565.1380208333333,344.9984375"/><path d=" M639.4088541666666,324.9984375 C639.4088541666666,324.9984375 602.2734375,334.9984375 565.1380208333333,344.9984375" class="clickable"/></g><path d="M 565.1380208333333,344.9984375 L 572.1380208333333,342.4984375 L 572.1380208333333,347.4984375 Z" transform="rotate(-15.071369951035525 565.1380208333333 344.9984375)" class="arrow" style="fill:rgb(48, 48, 48);stroke-linejoin:miter;stroke-miterlimit:2;"/></g><g id="sprotty_fsm$buf_state/state$DONE_to_fsm$buf_state/state$IDLE" class="sprotty-edge transition" style="fill:none;stroke:rgb(48, 48, 48);stroke-linejoin:round;"><g><path d=" M555.8307291666666,384.4984375 C555.8307291666666,384.4984375 530.7690104166666,398.39609375000003 305.21354166666663,412.29375000000005"/><path d=" M555.8307291666666,384.4984375 C555.8307291666666,384.4984375 530.7690104166666,398.39609375000003 305.21354166666663,412.29375000000005" class="clickable"/></g><path d="M 305.21354166666663,412.29375000000005 L 312.21354166666663,409.79375000000005 L 312.21354166666663,414.79375000000005 Z" transform="rotate(-3.5258363249523734 305.21354166666663 412.29375000000005)" class="arrow" style="fill:rgb(48, 48, 48);stroke-linejoin:miter;stroke-miterlimit:2;"/></g></g></g></svg>