<svg xmlns="http://www.w3.org/2000/svg" id="sprotty_root" class="sprotty-graph sprotty-state-machine statemachine" style="font-family:&quot;Noto Sans&quot;, Helvetica, Arial, sans-serif;perspective-origin:0px 0px;transform-origin:0px 0px;" version="1.1" viewBox="10 10 1254.0885416666665 406.67291666666665" width="1254.0885416666665" height="406.67291666666665"><g transform="scale(1) translate(0,0)"><g id="sprotty_fsm$dbg_state" class="statemachine" transform="translate(15, 15)"><g class="sprotty-block" style="fill:rgb(255, 255, 255);stroke:rgb(48, 48, 48);stroke-dasharray:0px;"><rect x="0" y="0" rx="1" ry="1" width="1244.0885416666665" height="396.67291666666665"/><text x="622.0442708333333" y="12" class="sprotty-block-name" style="cursor:pointer;font-weight:700;perspective-origin:622.031px 0px;fill:rgb(48, 48, 48);stroke:rgba(0, 0, 0, 0);dominant-baseline:middle;text-anchor:middle;">dbg_state</text><line x1="0" y1="20" x2="1244.0885416666665" y2="20"/></g><g id="sprotty_fsm$dbg_state/state$HALTING" class="state" transform="translate(847.1822916666666, 198.5)"><ellipse cx="38.375" cy="19.75" rx="38.375" ry="19.75" class="sprotty-node clickable" style="fill:rgb(255, 255, 255);stroke:rgb(48, 48, 48);"/><text class="clickable sprotty-label state" id="sprotty_fsm$dbg_state/state$HALTING/label" transform="translate(6, 8) translate(32.375, 18.5)" style="cursor:default;perspective-origin:0px 0px;fill:rgb(48, 48, 48);text-anchor:middle;">HALTING</text></g><g id="sprotty_fsm$dbg_state/state$CMD_WAIT" class="state" transform="translate(201.3125, 198.5)"><ellipse cx="46.59375" cy="19.75" rx="46.59375" ry="19.75" class="sprotty-node clickable" style="fill:rgb(255, 255, 255);stroke:rgb(48, 48, 48);"/><text class="clickable sprotty-label state" id="sprotty_fsm$dbg_state/state$CMD_WAIT/label" transform="translate(6, 8) translate(40.59375, 18.5)" style="cursor:default;perspective-origin:0px 0px;fill:rgb(48, 48, 48);text-anchor:middle;">CMD_WAIT</text></g><g id="sprotty_fsm$dbg_state/state$HALTED" class="state" transform="translate(850.6197916666666, 345.17291666666665)"><ellipse cx="34.9375" cy="19.75" rx="34.9375" ry="19.75" class="sprotty-node clickable" style="fill:rgb(255, 255, 255);stroke:rgb(48, 48, 48);"/><text class="clickable sprotty-label state" id="sprotty_fsm$dbg_state/state$HALTED/label" transform="translate(6, 8) translate(28.9375, 18.5)" style="cursor:default;perspective-origin:0px 0px;fill:rgb(48, 48, 48);text-anchor:middle;">HALTED</text></g><g id="sprotty_fsm$dbg_state/state$CMD_DONE" class="state" transform="translate(341.875, 258)"><ellipse cx="49.484375" cy="19.75" rx="49.484375" ry="19.75" class="sprotty-node clickable" style="fill:rgb(255, 255, 255);stroke:rgb(48, 48, 48);"/><text class="clickable sprotty-label state" id="sprotty_fsm$dbg_state/state$CMD_DONE/label" transform="translate(6, 8) translate(43.484375, 18.5)" style="cursor:default;perspective-origin:0px 0px;fill:rgb(48, 48, 48);text-anchor:middle;">CMD_DONE</text></g><g id="sprotty_fsm$dbg_state/state$IDLE" class="state" transform="translate(894.3541666666666, 95.5)"><ellipse cx="22.890625" cy="19.75" rx="22.890625" ry="19.75" class="sprotty-node clickable" style="fill:rgb(255, 255, 255);stroke:rgb(48, 48, 48);"/><text class="clickable sprotty-label state" id="sprotty_fsm$dbg_state/state$IDLE/label" transform="translate(6, 8) translate(16.890625, 18.5)" style="cursor:default;perspective-origin:0px 0px;fill:rgb(48, 48, 48);text-anchor:middle;">IDLE</text></g><g id="sprotty_fsm$dbg_state/state$RESUMING" class="state" transform="translate(870.7760416666666, 36)"><ellipse cx="46.46875" cy="19.75" rx="46.46875" ry="19.75" class="sprotty-node clickable" style="fill:rgb(255, 255, 255);stroke:rgb(48, 48, 48);"/><text class="clickable sprotty-label state" id="sprotty_fsm$dbg_state/state$RESUMING/label" transform="translate(6, 8) translate(40.46875, 18.5)" style="cursor:default;perspective-origin:0px 0px;fill:rgb(48, 48, 48);text-anchor:middle;">RESUMING</text></g><g id="sprotty_fsm$dbg_state/state$CMD_START" class="state" transform="translate(340.140625, 95.5)"><ellipse cx="51.21875" cy="19.75" rx="51.21875" ry="19.75" class="sprotty-node clickable" style="fill:rgb(255, 255, 255);stroke:rgb(48, 48, 48);"/><text class="clickable sprotty-label state" id="sprotty_fsm$dbg_state/state$CMD_START/label" transform="translate(6, 8) translate(45.21875, 18.5)" style="cursor:default;perspective-origin:0px 0px;fill:rgb(48, 48, 48);text-anchor:middle;">CMD_START</text></g><g id="sprotty_fsm$dbg_state/state$IDLE_to_fsm$dbg_state/state$HALTED" class="sprotty-edge transition" style="fill:none;stroke:rgb(48, 48, 48);stroke-linejoin:round;"><g><path d=" M924.875,135 C948.9322916666666,145 948.9322916666665,150 948.9322916666665,155.29166666666666 C948.9322916666665,160.58333333333331 948.9322916666665,166.16666666666666 948.9322916666665,171.74999999999997 C948.9322916666665,177.33333333333334 948.9322916666665,182.91666666666666 948.9322916666665,195.62499999999997 C948.9322916666666,208.33333333333331 948.9322916666666,228.16666666666666 948.9322916666666,242.20833333333331 C948.9322916666665,256.25 948.9322916666665,264.5 948.9322916666665,272.75 C948.9322916666666,281 948.9322916666665,289.25 948.9322916666664,299.3341145833333 C948.9322916666665,309.41822916666666 948.9322916666666,321.3364583333333 903.0260416666666,345.17291666666665"/><path d=" M924.875,135 C948.9322916666666,145 948.9322916666665,150 948.9322916666665,155.29166666666666 C948.9322916666665,160.58333333333331 948.9322916666665,166.16666666666666 948.9322916666665,171.74999999999997 C948.9322916666665,177.33333333333334 948.9322916666665,182.91666666666666 948.9322916666665,195.62499999999997 C948.9322916666666,208.33333333333331 948.9322916666666,228.16666666666666 948.9322916666666,242.20833333333331 C948.9322916666665,256.25 948.9322916666665,264.5 948.9322916666665,272.75 C948.9322916666666,281 948.9322916666665,289.25 948.9322916666664,299.3341145833333 C948.9322916666665,309.41822916666666 948.9322916666666,321.3364583333333 903.0260416666666,345.17291666666665" class="clickable"/></g><path d="M 903.0260416666666,345.17291666666665 L 910.0260416666666,342.67291666666665 L 910.0260416666666,347.67291666666665 Z" transform="rotate(-27.440239960571027 903.0260416666666 345.17291666666665)" class="arrow" style="fill:rgb(48, 48, 48);stroke-linejoin:miter;stroke-miterlimit:2;"/><text class="clickable sprotty-label transition" id="sprotty_fsm$dbg_state/state$IDLE_to_fsm$dbg_state/state$HALTED/label0" transform="translate(955.9322916666666, 206.5) translate(138.078125, 18.5)" style="cursor:default;perspective-origin:0px 0px;fill:rgb(48, 48, 48);stroke:none;text-anchor:middle;">initiate the halt command to the core</text></g><g id="sprotty_fsm$dbg_state/state$IDLE_to_fsm$dbg_state/state$HALTING" class="sprotty-edge transition" style="fill:none;stroke:rgb(48, 48, 48);stroke-linejoin:round;"><g><path d=" M909.6145833333333,135 C885.5572916666666,145 885.5572916666665,150 885.5572916666665,155.29166666666666 C885.5572916666666,160.58333333333334 885.5572916666664,166.16666666666666 885.5572916666664,173.14583333333331 C885.5572916666664,180.125 885.5572916666666,188.5 885.5572916666666,198.5"/><path d=" M909.6145833333333,135 C885.5572916666666,145 885.5572916666665,150 885.5572916666665,155.29166666666666 C885.5572916666666,160.58333333333334 885.5572916666664,166.16666666666666 885.5572916666664,173.14583333333331 C885.5572916666664,180.125 885.5572916666666,188.5 885.5572916666666,198.5" class="clickable"/></g><path d="M 885.5572916666666,198.5 L 892.5572916666666,196 L 892.5572916666666,201 Z" transform="rotate(-90 885.5572916666666 198.5)" class="arrow" style="fill:rgb(48, 48, 48);stroke-linejoin:miter;stroke-miterlimit:2;"/><text class="clickable sprotty-label transition" id="sprotty_fsm$dbg_state/state$IDLE_to_fsm$dbg_state/state$HALTING/label0" transform="translate(603.4010416666666, 155) translate(138.078125, 18.5)" style="cursor:default;perspective-origin:0px 0px;fill:rgb(48, 48, 48);stroke:none;text-anchor:middle;">initiate the halt command to the core</text></g><g id="sprotty_fsm$dbg_state/state$HALTING_to_fsm$dbg_state/state$HALTED" class="sprotty-edge transition" style="fill:none;stroke:rgb(48, 48, 48);stroke-linejoin:round;"><g><path d=" M885.5572916666666,238 C885.5572916666666,248 885.5572916666666,266.3341145833333 885.5572916666666,284.66822916666666 C885.5572916666666,303.00234375 885.5572916666666,321.3364583333333 885.5572916666666,345.17291666666665"/><path d=" M885.5572916666666,238 C885.5572916666666,248 885.5572916666666,266.3341145833333 885.5572916666666,284.66822916666666 C885.5572916666666,303.00234375 885.5572916666666,321.3364583333333 885.5572916666666,345.17291666666665" class="clickable"/></g><path d="M 885.5572916666666,345.17291666666665 L 892.5572916666666,342.67291666666665 L 892.5572916666666,347.67291666666665 Z" transform="rotate(-90 885.5572916666666 345.17291666666665)" class="arrow" style="fill:rgb(48, 48, 48);stroke-linejoin:miter;stroke-miterlimit:2;"/><text class="clickable sprotty-label transition" id="sprotty_fsm$dbg_state/state$HALTING_to_fsm$dbg_state/state$HALTED/label0" transform="translate(575.2135416666666, 266) translate(152.171875, 18.5)" style="cursor:default;perspective-origin:0px 0px;fill:rgb(48, 48, 48);stroke:none;text-anchor:middle;">Goto HALTED once the core sends an ACK</text></g><g id="sprotty_fsm$dbg_state/state$CMD_START_to_fsm$dbg_state/state$CMD_DONE" class="sprotty-edge transition" style="fill:none;stroke:rgb(48, 48, 48);stroke-linejoin:round;"><g><path d=" M408.43229166666663,135 C534.8125,145 534.8125,150 534.8125000000001,155.29166666666669 C534.8125,160.58333333333334 534.8125,166.16666666666666 534.8125,171.75 C534.8125,177.33333333333334 534.8125,182.91666666666666 534.8125000000001,193.95833333333331 C534.8125,205 534.8125000000001,221.5 534.8125000000001,232.25000000000003 C534.8125,243.00000000000003 534.8125,248 407.85416666666663,258"/><path d=" M408.43229166666663,135 C534.8125,145 534.8125,150 534.8125000000001,155.29166666666669 C534.8125,160.58333333333334 534.8125,166.16666666666666 534.8125,171.75 C534.8125,177.33333333333334 534.8125,182.91666666666666 534.8125000000001,193.95833333333331 C534.8125,205 534.8125000000001,221.5 534.8125000000001,232.25000000000003 C534.8125,243.00000000000003 534.8125,248 407.85416666666663,258" class="clickable"/></g><path d="M 407.85416666666663,258 L 414.85416666666663,255.5 L 414.85416666666663,260.5 Z" transform="rotate(-4.5036609954092555 407.85416666666663 258)" class="arrow" style="fill:rgb(48, 48, 48);stroke-linejoin:miter;stroke-miterlimit:2;"/><text class="clickable sprotty-label transition" id="sprotty_fsm$dbg_state/state$CMD_START_to_fsm$dbg_state/state$CMD_DONE/label0" transform="translate(298.90625, 155) translate(114.953125, 18.5)" style="cursor:default;perspective-origin:0px 0px;fill:rgb(48, 48, 48);stroke:none;text-anchor:middle;">new command sent to the core</text></g><g id="sprotty_fsm$dbg_state/state$CMD_START_to_fsm$dbg_state/state$CMD_WAIT" class="sprotty-edge transition" style="fill:none;stroke:rgb(48, 48, 48);stroke-linejoin:round;"><g><path d=" M374.2864583333333,135 C247.90625,145 247.90625,150 247.90625,155.29166666666666 C247.90625000000003,160.58333333333334 247.90624999999997,166.16666666666666 247.90624999999997,173.14583333333331 C247.90624999999997,180.125 247.90625,188.5 247.90625,198.5"/><path d=" M374.2864583333333,135 C247.90625,145 247.90625,150 247.90625,155.29166666666666 C247.90625000000003,160.58333333333334 247.90624999999997,166.16666666666666 247.90624999999997,173.14583333333331 C247.90624999999997,180.125 247.90625,188.5 247.90625,198.5" class="clickable"/></g><path d="M 247.90625,198.5 L 254.90625,196 L 254.90625,201 Z" transform="rotate(-90 247.90625 198.5)" class="arrow" style="fill:rgb(48, 48, 48);stroke-linejoin:miter;stroke-miterlimit:2;"/><text class="clickable sprotty-label transition" id="sprotty_fsm$dbg_state/state$CMD_START_to_fsm$dbg_state/state$CMD_WAIT/label0" transform="translate(12, 155) translate(114.953125, 18.5)" style="cursor:default;perspective-origin:0px 0px;fill:rgb(48, 48, 48);stroke:none;text-anchor:middle;">new command sent to the core</text></g><g id="sprotty_fsm$dbg_state/state$CMD_WAIT_to_fsm$dbg_state/state$CMD_DONE" class="sprotty-edge transition" style="fill:none;stroke:rgb(48, 48, 48);stroke-linejoin:round;"><g><path d=" M247.90625,238 C247.90625,238 260.6020833333333,248 374.8645833333333,258"/><path d=" M247.90625,238 C247.90625,238 260.6020833333333,248 374.8645833333333,258" class="clickable"/></g><path d="M 374.8645833333333,258 L 381.8645833333333,255.5 L 381.8645833333333,260.5 Z" transform="rotate(-174.99834459317333 374.8645833333333 258)" class="arrow" style="fill:rgb(48, 48, 48);stroke-linejoin:miter;stroke-miterlimit:2;"/></g><g id="sprotty_fsm$dbg_state/state$CMD_DONE_to_fsm$dbg_state/state$HALTED" class="sprotty-edge transition" style="fill:none;stroke:rgb(48, 48, 48);stroke-linejoin:round;"><g><path d=" M391.359375,297.5 C391.359375,297.5 439.0322916666667,321.3364583333333 868.0885416666666,345.17291666666665"/><path d=" M391.359375,297.5 C391.359375,297.5 439.0322916666667,321.3364583333333 868.0885416666666,345.17291666666665" class="clickable"/></g><path d="M 868.0885416666666,345.17291666666665 L 875.0885416666666,342.67291666666665 L 875.0885416666666,347.67291666666665 Z" transform="rotate(-176.82016988013578 868.0885416666666 345.17291666666665)" class="arrow" style="fill:rgb(48, 48, 48);stroke-linejoin:miter;stroke-miterlimit:2;"/></g><g id="sprotty_fsm$dbg_state/state$RESUMING_to_fsm$dbg_state/state$IDLE" class="sprotty-edge transition" style="fill:none;stroke:rgb(48, 48, 48);stroke-linejoin:round;"><g><path d=" M917.2447916666666,75.5 C917.2447916666666,75.5 917.2447916666666,85.5 917.2447916666666,95.5"/><path d=" M917.2447916666666,75.5 C917.2447916666666,75.5 917.2447916666666,85.5 917.2447916666666,95.5" class="clickable"/></g><path d="M 917.2447916666666,95.5 L 924.2447916666666,93 L 924.2447916666666,98 Z" transform="rotate(-90 917.2447916666666 95.5)" class="arrow" style="fill:rgb(48, 48, 48);stroke-linejoin:miter;stroke-miterlimit:2;"/></g></g></g></svg>