<svg xmlns="http://www.w3.org/2000/svg" id="sprotty_root" class="sprotty-graph sprotty-state-machine statemachine" style="font-family:&quot;Noto Sans&quot;, Helvetica, Arial, sans-serif;perspective-origin:0px 0px;transform-origin:0px 0px;" version="1.1" viewBox="10 10 1254.0885416666665 409.67291666666665" width="1254.0885416666665" height="409.67291666666665"><g transform="scale(1) translate(0,0)"><g id="sprotty_fsm$dbg_state" class="statemachine" transform="translate(15, 15)"><g class="sprotty-block" style="fill:rgb(255, 255, 255);stroke:rgb(48, 48, 48);stroke-dasharray:0px;"><rect x="0" y="0" rx="1" ry="1" width="1244.0885416666665" height="399.67291666666665"/><text x="622.0442708333333" y="12" class="sprotty-block-name" style="cursor:pointer;font-weight:700;perspective-origin:622.031px 0px;fill:rgb(48, 48, 48);stroke:rgba(0, 0, 0, 0);dominant-baseline:middle;text-anchor:middle;">dbg_state</text><line x1="0" y1="20" x2="1244.0885416666665" y2="20"/></g><g id="sprotty_fsm$dbg_state/state$HALTING" class="state" transform="translate(847.1822916666666, 200)"><ellipse cx="38.375" cy="20" rx="38.375" ry="20" class="sprotty-node clickable" style="fill:rgb(255, 255, 255);stroke:rgb(48, 48, 48);"/><text class="clickable sprotty-label state" id="sprotty_fsm$dbg_state/state$HALTING/label" transform="translate(6, 8) translate(32.375, 19)" style="cursor:default;perspective-origin:0px 0px;fill:rgb(48, 48, 48);text-anchor:middle;">HALTING</text></g><g id="sprotty_fsm$dbg_state/state$CMD_WAIT" class="state" transform="translate(201.3125, 200)"><ellipse cx="46.59375" cy="20" rx="46.59375" ry="20" class="sprotty-node clickable" style="fill:rgb(255, 255, 255);stroke:rgb(48, 48, 48);"/><text class="clickable sprotty-label state" id="sprotty_fsm$dbg_state/state$CMD_WAIT/label" transform="translate(6, 8) translate(40.59375, 19)" style="cursor:default;perspective-origin:0px 0px;fill:rgb(48, 48, 48);text-anchor:middle;">CMD_WAIT</text></g><g id="sprotty_fsm$dbg_state/state$HALTED" class="state" transform="translate(850.6197916666666, 347.67291666666665)"><ellipse cx="34.9375" cy="20" rx="34.9375" ry="20" class="sprotty-node clickable" style="fill:rgb(255, 255, 255);stroke:rgb(48, 48, 48);"/><text class="clickable sprotty-label state" id="sprotty_fsm$dbg_state/state$HALTED/label" transform="translate(6, 8) translate(28.9375, 19)" style="cursor:default;perspective-origin:0px 0px;fill:rgb(48, 48, 48);text-anchor:middle;">HALTED</text></g><g id="sprotty_fsm$dbg_state/state$CMD_DONE" class="state" transform="translate(341.875, 260)"><ellipse cx="49.484375" cy="20" rx="49.484375" ry="20" class="sprotty-node clickable" style="fill:rgb(255, 255, 255);stroke:rgb(48, 48, 48);"/><text class="clickable sprotty-label state" id="sprotty_fsm$dbg_state/state$CMD_DONE/label" transform="translate(6, 8) translate(43.484375, 19)" style="cursor:default;perspective-origin:0px 0px;fill:rgb(48, 48, 48);text-anchor:middle;">CMD_DONE</text></g><g id="sprotty_fsm$dbg_state/state$IDLE" class="state" transform="translate(894.3541666666666, 96)"><ellipse cx="22.890625" cy="20" rx="22.890625" ry="20" class="sprotty-node clickable" style="fill:rgb(255, 255, 255);stroke:rgb(48, 48, 48);"/><text class="clickable sprotty-label state" id="sprotty_fsm$dbg_state/state$IDLE/label" transform="translate(6, 8) translate(16.890625, 19)" style="cursor:default;perspective-origin:0px 0px;fill:rgb(48, 48, 48);text-anchor:middle;">IDLE</text></g><g id="sprotty_fsm$dbg_state/state$RESUMING" class="state" transform="translate(870.7760416666666, 36)"><ellipse cx="46.46875" cy="20" rx="46.46875" ry="20" class="sprotty-node clickable" style="fill:rgb(255, 255, 255);stroke:rgb(48, 48, 48);"/><text class="clickable sprotty-label state" id="sprotty_fsm$dbg_state/state$RESUMING/label" transform="translate(6, 8) translate(40.46875, 19)" style="cursor:default;perspective-origin:0px 0px;fill:rgb(48, 48, 48);text-anchor:middle;">RESUMING</text></g><g id="sprotty_fsm$dbg_state/state$CMD_START" class="state" transform="translate(340.140625, 96)"><ellipse cx="51.21875" cy="20" rx="51.21875" ry="20" class="sprotty-node clickable" style="fill:rgb(255, 255, 255);stroke:rgb(48, 48, 48);"/><text class="clickable sprotty-label state" id="sprotty_fsm$dbg_state/state$CMD_START/label" transform="translate(6, 8) translate(45.21875, 19)" style="cursor:default;perspective-origin:0px 0px;fill:rgb(48, 48, 48);text-anchor:middle;">CMD_START</text></g><g id="sprotty_fsm$dbg_state/state$IDLE_to_fsm$dbg_state/state$HALTED" class="sprotty-edge transition" style="fill:none;stroke:rgb(48, 48, 48);stroke-linejoin:round;"><g><path d=" M924.875,136 C948.9322916666666,146 948.9322916666665,151 948.9322916666665,156.33333333333331 C948.9322916666665,161.66666666666669 948.9322916666665,167.33333333333331 948.9322916666665,173 C948.9322916666665,178.66666666666666 948.9322916666665,184.33333333333331 948.9322916666665,197.16666666666663 C948.9322916666666,210 948.9322916666666,229.99999999999997 948.9322916666666,244.16666666666666 C948.9322916666665,258.3333333333333 948.9322916666665,266.66666666666663 948.9322916666665,275 C948.9322916666666,283.3333333333333 948.9322916666665,291.66666666666663 948.9322916666664,301.7924479166666 C948.9322916666665,311.91822916666666 948.9322916666666,323.8364583333333 903.0260416666666,347.67291666666665"/><path d=" M924.875,136 C948.9322916666666,146 948.9322916666665,151 948.9322916666665,156.33333333333331 C948.9322916666665,161.66666666666669 948.9322916666665,167.33333333333331 948.9322916666665,173 C948.9322916666665,178.66666666666666 948.9322916666665,184.33333333333331 948.9322916666665,197.16666666666663 C948.9322916666666,210 948.9322916666666,229.99999999999997 948.9322916666666,244.16666666666666 C948.9322916666665,258.3333333333333 948.9322916666665,266.66666666666663 948.9322916666665,275 C948.9322916666666,283.3333333333333 948.9322916666665,291.66666666666663 948.9322916666664,301.7924479166666 C948.9322916666665,311.91822916666666 948.9322916666666,323.8364583333333 903.0260416666666,347.67291666666665" class="clickable"/></g><path d="M 903.0260416666666,347.67291666666665 L 910.0260416666666,345.17291666666665 L 910.0260416666666,350.17291666666665 Z" transform="rotate(-27.440239960571027 903.0260416666666 347.67291666666665)" class="arrow" style="fill:rgb(48, 48, 48);stroke-linejoin:miter;stroke-miterlimit:2;"/><text class="clickable sprotty-label transition" id="sprotty_fsm$dbg_state/state$IDLE_to_fsm$dbg_state/state$HALTED/label0" transform="translate(955.9322916666666, 208) translate(138.078125, 19)" style="cursor:default;perspective-origin:0px 0px;fill:rgb(48, 48, 48);stroke:none;text-anchor:middle;">initiate the halt command to the core</text></g><g id="sprotty_fsm$dbg_state/state$IDLE_to_fsm$dbg_state/state$HALTING" class="sprotty-edge transition" style="fill:none;stroke:rgb(48, 48, 48);stroke-linejoin:round;"><g><path d=" M909.6145833333333,136 C885.5572916666666,146 885.5572916666665,151 885.5572916666665,156.33333333333334 C885.5572916666666,161.66666666666669 885.5572916666664,167.33333333333334 885.5572916666664,174.41666666666663 C885.5572916666664,181.49999999999997 885.5572916666666,190 885.5572916666666,200"/><path d=" M909.6145833333333,136 C885.5572916666666,146 885.5572916666665,151 885.5572916666665,156.33333333333334 C885.5572916666666,161.66666666666669 885.5572916666664,167.33333333333334 885.5572916666664,174.41666666666663 C885.5572916666664,181.49999999999997 885.5572916666666,190 885.5572916666666,200" class="clickable"/></g><path d="M 885.5572916666666,200 L 892.5572916666666,197.5 L 892.5572916666666,202.5 Z" transform="rotate(-90 885.5572916666666 200)" class="arrow" style="fill:rgb(48, 48, 48);stroke-linejoin:miter;stroke-miterlimit:2;"/><text class="clickable sprotty-label transition" id="sprotty_fsm$dbg_state/state$IDLE_to_fsm$dbg_state/state$HALTING/label0" transform="translate(603.4010416666666, 156) translate(138.078125, 19)" style="cursor:default;perspective-origin:0px 0px;fill:rgb(48, 48, 48);stroke:none;text-anchor:middle;">initiate the halt command to the core</text></g><g id="sprotty_fsm$dbg_state/state$HALTING_to_fsm$dbg_state/state$HALTED" class="sprotty-edge transition" style="fill:none;stroke:rgb(48, 48, 48);stroke-linejoin:round;"><g><path d=" M885.5572916666666,240 C885.5572916666666,250 885.5572916666666,268.4591145833333 885.5572916666666,286.91822916666666 C885.5572916666666,305.37734375 885.5572916666666,323.8364583333333 885.5572916666666,347.67291666666665"/><path d=" M885.5572916666666,240 C885.5572916666666,250 885.5572916666666,268.4591145833333 885.5572916666666,286.91822916666666 C885.5572916666666,305.37734375 885.5572916666666,323.8364583333333 885.5572916666666,347.67291666666665" class="clickable"/></g><path d="M 885.5572916666666,347.67291666666665 L 892.5572916666666,345.17291666666665 L 892.5572916666666,350.17291666666665 Z" transform="rotate(-90 885.5572916666666 347.67291666666665)" class="arrow" style="fill:rgb(48, 48, 48);stroke-linejoin:miter;stroke-miterlimit:2;"/><text class="clickable sprotty-label transition" id="sprotty_fsm$dbg_state/state$HALTING_to_fsm$dbg_state/state$HALTED/label0" transform="translate(575.2135416666666, 268) translate(152.171875, 19)" style="cursor:default;perspective-origin:0px 0px;fill:rgb(48, 48, 48);stroke:none;text-anchor:middle;">Goto HALTED once the core sends an ACK</text></g><g id="sprotty_fsm$dbg_state/state$CMD_START_to_fsm$dbg_state/state$CMD_DONE" class="sprotty-edge transition" style="fill:none;stroke:rgb(48, 48, 48);stroke-linejoin:round;"><g><path d=" M408.43229166666663,136 C534.8125,146 534.8125,151 534.8125000000001,156.33333333333331 C534.8125,161.66666666666666 534.8125,167.33333333333331 534.8125,172.99999999999997 C534.8125,178.66666666666666 534.8125,184.33333333333334 534.8125000000001,195.5 C534.8125,206.66666666666666 534.8125000000001,223.33333333333334 534.8125000000001,234.16666666666669 C534.8125,245 534.8125,250 407.85416666666663,260"/><path d=" M408.43229166666663,136 C534.8125,146 534.8125,151 534.8125000000001,156.33333333333331 C534.8125,161.66666666666666 534.8125,167.33333333333331 534.8125,172.99999999999997 C534.8125,178.66666666666666 534.8125,184.33333333333334 534.8125000000001,195.5 C534.8125,206.66666666666666 534.8125000000001,223.33333333333334 534.8125000000001,234.16666666666669 C534.8125,245 534.8125,250 407.85416666666663,260" class="clickable"/></g><path d="M 407.85416666666663,260 L 414.85416666666663,257.5 L 414.85416666666663,262.5 Z" transform="rotate(-4.5036609954092555 407.85416666666663 260)" class="arrow" style="fill:rgb(48, 48, 48);stroke-linejoin:miter;stroke-miterlimit:2;"/><text class="clickable sprotty-label transition" id="sprotty_fsm$dbg_state/state$CMD_START_to_fsm$dbg_state/state$CMD_DONE/label0" transform="translate(298.90625, 156) translate(114.953125, 19)" style="cursor:default;perspective-origin:0px 0px;fill:rgb(48, 48, 48);stroke:none;text-anchor:middle;">new command sent to the core</text></g><g id="sprotty_fsm$dbg_state/state$CMD_START_to_fsm$dbg_state/state$CMD_WAIT" class="sprotty-edge transition" style="fill:none;stroke:rgb(48, 48, 48);stroke-linejoin:round;"><g><path d=" M374.2864583333333,136 C247.90625,146 247.90625,151 247.90625,156.33333333333334 C247.90625000000003,161.66666666666669 247.90624999999997,167.33333333333334 247.90624999999997,174.41666666666663 C247.90624999999997,181.49999999999997 247.90625,190 247.90625,200"/><path d=" M374.2864583333333,136 C247.90625,146 247.90625,151 247.90625,156.33333333333334 C247.90625000000003,161.66666666666669 247.90624999999997,167.33333333333334 247.90624999999997,174.41666666666663 C247.90624999999997,181.49999999999997 247.90625,190 247.90625,200" class="clickable"/></g><path d="M 247.90625,200 L 254.90625,197.5 L 254.90625,202.5 Z" transform="rotate(-90 247.90625 200)" class="arrow" style="fill:rgb(48, 48, 48);stroke-linejoin:miter;stroke-miterlimit:2;"/><text class="clickable sprotty-label transition" id="sprotty_fsm$dbg_state/state$CMD_START_to_fsm$dbg_state/state$CMD_WAIT/label0" transform="translate(12, 156) translate(114.953125, 19)" style="cursor:default;perspective-origin:0px 0px;fill:rgb(48, 48, 48);stroke:none;text-anchor:middle;">new command sent to the core</text></g><g id="sprotty_fsm$dbg_state/state$CMD_WAIT_to_fsm$dbg_state/state$CMD_DONE" class="sprotty-edge transition" style="fill:none;stroke:rgb(48, 48, 48);stroke-linejoin:round;"><g><path d=" M247.90625,240 C247.90625,240 260.6020833333333,250 374.8645833333333,260"/><path d=" M247.90625,240 C247.90625,240 260.6020833333333,250 374.8645833333333,260" class="clickable"/></g><path d="M 374.8645833333333,260 L 381.8645833333333,257.5 L 381.8645833333333,262.5 Z" transform="rotate(-174.99834459317333 374.8645833333333 260)" class="arrow" style="fill:rgb(48, 48, 48);stroke-linejoin:miter;stroke-miterlimit:2;"/></g><g id="sprotty_fsm$dbg_state/state$CMD_DONE_to_fsm$dbg_state/state$HALTED" class="sprotty-edge transition" style="fill:none;stroke:rgb(48, 48, 48);stroke-linejoin:round;"><g><path d=" M391.359375,300 C391.359375,300 439.0322916666667,323.8364583333333 868.0885416666666,347.67291666666665"/><path d=" M391.359375,300 C391.359375,300 439.0322916666667,323.8364583333333 868.0885416666666,347.67291666666665" class="clickable"/></g><path d="M 868.0885416666666,347.67291666666665 L 875.0885416666666,345.17291666666665 L 875.0885416666666,350.17291666666665 Z" transform="rotate(-176.82016988013578 868.0885416666666 347.67291666666665)" class="arrow" style="fill:rgb(48, 48, 48);stroke-linejoin:miter;stroke-miterlimit:2;"/></g><g id="sprotty_fsm$dbg_state/state$RESUMING_to_fsm$dbg_state/state$IDLE" class="sprotty-edge transition" style="fill:none;stroke:rgb(48, 48, 48);stroke-linejoin:round;"><g><path d=" M917.2447916666666,76 C917.2447916666666,76 917.2447916666666,86 917.2447916666666,96"/><path d=" M917.2447916666666,76 C917.2447916666666,76 917.2447916666666,86 917.2447916666666,96" class="clickable"/></g><path d="M 917.2447916666666,96 L 924.2447916666666,93.5 L 924.2447916666666,98.5 Z" transform="rotate(-90 917.2447916666666 96)" class="arrow" style="fill:rgb(48, 48, 48);stroke-linejoin:miter;stroke-miterlimit:2;"/></g></g></g></svg>