<svg xmlns="http://www.w3.org/2000/svg" id="sprotty_root" class="sprotty-graph sprotty-state-machine statemachine" style="font-family:&quot;Noto Sans&quot;, Helvetica, Arial, sans-serif;perspective-origin:0px 0px;transform-origin:0px 0px;" version="1.1" viewBox="10 10 447.859375 365.5" width="447.859375" height="365.5"><g transform="scale(1) translate(0,0)"><g id="sprotty_fsm$miss_state" class="statemachine" transform="translate(15, 15)"><g class="sprotty-block" style="fill:rgb(255, 255, 255);stroke:rgb(48, 48, 48);stroke-dasharray:0px;"><rect x="0" y="0" rx="1" ry="1" width="437.859375" height="355.5"/><text x="218.9296875" y="12" class="sprotty-block-name" style="cursor:pointer;font-weight:700;perspective-origin:218.922px 0px;fill:rgb(48, 48, 48);stroke:rgba(0, 0, 0, 0);dominant-baseline:middle;text-anchor:middle;">miss_state</text><line x1="0" y1="20" x2="437.859375" y2="20"/></g><g id="sprotty_fsm$miss_state/state$CRIT_BYP_OK" class="state" transform="translate(134.41145833333334, 36)"><ellipse cx="57.8125" cy="19.75" rx="57.8125" ry="19.75" class="sprotty-node clickable" style="fill:rgb(255, 255, 255);stroke:rgb(48, 48, 48);"/><text class="clickable sprotty-label state" id="sprotty_fsm$miss_state/state$CRIT_BYP_OK/label" transform="translate(6, 8) translate(51.8125, 18.5)" style="cursor:default;perspective-origin:0px 0px;fill:rgb(48, 48, 48);text-anchor:middle;">CRIT_BYP_OK</text></g><g id="sprotty_fsm$miss_state/state$IDLE" class="state" transform="translate(139.54166666666669, 304)"><ellipse cx="40" cy="19.75" rx="40" ry="19.75" class="sprotty-node clickable" style="fill:rgb(255, 255, 255);stroke:rgb(48, 48, 48);"/><text class="clickable sprotty-label state" id="sprotty_fsm$miss_state/state$IDLE/label" transform="translate(23.109375, 8) translate(16.890625, 18.5)" style="cursor:default;perspective-origin:0px 0px;fill:rgb(48, 48, 48);text-anchor:middle;">IDLE</text></g><g id="sprotty_fsm$miss_state/state$CRIT_WRD_RDY" class="state" transform="translate(296.8125, 165)"><ellipse cx="64.5234375" cy="19.75" rx="64.5234375" ry="19.75" class="sprotty-node clickable" style="fill:rgb(255, 255, 255);stroke:rgb(48, 48, 48);"/><text class="clickable sprotty-label state" id="sprotty_fsm$miss_state/state$CRIT_WRD_RDY/label" transform="translate(6, 8) translate(58.515625, 18.5)" style="cursor:default;perspective-origin:0px 0px;fill:rgb(48, 48, 48);text-anchor:middle;">CRIT_WRD_RDY</text></g><g id="sprotty_fsm$miss_state/state$SCND_MISS" class="state" transform="translate(125, 224.5)"><ellipse cx="49.90625" cy="19.75" rx="49.90625" ry="19.75" class="sprotty-node clickable" style="fill:rgb(255, 255, 255);stroke:rgb(48, 48, 48);"/><text class="clickable sprotty-label state" id="sprotty_fsm$miss_state/state$SCND_MISS/label" transform="translate(6, 8) translate(43.90625, 18.5)" style="cursor:default;perspective-origin:0px 0px;fill:rgb(48, 48, 48);text-anchor:middle;">SCND_MISS</text></g><g id="sprotty_fsm$miss_state/state$HIT_U_MISS" class="state" transform="translate(122.953125, 165)"><ellipse cx="51.953125" cy="19.75" rx="51.953125" ry="19.75" class="sprotty-node clickable" style="fill:rgb(255, 255, 255);stroke:rgb(48, 48, 48);"/><text class="clickable sprotty-label state" id="sprotty_fsm$miss_state/state$HIT_U_MISS/label" transform="translate(6, 8) translate(45.953125, 18.5)" style="cursor:default;perspective-origin:0px 0px;fill:rgb(48, 48, 48);text-anchor:middle;">HIT_U_MISS</text></g><g id="sprotty_fsm$miss_state/state$MISS_WAIT" class="state" transform="translate(31.15625, 105.5)"><ellipse cx="47.765625" cy="19.75" rx="47.765625" ry="19.75" class="sprotty-node clickable" style="fill:rgb(255, 255, 255);stroke:rgb(48, 48, 48);"/><text class="clickable sprotty-label state" id="sprotty_fsm$miss_state/state$MISS_WAIT/label" transform="translate(6, 8) translate(41.765625, 18.5)" style="cursor:default;perspective-origin:0px 0px;fill:rgb(48, 48, 48);text-anchor:middle;">MISS_WAIT</text></g><g id="sprotty_fsm$miss_state/state$IDLE_to_fsm$miss_state/state$CRIT_BYP_OK" class="sprotty-edge transition" style="fill:none;stroke:rgb(48, 48, 48);stroke-linejoin:round;"><g><path d=" M149.54166666666669,304 C12,284 12,274 12,264.875 C12,255.74999999999997 12,247.5 12,239.25 C12,230.99999999999997 11.999999999999972,222.75 11.999999999999972,208.70833333333334 C11.999999999999972,194.66666666666669 12,174.83333333333334 12,160.79166666666669 C12,146.75 11.999999999999972,138.5 12,130.25 C12,122 11.999999999999972,113.75 12,105.87499999999999 C12,98 12,90.5 153.68229166666669,75.5"/><path d=" M149.54166666666669,304 C12,284 12,274 12,264.875 C12,255.74999999999997 12,247.5 12,239.25 C12,230.99999999999997 11.999999999999972,222.75 11.999999999999972,208.70833333333334 C11.999999999999972,194.66666666666669 12,174.83333333333334 12,160.79166666666669 C12,146.75 11.999999999999972,138.5 12,130.25 C12,122 11.999999999999972,113.75 12,105.87499999999999 C12,98 12,90.5 153.68229166666669,75.5" class="clickable"/></g><path d="M 153.68229166666669,75.5 L 160.68229166666669,73 L 160.68229166666669,78 Z" transform="rotate(173.95656945891506 153.68229166666669 75.5)" class="arrow" style="fill:rgb(48, 48, 48);stroke-linejoin:miter;stroke-miterlimit:2;"/></g><g id="sprotty_fsm$miss_state/state$IDLE_to_fsm$miss_state/state$HIT_U_MISS" class="sprotty-edge transition" style="fill:none;stroke:rgb(48, 48, 48);stroke-linejoin:round;"><g><path d=" M169.54166666666669,304 C114,284 114,274 114,265.7083333333333 C114,257.41666666666663 114,250.83333333333331 114,244.25 C114,237.66666666666666 114,231.08333333333331 114,225.29166666666666 C114,219.5 114,214.5 148.9296875,204.5"/><path d=" M169.54166666666669,304 C114,284 114,274 114,265.7083333333333 C114,257.41666666666663 114,250.83333333333331 114,244.25 C114,237.66666666666666 114,231.08333333333331 114,225.29166666666666 C114,219.5 114,214.5 148.9296875,204.5" class="clickable"/></g><path d="M 148.9296875,204.5 L 155.9296875,202 L 155.9296875,207 Z" transform="rotate(164.02414292608285 148.9296875 204.5)" class="arrow" style="fill:rgb(48, 48, 48);stroke-linejoin:miter;stroke-miterlimit:2;"/></g><g id="sprotty_fsm$miss_state/state$CRIT_BYP_OK_to_fsm$miss_state/state$MISS_WAIT" class="sprotty-edge transition" style="fill:none;stroke:rgb(48, 48, 48);stroke-linejoin:round;"><g><path d=" M172.953125,75.5 C172.953125,75.5 88.32499999999999,90.5 78.921875,105.5"/><path d=" M172.953125,75.5 C172.953125,75.5 88.32499999999999,90.5 78.921875,105.5" class="clickable"/></g><path d="M 78.921875,105.5 L 85.921875,103 L 85.921875,108 Z" transform="rotate(-57.917429147996835 78.921875 105.5)" class="arrow" style="fill:rgb(48, 48, 48);stroke-linejoin:miter;stroke-miterlimit:2;"/></g><g id="sprotty_fsm$miss_state/state$CRIT_BYP_OK_to_fsm$miss_state/state$IDLE" class="sprotty-edge transition" style="fill:none;stroke:rgb(48, 48, 48);stroke-linejoin:round;"><g><path d=" M211.49479166666669,75.5 C285.8125,90.5 285.8125,98 285.8125,105.87499999999999 C285.8125,113.75 285.8125,122 285.8125,130.25 C285.8125,138.5 285.8125,146.75 285.8125,160.79166666666669 C285.8125,174.83333333333334 285.8125,194.66666666666669 285.8125,208.70833333333334 C285.8125,222.75 285.8125,230.99999999999997 285.8125,239.25 C285.8125,247.5 285.8125,255.74999999999997 285.8125,264.875 C285.8125,274 285.8125,284 199.54166666666669,304"/><path d=" M211.49479166666669,75.5 C285.8125,90.5 285.8125,98 285.8125,105.87499999999999 C285.8125,113.75 285.8125,122 285.8125,130.25 C285.8125,138.5 285.8125,146.75 285.8125,160.79166666666669 C285.8125,174.83333333333334 285.8125,194.66666666666669 285.8125,208.70833333333334 C285.8125,222.75 285.8125,230.99999999999997 285.8125,239.25 C285.8125,247.5 285.8125,255.74999999999997 285.8125,264.875 C285.8125,274 285.8125,284 199.54166666666669,304" class="clickable"/></g><path d="M 199.54166666666669,304 L 206.54166666666669,301.5 L 206.54166666666669,306.5 Z" transform="rotate(-13.052202501235016 199.54166666666669 304)" class="arrow" style="fill:rgb(48, 48, 48);stroke-linejoin:miter;stroke-miterlimit:2;"/></g><g id="sprotty_fsm$miss_state/state$CRIT_BYP_OK_to_fsm$miss_state/state$CRIT_WRD_RDY" class="sprotty-edge transition" style="fill:none;stroke:rgb(48, 48, 48);stroke-linejoin:round;"><g><path d=" M230.76562500000003,75.5 C361.3359375,90.5 361.3359375,98 361.3359375,105.875 C361.3359375,113.75 361.3359375,121.99999999999999 361.3359375,132.31249999999997 C361.3359375,142.625 361.3359375,155 361.3359375,165"/><path d=" M230.76562500000003,75.5 C361.3359375,90.5 361.3359375,98 361.3359375,105.875 C361.3359375,113.75 361.3359375,121.99999999999999 361.3359375,132.31249999999997 C361.3359375,142.625 361.3359375,155 361.3359375,165" class="clickable"/></g><path d="M 361.3359375,165 L 368.3359375,162.5 L 368.3359375,167.5 Z" transform="rotate(-90 361.3359375 165)" class="arrow" style="fill:rgb(48, 48, 48);stroke-linejoin:miter;stroke-miterlimit:2;"/></g><g id="sprotty_fsm$miss_state/state$CRIT_BYP_OK_to_fsm$miss_state/state$HIT_U_MISS" class="sprotty-edge transition" style="fill:none;stroke:rgb(48, 48, 48);stroke-linejoin:round;"><g><path d=" M192.22395833333334,75.5 C192.22395833333334,90.5 192.22395833333334,106.625 192.22395833333334,122.75 C192.22395833333334,138.875 192.22395833333334,155 192.22395833333334,165"/><path d=" M192.22395833333334,75.5 C192.22395833333334,90.5 192.22395833333334,106.625 192.22395833333334,122.75 C192.22395833333334,138.875 192.22395833333334,155 192.22395833333334,165" class="clickable"/></g><path d="M 192.22395833333334,165 L 199.22395833333334,162.5 L 199.22395833333334,167.5 Z" transform="rotate(-90 192.22395833333334 165)" class="arrow" style="fill:rgb(48, 48, 48);stroke-linejoin:miter;stroke-miterlimit:2;"/></g><g id="sprotty_fsm$miss_state/state$CRIT_WRD_RDY_to_fsm$miss_state/state$IDLE" class="sprotty-edge transition" style="fill:none;stroke:rgb(48, 48, 48);stroke-linejoin:round;"><g><path d=" M361.3359375,204.5 C361.3359375,214.5 361.3359375,226.875 361.3359375,237.1875 C361.3359375,247.50000000000003 361.3359375,255.74999999999997 361.3359375,264.87499999999994 C361.3359375,274 361.3359375,284 209.54166666666669,304"/><path d=" M361.3359375,204.5 C361.3359375,214.5 361.3359375,226.875 361.3359375,237.1875 C361.3359375,247.50000000000003 361.3359375,255.74999999999997 361.3359375,264.87499999999994 C361.3359375,274 361.3359375,284 209.54166666666669,304" class="clickable"/></g><path d="M 209.54166666666669,304 L 216.54166666666669,301.5 L 216.54166666666669,306.5 Z" transform="rotate(-7.505901135540098 209.54166666666669 304)" class="arrow" style="fill:rgb(48, 48, 48);stroke-linejoin:miter;stroke-miterlimit:2;"/></g><g id="sprotty_fsm$miss_state/state$MISS_WAIT_to_fsm$miss_state/state$HIT_U_MISS" class="sprotty-edge transition" style="fill:none;stroke:rgb(48, 48, 48);stroke-linejoin:round;"><g><path d=" M94.84375,145 C94.84375,145 126.21614583333334,155 157.58854166666669,165"/><path d=" M94.84375,145 C94.84375,145 126.21614583333334,155 157.58854166666669,165" class="clickable"/></g><path d="M 157.58854166666669,165 L 164.58854166666669,162.5 L 164.58854166666669,167.5 Z" transform="rotate(-162.320238071927 157.58854166666669 165)" class="arrow" style="fill:rgb(48, 48, 48);stroke-linejoin:miter;stroke-miterlimit:2;"/></g><g id="sprotty_fsm$miss_state/state$MISS_WAIT_to_fsm$miss_state/state$IDLE" class="sprotty-edge transition" style="fill:none;stroke:rgb(48, 48, 48);stroke-linejoin:round;"><g><path d=" M63,145 C63,155 63,169.875 63,182.27083333333331 C63,194.66666666666666 63,204.58333333333331 63,217.79166666666666 C63,231 63,247.5 63,260.75 C63,274 63,284 159.54166666666669,304"/><path d=" M63,145 C63,155 63,169.875 63,182.27083333333331 C63,194.66666666666666 63,204.58333333333331 63,217.79166666666666 C63,231 63,247.5 63,260.75 C63,274 63,284 159.54166666666669,304" class="clickable"/></g><path d="M 159.54166666666669,304 L 166.54166666666669,301.5 L 166.54166666666669,306.5 Z" transform="rotate(-168.2959129730552 159.54166666666669 304)" class="arrow" style="fill:rgb(48, 48, 48);stroke-linejoin:miter;stroke-miterlimit:2;"/></g><g id="sprotty_fsm$miss_state/state$HIT_U_MISS_to_fsm$miss_state/state$SCND_MISS" class="sprotty-edge transition" style="fill:none;stroke:rgb(48, 48, 48);stroke-linejoin:round;"><g><path d=" M174.90625,204.5 C174.90625,204.5 174.90625,214.5 174.90625,224.5"/><path d=" M174.90625,204.5 C174.90625,204.5 174.90625,214.5 174.90625,224.5" class="clickable"/></g><path d="M 174.90625,224.5 L 181.90625,222 L 181.90625,227 Z" transform="rotate(-90 174.90625 224.5)" class="arrow" style="fill:rgb(48, 48, 48);stroke-linejoin:miter;stroke-miterlimit:2;"/></g><g id="sprotty_fsm$miss_state/state$HIT_U_MISS_to_fsm$miss_state/state$IDLE" class="sprotty-edge transition" style="fill:none;stroke:rgb(48, 48, 48);stroke-linejoin:round;"><g><path d=" M200.8828125,204.5 C234.8125,214.5 234.8125,219.5 234.8125,225.29166666666666 C234.8125,231.08333333333331 234.8125,237.66666666666666 234.8125,244.25 C234.8125,250.83333333333331 234.8125,257.41666666666663 234.8125,265.7083333333333 C234.8125,274 234.8125,284 189.54166666666669,304"/><path d=" M200.8828125,204.5 C234.8125,214.5 234.8125,219.5 234.8125,225.29166666666666 C234.8125,231.08333333333331 234.8125,237.66666666666666 234.8125,244.25 C234.8125,250.83333333333331 234.8125,257.41666666666663 234.8125,265.7083333333333 C234.8125,274 234.8125,284 189.54166666666669,304" class="clickable"/></g><path d="M 189.54166666666669,304 L 196.54166666666669,301.5 L 196.54166666666669,306.5 Z" transform="rotate(-23.8351489040945 189.54166666666669 304)" class="arrow" style="fill:rgb(48, 48, 48);stroke-linejoin:miter;stroke-miterlimit:2;"/></g><g id="sprotty_fsm$miss_state/state$SCND_MISS_to_fsm$miss_state/state$IDLE" class="sprotty-edge transition" style="fill:none;stroke:rgb(48, 48, 48);stroke-linejoin:round;"><g><path d=" M174.90625,264 C174.90625,264 175.36979166666669,284 179.54166666666669,304"/><path d=" M174.90625,264 C174.90625,264 175.36979166666669,284 179.54166666666669,304" class="clickable"/></g><path d="M 179.54166666666669,304 L 186.54166666666669,301.5 L 186.54166666666669,306.5 Z" transform="rotate(-101.78258829956356 179.54166666666669 304)" class="arrow" style="fill:rgb(48, 48, 48);stroke-linejoin:miter;stroke-miterlimit:2;"/></g></g></g></svg>