<svg xmlns="http://www.w3.org/2000/svg" id="sprotty_root" class="sprotty-graph sprotty-state-machine statemachine" style="font-family:&quot;Noto Sans&quot;, Helvetica, Arial, sans-serif;perspective-origin:0px 0px;transform-origin:0px 0px;" version="1.1" viewBox="10 10 326.90625 276" width="326.90625" height="276"><g transform="scale(1) translate(0,0)"><g id="sprotty_fsm$perr_state" class="statemachine" transform="translate(15, 15)"><g class="sprotty-block" style="fill:rgb(255, 255, 255);stroke:rgb(48, 48, 48);stroke-dasharray:0px;"><rect x="0" y="0" rx="1" ry="1" width="316.90625" height="266"/><text x="158.453125" y="12" class="sprotty-block-name" style="cursor:pointer;font-weight:700;perspective-origin:158.453px 0px;fill:rgb(48, 48, 48);stroke:rgba(0, 0, 0, 0);dominant-baseline:middle;text-anchor:middle;">perr_state</text><line x1="0" y1="20" x2="316.90625" y2="20"/></g><g id="sprotty_fsm$perr_state/state$ECC_WFF" class="state" transform="translate(175.44427083333335, 36)"><ellipse cx="40.984375" cy="19.75" rx="40.984375" ry="19.75" class="sprotty-node clickable" style="fill:rgb(255, 255, 255);stroke:rgb(48, 48, 48);"/><text class="clickable sprotty-label state" id="sprotty_fsm$perr_state/state$ECC_WFF/label" transform="translate(6, 8) translate(34.984375, 18.5)" style="cursor:default;perspective-origin:0px 0px;fill:rgb(48, 48, 48);text-anchor:middle;">ECC_WFF</text></g><g id="sprotty_fsm$perr_state/state$ERR_IDLE" class="state" transform="translate(160.13697916666666, 95.5)"><ellipse cx="42.21875" cy="19.75" rx="42.21875" ry="19.75" class="sprotty-node clickable" style="fill:rgb(255, 255, 255);stroke:rgb(48, 48, 48);"/><text class="clickable sprotty-label state" id="sprotty_fsm$perr_state/state$ERR_IDLE/label" transform="translate(6, 8) translate(36.21875, 18.5)" style="cursor:default;perspective-origin:0px 0px;fill:rgb(48, 48, 48);text-anchor:middle;">ERR_IDLE</text></g><g id="sprotty_fsm$perr_state/state$PERR_WFF" class="state" transform="translate(150.40625, 155)"><ellipse cx="46.25" cy="19.75" rx="46.25" ry="19.75" class="sprotty-node clickable" style="fill:rgb(255, 255, 255);stroke:rgb(48, 48, 48);"/><text class="clickable sprotty-label state" id="sprotty_fsm$perr_state/state$PERR_WFF/label" transform="translate(6, 8) translate(40.25, 18.5)" style="cursor:default;perspective-origin:0px 0px;fill:rgb(48, 48, 48);text-anchor:middle;">PERR_WFF</text></g><g id="sprotty_fsm$perr_state/state$ECC_CORR" class="state" transform="translate(206.828125, 214.5)"><ellipse cx="46.078125" cy="19.75" rx="46.078125" ry="19.75" class="sprotty-node clickable" style="fill:rgb(255, 255, 255);stroke:rgb(48, 48, 48);"/><text class="clickable sprotty-label state" id="sprotty_fsm$perr_state/state$ECC_CORR/label" transform="translate(6, 8) translate(40.078125, 18.5)" style="cursor:default;perspective-origin:0px 0px;fill:rgb(48, 48, 48);text-anchor:middle;">ECC_CORR</text></g><g id="sprotty_fsm$perr_state/state$DMA_SB_ERR" class="state" transform="translate(12, 155)"><ellipse cx="56.703125" cy="19.75" rx="56.703125" ry="19.75" class="sprotty-node clickable" style="fill:rgb(255, 255, 255);stroke:rgb(48, 48, 48);"/><text class="clickable sprotty-label state" id="sprotty_fsm$perr_state/state$DMA_SB_ERR/label" transform="translate(6, 8) translate(50.703125, 18.5)" style="cursor:default;perspective-origin:0px 0px;fill:rgb(48, 48, 48);text-anchor:middle;">DMA_SB_ERR</text></g><g id="sprotty_fsm$perr_state/state$ERR_IDLE_to_fsm$perr_state/state$DMA_SB_ERR" class="sprotty-edge transition" style="fill:none;stroke:rgb(48, 48, 48);stroke-linejoin:round;"><g><path d=" M177.02447916666665,135 C177.02447916666665,135 79.53526041666666,145 68.703125,155"/><path d=" M177.02447916666665,135 C177.02447916666665,135 79.53526041666666,145 68.703125,155" class="clickable"/></g><path d="M 68.703125,155 L 75.703125,152.5 L 75.703125,157.5 Z" transform="rotate(-42.712547820646385 68.703125 155)" class="arrow" style="fill:rgb(48, 48, 48);stroke-linejoin:miter;stroke-miterlimit:2;"/></g><g id="sprotty_fsm$perr_state/state$ERR_IDLE_to_fsm$perr_state/state$PERR_WFF" class="sprotty-edge transition" style="fill:none;stroke:rgb(48, 48, 48);stroke-linejoin:round;"><g><path d=" M193.91197916666667,135 C193.91197916666667,135 182.50682291666666,145 181.23958333333334,155"/><path d=" M193.91197916666667,135 C193.91197916666667,135 182.50682291666666,145 181.23958333333334,155" class="clickable"/></g><path d="M 181.23958333333334,155 L 188.23958333333334,152.5 L 188.23958333333334,157.5 Z" transform="rotate(-82.77774846286125 181.23958333333334 155)" class="arrow" style="fill:rgb(48, 48, 48);stroke-linejoin:miter;stroke-miterlimit:2;"/></g><g id="sprotty_fsm$perr_state/state$ERR_IDLE_to_fsm$perr_state/state$ECC_WFF" class="sprotty-edge transition" style="fill:none;stroke:rgb(48, 48, 48);stroke-linejoin:round;"><g><path d=" M188.2828125,95.5 C189.04817708333331,85.5 195.93645833333335,75.5 195.93645833333335,75.5"/><path d=" M188.2828125,95.5 C189.04817708333331,85.5 195.93645833333335,75.5 195.93645833333335,75.5" class="clickable"/></g><path d="M 195.93645833333335,75.5 L 202.93645833333335,73 L 202.93645833333335,78 Z" transform="rotate(124.56016354146183 195.93645833333335 75.5)" class="arrow" style="fill:rgb(48, 48, 48);stroke-linejoin:miter;stroke-miterlimit:2;"/></g><g id="sprotty_fsm$perr_state/state$PERR_WFF_to_fsm$perr_state/state$ERR_IDLE" class="sprotty-edge transition" style="fill:none;stroke:rgb(48, 48, 48);stroke-linejoin:round;"><g><path d=" M212.07291666666666,155 C211.94557291666666,145 210.79947916666666,135 210.79947916666666,135"/><path d=" M212.07291666666666,155 C211.94557291666666,145 210.79947916666666,135 210.79947916666666,135" class="clickable"/></g><path d="M 210.79947916666666,135 L 217.79947916666666,132.5 L 217.79947916666666,137.5 Z" transform="rotate(83.46189361407322 210.79947916666666 135)" class="arrow" style="fill:rgb(48, 48, 48);stroke-linejoin:miter;stroke-miterlimit:2;"/></g><g id="sprotty_fsm$perr_state/state$ECC_WFF_to_fsm$perr_state/state$ERR_IDLE" class="sprotty-edge transition" style="fill:none;stroke:rgb(48, 48, 48);stroke-linejoin:round;"><g><path d=" M216.42864583333335,75.5 C216.42864583333335,75.5 216.42864583333335,85.5 216.42864583333332,95.5"/><path d=" M216.42864583333335,75.5 C216.42864583333335,75.5 216.42864583333335,85.5 216.42864583333332,95.5" class="clickable"/></g><path d="M 216.42864583333332,95.5 L 223.42864583333332,93 L 223.42864583333332,98 Z" transform="rotate(-89.99999999999984 216.42864583333332 95.5)" class="arrow" style="fill:rgb(48, 48, 48);stroke-linejoin:miter;stroke-miterlimit:2;"/></g><g id="sprotty_fsm$perr_state/state$ECC_WFF_to_fsm$perr_state/state$ECC_CORR" class="sprotty-edge transition" style="fill:none;stroke:rgb(48, 48, 48);stroke-linejoin:round;"><g><path d=" M236.92083333333335,75.5 C303.90625,85.5 303.90625,90.5 303.90625,97.125 C303.90625,103.75 303.90625,112 303.90625,120.24999999999997 C303.90625,128.5 303.90625,136.75 303.90625,149.125 C303.90625,161.5 303.90625,178 303.90625,188.75000000000003 C303.90625,199.5 303.90625,204.5 275.9453125,214.5"/><path d=" M236.92083333333335,75.5 C303.90625,85.5 303.90625,90.5 303.90625,97.125 C303.90625,103.75 303.90625,112 303.90625,120.24999999999997 C303.90625,128.5 303.90625,136.75 303.90625,149.125 C303.90625,161.5 303.90625,178 303.90625,188.75000000000003 C303.90625,199.5 303.90625,204.5 275.9453125,214.5" class="clickable"/></g><path d="M 275.9453125,214.5 L 282.9453125,212 L 282.9453125,217 Z" transform="rotate(-19.679173479253993 275.9453125 214.5)" class="arrow" style="fill:rgb(48, 48, 48);stroke-linejoin:miter;stroke-miterlimit:2;"/></g><g id="sprotty_fsm$perr_state/state$DMA_SB_ERR_to_fsm$perr_state/state$ECC_CORR" class="sprotty-edge transition" style="fill:none;stroke:rgb(48, 48, 48);stroke-linejoin:round;"><g><path d=" M68.703125,194.5 C68.703125,194.5 84.81953125,204.5 229.8671875,214.5"/><path d=" M68.703125,194.5 C68.703125,194.5 84.81953125,204.5 229.8671875,214.5" class="clickable"/></g><path d="M 229.8671875,214.5 L 236.8671875,212 L 236.8671875,217 Z" transform="rotate(-176.0561058936204 229.8671875 214.5)" class="arrow" style="fill:rgb(48, 48, 48);stroke-linejoin:miter;stroke-miterlimit:2;"/></g><g id="sprotty_fsm$perr_state/state$ECC_CORR_to_fsm$perr_state/state$ERR_IDLE" class="sprotty-edge transition" style="fill:none;stroke:rgb(48, 48, 48);stroke-linejoin:round;"><g><path d=" M252.90625,214.5 C252.90625,204.5 252.90624999999994,192.125 252.90624999999994,181.8125 C252.90624999999994,171.5 252.90625,163.25 252.90624999999997,156.625 C252.90624999999997,150 252.90625,145 227.68697916666667,135"/><path d=" M252.90625,214.5 C252.90625,204.5 252.90624999999994,192.125 252.90624999999994,181.8125 C252.90624999999994,171.5 252.90625,163.25 252.90624999999997,156.625 C252.90624999999997,150 252.90625,145 227.68697916666667,135" class="clickable"/></g><path d="M 227.68697916666667,135 L 234.68697916666667,132.5 L 234.68697916666667,137.5 Z" transform="rotate(21.629423598560926 227.68697916666667 135)" class="arrow" style="fill:rgb(48, 48, 48);stroke-linejoin:miter;stroke-miterlimit:2;"/></g></g></g></svg>