<svg xmlns="http://www.w3.org/2000/svg" id="sprotty_root" class="sprotty-graph sprotty-state-machine statemachine" style="font-family:&quot;Noto Sans&quot;, Helvetica, Arial, sans-serif;perspective-origin:0px 0px;transform-origin:0px 0px;" version="1.1" viewBox="10 10 326.90625 278" width="326.90625" height="278"><g transform="scale(1) translate(0,0)"><g id="sprotty_fsm$perr_state" class="statemachine" transform="translate(15, 15)"><g class="sprotty-block" style="fill:rgb(255, 255, 255);stroke:rgb(48, 48, 48);stroke-dasharray:0px;"><rect x="0" y="0" rx="1" ry="1" width="316.90625" height="268"/><text x="158.453125" y="12" class="sprotty-block-name" style="cursor:pointer;font-weight:700;perspective-origin:158.453px 0px;fill:rgb(48, 48, 48);stroke:rgba(0, 0, 0, 0);dominant-baseline:middle;text-anchor:middle;">perr_state</text><line x1="0" y1="20" x2="316.90625" y2="20"/></g><g id="sprotty_fsm$perr_state/state$ECC_WFF" class="state" transform="translate(175.44427083333335, 36)"><ellipse cx="40.984375" cy="20" rx="40.984375" ry="20" class="sprotty-node clickable" style="fill:rgb(255, 255, 255);stroke:rgb(48, 48, 48);"/><text class="clickable sprotty-label state" id="sprotty_fsm$perr_state/state$ECC_WFF/label" transform="translate(6, 8) translate(34.984375, 19)" style="cursor:default;perspective-origin:0px 0px;fill:rgb(48, 48, 48);text-anchor:middle;">ECC_WFF</text></g><g id="sprotty_fsm$perr_state/state$ERR_IDLE" class="state" transform="translate(160.13697916666666, 96)"><ellipse cx="42.21875" cy="20" rx="42.21875" ry="20" class="sprotty-node clickable" style="fill:rgb(255, 255, 255);stroke:rgb(48, 48, 48);"/><text class="clickable sprotty-label state" id="sprotty_fsm$perr_state/state$ERR_IDLE/label" transform="translate(6, 8) translate(36.21875, 19)" style="cursor:default;perspective-origin:0px 0px;fill:rgb(48, 48, 48);text-anchor:middle;">ERR_IDLE</text></g><g id="sprotty_fsm$perr_state/state$PERR_WFF" class="state" transform="translate(150.40625, 156)"><ellipse cx="46.25" cy="20" rx="46.25" ry="20" class="sprotty-node clickable" style="fill:rgb(255, 255, 255);stroke:rgb(48, 48, 48);"/><text class="clickable sprotty-label state" id="sprotty_fsm$perr_state/state$PERR_WFF/label" transform="translate(6, 8) translate(40.25, 19)" style="cursor:default;perspective-origin:0px 0px;fill:rgb(48, 48, 48);text-anchor:middle;">PERR_WFF</text></g><g id="sprotty_fsm$perr_state/state$ECC_CORR" class="state" transform="translate(206.828125, 216)"><ellipse cx="46.078125" cy="20" rx="46.078125" ry="20" class="sprotty-node clickable" style="fill:rgb(255, 255, 255);stroke:rgb(48, 48, 48);"/><text class="clickable sprotty-label state" id="sprotty_fsm$perr_state/state$ECC_CORR/label" transform="translate(6, 8) translate(40.078125, 19)" style="cursor:default;perspective-origin:0px 0px;fill:rgb(48, 48, 48);text-anchor:middle;">ECC_CORR</text></g><g id="sprotty_fsm$perr_state/state$DMA_SB_ERR" class="state" transform="translate(12, 156)"><ellipse cx="56.703125" cy="20" rx="56.703125" ry="20" class="sprotty-node clickable" style="fill:rgb(255, 255, 255);stroke:rgb(48, 48, 48);"/><text class="clickable sprotty-label state" id="sprotty_fsm$perr_state/state$DMA_SB_ERR/label" transform="translate(6, 8) translate(50.703125, 19)" style="cursor:default;perspective-origin:0px 0px;fill:rgb(48, 48, 48);text-anchor:middle;">DMA_SB_ERR</text></g><g id="sprotty_fsm$perr_state/state$ERR_IDLE_to_fsm$perr_state/state$DMA_SB_ERR" class="sprotty-edge transition" style="fill:none;stroke:rgb(48, 48, 48);stroke-linejoin:round;"><g><path d=" M177.02447916666665,136 C177.02447916666665,136 79.53526041666666,146 68.703125,156"/><path d=" M177.02447916666665,136 C177.02447916666665,136 79.53526041666666,146 68.703125,156" class="clickable"/></g><path d="M 68.703125,156 L 75.703125,153.5 L 75.703125,158.5 Z" transform="rotate(-42.712547820646385 68.703125 156)" class="arrow" style="fill:rgb(48, 48, 48);stroke-linejoin:miter;stroke-miterlimit:2;"/></g><g id="sprotty_fsm$perr_state/state$ERR_IDLE_to_fsm$perr_state/state$PERR_WFF" class="sprotty-edge transition" style="fill:none;stroke:rgb(48, 48, 48);stroke-linejoin:round;"><g><path d=" M193.91197916666667,136 C193.91197916666667,136 182.50682291666666,146 181.23958333333334,156"/><path d=" M193.91197916666667,136 C193.91197916666667,136 182.50682291666666,146 181.23958333333334,156" class="clickable"/></g><path d="M 181.23958333333334,156 L 188.23958333333334,153.5 L 188.23958333333334,158.5 Z" transform="rotate(-82.77774846286125 181.23958333333334 156)" class="arrow" style="fill:rgb(48, 48, 48);stroke-linejoin:miter;stroke-miterlimit:2;"/></g><g id="sprotty_fsm$perr_state/state$ERR_IDLE_to_fsm$perr_state/state$ECC_WFF" class="sprotty-edge transition" style="fill:none;stroke:rgb(48, 48, 48);stroke-linejoin:round;"><g><path d=" M188.2828125,96 C189.04817708333331,86 195.93645833333335,76 195.93645833333335,76"/><path d=" M188.2828125,96 C189.04817708333331,86 195.93645833333335,76 195.93645833333335,76" class="clickable"/></g><path d="M 195.93645833333335,76 L 202.93645833333335,73.5 L 202.93645833333335,78.5 Z" transform="rotate(124.56016354146183 195.93645833333335 76)" class="arrow" style="fill:rgb(48, 48, 48);stroke-linejoin:miter;stroke-miterlimit:2;"/></g><g id="sprotty_fsm$perr_state/state$PERR_WFF_to_fsm$perr_state/state$ERR_IDLE" class="sprotty-edge transition" style="fill:none;stroke:rgb(48, 48, 48);stroke-linejoin:round;"><g><path d=" M212.07291666666666,156 C211.94557291666666,146 210.79947916666666,136 210.79947916666666,136"/><path d=" M212.07291666666666,156 C211.94557291666666,146 210.79947916666666,136 210.79947916666666,136" class="clickable"/></g><path d="M 210.79947916666666,136 L 217.79947916666666,133.5 L 217.79947916666666,138.5 Z" transform="rotate(83.46189361407322 210.79947916666666 136)" class="arrow" style="fill:rgb(48, 48, 48);stroke-linejoin:miter;stroke-miterlimit:2;"/></g><g id="sprotty_fsm$perr_state/state$ECC_WFF_to_fsm$perr_state/state$ERR_IDLE" class="sprotty-edge transition" style="fill:none;stroke:rgb(48, 48, 48);stroke-linejoin:round;"><g><path d=" M216.42864583333335,76 C216.42864583333335,76 216.42864583333335,86 216.42864583333332,96"/><path d=" M216.42864583333335,76 C216.42864583333335,76 216.42864583333335,86 216.42864583333332,96" class="clickable"/></g><path d="M 216.42864583333332,96 L 223.42864583333332,93.5 L 223.42864583333332,98.5 Z" transform="rotate(-89.99999999999984 216.42864583333332 96)" class="arrow" style="fill:rgb(48, 48, 48);stroke-linejoin:miter;stroke-miterlimit:2;"/></g><g id="sprotty_fsm$perr_state/state$ECC_WFF_to_fsm$perr_state/state$ECC_CORR" class="sprotty-edge transition" style="fill:none;stroke:rgb(48, 48, 48);stroke-linejoin:round;"><g><path d=" M236.92083333333335,76 C303.90625,86 303.90625,91 303.90625,97.66666666666669 C303.90625,104.33333333333334 303.90625,112.66666666666666 303.90625,121 C303.90625,129.33333333333331 303.90625,137.66666666666669 303.90625,150.16666666666669 C303.90625,162.66666666666669 303.90625,179.33333333333337 303.90625,190.1666666666667 C303.90625,201 303.90625,206 275.9453125,216"/><path d=" M236.92083333333335,76 C303.90625,86 303.90625,91 303.90625,97.66666666666669 C303.90625,104.33333333333334 303.90625,112.66666666666666 303.90625,121 C303.90625,129.33333333333331 303.90625,137.66666666666669 303.90625,150.16666666666669 C303.90625,162.66666666666669 303.90625,179.33333333333337 303.90625,190.1666666666667 C303.90625,201 303.90625,206 275.9453125,216" class="clickable"/></g><path d="M 275.9453125,216 L 282.9453125,213.5 L 282.9453125,218.5 Z" transform="rotate(-19.679173479253993 275.9453125 216)" class="arrow" style="fill:rgb(48, 48, 48);stroke-linejoin:miter;stroke-miterlimit:2;"/></g><g id="sprotty_fsm$perr_state/state$DMA_SB_ERR_to_fsm$perr_state/state$ECC_CORR" class="sprotty-edge transition" style="fill:none;stroke:rgb(48, 48, 48);stroke-linejoin:round;"><g><path d=" M68.703125,196 C68.703125,196 84.81953125,206 229.8671875,216"/><path d=" M68.703125,196 C68.703125,196 84.81953125,206 229.8671875,216" class="clickable"/></g><path d="M 229.8671875,216 L 236.8671875,213.5 L 236.8671875,218.5 Z" transform="rotate(-176.0561058936204 229.8671875 216)" class="arrow" style="fill:rgb(48, 48, 48);stroke-linejoin:miter;stroke-miterlimit:2;"/></g><g id="sprotty_fsm$perr_state/state$ECC_CORR_to_fsm$perr_state/state$ERR_IDLE" class="sprotty-edge transition" style="fill:none;stroke:rgb(48, 48, 48);stroke-linejoin:round;"><g><path d=" M252.90625,216 C252.90625,206 252.90624999999994,193.49999999999997 252.90624999999994,183.0833333333333 C252.90624999999994,172.66666666666666 252.90625,164.33333333333334 252.90624999999997,157.66666666666669 C252.90624999999997,151 252.90625,146 227.68697916666667,136"/><path d=" M252.90625,216 C252.90625,206 252.90624999999994,193.49999999999997 252.90624999999994,183.0833333333333 C252.90624999999994,172.66666666666666 252.90625,164.33333333333334 252.90624999999997,157.66666666666669 C252.90624999999997,151 252.90625,146 227.68697916666667,136" class="clickable"/></g><path d="M 227.68697916666667,136 L 234.68697916666667,133.5 L 234.68697916666667,138.5 Z" transform="rotate(21.629423598560926 227.68697916666667 136)" class="arrow" style="fill:rgb(48, 48, 48);stroke-linejoin:miter;stroke-miterlimit:2;"/></g></g></g></svg>