<svg xmlns="http://www.w3.org/2000/svg" id="sprotty_root" class="sprotty-graph sprotty-state-machine statemachine" style="font-family:&quot;Noto Sans&quot;, Helvetica, Arial, sans-serif;perspective-origin:0px 0px;transform-origin:0px 0px;" version="1.1" viewBox="10 10 447.859375 368" width="447.859375" height="368"><g transform="scale(1) translate(0,0)"><g id="sprotty_fsm$miss_state" class="statemachine" transform="translate(15, 15)"><g class="sprotty-block" style="fill:rgb(255, 255, 255);stroke:rgb(48, 48, 48);stroke-dasharray:0px;"><rect x="0" y="0" rx="1" ry="1" width="437.859375" height="358"/><text x="218.9296875" y="12" class="sprotty-block-name" style="cursor:pointer;font-weight:700;perspective-origin:218.922px 0px;fill:rgb(48, 48, 48);stroke:rgba(0, 0, 0, 0);dominant-baseline:middle;text-anchor:middle;">miss_state</text><line x1="0" y1="20" x2="437.859375" y2="20"/></g><g id="sprotty_fsm$miss_state/state$CRIT_BYP_OK" class="state" transform="translate(134.41145833333334, 36)"><ellipse cx="57.8125" cy="20" rx="57.8125" ry="20" class="sprotty-node clickable" style="fill:rgb(255, 255, 255);stroke:rgb(48, 48, 48);"/><text class="clickable sprotty-label state" id="sprotty_fsm$miss_state/state$CRIT_BYP_OK/label" transform="translate(6, 8) translate(51.8125, 19)" style="cursor:default;perspective-origin:0px 0px;fill:rgb(48, 48, 48);text-anchor:middle;">CRIT_BYP_OK</text></g><g id="sprotty_fsm$miss_state/state$IDLE" class="state" transform="translate(139.54166666666669, 306)"><ellipse cx="40" cy="20" rx="40" ry="20" class="sprotty-node clickable" style="fill:rgb(255, 255, 255);stroke:rgb(48, 48, 48);"/><text class="clickable sprotty-label state" id="sprotty_fsm$miss_state/state$IDLE/label" transform="translate(23.109375, 8) translate(16.890625, 19)" style="cursor:default;perspective-origin:0px 0px;fill:rgb(48, 48, 48);text-anchor:middle;">IDLE</text></g><g id="sprotty_fsm$miss_state/state$CRIT_WRD_RDY" class="state" transform="translate(296.8125, 166)"><ellipse cx="64.5234375" cy="20" rx="64.5234375" ry="20" class="sprotty-node clickable" style="fill:rgb(255, 255, 255);stroke:rgb(48, 48, 48);"/><text class="clickable sprotty-label state" id="sprotty_fsm$miss_state/state$CRIT_WRD_RDY/label" transform="translate(6, 8) translate(58.515625, 19)" style="cursor:default;perspective-origin:0px 0px;fill:rgb(48, 48, 48);text-anchor:middle;">CRIT_WRD_RDY</text></g><g id="sprotty_fsm$miss_state/state$SCND_MISS" class="state" transform="translate(125, 226)"><ellipse cx="49.90625" cy="20" rx="49.90625" ry="20" class="sprotty-node clickable" style="fill:rgb(255, 255, 255);stroke:rgb(48, 48, 48);"/><text class="clickable sprotty-label state" id="sprotty_fsm$miss_state/state$SCND_MISS/label" transform="translate(6, 8) translate(43.90625, 19)" style="cursor:default;perspective-origin:0px 0px;fill:rgb(48, 48, 48);text-anchor:middle;">SCND_MISS</text></g><g id="sprotty_fsm$miss_state/state$HIT_U_MISS" class="state" transform="translate(122.953125, 166)"><ellipse cx="51.953125" cy="20" rx="51.953125" ry="20" class="sprotty-node clickable" style="fill:rgb(255, 255, 255);stroke:rgb(48, 48, 48);"/><text class="clickable sprotty-label state" id="sprotty_fsm$miss_state/state$HIT_U_MISS/label" transform="translate(6, 8) translate(45.953125, 19)" style="cursor:default;perspective-origin:0px 0px;fill:rgb(48, 48, 48);text-anchor:middle;">HIT_U_MISS</text></g><g id="sprotty_fsm$miss_state/state$MISS_WAIT" class="state" transform="translate(31.15625, 106)"><ellipse cx="47.765625" cy="20" rx="47.765625" ry="20" class="sprotty-node clickable" style="fill:rgb(255, 255, 255);stroke:rgb(48, 48, 48);"/><text class="clickable sprotty-label state" id="sprotty_fsm$miss_state/state$MISS_WAIT/label" transform="translate(6, 8) translate(41.765625, 19)" style="cursor:default;perspective-origin:0px 0px;fill:rgb(48, 48, 48);text-anchor:middle;">MISS_WAIT</text></g><g id="sprotty_fsm$miss_state/state$IDLE_to_fsm$miss_state/state$CRIT_BYP_OK" class="sprotty-edge transition" style="fill:none;stroke:rgb(48, 48, 48);stroke-linejoin:round;"><g><path d=" M149.54166666666669,306 C12,286 12,276 12,266.8333333333333 C12,257.66666666666663 12,249.33333333333334 12,241 C12,232.66666666666666 11.999999999999972,224.33333333333334 11.999999999999972,210.16666666666666 C11.999999999999972,195.99999999999997 12,175.99999999999997 12,161.83333333333331 C12,147.66666666666669 11.999999999999972,139.33333333333334 12,131 C12,122.66666666666666 11.999999999999972,114.33333333333333 12,106.41666666666667 C12,98.5 12,91 153.68229166666669,76"/><path d=" M149.54166666666669,306 C12,286 12,276 12,266.8333333333333 C12,257.66666666666663 12,249.33333333333334 12,241 C12,232.66666666666666 11.999999999999972,224.33333333333334 11.999999999999972,210.16666666666666 C11.999999999999972,195.99999999999997 12,175.99999999999997 12,161.83333333333331 C12,147.66666666666669 11.999999999999972,139.33333333333334 12,131 C12,122.66666666666666 11.999999999999972,114.33333333333333 12,106.41666666666667 C12,98.5 12,91 153.68229166666669,76" class="clickable"/></g><path d="M 153.68229166666669,76 L 160.68229166666669,73.5 L 160.68229166666669,78.5 Z" transform="rotate(173.95656945891506 153.68229166666669 76)" class="arrow" style="fill:rgb(48, 48, 48);stroke-linejoin:miter;stroke-miterlimit:2;"/></g><g id="sprotty_fsm$miss_state/state$IDLE_to_fsm$miss_state/state$HIT_U_MISS" class="sprotty-edge transition" style="fill:none;stroke:rgb(48, 48, 48);stroke-linejoin:round;"><g><path d=" M169.54166666666669,306 C114,286 114,276 114,267.66666666666663 C114,259.3333333333333 114,252.66666666666666 114,246 C114,239.33333333333331 114,232.66666666666666 114,226.83333333333331 C114,221 114,216 148.9296875,206"/><path d=" M169.54166666666669,306 C114,286 114,276 114,267.66666666666663 C114,259.3333333333333 114,252.66666666666666 114,246 C114,239.33333333333331 114,232.66666666666666 114,226.83333333333331 C114,221 114,216 148.9296875,206" class="clickable"/></g><path d="M 148.9296875,206 L 155.9296875,203.5 L 155.9296875,208.5 Z" transform="rotate(164.02414292608285 148.9296875 206)" class="arrow" style="fill:rgb(48, 48, 48);stroke-linejoin:miter;stroke-miterlimit:2;"/></g><g id="sprotty_fsm$miss_state/state$CRIT_BYP_OK_to_fsm$miss_state/state$MISS_WAIT" class="sprotty-edge transition" style="fill:none;stroke:rgb(48, 48, 48);stroke-linejoin:round;"><g><path d=" M172.953125,76 C172.953125,76 88.32499999999999,91 78.921875,106"/><path d=" M172.953125,76 C172.953125,76 88.32499999999999,91 78.921875,106" class="clickable"/></g><path d="M 78.921875,106 L 85.921875,103.5 L 85.921875,108.5 Z" transform="rotate(-57.917429147996835 78.921875 106)" class="arrow" style="fill:rgb(48, 48, 48);stroke-linejoin:miter;stroke-miterlimit:2;"/></g><g id="sprotty_fsm$miss_state/state$CRIT_BYP_OK_to_fsm$miss_state/state$IDLE" class="sprotty-edge transition" style="fill:none;stroke:rgb(48, 48, 48);stroke-linejoin:round;"><g><path d=" M211.49479166666669,76 C285.8125,91 285.8125,98.5 285.8125,106.41666666666667 C285.8125,114.33333333333333 285.8125,122.66666666666666 285.8125,131 C285.8125,139.33333333333334 285.8125,147.66666666666669 285.8125,161.83333333333331 C285.8125,175.99999999999997 285.8125,195.99999999999997 285.8125,210.16666666666666 C285.8125,224.33333333333334 285.8125,232.66666666666666 285.8125,241 C285.8125,249.33333333333334 285.8125,257.66666666666663 285.8125,266.8333333333333 C285.8125,276 285.8125,286 199.54166666666669,306"/><path d=" M211.49479166666669,76 C285.8125,91 285.8125,98.5 285.8125,106.41666666666667 C285.8125,114.33333333333333 285.8125,122.66666666666666 285.8125,131 C285.8125,139.33333333333334 285.8125,147.66666666666669 285.8125,161.83333333333331 C285.8125,175.99999999999997 285.8125,195.99999999999997 285.8125,210.16666666666666 C285.8125,224.33333333333334 285.8125,232.66666666666666 285.8125,241 C285.8125,249.33333333333334 285.8125,257.66666666666663 285.8125,266.8333333333333 C285.8125,276 285.8125,286 199.54166666666669,306" class="clickable"/></g><path d="M 199.54166666666669,306 L 206.54166666666669,303.5 L 206.54166666666669,308.5 Z" transform="rotate(-13.052202501235016 199.54166666666669 306)" class="arrow" style="fill:rgb(48, 48, 48);stroke-linejoin:miter;stroke-miterlimit:2;"/></g><g id="sprotty_fsm$miss_state/state$CRIT_BYP_OK_to_fsm$miss_state/state$CRIT_WRD_RDY" class="sprotty-edge transition" style="fill:none;stroke:rgb(48, 48, 48);stroke-linejoin:round;"><g><path d=" M230.76562500000003,76 C361.3359375,91 361.3359375,98.5 361.3359375,106.41666666666666 C361.3359375,114.33333333333334 361.3359375,122.66666666666667 361.3359375,133.08333333333331 C361.3359375,143.5 361.3359375,156 361.3359375,166"/><path d=" M230.76562500000003,76 C361.3359375,91 361.3359375,98.5 361.3359375,106.41666666666666 C361.3359375,114.33333333333334 361.3359375,122.66666666666667 361.3359375,133.08333333333331 C361.3359375,143.5 361.3359375,156 361.3359375,166" class="clickable"/></g><path d="M 361.3359375,166 L 368.3359375,163.5 L 368.3359375,168.5 Z" transform="rotate(-90 361.3359375 166)" class="arrow" style="fill:rgb(48, 48, 48);stroke-linejoin:miter;stroke-miterlimit:2;"/></g><g id="sprotty_fsm$miss_state/state$CRIT_BYP_OK_to_fsm$miss_state/state$HIT_U_MISS" class="sprotty-edge transition" style="fill:none;stroke:rgb(48, 48, 48);stroke-linejoin:round;"><g><path d=" M192.22395833333334,76 C192.22395833333334,91 192.22395833333334,107.25 192.22395833333334,123.5 C192.22395833333334,139.75 192.22395833333334,156 192.22395833333334,166"/><path d=" M192.22395833333334,76 C192.22395833333334,91 192.22395833333334,107.25 192.22395833333334,123.5 C192.22395833333334,139.75 192.22395833333334,156 192.22395833333334,166" class="clickable"/></g><path d="M 192.22395833333334,166 L 199.22395833333334,163.5 L 199.22395833333334,168.5 Z" transform="rotate(-90 192.22395833333334 166)" class="arrow" style="fill:rgb(48, 48, 48);stroke-linejoin:miter;stroke-miterlimit:2;"/></g><g id="sprotty_fsm$miss_state/state$CRIT_WRD_RDY_to_fsm$miss_state/state$IDLE" class="sprotty-edge transition" style="fill:none;stroke:rgb(48, 48, 48);stroke-linejoin:round;"><g><path d=" M361.3359375,206 C361.3359375,216 361.3359375,228.49999999999997 361.3359375,238.91666666666666 C361.3359375,249.33333333333334 361.3359375,257.66666666666663 361.3359375,266.83333333333326 C361.3359375,276 361.3359375,286 209.54166666666669,306"/><path d=" M361.3359375,206 C361.3359375,216 361.3359375,228.49999999999997 361.3359375,238.91666666666666 C361.3359375,249.33333333333334 361.3359375,257.66666666666663 361.3359375,266.83333333333326 C361.3359375,276 361.3359375,286 209.54166666666669,306" class="clickable"/></g><path d="M 209.54166666666669,306 L 216.54166666666669,303.5 L 216.54166666666669,308.5 Z" transform="rotate(-7.505901135540098 209.54166666666669 306)" class="arrow" style="fill:rgb(48, 48, 48);stroke-linejoin:miter;stroke-miterlimit:2;"/></g><g id="sprotty_fsm$miss_state/state$MISS_WAIT_to_fsm$miss_state/state$HIT_U_MISS" class="sprotty-edge transition" style="fill:none;stroke:rgb(48, 48, 48);stroke-linejoin:round;"><g><path d=" M94.84375,146 C94.84375,146 126.21614583333334,156 157.58854166666669,166"/><path d=" M94.84375,146 C94.84375,146 126.21614583333334,156 157.58854166666669,166" class="clickable"/></g><path d="M 157.58854166666669,166 L 164.58854166666669,163.5 L 164.58854166666669,168.5 Z" transform="rotate(-162.320238071927 157.58854166666669 166)" class="arrow" style="fill:rgb(48, 48, 48);stroke-linejoin:miter;stroke-miterlimit:2;"/></g><g id="sprotty_fsm$miss_state/state$MISS_WAIT_to_fsm$miss_state/state$IDLE" class="sprotty-edge transition" style="fill:none;stroke:rgb(48, 48, 48);stroke-linejoin:round;"><g><path d=" M63,146 C63,156 63,171 63,183.5 C63,196 63,206 63,219.33333333333331 C63,232.66666666666666 63,249.33333333333331 63,262.66666666666663 C63,276 63,286 159.54166666666669,306"/><path d=" M63,146 C63,156 63,171 63,183.5 C63,196 63,206 63,219.33333333333331 C63,232.66666666666666 63,249.33333333333331 63,262.66666666666663 C63,276 63,286 159.54166666666669,306" class="clickable"/></g><path d="M 159.54166666666669,306 L 166.54166666666669,303.5 L 166.54166666666669,308.5 Z" transform="rotate(-168.2959129730552 159.54166666666669 306)" class="arrow" style="fill:rgb(48, 48, 48);stroke-linejoin:miter;stroke-miterlimit:2;"/></g><g id="sprotty_fsm$miss_state/state$HIT_U_MISS_to_fsm$miss_state/state$SCND_MISS" class="sprotty-edge transition" style="fill:none;stroke:rgb(48, 48, 48);stroke-linejoin:round;"><g><path d=" M174.90625,206 C174.90625,206 174.90625,216 174.90625,226"/><path d=" M174.90625,206 C174.90625,206 174.90625,216 174.90625,226" class="clickable"/></g><path d="M 174.90625,226 L 181.90625,223.5 L 181.90625,228.5 Z" transform="rotate(-90 174.90625 226)" class="arrow" style="fill:rgb(48, 48, 48);stroke-linejoin:miter;stroke-miterlimit:2;"/></g><g id="sprotty_fsm$miss_state/state$HIT_U_MISS_to_fsm$miss_state/state$IDLE" class="sprotty-edge transition" style="fill:none;stroke:rgb(48, 48, 48);stroke-linejoin:round;"><g><path d=" M200.8828125,206 C234.8125,216 234.8125,221 234.8125,226.83333333333331 C234.8125,232.66666666666666 234.8125,239.33333333333331 234.8125,246 C234.8125,252.66666666666666 234.8125,259.3333333333333 234.8125,267.66666666666663 C234.8125,276 234.8125,286 189.54166666666669,306"/><path d=" M200.8828125,206 C234.8125,216 234.8125,221 234.8125,226.83333333333331 C234.8125,232.66666666666666 234.8125,239.33333333333331 234.8125,246 C234.8125,252.66666666666666 234.8125,259.3333333333333 234.8125,267.66666666666663 C234.8125,276 234.8125,286 189.54166666666669,306" class="clickable"/></g><path d="M 189.54166666666669,306 L 196.54166666666669,303.5 L 196.54166666666669,308.5 Z" transform="rotate(-23.8351489040945 189.54166666666669 306)" class="arrow" style="fill:rgb(48, 48, 48);stroke-linejoin:miter;stroke-miterlimit:2;"/></g><g id="sprotty_fsm$miss_state/state$SCND_MISS_to_fsm$miss_state/state$IDLE" class="sprotty-edge transition" style="fill:none;stroke:rgb(48, 48, 48);stroke-linejoin:round;"><g><path d=" M174.90625,266 C174.90625,266 175.36979166666669,286 179.54166666666669,306"/><path d=" M174.90625,266 C174.90625,266 175.36979166666669,286 179.54166666666669,306" class="clickable"/></g><path d="M 179.54166666666669,306 L 186.54166666666669,303.5 L 186.54166666666669,308.5 Z" transform="rotate(-101.78258829956356 179.54166666666669 306)" class="arrow" style="fill:rgb(48, 48, 48);stroke-linejoin:miter;stroke-miterlimit:2;"/></g></g></g></svg>