<svg xmlns="http://www.w3.org/2000/svg" id="sprotty_work.dec_trigger" class="sprotty-graph sprotty-block-diagram blockdiagram" style="font-family:&quot;Noto Sans&quot;, Helvetica, Arial, sans-serif;perspective-origin:0px 0px;transform-origin:0px 0px;" version="1.1" viewBox="7 7 731.6875 438" width="731.6875" height="438"><g transform="scale(1) translate(0,0)"><g id="sprotty_ArchitectureBlockImpl$dec_trigger" class="architecture" transform="translate(12, 12)"><g class="sprotty-block" style="fill:rgb(255, 255, 255);stroke:rgb(48, 48, 48);stroke-dasharray:0px;"><rect x="0" y="0" rx="1" ry="1" width="721.6875" height="428"/><text x="360.84375" y="12" class="sprotty-block-name" style="cursor:pointer;font-weight:700;perspective-origin:360.859px 0px;fill:rgb(48, 48, 48);stroke:rgba(0, 0, 0, 0);dominant-baseline:middle;text-anchor:middle;">dec_trigger</text><line x1="0" y1="20" x2="721.6875" y2="20"/></g><g id="sprotty_ArchitectureBlockImpl$dec_trigger/GenerateStatementBlockImpl$null7/GPortImpl$dec_i0_trigger_match_d_to_ArchitectureBlockImpl$dec_trigger/BPortImpl$dec_i0_trigger_match_d" class="sprotty-edge thick edge" style="fill:none;stroke:rgb(112, 112, 112);stroke-linejoin:round;stroke-width:3px;"><g><path d="M 563.6875 124 L 721.6875 124 "/><path d="M 563.6875 124 L 721.6875 124 " class="clickable"/></g></g><g id="sprotty_ArchitectureBlockImpl$dec_trigger/GenerateStatementBlockImpl$null7/GPortImpl$dec_i1_trigger_match_d_to_ArchitectureBlockImpl$dec_trigger/BPortImpl$dec_i1_trigger_match_d" class="sprotty-edge thick edge" style="fill:none;stroke:rgb(112, 112, 112);stroke-linejoin:round;stroke-width:3px;"><g><path d="M 563.6875 259 L 721.6875 259 "/><path d="M 563.6875 259 L 721.6875 259 " class="clickable"/></g></g><g id="sprotty_ArchitectureBlockImpl$dec_trigger/BPortImpl$trigger_pkt_any_to_ArchitectureBlockImpl$dec_trigger/GenerateStatementBlockImpl$null7/GPortImpl$trigger_pkt_any" class="sprotty-edge thick edge" style="fill:none;stroke:rgb(112, 112, 112);stroke-linejoin:round;stroke-width:3px;"><g><path d="M 0 266 L 118.21875 266 C 119.21875 266 120.21875 267 120.21875 268 L 120.21875 288 C 120.21875 289 121.21875 290 122.21875 290 L 130.21875 290 "/><path d="M 0 266 L 118.21875 266 C 119.21875 266 120.21875 267 120.21875 268 L 120.21875 288 C 120.21875 289 121.21875 290 122.21875 290 L 130.21875 290 " class="clickable"/></g></g><g id="sprotty_ArchitectureBlockImpl$dec_trigger/BPortImpl$dec_i0_pc_d_to_ArchitectureBlockImpl$dec_trigger/GenerateStatementBlockImpl$null7/GPortImpl$dec_i0_pc_d" class="sprotty-edge thick edge" style="fill:none;stroke:rgb(112, 112, 112);stroke-linejoin:round;stroke-width:3px;"><g><path d="M 0 124 L 130.21875 124 "/><path d="M 0 124 L 130.21875 124 " class="clickable"/></g></g><g id="sprotty_ArchitectureBlockImpl$dec_trigger/BPortImpl$dec_i1_pc_d_to_ArchitectureBlockImpl$dec_trigger/GenerateStatementBlockImpl$null7/GPortImpl$dec_i1_pc_d" class="sprotty-edge thick edge" style="fill:none;stroke:rgb(112, 112, 112);stroke-linejoin:round;stroke-width:3px;"><g><path d="M 0 300 L 130.21875 300 "/><path d="M 0 300 L 130.21875 300 " class="clickable"/></g></g><g id="sprotty_ArchitectureBlockImpl$dec_trigger/GenerateStatementBlockImpl$null7" class="generate" transform="translate(130.21875, 35)"><g class="sprotty-block sprotty-block-generate" style="fill:rgb(255, 255, 255);stroke:rgb(48, 48, 48);stroke-dasharray:0px;"><rect x="0" y="0" rx="1" ry="1" width="433.46875" height="290" style="stroke-dasharray:3px, 1px;"/><text x="216.734375" y="12" class="sprotty-block-name" style="cursor:pointer;font-weight:700;fill:rgb(48, 48, 48);stroke:rgba(0, 0, 0, 0);dominant-baseline:middle;text-anchor:middle;"/></g><g id="sprotty_ArchitectureBlockImpl$dec_trigger/GenerateStatementBlockImpl$null7/AssignmentBlockImpl$dec_i0_trigger_match_d/GPortImpl$dec_i0_trigger_match_dOUT_to_ArchitectureBlockImpl$dec_trigger/GenerateStatementBlockImpl$null7/GPortImpl$dec_i0_trigger_match_d" class="sprotty-edge thick edge" style="fill:none;stroke:rgb(112, 112, 112);stroke-linejoin:round;stroke-width:3px;"><g><path d="M 418.46875 89 L 433.46875 89 "/><path d="M 418.46875 89 L 433.46875 89 " class="clickable"/></g></g><g id="sprotty_ArchitectureBlockImpl$dec_trigger/GenerateStatementBlockImpl$null7/AssignmentBlockImpl$dec_i1_trigger_match_d/GPortImpl$dec_i1_trigger_match_dOUT_to_ArchitectureBlockImpl$dec_trigger/GenerateStatementBlockImpl$null7/GPortImpl$dec_i1_trigger_match_d" class="sprotty-edge thick edge" style="fill:none;stroke:rgb(112, 112, 112);stroke-linejoin:round;stroke-width:3px;"><g><path d="M 418.46875 224 L 433.46875 224 "/><path d="M 418.46875 224 L 433.46875 224 " class="clickable"/></g></g><g id="sprotty_ArchitectureBlockImpl$dec_trigger/GenerateStatementBlockImpl$null7/GPortImpl$trigger_pkt_any_to_ArchitectureBlockImpl$dec_trigger/GenerateStatementBlockImpl$null7/InstantiationBlockImpl$trigger_i0_match/BPortImpl$mask" class="sprotty-edge thick edge" style="fill:none;stroke:rgb(112, 112, 112);stroke-linejoin:round;stroke-width:3px;"><g><path d="M 0 255 L 23 255 C 24 255 25 254 25 253 L 25 18 C 25 17 26 16 27 16 L 72.4375 16 C 73.4375 16 74.4375 17 74.4375 18 L 74.4375 64 C 74.4375 65 75.4375 66 76.4375 66 L 84.4375 66 "/><path d="M 0 255 L 23 255 C 24 255 25 254 25 253 L 25 18 C 25 17 26 16 27 16 L 72.4375 16 C 73.4375 16 74.4375 17 74.4375 18 L 74.4375 64 C 74.4375 65 75.4375 66 76.4375 66 L 84.4375 66 " class="clickable"/></g><circle r="3" id="sprotty_ArchitectureBlockImpl$dec_trigger/GenerateStatementBlockImpl$null7/GPortImpl$trigger_pkt_any_to_ArchitectureBlockImpl$dec_trigger/GenerateStatementBlockImpl$null7/InstantiationBlockImpl$trigger_i0_match/BPortImpl$mask/junction0" transform="translate(25, 255)" class="sprotty-junction thick" style="fill:rgb(112, 112, 112);stroke:none;"/><circle r="3" id="sprotty_ArchitectureBlockImpl$dec_trigger/GenerateStatementBlockImpl$null7/GPortImpl$trigger_pkt_any_to_ArchitectureBlockImpl$dec_trigger/GenerateStatementBlockImpl$null7/InstantiationBlockImpl$trigger_i0_match/BPortImpl$mask/junction1" transform="translate(74.4375, 16)" class="sprotty-junction thick" style="fill:rgb(112, 112, 112);stroke:none;"/></g><g id="sprotty_ArchitectureBlockImpl$dec_trigger/GenerateStatementBlockImpl$null7/GPortImpl$trigger_pkt_any_to_ArchitectureBlockImpl$dec_trigger/GenerateStatementBlockImpl$null7/InstantiationBlockImpl$trigger_i0_match/BPortImpl$masken" class="sprotty-edge thick edge" style="fill:none;stroke:rgb(112, 112, 112);stroke-linejoin:round;stroke-width:3px;"><g><path d="M 0 255 L 23 255 C 24 255 25 254 25 253 L 25 153 C 25 152 26 151 27 151 L 72.4375 151 C 73.4375 151 74.4375 150 74.4375 149 L 74.4375 124 C 74.4375 123 75.4375 122 76.4375 122 L 84.4375 122 "/><path d="M 0 255 L 23 255 C 24 255 25 254 25 253 L 25 153 C 25 152 26 151 27 151 L 72.4375 151 C 73.4375 151 74.4375 150 74.4375 149 L 74.4375 124 C 74.4375 123 75.4375 122 76.4375 122 L 84.4375 122 " class="clickable"/></g><circle r="3" id="sprotty_ArchitectureBlockImpl$dec_trigger/GenerateStatementBlockImpl$null7/GPortImpl$trigger_pkt_any_to_ArchitectureBlockImpl$dec_trigger/GenerateStatementBlockImpl$null7/InstantiationBlockImpl$trigger_i0_match/BPortImpl$masken/junction0" transform="translate(25, 151)" class="sprotty-junction thick" style="fill:rgb(112, 112, 112);stroke:none;"/><circle r="3" id="sprotty_ArchitectureBlockImpl$dec_trigger/GenerateStatementBlockImpl$null7/GPortImpl$trigger_pkt_any_to_ArchitectureBlockImpl$dec_trigger/GenerateStatementBlockImpl$null7/InstantiationBlockImpl$trigger_i0_match/BPortImpl$masken/junction1" transform="translate(74.4375, 151)" class="sprotty-junction thick" style="fill:rgb(112, 112, 112);stroke:none;"/></g><g id="sprotty_ArchitectureBlockImpl$dec_trigger/GenerateStatementBlockImpl$null7/GPortImpl$trigger_pkt_any_to_ArchitectureBlockImpl$dec_trigger/GenerateStatementBlockImpl$null7/InstantiationBlockImpl$trigger_i1_match/BPortImpl$mask" class="sprotty-edge thick edge" style="fill:none;stroke:rgb(112, 112, 112);stroke-linejoin:round;stroke-width:3px;"><g><path d="M 0 255 L 23 255 C 24 255 25 254 25 253 L 25 153 C 25 152 26 151 27 151 L 72.4375 151 C 73.4375 151 74.4375 152 74.4375 153 L 74.4375 199 C 74.4375 200 75.4375 201 76.4375 201 L 84.4375 201 "/><path d="M 0 255 L 23 255 C 24 255 25 254 25 253 L 25 153 C 25 152 26 151 27 151 L 72.4375 151 C 73.4375 151 74.4375 152 74.4375 153 L 74.4375 199 C 74.4375 200 75.4375 201 76.4375 201 L 84.4375 201 " class="clickable"/></g></g><g id="sprotty_ArchitectureBlockImpl$dec_trigger/GenerateStatementBlockImpl$null7/GPortImpl$trigger_pkt_any_to_ArchitectureBlockImpl$dec_trigger/GenerateStatementBlockImpl$null7/InstantiationBlockImpl$trigger_i1_match/BPortImpl$masken" class="sprotty-edge thick edge" style="fill:none;stroke:rgb(112, 112, 112);stroke-linejoin:round;stroke-width:3px;"><g><path d="M 0 255 L 74.4375 255 L 74.4375 257 L 84.4375 257 "/><path d="M 0 255 L 74.4375 255 L 74.4375 257 L 84.4375 257 " class="clickable"/></g></g><g id="sprotty_ArchitectureBlockImpl$dec_trigger/GenerateStatementBlockImpl$null7/GPortImpl$trigger_pkt_any_to_ArchitectureBlockImpl$dec_trigger/GenerateStatementBlockImpl$null7/AssignmentBlockImpl$dec_i0_match_data/GPortImpl$trigger_pkt_anyIN" class="sprotty-edge thick edge" style="fill:none;stroke:rgb(112, 112, 112);stroke-linejoin:round;stroke-width:3px;"><g><path d="M 0 255 L 23 255 C 24 255 25 254 25 253 L 25 101 C 25 100 26 99 27 99 L 45 99 "/><path d="M 0 255 L 23 255 C 24 255 25 254 25 253 L 25 101 C 25 100 26 99 27 99 L 45 99 " class="clickable"/></g><circle r="3" id="sprotty_ArchitectureBlockImpl$dec_trigger/GenerateStatementBlockImpl$null7/GPortImpl$trigger_pkt_any_to_ArchitectureBlockImpl$dec_trigger/GenerateStatementBlockImpl$null7/AssignmentBlockImpl$dec_i0_match_data/GPortImpl$trigger_pkt_anyIN/junction0" transform="translate(25, 99)" class="sprotty-junction thick" style="fill:rgb(112, 112, 112);stroke:none;"/></g><g id="sprotty_ArchitectureBlockImpl$dec_trigger/GenerateStatementBlockImpl$null7/GPortImpl$dec_i0_pc_d_to_ArchitectureBlockImpl$dec_trigger/GenerateStatementBlockImpl$null7/AssignmentBlockImpl$dec_i0_match_data/GPortImpl$dec_i0_pc_dIN" class="sprotty-edge thick edge" style="fill:none;stroke:rgb(112, 112, 112);stroke-linejoin:round;stroke-width:3px;"><g><path d="M 0 89 L 45 89 "/><path d="M 0 89 L 45 89 " class="clickable"/></g></g><g id="sprotty_ArchitectureBlockImpl$dec_trigger/GenerateStatementBlockImpl$null7/GPortImpl$trigger_pkt_any_to_ArchitectureBlockImpl$dec_trigger/GenerateStatementBlockImpl$null7/AssignmentBlockImpl$dec_i1_match_data/GPortImpl$trigger_pkt_anyIN" class="sprotty-edge thick edge" style="fill:none;stroke:rgb(112, 112, 112);stroke-linejoin:round;stroke-width:3px;"><g><path d="M 0 255 L 23 255 C 24 255 25 254 25 253 L 25 226 C 25 225 26 224 27 224 L 45 224 "/><path d="M 0 255 L 23 255 C 24 255 25 254 25 253 L 25 226 C 25 225 26 224 27 224 L 45 224 " class="clickable"/></g><circle r="3" id="sprotty_ArchitectureBlockImpl$dec_trigger/GenerateStatementBlockImpl$null7/GPortImpl$trigger_pkt_any_to_ArchitectureBlockImpl$dec_trigger/GenerateStatementBlockImpl$null7/AssignmentBlockImpl$dec_i1_match_data/GPortImpl$trigger_pkt_anyIN/junction0" transform="translate(25, 224)" class="sprotty-junction thick" style="fill:rgb(112, 112, 112);stroke:none;"/></g><g id="sprotty_ArchitectureBlockImpl$dec_trigger/GenerateStatementBlockImpl$null7/GPortImpl$dec_i1_pc_d_to_ArchitectureBlockImpl$dec_trigger/GenerateStatementBlockImpl$null7/AssignmentBlockImpl$dec_i1_match_data/GPortImpl$dec_i1_pc_dIN" class="sprotty-edge thick edge" style="fill:none;stroke:rgb(112, 112, 112);stroke-linejoin:round;stroke-width:3px;"><g><path d="M 0 265 L 33 265 C 34 265 35 264 35 263 L 35 236 C 35 235 36 234 37 234 L 45 234 "/><path d="M 0 265 L 33 265 C 34 265 35 264 35 263 L 35 236 C 35 235 36 234 37 234 L 45 234 " class="clickable"/></g></g><g id="sprotty_ArchitectureBlockImpl$dec_trigger/GenerateStatementBlockImpl$null7/GPortImpl$trigger_pkt_any_to_ArchitectureBlockImpl$dec_trigger/GenerateStatementBlockImpl$null7/AssignmentBlockImpl$dec_i0_trigger_match_d/GPortImpl$trigger_pkt_anyIN" class="sprotty-edge thick edge" style="fill:none;stroke:rgb(112, 112, 112);stroke-linejoin:round;stroke-width:3px;"><g><path d="M 0 255 L 23 255 C 24 255 25 254 25 253 L 25 18 C 25 17 26 16 27 16 L 387.03125 16 C 388.03125 16 389.03125 17 389.03125 18 L 389.03125 82 C 389.03125 83 390.03125 84 391.03125 84 L 399.03125 84 "/><path d="M 0 255 L 23 255 C 24 255 25 254 25 253 L 25 18 C 25 17 26 16 27 16 L 387.03125 16 C 388.03125 16 389.03125 17 389.03125 18 L 389.03125 82 C 389.03125 83 390.03125 84 391.03125 84 L 399.03125 84 " class="clickable"/></g></g><g id="sprotty_ArchitectureBlockImpl$dec_trigger/GenerateStatementBlockImpl$null7/GPortImpl$trigger_pkt_any_to_ArchitectureBlockImpl$dec_trigger/GenerateStatementBlockImpl$null7/AssignmentBlockImpl$dec_i1_trigger_match_d/GPortImpl$trigger_pkt_anyIN" class="sprotty-edge thick edge" style="fill:none;stroke:rgb(112, 112, 112);stroke-linejoin:round;stroke-width:3px;"><g><path d="M 0 255 L 23 255 C 24 255 25 254 25 253 L 25 153 C 25 152 26 151 27 151 L 387.03125 151 C 388.03125 151 389.03125 152 389.03125 153 L 389.03125 217 C 389.03125 218 390.03125 219 391.03125 219 L 399.03125 219 "/><path d="M 0 255 L 23 255 C 24 255 25 254 25 253 L 25 153 C 25 152 26 151 27 151 L 387.03125 151 C 388.03125 151 389.03125 152 389.03125 153 L 389.03125 217 C 389.03125 218 390.03125 219 391.03125 219 L 399.03125 219 " class="clickable"/></g></g><g id="sprotty_ArchitectureBlockImpl$dec_trigger/GenerateStatementBlockImpl$null7/InstantiationBlockImpl$trigger_i1_match/BPortImpl$match_to_ArchitectureBlockImpl$dec_trigger/GenerateStatementBlockImpl$null7/AssignmentBlockImpl$dec_i1_trigger_match_d/GPortImpl$dec_i1_trigger_data_matchIN" class="sprotty-edge thick edge" style="fill:none;stroke:rgb(112, 112, 112);stroke-linejoin:round;stroke-width:3px;"><g><path d="M 379.03125 229 L 399.03125 229 "/><path d="M 379.03125 229 L 399.03125 229 " class="clickable"/></g></g><g id="sprotty_ArchitectureBlockImpl$dec_trigger/GenerateStatementBlockImpl$null7/InstantiationBlockImpl$trigger_i0_match/BPortImpl$match_to_ArchitectureBlockImpl$dec_trigger/GenerateStatementBlockImpl$null7/AssignmentBlockImpl$dec_i0_trigger_match_d/GPortImpl$dec_i0_trigger_data_matchIN" class="sprotty-edge thick edge" style="fill:none;stroke:rgb(112, 112, 112);stroke-linejoin:round;stroke-width:3px;"><g><path d="M 379.03125 94 L 399.03125 94 "/><path d="M 379.03125 94 L 399.03125 94 " class="clickable"/></g></g><g id="sprotty_ArchitectureBlockImpl$dec_trigger/GenerateStatementBlockImpl$null7/AssignmentBlockImpl$dec_i1_match_data/GPortImpl$dec_i1_match_dataOUT_to_ArchitectureBlockImpl$dec_trigger/GenerateStatementBlockImpl$null7/InstantiationBlockImpl$trigger_i1_match/BPortImpl$data" class="sprotty-edge thick edge" style="fill:none;stroke:rgb(112, 112, 112);stroke-linejoin:round;stroke-width:3px;"><g><path d="M 64.4375 229 L 84.4375 229 "/><path d="M 64.4375 229 L 84.4375 229 " class="clickable"/></g></g><g id="sprotty_ArchitectureBlockImpl$dec_trigger/GenerateStatementBlockImpl$null7/AssignmentBlockImpl$dec_i0_match_data/GPortImpl$dec_i0_match_dataOUT_to_ArchitectureBlockImpl$dec_trigger/GenerateStatementBlockImpl$null7/InstantiationBlockImpl$trigger_i0_match/BPortImpl$data" class="sprotty-edge thick edge" style="fill:none;stroke:rgb(112, 112, 112);stroke-linejoin:round;stroke-width:3px;"><g><path d="M 64.4375 94 L 84.4375 94 "/><path d="M 64.4375 94 L 84.4375 94 " class="clickable"/></g></g><g id="sprotty_ArchitectureBlockImpl$dec_trigger/GenerateStatementBlockImpl$null7/AssignmentBlockImpl$dec_i1_trigger_match_d" class="statement" transform="translate(399.03125, 209)"><rect x="0" y="0" rx="10" ry="5" width="19.4375" height="30" class="sprotty-node" style="fill:rgb(245, 245, 245);stroke:rgb(112, 112, 112);"/><text class="clickable sprotty-label statementtype" id="sprotty_ArchitectureBlockImpl$dec_trigger/GenerateStatementBlockImpl$null7/AssignmentBlockImpl$dec_i1_trigger_match_d/labeltype" transform="translate(5, 9) translate(4.71875, 9.5)" style="cursor:default;font-size:8px;font-weight:700;perspective-origin:0px 0px;fill:rgb(112, 112, 112);text-anchor:middle;">&lt;=</text><g id="sprotty_ArchitectureBlockImpl$dec_trigger/GenerateStatementBlockImpl$null7/AssignmentBlockImpl$dec_i1_trigger_match_d/GPortImpl$dec_i1_trigger_data_matchIN" class="sprotty-hidden hidden" transform="translate(0, 20)" style="display:block;height:0px;width:0px;"/><g id="sprotty_ArchitectureBlockImpl$dec_trigger/GenerateStatementBlockImpl$null7/AssignmentBlockImpl$dec_i1_trigger_match_d/GPortImpl$trigger_pkt_anyIN" class="sprotty-hidden hidden" transform="translate(0, 10)" style="display:block;height:0px;width:0px;"/><g id="sprotty_ArchitectureBlockImpl$dec_trigger/GenerateStatementBlockImpl$null7/AssignmentBlockImpl$dec_i1_trigger_match_d/GPortImpl$dec_i1_trigger_match_dOUT" class="sprotty-hidden hidden" transform="translate(19.4375, 15)" style="display:block;height:0px;width:0px;"/></g><g id="sprotty_ArchitectureBlockImpl$dec_trigger/GenerateStatementBlockImpl$null7/AssignmentBlockImpl$dec_i0_trigger_match_d" class="statement" transform="translate(399.03125, 74)"><rect x="0" y="0" rx="10" ry="5" width="19.4375" height="30" class="sprotty-node" style="fill:rgb(245, 245, 245);stroke:rgb(112, 112, 112);"/><text class="clickable sprotty-label statementtype" id="sprotty_ArchitectureBlockImpl$dec_trigger/GenerateStatementBlockImpl$null7/AssignmentBlockImpl$dec_i0_trigger_match_d/labeltype" transform="translate(5, 9) translate(4.71875, 9.5)" style="cursor:default;font-size:8px;font-weight:700;perspective-origin:0px 0px;fill:rgb(112, 112, 112);text-anchor:middle;">&lt;=</text><g id="sprotty_ArchitectureBlockImpl$dec_trigger/GenerateStatementBlockImpl$null7/AssignmentBlockImpl$dec_i0_trigger_match_d/GPortImpl$dec_i0_trigger_data_matchIN" class="sprotty-hidden hidden" transform="translate(0, 20)" style="display:block;height:0px;width:0px;"/><g id="sprotty_ArchitectureBlockImpl$dec_trigger/GenerateStatementBlockImpl$null7/AssignmentBlockImpl$dec_i0_trigger_match_d/GPortImpl$trigger_pkt_anyIN" class="sprotty-hidden hidden" transform="translate(0, 10)" style="display:block;height:0px;width:0px;"/><g id="sprotty_ArchitectureBlockImpl$dec_trigger/GenerateStatementBlockImpl$null7/AssignmentBlockImpl$dec_i0_trigger_match_d/GPortImpl$dec_i0_trigger_match_dOUT" class="sprotty-hidden hidden" transform="translate(19.4375, 15)" style="display:block;height:0px;width:0px;"/></g><g id="sprotty_ArchitectureBlockImpl$dec_trigger/GenerateStatementBlockImpl$null7/AssignmentBlockImpl$dec_i1_match_data" class="statement" transform="translate(45, 214)"><rect x="0" y="0" rx="10" ry="5" width="19.4375" height="30" class="sprotty-node" style="fill:rgb(245, 245, 245);stroke:rgb(112, 112, 112);"/><text class="clickable sprotty-label statementtype" id="sprotty_ArchitectureBlockImpl$dec_trigger/GenerateStatementBlockImpl$null7/AssignmentBlockImpl$dec_i1_match_data/labeltype" transform="translate(5, 9) translate(4.71875, 9.5)" style="cursor:default;font-size:8px;font-weight:700;perspective-origin:0px 0px;fill:rgb(112, 112, 112);text-anchor:middle;">&lt;=</text><g id="sprotty_ArchitectureBlockImpl$dec_trigger/GenerateStatementBlockImpl$null7/AssignmentBlockImpl$dec_i1_match_data/GPortImpl$dec_i1_pc_dIN" class="sprotty-hidden hidden" transform="translate(0, 20)" style="display:block;height:0px;width:0px;"/><g id="sprotty_ArchitectureBlockImpl$dec_trigger/GenerateStatementBlockImpl$null7/AssignmentBlockImpl$dec_i1_match_data/GPortImpl$trigger_pkt_anyIN" class="sprotty-hidden hidden" transform="translate(0, 10)" style="display:block;height:0px;width:0px;"/><g id="sprotty_ArchitectureBlockImpl$dec_trigger/GenerateStatementBlockImpl$null7/AssignmentBlockImpl$dec_i1_match_data/GPortImpl$dec_i1_match_dataOUT" class="sprotty-hidden hidden" transform="translate(19.4375, 15)" style="display:block;height:0px;width:0px;"/></g><g id="sprotty_ArchitectureBlockImpl$dec_trigger/GenerateStatementBlockImpl$null7/AssignmentBlockImpl$dec_i0_match_data" class="statement" transform="translate(45, 79)"><rect x="0" y="0" rx="10" ry="5" width="19.4375" height="30" class="sprotty-node" style="fill:rgb(245, 245, 245);stroke:rgb(112, 112, 112);"/><text class="clickable sprotty-label statementtype" id="sprotty_ArchitectureBlockImpl$dec_trigger/GenerateStatementBlockImpl$null7/AssignmentBlockImpl$dec_i0_match_data/labeltype" transform="translate(5, 9) translate(4.71875, 9.5)" style="cursor:default;font-size:8px;font-weight:700;perspective-origin:0px 0px;fill:rgb(112, 112, 112);text-anchor:middle;">&lt;=</text><g id="sprotty_ArchitectureBlockImpl$dec_trigger/GenerateStatementBlockImpl$null7/AssignmentBlockImpl$dec_i0_match_data/GPortImpl$dec_i0_pc_dIN" class="sprotty-hidden hidden" transform="translate(0, 10)" style="display:block;height:0px;width:0px;"/><g id="sprotty_ArchitectureBlockImpl$dec_trigger/GenerateStatementBlockImpl$null7/AssignmentBlockImpl$dec_i0_match_data/GPortImpl$trigger_pkt_anyIN" class="sprotty-hidden hidden" transform="translate(0, 20)" style="display:block;height:0px;width:0px;"/><g id="sprotty_ArchitectureBlockImpl$dec_trigger/GenerateStatementBlockImpl$null7/AssignmentBlockImpl$dec_i0_match_data/GPortImpl$dec_i0_match_dataOUT" class="sprotty-hidden hidden" transform="translate(19.4375, 15)" style="display:block;height:0px;width:0px;"/></g><g id="sprotty_ArchitectureBlockImpl$dec_trigger/GenerateStatementBlockImpl$null7/InstantiationBlockImpl$trigger_i1_match" class="instantiation" transform="translate(84.4375, 163)"><g class="sprotty-block" style="fill:rgb(255, 255, 255);stroke:rgb(48, 48, 48);stroke-dasharray:0px;"><rect x="0" y="0" rx="1" ry="1" width="294.59375" height="112"/><text x="147.296875" y="12" class="sprotty-block-name" style="cursor:pointer;font-weight:700;perspective-origin:147.297px 0px;fill:rgb(48, 48, 48);stroke:rgba(0, 0, 0, 0);dominant-baseline:middle;text-anchor:middle;">trigger_i1_match : rvmaskandmatch</text><line x1="0" y1="20" x2="294.59375" y2="20"/></g><g id="sprotty_ArchitectureBlockImpl$dec_trigger/GenerateStatementBlockImpl$null7/InstantiationBlockImpl$trigger_i1_match/BPortImpl$masken" class="triangle" transform="translate(0, 94)"><path d="M 0,0 L 5,2.5 L 0,5 Z" transform="translate(-1.67, -2.5)" class="sprotty-port" style="fill:rgb(48, 48, 48);stroke:rgb(48, 48, 48);"/><text class="clickable sprotty-label port" id="sprotty_ArchitectureBlockImpl$dec_trigger/GenerateStatementBlockImpl$null7/InstantiationBlockImpl$trigger_i1_match/BPortImpl$masken/label" transform="translate(6, -9) translate(21.9375, 14)" style="cursor:default;font-size:12px;perspective-origin:0px 0px;fill:rgb(48, 48, 48);text-anchor:middle;">masken</text></g><g id="sprotty_ArchitectureBlockImpl$dec_trigger/GenerateStatementBlockImpl$null7/InstantiationBlockImpl$trigger_i1_match/BPortImpl$data" class="triangle" transform="translate(0, 66)"><path d="M 0,0 L 5,2.5 L 0,5 Z" transform="translate(-1.67, -2.5)" class="sprotty-port" style="fill:rgb(48, 48, 48);stroke:rgb(48, 48, 48);"/><text class="clickable sprotty-label port" id="sprotty_ArchitectureBlockImpl$dec_trigger/GenerateStatementBlockImpl$null7/InstantiationBlockImpl$trigger_i1_match/BPortImpl$data/label" transform="translate(6, -9) translate(12.53125, 14)" style="cursor:default;font-size:12px;perspective-origin:0px 0px;fill:rgb(48, 48, 48);text-anchor:middle;">data</text></g><g id="sprotty_ArchitectureBlockImpl$dec_trigger/GenerateStatementBlockImpl$null7/InstantiationBlockImpl$trigger_i1_match/BPortImpl$mask" class="triangle" transform="translate(0, 38)"><path d="M 0,0 L 5,2.5 L 0,5 Z" transform="translate(-1.67, -2.5)" class="sprotty-port" style="fill:rgb(48, 48, 48);stroke:rgb(48, 48, 48);"/><text class="clickable sprotty-label port" id="sprotty_ArchitectureBlockImpl$dec_trigger/GenerateStatementBlockImpl$null7/InstantiationBlockImpl$trigger_i1_match/BPortImpl$mask/label" transform="translate(6, -9) translate(15.0625, 14)" style="cursor:default;font-size:12px;perspective-origin:0px 0px;fill:rgb(48, 48, 48);text-anchor:middle;">mask</text></g><g id="sprotty_ArchitectureBlockImpl$dec_trigger/GenerateStatementBlockImpl$null7/InstantiationBlockImpl$trigger_i1_match/BPortImpl$match" class="triangle" transform="translate(294.59375, 66)"><path d="M 0,0 L 5,2.5 L 0,5 Z" transform="translate(-1.67, -2.5)" class="sprotty-port" style="fill:rgb(48, 48, 48);stroke:rgb(48, 48, 48);"/><text class="clickable sprotty-label port" id="sprotty_ArchitectureBlockImpl$dec_trigger/GenerateStatementBlockImpl$null7/InstantiationBlockImpl$trigger_i1_match/BPortImpl$match/label" transform="translate(-41.4375, -9) translate(17.71875, 14)" style="cursor:default;font-size:12px;perspective-origin:0px 0px;fill:rgb(48, 48, 48);text-anchor:middle;">match</text></g></g><g id="sprotty_ArchitectureBlockImpl$dec_trigger/GenerateStatementBlockImpl$null7/InstantiationBlockImpl$trigger_i0_match" class="instantiation" transform="translate(84.4375, 28)"><g class="sprotty-block" style="fill:rgb(255, 255, 255);stroke:rgb(48, 48, 48);stroke-dasharray:0px;"><rect x="0" y="0" rx="1" ry="1" width="294.59375" height="112"/><text x="147.296875" y="12" class="sprotty-block-name" style="cursor:pointer;font-weight:700;perspective-origin:147.297px 0px;fill:rgb(48, 48, 48);stroke:rgba(0, 0, 0, 0);dominant-baseline:middle;text-anchor:middle;">trigger_i0_match : rvmaskandmatch</text><line x1="0" y1="20" x2="294.59375" y2="20"/></g><g id="sprotty_ArchitectureBlockImpl$dec_trigger/GenerateStatementBlockImpl$null7/InstantiationBlockImpl$trigger_i0_match/BPortImpl$masken" class="triangle" transform="translate(0, 94)"><path d="M 0,0 L 5,2.5 L 0,5 Z" transform="translate(-1.67, -2.5)" class="sprotty-port" style="fill:rgb(48, 48, 48);stroke:rgb(48, 48, 48);"/><text class="clickable sprotty-label port" id="sprotty_ArchitectureBlockImpl$dec_trigger/GenerateStatementBlockImpl$null7/InstantiationBlockImpl$trigger_i0_match/BPortImpl$masken/label" transform="translate(6, -9) translate(21.9375, 14)" style="cursor:default;font-size:12px;perspective-origin:0px 0px;fill:rgb(48, 48, 48);text-anchor:middle;">masken</text></g><g id="sprotty_ArchitectureBlockImpl$dec_trigger/GenerateStatementBlockImpl$null7/InstantiationBlockImpl$trigger_i0_match/BPortImpl$data" class="triangle" transform="translate(0, 66)"><path d="M 0,0 L 5,2.5 L 0,5 Z" transform="translate(-1.67, -2.5)" class="sprotty-port" style="fill:rgb(48, 48, 48);stroke:rgb(48, 48, 48);"/><text class="clickable sprotty-label port" id="sprotty_ArchitectureBlockImpl$dec_trigger/GenerateStatementBlockImpl$null7/InstantiationBlockImpl$trigger_i0_match/BPortImpl$data/label" transform="translate(6, -9) translate(12.53125, 14)" style="cursor:default;font-size:12px;perspective-origin:0px 0px;fill:rgb(48, 48, 48);text-anchor:middle;">data</text></g><g id="sprotty_ArchitectureBlockImpl$dec_trigger/GenerateStatementBlockImpl$null7/InstantiationBlockImpl$trigger_i0_match/BPortImpl$mask" class="triangle" transform="translate(0, 38)"><path d="M 0,0 L 5,2.5 L 0,5 Z" transform="translate(-1.67, -2.5)" class="sprotty-port" style="fill:rgb(48, 48, 48);stroke:rgb(48, 48, 48);"/><text class="clickable sprotty-label port" id="sprotty_ArchitectureBlockImpl$dec_trigger/GenerateStatementBlockImpl$null7/InstantiationBlockImpl$trigger_i0_match/BPortImpl$mask/label" transform="translate(6, -9) translate(15.0625, 14)" style="cursor:default;font-size:12px;perspective-origin:0px 0px;fill:rgb(48, 48, 48);text-anchor:middle;">mask</text></g><g id="sprotty_ArchitectureBlockImpl$dec_trigger/GenerateStatementBlockImpl$null7/InstantiationBlockImpl$trigger_i0_match/BPortImpl$match" class="triangle" transform="translate(294.59375, 66)"><path d="M 0,0 L 5,2.5 L 0,5 Z" transform="translate(-1.67, -2.5)" class="sprotty-port" style="fill:rgb(48, 48, 48);stroke:rgb(48, 48, 48);"/><text class="clickable sprotty-label port" id="sprotty_ArchitectureBlockImpl$dec_trigger/GenerateStatementBlockImpl$null7/InstantiationBlockImpl$trigger_i0_match/BPortImpl$match/label" transform="translate(-41.4375, -9) translate(17.71875, 14)" style="cursor:default;font-size:12px;perspective-origin:0px 0px;fill:rgb(48, 48, 48);text-anchor:middle;">match</text></g></g><g id="sprotty_ArchitectureBlockImpl$dec_trigger/GenerateStatementBlockImpl$null7/GPortImpl$dec_i1_pc_d" class="triangle" transform="translate(0, 265)"><path d="M 0,0 L 5,2.5 L 0,5 Z" transform="translate(-1.67, -2.5)" class="sprotty-port" style="fill:rgb(48, 48, 48);stroke:rgb(48, 48, 48);"/></g><g id="sprotty_ArchitectureBlockImpl$dec_trigger/GenerateStatementBlockImpl$null7/GPortImpl$dec_i0_pc_d" class="triangle" transform="translate(0, 89)"><path d="M 0,0 L 5,2.5 L 0,5 Z" transform="translate(-1.67, -2.5)" class="sprotty-port" style="fill:rgb(48, 48, 48);stroke:rgb(48, 48, 48);"/></g><g id="sprotty_ArchitectureBlockImpl$dec_trigger/GenerateStatementBlockImpl$null7/GPortImpl$trigger_pkt_any" class="triangle" transform="translate(0, 255)"><path d="M 0,0 L 5,2.5 L 0,5 Z" transform="translate(-1.67, -2.5)" class="sprotty-port" style="fill:rgb(48, 48, 48);stroke:rgb(48, 48, 48);"/></g><g id="sprotty_ArchitectureBlockImpl$dec_trigger/GenerateStatementBlockImpl$null7/GPortImpl$dec_i0_trigger_match_d" class="triangle" transform="translate(433.46875, 89)"><path d="M 0,0 L 5,2.5 L 0,5 Z" transform="translate(-1.67, -2.5)" class="sprotty-port" style="fill:rgb(48, 48, 48);stroke:rgb(48, 48, 48);"/></g><g id="sprotty_ArchitectureBlockImpl$dec_trigger/GenerateStatementBlockImpl$null7/GPortImpl$dec_i1_trigger_match_d" class="triangle" transform="translate(433.46875, 224)"><path d="M 0,0 L 5,2.5 L 0,5 Z" transform="translate(-1.67, -2.5)" class="sprotty-port" style="fill:rgb(48, 48, 48);stroke:rgb(48, 48, 48);"/></g></g><g id="sprotty_ArchitectureBlockImpl$dec_trigger/BPortImpl$dec_i1_pc_d" class="triangle" transform="translate(0, 300)"><path d="M 0,0 L 5,2.5 L 0,5 Z" transform="translate(-1.67, -2.5)" class="sprotty-port" style="fill:rgb(48, 48, 48);stroke:rgb(48, 48, 48);"/><text class="clickable sprotty-label port" id="sprotty_ArchitectureBlockImpl$dec_trigger/BPortImpl$dec_i1_pc_d/label" transform="translate(6, 6) translate(35.640625, 14)" style="cursor:default;font-size:12px;perspective-origin:0px 0px;fill:rgb(48, 48, 48);text-anchor:middle;">dec_i1_pc_d</text></g><g id="sprotty_ArchitectureBlockImpl$dec_trigger/BPortImpl$dec_i0_pc_d" class="triangle" transform="translate(0, 124)"><path d="M 0,0 L 5,2.5 L 0,5 Z" transform="translate(-1.67, -2.5)" class="sprotty-port" style="fill:rgb(48, 48, 48);stroke:rgb(48, 48, 48);"/><text class="clickable sprotty-label port" id="sprotty_ArchitectureBlockImpl$dec_trigger/BPortImpl$dec_i0_pc_d/label" transform="translate(6, 6) translate(35.640625, 14)" style="cursor:default;font-size:12px;perspective-origin:0px 0px;fill:rgb(48, 48, 48);text-anchor:middle;">dec_i0_pc_d</text></g><g id="sprotty_ArchitectureBlockImpl$dec_trigger/BPortImpl$trigger_pkt_any" class="triangle" transform="translate(0, 266)"><path d="M 0,0 L 5,2.5 L 0,5 Z" transform="translate(-1.67, -2.5)" class="sprotty-port" style="fill:rgb(48, 48, 48);stroke:rgb(48, 48, 48);"/><text class="clickable sprotty-label port" id="sprotty_ArchitectureBlockImpl$dec_trigger/BPortImpl$trigger_pkt_any/label" transform="translate(6, 6) translate(44.609375, 14)" style="cursor:default;font-size:12px;perspective-origin:0px 0px;fill:rgb(48, 48, 48);text-anchor:middle;">trigger_pkt_any</text></g><g id="sprotty_ArchitectureBlockImpl$dec_trigger/BPortImpl$rst_l" class="triangle" transform="translate(0, 345)"><path d="M 0,0 L 5,2.5 L 0,5 Z" transform="translate(-1.67, -2.5)" class="sprotty-port" style="fill:rgb(48, 48, 48);stroke:rgb(48, 48, 48);"/><text class="clickable sprotty-label port" id="sprotty_ArchitectureBlockImpl$dec_trigger/BPortImpl$rst_l/label" transform="translate(6, 6) translate(12.3125, 14)" style="cursor:default;font-size:12px;perspective-origin:0px 0px;fill:rgb(48, 48, 48);text-anchor:middle;">rst_l</text></g><g id="sprotty_ArchitectureBlockImpl$dec_trigger/BPortImpl$clk" class="triangle" transform="translate(0, 389)"><path d="M 0,0 L 5,2.5 L 0,5 Z" transform="translate(-1.67, -2.5)" class="sprotty-port" style="fill:rgb(48, 48, 48);stroke:rgb(48, 48, 48);"/><text class="clickable sprotty-label port" id="sprotty_ArchitectureBlockImpl$dec_trigger/BPortImpl$clk/label" transform="translate(6, 6) translate(8.078125, 14)" style="cursor:default;font-size:12px;perspective-origin:0px 0px;fill:rgb(48, 48, 48);text-anchor:middle;">clk</text></g><g id="sprotty_ArchitectureBlockImpl$dec_trigger/BPortImpl$dec_i0_trigger_match_d" class="triangle" transform="translate(721.6875, 124)"><path d="M 0,0 L 5,2.5 L 0,5 Z" transform="translate(-1.67, -2.5)" class="sprotty-port" style="fill:rgb(48, 48, 48);stroke:rgb(48, 48, 48);"/><text class="clickable sprotty-label port" id="sprotty_ArchitectureBlockImpl$dec_trigger/BPortImpl$dec_i0_trigger_match_d/label" transform="translate(-143, 6) translate(68.5, 14)" style="cursor:default;font-size:12px;perspective-origin:0px 0px;fill:rgb(48, 48, 48);text-anchor:middle;">dec_i0_trigger_match_d</text></g><g id="sprotty_ArchitectureBlockImpl$dec_trigger/BPortImpl$dec_i1_trigger_match_d" class="triangle" transform="translate(721.6875, 259)"><path d="M 0,0 L 5,2.5 L 0,5 Z" transform="translate(-1.67, -2.5)" class="sprotty-port" style="fill:rgb(48, 48, 48);stroke:rgb(48, 48, 48);"/><text class="clickable sprotty-label port" id="sprotty_ArchitectureBlockImpl$dec_trigger/BPortImpl$dec_i1_trigger_match_d/label" transform="translate(-143, 6) translate(68.5, 14)" style="cursor:default;font-size:12px;perspective-origin:0px 0px;fill:rgb(48, 48, 48);text-anchor:middle;">dec_i1_trigger_match_d</text></g></g></g></svg>