<svg xmlns="http://www.w3.org/2000/svg" id="sprotty_work.lsu_trigger" class="sprotty-graph sprotty-block-diagram blockdiagram" style="font-family:&quot;Noto Sans&quot;, Helvetica, Arial, sans-serif;perspective-origin:0px 0px;transform-origin:0px 0px;" version="1.1" viewBox="7 7 739.96875 401" width="739.96875" height="401"><g transform="scale(1) translate(0,0)"><g id="sprotty_ArchitectureBlockImpl$lsu_trigger" class="architecture" transform="translate(12, 12)"><g class="sprotty-block" style="fill:rgb(255, 255, 255);stroke:rgb(48, 48, 48);stroke-dasharray:0px;"><rect x="0" y="0" rx="1" ry="1" width="729.96875" height="391"/><text x="364.984375" y="12" class="sprotty-block-name" style="cursor:pointer;font-weight:700;perspective-origin:365px 0px;fill:rgb(48, 48, 48);stroke:rgba(0, 0, 0, 0);dominant-baseline:middle;text-anchor:middle;">lsu_trigger</text><line x1="0" y1="20" x2="729.96875" y2="20"/></g><g id="sprotty_ArchitectureBlockImpl$lsu_trigger/GenerateStatementBlockImpl$null9/GPortImpl$lsu_trigger_match_dc3_to_ArchitectureBlockImpl$lsu_trigger/BPortImpl$lsu_trigger_match_dc3" class="sprotty-edge thick edge" style="fill:none;stroke:rgb(112, 112, 112);stroke-linejoin:round;stroke-width:3px;"><g><path d="M 579.75 129 L 729.96875 129 "/><path d="M 579.75 129 L 729.96875 129 " class="clickable"/></g></g><g id="sprotty_ArchitectureBlockImpl$lsu_trigger/BPortImpl$lsu_pkt_dc3_to_ArchitectureBlockImpl$lsu_trigger/AssignmentBlockImpl$store_data_trigger_dc3/GPortImpl$lsu_pkt_dc3IN" class="sprotty-edge thick edge" style="fill:none;stroke:rgb(112, 112, 112);stroke-linejoin:round;stroke-width:3px;"><g><path d="M 0 95 L 118.21875 95 C 119.21875 95 120.21875 96 120.21875 97 L 120.21875 161 C 120.21875 162 121.21875 163 122.21875 163 L 130.21875 163 "/><path d="M 0 95 L 118.21875 95 C 119.21875 95 120.21875 96 120.21875 97 L 120.21875 161 C 120.21875 162 121.21875 163 122.21875 163 L 130.21875 163 " class="clickable"/></g><circle r="3" id="sprotty_ArchitectureBlockImpl$lsu_trigger/BPortImpl$lsu_pkt_dc3_to_ArchitectureBlockImpl$lsu_trigger/AssignmentBlockImpl$store_data_trigger_dc3/GPortImpl$lsu_pkt_dc3IN/junction0" transform="translate(120.21875, 95)" class="sprotty-junction thick" style="fill:rgb(112, 112, 112);stroke:none;"/></g><g id="sprotty_ArchitectureBlockImpl$lsu_trigger/BPortImpl$store_data_dc3_to_ArchitectureBlockImpl$lsu_trigger/AssignmentBlockImpl$store_data_trigger_dc3/GPortImpl$store_data_dc3IN" class="sprotty-edge thick edge" style="fill:none;stroke:rgb(112, 112, 112);stroke-linejoin:round;stroke-width:3px;"><g><path d="M 0 173 L 130.21875 173 "/><path d="M 0 173 L 130.21875 173 " class="clickable"/></g></g><g id="sprotty_ArchitectureBlockImpl$lsu_trigger/BPortImpl$trigger_pkt_any_to_ArchitectureBlockImpl$lsu_trigger/GenerateStatementBlockImpl$null9/GPortImpl$trigger_pkt_any" class="sprotty-edge thick edge" style="fill:none;stroke:rgb(112, 112, 112);stroke-linejoin:round;stroke-width:3px;"><g><path d="M 0 61 L 169.65625 61 "/><path d="M 0 61 L 169.65625 61 " class="clickable"/></g></g><g id="sprotty_ArchitectureBlockImpl$lsu_trigger/BPortImpl$lsu_addr_dc3_to_ArchitectureBlockImpl$lsu_trigger/GenerateStatementBlockImpl$null9/GPortImpl$lsu_addr_dc3" class="sprotty-edge thick edge" style="fill:none;stroke:rgb(112, 112, 112);stroke-linejoin:round;stroke-width:3px;"><g><path d="M 0 139 L 169.65625 139 "/><path d="M 0 139 L 169.65625 139 " class="clickable"/></g></g><g id="sprotty_ArchitectureBlockImpl$lsu_trigger/BPortImpl$lsu_pkt_dc3_to_ArchitectureBlockImpl$lsu_trigger/GenerateStatementBlockImpl$null9/GPortImpl$lsu_pkt_dc3" class="sprotty-edge thick edge" style="fill:none;stroke:rgb(112, 112, 112);stroke-linejoin:round;stroke-width:3px;"><g><path d="M 0 95 L 157.65625 95 C 158.65625 95 159.65625 94 159.65625 93 L 159.65625 53 C 159.65625 52 160.65625 51 161.65625 51 L 169.65625 51 "/><path d="M 0 95 L 157.65625 95 C 158.65625 95 159.65625 94 159.65625 93 L 159.65625 53 C 159.65625 52 160.65625 51 161.65625 51 L 169.65625 51 " class="clickable"/></g></g><g id="sprotty_ArchitectureBlockImpl$lsu_trigger/AssignmentBlockImpl$store_data_trigger_dc3/GPortImpl$store_data_trigger_dc3OUT_to_ArchitectureBlockImpl$lsu_trigger/GenerateStatementBlockImpl$null9/GPortImpl$store_data_trigger_dc3" class="sprotty-edge thick edge" style="fill:none;stroke:rgb(112, 112, 112);stroke-linejoin:round;stroke-width:3px;"><g><path d="M 149.65625 168 L 157.65625 168 C 158.65625 168 159.65625 167 159.65625 166 L 159.65625 151 C 159.65625 150 160.65625 149 161.65625 149 L 169.65625 149 "/><path d="M 149.65625 168 L 157.65625 168 C 158.65625 168 159.65625 167 159.65625 166 L 159.65625 151 C 159.65625 150 160.65625 149 161.65625 149 L 169.65625 149 " class="clickable"/></g></g><g id="sprotty_ArchitectureBlockImpl$lsu_trigger/GenerateStatementBlockImpl$null9" class="generate" transform="translate(169.65625, 35)"><g class="sprotty-block sprotty-block-generate" style="fill:rgb(255, 255, 255);stroke:rgb(48, 48, 48);stroke-dasharray:0px;"><rect x="0" y="0" rx="1" ry="1" width="410.09375" height="165" style="stroke-dasharray:3px, 1px;"/><text x="205.046875" y="12" class="sprotty-block-name" style="cursor:pointer;font-weight:700;fill:rgb(48, 48, 48);stroke:rgba(0, 0, 0, 0);dominant-baseline:middle;text-anchor:middle;"/></g><g id="sprotty_ArchitectureBlockImpl$lsu_trigger/GenerateStatementBlockImpl$null9/AssignmentBlockImpl$lsu_trigger_match_dc3/GPortImpl$lsu_trigger_match_dc3OUT_to_ArchitectureBlockImpl$lsu_trigger/GenerateStatementBlockImpl$null9/GPortImpl$lsu_trigger_match_dc3" class="sprotty-edge thick edge" style="fill:none;stroke:rgb(112, 112, 112);stroke-linejoin:round;stroke-width:3px;"><g><path d="M 395.09375 94 L 410.09375 94 "/><path d="M 395.09375 94 L 410.09375 94 " class="clickable"/></g></g><g id="sprotty_ArchitectureBlockImpl$lsu_trigger/GenerateStatementBlockImpl$null9/GPortImpl$trigger_pkt_any_to_ArchitectureBlockImpl$lsu_trigger/GenerateStatementBlockImpl$null9/InstantiationBlockImpl$trigger_match/BPortImpl$mask" class="sprotty-edge thick edge" style="fill:none;stroke:rgb(112, 112, 112);stroke-linejoin:round;stroke-width:3px;"><g><path d="M 0 26 L 62.4375 26 C 63.4375 26 64.4375 27 64.4375 28 L 64.4375 74 C 64.4375 75 65.4375 76 66.4375 76 L 74.4375 76 "/><path d="M 0 26 L 62.4375 26 C 63.4375 26 64.4375 27 64.4375 28 L 64.4375 74 C 64.4375 75 65.4375 76 66.4375 76 L 74.4375 76 " class="clickable"/></g><circle r="3" id="sprotty_ArchitectureBlockImpl$lsu_trigger/GenerateStatementBlockImpl$null9/GPortImpl$trigger_pkt_any_to_ArchitectureBlockImpl$lsu_trigger/GenerateStatementBlockImpl$null9/InstantiationBlockImpl$trigger_match/BPortImpl$mask/junction0" transform="translate(64.4375, 26)" class="sprotty-junction thick" style="fill:rgb(112, 112, 112);stroke:none;"/><circle r="3" id="sprotty_ArchitectureBlockImpl$lsu_trigger/GenerateStatementBlockImpl$null9/GPortImpl$trigger_pkt_any_to_ArchitectureBlockImpl$lsu_trigger/GenerateStatementBlockImpl$null9/InstantiationBlockImpl$trigger_match/BPortImpl$mask/junction1" transform="translate(64.4375, 76)" class="sprotty-junction thick" style="fill:rgb(112, 112, 112);stroke:none;"/></g><g id="sprotty_ArchitectureBlockImpl$lsu_trigger/GenerateStatementBlockImpl$null9/GPortImpl$trigger_pkt_any_to_ArchitectureBlockImpl$lsu_trigger/GenerateStatementBlockImpl$null9/InstantiationBlockImpl$trigger_match/BPortImpl$masken" class="sprotty-edge thick edge" style="fill:none;stroke:rgb(112, 112, 112);stroke-linejoin:round;stroke-width:3px;"><g><path d="M 0 26 L 62.4375 26 C 63.4375 26 64.4375 27 64.4375 28 L 64.4375 130 C 64.4375 131 65.4375 132 66.4375 132 L 74.4375 132 "/><path d="M 0 26 L 62.4375 26 C 63.4375 26 64.4375 27 64.4375 28 L 64.4375 130 C 64.4375 131 65.4375 132 66.4375 132 L 74.4375 132 " class="clickable"/></g></g><g id="sprotty_ArchitectureBlockImpl$lsu_trigger/GenerateStatementBlockImpl$null9/GPortImpl$trigger_pkt_any_to_ArchitectureBlockImpl$lsu_trigger/GenerateStatementBlockImpl$null9/AssignmentBlockImpl$lsu_match_data/GPortImpl$trigger_pkt_anyIN" class="sprotty-edge thick edge" style="fill:none;stroke:rgb(112, 112, 112);stroke-linejoin:round;stroke-width:3px;"><g><path d="M 0 26 L 23 26 C 24 26 25 27 25 28 L 25 92 C 25 93 26 94 27 94 L 35 94 "/><path d="M 0 26 L 23 26 C 24 26 25 27 25 28 L 25 92 C 25 93 26 94 27 94 L 35 94 " class="clickable"/></g><circle r="3" id="sprotty_ArchitectureBlockImpl$lsu_trigger/GenerateStatementBlockImpl$null9/GPortImpl$trigger_pkt_any_to_ArchitectureBlockImpl$lsu_trigger/GenerateStatementBlockImpl$null9/AssignmentBlockImpl$lsu_match_data/GPortImpl$trigger_pkt_anyIN/junction0" transform="translate(25, 26)" class="sprotty-junction thick" style="fill:rgb(112, 112, 112);stroke:none;"/></g><g id="sprotty_ArchitectureBlockImpl$lsu_trigger/GenerateStatementBlockImpl$null9/GPortImpl$lsu_addr_dc3_to_ArchitectureBlockImpl$lsu_trigger/GenerateStatementBlockImpl$null9/AssignmentBlockImpl$lsu_match_data/GPortImpl$lsu_addr_dc3IN" class="sprotty-edge thick edge" style="fill:none;stroke:rgb(112, 112, 112);stroke-linejoin:round;stroke-width:3px;"><g><path d="M 0 104 L 35 104 "/><path d="M 0 104 L 35 104 " class="clickable"/></g></g><g id="sprotty_ArchitectureBlockImpl$lsu_trigger/GenerateStatementBlockImpl$null9/GPortImpl$lsu_pkt_dc3_to_ArchitectureBlockImpl$lsu_trigger/GenerateStatementBlockImpl$null9/AssignmentBlockImpl$lsu_trigger_match_dc3/GPortImpl$lsu_pkt_dc3IN" class="sprotty-edge thick edge" style="fill:none;stroke:rgb(112, 112, 112);stroke-linejoin:round;stroke-width:3px;"><g><path d="M 0 16 L 363.65625 16 C 364.65625 16 365.65625 17 365.65625 18 L 365.65625 82 C 365.65625 83 366.65625 84 367.65625 84 L 375.65625 84 "/><path d="M 0 16 L 363.65625 16 C 364.65625 16 365.65625 17 365.65625 18 L 365.65625 82 C 365.65625 83 366.65625 84 367.65625 84 L 375.65625 84 " class="clickable"/></g></g><g id="sprotty_ArchitectureBlockImpl$lsu_trigger/GenerateStatementBlockImpl$null9/GPortImpl$trigger_pkt_any_to_ArchitectureBlockImpl$lsu_trigger/GenerateStatementBlockImpl$null9/AssignmentBlockImpl$lsu_trigger_match_dc3/GPortImpl$trigger_pkt_anyIN" class="sprotty-edge thick edge" style="fill:none;stroke:rgb(112, 112, 112);stroke-linejoin:round;stroke-width:3px;"><g><path d="M 0 26 L 353.65625 26 C 354.65625 26 355.65625 27 355.65625 28 L 355.65625 92 C 355.65625 93 356.65625 94 357.65625 94 L 375.65625 94 "/><path d="M 0 26 L 353.65625 26 C 354.65625 26 355.65625 27 355.65625 28 L 355.65625 92 C 355.65625 93 356.65625 94 357.65625 94 L 375.65625 94 " class="clickable"/></g></g><g id="sprotty_ArchitectureBlockImpl$lsu_trigger/GenerateStatementBlockImpl$null9/GPortImpl$store_data_trigger_dc3_to_ArchitectureBlockImpl$lsu_trigger/GenerateStatementBlockImpl$null9/AssignmentBlockImpl$lsu_match_data/GPortImpl$store_data_trigger_dc3IN" class="sprotty-edge thick edge" style="fill:none;stroke:rgb(112, 112, 112);stroke-linejoin:round;stroke-width:3px;"><g><path d="M 0 114 L 35 114 "/><path d="M 0 114 L 35 114 " class="clickable"/></g></g><g id="sprotty_ArchitectureBlockImpl$lsu_trigger/GenerateStatementBlockImpl$null9/AssignmentBlockImpl$lsu_match_data/GPortImpl$store_data_trigger_dc3OUT_to_ArchitectureBlockImpl$lsu_trigger/GenerateStatementBlockImpl$null9/InstantiationBlockImpl$trigger_match/BPortImpl$data" class="sprotty-edge thick edge" style="fill:none;stroke:rgb(112, 112, 112);stroke-linejoin:round;stroke-width:3px;"><g><path d="M 54.4375 104 L 74.4375 104 "/><path d="M 54.4375 104 L 74.4375 104 " class="clickable"/></g></g><g id="sprotty_ArchitectureBlockImpl$lsu_trigger/GenerateStatementBlockImpl$null9/InstantiationBlockImpl$trigger_match/BPortImpl$match_to_ArchitectureBlockImpl$lsu_trigger/GenerateStatementBlockImpl$null9/AssignmentBlockImpl$lsu_trigger_match_dc3/GPortImpl$lsu_trigger_data_matchIN" class="sprotty-edge thick edge" style="fill:none;stroke:rgb(112, 112, 112);stroke-linejoin:round;stroke-width:3px;"><g><path d="M 345.65625 104 L 375.65625 104 "/><path d="M 345.65625 104 L 375.65625 104 " class="clickable"/></g></g><g id="sprotty_ArchitectureBlockImpl$lsu_trigger/GenerateStatementBlockImpl$null9/AssignmentBlockImpl$lsu_trigger_match_dc3" class="statement" transform="translate(375.65625, 74)"><rect x="0" y="0" rx="10" ry="5" width="19.4375" height="40" class="sprotty-node" style="fill:rgb(245, 245, 245);stroke:rgb(112, 112, 112);"/><text class="clickable sprotty-label statementtype" id="sprotty_ArchitectureBlockImpl$lsu_trigger/GenerateStatementBlockImpl$null9/AssignmentBlockImpl$lsu_trigger_match_dc3/labeltype" transform="translate(5, 14) translate(4.71875, 9)" style="cursor:default;font-size:8px;font-weight:700;perspective-origin:0px 0px;fill:rgb(112, 112, 112);text-anchor:middle;">&lt;=</text><g id="sprotty_ArchitectureBlockImpl$lsu_trigger/GenerateStatementBlockImpl$null9/AssignmentBlockImpl$lsu_trigger_match_dc3/GPortImpl$lsu_trigger_data_matchIN" class="sprotty-hidden hidden" transform="translate(0, 30)" style="display:block;height:0px;width:0px;"/><g id="sprotty_ArchitectureBlockImpl$lsu_trigger/GenerateStatementBlockImpl$null9/AssignmentBlockImpl$lsu_trigger_match_dc3/GPortImpl$trigger_pkt_anyIN" class="sprotty-hidden hidden" transform="translate(0, 20)" style="display:block;height:0px;width:0px;"/><g id="sprotty_ArchitectureBlockImpl$lsu_trigger/GenerateStatementBlockImpl$null9/AssignmentBlockImpl$lsu_trigger_match_dc3/GPortImpl$lsu_pkt_dc3IN" class="sprotty-hidden hidden" transform="translate(0, 10)" style="display:block;height:0px;width:0px;"/><g id="sprotty_ArchitectureBlockImpl$lsu_trigger/GenerateStatementBlockImpl$null9/AssignmentBlockImpl$lsu_trigger_match_dc3/GPortImpl$lsu_trigger_match_dc3OUT" class="sprotty-hidden hidden" transform="translate(19.4375, 20)" style="display:block;height:0px;width:0px;"/></g><g id="sprotty_ArchitectureBlockImpl$lsu_trigger/GenerateStatementBlockImpl$null9/AssignmentBlockImpl$lsu_match_data" class="statement" transform="translate(35, 84)"><rect x="0" y="0" rx="10" ry="5" width="19.4375" height="40" class="sprotty-node" style="fill:rgb(245, 245, 245);stroke:rgb(112, 112, 112);"/><text class="clickable sprotty-label statementtype" id="sprotty_ArchitectureBlockImpl$lsu_trigger/GenerateStatementBlockImpl$null9/AssignmentBlockImpl$lsu_match_data/labeltype" transform="translate(5, 14) translate(4.71875, 9)" style="cursor:default;font-size:8px;font-weight:700;perspective-origin:0px 0px;fill:rgb(112, 112, 112);text-anchor:middle;">&lt;=</text><g id="sprotty_ArchitectureBlockImpl$lsu_trigger/GenerateStatementBlockImpl$null9/AssignmentBlockImpl$lsu_match_data/GPortImpl$store_data_trigger_dc3IN" class="sprotty-hidden hidden" transform="translate(0, 30)" style="display:block;height:0px;width:0px;"/><g id="sprotty_ArchitectureBlockImpl$lsu_trigger/GenerateStatementBlockImpl$null9/AssignmentBlockImpl$lsu_match_data/GPortImpl$lsu_addr_dc3IN" class="sprotty-hidden hidden" transform="translate(0, 20)" style="display:block;height:0px;width:0px;"/><g id="sprotty_ArchitectureBlockImpl$lsu_trigger/GenerateStatementBlockImpl$null9/AssignmentBlockImpl$lsu_match_data/GPortImpl$trigger_pkt_anyIN" class="sprotty-hidden hidden" transform="translate(0, 10)" style="display:block;height:0px;width:0px;"/><g id="sprotty_ArchitectureBlockImpl$lsu_trigger/GenerateStatementBlockImpl$null9/AssignmentBlockImpl$lsu_match_data/GPortImpl$store_data_trigger_dc3OUT" class="sprotty-hidden hidden" transform="translate(19.4375, 20)" style="display:block;height:0px;width:0px;"/></g><g id="sprotty_ArchitectureBlockImpl$lsu_trigger/GenerateStatementBlockImpl$null9/InstantiationBlockImpl$trigger_match" class="instantiation" transform="translate(74.4375, 38)"><g class="sprotty-block" style="fill:rgb(255, 255, 255);stroke:rgb(48, 48, 48);stroke-dasharray:0px;"><rect x="0" y="0" rx="1" ry="1" width="271.21875" height="112"/><text x="135.609375" y="12" class="sprotty-block-name" style="cursor:pointer;font-weight:700;perspective-origin:135.609px 0px;fill:rgb(48, 48, 48);stroke:rgba(0, 0, 0, 0);dominant-baseline:middle;text-anchor:middle;">trigger_match : rvmaskandmatch</text><line x1="0" y1="20" x2="271.21875" y2="20"/></g><g id="sprotty_ArchitectureBlockImpl$lsu_trigger/GenerateStatementBlockImpl$null9/InstantiationBlockImpl$trigger_match/BPortImpl$masken" class="triangle" transform="translate(0, 94)"><path d="M 0,0 L 5,2.5 L 0,5 Z" transform="translate(-1.67, -2.5)" class="sprotty-port" style="fill:rgb(48, 48, 48);stroke:rgb(48, 48, 48);"/><text class="clickable sprotty-label port" id="sprotty_ArchitectureBlockImpl$lsu_trigger/GenerateStatementBlockImpl$null9/InstantiationBlockImpl$trigger_match/BPortImpl$masken/label" transform="translate(6, -9) translate(21.9375, 14)" style="cursor:default;font-size:12px;perspective-origin:0px 0px;fill:rgb(48, 48, 48);text-anchor:middle;">masken</text></g><g id="sprotty_ArchitectureBlockImpl$lsu_trigger/GenerateStatementBlockImpl$null9/InstantiationBlockImpl$trigger_match/BPortImpl$data" class="triangle" transform="translate(0, 66)"><path d="M 0,0 L 5,2.5 L 0,5 Z" transform="translate(-1.67, -2.5)" class="sprotty-port" style="fill:rgb(48, 48, 48);stroke:rgb(48, 48, 48);"/><text class="clickable sprotty-label port" id="sprotty_ArchitectureBlockImpl$lsu_trigger/GenerateStatementBlockImpl$null9/InstantiationBlockImpl$trigger_match/BPortImpl$data/label" transform="translate(6, -9) translate(12.53125, 14)" style="cursor:default;font-size:12px;perspective-origin:0px 0px;fill:rgb(48, 48, 48);text-anchor:middle;">data</text></g><g id="sprotty_ArchitectureBlockImpl$lsu_trigger/GenerateStatementBlockImpl$null9/InstantiationBlockImpl$trigger_match/BPortImpl$mask" class="triangle" transform="translate(0, 38)"><path d="M 0,0 L 5,2.5 L 0,5 Z" transform="translate(-1.67, -2.5)" class="sprotty-port" style="fill:rgb(48, 48, 48);stroke:rgb(48, 48, 48);"/><text class="clickable sprotty-label port" id="sprotty_ArchitectureBlockImpl$lsu_trigger/GenerateStatementBlockImpl$null9/InstantiationBlockImpl$trigger_match/BPortImpl$mask/label" transform="translate(6, -9) translate(15.0625, 14)" style="cursor:default;font-size:12px;perspective-origin:0px 0px;fill:rgb(48, 48, 48);text-anchor:middle;">mask</text></g><g id="sprotty_ArchitectureBlockImpl$lsu_trigger/GenerateStatementBlockImpl$null9/InstantiationBlockImpl$trigger_match/BPortImpl$match" class="triangle" transform="translate(271.21875, 66)"><path d="M 0,0 L 5,2.5 L 0,5 Z" transform="translate(-1.67, -2.5)" class="sprotty-port" style="fill:rgb(48, 48, 48);stroke:rgb(48, 48, 48);"/><text class="clickable sprotty-label port" id="sprotty_ArchitectureBlockImpl$lsu_trigger/GenerateStatementBlockImpl$null9/InstantiationBlockImpl$trigger_match/BPortImpl$match/label" transform="translate(-41.4375, -9) translate(17.71875, 14)" style="cursor:default;font-size:12px;perspective-origin:0px 0px;fill:rgb(48, 48, 48);text-anchor:middle;">match</text></g></g><g id="sprotty_ArchitectureBlockImpl$lsu_trigger/GenerateStatementBlockImpl$null9/GPortImpl$store_data_trigger_dc3" class="triangle" transform="translate(0, 114)"><path d="M 0,0 L 5,2.5 L 0,5 Z" transform="translate(-1.67, -2.5)" class="sprotty-port" style="fill:rgb(48, 48, 48);stroke:rgb(48, 48, 48);"/></g><g id="sprotty_ArchitectureBlockImpl$lsu_trigger/GenerateStatementBlockImpl$null9/GPortImpl$lsu_pkt_dc3" class="triangle" transform="translate(0, 16)"><path d="M 0,0 L 5,2.5 L 0,5 Z" transform="translate(-1.67, -2.5)" class="sprotty-port" style="fill:rgb(48, 48, 48);stroke:rgb(48, 48, 48);"/></g><g id="sprotty_ArchitectureBlockImpl$lsu_trigger/GenerateStatementBlockImpl$null9/GPortImpl$lsu_addr_dc3" class="triangle" transform="translate(0, 104)"><path d="M 0,0 L 5,2.5 L 0,5 Z" transform="translate(-1.67, -2.5)" class="sprotty-port" style="fill:rgb(48, 48, 48);stroke:rgb(48, 48, 48);"/></g><g id="sprotty_ArchitectureBlockImpl$lsu_trigger/GenerateStatementBlockImpl$null9/GPortImpl$trigger_pkt_any" class="triangle" transform="translate(0, 26)"><path d="M 0,0 L 5,2.5 L 0,5 Z" transform="translate(-1.67, -2.5)" class="sprotty-port" style="fill:rgb(48, 48, 48);stroke:rgb(48, 48, 48);"/></g><g id="sprotty_ArchitectureBlockImpl$lsu_trigger/GenerateStatementBlockImpl$null9/GPortImpl$lsu_trigger_match_dc3" class="triangle" transform="translate(410.09375, 94)"><path d="M 0,0 L 5,2.5 L 0,5 Z" transform="translate(-1.67, -2.5)" class="sprotty-port" style="fill:rgb(48, 48, 48);stroke:rgb(48, 48, 48);"/></g></g><g id="sprotty_ArchitectureBlockImpl$lsu_trigger/AssignmentBlockImpl$store_data_trigger_dc3" class="statement" transform="translate(130.21875, 153)"><rect x="0" y="0" rx="10" ry="5" width="19.4375" height="30" class="sprotty-node" style="fill:rgb(245, 245, 245);stroke:rgb(112, 112, 112);"/><text class="clickable sprotty-label statementtype" id="sprotty_ArchitectureBlockImpl$lsu_trigger/AssignmentBlockImpl$store_data_trigger_dc3/labeltype" transform="translate(5, 9) translate(4.71875, 9)" style="cursor:default;font-size:8px;font-weight:700;perspective-origin:0px 0px;fill:rgb(112, 112, 112);text-anchor:middle;">&lt;=</text><g id="sprotty_ArchitectureBlockImpl$lsu_trigger/AssignmentBlockImpl$store_data_trigger_dc3/GPortImpl$store_data_dc3IN" class="sprotty-hidden hidden" transform="translate(0, 20)" style="display:block;height:0px;width:0px;"/><g id="sprotty_ArchitectureBlockImpl$lsu_trigger/AssignmentBlockImpl$store_data_trigger_dc3/GPortImpl$lsu_pkt_dc3IN" class="sprotty-hidden hidden" transform="translate(0, 10)" style="display:block;height:0px;width:0px;"/><g id="sprotty_ArchitectureBlockImpl$lsu_trigger/AssignmentBlockImpl$store_data_trigger_dc3/GPortImpl$store_data_trigger_dc3OUT" class="sprotty-hidden hidden" transform="translate(19.4375, 15)" style="display:block;height:0px;width:0px;"/></g><g id="sprotty_ArchitectureBlockImpl$lsu_trigger/BPortImpl$store_data_dc3" class="triangle" transform="translate(0, 173)"><path d="M 0,0 L 5,2.5 L 0,5 Z" transform="translate(-1.67, -2.5)" class="sprotty-port" style="fill:rgb(48, 48, 48);stroke:rgb(48, 48, 48);"/><text class="clickable sprotty-label port" id="sprotty_ArchitectureBlockImpl$lsu_trigger/BPortImpl$store_data_dc3/label" transform="translate(6, 6) translate(43.40625, 14)" style="cursor:default;font-size:12px;perspective-origin:0px 0px;fill:rgb(48, 48, 48);text-anchor:middle;">store_data_dc3</text></g><g id="sprotty_ArchitectureBlockImpl$lsu_trigger/BPortImpl$lsu_result_dc3" class="triangle" transform="translate(0, 220)"><path d="M 0,0 L 5,2.5 L 0,5 Z" transform="translate(-1.67, -2.5)" class="sprotty-port" style="fill:rgb(48, 48, 48);stroke:rgb(48, 48, 48);"/><text class="clickable sprotty-label port" id="sprotty_ArchitectureBlockImpl$lsu_trigger/BPortImpl$lsu_result_dc3/label" transform="translate(6, 6) translate(40.984375, 14)" style="cursor:default;font-size:12px;perspective-origin:0px 0px;fill:rgb(48, 48, 48);text-anchor:middle;">lsu_result_dc3</text></g><g id="sprotty_ArchitectureBlockImpl$lsu_trigger/BPortImpl$lsu_addr_dc3" class="triangle" transform="translate(0, 139)"><path d="M 0,0 L 5,2.5 L 0,5 Z" transform="translate(-1.67, -2.5)" class="sprotty-port" style="fill:rgb(48, 48, 48);stroke:rgb(48, 48, 48);"/><text class="clickable sprotty-label port" id="sprotty_ArchitectureBlockImpl$lsu_trigger/BPortImpl$lsu_addr_dc3/label" transform="translate(6, 6) translate(38.125, 14)" style="cursor:default;font-size:12px;perspective-origin:0px 0px;fill:rgb(48, 48, 48);text-anchor:middle;">lsu_addr_dc3</text></g><g id="sprotty_ArchitectureBlockImpl$lsu_trigger/BPortImpl$lsu_pkt_dc3" class="triangle" transform="translate(0, 95)"><path d="M 0,0 L 5,2.5 L 0,5 Z" transform="translate(-1.67, -2.5)" class="sprotty-port" style="fill:rgb(48, 48, 48);stroke:rgb(48, 48, 48);"/><text class="clickable sprotty-label port" id="sprotty_ArchitectureBlockImpl$lsu_trigger/BPortImpl$lsu_pkt_dc3/label" transform="translate(6, 6) translate(34.140625, 14)" style="cursor:default;font-size:12px;perspective-origin:0px 0px;fill:rgb(48, 48, 48);text-anchor:middle;">lsu_pkt_dc3</text></g><g id="sprotty_ArchitectureBlockImpl$lsu_trigger/BPortImpl$trigger_pkt_any" class="triangle" transform="translate(0, 61)"><path d="M 0,0 L 5,2.5 L 0,5 Z" transform="translate(-1.67, -2.5)" class="sprotty-port" style="fill:rgb(48, 48, 48);stroke:rgb(48, 48, 48);"/><text class="clickable sprotty-label port" id="sprotty_ArchitectureBlockImpl$lsu_trigger/BPortImpl$trigger_pkt_any/label" transform="translate(6, 6) translate(44.609375, 14)" style="cursor:default;font-size:12px;perspective-origin:0px 0px;fill:rgb(48, 48, 48);text-anchor:middle;">trigger_pkt_any</text></g><g id="sprotty_ArchitectureBlockImpl$lsu_trigger/BPortImpl$rst_l" class="triangle" transform="translate(0, 264)"><path d="M 0,0 L 5,2.5 L 0,5 Z" transform="translate(-1.67, -2.5)" class="sprotty-port" style="fill:rgb(48, 48, 48);stroke:rgb(48, 48, 48);"/><text class="clickable sprotty-label port" id="sprotty_ArchitectureBlockImpl$lsu_trigger/BPortImpl$rst_l/label" transform="translate(6, 6) translate(12.3125, 14)" style="cursor:default;font-size:12px;perspective-origin:0px 0px;fill:rgb(48, 48, 48);text-anchor:middle;">rst_l</text></g><g id="sprotty_ArchitectureBlockImpl$lsu_trigger/BPortImpl$lsu_free_c2_clk" class="triangle" transform="translate(0, 308)"><path d="M 0,0 L 5,2.5 L 0,5 Z" transform="translate(-1.67, -2.5)" class="sprotty-port" style="fill:rgb(48, 48, 48);stroke:rgb(48, 48, 48);"/><text class="clickable sprotty-label port" id="sprotty_ArchitectureBlockImpl$lsu_trigger/BPortImpl$lsu_free_c2_clk/label" transform="translate(6, 6) translate(43.546875, 14)" style="cursor:default;font-size:12px;perspective-origin:0px 0px;fill:rgb(48, 48, 48);text-anchor:middle;">lsu_free_c2_clk</text></g><g id="sprotty_ArchitectureBlockImpl$lsu_trigger/BPortImpl$clk" class="triangle" transform="translate(0, 352)"><path d="M 0,0 L 5,2.5 L 0,5 Z" transform="translate(-1.67, -2.5)" class="sprotty-port" style="fill:rgb(48, 48, 48);stroke:rgb(48, 48, 48);"/><text class="clickable sprotty-label port" id="sprotty_ArchitectureBlockImpl$lsu_trigger/BPortImpl$clk/label" transform="translate(6, 6) translate(8.078125, 14)" style="cursor:default;font-size:12px;perspective-origin:0px 0px;fill:rgb(48, 48, 48);text-anchor:middle;">clk</text></g><g id="sprotty_ArchitectureBlockImpl$lsu_trigger/BPortImpl$lsu_trigger_match_dc3" class="triangle" transform="translate(729.96875, 129)"><path d="M 0,0 L 5,2.5 L 0,5 Z" transform="translate(-1.67, -2.5)" class="sprotty-port" style="fill:rgb(48, 48, 48);stroke:rgb(48, 48, 48);"/><text class="clickable sprotty-label port" id="sprotty_ArchitectureBlockImpl$lsu_trigger/BPortImpl$lsu_trigger_match_dc3/label" transform="translate(-135.21875, 6) translate(64.609375, 14)" style="cursor:default;font-size:12px;perspective-origin:0px 0px;fill:rgb(48, 48, 48);text-anchor:middle;">lsu_trigger_match_dc3</text></g></g></g></svg>