<svg xmlns="http://www.w3.org/2000/svg" id="sprotty_work.ram_256x34" class="sprotty-graph sprotty-block-diagram blockdiagram" style="font-family:&quot;Noto Sans&quot;, Helvetica, Arial, sans-serif;perspective-origin:0px 0px;transform-origin:0px 0px;" version="1.1" viewBox="7 7 181.984375 186" width="181.984375" height="186"><g transform="scale(1) translate(0,0)"><g id="sprotty_ArchitectureBlockImpl$ram_256x34" class="architecture" transform="translate(12, 12)"><g class="sprotty-block" style="fill:rgb(255, 255, 255);stroke:rgb(48, 48, 48);stroke-dasharray:0px;"><rect x="0" y="0" rx="1" ry="1" width="171.984375" height="176"/><text x="85.9921875" y="12" class="sprotty-block-name" style="cursor:pointer;font-weight:700;perspective-origin:85.9844px 0px;fill:rgb(48, 48, 48);stroke:rgba(0, 0, 0, 0);dominant-baseline:middle;text-anchor:middle;">ram_256x34</text><line x1="0" y1="20" x2="171.984375" y2="20"/></g><g id="sprotty_ArchitectureBlockImpl$ram_256x34/AlwaysBlockImpl$null5/GPortImpl$ADROUT_to_ArchitectureBlockImpl$ram_256x34/BPortImpl$ADR" class="sprotty-edge thick edge" style="fill:none;stroke:rgb(112, 112, 112);stroke-linejoin:round;stroke-width:3px;"><g><path d="M 122.078125 65.66666666666667 L 130.078125 65.66666666666667 C 131.078125 65.66666666666667 132.078125 64.66666666666667 132.078125 63.66666666666667 L 132.078125 37 C 132.078125 36 131.078125 35 130.078125 35 L 0 35 "/><path d="M 122.078125 65.66666666666667 L 130.078125 65.66666666666667 C 131.078125 65.66666666666667 132.078125 64.66666666666667 132.078125 63.66666666666667 L 132.078125 37 C 132.078125 36 131.078125 35 130.078125 35 L 0 35 " class="clickable"/></g></g><g id="sprotty_ArchitectureBlockImpl$ram_256x34/AlwaysBlockImpl$null5/GPortImpl$QOUT_to_ArchitectureBlockImpl$ram_256x34/BPortImpl$Q" class="sprotty-edge thick edge" style="fill:none;stroke:rgb(112, 112, 112);stroke-linejoin:round;stroke-width:3px;"><g><path d="M 122.078125 82.33333333333334 L 171.984375 82.33333333333334 "/><path d="M 122.078125 82.33333333333334 L 171.984375 82.33333333333334 " class="clickable"/></g></g><g id="sprotty_ArchitectureBlockImpl$ram_256x34/BPortImpl$CLK_to_ArchitectureBlockImpl$ram_256x34/AlwaysBlockImpl$null5/GPortImpl$CLKIN" class="sprotty-edge edge" style="fill:none;stroke:rgb(112, 112, 112);stroke-linejoin:round;"><g><path d="M 0 137 L 62.15625 137 C 63.15625 137 64.15625 136 64.15625 135 L 64.15625 91 C 64.15625 90 65.15625 89 66.15625 89 L 74.15625 89 "/><path d="M 0 137 L 62.15625 137 C 63.15625 137 64.15625 136 64.15625 135 L 64.15625 91 C 64.15625 90 65.15625 89 66.15625 89 L 74.15625 89 " class="clickable"/></g></g><g id="sprotty_ArchitectureBlockImpl$ram_256x34/BPortImpl$WE_to_ArchitectureBlockImpl$ram_256x34/AlwaysBlockImpl$null5/GPortImpl$WEIN" class="sprotty-edge edge" style="fill:none;stroke:rgb(112, 112, 112);stroke-linejoin:round;"><g><path d="M 0 69 L 74.15625 69 "/><path d="M 0 69 L 74.15625 69 " class="clickable"/></g></g><g id="sprotty_ArchitectureBlockImpl$ram_256x34/BPortImpl$D_to_ArchitectureBlockImpl$ram_256x34/AlwaysBlockImpl$null5/GPortImpl$DIN" class="sprotty-edge thick edge" style="fill:none;stroke:rgb(112, 112, 112);stroke-linejoin:round;stroke-width:3px;"><g><path d="M 0 103 L 52.15625 103 C 53.15625 103 54.15625 102 54.15625 101 L 54.15625 81 C 54.15625 80 55.15625 79 56.15625 79 L 74.15625 79 "/><path d="M 0 103 L 52.15625 103 C 53.15625 103 54.15625 102 54.15625 101 L 54.15625 81 C 54.15625 80 55.15625 79 56.15625 79 L 74.15625 79 " class="clickable"/></g></g><g id="sprotty_ArchitectureBlockImpl$ram_256x34/BPortImpl$ADR_to_ArchitectureBlockImpl$ram_256x34/AlwaysBlockImpl$null5/GPortImpl$ADRIN" class="sprotty-edge thick edge" style="fill:none;stroke:rgb(112, 112, 112);stroke-linejoin:round;stroke-width:3px;"><g><path d="M 0 35 L 52.15625 35 C 53.15625 35 54.15625 36 54.15625 37 L 54.15625 57 C 54.15625 58 55.15625 59 56.15625 59 L 74.15625 59 "/><path d="M 0 35 L 52.15625 35 C 53.15625 35 54.15625 36 54.15625 37 L 54.15625 57 C 54.15625 58 55.15625 59 56.15625 59 L 74.15625 59 " class="clickable"/></g><circle r="3" id="sprotty_ArchitectureBlockImpl$ram_256x34/BPortImpl$ADR_to_ArchitectureBlockImpl$ram_256x34/AlwaysBlockImpl$null5/GPortImpl$ADRIN/junction0" transform="translate(54.15625, 35)" class="sprotty-junction thick" style="fill:rgb(112, 112, 112);stroke:none;"/></g><g id="sprotty_ArchitectureBlockImpl$ram_256x34/AlwaysBlockImpl$null5" class="statement" transform="translate(74.15625, 49)"><rect x="0" y="0" rx="10" ry="5" width="47.921875" height="50" class="sprotty-node" style="fill:rgb(245, 245, 245);stroke:rgb(112, 112, 112);"/><text class="clickable sprotty-label statementtype" id="sprotty_ArchitectureBlockImpl$ram_256x34/AlwaysBlockImpl$null5/labeltype" transform="translate(5, 19) translate(18.828125, 9)" style="cursor:default;font-size:8px;font-weight:700;perspective-origin:0.125px 0px;fill:rgb(112, 112, 112);text-anchor:middle;">always_ff</text><g id="sprotty_ArchitectureBlockImpl$ram_256x34/AlwaysBlockImpl$null5/GPortImpl$ADRIN" class="sprotty-hidden hidden" transform="translate(0, 10)" style="display:block;height:0px;width:0px;"/><g id="sprotty_ArchitectureBlockImpl$ram_256x34/AlwaysBlockImpl$null5/GPortImpl$DIN" class="sprotty-hidden hidden" transform="translate(0, 30)" style="display:block;height:0px;width:0px;"/><g id="sprotty_ArchitectureBlockImpl$ram_256x34/AlwaysBlockImpl$null5/GPortImpl$WEIN" class="sprotty-hidden hidden" transform="translate(0, 20)" style="display:block;height:0px;width:0px;"/><g id="sprotty_ArchitectureBlockImpl$ram_256x34/AlwaysBlockImpl$null5/GPortImpl$CLKIN" class="sprotty-hidden hidden" transform="translate(0, 40)" style="display:block;height:0px;width:0px;"/><g id="sprotty_ArchitectureBlockImpl$ram_256x34/AlwaysBlockImpl$null5/GPortImpl$ADROUT" class="sprotty-hidden hidden" transform="translate(47.921875, 16.666666666666668)" style="display:block;height:0px;width:0px;"/><g id="sprotty_ArchitectureBlockImpl$ram_256x34/AlwaysBlockImpl$null5/GPortImpl$QOUT" class="sprotty-hidden hidden" transform="translate(47.921875, 33.333333333333336)" style="display:block;height:0px;width:0px;"/></g><g id="sprotty_ArchitectureBlockImpl$ram_256x34/BPortImpl$WE" class="triangle" transform="translate(0, 69)"><path d="M 0,0 L 5,2.5 L 0,5 Z" transform="translate(-1.67, -2.5)" class="sprotty-port" style="fill:rgb(48, 48, 48);stroke:rgb(48, 48, 48);"/><text class="clickable sprotty-label port" id="sprotty_ArchitectureBlockImpl$ram_256x34/BPortImpl$WE/label" transform="translate(6, 6) translate(8.796875, 14)" style="cursor:default;font-size:12px;perspective-origin:0px 0px;fill:rgb(48, 48, 48);text-anchor:middle;">WE</text></g><g id="sprotty_ArchitectureBlockImpl$ram_256x34/BPortImpl$D" class="triangle" transform="translate(0, 103)"><path d="M 0,0 L 5,2.5 L 0,5 Z" transform="translate(-1.67, -2.5)" class="sprotty-port" style="fill:rgb(48, 48, 48);stroke:rgb(48, 48, 48);"/><text class="clickable sprotty-label port" id="sprotty_ArchitectureBlockImpl$ram_256x34/BPortImpl$D/label" transform="translate(6, 6) translate(4.125, 14)" style="cursor:default;font-size:12px;perspective-origin:0px 0px;fill:rgb(48, 48, 48);text-anchor:middle;">D</text></g><g id="sprotty_ArchitectureBlockImpl$ram_256x34/BPortImpl$ADR" class="triangle" transform="translate(0, 35)"><path d="M 0,0 L 5,2.5 L 0,5 Z" transform="translate(-1.67, -2.5)" class="sprotty-port" style="fill:rgb(48, 48, 48);stroke:rgb(48, 48, 48);"/><text class="clickable sprotty-label port" id="sprotty_ArchitectureBlockImpl$ram_256x34/BPortImpl$ADR/label" transform="translate(6, 6) translate(11.578125, 14)" style="cursor:default;font-size:12px;perspective-origin:0px 0px;fill:rgb(48, 48, 48);text-anchor:middle;">ADR</text></g><g id="sprotty_ArchitectureBlockImpl$ram_256x34/BPortImpl$CLK" class="triangle" transform="translate(0, 137)"><path d="M 0,0 L 5,2.5 L 0,5 Z" transform="translate(-1.67, -2.5)" class="sprotty-port" style="fill:rgb(48, 48, 48);stroke:rgb(48, 48, 48);"/><text class="clickable sprotty-label port" id="sprotty_ArchitectureBlockImpl$ram_256x34/BPortImpl$CLK/label" transform="translate(6, 6) translate(10.96875, 14)" style="cursor:default;font-size:12px;perspective-origin:0px 0px;fill:rgb(48, 48, 48);text-anchor:middle;">CLK</text></g><g id="sprotty_ArchitectureBlockImpl$ram_256x34/BPortImpl$Q" class="triangle" transform="translate(171.984375, 82.33333333333334)"><path d="M 0,0 L 5,2.5 L 0,5 Z" transform="translate(-1.67, -2.5)" class="sprotty-port" style="fill:rgb(48, 48, 48);stroke:rgb(48, 48, 48);"/><text class="clickable sprotty-label port" id="sprotty_ArchitectureBlockImpl$ram_256x34/BPortImpl$Q/label" transform="translate(-14.90625, 6) translate(4.453125, 14)" style="cursor:default;font-size:12px;perspective-origin:0px 0px;fill:rgb(48, 48, 48);text-anchor:middle;">Q</text></g></g></g></svg>