<svg xmlns="http://www.w3.org/2000/svg" id="sprotty_work.rvlsadder" class="sprotty-graph sprotty-block-diagram blockdiagram" style="font-family:&quot;Noto Sans&quot;, Helvetica, Arial, sans-serif;perspective-origin:0px 0px;transform-origin:0px 0px;" version="1.1" viewBox="7 7 199.03125 221" width="199.03125" height="221"><g transform="scale(1) translate(0,0)"><g id="sprotty_ArchitectureBlockImpl$rvlsadder" class="architecture" transform="translate(12, 12)"><g class="sprotty-block" style="fill:rgb(255, 255, 255);stroke:rgb(48, 48, 48);stroke-dasharray:0px;"><rect x="0" y="0" rx="1" ry="1" width="189.03125" height="211"/><text x="94.515625" y="12" class="sprotty-block-name" style="cursor:pointer;font-weight:700;perspective-origin:94.5312px 0px;fill:rgb(48, 48, 48);stroke:rgba(0, 0, 0, 0);dominant-baseline:middle;text-anchor:middle;">rvlsadder</text><line x1="0" y1="20" x2="189.03125" y2="20"/></g><g id="sprotty_ArchitectureBlockImpl$rvlsadder/AssignmentBlockImpl$dout/GPortImpl$doutOUT_to_ArchitectureBlockImpl$rvlsadder/BPortImpl$dout" class="sprotty-edge thick edge" style="fill:none;stroke:rgb(112, 112, 112);stroke-linejoin:round;stroke-width:3px;"><g><path d="M 141.5 93 L 189.03125 93 "/><path d="M 141.5 93 L 189.03125 93 " class="clickable"/></g></g><g id="sprotty_ArchitectureBlockImpl$rvlsadder/BPortImpl$rs1_to_ArchitectureBlockImpl$rvlsadder/AssignmentBlockImpl$rs1_inc/GPortImpl$rs1IN" class="sprotty-edge thick edge" style="fill:none;stroke:rgb(112, 112, 112);stroke-linejoin:round;stroke-width:3px;"><g><path d="M 0 88 L 60.625 88 C 61.625 88 62.625 89 62.625 90 L 62.625 128 C 62.625 129 63.625 130 64.625 130 L 72.625 130 "/><path d="M 0 88 L 60.625 88 C 61.625 88 62.625 89 62.625 90 L 62.625 128 C 62.625 129 63.625 130 64.625 130 L 72.625 130 " class="clickable"/></g><circle r="3" id="sprotty_ArchitectureBlockImpl$rvlsadder/BPortImpl$rs1_to_ArchitectureBlockImpl$rvlsadder/AssignmentBlockImpl$rs1_inc/GPortImpl$rs1IN/junction0" transform="translate(62.625, 88)" class="sprotty-junction thick" style="fill:rgb(112, 112, 112);stroke:none;"/><circle r="3" id="sprotty_ArchitectureBlockImpl$rvlsadder/BPortImpl$rs1_to_ArchitectureBlockImpl$rvlsadder/AssignmentBlockImpl$rs1_inc/GPortImpl$rs1IN/junction1" transform="translate(62.625, 130)" class="sprotty-junction thick" style="fill:rgb(112, 112, 112);stroke:none;"/></g><g id="sprotty_ArchitectureBlockImpl$rvlsadder/BPortImpl$rs1_to_ArchitectureBlockImpl$rvlsadder/AssignmentBlockImpl$rs1_dec/GPortImpl$rs1IN" class="sprotty-edge thick edge" style="fill:none;stroke:rgb(112, 112, 112);stroke-linejoin:round;stroke-width:3px;"><g><path d="M 0 88 L 72.625 88 "/><path d="M 0 88 L 72.625 88 " class="clickable"/></g></g><g id="sprotty_ArchitectureBlockImpl$rvlsadder/BPortImpl$offset_to_ArchitectureBlockImpl$rvlsadder/AssignmentBlockImpl$sign/GPortImpl$offsetIN" class="sprotty-edge thick edge" style="fill:none;stroke:rgb(112, 112, 112);stroke-linejoin:round;stroke-width:3px;"><g><path d="M 0 46 L 72.625 46 "/><path d="M 0 46 L 72.625 46 " class="clickable"/></g></g><g id="sprotty_ArchitectureBlockImpl$rvlsadder/BPortImpl$rs1_to_ArchitectureBlockImpl$rvlsadder/AssignmentBlockImpl$dout/GPortImpl$rs1IN" class="sprotty-edge thick edge" style="fill:none;stroke:rgb(112, 112, 112);stroke-linejoin:round;stroke-width:3px;"><g><path d="M 0 88 L 60.625 88 C 61.625 88 62.625 89 62.625 90 L 62.625 150 C 62.625 151 63.625 152 64.625 152 L 110.0625 152 C 111.0625 152 112.0625 151 112.0625 150 L 112.0625 110 C 112.0625 109 113.0625 108 114.0625 108 L 122.0625 108 "/><path d="M 0 88 L 60.625 88 C 61.625 88 62.625 89 62.625 90 L 62.625 150 C 62.625 151 63.625 152 64.625 152 L 110.0625 152 C 111.0625 152 112.0625 151 112.0625 150 L 112.0625 110 C 112.0625 109 113.0625 108 114.0625 108 L 122.0625 108 " class="clickable"/></g></g><g id="sprotty_ArchitectureBlockImpl$rvlsadder/AssignmentBlockImpl$sign/GPortImpl$signOUT_to_ArchitectureBlockImpl$rvlsadder/AssignmentBlockImpl$dout/GPortImpl$signIN" class="sprotty-edge edge" style="fill:none;stroke:rgb(112, 112, 112);stroke-linejoin:round;"><g><path d="M 92.0625 46 L 100.0625 46 C 101.0625 46 102.0625 47 102.0625 48 L 102.0625 76 C 102.0625 77 103.0625 78 104.0625 78 L 122.0625 78 "/><path d="M 92.0625 46 L 100.0625 46 C 101.0625 46 102.0625 47 102.0625 48 L 102.0625 76 C 102.0625 77 103.0625 78 104.0625 78 L 122.0625 78 " class="clickable"/></g></g><g id="sprotty_ArchitectureBlockImpl$rvlsadder/AssignmentBlockImpl$rs1_inc/GPortImpl$rs1_incOUT_to_ArchitectureBlockImpl$rvlsadder/AssignmentBlockImpl$dout/GPortImpl$rs1_incIN" class="sprotty-edge thick edge" style="fill:none;stroke:rgb(112, 112, 112);stroke-linejoin:round;stroke-width:3px;"><g><path d="M 92.0625 130 L 100.0625 130 C 101.0625 130 102.0625 129 102.0625 128 L 102.0625 100 C 102.0625 99 103.0625 98 104.0625 98 L 122.0625 98 "/><path d="M 92.0625 130 L 100.0625 130 C 101.0625 130 102.0625 129 102.0625 128 L 102.0625 100 C 102.0625 99 103.0625 98 104.0625 98 L 122.0625 98 " class="clickable"/></g></g><g id="sprotty_ArchitectureBlockImpl$rvlsadder/AssignmentBlockImpl$rs1_dec/GPortImpl$rs1_decOUT_to_ArchitectureBlockImpl$rvlsadder/AssignmentBlockImpl$dout/GPortImpl$rs1_decIN" class="sprotty-edge thick edge" style="fill:none;stroke:rgb(112, 112, 112);stroke-linejoin:round;stroke-width:3px;"><g><path d="M 92.0625 88 L 122.0625 88 "/><path d="M 92.0625 88 L 122.0625 88 " class="clickable"/></g></g><g id="sprotty_ArchitectureBlockImpl$rvlsadder/AssignmentBlockImpl$dout" class="statement" transform="translate(122.0625, 68)"><rect x="0" y="0" rx="10" ry="5" width="19.4375" height="50" class="sprotty-node" style="fill:rgb(245, 245, 245);stroke:rgb(112, 112, 112);"/><text class="clickable sprotty-label statementtype" id="sprotty_ArchitectureBlockImpl$rvlsadder/AssignmentBlockImpl$dout/labeltype" transform="translate(5, 19) translate(4.71875, 9)" style="cursor:default;font-size:8px;font-weight:700;perspective-origin:0px 0px;fill:rgb(112, 112, 112);text-anchor:middle;">&lt;=</text><g id="sprotty_ArchitectureBlockImpl$rvlsadder/AssignmentBlockImpl$dout/GPortImpl$rs1_decIN" class="sprotty-hidden hidden" transform="translate(0, 20)" style="display:block;height:0px;width:0px;"/><g id="sprotty_ArchitectureBlockImpl$rvlsadder/AssignmentBlockImpl$dout/GPortImpl$rs1_incIN" class="sprotty-hidden hidden" transform="translate(0, 30)" style="display:block;height:0px;width:0px;"/><g id="sprotty_ArchitectureBlockImpl$rvlsadder/AssignmentBlockImpl$dout/GPortImpl$rs1IN" class="sprotty-hidden hidden" transform="translate(0, 40)" style="display:block;height:0px;width:0px;"/><g id="sprotty_ArchitectureBlockImpl$rvlsadder/AssignmentBlockImpl$dout/GPortImpl$signIN" class="sprotty-hidden hidden" transform="translate(0, 10)" style="display:block;height:0px;width:0px;"/><g id="sprotty_ArchitectureBlockImpl$rvlsadder/AssignmentBlockImpl$dout/GPortImpl$doutOUT" class="sprotty-hidden hidden" transform="translate(19.4375, 25)" style="display:block;height:0px;width:0px;"/></g><g id="sprotty_ArchitectureBlockImpl$rvlsadder/AssignmentBlockImpl$sign" class="statement" transform="translate(72.625, 35)"><rect x="0" y="0" rx="10" ry="5" width="19.4375" height="22" class="sprotty-node" style="fill:rgb(245, 245, 245);stroke:rgb(112, 112, 112);"/><text class="clickable sprotty-label statementtype" id="sprotty_ArchitectureBlockImpl$rvlsadder/AssignmentBlockImpl$sign/labeltype" transform="translate(5, 5) translate(4.71875, 9)" style="cursor:default;font-size:8px;font-weight:700;perspective-origin:0px 0px;fill:rgb(112, 112, 112);text-anchor:middle;">&lt;=</text><g id="sprotty_ArchitectureBlockImpl$rvlsadder/AssignmentBlockImpl$sign/GPortImpl$offsetIN" class="sprotty-hidden hidden" transform="translate(0, 11)" style="display:block;height:0px;width:0px;"/><g id="sprotty_ArchitectureBlockImpl$rvlsadder/AssignmentBlockImpl$sign/GPortImpl$signOUT" class="sprotty-hidden hidden" transform="translate(19.4375, 11)" style="display:block;height:0px;width:0px;"/></g><g id="sprotty_ArchitectureBlockImpl$rvlsadder/AssignmentBlockImpl$rs1_dec" class="statement" transform="translate(72.625, 77)"><rect x="0" y="0" rx="10" ry="5" width="19.4375" height="22" class="sprotty-node" style="fill:rgb(245, 245, 245);stroke:rgb(112, 112, 112);"/><text class="clickable sprotty-label statementtype" id="sprotty_ArchitectureBlockImpl$rvlsadder/AssignmentBlockImpl$rs1_dec/labeltype" transform="translate(5, 5) translate(4.71875, 9)" style="cursor:default;font-size:8px;font-weight:700;perspective-origin:0px 0px;fill:rgb(112, 112, 112);text-anchor:middle;">&lt;=</text><g id="sprotty_ArchitectureBlockImpl$rvlsadder/AssignmentBlockImpl$rs1_dec/GPortImpl$rs1IN" class="sprotty-hidden hidden" transform="translate(0, 11)" style="display:block;height:0px;width:0px;"/><g id="sprotty_ArchitectureBlockImpl$rvlsadder/AssignmentBlockImpl$rs1_dec/GPortImpl$rs1_decOUT" class="sprotty-hidden hidden" transform="translate(19.4375, 11)" style="display:block;height:0px;width:0px;"/></g><g id="sprotty_ArchitectureBlockImpl$rvlsadder/AssignmentBlockImpl$rs1_inc" class="statement" transform="translate(72.625, 119)"><rect x="0" y="0" rx="10" ry="5" width="19.4375" height="22" class="sprotty-node" style="fill:rgb(245, 245, 245);stroke:rgb(112, 112, 112);"/><text class="clickable sprotty-label statementtype" id="sprotty_ArchitectureBlockImpl$rvlsadder/AssignmentBlockImpl$rs1_inc/labeltype" transform="translate(5, 5) translate(4.71875, 9)" style="cursor:default;font-size:8px;font-weight:700;perspective-origin:0px 0px;fill:rgb(112, 112, 112);text-anchor:middle;">&lt;=</text><g id="sprotty_ArchitectureBlockImpl$rvlsadder/AssignmentBlockImpl$rs1_inc/GPortImpl$rs1IN" class="sprotty-hidden hidden" transform="translate(0, 11)" style="display:block;height:0px;width:0px;"/><g id="sprotty_ArchitectureBlockImpl$rvlsadder/AssignmentBlockImpl$rs1_inc/GPortImpl$rs1_incOUT" class="sprotty-hidden hidden" transform="translate(19.4375, 11)" style="display:block;height:0px;width:0px;"/></g><g id="sprotty_ArchitectureBlockImpl$rvlsadder/AssignmentBlockImpl${cout,dout[11:0]}" class="statement" transform="translate(15, 174)"><rect x="0" y="0" rx="10" ry="5" width="19.4375" height="22" class="sprotty-node" style="fill:rgb(245, 245, 245);stroke:rgb(112, 112, 112);"/><text class="clickable sprotty-label statementtype" id="sprotty_ArchitectureBlockImpl$rvlsadder/AssignmentBlockImpl${cout,dout[11:0]}/labeltype" transform="translate(5, 5) translate(4.71875, 9)" style="cursor:default;font-size:8px;font-weight:700;perspective-origin:0px 0px;fill:rgb(112, 112, 112);text-anchor:middle;">&lt;=</text></g><g id="sprotty_ArchitectureBlockImpl$rvlsadder/BPortImpl$offset" class="triangle" transform="translate(0, 46)"><path d="M 0,0 L 5,2.5 L 0,5 Z" transform="translate(-1.67, -2.5)" class="sprotty-port" style="fill:rgb(48, 48, 48);stroke:rgb(48, 48, 48);"/><text class="clickable sprotty-label port" id="sprotty_ArchitectureBlockImpl$rvlsadder/BPortImpl$offset/label" transform="translate(6, 6) translate(15.8125, 14)" style="cursor:default;font-size:12px;perspective-origin:0px 0px;fill:rgb(48, 48, 48);text-anchor:middle;">offset</text></g><g id="sprotty_ArchitectureBlockImpl$rvlsadder/BPortImpl$rs1" class="triangle" transform="translate(0, 88)"><path d="M 0,0 L 5,2.5 L 0,5 Z" transform="translate(-1.67, -2.5)" class="sprotty-port" style="fill:rgb(48, 48, 48);stroke:rgb(48, 48, 48);"/><text class="clickable sprotty-label port" id="sprotty_ArchitectureBlockImpl$rvlsadder/BPortImpl$rs1/label" transform="translate(6, 6) translate(8.453125, 14)" style="cursor:default;font-size:12px;perspective-origin:0px 0px;fill:rgb(48, 48, 48);text-anchor:middle;">rs1</text></g><g id="sprotty_ArchitectureBlockImpl$rvlsadder/BPortImpl$dout" class="triangle" transform="translate(189.03125, 93)"><path d="M 0,0 L 5,2.5 L 0,5 Z" transform="translate(-1.67, -2.5)" class="sprotty-port" style="fill:rgb(48, 48, 48);stroke:rgb(48, 48, 48);"/><text class="clickable sprotty-label port" id="sprotty_ArchitectureBlockImpl$rvlsadder/BPortImpl$dout/label" transform="translate(-32.53125, 6) translate(13.265625, 14)" style="cursor:default;font-size:12px;perspective-origin:0px 0px;fill:rgb(48, 48, 48);text-anchor:middle;">dout</text></g></g></g></svg>