<svg xmlns="http://www.w3.org/2000/svg" id="sprotty_work.configurable_gw" class="sprotty-graph sprotty-block-diagram blockdiagram" style="font-family:&quot;Noto Sans&quot;, Helvetica, Arial, sans-serif;perspective-origin:0px 0px;transform-origin:0px 0px;" version="1.1" viewBox="7 7 533.171875 342" width="533.171875" height="342"><g transform="scale(1) translate(0,0)"><g id="sprotty_ArchitectureBlockImpl$configurable_gw" class="architecture" transform="translate(12, 12)"><g class="sprotty-block" style="fill:rgb(255, 255, 255);stroke:rgb(48, 48, 48);stroke-dasharray:0px;"><rect x="0" y="0" rx="1" ry="1" width="523.171875" height="332"/><text x="261.5859375" y="12" class="sprotty-block-name" style="cursor:pointer;font-weight:700;perspective-origin:261.578px 0px;fill:rgb(48, 48, 48);stroke:rgba(0, 0, 0, 0);dominant-baseline:middle;text-anchor:middle;">configurable_gw</text><line x1="0" y1="20" x2="523.171875" y2="20"/></g><g id="sprotty_ArchitectureBlockImpl$configurable_gw/AssignmentBlockImpl$extintsrc_req_config/GPortImpl$extintsrc_req_configOUT_to_ArchitectureBlockImpl$configurable_gw/BPortImpl$extintsrc_req_config" class="sprotty-edge edge" style="fill:none;stroke:rgb(112, 112, 112);stroke-linejoin:round;"><g><path d="M 367.515625 184 L 523.171875 184 "/><path d="M 367.515625 184 L 523.171875 184 " class="clickable"/></g></g><g id="sprotty_ArchitectureBlockImpl$configurable_gw/BPortImpl$clk_to_ArchitectureBlockImpl$configurable_gw/InstantiationBlockImpl$int_pend_ff/BPortImpl$clk" class="sprotty-edge edge" style="fill:none;stroke:rgb(112, 112, 112);stroke-linejoin:round;"><g><path d="M 0 111 L 147.28125 111 "/><path d="M 0 111 L 147.28125 111 " class="clickable"/></g></g><g id="sprotty_ArchitectureBlockImpl$configurable_gw/BPortImpl$rst_l_to_ArchitectureBlockImpl$configurable_gw/InstantiationBlockImpl$int_pend_ff/BPortImpl$rst_l" class="sprotty-edge edge" style="fill:none;stroke:rgb(112, 112, 112);stroke-linejoin:round;"><g><path d="M 0 145 L 135.28125 145 C 136.28125 145 137.28125 144 137.28125 143 L 137.28125 141 C 137.28125 140 138.28125 139 139.28125 139 L 147.28125 139 "/><path d="M 0 145 L 135.28125 145 C 136.28125 145 137.28125 144 137.28125 143 L 137.28125 141 C 137.28125 140 138.28125 139 139.28125 139 L 147.28125 139 " class="clickable"/></g></g><g id="sprotty_ArchitectureBlockImpl$configurable_gw/BPortImpl$extintsrc_req_sync_to_ArchitectureBlockImpl$configurable_gw/AssignmentBlockImpl$gw_int_pending_in/GPortImpl$extintsrc_req_syncIN" class="sprotty-edge edge" style="fill:none;stroke:rgb(112, 112, 112);stroke-linejoin:round;"><g><path d="M 0 179 L 306.078125 179 C 307.078125 179 308.078125 180 308.078125 181 L 308.078125 247 C 308.078125 248 309.078125 249 310.078125 249 L 348.078125 249 "/><path d="M 0 179 L 306.078125 179 C 307.078125 179 308.078125 180 308.078125 181 L 308.078125 247 C 308.078125 248 309.078125 249 310.078125 249 L 348.078125 249 " class="clickable"/></g><circle r="2" id="sprotty_ArchitectureBlockImpl$configurable_gw/BPortImpl$extintsrc_req_sync_to_ArchitectureBlockImpl$configurable_gw/AssignmentBlockImpl$gw_int_pending_in/GPortImpl$extintsrc_req_syncIN/junction0" transform="translate(308.078125, 179)" class="sprotty-junction junction" style="fill:rgb(112, 112, 112);stroke:none;"/></g><g id="sprotty_ArchitectureBlockImpl$configurable_gw/BPortImpl$meigwctrl_polarity_to_ArchitectureBlockImpl$configurable_gw/AssignmentBlockImpl$gw_int_pending_in/GPortImpl$meigwctrl_polarityIN" class="sprotty-edge edge" style="fill:none;stroke:rgb(112, 112, 112);stroke-linejoin:round;"><g><path d="M 0 259 L 348.078125 259 "/><path d="M 0 259 L 348.078125 259 " class="clickable"/></g></g><g id="sprotty_ArchitectureBlockImpl$configurable_gw/BPortImpl$meigwclr_to_ArchitectureBlockImpl$configurable_gw/AssignmentBlockImpl$gw_int_pending_in/GPortImpl$meigwclrIN" class="sprotty-edge edge" style="fill:none;stroke:rgb(112, 112, 112);stroke-linejoin:round;"><g><path d="M 0 293 L 306.078125 293 C 307.078125 293 308.078125 292 308.078125 291 L 308.078125 271 C 308.078125 270 309.078125 269 310.078125 269 L 348.078125 269 "/><path d="M 0 293 L 306.078125 293 C 307.078125 293 308.078125 292 308.078125 291 L 308.078125 271 C 308.078125 270 309.078125 269 310.078125 269 L 348.078125 269 " class="clickable"/></g></g><g id="sprotty_ArchitectureBlockImpl$configurable_gw/BPortImpl$meigwctrl_type_to_ArchitectureBlockImpl$configurable_gw/AssignmentBlockImpl$extintsrc_req_config/GPortImpl$meigwctrl_typeIN" class="sprotty-edge edge" style="fill:none;stroke:rgb(112, 112, 112);stroke-linejoin:round;"><g><path d="M 0 213 L 316.078125 213 C 317.078125 213 318.078125 212 318.078125 211 L 318.078125 191 C 318.078125 190 319.078125 189 320.078125 189 L 348.078125 189 "/><path d="M 0 213 L 316.078125 213 C 317.078125 213 318.078125 212 318.078125 211 L 318.078125 191 C 318.078125 190 319.078125 189 320.078125 189 L 348.078125 189 " class="clickable"/></g></g><g id="sprotty_ArchitectureBlockImpl$configurable_gw/BPortImpl$extintsrc_req_sync_to_ArchitectureBlockImpl$configurable_gw/AssignmentBlockImpl$extintsrc_req_config/GPortImpl$extintsrc_req_syncIN" class="sprotty-edge edge" style="fill:none;stroke:rgb(112, 112, 112);stroke-linejoin:round;"><g><path d="M 0 179 L 348.078125 179 "/><path d="M 0 179 L 348.078125 179 " class="clickable"/></g></g><g id="sprotty_ArchitectureBlockImpl$configurable_gw/BPortImpl$meigwctrl_polarity_to_ArchitectureBlockImpl$configurable_gw/AssignmentBlockImpl$extintsrc_req_config/GPortImpl$meigwctrl_polarityIN" class="sprotty-edge edge" style="fill:none;stroke:rgb(112, 112, 112);stroke-linejoin:round;"><g><path d="M 0 259 L 326.078125 259 C 327.078125 259 328.078125 258 328.078125 257 L 328.078125 201 C 328.078125 200 329.078125 199 330.078125 199 L 348.078125 199 "/><path d="M 0 259 L 326.078125 259 C 327.078125 259 328.078125 258 328.078125 257 L 328.078125 201 C 328.078125 200 329.078125 199 330.078125 199 L 348.078125 199 " class="clickable"/></g><circle r="2" id="sprotty_ArchitectureBlockImpl$configurable_gw/BPortImpl$meigwctrl_polarity_to_ArchitectureBlockImpl$configurable_gw/AssignmentBlockImpl$extintsrc_req_config/GPortImpl$meigwctrl_polarityIN/junction0" transform="translate(328.078125, 259)" class="sprotty-junction junction" style="fill:rgb(112, 112, 112);stroke:none;"/></g><g id="sprotty_ArchitectureBlockImpl$configurable_gw/AssignmentBlockImpl$gw_int_pending_in/GPortImpl$gw_int_pending_inOUT_to_ArchitectureBlockImpl$configurable_gw/InstantiationBlockImpl$int_pend_ff/BPortImpl$din" class="sprotty-edge edge" style="fill:none;stroke:rgb(112, 112, 112);stroke-linejoin:round;"><g><path d="M 367.515625 254 L 375.515625 254 C 376.515625 254 377.515625 253 377.515625 252 L 377.515625 37 C 377.515625 36 376.515625 35 375.515625 35 L 139.28125 35 C 138.28125 35 137.28125 36 137.28125 37 L 137.28125 81 C 137.28125 82 138.28125 83 139.28125 83 L 147.28125 83 "/><path d="M 367.515625 254 L 375.515625 254 C 376.515625 254 377.515625 253 377.515625 252 L 377.515625 37 C 377.515625 36 376.515625 35 375.515625 35 L 139.28125 35 C 138.28125 35 137.28125 36 137.28125 37 L 137.28125 81 C 137.28125 82 138.28125 83 139.28125 83 L 147.28125 83 " class="clickable"/></g></g><g id="sprotty_ArchitectureBlockImpl$configurable_gw/InstantiationBlockImpl$int_pend_ff/BPortImpl$dout_to_ArchitectureBlockImpl$configurable_gw/AssignmentBlockImpl$gw_int_pending_in/GPortImpl$gw_int_pendingIN" class="sprotty-edge edge" style="fill:none;stroke:rgb(112, 112, 112);stroke-linejoin:round;"><g><path d="M 298.078125 111 L 336.078125 111 C 337.078125 111 338.078125 112 338.078125 113 L 338.078125 237 C 338.078125 238 339.078125 239 340.078125 239 L 348.078125 239 "/><path d="M 298.078125 111 L 336.078125 111 C 337.078125 111 338.078125 112 338.078125 113 L 338.078125 237 C 338.078125 238 339.078125 239 340.078125 239 L 348.078125 239 " class="clickable"/></g></g><g id="sprotty_ArchitectureBlockImpl$configurable_gw/InstantiationBlockImpl$int_pend_ff/BPortImpl$dout_to_ArchitectureBlockImpl$configurable_gw/AssignmentBlockImpl$extintsrc_req_config/GPortImpl$gw_int_pendingIN" class="sprotty-edge edge" style="fill:none;stroke:rgb(112, 112, 112);stroke-linejoin:round;"><g><path d="M 298.078125 111 L 336.078125 111 C 337.078125 111 338.078125 112 338.078125 113 L 338.078125 167 C 338.078125 168 339.078125 169 340.078125 169 L 348.078125 169 "/><path d="M 298.078125 111 L 336.078125 111 C 337.078125 111 338.078125 112 338.078125 113 L 338.078125 167 C 338.078125 168 339.078125 169 340.078125 169 L 348.078125 169 " class="clickable"/></g><circle r="2" id="sprotty_ArchitectureBlockImpl$configurable_gw/InstantiationBlockImpl$int_pend_ff/BPortImpl$dout_to_ArchitectureBlockImpl$configurable_gw/AssignmentBlockImpl$extintsrc_req_config/GPortImpl$gw_int_pendingIN/junction0" transform="translate(338.078125, 169)" class="sprotty-junction junction" style="fill:rgb(112, 112, 112);stroke:none;"/></g><g id="sprotty_ArchitectureBlockImpl$configurable_gw/AssignmentBlockImpl$extintsrc_req_config" class="statement" transform="translate(348.078125, 159)"><rect x="0" y="0" rx="10" ry="5" width="19.4375" height="50" class="sprotty-node" style="fill:rgb(245, 245, 245);stroke:rgb(112, 112, 112);"/><text class="clickable sprotty-label statementtype" id="sprotty_ArchitectureBlockImpl$configurable_gw/AssignmentBlockImpl$extintsrc_req_config/labeltype" transform="translate(5, 19) translate(4.71875, 9.5)" style="cursor:default;font-size:8px;font-weight:700;perspective-origin:0px 0px;fill:rgb(112, 112, 112);text-anchor:middle;">&lt;=</text><g id="sprotty_ArchitectureBlockImpl$configurable_gw/AssignmentBlockImpl$extintsrc_req_config/GPortImpl$gw_int_pendingIN" class="sprotty-hidden hidden" transform="translate(0, 10)" style="display:block;height:0px;width:0px;"/><g id="sprotty_ArchitectureBlockImpl$configurable_gw/AssignmentBlockImpl$extintsrc_req_config/GPortImpl$meigwctrl_polarityIN" class="sprotty-hidden hidden" transform="translate(0, 40)" style="display:block;height:0px;width:0px;"/><g id="sprotty_ArchitectureBlockImpl$configurable_gw/AssignmentBlockImpl$extintsrc_req_config/GPortImpl$extintsrc_req_syncIN" class="sprotty-hidden hidden" transform="translate(0, 20)" style="display:block;height:0px;width:0px;"/><g id="sprotty_ArchitectureBlockImpl$configurable_gw/AssignmentBlockImpl$extintsrc_req_config/GPortImpl$meigwctrl_typeIN" class="sprotty-hidden hidden" transform="translate(0, 30)" style="display:block;height:0px;width:0px;"/><g id="sprotty_ArchitectureBlockImpl$configurable_gw/AssignmentBlockImpl$extintsrc_req_config/GPortImpl$extintsrc_req_configOUT" class="sprotty-hidden hidden" transform="translate(19.4375, 25)" style="display:block;height:0px;width:0px;"/></g><g id="sprotty_ArchitectureBlockImpl$configurable_gw/AssignmentBlockImpl$gw_int_pending_in" class="statement" transform="translate(348.078125, 229)"><rect x="0" y="0" rx="10" ry="5" width="19.4375" height="50" class="sprotty-node" style="fill:rgb(245, 245, 245);stroke:rgb(112, 112, 112);"/><text class="clickable sprotty-label statementtype" id="sprotty_ArchitectureBlockImpl$configurable_gw/AssignmentBlockImpl$gw_int_pending_in/labeltype" transform="translate(5, 19) translate(4.71875, 9.5)" style="cursor:default;font-size:8px;font-weight:700;perspective-origin:0px 0px;fill:rgb(112, 112, 112);text-anchor:middle;">&lt;=</text><g id="sprotty_ArchitectureBlockImpl$configurable_gw/AssignmentBlockImpl$gw_int_pending_in/GPortImpl$meigwclrIN" class="sprotty-hidden hidden" transform="translate(0, 40)" style="display:block;height:0px;width:0px;"/><g id="sprotty_ArchitectureBlockImpl$configurable_gw/AssignmentBlockImpl$gw_int_pending_in/GPortImpl$gw_int_pendingIN" class="sprotty-hidden hidden" transform="translate(0, 10)" style="display:block;height:0px;width:0px;"/><g id="sprotty_ArchitectureBlockImpl$configurable_gw/AssignmentBlockImpl$gw_int_pending_in/GPortImpl$meigwctrl_polarityIN" class="sprotty-hidden hidden" transform="translate(0, 30)" style="display:block;height:0px;width:0px;"/><g id="sprotty_ArchitectureBlockImpl$configurable_gw/AssignmentBlockImpl$gw_int_pending_in/GPortImpl$extintsrc_req_syncIN" class="sprotty-hidden hidden" transform="translate(0, 20)" style="display:block;height:0px;width:0px;"/><g id="sprotty_ArchitectureBlockImpl$configurable_gw/AssignmentBlockImpl$gw_int_pending_in/GPortImpl$gw_int_pending_inOUT" class="sprotty-hidden hidden" transform="translate(19.4375, 25)" style="display:block;height:0px;width:0px;"/></g><g id="sprotty_ArchitectureBlockImpl$configurable_gw/InstantiationBlockImpl$int_pend_ff" class="instantiation" transform="translate(147.28125, 45)"><g class="sprotty-block" style="fill:rgb(255, 255, 255);stroke:rgb(48, 48, 48);stroke-dasharray:0px;"><rect x="0" y="0" rx="1" ry="1" width="150.796875" height="112"/><text x="75.3984375" y="12" class="sprotty-block-name" style="cursor:pointer;font-weight:700;perspective-origin:75.6562px 0px;fill:rgb(48, 48, 48);stroke:rgba(0, 0, 0, 0);dominant-baseline:middle;text-anchor:middle;">int_pend_ff : rvdff</text><line x1="0" y1="20" x2="150.796875" y2="20"/></g><g id="sprotty_ArchitectureBlockImpl$configurable_gw/InstantiationBlockImpl$int_pend_ff/BPortImpl$rst_l" class="triangle" transform="translate(0, 94)"><path d="M 0,0 L 5,2.5 L 0,5 Z" transform="translate(-1.67, -2.5)" class="sprotty-port" style="fill:rgb(48, 48, 48);stroke:rgb(48, 48, 48);"/><text class="clickable sprotty-label port" id="sprotty_ArchitectureBlockImpl$configurable_gw/InstantiationBlockImpl$int_pend_ff/BPortImpl$rst_l/label" transform="translate(6, -9) translate(12.3125, 14)" style="cursor:default;font-size:12px;perspective-origin:0px 0px;fill:rgb(48, 48, 48);text-anchor:middle;">rst_l</text></g><g id="sprotty_ArchitectureBlockImpl$configurable_gw/InstantiationBlockImpl$int_pend_ff/BPortImpl$clk" class="triangle" transform="translate(0, 66)"><path d="M 0,0 L 5,2.5 L 0,5 Z" transform="translate(-1.67, -2.5)" class="sprotty-port" style="fill:rgb(48, 48, 48);stroke:rgb(48, 48, 48);"/><text class="clickable sprotty-label port" id="sprotty_ArchitectureBlockImpl$configurable_gw/InstantiationBlockImpl$int_pend_ff/BPortImpl$clk/label" transform="translate(6, -9) translate(8.078125, 14)" style="cursor:default;font-size:12px;perspective-origin:0px 0px;fill:rgb(48, 48, 48);text-anchor:middle;">clk</text></g><g id="sprotty_ArchitectureBlockImpl$configurable_gw/InstantiationBlockImpl$int_pend_ff/BPortImpl$din" class="triangle" transform="translate(0, 38)"><path d="M 0,0 L 5,2.5 L 0,5 Z" transform="translate(-1.67, -2.5)" class="sprotty-port" style="fill:rgb(48, 48, 48);stroke:rgb(48, 48, 48);"/><text class="clickable sprotty-label port" id="sprotty_ArchitectureBlockImpl$configurable_gw/InstantiationBlockImpl$int_pend_ff/BPortImpl$din/label" transform="translate(6, -9) translate(9.046875, 14)" style="cursor:default;font-size:12px;perspective-origin:0px 0px;fill:rgb(48, 48, 48);text-anchor:middle;">din</text></g><g id="sprotty_ArchitectureBlockImpl$configurable_gw/InstantiationBlockImpl$int_pend_ff/BPortImpl$dout" class="triangle" transform="translate(150.796875, 66)"><path d="M 0,0 L 5,2.5 L 0,5 Z" transform="translate(-1.67, -2.5)" class="sprotty-port" style="fill:rgb(48, 48, 48);stroke:rgb(48, 48, 48);"/><text class="clickable sprotty-label port" id="sprotty_ArchitectureBlockImpl$configurable_gw/InstantiationBlockImpl$int_pend_ff/BPortImpl$dout/label" transform="translate(-32.53125, -9) translate(13.265625, 14)" style="cursor:default;font-size:12px;perspective-origin:0px 0px;fill:rgb(48, 48, 48);text-anchor:middle;">dout</text></g></g><g id="sprotty_ArchitectureBlockImpl$configurable_gw/BPortImpl$meigwclr" class="triangle" transform="translate(0, 293)"><path d="M 0,0 L 5,2.5 L 0,5 Z" transform="translate(-1.67, -2.5)" class="sprotty-port" style="fill:rgb(48, 48, 48);stroke:rgb(48, 48, 48);"/><text class="clickable sprotty-label port" id="sprotty_ArchitectureBlockImpl$configurable_gw/BPortImpl$meigwclr/label" transform="translate(6, 6) translate(25.765625, 14)" style="cursor:default;font-size:12px;perspective-origin:0.015625px 0px;fill:rgb(48, 48, 48);text-anchor:middle;">meigwclr</text></g><g id="sprotty_ArchitectureBlockImpl$configurable_gw/BPortImpl$meigwctrl_type" class="triangle" transform="translate(0, 213)"><path d="M 0,0 L 5,2.5 L 0,5 Z" transform="translate(-1.67, -2.5)" class="sprotty-port" style="fill:rgb(48, 48, 48);stroke:rgb(48, 48, 48);"/><text class="clickable sprotty-label port" id="sprotty_ArchitectureBlockImpl$configurable_gw/BPortImpl$meigwctrl_type/label" transform="translate(6, 6) translate(43.75, 14)" style="cursor:default;font-size:12px;perspective-origin:0px 0px;fill:rgb(48, 48, 48);text-anchor:middle;">meigwctrl_type</text></g><g id="sprotty_ArchitectureBlockImpl$configurable_gw/BPortImpl$meigwctrl_polarity" class="triangle" transform="translate(0, 259)"><path d="M 0,0 L 5,2.5 L 0,5 Z" transform="translate(-1.67, -2.5)" class="sprotty-port" style="fill:rgb(48, 48, 48);stroke:rgb(48, 48, 48);"/><text class="clickable sprotty-label port" id="sprotty_ArchitectureBlockImpl$configurable_gw/BPortImpl$meigwctrl_polarity/label" transform="translate(6, 6) translate(53.140625, 14)" style="cursor:default;font-size:12px;perspective-origin:0px 0px;fill:rgb(48, 48, 48);text-anchor:middle;">meigwctrl_polarity</text></g><g id="sprotty_ArchitectureBlockImpl$configurable_gw/BPortImpl$extintsrc_req_sync" class="triangle" transform="translate(0, 179)"><path d="M 0,0 L 5,2.5 L 0,5 Z" transform="translate(-1.67, -2.5)" class="sprotty-port" style="fill:rgb(48, 48, 48);stroke:rgb(48, 48, 48);"/><text class="clickable sprotty-label port" id="sprotty_ArchitectureBlockImpl$configurable_gw/BPortImpl$extintsrc_req_sync/label" transform="translate(6, 6) translate(52.671875, 14)" style="cursor:default;font-size:12px;perspective-origin:0px 0px;fill:rgb(48, 48, 48);text-anchor:middle;">extintsrc_req_sync</text></g><g id="sprotty_ArchitectureBlockImpl$configurable_gw/BPortImpl$rst_l" class="triangle" transform="translate(0, 145)"><path d="M 0,0 L 5,2.5 L 0,5 Z" transform="translate(-1.67, -2.5)" class="sprotty-port" style="fill:rgb(48, 48, 48);stroke:rgb(48, 48, 48);"/><text class="clickable sprotty-label port" id="sprotty_ArchitectureBlockImpl$configurable_gw/BPortImpl$rst_l/label" transform="translate(6, 6) translate(12.3125, 14)" style="cursor:default;font-size:12px;perspective-origin:0px 0px;fill:rgb(48, 48, 48);text-anchor:middle;">rst_l</text></g><g id="sprotty_ArchitectureBlockImpl$configurable_gw/BPortImpl$clk" class="triangle" transform="translate(0, 111)"><path d="M 0,0 L 5,2.5 L 0,5 Z" transform="translate(-1.67, -2.5)" class="sprotty-port" style="fill:rgb(48, 48, 48);stroke:rgb(48, 48, 48);"/><text class="clickable sprotty-label port" id="sprotty_ArchitectureBlockImpl$configurable_gw/BPortImpl$clk/label" transform="translate(6, 6) translate(8.078125, 14)" style="cursor:default;font-size:12px;perspective-origin:0px 0px;fill:rgb(48, 48, 48);text-anchor:middle;">clk</text></g><g id="sprotty_ArchitectureBlockImpl$configurable_gw/BPortImpl$extintsrc_req_config" class="triangle" transform="translate(523.171875, 184)"><path d="M 0,0 L 5,2.5 L 0,5 Z" transform="translate(-1.67, -2.5)" class="sprotty-port" style="fill:rgb(48, 48, 48);stroke:rgb(48, 48, 48);"/><text class="clickable sprotty-label port" id="sprotty_ArchitectureBlockImpl$configurable_gw/BPortImpl$extintsrc_req_config/label" transform="translate(-120.65625, 6) translate(57.328125, 14)" style="cursor:default;font-size:12px;perspective-origin:0px 0px;fill:rgb(48, 48, 48);text-anchor:middle;">extintsrc_req_config</text></g></g></g></svg>