<svg xmlns="http://www.w3.org/2000/svg" id="sprotty_work.rvclkhdr" class="sprotty-graph sprotty-block-diagram blockdiagram" style="font-family:&quot;Noto Sans&quot;, Helvetica, Arial, sans-serif;perspective-origin:0px 0px;transform-origin:0px 0px;" version="1.1" viewBox="7 7 339.15625 178" width="339.15625" height="178"><g transform="scale(1) translate(0,0)"><g id="sprotty_ArchitectureBlockImpl$rvclkhdr" class="architecture" transform="translate(12, 12)"><g class="sprotty-block" style="fill:rgb(255, 255, 255);stroke:rgb(48, 48, 48);stroke-dasharray:0px;"><rect x="0" y="0" rx="1" ry="1" width="329.15625" height="168"/><text x="164.578125" y="12" class="sprotty-block-name" style="cursor:pointer;font-weight:700;perspective-origin:164.594px 0px;fill:rgb(48, 48, 48);stroke:rgba(0, 0, 0, 0);dominant-baseline:middle;text-anchor:middle;">rvclkhdr</text><line x1="0" y1="20" x2="329.15625" y2="20"/></g><g id="sprotty_ArchitectureBlockImpl$rvclkhdr/InstantiationBlockImpl$rvclkhdr/BPortImpl$Q_to_ArchitectureBlockImpl$rvclkhdr/BPortImpl$l1clk" class="sprotty-edge edge" style="fill:none;stroke:rgb(112, 112, 112);stroke-linejoin:round;"><g><path d="M 281.90625 101 L 329.15625 101 "/><path d="M 281.90625 101 L 329.15625 101 " class="clickable"/></g></g><g id="sprotty_ArchitectureBlockImpl$rvclkhdr/BPortImpl$en_to_ArchitectureBlockImpl$rvclkhdr/InstantiationBlockImpl$rvclkhdr/BPortImpl$E" class="sprotty-edge edge" style="fill:none;stroke:rgb(112, 112, 112);stroke-linejoin:round;"><g><path d="M 0 95 L 113.3125 95 C 114.3125 95 115.3125 96 115.3125 97 L 115.3125 99 C 115.3125 100 116.3125 101 117.3125 101 L 125.3125 101 "/><path d="M 0 95 L 113.3125 95 C 114.3125 95 115.3125 96 115.3125 97 L 115.3125 99 C 115.3125 100 116.3125 101 117.3125 101 L 125.3125 101 " class="clickable"/></g></g><g id="sprotty_ArchitectureBlockImpl$rvclkhdr/BPortImpl$clk_to_ArchitectureBlockImpl$rvclkhdr/InstantiationBlockImpl$rvclkhdr/BPortImpl$CP" class="sprotty-edge edge" style="fill:none;stroke:rgb(112, 112, 112);stroke-linejoin:round;"><g><path d="M 0 129 L 125.3125 129 "/><path d="M 0 129 L 125.3125 129 " class="clickable"/></g></g><g id="sprotty_ArchitectureBlockImpl$rvclkhdr/BPortImpl$scan_mode_to_ArchitectureBlockImpl$rvclkhdr/AssignmentBlockImpl$TE/GPortImpl$scan_modeIN" class="sprotty-edge edge" style="fill:none;stroke:rgb(112, 112, 112);stroke-linejoin:round;"><g><path d="M 0 61 L 85.875 61 "/><path d="M 0 61 L 85.875 61 " class="clickable"/></g></g><g id="sprotty_ArchitectureBlockImpl$rvclkhdr/AssignmentBlockImpl$TE/GPortImpl$TEOUT_to_ArchitectureBlockImpl$rvclkhdr/InstantiationBlockImpl$rvclkhdr/BPortImpl$TE" class="sprotty-edge edge" style="fill:none;stroke:rgb(112, 112, 112);stroke-linejoin:round;"><g><path d="M 105.3125 61 L 113.3125 61 C 114.3125 61 115.3125 62 115.3125 63 L 115.3125 71 C 115.3125 72 116.3125 73 117.3125 73 L 125.3125 73 "/><path d="M 105.3125 61 L 113.3125 61 C 114.3125 61 115.3125 62 115.3125 63 L 115.3125 71 C 115.3125 72 116.3125 73 117.3125 73 L 125.3125 73 " class="clickable"/></g></g><g id="sprotty_ArchitectureBlockImpl$rvclkhdr/AssignmentBlockImpl$TE" class="statement" transform="translate(85.875, 50)"><rect x="0" y="0" rx="10" ry="5" width="19.4375" height="22" class="sprotty-node" style="fill:rgb(245, 245, 245);stroke:rgb(112, 112, 112);"/><text class="clickable sprotty-label statementtype" id="sprotty_ArchitectureBlockImpl$rvclkhdr/AssignmentBlockImpl$TE/labeltype" transform="translate(5, 5) translate(4.71875, 9)" style="cursor:default;font-size:8px;font-weight:700;perspective-origin:0px 0px;fill:rgb(112, 112, 112);text-anchor:middle;">&lt;=</text><g id="sprotty_ArchitectureBlockImpl$rvclkhdr/AssignmentBlockImpl$TE/GPortImpl$scan_modeIN" class="sprotty-hidden hidden" transform="translate(0, 11)" style="display:block;height:0px;width:0px;"/><g id="sprotty_ArchitectureBlockImpl$rvclkhdr/AssignmentBlockImpl$TE/GPortImpl$TEOUT" class="sprotty-hidden hidden" transform="translate(19.4375, 11)" style="display:block;height:0px;width:0px;"/></g><g id="sprotty_ArchitectureBlockImpl$rvclkhdr/InstantiationBlockImpl$rvclkhdr" class="instantiation" transform="translate(125.3125, 35)"><g class="sprotty-block" style="fill:rgb(255, 255, 255);stroke:rgb(48, 48, 48);stroke-dasharray:0px;"><rect x="0" y="0" rx="1" ry="1" width="156.59375" height="112"/><text x="78.296875" y="12" class="sprotty-block-name" style="cursor:pointer;font-weight:700;perspective-origin:78.3125px 0px;fill:rgb(48, 48, 48);stroke:rgba(0, 0, 0, 0);dominant-baseline:middle;text-anchor:middle;">rvclkhdr : clockhdr</text><line x1="0" y1="20" x2="156.59375" y2="20"/></g><g id="sprotty_ArchitectureBlockImpl$rvclkhdr/InstantiationBlockImpl$rvclkhdr/BPortImpl$CP" class="triangle" transform="translate(0, 94)"><path d="M 0,0 L 5,2.5 L 0,5 Z" transform="translate(-1.67, -2.5)" class="sprotty-port" style="fill:rgb(48, 48, 48);stroke:rgb(48, 48, 48);"/><text class="clickable sprotty-label port" id="sprotty_ArchitectureBlockImpl$rvclkhdr/InstantiationBlockImpl$rvclkhdr/BPortImpl$CP/label" transform="translate(6, -9) translate(7.625, 14)" style="cursor:default;font-size:12px;perspective-origin:0px 0px;fill:rgb(48, 48, 48);text-anchor:middle;">CP</text></g><g id="sprotty_ArchitectureBlockImpl$rvclkhdr/InstantiationBlockImpl$rvclkhdr/BPortImpl$E" class="triangle" transform="translate(0, 66)"><path d="M 0,0 L 5,2.5 L 0,5 Z" transform="translate(-1.67, -2.5)" class="sprotty-port" style="fill:rgb(48, 48, 48);stroke:rgb(48, 48, 48);"/><text class="clickable sprotty-label port" id="sprotty_ArchitectureBlockImpl$rvclkhdr/InstantiationBlockImpl$rvclkhdr/BPortImpl$E/label" transform="translate(6, -9) translate(3.53125, 14)" style="cursor:default;font-size:12px;perspective-origin:0px 0px;fill:rgb(48, 48, 48);text-anchor:middle;">E</text></g><g id="sprotty_ArchitectureBlockImpl$rvclkhdr/InstantiationBlockImpl$rvclkhdr/BPortImpl$TE" class="triangle" transform="translate(0, 38)"><path d="M 0,0 L 5,2.5 L 0,5 Z" transform="translate(-1.67, -2.5)" class="sprotty-port" style="fill:rgb(48, 48, 48);stroke:rgb(48, 48, 48);"/><text class="clickable sprotty-label port" id="sprotty_ArchitectureBlockImpl$rvclkhdr/InstantiationBlockImpl$rvclkhdr/BPortImpl$TE/label" transform="translate(6, -9) translate(7.125, 14)" style="cursor:default;font-size:12px;perspective-origin:0px 0px;fill:rgb(48, 48, 48);text-anchor:middle;">TE</text></g><g id="sprotty_ArchitectureBlockImpl$rvclkhdr/InstantiationBlockImpl$rvclkhdr/BPortImpl$Q" class="triangle" transform="translate(156.59375, 66)"><path d="M 0,0 L 5,2.5 L 0,5 Z" transform="translate(-1.67, -2.5)" class="sprotty-port" style="fill:rgb(48, 48, 48);stroke:rgb(48, 48, 48);"/><text class="clickable sprotty-label port" id="sprotty_ArchitectureBlockImpl$rvclkhdr/InstantiationBlockImpl$rvclkhdr/BPortImpl$Q/label" transform="translate(-14.90625, -9) translate(4.453125, 14)" style="cursor:default;font-size:12px;perspective-origin:0px 0px;fill:rgb(48, 48, 48);text-anchor:middle;">Q</text></g></g><g id="sprotty_ArchitectureBlockImpl$rvclkhdr/BPortImpl$scan_mode" class="triangle" transform="translate(0, 61)"><path d="M 0,0 L 5,2.5 L 0,5 Z" transform="translate(-1.67, -2.5)" class="sprotty-port" style="fill:rgb(48, 48, 48);stroke:rgb(48, 48, 48);"/><text class="clickable sprotty-label port" id="sprotty_ArchitectureBlockImpl$rvclkhdr/BPortImpl$scan_mode/label" transform="translate(6, 6) translate(32.4375, 14)" style="cursor:default;font-size:12px;perspective-origin:0px 0px;fill:rgb(48, 48, 48);text-anchor:middle;">scan_mode</text></g><g id="sprotty_ArchitectureBlockImpl$rvclkhdr/BPortImpl$clk" class="triangle" transform="translate(0, 129)"><path d="M 0,0 L 5,2.5 L 0,5 Z" transform="translate(-1.67, -2.5)" class="sprotty-port" style="fill:rgb(48, 48, 48);stroke:rgb(48, 48, 48);"/><text class="clickable sprotty-label port" id="sprotty_ArchitectureBlockImpl$rvclkhdr/BPortImpl$clk/label" transform="translate(6, 6) translate(8.078125, 14)" style="cursor:default;font-size:12px;perspective-origin:0px 0px;fill:rgb(48, 48, 48);text-anchor:middle;">clk</text></g><g id="sprotty_ArchitectureBlockImpl$rvclkhdr/BPortImpl$en" class="triangle" transform="translate(0, 95)"><path d="M 0,0 L 5,2.5 L 0,5 Z" transform="translate(-1.67, -2.5)" class="sprotty-port" style="fill:rgb(48, 48, 48);stroke:rgb(48, 48, 48);"/><text class="clickable sprotty-label port" id="sprotty_ArchitectureBlockImpl$rvclkhdr/BPortImpl$en/label" transform="translate(6, 6) translate(7, 14)" style="cursor:default;font-size:12px;perspective-origin:0px 0px;fill:rgb(48, 48, 48);text-anchor:middle;">en</text></g><g id="sprotty_ArchitectureBlockImpl$rvclkhdr/BPortImpl$l1clk" class="triangle" transform="translate(329.15625, 101)"><path d="M 0,0 L 5,2.5 L 0,5 Z" transform="translate(-1.67, -2.5)" class="sprotty-port" style="fill:rgb(48, 48, 48);stroke:rgb(48, 48, 48);"/><text class="clickable sprotty-label port" id="sprotty_ArchitectureBlockImpl$rvclkhdr/BPortImpl$l1clk/label" transform="translate(-32.25, 6) translate(13.125, 14)" style="cursor:default;font-size:12px;perspective-origin:0px 0px;fill:rgb(48, 48, 48);text-anchor:middle;">l1clk</text></g></g></g></svg>