<svg xmlns="http://www.w3.org/2000/svg" id="sprotty_work.clockhdr" class="sprotty-graph sprotty-block-diagram blockdiagram" style="font-family:&quot;Noto Sans&quot;, Helvetica, Arial, sans-serif;perspective-origin:0px 0px;transform-origin:0px 0px;" version="1.1" viewBox="7 7 212.375 153" width="212.375" height="153"><g transform="scale(1) translate(0,0)"><g id="sprotty_ArchitectureBlockImpl$clockhdr" class="architecture" transform="translate(12, 12)"><g class="sprotty-block" style="fill:rgb(255, 255, 255);stroke:rgb(48, 48, 48);stroke-dasharray:0px;"><rect x="0" y="0" rx="1" ry="1" width="202.375" height="143"/><text x="101.1875" y="12" class="sprotty-block-name" style="cursor:pointer;font-weight:700;perspective-origin:101.203px 0px;fill:rgb(48, 48, 48);stroke:rgba(0, 0, 0, 0);dominant-baseline:middle;text-anchor:middle;">clockhdr</text><line x1="0" y1="20" x2="202.375" y2="20"/></g><g id="sprotty_ArchitectureBlockImpl$clockhdr/AssignmentBlockImpl$Q/GPortImpl$QOUT_to_ArchitectureBlockImpl$clockhdr/BPortImpl$Q" class="sprotty-edge edge" style="fill:none;stroke:rgb(112, 112, 112);stroke-linejoin:round;"><g><path d="M 172.46875 89 L 202.375 89 "/><path d="M 172.46875 89 L 202.375 89 " class="clickable"/></g></g><g id="sprotty_ArchitectureBlockImpl$clockhdr/BPortImpl$E_to_ArchitectureBlockImpl$clockhdr/AssignmentBlockImpl$enable/GPortImpl$EIN" class="sprotty-edge edge" style="fill:none;stroke:rgb(112, 112, 112);stroke-linejoin:round;"><g><path d="M 0 70 L 44.25 70 C 45.25 70 46.25 71 46.25 72 L 46.25 92 C 46.25 93 47.25 94 48.25 94 L 56.25 94 "/><path d="M 0 70 L 44.25 70 C 45.25 70 46.25 71 46.25 72 L 46.25 92 C 46.25 93 47.25 94 48.25 94 L 56.25 94 " class="clickable"/></g></g><g id="sprotty_ArchitectureBlockImpl$clockhdr/BPortImpl$TE_to_ArchitectureBlockImpl$clockhdr/AssignmentBlockImpl$enable/GPortImpl$TEIN" class="sprotty-edge edge" style="fill:none;stroke:rgb(112, 112, 112);stroke-linejoin:round;"><g><path d="M 0 104 L 56.25 104 "/><path d="M 0 104 L 56.25 104 " class="clickable"/></g></g><g id="sprotty_ArchitectureBlockImpl$clockhdr/BPortImpl$CP_to_ArchitectureBlockImpl$clockhdr/AssignmentBlockImpl$Q/GPortImpl$CPIN" class="sprotty-edge edge" style="fill:none;stroke:rgb(112, 112, 112);stroke-linejoin:round;"><g><path d="M 0 36 L 141.03125 36 C 142.03125 36 143.03125 37 143.03125 38 L 143.03125 82 C 143.03125 83 144.03125 84 145.03125 84 L 153.03125 84 "/><path d="M 0 36 L 141.03125 36 C 142.03125 36 143.03125 37 143.03125 38 L 143.03125 82 C 143.03125 83 144.03125 84 145.03125 84 L 153.03125 84 " class="clickable"/></g></g><g id="sprotty_ArchitectureBlockImpl$clockhdr/BPortImpl$CP_to_ArchitectureBlockImpl$clockhdr/AlwaysBlockImpl$null4/GPortImpl$CPIN" class="sprotty-edge edge" style="fill:none;stroke:rgb(112, 112, 112);stroke-linejoin:round;"><g><path d="M 0 36 L 83.6875 36 C 84.6875 36 85.6875 37 85.6875 38 L 85.6875 87 C 85.6875 88 86.6875 89 87.6875 89 L 95.6875 89 "/><path d="M 0 36 L 83.6875 36 C 84.6875 36 85.6875 37 85.6875 38 L 85.6875 87 C 85.6875 88 86.6875 89 87.6875 89 L 95.6875 89 " class="clickable"/></g><circle r="2" id="sprotty_ArchitectureBlockImpl$clockhdr/BPortImpl$CP_to_ArchitectureBlockImpl$clockhdr/AlwaysBlockImpl$null4/GPortImpl$CPIN/junction0" transform="translate(85.6875, 36)" class="sprotty-junction junction" style="fill:rgb(112, 112, 112);stroke:none;"/></g><g id="sprotty_ArchitectureBlockImpl$clockhdr/AlwaysBlockImpl$null4/GPortImpl$en_ffOUT_to_ArchitectureBlockImpl$clockhdr/AssignmentBlockImpl$Q/GPortImpl$en_ffIN" class="sprotty-edge edge" style="fill:none;stroke:rgb(112, 112, 112);stroke-linejoin:round;"><g><path d="M 133.03125 94 L 153.03125 94 "/><path d="M 133.03125 94 L 153.03125 94 " class="clickable"/></g></g><g id="sprotty_ArchitectureBlockImpl$clockhdr/AssignmentBlockImpl$enable/GPortImpl$enableOUT_to_ArchitectureBlockImpl$clockhdr/AlwaysBlockImpl$null4/GPortImpl$enableIN" class="sprotty-edge edge" style="fill:none;stroke:rgb(112, 112, 112);stroke-linejoin:round;"><g><path d="M 75.6875 99 L 95.6875 99 "/><path d="M 75.6875 99 L 95.6875 99 " class="clickable"/></g></g><g id="sprotty_ArchitectureBlockImpl$clockhdr/AlwaysBlockImpl$null4" class="statement" transform="translate(95.6875, 79)"><rect x="0" y="0" rx="10" ry="5" width="37.34375" height="30" class="sprotty-node" style="fill:rgb(245, 245, 245);stroke:rgb(112, 112, 112);"/><text class="clickable sprotty-label statementtype" id="sprotty_ArchitectureBlockImpl$clockhdr/AlwaysBlockImpl$null4/labeltype" transform="translate(5, 9) translate(13.671875, 9.5)" style="cursor:default;font-size:8px;font-weight:700;perspective-origin:0px 0px;fill:rgb(112, 112, 112);text-anchor:middle;">always</text><g id="sprotty_ArchitectureBlockImpl$clockhdr/AlwaysBlockImpl$null4/GPortImpl$enableIN" class="sprotty-hidden hidden" transform="translate(0, 20)" style="display:block;height:0px;width:0px;"/><g id="sprotty_ArchitectureBlockImpl$clockhdr/AlwaysBlockImpl$null4/GPortImpl$CPIN" class="sprotty-hidden hidden" transform="translate(0, 10)" style="display:block;height:0px;width:0px;"/><g id="sprotty_ArchitectureBlockImpl$clockhdr/AlwaysBlockImpl$null4/GPortImpl$en_ffOUT" class="sprotty-hidden hidden" transform="translate(37.34375, 15)" style="display:block;height:0px;width:0px;"/></g><g id="sprotty_ArchitectureBlockImpl$clockhdr/AssignmentBlockImpl$Q" class="statement" transform="translate(153.03125, 74)"><rect x="0" y="0" rx="10" ry="5" width="19.4375" height="30" class="sprotty-node" style="fill:rgb(245, 245, 245);stroke:rgb(112, 112, 112);"/><text class="clickable sprotty-label statementtype" id="sprotty_ArchitectureBlockImpl$clockhdr/AssignmentBlockImpl$Q/labeltype" transform="translate(5, 9) translate(4.71875, 9.5)" style="cursor:default;font-size:8px;font-weight:700;perspective-origin:0px 0px;fill:rgb(112, 112, 112);text-anchor:middle;">&lt;=</text><g id="sprotty_ArchitectureBlockImpl$clockhdr/AssignmentBlockImpl$Q/GPortImpl$en_ffIN" class="sprotty-hidden hidden" transform="translate(0, 20)" style="display:block;height:0px;width:0px;"/><g id="sprotty_ArchitectureBlockImpl$clockhdr/AssignmentBlockImpl$Q/GPortImpl$CPIN" class="sprotty-hidden hidden" transform="translate(0, 10)" style="display:block;height:0px;width:0px;"/><g id="sprotty_ArchitectureBlockImpl$clockhdr/AssignmentBlockImpl$Q/GPortImpl$QOUT" class="sprotty-hidden hidden" transform="translate(19.4375, 15)" style="display:block;height:0px;width:0px;"/></g><g id="sprotty_ArchitectureBlockImpl$clockhdr/AssignmentBlockImpl$enable" class="statement" transform="translate(56.25, 84)"><rect x="0" y="0" rx="10" ry="5" width="19.4375" height="30" class="sprotty-node" style="fill:rgb(245, 245, 245);stroke:rgb(112, 112, 112);"/><text class="clickable sprotty-label statementtype" id="sprotty_ArchitectureBlockImpl$clockhdr/AssignmentBlockImpl$enable/labeltype" transform="translate(5, 9) translate(4.71875, 9.5)" style="cursor:default;font-size:8px;font-weight:700;perspective-origin:0px 0px;fill:rgb(112, 112, 112);text-anchor:middle;">&lt;=</text><g id="sprotty_ArchitectureBlockImpl$clockhdr/AssignmentBlockImpl$enable/GPortImpl$TEIN" class="sprotty-hidden hidden" transform="translate(0, 20)" style="display:block;height:0px;width:0px;"/><g id="sprotty_ArchitectureBlockImpl$clockhdr/AssignmentBlockImpl$enable/GPortImpl$EIN" class="sprotty-hidden hidden" transform="translate(0, 10)" style="display:block;height:0px;width:0px;"/><g id="sprotty_ArchitectureBlockImpl$clockhdr/AssignmentBlockImpl$enable/GPortImpl$enableOUT" class="sprotty-hidden hidden" transform="translate(19.4375, 15)" style="display:block;height:0px;width:0px;"/></g><g id="sprotty_ArchitectureBlockImpl$clockhdr/BPortImpl$CP" class="triangle" transform="translate(0, 36)"><path d="M 0,0 L 5,2.5 L 0,5 Z" transform="translate(-1.67, -2.5)" class="sprotty-port" style="fill:rgb(48, 48, 48);stroke:rgb(48, 48, 48);"/><text class="clickable sprotty-label port" id="sprotty_ArchitectureBlockImpl$clockhdr/BPortImpl$CP/label" transform="translate(6, 6) translate(7.625, 14)" style="cursor:default;font-size:12px;perspective-origin:0px 0px;fill:rgb(48, 48, 48);text-anchor:middle;">CP</text></g><g id="sprotty_ArchitectureBlockImpl$clockhdr/BPortImpl$E" class="triangle" transform="translate(0, 70)"><path d="M 0,0 L 5,2.5 L 0,5 Z" transform="translate(-1.67, -2.5)" class="sprotty-port" style="fill:rgb(48, 48, 48);stroke:rgb(48, 48, 48);"/><text class="clickable sprotty-label port" id="sprotty_ArchitectureBlockImpl$clockhdr/BPortImpl$E/label" transform="translate(6, 6) translate(3.53125, 14)" style="cursor:default;font-size:12px;perspective-origin:0px 0px;fill:rgb(48, 48, 48);text-anchor:middle;">E</text></g><g id="sprotty_ArchitectureBlockImpl$clockhdr/BPortImpl$TE" class="triangle" transform="translate(0, 104)"><path d="M 0,0 L 5,2.5 L 0,5 Z" transform="translate(-1.67, -2.5)" class="sprotty-port" style="fill:rgb(48, 48, 48);stroke:rgb(48, 48, 48);"/><text class="clickable sprotty-label port" id="sprotty_ArchitectureBlockImpl$clockhdr/BPortImpl$TE/label" transform="translate(6, 6) translate(7.125, 14)" style="cursor:default;font-size:12px;perspective-origin:0px 0px;fill:rgb(48, 48, 48);text-anchor:middle;">TE</text></g><g id="sprotty_ArchitectureBlockImpl$clockhdr/BPortImpl$Q" class="triangle" transform="translate(202.375, 89)"><path d="M 0,0 L 5,2.5 L 0,5 Z" transform="translate(-1.67, -2.5)" class="sprotty-port" style="fill:rgb(48, 48, 48);stroke:rgb(48, 48, 48);"/><text class="clickable sprotty-label port" id="sprotty_ArchitectureBlockImpl$clockhdr/BPortImpl$Q/label" transform="translate(-14.90625, 6) translate(4.453125, 14)" style="cursor:default;font-size:12px;perspective-origin:0px 0px;fill:rgb(48, 48, 48);text-anchor:middle;">Q</text></g></g></g></svg>