<svg xmlns="http://www.w3.org/2000/svg" id="sprotty_work.rveven_paritycheck" class="sprotty-graph sprotty-block-diagram blockdiagram" style="font-family:&quot;Noto Sans&quot;, Helvetica, Arial, sans-serif;perspective-origin:0px 0px;transform-origin:0px 0px;" version="1.1" viewBox="7 7 196.984375 118" width="196.984375" height="118"><g transform="scale(1) translate(0,0)"><g id="sprotty_ArchitectureBlockImpl$rveven_paritycheck" class="architecture" transform="translate(12, 12)"><g class="sprotty-block" style="fill:rgb(255, 255, 255);stroke:rgb(48, 48, 48);stroke-dasharray:0px;"><rect x="0" y="0" rx="1" ry="1" width="186.984375" height="108"/><text x="93.4921875" y="12" class="sprotty-block-name" style="cursor:pointer;font-weight:700;perspective-origin:93.4844px 0px;fill:rgb(48, 48, 48);stroke:rgba(0, 0, 0, 0);dominant-baseline:middle;text-anchor:middle;">rveven_paritycheck</text><line x1="0" y1="20" x2="186.984375" y2="20"/></g><g id="sprotty_ArchitectureBlockImpl$rveven_paritycheck/AssignmentBlockImpl$parity_err/GPortImpl$parity_errOUT_to_ArchitectureBlockImpl$rveven_paritycheck/BPortImpl$parity_err" class="sprotty-edge edge" style="fill:none;stroke:rgb(112, 112, 112);stroke-linejoin:round;"><g><path d="M 110.53125 64 L 186.984375 64 "/><path d="M 110.53125 64 L 186.984375 64 " class="clickable"/></g></g><g id="sprotty_ArchitectureBlockImpl$rveven_paritycheck/BPortImpl$data_in_to_ArchitectureBlockImpl$rveven_paritycheck/AssignmentBlockImpl$parity_err/GPortImpl$data_inIN" class="sprotty-edge thick edge" style="fill:none;stroke:rgb(112, 112, 112);stroke-linejoin:round;stroke-width:3px;"><g><path d="M 0 35 L 79.09375 35 C 80.09375 35 81.09375 36 81.09375 37 L 81.09375 57 C 81.09375 58 82.09375 59 83.09375 59 L 91.09375 59 "/><path d="M 0 35 L 79.09375 35 C 80.09375 35 81.09375 36 81.09375 37 L 81.09375 57 C 81.09375 58 82.09375 59 83.09375 59 L 91.09375 59 " class="clickable"/></g></g><g id="sprotty_ArchitectureBlockImpl$rveven_paritycheck/BPortImpl$parity_in_to_ArchitectureBlockImpl$rveven_paritycheck/AssignmentBlockImpl$parity_err/GPortImpl$parity_inIN" class="sprotty-edge edge" style="fill:none;stroke:rgb(112, 112, 112);stroke-linejoin:round;"><g><path d="M 0 69 L 91.09375 69 "/><path d="M 0 69 L 91.09375 69 " class="clickable"/></g></g><g id="sprotty_ArchitectureBlockImpl$rveven_paritycheck/AssignmentBlockImpl$parity_err" class="statement" transform="translate(91.09375, 49)"><rect x="0" y="0" rx="10" ry="5" width="19.4375" height="30" class="sprotty-node" style="fill:rgb(245, 245, 245);stroke:rgb(112, 112, 112);"/><text class="clickable sprotty-label statementtype" id="sprotty_ArchitectureBlockImpl$rveven_paritycheck/AssignmentBlockImpl$parity_err/labeltype" transform="translate(5, 9) translate(4.71875, 9)" style="cursor:default;font-size:8px;font-weight:700;perspective-origin:0px 0px;fill:rgb(112, 112, 112);text-anchor:middle;">&lt;=</text><g id="sprotty_ArchitectureBlockImpl$rveven_paritycheck/AssignmentBlockImpl$parity_err/GPortImpl$parity_inIN" class="sprotty-hidden hidden" transform="translate(0, 20)" style="display:block;height:0px;width:0px;"/><g id="sprotty_ArchitectureBlockImpl$rveven_paritycheck/AssignmentBlockImpl$parity_err/GPortImpl$data_inIN" class="sprotty-hidden hidden" transform="translate(0, 10)" style="display:block;height:0px;width:0px;"/><g id="sprotty_ArchitectureBlockImpl$rveven_paritycheck/AssignmentBlockImpl$parity_err/GPortImpl$parity_errOUT" class="sprotty-hidden hidden" transform="translate(19.4375, 15)" style="display:block;height:0px;width:0px;"/></g><g id="sprotty_ArchitectureBlockImpl$rveven_paritycheck/BPortImpl$parity_in" class="triangle" transform="translate(0, 69)"><path d="M 0,0 L 5,2.5 L 0,5 Z" transform="translate(-1.67, -2.5)" class="sprotty-port" style="fill:rgb(48, 48, 48);stroke:rgb(48, 48, 48);"/><text class="clickable sprotty-label port" id="sprotty_ArchitectureBlockImpl$rveven_paritycheck/BPortImpl$parity_in/label" transform="translate(6, 6) translate(25.046875, 14)" style="cursor:default;font-size:12px;perspective-origin:0px 0px;fill:rgb(48, 48, 48);text-anchor:middle;">parity_in</text></g><g id="sprotty_ArchitectureBlockImpl$rveven_paritycheck/BPortImpl$data_in" class="triangle" transform="translate(0, 35)"><path d="M 0,0 L 5,2.5 L 0,5 Z" transform="translate(-1.67, -2.5)" class="sprotty-port" style="fill:rgb(48, 48, 48);stroke:rgb(48, 48, 48);"/><text class="clickable sprotty-label port" id="sprotty_ArchitectureBlockImpl$rveven_paritycheck/BPortImpl$data_in/label" transform="translate(6, 6) translate(21.1875, 14)" style="cursor:default;font-size:12px;perspective-origin:0px 0px;fill:rgb(48, 48, 48);text-anchor:middle;">data_in</text></g><g id="sprotty_ArchitectureBlockImpl$rveven_paritycheck/BPortImpl$parity_err" class="triangle" transform="translate(186.984375, 64)"><path d="M 0,0 L 5,2.5 L 0,5 Z" transform="translate(-1.67, -2.5)" class="sprotty-port" style="fill:rgb(48, 48, 48);stroke:rgb(48, 48, 48);"/><text class="clickable sprotty-label port" id="sprotty_ArchitectureBlockImpl$rveven_paritycheck/BPortImpl$parity_err/label" transform="translate(-61.453125, 6) translate(27.71875, 14)" style="cursor:default;font-size:12px;perspective-origin:0px 0px;fill:rgb(48, 48, 48);text-anchor:middle;">parity_err</text></g></g></g></svg>