<svg xmlns="http://www.w3.org/2000/svg" id="sprotty_work.rvsyncss" class="sprotty-graph sprotty-block-diagram blockdiagram" style="font-family:&quot;Noto Sans&quot;, Helvetica, Arial, sans-serif;perspective-origin:0px 0px;transform-origin:0px 0px;" version="1.1" viewBox="7 7 403.0625 235" width="403.0625" height="235"><g transform="scale(1) translate(0,0)"><g id="sprotty_ArchitectureBlockImpl$rvsyncss" class="architecture" transform="translate(12, 12)"><g class="sprotty-block" style="fill:rgb(255, 255, 255);stroke:rgb(48, 48, 48);stroke-dasharray:0px;"><rect x="0" y="0" rx="1" ry="1" width="393.0625" height="225"/><text x="196.53125" y="12" class="sprotty-block-name" style="cursor:pointer;font-weight:700;perspective-origin:196.531px 0px;fill:rgb(48, 48, 48);stroke:rgba(0, 0, 0, 0);dominant-baseline:middle;text-anchor:middle;">rvsyncss</text><line x1="0" y1="20" x2="393.0625" y2="20"/></g><g id="sprotty_ArchitectureBlockImpl$rvsyncss/InstantiationBlockImpl$sync_ff2/BPortImpl$dout_to_ArchitectureBlockImpl$rvsyncss/BPortImpl$dout" class="sprotty-edge thick edge" style="fill:none;stroke:rgb(112, 112, 112);stroke-linejoin:round;stroke-width:3px;"><g><path d="M 345.53125 158 L 393.0625 158 "/><path d="M 345.53125 158 L 393.0625 158 " class="clickable"/></g></g><g id="sprotty_ArchitectureBlockImpl$rvsyncss/BPortImpl$din_to_ArchitectureBlockImpl$rvsyncss/InstantiationBlockImpl$sync_ff1/BPortImpl$din" class="sprotty-edge thick edge" style="fill:none;stroke:rgb(112, 112, 112);stroke-linejoin:round;stroke-width:3px;"><g><path d="M 0 67 L 53.625 67 C 54.625 67 55.625 68 55.625 69 L 55.625 71 C 55.625 72 56.625 73 57.625 73 L 75.625 73 "/><path d="M 0 67 L 53.625 67 C 54.625 67 55.625 68 55.625 69 L 55.625 71 C 55.625 72 56.625 73 57.625 73 L 75.625 73 " class="clickable"/></g></g><g id="sprotty_ArchitectureBlockImpl$rvsyncss/BPortImpl$clk_to_ArchitectureBlockImpl$rvsyncss/InstantiationBlockImpl$sync_ff1/BPortImpl$clk" class="sprotty-edge edge" style="fill:none;stroke:rgb(112, 112, 112);stroke-linejoin:round;"><g><path d="M 0 101 L 75.625 101 "/><path d="M 0 101 L 75.625 101 " class="clickable"/></g></g><g id="sprotty_ArchitectureBlockImpl$rvsyncss/BPortImpl$rst_l_to_ArchitectureBlockImpl$rvsyncss/InstantiationBlockImpl$sync_ff1/BPortImpl$rst_l" class="sprotty-edge edge" style="fill:none;stroke:rgb(112, 112, 112);stroke-linejoin:round;"><g><path d="M 0 186 L 53.625 186 C 54.625 186 55.625 185 55.625 184 L 55.625 131 C 55.625 130 56.625 129 57.625 129 L 75.625 129 "/><path d="M 0 186 L 53.625 186 C 54.625 186 55.625 185 55.625 184 L 55.625 131 C 55.625 130 56.625 129 57.625 129 L 75.625 129 " class="clickable"/></g><circle r="2" id="sprotty_ArchitectureBlockImpl$rvsyncss/BPortImpl$rst_l_to_ArchitectureBlockImpl$rvsyncss/InstantiationBlockImpl$sync_ff1/BPortImpl$rst_l/junction0" transform="translate(55.625, 186)" class="sprotty-junction junction" style="fill:rgb(112, 112, 112);stroke:none;"/></g><g id="sprotty_ArchitectureBlockImpl$rvsyncss/BPortImpl$clk_to_ArchitectureBlockImpl$rvsyncss/InstantiationBlockImpl$sync_ff2/BPortImpl$clk" class="sprotty-edge edge" style="fill:none;stroke:rgb(112, 112, 112);stroke-linejoin:round;"><g><path d="M 0 101 L 63.625 101 C 64.625 101 65.625 102 65.625 103 L 65.625 156 C 65.625 157 66.625 158 67.625 158 L 220.578125 158 "/><path d="M 0 101 L 63.625 101 C 64.625 101 65.625 102 65.625 103 L 65.625 156 C 65.625 157 66.625 158 67.625 158 L 220.578125 158 " class="clickable"/></g><circle r="2" id="sprotty_ArchitectureBlockImpl$rvsyncss/BPortImpl$clk_to_ArchitectureBlockImpl$rvsyncss/InstantiationBlockImpl$sync_ff2/BPortImpl$clk/junction0" transform="translate(65.625, 101)" class="sprotty-junction junction" style="fill:rgb(112, 112, 112);stroke:none;"/></g><g id="sprotty_ArchitectureBlockImpl$rvsyncss/BPortImpl$rst_l_to_ArchitectureBlockImpl$rvsyncss/InstantiationBlockImpl$sync_ff2/BPortImpl$rst_l" class="sprotty-edge edge" style="fill:none;stroke:rgb(112, 112, 112);stroke-linejoin:round;"><g><path d="M 0 186 L 220.578125 186 "/><path d="M 0 186 L 220.578125 186 " class="clickable"/></g></g><g id="sprotty_ArchitectureBlockImpl$rvsyncss/InstantiationBlockImpl$sync_ff1/BPortImpl$dout_to_ArchitectureBlockImpl$rvsyncss/InstantiationBlockImpl$sync_ff2/BPortImpl$din" class="sprotty-edge thick edge" style="fill:none;stroke:rgb(112, 112, 112);stroke-linejoin:round;stroke-width:3px;"><g><path d="M 200.578125 101 L 208.578125 101 C 209.578125 101 210.578125 102 210.578125 103 L 210.578125 128 C 210.578125 129 211.578125 130 212.578125 130 L 220.578125 130 "/><path d="M 200.578125 101 L 208.578125 101 C 209.578125 101 210.578125 102 210.578125 103 L 210.578125 128 C 210.578125 129 211.578125 130 212.578125 130 L 220.578125 130 " class="clickable"/></g></g><g id="sprotty_ArchitectureBlockImpl$rvsyncss/InstantiationBlockImpl$sync_ff2" class="instantiation" transform="translate(220.578125, 92)"><g class="sprotty-block" style="fill:rgb(255, 255, 255);stroke:rgb(48, 48, 48);stroke-dasharray:0px;"><rect x="0" y="0" rx="1" ry="1" width="124.953125" height="112"/><text x="62.4765625" y="12" class="sprotty-block-name" style="cursor:pointer;font-weight:700;perspective-origin:62.75px 0px;fill:rgb(48, 48, 48);stroke:rgba(0, 0, 0, 0);dominant-baseline:middle;text-anchor:middle;">sync_ff2 : rvdff</text><line x1="0" y1="20" x2="124.953125" y2="20"/></g><g id="sprotty_ArchitectureBlockImpl$rvsyncss/InstantiationBlockImpl$sync_ff2/BPortImpl$rst_l" class="triangle" transform="translate(0, 94)"><path d="M 0,0 L 5,2.5 L 0,5 Z" transform="translate(-1.67, -2.5)" class="sprotty-port" style="fill:rgb(48, 48, 48);stroke:rgb(48, 48, 48);"/><text class="clickable sprotty-label port" id="sprotty_ArchitectureBlockImpl$rvsyncss/InstantiationBlockImpl$sync_ff2/BPortImpl$rst_l/label" transform="translate(6, -9) translate(12.3125, 14)" style="cursor:default;font-size:12px;perspective-origin:0px 0px;fill:rgb(48, 48, 48);text-anchor:middle;">rst_l</text></g><g id="sprotty_ArchitectureBlockImpl$rvsyncss/InstantiationBlockImpl$sync_ff2/BPortImpl$clk" class="triangle" transform="translate(0, 66)"><path d="M 0,0 L 5,2.5 L 0,5 Z" transform="translate(-1.67, -2.5)" class="sprotty-port" style="fill:rgb(48, 48, 48);stroke:rgb(48, 48, 48);"/><text class="clickable sprotty-label port" id="sprotty_ArchitectureBlockImpl$rvsyncss/InstantiationBlockImpl$sync_ff2/BPortImpl$clk/label" transform="translate(6, -9) translate(8.078125, 14)" style="cursor:default;font-size:12px;perspective-origin:0px 0px;fill:rgb(48, 48, 48);text-anchor:middle;">clk</text></g><g id="sprotty_ArchitectureBlockImpl$rvsyncss/InstantiationBlockImpl$sync_ff2/BPortImpl$din" class="triangle" transform="translate(0, 38)"><path d="M 0,0 L 5,2.5 L 0,5 Z" transform="translate(-1.67, -2.5)" class="sprotty-port" style="fill:rgb(48, 48, 48);stroke:rgb(48, 48, 48);"/><text class="clickable sprotty-label port" id="sprotty_ArchitectureBlockImpl$rvsyncss/InstantiationBlockImpl$sync_ff2/BPortImpl$din/label" transform="translate(6, -9) translate(9.046875, 14)" style="cursor:default;font-size:12px;perspective-origin:0px 0px;fill:rgb(48, 48, 48);text-anchor:middle;">din</text></g><g id="sprotty_ArchitectureBlockImpl$rvsyncss/InstantiationBlockImpl$sync_ff2/BPortImpl$dout" class="triangle" transform="translate(124.953125, 66)"><path d="M 0,0 L 5,2.5 L 0,5 Z" transform="translate(-1.67, -2.5)" class="sprotty-port" style="fill:rgb(48, 48, 48);stroke:rgb(48, 48, 48);"/><text class="clickable sprotty-label port" id="sprotty_ArchitectureBlockImpl$rvsyncss/InstantiationBlockImpl$sync_ff2/BPortImpl$dout/label" transform="translate(-32.53125, -9) translate(13.265625, 14)" style="cursor:default;font-size:12px;perspective-origin:0px 0px;fill:rgb(48, 48, 48);text-anchor:middle;">dout</text></g></g><g id="sprotty_ArchitectureBlockImpl$rvsyncss/InstantiationBlockImpl$sync_ff1" class="instantiation" transform="translate(75.625, 35)"><g class="sprotty-block" style="fill:rgb(255, 255, 255);stroke:rgb(48, 48, 48);stroke-dasharray:0px;"><rect x="0" y="0" rx="1" ry="1" width="124.953125" height="112"/><text x="62.4765625" y="12" class="sprotty-block-name" style="cursor:pointer;font-weight:700;perspective-origin:62.75px 0px;fill:rgb(48, 48, 48);stroke:rgba(0, 0, 0, 0);dominant-baseline:middle;text-anchor:middle;">sync_ff1 : rvdff</text><line x1="0" y1="20" x2="124.953125" y2="20"/></g><g id="sprotty_ArchitectureBlockImpl$rvsyncss/InstantiationBlockImpl$sync_ff1/BPortImpl$rst_l" class="triangle" transform="translate(0, 94)"><path d="M 0,0 L 5,2.5 L 0,5 Z" transform="translate(-1.67, -2.5)" class="sprotty-port" style="fill:rgb(48, 48, 48);stroke:rgb(48, 48, 48);"/><text class="clickable sprotty-label port" id="sprotty_ArchitectureBlockImpl$rvsyncss/InstantiationBlockImpl$sync_ff1/BPortImpl$rst_l/label" transform="translate(6, -9) translate(12.3125, 14)" style="cursor:default;font-size:12px;perspective-origin:0px 0px;fill:rgb(48, 48, 48);text-anchor:middle;">rst_l</text></g><g id="sprotty_ArchitectureBlockImpl$rvsyncss/InstantiationBlockImpl$sync_ff1/BPortImpl$clk" class="triangle" transform="translate(0, 66)"><path d="M 0,0 L 5,2.5 L 0,5 Z" transform="translate(-1.67, -2.5)" class="sprotty-port" style="fill:rgb(48, 48, 48);stroke:rgb(48, 48, 48);"/><text class="clickable sprotty-label port" id="sprotty_ArchitectureBlockImpl$rvsyncss/InstantiationBlockImpl$sync_ff1/BPortImpl$clk/label" transform="translate(6, -9) translate(8.078125, 14)" style="cursor:default;font-size:12px;perspective-origin:0px 0px;fill:rgb(48, 48, 48);text-anchor:middle;">clk</text></g><g id="sprotty_ArchitectureBlockImpl$rvsyncss/InstantiationBlockImpl$sync_ff1/BPortImpl$din" class="triangle" transform="translate(0, 38)"><path d="M 0,0 L 5,2.5 L 0,5 Z" transform="translate(-1.67, -2.5)" class="sprotty-port" style="fill:rgb(48, 48, 48);stroke:rgb(48, 48, 48);"/><text class="clickable sprotty-label port" id="sprotty_ArchitectureBlockImpl$rvsyncss/InstantiationBlockImpl$sync_ff1/BPortImpl$din/label" transform="translate(6, -9) translate(9.046875, 14)" style="cursor:default;font-size:12px;perspective-origin:0px 0px;fill:rgb(48, 48, 48);text-anchor:middle;">din</text></g><g id="sprotty_ArchitectureBlockImpl$rvsyncss/InstantiationBlockImpl$sync_ff1/BPortImpl$dout" class="triangle" transform="translate(124.953125, 66)"><path d="M 0,0 L 5,2.5 L 0,5 Z" transform="translate(-1.67, -2.5)" class="sprotty-port" style="fill:rgb(48, 48, 48);stroke:rgb(48, 48, 48);"/><text class="clickable sprotty-label port" id="sprotty_ArchitectureBlockImpl$rvsyncss/InstantiationBlockImpl$sync_ff1/BPortImpl$dout/label" transform="translate(-32.53125, -9) translate(13.265625, 14)" style="cursor:default;font-size:12px;perspective-origin:0px 0px;fill:rgb(48, 48, 48);text-anchor:middle;">dout</text></g></g><g id="sprotty_ArchitectureBlockImpl$rvsyncss/BPortImpl$din" class="triangle" transform="translate(0, 67)"><path d="M 0,0 L 5,2.5 L 0,5 Z" transform="translate(-1.67, -2.5)" class="sprotty-port" style="fill:rgb(48, 48, 48);stroke:rgb(48, 48, 48);"/><text class="clickable sprotty-label port" id="sprotty_ArchitectureBlockImpl$rvsyncss/BPortImpl$din/label" transform="translate(6, 6) translate(9.046875, 14)" style="cursor:default;font-size:12px;perspective-origin:0px 0px;fill:rgb(48, 48, 48);text-anchor:middle;">din</text></g><g id="sprotty_ArchitectureBlockImpl$rvsyncss/BPortImpl$rst_l" class="triangle" transform="translate(0, 186)"><path d="M 0,0 L 5,2.5 L 0,5 Z" transform="translate(-1.67, -2.5)" class="sprotty-port" style="fill:rgb(48, 48, 48);stroke:rgb(48, 48, 48);"/><text class="clickable sprotty-label port" id="sprotty_ArchitectureBlockImpl$rvsyncss/BPortImpl$rst_l/label" transform="translate(6, 6) translate(12.3125, 14)" style="cursor:default;font-size:12px;perspective-origin:0px 0px;fill:rgb(48, 48, 48);text-anchor:middle;">rst_l</text></g><g id="sprotty_ArchitectureBlockImpl$rvsyncss/BPortImpl$clk" class="triangle" transform="translate(0, 101)"><path d="M 0,0 L 5,2.5 L 0,5 Z" transform="translate(-1.67, -2.5)" class="sprotty-port" style="fill:rgb(48, 48, 48);stroke:rgb(48, 48, 48);"/><text class="clickable sprotty-label port" id="sprotty_ArchitectureBlockImpl$rvsyncss/BPortImpl$clk/label" transform="translate(6, 6) translate(8.078125, 14)" style="cursor:default;font-size:12px;perspective-origin:0px 0px;fill:rgb(48, 48, 48);text-anchor:middle;">clk</text></g><g id="sprotty_ArchitectureBlockImpl$rvsyncss/BPortImpl$dout" class="triangle" transform="translate(393.0625, 158)"><path d="M 0,0 L 5,2.5 L 0,5 Z" transform="translate(-1.67, -2.5)" class="sprotty-port" style="fill:rgb(48, 48, 48);stroke:rgb(48, 48, 48);"/><text class="clickable sprotty-label port" id="sprotty_ArchitectureBlockImpl$rvsyncss/BPortImpl$dout/label" transform="translate(-32.53125, 6) translate(13.265625, 14)" style="cursor:default;font-size:12px;perspective-origin:0px 0px;fill:rgb(48, 48, 48);text-anchor:middle;">dout</text></g></g></g></svg>