<svg xmlns="http://www.w3.org/2000/svg" id="sprotty_root" class="sprotty-graph sprotty-state-machine statemachine" style="font-family:&quot;Noto Sans&quot;, Helvetica, Arial, sans-serif;perspective-origin:0px 0px;transform-origin:0px 0px;" version="1.1" viewBox="10 10 952.578125 395.928125" width="952.578125" height="395.928125"><g transform="scale(1) translate(0,0)"><g id="sprotty_fsm$buf_state" class="statemachine" transform="translate(15, 15)"><g class="sprotty-block" style="fill:rgb(255, 255, 255);stroke:rgb(48, 48, 48);stroke-dasharray:0px;"><rect x="0" y="0" rx="1" ry="1" width="942.578125" height="385.928125"/><text x="471.2890625" y="12" class="sprotty-block-name" style="cursor:pointer;font-weight:700;perspective-origin:235.641px 0px;fill:rgb(48, 48, 48);stroke:rgba(0, 0, 0, 0);dominant-baseline:middle;text-anchor:middle;">buf_state</text><line x1="0" y1="20" x2="942.578125" y2="20"/></g><g id="sprotty_fsm$buf_state/state$RD" class="state" transform="translate(145, 95.5)"><ellipse cx="20" cy="19.75" rx="20" ry="19.75" class="sprotty-node clickable" style="fill:rgb(255, 255, 255);stroke:rgb(48, 48, 48);"/><text class="clickable sprotty-label state" id="sprotty_fsm$buf_state/state$RD/label" transform="translate(9.421875, 8) translate(10.578125, 18)" style="cursor:default;perspective-origin:0px 0px;fill:rgb(48, 48, 48);text-anchor:middle;">RD</text></g><g id="sprotty_fsm$buf_state/state$IDLE" class="state" transform="translate(84, 334.428125)"><ellipse cx="30" cy="19.75" rx="30" ry="19.75" class="sprotty-node clickable" style="fill:rgb(255, 255, 255);stroke:rgb(48, 48, 48);"/><text class="clickable sprotty-label state" id="sprotty_fsm$buf_state/state$IDLE/label" transform="translate(13.109375, 8) translate(16.890625, 18)" style="cursor:default;perspective-origin:0px 0px;fill:rgb(48, 48, 48);text-anchor:middle;">IDLE</text></g><g id="sprotty_fsm$buf_state/state$WR" class="state" transform="translate(43, 36)"><ellipse cx="20" cy="19.75" rx="20" ry="19.75" class="sprotty-node clickable" style="fill:rgb(255, 255, 255);stroke:rgb(48, 48, 48);"/><text class="clickable sprotty-label state" id="sprotty_fsm$buf_state/state$WR/label" transform="translate(7.890625, 8) translate(12.109375, 18)" style="cursor:default;perspective-origin:0px 0px;fill:rgb(48, 48, 48);text-anchor:middle;">WR</text></g><g id="sprotty_fsm$buf_state/state$PEND" class="state" transform="translate(492.09375, 212.9140625)"><ellipse cx="27.046875" cy="19.75" rx="27.046875" ry="19.75" class="sprotty-node clickable" style="fill:rgb(255, 255, 255);stroke:rgb(48, 48, 48);"/><text class="clickable sprotty-label state" id="sprotty_fsm$buf_state/state$PEND/label" transform="translate(6, 8) translate(21.046875, 18)" style="cursor:default;perspective-origin:0px 0px;fill:rgb(48, 48, 48);text-anchor:middle;">PEND</text></g><g id="sprotty_fsm$buf_state/state$IDLE_to_fsm$buf_state/state$WR" class="sprotty-edge transition" style="fill:none;stroke:rgb(48, 48, 48);stroke-linejoin:round;"><g><path d=" M94,334.428125 C12,315.17109375 12,305.542578125 12,295.1449869791667 C12,284.7473958333333 12,273.58072916666663 12,263.0390625 C12,252.49739583333331 12,242.58072916666666 12,232.6640625 C12,222.74739583333331 12,212.83072916666666 12,199.42122395833331 C12,186.01171875 12,169.109375 12,155.9326171875 C12,142.755859375 12,133.3046875 12,123.853515625 C12,114.40234375 12,104.951171875 12,97.7255859375 C12,90.5 12,85.5 53,75.5"/><path d=" M94,334.428125 C12,315.17109375 12,305.542578125 12,295.1449869791667 C12,284.7473958333333 12,273.58072916666663 12,263.0390625 C12,252.49739583333331 12,242.58072916666666 12,232.6640625 C12,222.74739583333331 12,212.83072916666666 12,199.42122395833331 C12,186.01171875 12,169.109375 12,155.9326171875 C12,142.755859375 12,133.3046875 12,123.853515625 C12,114.40234375 12,104.951171875 12,97.7255859375 C12,90.5 12,85.5 53,75.5" class="clickable"/></g><path d="M 53,75.5 L 60,73 L 60,78 Z" transform="rotate(166.2930389959202 53 75.5)" class="arrow" style="fill:rgb(48, 48, 48);stroke-linejoin:miter;stroke-miterlimit:2;"/></g><g id="sprotty_fsm$buf_state/state$IDLE_to_fsm$buf_state/state$RD" class="sprotty-edge transition" style="fill:none;stroke:rgb(48, 48, 48);stroke-linejoin:round;"><g><path d=" M114,334.428125 C114,315.17109375 114,301.98183593749997 114,290.99078776041665 C114,279.99973958333334 114,271.20690104166664 113.99999999999994,256.89381510416666 C113.99999999999994,242.58072916666669 113.99999999999994,222.74739583333337 114,210.0390625 C114,197.33072916666663 114,191.74739583333331 114.00000000000006,186.16406249999997 C114.00000000000006,180.58072916666666 114,174.99739583333334 114,167.90397135416666 C114,160.810546875 114,152.20703125 155,135"/><path d=" M114,334.428125 C114,315.17109375 114,301.98183593749997 114,290.99078776041665 C114,279.99973958333334 114,271.20690104166664 113.99999999999994,256.89381510416666 C113.99999999999994,242.58072916666669 113.99999999999994,222.74739583333337 114,210.0390625 C114,197.33072916666663 114,191.74739583333331 114.00000000000006,186.16406249999997 C114.00000000000006,180.58072916666666 114,174.99739583333334 114,167.90397135416666 C114,160.810546875 114,152.20703125 155,135" class="clickable"/></g><path d="M 155,135 L 162,132.5 L 162,137.5 Z" transform="rotate(157.23300172477934 155 135)" class="arrow" style="fill:rgb(48, 48, 48);stroke-linejoin:miter;stroke-miterlimit:2;"/></g><g id="sprotty_fsm$buf_state/state$WR_to_fsm$buf_state/state$IDLE" class="sprotty-edge transition" style="fill:none;stroke:rgb(48, 48, 48);stroke-linejoin:round;"><g><path d=" M63,75.5 C63,85.5 63,102.1767578125 63,116.07405598958333 C63,129.97135416666669 63,141.08919270833331 63,155.09928385416666 C63,169.109375 63,186.01171875 63.00000000000006,199.42122395833331 C63.00000000000006,212.83072916666666 63,222.74739583333331 62.99999999999994,232.66406249999997 C63,242.58072916666666 63,252.49739583333334 63,263.03906249999994 C63,273.58072916666663 63,284.7473958333333 63,295.1449869791667 C63,305.542578125 63,315.17109375 104,334.428125"/><path d=" M63,75.5 C63,85.5 63,102.1767578125 63,116.07405598958333 C63,129.97135416666669 63,141.08919270833331 63,155.09928385416666 C63,169.109375 63,186.01171875 63.00000000000006,199.42122395833331 C63.00000000000006,212.83072916666666 63,222.74739583333331 62.99999999999994,232.66406249999997 C63,242.58072916666666 63,252.49739583333334 63,263.03906249999994 C63,273.58072916666663 63,284.7473958333333 63,295.1449869791667 C63,305.542578125 63,315.17109375 104,334.428125" class="clickable"/></g><path d="M 104,334.428125 L 111,331.928125 L 111,336.928125 Z" transform="rotate(-154.841321483013 104 334.428125)" class="arrow" style="fill:rgb(48, 48, 48);stroke-linejoin:miter;stroke-miterlimit:2;"/></g><g id="sprotty_fsm$buf_state/state$WR_to_fsm$buf_state/state$RD" class="sprotty-edge transition" style="fill:none;stroke:rgb(48, 48, 48);stroke-linejoin:round;"><g><path d=" M73,75.5 C73,75.5 155.8,85.5 165,95.5"/><path d=" M73,75.5 C73,75.5 155.8,85.5 165,95.5" class="clickable"/></g><path d="M 165,95.5 L 172,93 L 172,98 Z" transform="rotate(-132.61405596961117 165 95.5)" class="arrow" style="fill:rgb(48, 48, 48);stroke-linejoin:miter;stroke-miterlimit:2;"/></g><g id="sprotty_fsm$buf_state/state$RD_to_fsm$buf_state/state$IDLE" class="sprotty-edge transition" style="fill:none;stroke:rgb(48, 48, 48);stroke-linejoin:round;"><g><path d=" M165,135 C165,152.20703125 165,164.8837890625 165,175.44775390625 C165,186.01171875 165.00000000000006,194.462890625 165.00000000000006,208.60514322916666 C165,222.74739583333331 165,242.58072916666663 165,255.28906249999997 C164.99999999999994,267.99739583333337 164.99999999999994,273.58072916666674 164.99999999999994,279.16406250000006 C165,284.74739583333337 165.00000000000006,290.33072916666663 165.00000000000006,297.93665364583336 C165.00000000000006,305.54257812500003 165,315.17109375 124,334.428125"/><path d=" M165,135 C165,152.20703125 165,164.8837890625 165,175.44775390625 C165,186.01171875 165.00000000000006,194.462890625 165.00000000000006,208.60514322916666 C165,222.74739583333331 165,242.58072916666663 165,255.28906249999997 C164.99999999999994,267.99739583333337 164.99999999999994,273.58072916666674 164.99999999999994,279.16406250000006 C165,284.74739583333337 165.00000000000006,290.33072916666663 165.00000000000006,297.93665364583336 C165.00000000000006,305.54257812500003 165,315.17109375 124,334.428125" class="clickable"/></g><path d="M 124,334.428125 L 131,331.928125 L 131,336.928125 Z" transform="rotate(-25.158678516987035 124 334.428125)" class="arrow" style="fill:rgb(48, 48, 48);stroke-linejoin:miter;stroke-miterlimit:2;"/><text class="clickable sprotty-label transition" id="sprotty_fsm$buf_state/state$RD_to_fsm$buf_state/state$IDLE/label0" transform="translate(172, 220.9140625) translate(147.546875, 18)" style="cursor:default;perspective-origin:0px 0px;fill:rgb(48, 48, 48);stroke:none;text-anchor:middle;">If error go to idle, else wait for read data</text></g><g id="sprotty_fsm$buf_state/state$RD_to_fsm$buf_state/state$PEND" class="sprotty-edge transition" style="fill:none;stroke:rgb(48, 48, 48);stroke-linejoin:round;"><g><path d=" M175,135 C519.140625,152.20703125 519.140625,160.810546875 519.140625,167.90397135416666 C519.140625,174.99739583333334 519.140625,180.58072916666666 519.140625,187.55989583333331 C519.140625,194.5390625 519.140625,202.9140625 519.140625,212.9140625"/><path d=" M175,135 C519.140625,152.20703125 519.140625,160.810546875 519.140625,167.90397135416666 C519.140625,174.99739583333334 519.140625,180.58072916666666 519.140625,187.55989583333331 C519.140625,194.5390625 519.140625,202.9140625 519.140625,212.9140625" class="clickable"/></g><path d="M 519.140625,212.9140625 L 526.140625,210.4140625 L 526.140625,215.4140625 Z" transform="rotate(-90 519.140625 212.9140625)" class="arrow" style="fill:rgb(48, 48, 48);stroke-linejoin:miter;stroke-miterlimit:2;"/><text class="clickable sprotty-label transition" id="sprotty_fsm$buf_state/state$RD_to_fsm$buf_state/state$PEND/label0" transform="translate(526.140625, 169.4140625) translate(147.546875, 18)" style="cursor:default;perspective-origin:0px 0px;fill:rgb(48, 48, 48);stroke:none;text-anchor:middle;">If error go to idle, else wait for read data</text></g><g id="sprotty_fsm$buf_state/state$PEND_to_fsm$buf_state/state$IDLE" class="sprotty-edge transition" style="fill:none;stroke:rgb(48, 48, 48);stroke-linejoin:round;"><g><path d=" M519.140625,252.4140625 C519.140625,262.4140625 519.140625,270.7890625 519.140625,277.7682291666667 C519.140625,284.74739583333337 519.140625,290.33072916666663 519.140625,297.93665364583325 C519.140625,305.542578125 519.140625,315.17109375 134,334.428125"/><path d=" M519.140625,252.4140625 C519.140625,262.4140625 519.140625,270.7890625 519.140625,277.7682291666667 C519.140625,284.74739583333337 519.140625,290.33072916666663 519.140625,297.93665364583325 C519.140625,305.542578125 519.140625,315.17109375 134,334.428125" class="clickable"/></g><path d="M 134,334.428125 L 141,331.928125 L 141,336.928125 Z" transform="rotate(-2.862405226111749 134 334.428125)" class="arrow" style="fill:rgb(48, 48, 48);stroke-linejoin:miter;stroke-miterlimit:2;"/><text class="clickable sprotty-label transition" id="sprotty_fsm$buf_state/state$PEND_to_fsm$buf_state/state$IDLE/label0" transform="translate(526.140625, 272.4140625) translate(202.21875, 18)" style="cursor:default;perspective-origin:0px 0px;fill:rgb(48, 48, 48);stroke:none;text-anchor:middle;">go back for next command and present data next cycle</text></g></g></g></svg>