<svg xmlns="http://www.w3.org/2000/svg" id="sprotty_root" class="sprotty-graph sprotty-state-machine statemachine" style="font-family:&quot;Noto Sans&quot;, Helvetica, Arial, sans-serif;perspective-origin:0px 0px;transform-origin:0px 0px;" version="1.1" viewBox="10 10 634.234375 395.5" width="634.234375" height="395.5"><g transform="scale(1) translate(0,0)"><g id="sprotty_fsm$miss_state" class="statemachine" transform="translate(15, 15)"><g class="sprotty-block" style="fill:rgb(255, 255, 255);stroke:rgb(48, 48, 48);stroke-dasharray:0px;"><rect x="0" y="0" rx="1" ry="1" width="624.234375" height="385.5"/><text x="312.1171875" y="12" class="sprotty-block-name" style="cursor:pointer;font-weight:700;perspective-origin:156.055px 0px;fill:rgb(48, 48, 48);stroke:rgba(0, 0, 0, 0);dominant-baseline:middle;text-anchor:middle;">miss_state</text><line x1="0" y1="20" x2="624.234375" y2="20"/></g><g id="sprotty_fsm$miss_state/state$CRIT_BYP_OK" class="state" transform="translate(171.5703125, 36)"><ellipse cx="57.8984375" cy="19.75" rx="57.8984375" ry="19.75" class="sprotty-node clickable" style="fill:rgb(255, 255, 255);stroke:rgb(48, 48, 48);"/><text class="clickable sprotty-label state" id="sprotty_fsm$miss_state/state$CRIT_BYP_OK/label" transform="translate(6, 8) translate(51.8125, 18)" style="cursor:default;perspective-origin:0.0390625px 0px;fill:rgb(48, 48, 48);text-anchor:middle;">CRIT_BYP_OK</text></g><g id="sprotty_fsm$miss_state/state$IDLE" class="state" transform="translate(210.046875, 334)"><ellipse cx="50" cy="19.75" rx="50" ry="19.75" class="sprotty-node clickable" style="fill:rgb(255, 255, 255);stroke:rgb(48, 48, 48);"/><text class="clickable sprotty-label state" id="sprotty_fsm$miss_state/state$IDLE/label" transform="translate(33.109375, 8) translate(16.890625, 18)" style="cursor:default;perspective-origin:0px 0px;fill:rgb(48, 48, 48);text-anchor:middle;">IDLE</text></g><g id="sprotty_fsm$miss_state/state$CRIT_WRD_RDY" class="state" transform="translate(74, 175)"><ellipse cx="64.7734375" cy="19.75" rx="64.7734375" ry="19.75" class="sprotty-node clickable" style="fill:rgb(255, 255, 255);stroke:rgb(48, 48, 48);"/><text class="clickable sprotty-label state" id="sprotty_fsm$miss_state/state$CRIT_WRD_RDY/label" transform="translate(6, 8) translate(58.515625, 18)" style="cursor:default;perspective-origin:0.125px 0px;fill:rgb(48, 48, 48);text-anchor:middle;">CRIT_WRD_RDY</text></g><g id="sprotty_fsm$miss_state/state$STREAM" class="state" transform="translate(511.5260416666667, 115.5)"><ellipse cx="36.53125" cy="19.75" rx="36.53125" ry="19.75" class="sprotty-node clickable" style="fill:rgb(255, 255, 255);stroke:rgb(48, 48, 48);"/><text class="clickable sprotty-label state" id="sprotty_fsm$miss_state/state$STREAM/label" transform="translate(6, 8) translate(30.53125, 18)" style="cursor:default;perspective-origin:0px 0px;fill:rgb(48, 48, 48);text-anchor:middle;">STREAM</text></g><g id="sprotty_fsm$miss_state/state$SCND_MISS" class="state" transform="translate(450.421875, 244.5)"><ellipse cx="49.90625" cy="19.75" rx="49.90625" ry="19.75" class="sprotty-node clickable" style="fill:rgb(255, 255, 255);stroke:rgb(48, 48, 48);"/><text class="clickable sprotty-label state" id="sprotty_fsm$miss_state/state$SCND_MISS/label" transform="translate(6, 8) translate(43.90625, 18)" style="cursor:default;perspective-origin:0px 0px;fill:rgb(48, 48, 48);text-anchor:middle;">SCND_MISS</text></g><g id="sprotty_fsm$miss_state/state$STALL_SCND_MISS" class="state" transform="translate(275.546875, 244.5)"><ellipse cx="76.9375" cy="19.75" rx="76.9375" ry="19.75" class="sprotty-node clickable" style="fill:rgb(255, 255, 255);stroke:rgb(48, 48, 48);"/><text class="clickable sprotty-label state" id="sprotty_fsm$miss_state/state$STALL_SCND_MISS/label" transform="translate(6, 8) translate(70.9375, 18)" style="cursor:default;perspective-origin:0px 0px;fill:rgb(48, 48, 48);text-anchor:middle;">STALL_SCND_MISS</text></g><g id="sprotty_fsm$miss_state/state$HIT_U_MISS" class="state" transform="translate(344, 175)"><ellipse cx="51.953125" cy="19.75" rx="51.953125" ry="19.75" class="sprotty-node clickable" style="fill:rgb(255, 255, 255);stroke:rgb(48, 48, 48);"/><text class="clickable sprotty-label state" id="sprotty_fsm$miss_state/state$HIT_U_MISS/label" transform="translate(6, 8) translate(45.953125, 18)" style="cursor:default;perspective-origin:0px 0px;fill:rgb(48, 48, 48);text-anchor:middle;">HIT_U_MISS</text></g><g id="sprotty_fsm$miss_state/state$MISS_WAIT" class="state" transform="translate(181.703125, 115.5)"><ellipse cx="47.765625" cy="19.75" rx="47.765625" ry="19.75" class="sprotty-node clickable" style="fill:rgb(255, 255, 255);stroke:rgb(48, 48, 48);"/><text class="clickable sprotty-label state" id="sprotty_fsm$miss_state/state$MISS_WAIT/label" transform="translate(6, 8) translate(41.765625, 18)" style="cursor:default;perspective-origin:0px 0px;fill:rgb(48, 48, 48);text-anchor:middle;">MISS_WAIT</text></g><g id="sprotty_fsm$miss_state/state$IDLE_to_fsm$miss_state/state$CRIT_BYP_OK" class="sprotty-edge transition" style="fill:none;stroke:rgb(48, 48, 48);stroke-linejoin:round;"><g><path d=" M220.046875,334 C12,309 12,296.49999999999994 12,285.70833333333326 C12,274.91666666666663 12,265.8333333333333 12,256.75 C12,247.66666666666666 12,238.58333333333334 12,223.29166666666669 C12,208 12,186.49999999999997 12,171.625 C12,156.75 12,148.5 12,140.25 C12,132 12,123.75 12,114.62499999999997 C12,105.49999999999999 12,95.5 186.044921875,75.5"/><path d=" M220.046875,334 C12,309 12,296.49999999999994 12,285.70833333333326 C12,274.91666666666663 12,265.8333333333333 12,256.75 C12,247.66666666666666 12,238.58333333333334 12,223.29166666666669 C12,208 12,186.49999999999997 12,171.625 C12,156.75 12,148.5 12,140.25 C12,132 12,123.75 12,114.62499999999997 C12,105.49999999999999 12,95.5 186.044921875,75.5" class="clickable"/></g><path d="M 186.044921875,75.5 L 193.044921875,73 L 193.044921875,78 Z" transform="rotate(173.4447311509338 186.044921875 75.5)" class="arrow" style="fill:rgb(48, 48, 48);stroke-linejoin:miter;stroke-miterlimit:2;"/></g><g id="sprotty_fsm$miss_state/state$IDLE_to_fsm$miss_state/state$HIT_U_MISS" class="sprotty-edge transition" style="fill:none;stroke:rgb(48, 48, 48);stroke-linejoin:round;"><g><path d=" M260.046875,334 C264.546875,309 264.546875,296.5 264.546875,286.9583333333333 C264.546875,277.41666666666663 264.546875,270.8333333333333 264.546875,264.25 C264.546875,257.66666666666663 264.546875,251.08333333333331 264.546875,244.04166666666666 C264.546875,237 264.546875,229.5 364.78125,214.5"/><path d=" M260.046875,334 C264.546875,309 264.546875,296.5 264.546875,286.9583333333333 C264.546875,277.41666666666663 264.546875,270.8333333333333 264.546875,264.25 C264.546875,257.66666666666663 264.546875,251.08333333333331 264.546875,244.04166666666666 C264.546875,237 264.546875,229.5 364.78125,214.5" class="clickable"/></g><path d="M 364.78125,214.5 L 371.78125,212 L 371.78125,217 Z" transform="rotate(171.48888913907575 364.78125 214.5)" class="arrow" style="fill:rgb(48, 48, 48);stroke-linejoin:miter;stroke-miterlimit:2;"/></g><g id="sprotty_fsm$miss_state/state$CRIT_BYP_OK_to_fsm$miss_state/state$IDLE" class="sprotty-edge transition" style="fill:none;stroke:rgb(48, 48, 48);stroke-linejoin:round;"><g><path d=" M200.51953125,75.5 C63,95.5 63,105.49999999999999 63,114.62499999999997 C63,123.75 63,132 63,140.25 C63,148.5 63,156.75 63,171.625 C63,186.49999999999997 63,208 63,223.29166666666669 C63,238.58333333333334 63,247.66666666666666 63,256.75 C63,265.8333333333333 63,274.91666666666663 63,285.70833333333326 C63,296.49999999999994 63,309 230.046875,334"/><path d=" M200.51953125,75.5 C63,95.5 63,105.49999999999999 63,114.62499999999997 C63,123.75 63,132 63,140.25 C63,148.5 63,156.75 63,171.625 C63,186.49999999999997 63,208 63,223.29166666666669 C63,238.58333333333334 63,247.66666666666666 63,256.75 C63,265.8333333333333 63,274.91666666666663 63,285.70833333333326 C63,296.49999999999994 63,309 230.046875,334" class="clickable"/></g><path d="M 230.046875,334 L 237.046875,331.5 L 237.046875,336.5 Z" transform="rotate(-171.4883661792249 230.046875 334)" class="arrow" style="fill:rgb(48, 48, 48);stroke-linejoin:miter;stroke-miterlimit:2;"/></g><g id="sprotty_fsm$miss_state/state$CRIT_BYP_OK_to_fsm$miss_state/state$MISS_WAIT" class="sprotty-edge transition" style="fill:none;stroke:rgb(48, 48, 48);stroke-linejoin:round;"><g><path d=" M229.46875,75.5 C229.46875,75.5 229.46875,95.5 229.46875,115.5"/><path d=" M229.46875,75.5 C229.46875,75.5 229.46875,95.5 229.46875,115.5" class="clickable"/></g><path d="M 229.46875,115.5 L 236.46875,113 L 236.46875,118 Z" transform="rotate(-90 229.46875 115.5)" class="arrow" style="fill:rgb(48, 48, 48);stroke-linejoin:miter;stroke-miterlimit:2;"/></g><g id="sprotty_fsm$miss_state/state$CRIT_BYP_OK_to_fsm$miss_state/state$CRIT_WRD_RDY" class="sprotty-edge transition" style="fill:none;stroke:rgb(48, 48, 48);stroke-linejoin:round;"><g><path d=" M214.994140625,75.5 C138.7734375,95.5 138.7734375,105.5 138.7734375,114.625 C138.77343749999994,123.75 138.77343750000006,132 138.77343750000006,142.3125 C138.77343750000006,152.625 138.7734375,165 138.7734375,175"/><path d=" M214.994140625,75.5 C138.7734375,95.5 138.7734375,105.5 138.7734375,114.625 C138.77343749999994,123.75 138.77343750000006,132 138.77343750000006,142.3125 C138.77343750000006,152.625 138.7734375,165 138.7734375,175" class="clickable"/></g><path d="M 138.7734375,175 L 145.7734375,172.5 L 145.7734375,177.5 Z" transform="rotate(-90 138.7734375 175)" class="arrow" style="fill:rgb(48, 48, 48);stroke-linejoin:miter;stroke-miterlimit:2;"/></g><g id="sprotty_fsm$miss_state/state$CRIT_BYP_OK_to_fsm$miss_state/state$STREAM" class="sprotty-edge transition" style="fill:none;stroke:rgb(48, 48, 48);stroke-linejoin:round;"><g><path d=" M258.41796875,75.5 C258.41796875,75.5 519.0933593750001,95.5 548.0572916666667,115.5"/><path d=" M258.41796875,75.5 C258.41796875,75.5 519.0933593750001,95.5 548.0572916666667,115.5" class="clickable"/></g><path d="M 548.0572916666667,115.5 L 555.0572916666667,113 L 555.0572916666667,118 Z" transform="rotate(-145.37437899257637 548.0572916666667 115.5)" class="arrow" style="fill:rgb(48, 48, 48);stroke-linejoin:miter;stroke-miterlimit:2;"/></g><g id="sprotty_fsm$miss_state/state$CRIT_BYP_OK_to_fsm$miss_state/state$HIT_U_MISS" class="sprotty-edge transition" style="fill:none;stroke:rgb(48, 48, 48);stroke-linejoin:round;"><g><path d=" M243.943359375,75.5 C395.953125,95.5 395.953125,105.5 395.953125,114.625 C395.953125,123.75 395.953125,132 395.953125,142.3125 C395.953125,152.625 395.953125,165 395.953125,175"/><path d=" M243.943359375,75.5 C395.953125,95.5 395.953125,105.5 395.953125,114.625 C395.953125,123.75 395.953125,132 395.953125,142.3125 C395.953125,152.625 395.953125,165 395.953125,175" class="clickable"/></g><path d="M 395.953125,175 L 402.953125,172.5 L 402.953125,177.5 Z" transform="rotate(-90 395.953125 175)" class="arrow" style="fill:rgb(48, 48, 48);stroke-linejoin:miter;stroke-miterlimit:2;"/></g><g id="sprotty_fsm$miss_state/state$CRIT_WRD_RDY_to_fsm$miss_state/state$IDLE" class="sprotty-edge transition" style="fill:none;stroke:rgb(48, 48, 48);stroke-linejoin:round;"><g><path d=" M138.7734375,214.5 C138.7734375,229.5 138.7734375,243.12499999999997 138.7734375,254.47916666666666 C138.77343749999994,265.83333333333337 138.77343750000006,274.91666666666663 138.77343750000006,285.7083333333333 C138.77343750000006,296.5 138.7734375,309 240.046875,334"/><path d=" M138.7734375,214.5 C138.7734375,229.5 138.7734375,243.12499999999997 138.7734375,254.47916666666666 C138.77343749999994,265.83333333333337 138.77343750000006,274.91666666666663 138.77343750000006,285.7083333333333 C138.77343750000006,296.5 138.7734375,309 240.046875,334" class="clickable"/></g><path d="M 240.046875,334 L 247.046875,331.5 L 247.046875,336.5 Z" transform="rotate(-166.13339950180884 240.046875 334)" class="arrow" style="fill:rgb(48, 48, 48);stroke-linejoin:miter;stroke-miterlimit:2;"/></g><g id="sprotty_fsm$miss_state/state$STREAM_to_fsm$miss_state/state$HIT_U_MISS" class="sprotty-edge transition" style="fill:none;stroke:rgb(48, 48, 48);stroke-linejoin:round;"><g><path d=" M535.8802083333334,155 C535.8802083333334,155 524.48515625,165 421.9296875,175"/><path d=" M535.8802083333334,155 C535.8802083333334,155 524.48515625,165 421.9296875,175" class="clickable"/></g><path d="M 421.9296875,175 L 428.9296875,172.5 L 428.9296875,177.5 Z" transform="rotate(-5.5692029447762925 421.9296875 175)" class="arrow" style="fill:rgb(48, 48, 48);stroke-linejoin:miter;stroke-miterlimit:2;"/></g><g id="sprotty_fsm$miss_state/state$STREAM_to_fsm$miss_state/state$IDLE" class="sprotty-edge transition" style="fill:none;stroke:rgb(48, 48, 48);stroke-linejoin:round;"><g><path d=" M560.234375,155 C560.234375,165 560.234375,181.125 560.234375,194.5625 C560.234375,208 560.234375,218.75 560.234375,233.20833333333331 C560.234375,247.66666666666666 560.234375,265.8333333333333 560.234375,281.16666666666663 C560.234375,296.5 560.234375,309 300.046875,334"/><path d=" M560.234375,155 C560.234375,165 560.234375,181.125 560.234375,194.5625 C560.234375,208 560.234375,218.75 560.234375,233.20833333333331 C560.234375,247.66666666666666 560.234375,265.8333333333333 560.234375,281.16666666666663 C560.234375,296.5 560.234375,309 300.046875,334" class="clickable"/></g><path d="M 300.046875,334 L 307.046875,331.5 L 307.046875,336.5 Z" transform="rotate(-5.488390776339865 300.046875 334)" class="arrow" style="fill:rgb(48, 48, 48);stroke-linejoin:miter;stroke-miterlimit:2;"/></g><g id="sprotty_fsm$miss_state/state$MISS_WAIT_to_fsm$miss_state/state$HIT_U_MISS" class="sprotty-edge transition" style="fill:none;stroke:rgb(48, 48, 48);stroke-linejoin:round;"><g><path d=" M245.390625,155 C245.390625,155 257.84921875,165 369.9765625,175"/><path d=" M245.390625,155 C245.390625,155 257.84921875,165 369.9765625,175" class="clickable"/></g><path d="M 369.9765625,175 L 376.9765625,172.5 L 376.9765625,177.5 Z" transform="rotate(-174.90359877678702 369.9765625 175)" class="arrow" style="fill:rgb(48, 48, 48);stroke-linejoin:miter;stroke-miterlimit:2;"/></g><g id="sprotty_fsm$miss_state/state$MISS_WAIT_to_fsm$miss_state/state$IDLE" class="sprotty-edge transition" style="fill:none;stroke:rgb(48, 48, 48);stroke-linejoin:round;"><g><path d=" M213.546875,155 C213.546875,165 213.546875,181.125 213.546875,194.5625 C213.546875,208 213.546875,218.75 213.546875,233.20833333333331 C213.546875,247.66666666666666 213.546875,265.8333333333333 213.546875,281.16666666666663 C213.546875,296.5 213.546875,309 250.046875,334"/><path d=" M213.546875,155 C213.546875,165 213.546875,181.125 213.546875,194.5625 C213.546875,208 213.546875,218.75 213.546875,233.20833333333331 C213.546875,247.66666666666666 213.546875,265.8333333333333 213.546875,281.16666666666663 C213.546875,296.5 213.546875,309 250.046875,334" class="clickable"/></g><path d="M 250.046875,334 L 257.046875,331.5 L 257.046875,336.5 Z" transform="rotate(-145.59152774797138 250.046875 334)" class="arrow" style="fill:rgb(48, 48, 48);stroke-linejoin:miter;stroke-miterlimit:2;"/></g><g id="sprotty_fsm$miss_state/state$HIT_U_MISS_to_fsm$miss_state/state$SCND_MISS" class="sprotty-edge transition" style="fill:none;stroke:rgb(48, 48, 48);stroke-linejoin:round;"><g><path d=" M427.125,214.5 C427.125,214.5 478.0359375,229.5 483.6927083333333,244.5"/><path d=" M427.125,214.5 C427.125,214.5 478.0359375,229.5 483.6927083333333,244.5" class="clickable"/></g><path d="M 483.6927083333333,244.5 L 490.6927083333333,242 L 490.6927083333333,247 Z" transform="rotate(-110.66236505132089 483.6927083333333 244.5)" class="arrow" style="fill:rgb(48, 48, 48);stroke-linejoin:miter;stroke-miterlimit:2;"/></g><g id="sprotty_fsm$miss_state/state$HIT_U_MISS_to_fsm$miss_state/state$STALL_SCND_MISS" class="sprotty-edge transition" style="fill:none;stroke:rgb(48, 48, 48);stroke-linejoin:round;"><g><path d=" M385.5625,214.5 C385.5625,214.5 355.7921875,229.5 352.484375,244.5"/><path d=" M385.5625,214.5 C385.5625,214.5 355.7921875,229.5 352.484375,244.5" class="clickable"/></g><path d="M 352.484375,244.5 L 359.484375,242 L 359.484375,247 Z" transform="rotate(-77.56412068640734 352.484375 244.5)" class="arrow" style="fill:rgb(48, 48, 48);stroke-linejoin:miter;stroke-miterlimit:2;"/></g><g id="sprotty_fsm$miss_state/state$HIT_U_MISS_to_fsm$miss_state/state$IDLE" class="sprotty-edge transition" style="fill:none;stroke:rgb(48, 48, 48);stroke-linejoin:round;"><g><path d=" M406.34375,214.5 C439.421875,229.5 439.421875,237 439.421875,244.04166666666666 C439.421875,251.08333333333331 439.421875,257.66666666666663 439.421875,264.25 C439.421875,270.8333333333333 439.421875,277.41666666666663 439.421875,286.9583333333333 C439.421875,296.5 439.421875,309 280.046875,334"/><path d=" M406.34375,214.5 C439.421875,229.5 439.421875,237 439.421875,244.04166666666666 C439.421875,251.08333333333331 439.421875,257.66666666666663 439.421875,264.25 C439.421875,270.8333333333333 439.421875,277.41666666666663 439.421875,286.9583333333333 C439.421875,296.5 439.421875,309 280.046875,334" class="clickable"/></g><path d="M 280.046875,334 L 287.046875,331.5 L 287.046875,336.5 Z" transform="rotate(-8.914926957147866 280.046875 334)" class="arrow" style="fill:rgb(48, 48, 48);stroke-linejoin:miter;stroke-miterlimit:2;"/></g><g id="sprotty_fsm$miss_state/state$SCND_MISS_to_fsm$miss_state/state$IDLE" class="sprotty-edge transition" style="fill:none;stroke:rgb(48, 48, 48);stroke-linejoin:round;"><g><path d=" M500.328125,284 C500.328125,284 479.3,309 290.046875,334"/><path d=" M500.328125,284 C500.328125,284 479.3,309 290.046875,334" class="clickable"/></g><path d="M 290.046875,334 L 297.046875,331.5 L 297.046875,336.5 Z" transform="rotate(-7.525101189974929 290.046875 334)" class="arrow" style="fill:rgb(48, 48, 48);stroke-linejoin:miter;stroke-miterlimit:2;"/></g><g id="sprotty_fsm$miss_state/state$SCND_MISS_to_fsm$miss_state/state$CRIT_BYP_OK" class="sprotty-edge transition" style="fill:none;stroke:rgb(48, 48, 48);stroke-linejoin:round;"><g><path d=" M516.9635416666666,244.5 C611.234375,229.5 611.234375,222 611.234375,210 C611.234375,198 611.234375,181.49999999999997 611.234375,169.125 C611.234375,156.75 611.234375,148.5 611.234375,140.25 C611.234375,132 611.234375,123.75 611.234375,114.625 C611.234375,105.5 611.234375,95.5 272.892578125,75.5"/><path d=" M516.9635416666666,244.5 C611.234375,229.5 611.234375,222 611.234375,210 C611.234375,198 611.234375,181.49999999999997 611.234375,169.125 C611.234375,156.75 611.234375,148.5 611.234375,140.25 C611.234375,132 611.234375,123.75 611.234375,114.625 C611.234375,105.5 611.234375,95.5 272.892578125,75.5" class="clickable"/></g><path d="M 272.892578125,75.5 L 279.892578125,73 L 279.892578125,78 Z" transform="rotate(3.3829213627636414 272.892578125 75.5)" class="arrow" style="fill:rgb(48, 48, 48);stroke-linejoin:miter;stroke-miterlimit:2;"/></g><g id="sprotty_fsm$miss_state/state$STALL_SCND_MISS_to_fsm$miss_state/state$IDLE" class="sprotty-edge transition" style="fill:none;stroke:rgb(48, 48, 48);stroke-linejoin:round;"><g><path d=" M352.484375,284 C352.484375,284 344.240625,309 270.046875,334"/><path d=" M352.484375,284 C352.484375,284 344.240625,309 270.046875,334" class="clickable"/></g><path d="M 270.046875,334 L 277.046875,331.5 L 277.046875,336.5 Z" transform="rotate(-18.621532253362094 270.046875 334)" class="arrow" style="fill:rgb(48, 48, 48);stroke-linejoin:miter;stroke-miterlimit:2;"/></g></g></g></svg>