<svg xmlns="http://www.w3.org/2000/svg" id="sprotty_root" class="sprotty-graph sprotty-state-machine statemachine" style="font-family:&quot;Noto Sans&quot;, Helvetica, Arial, sans-serif;perspective-origin:0px 0px;transform-origin:0px 0px;" version="1.1" viewBox="10 10 246.921875 276" width="246.921875" height="276"><g transform="scale(1) translate(0,0)"><g id="sprotty_fsm$err_stop_state" class="statemachine" transform="translate(15, 15)"><g class="sprotty-block" style="fill:rgb(255, 255, 255);stroke:rgb(48, 48, 48);stroke-dasharray:0px;"><rect x="0" y="0" rx="1" ry="1" width="236.921875" height="266"/><text x="118.4609375" y="12" class="sprotty-block-name" style="cursor:pointer;font-weight:700;perspective-origin:59.2266px 0px;fill:rgb(48, 48, 48);stroke:rgba(0, 0, 0, 0);dominant-baseline:middle;text-anchor:middle;">err_stop_state</text><line x1="0" y1="20" x2="236.921875" y2="20"/></g><g id="sprotty_fsm$err_stop_state/state$ERR_STOP_FETCH" class="state" transform="translate(75.703125, 95.5)"><ellipse cx="74.609375" cy="19.75" rx="74.609375" ry="19.75" class="sprotty-node clickable" style="fill:rgb(255, 255, 255);stroke:rgb(48, 48, 48);"/><text class="clickable sprotty-label state" id="sprotty_fsm$err_stop_state/state$ERR_STOP_FETCH/label" transform="translate(6, 8) translate(68.609375, 18)" style="cursor:default;perspective-origin:0px 0px;fill:rgb(48, 48, 48);text-anchor:middle;">ERR_STOP_FETCH</text></g><g id="sprotty_fsm$err_stop_state/state$ERR_FETCH2" class="state" transform="translate(12, 36)"><ellipse cx="54.40625" cy="19.75" rx="54.40625" ry="19.75" class="sprotty-node clickable" style="fill:rgb(255, 255, 255);stroke:rgb(48, 48, 48);"/><text class="clickable sprotty-label state" id="sprotty_fsm$err_stop_state/state$ERR_FETCH2/label" transform="translate(6, 8) translate(48.40625, 18)" style="cursor:default;perspective-origin:0px 0px;fill:rgb(48, 48, 48);text-anchor:middle;">ERR_FETCH2</text></g><g id="sprotty_fsm$err_stop_state/state$ERR_STOP_IDLE" class="state" transform="translate(46.66536458333333, 214.5)"><ellipse cx="66.859375" cy="19.75" rx="66.859375" ry="19.75" class="sprotty-node clickable" style="fill:rgb(255, 255, 255);stroke:rgb(48, 48, 48);"/><text class="clickable sprotty-label state" id="sprotty_fsm$err_stop_state/state$ERR_STOP_IDLE/label" transform="translate(6, 8) translate(60.859375, 18)" style="cursor:default;perspective-origin:0px 0px;fill:rgb(48, 48, 48);text-anchor:middle;">ERR_STOP_IDLE</text></g><g id="sprotty_fsm$err_stop_state/state$ERR_FETCH1" class="state" transform="translate(55.33125, 155)"><ellipse cx="54.40625" cy="19.75" rx="54.40625" ry="19.75" class="sprotty-node clickable" style="fill:rgb(255, 255, 255);stroke:rgb(48, 48, 48);"/><text class="clickable sprotty-label state" id="sprotty_fsm$err_stop_state/state$ERR_FETCH1/label" transform="translate(6, 8) translate(48.40625, 18)" style="cursor:default;perspective-origin:0px 0px;fill:rgb(48, 48, 48);text-anchor:middle;">ERR_FETCH1</text></g><g id="sprotty_fsm$err_stop_state/state$ERR_STOP_IDLE_to_fsm$err_stop_state/state$ERR_FETCH1" class="sprotty-edge transition" style="fill:none;stroke:rgb(48, 48, 48);stroke-linejoin:round;"><g><path d=" M100.15286458333333,214.5 C92.45716145833333,204.5 91.60208333333333,194.5 91.60208333333333,194.5"/><path d=" M100.15286458333333,214.5 C92.45716145833333,204.5 91.60208333333333,194.5 91.60208333333333,194.5" class="clickable"/></g><path d="M 91.60208333333333,194.5 L 98.60208333333333,192 L 98.60208333333333,197 Z" transform="rotate(85.11265151542611 91.60208333333333 194.5)" class="arrow" style="fill:rgb(48, 48, 48);stroke-linejoin:miter;stroke-miterlimit:2;"/></g><g id="sprotty_fsm$err_stop_state/state$ERR_FETCH1_to_fsm$err_stop_state/state$ERR_STOP_IDLE" class="sprotty-edge transition" style="fill:none;stroke:rgb(48, 48, 48);stroke-linejoin:round;"><g><path d=" M127.87291666666665,194.5 C127.87291666666665,194.5 127.77528645833333,204.5 126.89661458333332,214.5"/><path d=" M127.87291666666665,194.5 C127.87291666666665,194.5 127.77528645833333,204.5 126.89661458333332,214.5" class="clickable"/></g><path d="M 126.89661458333332,214.5 L 133.8966145833333,212 L 133.8966145833333,217 Z" transform="rotate(-84.97847762559184 126.89661458333332 214.5)" class="arrow" style="fill:rgb(48, 48, 48);stroke-linejoin:miter;stroke-miterlimit:2;"/></g><g id="sprotty_fsm$err_stop_state/state$ERR_FETCH1_to_fsm$err_stop_state/state$ERR_STOP_FETCH" class="sprotty-edge transition" style="fill:none;stroke:rgb(48, 48, 48);stroke-linejoin:round;"><g><path d=" M109.7375,155 C111.37265625,145 113.0078125,135 113.0078125,135"/><path d=" M109.7375,155 C111.37265625,145 113.0078125,135 113.0078125,135" class="clickable"/></g><path d="M 113.0078125,135 L 120.0078125,132.5 L 120.0078125,137.5 Z" transform="rotate(99.2865710621153 113.0078125 135)" class="arrow" style="fill:rgb(48, 48, 48);stroke-linejoin:miter;stroke-miterlimit:2;"/></g><g id="sprotty_fsm$err_stop_state/state$ERR_FETCH1_to_fsm$err_stop_state/state$ERR_FETCH2" class="sprotty-edge transition" style="fill:none;stroke:rgb(48, 48, 48);stroke-linejoin:round;"><g><path d=" M82.534375,155 C64.703125,145 64.703125,140 64.703125,134.20833333333331 C64.703125,128.41666666666666 64.703125,121.83333333333333 64.703125,115.25 C64.703125,108.66666666666666 64.703125,102.08333333333333 64.703125,96.29166666666666 C64.703125,90.5 64.703125,85.5 66.40625,75.5"/><path d=" M82.534375,155 C64.703125,145 64.703125,140 64.703125,134.20833333333331 C64.703125,128.41666666666666 64.703125,121.83333333333333 64.703125,115.25 C64.703125,108.66666666666666 64.703125,102.08333333333333 64.703125,96.29166666666666 C64.703125,90.5 64.703125,85.5 66.40625,75.5" class="clickable"/></g><path d="M 66.40625,75.5 L 73.40625,73 L 73.40625,78 Z" transform="rotate(99.665446430019 66.40625 75.5)" class="arrow" style="fill:rgb(48, 48, 48);stroke-linejoin:miter;stroke-miterlimit:2;"/></g><g id="sprotty_fsm$err_stop_state/state$ERR_FETCH2_to_fsm$err_stop_state/state$ERR_STOP_IDLE" class="sprotty-edge transition" style="fill:none;stroke:rgb(48, 48, 48);stroke-linejoin:round;"><g><path d=" M39.203125,75.5 C13.703125,85.5 13.703124999999993,90.5 13.703124999999993,97.125 C13.703124999999993,103.75 13.703125,112 13.703125,120.24999999999997 C13.703125,128.5 13.703125,136.75 13.703124999999993,149.125 C13.703124999999993,161.5 13.703124999999993,178 13.703124999999993,188.75000000000003 C13.703125,199.5 13.703125,204.5 73.40911458333332,214.5"/><path d=" M39.203125,75.5 C13.703125,85.5 13.703124999999993,90.5 13.703124999999993,97.125 C13.703124999999993,103.75 13.703125,112 13.703125,120.24999999999997 C13.703125,128.5 13.703125,136.75 13.703124999999993,149.125 C13.703124999999993,161.5 13.703124999999993,178 13.703124999999993,188.75000000000003 C13.703125,199.5 13.703125,204.5 73.40911458333332,214.5" class="clickable"/></g><path d="M 73.40911458333332,214.5 L 80.40911458333332,212 L 80.40911458333332,217 Z" transform="rotate(-170.49193116403083 73.40911458333332 214.5)" class="arrow" style="fill:rgb(48, 48, 48);stroke-linejoin:miter;stroke-miterlimit:2;"/></g><g id="sprotty_fsm$err_stop_state/state$ERR_FETCH2_to_fsm$err_stop_state/state$ERR_STOP_FETCH" class="sprotty-edge transition" style="fill:none;stroke:rgb(48, 48, 48);stroke-linejoin:round;"><g><path d=" M93.609375,75.5 C93.609375,75.5 144.6421875,85.5 150.3125,95.5"/><path d=" M93.609375,75.5 C93.609375,75.5 144.6421875,85.5 150.3125,95.5" class="clickable"/></g><path d="M 150.3125,95.5 L 157.3125,93 L 157.3125,98 Z" transform="rotate(-119.55459154268426 150.3125 95.5)" class="arrow" style="fill:rgb(48, 48, 48);stroke-linejoin:miter;stroke-miterlimit:2;"/></g><g id="sprotty_fsm$err_stop_state/state$ERR_STOP_FETCH_to_fsm$err_stop_state/state$ERR_STOP_IDLE" class="sprotty-edge transition" style="fill:none;stroke:rgb(48, 48, 48);stroke-linejoin:round;"><g><path d=" M187.6171875,135 C174.19453125,145 174.19453125,150 174.19453125,155.79166666666666 C174.19453125,161.58333333333331 174.19453125,168.16666666666666 174.19453125,174.75 C174.19453125,181.33333333333331 174.19453125,187.91666666666666 174.19453125,193.70833333333331 C174.19453125,199.5 174.19453125,204.5 153.64036458333334,214.5"/><path d=" M187.6171875,135 C174.19453125,145 174.19453125,150 174.19453125,155.79166666666666 C174.19453125,161.58333333333331 174.19453125,168.16666666666666 174.19453125,174.75 C174.19453125,181.33333333333331 174.19453125,187.91666666666666 174.19453125,193.70833333333331 C174.19453125,199.5 174.19453125,204.5 153.64036458333334,214.5" class="clickable"/></g><path d="M 153.64036458333334,214.5 L 160.64036458333334,212 L 160.64036458333334,217 Z" transform="rotate(-25.943818496933467 153.64036458333334 214.5)" class="arrow" style="fill:rgb(48, 48, 48);stroke-linejoin:miter;stroke-miterlimit:2;"/></g><g id="sprotty_fsm$err_stop_state/state$ERR_STOP_FETCH_to_fsm$err_stop_state/state$ERR_FETCH1" class="sprotty-edge transition" style="fill:none;stroke:rgb(48, 48, 48);stroke-linejoin:round;"><g><path d=" M150.3125,135 C150.3125,135 143.62656249999998,145 136.940625,155"/><path d=" M150.3125,135 C150.3125,135 143.62656249999998,145 136.940625,155" class="clickable"/></g><path d="M 136.940625,155 L 143.940625,152.5 L 143.940625,157.5 Z" transform="rotate(-56.23356016382342 136.940625 155)" class="arrow" style="fill:rgb(48, 48, 48);stroke-linejoin:miter;stroke-miterlimit:2;"/></g></g></g></svg>