<svg xmlns="http://www.w3.org/2000/svg" id="sprotty_root" class="sprotty-graph sprotty-state-machine statemachine" style="font-family:&quot;Noto Sans&quot;, Helvetica, Arial, sans-serif;perspective-origin:0px 0px;transform-origin:0px 0px;" version="1.1" viewBox="10 10 1383.15625 465.6715625" width="1383.15625" height="465.6715625"><g transform="scale(1) translate(0,0)"><g id="sprotty_fsm$dbg_state" class="statemachine" transform="translate(15, 15)"><g class="sprotty-block" style="fill:rgb(255, 255, 255);stroke:rgb(48, 48, 48);stroke-dasharray:0px;"><rect x="0" y="0" rx="1" ry="1" width="1373.15625" height="455.6715625"/><text x="686.578125" y="12" class="sprotty-block-name" style="cursor:pointer;font-weight:700;perspective-origin:343.289px 0px;fill:rgb(48, 48, 48);stroke:rgba(0, 0, 0, 0);dominant-baseline:middle;text-anchor:middle;">dbg_state</text><line x1="0" y1="20" x2="1373.15625" y2="20"/></g><g id="sprotty_fsm$dbg_state/state$HALTING" class="state" transform="translate(976.25, 214.5)"><ellipse cx="38.375" cy="19.75" rx="38.375" ry="19.75" class="sprotty-node clickable" style="fill:rgb(255, 255, 255);stroke:rgb(48, 48, 48);"/><text class="clickable sprotty-label state" id="sprotty_fsm$dbg_state/state$HALTING/label" transform="translate(6, 8) translate(32.375, 18)" style="cursor:default;perspective-origin:0px 0px;fill:rgb(48, 48, 48);text-anchor:middle;">HALTING</text></g><g id="sprotty_fsm$dbg_state/state$CORE_CMD_WAIT" class="state" transform="translate(609.84375, 214.5)"><ellipse cx="71.625" cy="19.75" rx="71.625" ry="19.75" class="sprotty-node clickable" style="fill:rgb(255, 255, 255);stroke:rgb(48, 48, 48);"/><text class="clickable sprotty-label state" id="sprotty_fsm$dbg_state/state$CORE_CMD_WAIT/label" transform="translate(6, 8) translate(65.625, 18)" style="cursor:default;perspective-origin:0px 0px;fill:rgb(48, 48, 48);text-anchor:middle;">CORE_CMD_WAIT</text></g><g id="sprotty_fsm$dbg_state/state$HALTED" class="state" transform="translate(979.6875, 404.1715625)"><ellipse cx="34.9375" cy="19.75" rx="34.9375" ry="19.75" class="sprotty-node clickable" style="fill:rgb(255, 255, 255);stroke:rgb(48, 48, 48);"/><text class="clickable sprotty-label state" id="sprotty_fsm$dbg_state/state$HALTED/label" transform="translate(6, 8) translate(28.9375, 18)" style="cursor:default;perspective-origin:0px 0px;fill:rgb(48, 48, 48);text-anchor:middle;">HALTED</text></g><g id="sprotty_fsm$dbg_state/state$CMD_DONE" class="state" transform="translate(221.625, 292.066875)"><ellipse cx="49.484375" cy="19.75" rx="49.484375" ry="19.75" class="sprotty-node clickable" style="fill:rgb(255, 255, 255);stroke:rgb(48, 48, 48);"/><text class="clickable sprotty-label state" id="sprotty_fsm$dbg_state/state$CMD_DONE/label" transform="translate(6, 8) translate(43.484375, 18)" style="cursor:default;perspective-origin:0px 0px;fill:rgb(48, 48, 48);text-anchor:middle;">CMD_DONE</text></g><g id="sprotty_fsm$dbg_state/state$IDLE" class="state" transform="translate(1023.421875, 95.5)"><ellipse cx="22.890625" cy="19.75" rx="22.890625" ry="19.75" class="sprotty-node clickable" style="fill:rgb(255, 255, 255);stroke:rgb(48, 48, 48);"/><text class="clickable sprotty-label state" id="sprotty_fsm$dbg_state/state$IDLE/label" transform="translate(6, 8) translate(16.890625, 18)" style="cursor:default;perspective-origin:0px 0px;fill:rgb(48, 48, 48);text-anchor:middle;">IDLE</text></g><g id="sprotty_fsm$dbg_state/state$SB_CMD_RESP" class="state" transform="translate(13.125, 214.5)"><ellipse cx="61.703125" cy="19.75" rx="61.703125" ry="19.75" class="sprotty-node clickable" style="fill:rgb(255, 255, 255);stroke:rgb(48, 48, 48);"/><text class="clickable sprotty-label state" id="sprotty_fsm$dbg_state/state$SB_CMD_RESP/label" transform="translate(6, 8) translate(55.703125, 18)" style="cursor:default;perspective-origin:0px 0px;fill:rgb(48, 48, 48);text-anchor:middle;">SB_CMD_RESP</text></g><g id="sprotty_fsm$dbg_state/state$RESUMING" class="state" transform="translate(999.84375, 36)"><ellipse cx="46.46875" cy="19.75" rx="46.46875" ry="19.75" class="sprotty-node clickable" style="fill:rgb(255, 255, 255);stroke:rgb(48, 48, 48);"/><text class="clickable sprotty-label state" id="sprotty_fsm$dbg_state/state$RESUMING/label" transform="translate(6, 8) translate(40.46875, 18)" style="cursor:default;perspective-origin:0px 0px;fill:rgb(48, 48, 48);text-anchor:middle;">RESUMING</text></g><g id="sprotty_fsm$dbg_state/state$CORE_CMD_START" class="state" transform="translate(450.68906250000003, 95.5)"><ellipse cx="76.25" cy="19.75" rx="76.25" ry="19.75" class="sprotty-node clickable" style="fill:rgb(255, 255, 255);stroke:rgb(48, 48, 48);"/><text class="clickable sprotty-label state" id="sprotty_fsm$dbg_state/state$CORE_CMD_START/label" transform="translate(6, 8) translate(70.25, 18)" style="cursor:default;perspective-origin:0px 0px;fill:rgb(48, 48, 48);text-anchor:middle;">CORE_CMD_START</text></g><g id="sprotty_fsm$dbg_state/state$SB_CMD_START" class="state" transform="translate(34.446875000000034, 95.5)"><ellipse cx="65.71875" cy="19.75" rx="65.71875" ry="19.75" class="sprotty-node clickable" style="fill:rgb(255, 255, 255);stroke:rgb(48, 48, 48);"/><text class="clickable sprotty-label state" id="sprotty_fsm$dbg_state/state$SB_CMD_START/label" transform="translate(6, 8) translate(59.71875, 18)" style="cursor:default;perspective-origin:0px 0px;fill:rgb(48, 48, 48);text-anchor:middle;">SB_CMD_START</text></g><g id="sprotty_fsm$dbg_state/state$SB_CMD_SEND" class="state" transform="translate(12, 155)"><ellipse cx="62.828125" cy="19.75" rx="62.828125" ry="19.75" class="sprotty-node clickable" style="fill:rgb(255, 255, 255);stroke:rgb(48, 48, 48);"/><text class="clickable sprotty-label state" id="sprotty_fsm$dbg_state/state$SB_CMD_SEND/label" transform="translate(6, 8) translate(56.828125, 18)" style="cursor:default;perspective-origin:0px 0px;fill:rgb(48, 48, 48);text-anchor:middle;">SB_CMD_SEND</text></g><g id="sprotty_fsm$dbg_state/state$IDLE_to_fsm$dbg_state/state$HALTED" class="sprotty-edge transition" style="fill:none;stroke:rgb(48, 48, 48);stroke-linejoin:round;"><g><path d=" M1053.9427083333333,135 C1078,145 1078,150 1078,156.62499999999997 C1078,163.25 1078,171.49999999999997 1078,179.74999999999997 C1078,188 1078,196.24999999999997 1078,211.7972395833333 C1078,227.34447916666664 1078,250.1889583333333 1078,266.488984375 C1078,282.78901041666666 1078,292.5445833333333 1078,302.30015625 C1078,312.05572916666665 1078,321.8113020833333 1078,335.76467447916656 C1078,349.7180468749999 1078,367.86921874999996 1032.09375,404.1715625"/><path d=" M1053.9427083333333,135 C1078,145 1078,150 1078,156.62499999999997 C1078,163.25 1078,171.49999999999997 1078,179.74999999999997 C1078,188 1078,196.24999999999997 1078,211.7972395833333 C1078,227.34447916666664 1078,250.1889583333333 1078,266.488984375 C1078,282.78901041666666 1078,292.5445833333333 1078,302.30015625 C1078,312.05572916666665 1078,321.8113020833333 1078,335.76467447916656 C1078,349.7180468749999 1078,367.86921874999996 1032.09375,404.1715625" class="clickable"/></g><path d="M 1032.09375,404.1715625 L 1039.09375,401.6715625 L 1039.09375,406.6715625 Z" transform="rotate(-38.336702604611155 1032.09375 404.1715625)" class="arrow" style="fill:rgb(48, 48, 48);stroke-linejoin:miter;stroke-miterlimit:2;"/><text class="clickable sprotty-label transition" id="sprotty_fsm$dbg_state/state$IDLE_to_fsm$dbg_state/state$HALTED/label0" transform="translate(1085, 222.5) translate(138.078125, 18)" style="cursor:default;perspective-origin:0px 0px;fill:rgb(48, 48, 48);stroke:none;text-anchor:middle;">initiate the halt command to the core</text></g><g id="sprotty_fsm$dbg_state/state$IDLE_to_fsm$dbg_state/state$HALTING" class="sprotty-edge transition" style="fill:none;stroke:rgb(48, 48, 48);stroke-linejoin:round;"><g><path d=" M1038.6822916666667,135 C1014.625,145 1014.625,150 1014.625,156.625 C1014.625,163.25 1014.625,171.5 1014.625,181.8125 C1014.625,192.125 1014.625,204.5 1014.625,214.5"/><path d=" M1038.6822916666667,135 C1014.625,145 1014.625,150 1014.625,156.625 C1014.625,163.25 1014.625,171.5 1014.625,181.8125 C1014.625,192.125 1014.625,204.5 1014.625,214.5" class="clickable"/></g><path d="M 1014.625,214.5 L 1021.625,212 L 1021.625,217 Z" transform="rotate(-90 1014.625 214.5)" class="arrow" style="fill:rgb(48, 48, 48);stroke-linejoin:miter;stroke-miterlimit:2;"/><text class="clickable sprotty-label transition" id="sprotty_fsm$dbg_state/state$IDLE_to_fsm$dbg_state/state$HALTING/label0" transform="translate(732.46875, 163) translate(138.078125, 18)" style="cursor:default;perspective-origin:0px 0px;fill:rgb(48, 48, 48);stroke:none;text-anchor:middle;">initiate the halt command to the core</text></g><g id="sprotty_fsm$dbg_state/state$HALTING_to_fsm$dbg_state/state$HALTED" class="sprotty-edge transition" style="fill:none;stroke:rgb(48, 48, 48);stroke-linejoin:round;"><g><path d=" M1014.625,254 C1014.625,273.0334375 1014.625,296.74238281249995 1014.625,320.451328125 C1014.625,344.1602734375 1014.625,367.86921874999996 1014.625,404.1715625"/><path d=" M1014.625,254 C1014.625,273.0334375 1014.625,296.74238281249995 1014.625,320.451328125 C1014.625,344.1602734375 1014.625,367.86921874999996 1014.625,404.1715625" class="clickable"/></g><path d="M 1014.625,404.1715625 L 1021.625,401.6715625 L 1021.625,406.6715625 Z" transform="rotate(-90 1014.625 404.1715625)" class="arrow" style="fill:rgb(48, 48, 48);stroke-linejoin:miter;stroke-miterlimit:2;"/><text class="clickable sprotty-label transition" id="sprotty_fsm$dbg_state/state$HALTING_to_fsm$dbg_state/state$HALTED/label0" transform="translate(704.109375, 300.066875) translate(152.171875, 18)" style="cursor:default;perspective-origin:0.0390625px 0px;fill:rgb(48, 48, 48);stroke:none;text-anchor:middle;">Goto HALTED once the core sends an ACK</text></g><g id="sprotty_fsm$dbg_state/state$CORE_CMD_START_to_fsm$dbg_state/state$CMD_DONE" class="sprotty-edge transition" style="fill:none;stroke:rgb(48, 48, 48);stroke-linejoin:round;"><g><path d=" M501.52239583333335,135 C394.5625,145 394.5625,150 394.56249999999994,156.625 C394.56249999999994,163.25 394.56249999999994,171.5 394.56249999999994,179.75 C394.5625,188 394.5625000000001,196.25000000000003 394.5625000000001,208.62500000000003 C394.5625,221 394.5625000000001,237.50000000000003 394.5625000000001,250.50835937500003 C394.5625000000001,263.51671875 394.5625,273.0334375 281.00625,292.066875"/><path d=" M501.52239583333335,135 C394.5625,145 394.5625,150 394.56249999999994,156.625 C394.56249999999994,163.25 394.56249999999994,171.5 394.56249999999994,179.75 C394.5625,188 394.5625000000001,196.25000000000003 394.5625000000001,208.62500000000003 C394.5625,221 394.5625000000001,237.50000000000003 394.5625000000001,250.50835937500003 C394.5625000000001,263.51671875 394.5625,273.0334375 281.00625,292.066875" class="clickable"/></g><path d="M 281.00625,292.066875 L 288.00625,289.566875 L 288.00625,294.566875 Z" transform="rotate(-9.515037070292875 281.00625 292.066875)" class="arrow" style="fill:rgb(48, 48, 48);stroke-linejoin:miter;stroke-miterlimit:2;"/><text class="clickable sprotty-label transition" id="sprotty_fsm$dbg_state/state$CORE_CMD_START_to_fsm$dbg_state/state$CMD_DONE/label0" transform="translate(158.65625, 163) translate(114.953125, 18)" style="cursor:default;perspective-origin:0px 0px;fill:rgb(48, 48, 48);stroke:none;text-anchor:middle;">new command sent to the core</text></g><g id="sprotty_fsm$dbg_state/state$CORE_CMD_START_to_fsm$dbg_state/state$CORE_CMD_WAIT" class="sprotty-edge transition" style="fill:none;stroke:rgb(48, 48, 48);stroke-linejoin:round;"><g><path d=" M552.3557291666667,135 C681.46875,145 681.46875,150 681.46875,156.625 C681.46875,163.25 681.4687499999999,171.5 681.4687499999998,181.8125 C681.4687499999999,192.125 681.46875,204.5 681.46875,214.5"/><path d=" M552.3557291666667,135 C681.46875,145 681.46875,150 681.46875,156.625 C681.46875,163.25 681.4687499999999,171.5 681.4687499999998,181.8125 C681.4687499999999,192.125 681.46875,204.5 681.46875,214.5" class="clickable"/></g><path d="M 681.46875,214.5 L 688.46875,212 L 688.46875,217 Z" transform="rotate(-90 681.46875 214.5)" class="arrow" style="fill:rgb(48, 48, 48);stroke-linejoin:miter;stroke-miterlimit:2;"/><text class="clickable sprotty-label transition" id="sprotty_fsm$dbg_state/state$CORE_CMD_START_to_fsm$dbg_state/state$CORE_CMD_WAIT/label0" transform="translate(445.5625, 163) translate(114.953125, 18)" style="cursor:default;perspective-origin:0px 0px;fill:rgb(48, 48, 48);stroke:none;text-anchor:middle;">new command sent to the core</text></g><g id="sprotty_fsm$dbg_state/state$CORE_CMD_WAIT_to_fsm$dbg_state/state$CMD_DONE" class="sprotty-edge transition" style="fill:none;stroke:rgb(48, 48, 48);stroke-linejoin:round;"><g><path d=" M681.46875,254 C681.46875,254 643.401875,273.0334375 300.8,292.066875"/><path d=" M681.46875,254 C681.46875,254 643.401875,273.0334375 300.8,292.066875" class="clickable"/></g><path d="M 300.8,292.066875 L 307.8,289.566875 L 307.8,294.566875 Z" transform="rotate(-3.179830119864233 300.8 292.066875)" class="arrow" style="fill:rgb(48, 48, 48);stroke-linejoin:miter;stroke-miterlimit:2;"/></g><g id="sprotty_fsm$dbg_state/state$SB_CMD_START_to_fsm$dbg_state/state$CMD_DONE" class="sprotty-edge transition" style="fill:none;stroke:rgb(48, 48, 48);stroke-linejoin:round;"><g><path d=" M122.07187500000003,135 C147.65625,145 147.65625,150 147.65625,156.625 C147.65625,163.25 147.65625,171.5 147.65625,179.75 C147.65625,188 147.65625,196.25000000000003 147.65625,208.62500000000003 C147.65625,221 147.65625,237.50000000000003 147.65625,250.50835937500003 C147.65625,263.51671875 147.65625,273.0334375 261.2125,292.066875"/><path d=" M122.07187500000003,135 C147.65625,145 147.65625,150 147.65625,156.625 C147.65625,163.25 147.65625,171.5 147.65625,179.75 C147.65625,188 147.65625,196.25000000000003 147.65625,208.62500000000003 C147.65625,221 147.65625,237.50000000000003 147.65625,250.50835937500003 C147.65625,263.51671875 147.65625,273.0334375 261.2125,292.066875" class="clickable"/></g><path d="M 261.2125,292.066875 L 268.2125,289.566875 L 268.2125,294.566875 Z" transform="rotate(-170.48496292970714 261.2125 292.066875)" class="arrow" style="fill:rgb(48, 48, 48);stroke-linejoin:miter;stroke-miterlimit:2;"/></g><g id="sprotty_fsm$dbg_state/state$SB_CMD_START_to_fsm$dbg_state/state$SB_CMD_SEND" class="sprotty-edge transition" style="fill:none;stroke:rgb(48, 48, 48);stroke-linejoin:round;"><g><path d=" M78.25937500000003,135 C78.25937500000003,135 75.17125,145 74.828125,155"/><path d=" M78.25937500000003,135 C78.25937500000003,135 75.17125,145 74.828125,155" class="clickable"/></g><path d="M 74.828125,155 L 81.828125,152.5 L 81.828125,157.5 Z" transform="rotate(-88.03480956092186 74.828125 155)" class="arrow" style="fill:rgb(48, 48, 48);stroke-linejoin:miter;stroke-miterlimit:2;"/></g><g id="sprotty_fsm$dbg_state/state$SB_CMD_SEND_to_fsm$dbg_state/state$SB_CMD_RESP" class="sprotty-edge transition" style="fill:none;stroke:rgb(48, 48, 48);stroke-linejoin:round;"><g><path d=" M74.828125,194.5 C74.828125,194.5 74.828125,204.5 74.828125,214.5"/><path d=" M74.828125,194.5 C74.828125,194.5 74.828125,204.5 74.828125,214.5" class="clickable"/></g><path d="M 74.828125,214.5 L 81.828125,212 L 81.828125,217 Z" transform="rotate(-90 74.828125 214.5)" class="arrow" style="fill:rgb(48, 48, 48);stroke-linejoin:miter;stroke-miterlimit:2;"/></g><g id="sprotty_fsm$dbg_state/state$SB_CMD_RESP_to_fsm$dbg_state/state$CMD_DONE" class="sprotty-edge transition" style="fill:none;stroke:rgb(48, 48, 48);stroke-linejoin:round;"><g><path d=" M74.828125,254 C74.828125,254 91.48718749999999,273.0334375 241.41875,292.066875"/><path d=" M74.828125,254 C74.828125,254 91.48718749999999,273.0334375 241.41875,292.066875" class="clickable"/></g><path d="M 241.41875,292.066875 L 248.41875,289.566875 L 248.41875,294.566875 Z" transform="rotate(-172.7651430761064 241.41875 292.066875)" class="arrow" style="fill:rgb(48, 48, 48);stroke-linejoin:miter;stroke-miterlimit:2;"/></g><g id="sprotty_fsm$dbg_state/state$CMD_DONE_to_fsm$dbg_state/state$HALTED" class="sprotty-edge transition" style="fill:none;stroke:rgb(48, 48, 48);stroke-linejoin:round;"><g><path d=" M271.109375,331.566875 C271.109375,331.566875 343.7140625,367.86921874999996 997.15625,404.1715625"/><path d=" M271.109375,331.566875 C271.109375,331.566875 343.7140625,367.86921874999996 997.15625,404.1715625" class="clickable"/></g><path d="M 997.15625,404.1715625 L 1004.15625,401.6715625 L 1004.15625,406.6715625 Z" transform="rotate(-176.82016988013578 997.15625 404.1715625)" class="arrow" style="fill:rgb(48, 48, 48);stroke-linejoin:miter;stroke-miterlimit:2;"/></g><g id="sprotty_fsm$dbg_state/state$RESUMING_to_fsm$dbg_state/state$IDLE" class="sprotty-edge transition" style="fill:none;stroke:rgb(48, 48, 48);stroke-linejoin:round;"><g><path d=" M1046.3125,75.5 C1046.3125,75.5 1046.3125,85.5 1046.3125,95.5"/><path d=" M1046.3125,75.5 C1046.3125,75.5 1046.3125,85.5 1046.3125,95.5" class="clickable"/></g><path d="M 1046.3125,95.5 L 1053.3125,93 L 1053.3125,98 Z" transform="rotate(-90 1046.3125 95.5)" class="arrow" style="fill:rgb(48, 48, 48);stroke-linejoin:miter;stroke-miterlimit:2;"/></g></g></g></svg>