<svg xmlns="http://www.w3.org/2000/svg" id="sprotty_root" class="sprotty-graph sprotty-state-machine statemachine" style="font-family:&quot;Noto Sans&quot;, Helvetica, Arial, sans-serif;perspective-origin:0px 0px;transform-origin:0px 0px;" version="1.1" viewBox="10 10 261.3359375 286" width="261.3359375" height="286"><g transform="scale(1) translate(0,0)"><g id="sprotty_fsm$perr_state" class="statemachine" transform="translate(15, 15)"><g class="sprotty-block" style="fill:rgb(255, 255, 255);stroke:rgb(48, 48, 48);stroke-dasharray:0px;"><rect x="0" y="0" rx="1" ry="1" width="251.3359375" height="276"/><text x="125.66796875" y="12" class="sprotty-block-name" style="cursor:pointer;font-weight:700;perspective-origin:62.8359px 0px;fill:rgb(48, 48, 48);stroke:rgba(0, 0, 0, 0);dominant-baseline:middle;text-anchor:middle;">perr_state</text><line x1="0" y1="20" x2="251.3359375" y2="20"/></g><g id="sprotty_fsm$perr_state/state$ECC_WFF" class="state" transform="translate(150.75911458333334, 36)"><ellipse cx="40.984375" cy="19.75" rx="40.984375" ry="19.75" class="sprotty-node clickable" style="fill:rgb(255, 255, 255);stroke:rgb(48, 48, 48);"/><text class="clickable sprotty-label state" id="sprotty_fsm$perr_state/state$ECC_WFF/label" transform="translate(6, 8) translate(34.984375, 18)" style="cursor:default;perspective-origin:0px 0px;fill:rgb(48, 48, 48);text-anchor:middle;">ECC_WFF</text></g><g id="sprotty_fsm$perr_state/state$ERR_IDLE" class="state" transform="translate(91.7578125, 165)"><ellipse cx="42.21875" cy="19.75" rx="42.21875" ry="19.75" class="sprotty-node clickable" style="fill:rgb(255, 255, 255);stroke:rgb(48, 48, 48);"/><text class="clickable sprotty-label state" id="sprotty_fsm$perr_state/state$ERR_IDLE/label" transform="translate(6, 8) translate(36.21875, 18)" style="cursor:default;perspective-origin:0px 0px;fill:rgb(48, 48, 48);text-anchor:middle;">ERR_IDLE</text></g><g id="sprotty_fsm$perr_state/state$ECC_CORR" class="state" transform="translate(80.4140625, 95.5)"><ellipse cx="46.078125" cy="19.75" rx="46.078125" ry="19.75" class="sprotty-node clickable" style="fill:rgb(255, 255, 255);stroke:rgb(48, 48, 48);"/><text class="clickable sprotty-label state" id="sprotty_fsm$perr_state/state$ECC_CORR/label" transform="translate(6, 8) translate(40.078125, 18)" style="cursor:default;perspective-origin:0px 0px;fill:rgb(48, 48, 48);text-anchor:middle;">ECC_CORR</text></g><g id="sprotty_fsm$perr_state/state$DMA_SB_ERR" class="state" transform="translate(12, 36)"><ellipse cx="56.703125" cy="19.75" rx="56.703125" ry="19.75" class="sprotty-node clickable" style="fill:rgb(255, 255, 255);stroke:rgb(48, 48, 48);"/><text class="clickable sprotty-label state" id="sprotty_fsm$perr_state/state$DMA_SB_ERR/label" transform="translate(6, 8) translate(50.703125, 18)" style="cursor:default;perspective-origin:0px 0px;fill:rgb(48, 48, 48);text-anchor:middle;">DMA_SB_ERR</text></g><g id="sprotty_fsm$perr_state/state$IC_WFF" class="state" transform="translate(97.3828125, 224.5)"><ellipse cx="33.78125" cy="19.75" rx="33.78125" ry="19.75" class="sprotty-node clickable" style="fill:rgb(255, 255, 255);stroke:rgb(48, 48, 48);"/><text class="clickable sprotty-label state" id="sprotty_fsm$perr_state/state$IC_WFF/label" transform="translate(6, 8) translate(27.78125, 18)" style="cursor:default;perspective-origin:0px 0px;fill:rgb(48, 48, 48);text-anchor:middle;">IC_WFF</text></g><g id="sprotty_fsm$perr_state/state$ERR_IDLE_to_fsm$perr_state/state$DMA_SB_ERR" class="sprotty-edge transition" style="fill:none;stroke:rgb(48, 48, 48);stroke-linejoin:round;"><g><path d=" M105.83072916666667,165 C15.204427083333314,150 15.204427083333314,142.5 15.204427083333314,135.45833333333331 C15.204427083333314,128.41666666666666 15.204427083333314,121.83333333333333 15.204427083333314,115.25 C15.204427083333314,108.66666666666666 15.204427083333314,102.08333333333333 15.204427083333314,96.29166666666666 C15.204427083333314,90.5 15.204427083333314,85.5 40.3515625,75.5"/><path d=" M105.83072916666667,165 C15.204427083333314,150 15.204427083333314,142.5 15.204427083333314,135.45833333333331 C15.204427083333314,128.41666666666666 15.204427083333314,121.83333333333333 15.204427083333314,115.25 C15.204427083333314,108.66666666666666 15.204427083333314,102.08333333333333 15.204427083333314,96.29166666666666 C15.204427083333314,90.5 15.204427083333314,85.5 40.3515625,75.5" class="clickable"/></g><path d="M 40.3515625,75.5 L 47.3515625,73 L 47.3515625,78 Z" transform="rotate(158.31428252679655 40.3515625 75.5)" class="arrow" style="fill:rgb(48, 48, 48);stroke-linejoin:miter;stroke-miterlimit:2;"/></g><g id="sprotty_fsm$perr_state/state$ERR_IDLE_to_fsm$perr_state/state$IC_WFF" class="sprotty-edge transition" style="fill:none;stroke:rgb(48, 48, 48);stroke-linejoin:round;"><g><path d=" M119.90364583333333,204.5 C119.90364583333333,204.5 119.90364583333333,214.5 119.90364583333334,224.5"/><path d=" M119.90364583333333,204.5 C119.90364583333333,204.5 119.90364583333333,214.5 119.90364583333334,224.5" class="clickable"/></g><path d="M 119.90364583333334,224.5 L 126.90364583333334,222 L 126.90364583333334,227 Z" transform="rotate(-90.0000000000001 119.90364583333334 224.5)" class="arrow" style="fill:rgb(48, 48, 48);stroke-linejoin:miter;stroke-miterlimit:2;"/></g><g id="sprotty_fsm$perr_state/state$ERR_IDLE_to_fsm$perr_state/state$ECC_WFF" class="sprotty-edge transition" style="fill:none;stroke:rgb(48, 48, 48);stroke-linejoin:round;"><g><path d=" M148.04947916666669,165 C187.3359375,150 187.3359375,142.5 187.3359375,135.45833333333331 C187.3359375,128.41666666666666 187.3359375,121.83333333333333 187.3359375,115.25 C187.3359375,108.66666666666666 187.3359375,102.08333333333333 187.3359375,96.29166666666666 C187.3359375,90.5 187.3359375,85.5 191.74348958333334,75.5"/><path d=" M148.04947916666669,165 C187.3359375,150 187.3359375,142.5 187.3359375,135.45833333333331 C187.3359375,128.41666666666666 187.3359375,121.83333333333333 187.3359375,115.25 C187.3359375,108.66666666666666 187.3359375,102.08333333333333 187.3359375,96.29166666666666 C187.3359375,90.5 187.3359375,85.5 191.74348958333334,75.5" class="clickable"/></g><path d="M 191.74348958333334,75.5 L 198.74348958333334,73 L 198.74348958333334,78 Z" transform="rotate(113.78573628369888 191.74348958333334 75.5)" class="arrow" style="fill:rgb(48, 48, 48);stroke-linejoin:miter;stroke-miterlimit:2;"/></g><g id="sprotty_fsm$perr_state/state$IC_WFF_to_fsm$perr_state/state$ERR_IDLE" class="sprotty-edge transition" style="fill:none;stroke:rgb(48, 48, 48);stroke-linejoin:round;"><g><path d=" M142.42447916666669,224.5 C145.23697916666666,214.5 148.04947916666666,204.5 148.04947916666666,204.5"/><path d=" M142.42447916666669,224.5 C145.23697916666666,214.5 148.04947916666666,204.5 148.04947916666666,204.5" class="clickable"/></g><path d="M 148.04947916666666,204.5 L 155.04947916666666,202 L 155.04947916666666,207 Z" transform="rotate(105.70863782901576 148.04947916666666 204.5)" class="arrow" style="fill:rgb(48, 48, 48);stroke-linejoin:miter;stroke-miterlimit:2;"/></g><g id="sprotty_fsm$perr_state/state$ECC_WFF_to_fsm$perr_state/state$ERR_IDLE" class="sprotty-edge transition" style="fill:none;stroke:rgb(48, 48, 48);stroke-linejoin:round;"><g><path d=" M212.23567708333334,75.5 C238.3359375,85.5 238.3359375,90.5 238.3359375,96.29166666666666 C238.3359375,102.08333333333333 238.3359375,108.66666666666666 238.3359375,115.25 C238.3359375,121.83333333333333 238.3359375,128.41666666666666 238.3359375,135.45833333333331 C238.3359375,142.5 238.3359375,150 162.12239583333334,165"/><path d=" M212.23567708333334,75.5 C238.3359375,85.5 238.3359375,90.5 238.3359375,96.29166666666666 C238.3359375,102.08333333333333 238.3359375,108.66666666666666 238.3359375,115.25 C238.3359375,121.83333333333333 238.3359375,128.41666666666666 238.3359375,135.45833333333331 C238.3359375,142.5 238.3359375,150 162.12239583333334,165" class="clickable"/></g><path d="M 162.12239583333334,165 L 169.12239583333334,162.5 L 169.12239583333334,167.5 Z" transform="rotate(-11.134380171427127 162.12239583333334 165)" class="arrow" style="fill:rgb(48, 48, 48);stroke-linejoin:miter;stroke-miterlimit:2;"/></g><g id="sprotty_fsm$perr_state/state$ECC_WFF_to_fsm$perr_state/state$ECC_CORR" class="sprotty-edge transition" style="fill:none;stroke:rgb(48, 48, 48);stroke-linejoin:round;"><g><path d=" M171.25130208333334,75.5 C171.25130208333334,75.5 144.79153645833333,85.5 141.8515625,95.5"/><path d=" M171.25130208333334,75.5 C171.25130208333334,75.5 144.79153645833333,85.5 141.8515625,95.5" class="clickable"/></g><path d="M 141.8515625,95.5 L 148.8515625,93 L 148.8515625,98 Z" transform="rotate(-73.61680120213339 141.8515625 95.5)" class="arrow" style="fill:rgb(48, 48, 48);stroke-linejoin:miter;stroke-miterlimit:2;"/></g><g id="sprotty_fsm$perr_state/state$DMA_SB_ERR_to_fsm$perr_state/state$ERR_IDLE" class="sprotty-edge transition" style="fill:none;stroke:rgb(48, 48, 48);stroke-linejoin:round;"><g><path d=" M68.703125,75.5 C66.20442708333334,85.5 66.20442708333334,90.5 66.20442708333334,96.29166666666666 C66.20442708333334,102.08333333333333 66.20442708333334,108.66666666666666 66.20442708333334,115.25 C66.20442708333334,121.83333333333333 66.20442708333334,128.41666666666666 66.20442708333334,135.45833333333331 C66.20442708333334,142.5 66.20442708333334,150 119.90364583333334,165"/><path d=" M68.703125,75.5 C66.20442708333334,85.5 66.20442708333334,90.5 66.20442708333334,96.29166666666666 C66.20442708333334,102.08333333333333 66.20442708333334,108.66666666666666 66.20442708333334,115.25 C66.20442708333334,121.83333333333333 66.20442708333334,128.41666666666666 66.20442708333334,135.45833333333331 C66.20442708333334,142.5 66.20442708333334,150 119.90364583333334,165" class="clickable"/></g><path d="M 119.90364583333334,165 L 126.90364583333334,162.5 L 126.90364583333334,167.5 Z" transform="rotate(-164.39316186770438 119.90364583333334 165)" class="arrow" style="fill:rgb(48, 48, 48);stroke-linejoin:miter;stroke-miterlimit:2;"/></g><g id="sprotty_fsm$perr_state/state$DMA_SB_ERR_to_fsm$perr_state/state$ECC_CORR" class="sprotty-edge transition" style="fill:none;stroke:rgb(48, 48, 48);stroke-linejoin:round;"><g><path d=" M97.0546875,75.5 C97.0546875,75.5 109.725,85.5 111.1328125,95.5"/><path d=" M97.0546875,75.5 C97.0546875,75.5 109.725,85.5 111.1328125,95.5" class="clickable"/></g><path d="M 111.1328125,95.5 L 118.1328125,93 L 118.1328125,98 Z" transform="rotate(-98.01350752823402 111.1328125 95.5)" class="arrow" style="fill:rgb(48, 48, 48);stroke-linejoin:miter;stroke-miterlimit:2;"/></g><g id="sprotty_fsm$perr_state/state$ECC_CORR_to_fsm$perr_state/state$ERR_IDLE" class="sprotty-edge transition" style="fill:none;stroke:rgb(48, 48, 48);stroke-linejoin:round;"><g><path d=" M126.4921875,135 C126.4921875,135 127.240625,150 133.9765625,165"/><path d=" M126.4921875,135 C126.4921875,135 127.240625,150 133.9765625,165" class="clickable"/></g><path d="M 133.9765625,165 L 140.9765625,162.5 L 140.9765625,167.5 Z" transform="rotate(-114.1830603833515 133.9765625 165)" class="arrow" style="fill:rgb(48, 48, 48);stroke-linejoin:miter;stroke-miterlimit:2;"/></g></g></g></svg>