<svg xmlns="http://www.w3.org/2000/svg" id="sprotty_work.rvdff2ie" class="sprotty-graph sprotty-block-diagram blockdiagram" style="font-family:&quot;Noto Sans&quot;, Helvetica, Arial, sans-serif;perspective-origin:0px 0px;transform-origin:0px 0px;" version="1.1" viewBox="7 7 464.59375 459" width="464.59375" height="459"><g transform="scale(1) translate(0,0)"><g id="sprotty_ArchitectureBlockImpl$rvdff2ie" class="architecture" transform="translate(12, 12)"><g class="sprotty-block" style="fill:rgb(255, 255, 255);stroke:rgb(48, 48, 48);stroke-dasharray:0px;"><rect x="0" y="0" rx="1" ry="1" width="454.59375" height="449"/><text x="227.296875" y="12" class="sprotty-block-name" style="cursor:pointer;font-weight:700;perspective-origin:227.297px 0px;fill:rgb(48, 48, 48);stroke:rgba(0, 0, 0, 0);dominant-baseline:middle;text-anchor:middle;">rvdff2ie</text><line x1="0" y1="20" x2="454.59375" y2="20"/></g><g id="sprotty_ArchitectureBlockImpl$rvdff2ie/GenerateStatementBlockImpl$null5/GPortImpl$dout_to_ArchitectureBlockImpl$rvdff2ie/BPortImpl$dout" class="sprotty-edge thick edge" style="fill:none;stroke:rgb(112, 112, 112);stroke-linejoin:round;stroke-width:3px;"><g><path d="M 407.0625 157 L 454.59375 157 "/><path d="M 407.0625 157 L 454.59375 157 " class="clickable"/></g></g><g id="sprotty_ArchitectureBlockImpl$rvdff2ie/BPortImpl$din_to_ArchitectureBlockImpl$rvdff2ie/GenerateStatementBlockImpl$null5/GPortImpl$din" class="sprotty-edge thick edge" style="fill:none;stroke:rgb(112, 112, 112);stroke-linejoin:round;stroke-width:3px;"><g><path d="M 0 59 L 105.875 59 "/><path d="M 0 59 L 105.875 59 " class="clickable"/></g></g><g id="sprotty_ArchitectureBlockImpl$rvdff2ie/BPortImpl$clk_to_ArchitectureBlockImpl$rvdff2ie/GenerateStatementBlockImpl$null5/GPortImpl$clk" class="sprotty-edge edge" style="fill:none;stroke:rgb(112, 112, 112);stroke-linejoin:round;"><g><path d="M 0 157 L 105.875 157 "/><path d="M 0 157 L 105.875 157 " class="clickable"/></g></g><g id="sprotty_ArchitectureBlockImpl$rvdff2ie/BPortImpl$rst_l_to_ArchitectureBlockImpl$rvdff2ie/GenerateStatementBlockImpl$null5/GPortImpl$rst_l" class="sprotty-edge edge" style="fill:none;stroke:rgb(112, 112, 112);stroke-linejoin:round;"><g><path d="M 0 191 L 93.875 191 C 94.875 191 95.875 190 95.875 189 L 95.875 187 C 95.875 186 96.875 185 97.875 185 L 105.875 185 "/><path d="M 0 191 L 93.875 191 C 94.875 191 95.875 190 95.875 189 L 95.875 187 C 95.875 186 96.875 185 97.875 185 L 105.875 185 " class="clickable"/></g></g><g id="sprotty_ArchitectureBlockImpl$rvdff2ie/BPortImpl$scan_mode_to_ArchitectureBlockImpl$rvdff2ie/GenerateStatementBlockImpl$null5/GPortImpl$scan_mode" class="sprotty-edge edge" style="fill:none;stroke:rgb(112, 112, 112);stroke-linejoin:round;"><g><path d="M 0 225 L 93.875 225 C 94.875 225 95.875 224 95.875 223 L 95.875 215 C 95.875 214 96.875 213 97.875 213 L 105.875 213 "/><path d="M 0 225 L 93.875 225 C 94.875 225 95.875 224 95.875 223 L 95.875 215 C 95.875 214 96.875 213 97.875 213 L 105.875 213 " class="clickable"/></g></g><g id="sprotty_ArchitectureBlockImpl$rvdff2ie/BPortImpl$dout_to_ArchitectureBlockImpl$rvdff2ie/GenerateStatementBlockImpl$null5/GPortImpl$dout" class="sprotty-edge thick edge" style="fill:none;stroke:rgb(112, 112, 112);stroke-linejoin:round;stroke-width:3px;"><g><path d="M 454.59375 157 L 407.0625 157 "/><path d="M 454.59375 157 L 407.0625 157 " class="clickable"/></g></g><g id="sprotty_ArchitectureBlockImpl$rvdff2ie/GenerateStatementBlockImpl$null5" class="generate" transform="translate(105.875, 35)"><g class="sprotty-block sprotty-block-generate" style="fill:rgb(255, 255, 255);stroke:rgb(48, 48, 48);stroke-dasharray:0px;"><rect x="0" y="0" rx="1" ry="1" width="301.1875" height="399" style="stroke-dasharray:3px, 1px;"/><text x="150.59375" y="12" class="sprotty-block-name" style="cursor:pointer;font-weight:700;fill:rgb(48, 48, 48);stroke:rgba(0, 0, 0, 0);dominant-baseline:middle;text-anchor:middle;"/></g><g id="sprotty_ArchitectureBlockImpl$rvdff2ie/GenerateStatementBlockImpl$null5/InstantiationBlockImpl$dff_left/BPortImpl$dout_to_ArchitectureBlockImpl$rvdff2ie/GenerateStatementBlockImpl$null5/GPortImpl$dout" class="sprotty-edge thick edge" style="fill:none;stroke:rgb(112, 112, 112);stroke-linejoin:round;stroke-width:3px;"><g><path d="M 266.1875 310 L 274.1875 310 C 275.1875 310 276.1875 309 276.1875 308 L 276.1875 124 C 276.1875 123 277.1875 122 278.1875 122 L 301.1875 122 "/><path d="M 266.1875 310 L 274.1875 310 C 275.1875 310 276.1875 309 276.1875 308 L 276.1875 124 C 276.1875 123 277.1875 122 278.1875 122 L 301.1875 122 " class="clickable"/></g></g><g id="sprotty_ArchitectureBlockImpl$rvdff2ie/GenerateStatementBlockImpl$null5/InstantiationBlockImpl$dff_right/BPortImpl$dout_to_ArchitectureBlockImpl$rvdff2ie/GenerateStatementBlockImpl$null5/GPortImpl$dout" class="sprotty-edge thick edge" style="fill:none;stroke:rgb(112, 112, 112);stroke-linejoin:round;stroke-width:3px;"><g><path d="M 266.1875 122 L 301.1875 122 "/><path d="M 266.1875 122 L 301.1875 122 " class="clickable"/></g></g><g id="sprotty_ArchitectureBlockImpl$rvdff2ie/GenerateStatementBlockImpl$null5/GPortImpl$din_to_ArchitectureBlockImpl$rvdff2ie/GenerateStatementBlockImpl$null5/InstantiationBlockImpl$dff_left/BPortImpl$din" class="sprotty-edge thick edge" style="fill:none;stroke:rgb(112, 112, 112);stroke-linejoin:round;stroke-width:3px;"><g><path d="M 0 24 L 53 24 C 54 24 55 25 55 26 L 55 186 C 55 187 56 188 57 188 L 112.4375 188 C 113.4375 188 114.4375 189 114.4375 190 L 114.4375 252 C 114.4375 253 115.4375 254 116.4375 254 L 124.4375 254 "/><path d="M 0 24 L 53 24 C 54 24 55 25 55 26 L 55 186 C 55 187 56 188 57 188 L 112.4375 188 C 113.4375 188 114.4375 189 114.4375 190 L 114.4375 252 C 114.4375 253 115.4375 254 116.4375 254 L 124.4375 254 " class="clickable"/></g><circle r="3" id="sprotty_ArchitectureBlockImpl$rvdff2ie/GenerateStatementBlockImpl$null5/GPortImpl$din_to_ArchitectureBlockImpl$rvdff2ie/GenerateStatementBlockImpl$null5/InstantiationBlockImpl$dff_left/BPortImpl$din/junction0" transform="translate(55, 24)" class="sprotty-junction thick" style="fill:rgb(112, 112, 112);stroke:none;"/></g><g id="sprotty_ArchitectureBlockImpl$rvdff2ie/GenerateStatementBlockImpl$null5/GPortImpl$clk_to_ArchitectureBlockImpl$rvdff2ie/GenerateStatementBlockImpl$null5/InstantiationBlockImpl$dff_left/BPortImpl$clk" class="sprotty-edge edge" style="fill:none;stroke:rgb(112, 112, 112);stroke-linejoin:round;"><g><path d="M 0 122 L 43 122 C 44 122 45 123 45 124 L 45 308 C 45 309 46 310 47 310 L 124.4375 310 "/><path d="M 0 122 L 43 122 C 44 122 45 123 45 124 L 45 308 C 45 309 46 310 47 310 L 124.4375 310 " class="clickable"/></g><circle r="2" id="sprotty_ArchitectureBlockImpl$rvdff2ie/GenerateStatementBlockImpl$null5/GPortImpl$clk_to_ArchitectureBlockImpl$rvdff2ie/GenerateStatementBlockImpl$null5/InstantiationBlockImpl$dff_left/BPortImpl$clk/junction0" transform="translate(45, 122)" class="sprotty-junction junction" style="fill:rgb(112, 112, 112);stroke:none;"/></g><g id="sprotty_ArchitectureBlockImpl$rvdff2ie/GenerateStatementBlockImpl$null5/GPortImpl$rst_l_to_ArchitectureBlockImpl$rvdff2ie/GenerateStatementBlockImpl$null5/InstantiationBlockImpl$dff_left/BPortImpl$rst_l" class="sprotty-edge edge" style="fill:none;stroke:rgb(112, 112, 112);stroke-linejoin:round;"><g><path d="M 0 150 L 33 150 C 34 150 35 151 35 152 L 35 318 C 35 319 36 320 37 320 L 112.4375 320 C 113.4375 320 114.4375 321 114.4375 322 L 114.4375 336 C 114.4375 337 115.4375 338 116.4375 338 L 124.4375 338 "/><path d="M 0 150 L 33 150 C 34 150 35 151 35 152 L 35 318 C 35 319 36 320 37 320 L 112.4375 320 C 113.4375 320 114.4375 321 114.4375 322 L 114.4375 336 C 114.4375 337 115.4375 338 116.4375 338 L 124.4375 338 " class="clickable"/></g><circle r="2" id="sprotty_ArchitectureBlockImpl$rvdff2ie/GenerateStatementBlockImpl$null5/GPortImpl$rst_l_to_ArchitectureBlockImpl$rvdff2ie/GenerateStatementBlockImpl$null5/InstantiationBlockImpl$dff_left/BPortImpl$rst_l/junction0" transform="translate(35, 150)" class="sprotty-junction junction" style="fill:rgb(112, 112, 112);stroke:none;"/></g><g id="sprotty_ArchitectureBlockImpl$rvdff2ie/GenerateStatementBlockImpl$null5/GPortImpl$scan_mode_to_ArchitectureBlockImpl$rvdff2ie/GenerateStatementBlockImpl$null5/InstantiationBlockImpl$dff_left/BPortImpl$scan_mode" class="sprotty-edge edge" style="fill:none;stroke:rgb(112, 112, 112);stroke-linejoin:round;"><g><path d="M 0 178 L 23 178 C 24 178 25 179 25 180 L 25 328 C 25 329 26 330 27 330 L 102.4375 330 C 103.4375 330 104.4375 331 104.4375 332 L 104.4375 364 C 104.4375 365 105.4375 366 106.4375 366 L 124.4375 366 "/><path d="M 0 178 L 23 178 C 24 178 25 179 25 180 L 25 328 C 25 329 26 330 27 330 L 102.4375 330 C 103.4375 330 104.4375 331 104.4375 332 L 104.4375 364 C 104.4375 365 105.4375 366 106.4375 366 L 124.4375 366 " class="clickable"/></g><circle r="2" id="sprotty_ArchitectureBlockImpl$rvdff2ie/GenerateStatementBlockImpl$null5/GPortImpl$scan_mode_to_ArchitectureBlockImpl$rvdff2ie/GenerateStatementBlockImpl$null5/InstantiationBlockImpl$dff_left/BPortImpl$scan_mode/junction0" transform="translate(25, 178)" class="sprotty-junction junction" style="fill:rgb(112, 112, 112);stroke:none;"/></g><g id="sprotty_ArchitectureBlockImpl$rvdff2ie/GenerateStatementBlockImpl$null5/GPortImpl$din_to_ArchitectureBlockImpl$rvdff2ie/GenerateStatementBlockImpl$null5/InstantiationBlockImpl$dff_right/BPortImpl$din" class="sprotty-edge thick edge" style="fill:none;stroke:rgb(112, 112, 112);stroke-linejoin:round;stroke-width:3px;"><g><path d="M 0 24 L 112.4375 24 C 113.4375 24 114.4375 25 114.4375 26 L 114.4375 64 C 114.4375 65 115.4375 66 116.4375 66 L 124.4375 66 "/><path d="M 0 24 L 112.4375 24 C 113.4375 24 114.4375 25 114.4375 26 L 114.4375 64 C 114.4375 65 115.4375 66 116.4375 66 L 124.4375 66 " class="clickable"/></g></g><g id="sprotty_ArchitectureBlockImpl$rvdff2ie/GenerateStatementBlockImpl$null5/GPortImpl$clk_to_ArchitectureBlockImpl$rvdff2ie/GenerateStatementBlockImpl$null5/InstantiationBlockImpl$dff_right/BPortImpl$clk" class="sprotty-edge edge" style="fill:none;stroke:rgb(112, 112, 112);stroke-linejoin:round;"><g><path d="M 0 122 L 124.4375 122 "/><path d="M 0 122 L 124.4375 122 " class="clickable"/></g></g><g id="sprotty_ArchitectureBlockImpl$rvdff2ie/GenerateStatementBlockImpl$null5/GPortImpl$rst_l_to_ArchitectureBlockImpl$rvdff2ie/GenerateStatementBlockImpl$null5/InstantiationBlockImpl$dff_right/BPortImpl$rst_l" class="sprotty-edge edge" style="fill:none;stroke:rgb(112, 112, 112);stroke-linejoin:round;"><g><path d="M 0 150 L 124.4375 150 "/><path d="M 0 150 L 124.4375 150 " class="clickable"/></g></g><g id="sprotty_ArchitectureBlockImpl$rvdff2ie/GenerateStatementBlockImpl$null5/GPortImpl$scan_mode_to_ArchitectureBlockImpl$rvdff2ie/GenerateStatementBlockImpl$null5/InstantiationBlockImpl$dff_right/BPortImpl$scan_mode" class="sprotty-edge edge" style="fill:none;stroke:rgb(112, 112, 112);stroke-linejoin:round;"><g><path d="M 0 178 L 124.4375 178 "/><path d="M 0 178 L 124.4375 178 " class="clickable"/></g></g><g id="sprotty_ArchitectureBlockImpl$rvdff2ie/GenerateStatementBlockImpl$null5/GPortImpl$din_to_ArchitectureBlockImpl$rvdff2ie/GenerateStatementBlockImpl$null5/AssignmentBlockImpl$final_en/GPortImpl$dinIN" class="sprotty-edge thick edge" style="fill:none;stroke:rgb(112, 112, 112);stroke-linejoin:round;stroke-width:3px;"><g><path d="M 0 24 L 53 24 C 54 24 55 25 55 26 L 55 54 C 55 55 56 56 57 56 L 75 56 "/><path d="M 0 24 L 53 24 C 54 24 55 25 55 26 L 55 54 C 55 55 56 56 57 56 L 75 56 " class="clickable"/></g><circle r="3" id="sprotty_ArchitectureBlockImpl$rvdff2ie/GenerateStatementBlockImpl$null5/GPortImpl$din_to_ArchitectureBlockImpl$rvdff2ie/GenerateStatementBlockImpl$null5/AssignmentBlockImpl$final_en/GPortImpl$dinIN/junction0" transform="translate(55, 56)" class="sprotty-junction thick" style="fill:rgb(112, 112, 112);stroke:none;"/></g><g id="sprotty_ArchitectureBlockImpl$rvdff2ie/GenerateStatementBlockImpl$null5/GPortImpl$dout_to_ArchitectureBlockImpl$rvdff2ie/GenerateStatementBlockImpl$null5/AssignmentBlockImpl$final_en/GPortImpl$doutIN" class="sprotty-edge thick edge" style="fill:none;stroke:rgb(112, 112, 112);stroke-linejoin:round;stroke-width:3px;"><g><path d="M 301.1875 122 L 278.1875 122 C 277.1875 122 276.1875 121 276.1875 120 L 276.1875 18 C 276.1875 17 275.1875 16 274.1875 16 L 67 16 C 66 16 65 17 65 18 L 65 44 C 65 45 66 46 67 46 L 75 46 "/><path d="M 301.1875 122 L 278.1875 122 C 277.1875 122 276.1875 121 276.1875 120 L 276.1875 18 C 276.1875 17 275.1875 16 274.1875 16 L 67 16 C 66 16 65 17 65 18 L 65 44 C 65 45 66 46 67 46 L 75 46 " class="clickable"/></g><circle r="3" id="sprotty_ArchitectureBlockImpl$rvdff2ie/GenerateStatementBlockImpl$null5/GPortImpl$dout_to_ArchitectureBlockImpl$rvdff2ie/GenerateStatementBlockImpl$null5/AssignmentBlockImpl$final_en/GPortImpl$doutIN/junction0" transform="translate(276.1875, 122)" class="sprotty-junction thick" style="fill:rgb(112, 112, 112);stroke:none;"/></g><g id="sprotty_ArchitectureBlockImpl$rvdff2ie/GenerateStatementBlockImpl$null5/AssignmentBlockImpl$final_en/GPortImpl$doutOUT_to_ArchitectureBlockImpl$rvdff2ie/GenerateStatementBlockImpl$null5/InstantiationBlockImpl$dff_right/BPortImpl$en" class="sprotty-edge thick edge" style="fill:none;stroke:rgb(112, 112, 112);stroke-linejoin:round;stroke-width:3px;"><g><path d="M 94.4375 51 L 102.4375 51 C 103.4375 51 104.4375 52 104.4375 53 L 104.4375 92 C 104.4375 93 105.4375 94 106.4375 94 L 124.4375 94 "/><path d="M 94.4375 51 L 102.4375 51 C 103.4375 51 104.4375 52 104.4375 53 L 104.4375 92 C 104.4375 93 105.4375 94 106.4375 94 L 124.4375 94 " class="clickable"/></g><circle r="3" id="sprotty_ArchitectureBlockImpl$rvdff2ie/GenerateStatementBlockImpl$null5/AssignmentBlockImpl$final_en/GPortImpl$doutOUT_to_ArchitectureBlockImpl$rvdff2ie/GenerateStatementBlockImpl$null5/InstantiationBlockImpl$dff_right/BPortImpl$en/junction0" transform="translate(104.4375, 94)" class="sprotty-junction thick" style="fill:rgb(112, 112, 112);stroke:none;"/></g><g id="sprotty_ArchitectureBlockImpl$rvdff2ie/GenerateStatementBlockImpl$null5/AssignmentBlockImpl$final_en/GPortImpl$doutOUT_to_ArchitectureBlockImpl$rvdff2ie/GenerateStatementBlockImpl$null5/InstantiationBlockImpl$dff_left/BPortImpl$en" class="sprotty-edge thick edge" style="fill:none;stroke:rgb(112, 112, 112);stroke-linejoin:round;stroke-width:3px;"><g><path d="M 94.4375 51 L 102.4375 51 C 103.4375 51 104.4375 52 104.4375 53 L 104.4375 280 C 104.4375 281 105.4375 282 106.4375 282 L 124.4375 282 "/><path d="M 94.4375 51 L 102.4375 51 C 103.4375 51 104.4375 52 104.4375 53 L 104.4375 280 C 104.4375 281 105.4375 282 106.4375 282 L 124.4375 282 " class="clickable"/></g></g><g id="sprotty_ArchitectureBlockImpl$rvdff2ie/GenerateStatementBlockImpl$null5/AssignmentBlockImpl$final_en" class="statement" transform="translate(75, 36)"><rect x="0" y="0" rx="10" ry="5" width="19.4375" height="30" class="sprotty-node" style="fill:rgb(245, 245, 245);stroke:rgb(112, 112, 112);"/><text class="clickable sprotty-label statementtype" id="sprotty_ArchitectureBlockImpl$rvdff2ie/GenerateStatementBlockImpl$null5/AssignmentBlockImpl$final_en/labeltype" transform="translate(5, 9) translate(4.71875, 9.5)" style="cursor:default;font-size:8px;font-weight:700;perspective-origin:0px 0px;fill:rgb(112, 112, 112);text-anchor:middle;">&lt;=</text><g id="sprotty_ArchitectureBlockImpl$rvdff2ie/GenerateStatementBlockImpl$null5/AssignmentBlockImpl$final_en/GPortImpl$doutIN" class="sprotty-hidden hidden" transform="translate(0, 10)" style="display:block;height:0px;width:0px;"/><g id="sprotty_ArchitectureBlockImpl$rvdff2ie/GenerateStatementBlockImpl$null5/AssignmentBlockImpl$final_en/GPortImpl$dinIN" class="sprotty-hidden hidden" transform="translate(0, 20)" style="display:block;height:0px;width:0px;"/><g id="sprotty_ArchitectureBlockImpl$rvdff2ie/GenerateStatementBlockImpl$null5/AssignmentBlockImpl$final_en/GPortImpl$doutOUT" class="sprotty-hidden hidden" transform="translate(19.4375, 15)" style="display:block;height:0px;width:0px;"/></g><g id="sprotty_ArchitectureBlockImpl$rvdff2ie/GenerateStatementBlockImpl$null5/InstantiationBlockImpl$dff_right" class="instantiation" transform="translate(124.4375, 28)"><g class="sprotty-block" style="fill:rgb(255, 255, 255);stroke:rgb(48, 48, 48);stroke-dasharray:0px;"><rect x="0" y="0" rx="1" ry="1" width="141.75" height="168"/><text x="70.875" y="12" class="sprotty-block-name" style="cursor:pointer;font-weight:700;perspective-origin:70.875px 0px;fill:rgb(48, 48, 48);stroke:rgba(0, 0, 0, 0);dominant-baseline:middle;text-anchor:middle;">dff_right : rvdffe</text><line x1="0" y1="20" x2="141.75" y2="20"/></g><g id="sprotty_ArchitectureBlockImpl$rvdff2ie/GenerateStatementBlockImpl$null5/InstantiationBlockImpl$dff_right/BPortImpl$scan_mode" class="triangle" transform="translate(0, 150)"><path d="M 0,0 L 5,2.5 L 0,5 Z" transform="translate(-1.67, -2.5)" class="sprotty-port" style="fill:rgb(48, 48, 48);stroke:rgb(48, 48, 48);"/><text class="clickable sprotty-label port" id="sprotty_ArchitectureBlockImpl$rvdff2ie/GenerateStatementBlockImpl$null5/InstantiationBlockImpl$dff_right/BPortImpl$scan_mode/label" transform="translate(6, -9) translate(32.4375, 14)" style="cursor:default;font-size:12px;perspective-origin:0px 0px;fill:rgb(48, 48, 48);text-anchor:middle;">scan_mode</text></g><g id="sprotty_ArchitectureBlockImpl$rvdff2ie/GenerateStatementBlockImpl$null5/InstantiationBlockImpl$dff_right/BPortImpl$rst_l" class="triangle" transform="translate(0, 122)"><path d="M 0,0 L 5,2.5 L 0,5 Z" transform="translate(-1.67, -2.5)" class="sprotty-port" style="fill:rgb(48, 48, 48);stroke:rgb(48, 48, 48);"/><text class="clickable sprotty-label port" id="sprotty_ArchitectureBlockImpl$rvdff2ie/GenerateStatementBlockImpl$null5/InstantiationBlockImpl$dff_right/BPortImpl$rst_l/label" transform="translate(6, -9) translate(12.3125, 14)" style="cursor:default;font-size:12px;perspective-origin:0px 0px;fill:rgb(48, 48, 48);text-anchor:middle;">rst_l</text></g><g id="sprotty_ArchitectureBlockImpl$rvdff2ie/GenerateStatementBlockImpl$null5/InstantiationBlockImpl$dff_right/BPortImpl$clk" class="triangle" transform="translate(0, 94)"><path d="M 0,0 L 5,2.5 L 0,5 Z" transform="translate(-1.67, -2.5)" class="sprotty-port" style="fill:rgb(48, 48, 48);stroke:rgb(48, 48, 48);"/><text class="clickable sprotty-label port" id="sprotty_ArchitectureBlockImpl$rvdff2ie/GenerateStatementBlockImpl$null5/InstantiationBlockImpl$dff_right/BPortImpl$clk/label" transform="translate(6, -9) translate(8.078125, 14)" style="cursor:default;font-size:12px;perspective-origin:0px 0px;fill:rgb(48, 48, 48);text-anchor:middle;">clk</text></g><g id="sprotty_ArchitectureBlockImpl$rvdff2ie/GenerateStatementBlockImpl$null5/InstantiationBlockImpl$dff_right/BPortImpl$en" class="triangle" transform="translate(0, 66)"><path d="M 0,0 L 5,2.5 L 0,5 Z" transform="translate(-1.67, -2.5)" class="sprotty-port" style="fill:rgb(48, 48, 48);stroke:rgb(48, 48, 48);"/><text class="clickable sprotty-label port" id="sprotty_ArchitectureBlockImpl$rvdff2ie/GenerateStatementBlockImpl$null5/InstantiationBlockImpl$dff_right/BPortImpl$en/label" transform="translate(6, -9) translate(7, 14)" style="cursor:default;font-size:12px;perspective-origin:0px 0px;fill:rgb(48, 48, 48);text-anchor:middle;">en</text></g><g id="sprotty_ArchitectureBlockImpl$rvdff2ie/GenerateStatementBlockImpl$null5/InstantiationBlockImpl$dff_right/BPortImpl$din" class="triangle" transform="translate(0, 38)"><path d="M 0,0 L 5,2.5 L 0,5 Z" transform="translate(-1.67, -2.5)" class="sprotty-port" style="fill:rgb(48, 48, 48);stroke:rgb(48, 48, 48);"/><text class="clickable sprotty-label port" id="sprotty_ArchitectureBlockImpl$rvdff2ie/GenerateStatementBlockImpl$null5/InstantiationBlockImpl$dff_right/BPortImpl$din/label" transform="translate(6, -9) translate(9.046875, 14)" style="cursor:default;font-size:12px;perspective-origin:0px 0px;fill:rgb(48, 48, 48);text-anchor:middle;">din</text></g><g id="sprotty_ArchitectureBlockImpl$rvdff2ie/GenerateStatementBlockImpl$null5/InstantiationBlockImpl$dff_right/BPortImpl$dout" class="triangle" transform="translate(141.75, 94)"><path d="M 0,0 L 5,2.5 L 0,5 Z" transform="translate(-1.67, -2.5)" class="sprotty-port" style="fill:rgb(48, 48, 48);stroke:rgb(48, 48, 48);"/><text class="clickable sprotty-label port" id="sprotty_ArchitectureBlockImpl$rvdff2ie/GenerateStatementBlockImpl$null5/InstantiationBlockImpl$dff_right/BPortImpl$dout/label" transform="translate(-32.53125, -9) translate(13.265625, 14)" style="cursor:default;font-size:12px;perspective-origin:0px 0px;fill:rgb(48, 48, 48);text-anchor:middle;">dout</text></g></g><g id="sprotty_ArchitectureBlockImpl$rvdff2ie/GenerateStatementBlockImpl$null5/InstantiationBlockImpl$dff_left" class="instantiation" transform="translate(124.4375, 216)"><g class="sprotty-block" style="fill:rgb(255, 255, 255);stroke:rgb(48, 48, 48);stroke-dasharray:0px;"><rect x="0" y="0" rx="1" ry="1" width="141.75" height="168"/><text x="70.875" y="12" class="sprotty-block-name" style="cursor:pointer;font-weight:700;perspective-origin:70.875px 0px;fill:rgb(48, 48, 48);stroke:rgba(0, 0, 0, 0);dominant-baseline:middle;text-anchor:middle;">dff_left : rvdffe</text><line x1="0" y1="20" x2="141.75" y2="20"/></g><g id="sprotty_ArchitectureBlockImpl$rvdff2ie/GenerateStatementBlockImpl$null5/InstantiationBlockImpl$dff_left/BPortImpl$scan_mode" class="triangle" transform="translate(0, 150)"><path d="M 0,0 L 5,2.5 L 0,5 Z" transform="translate(-1.67, -2.5)" class="sprotty-port" style="fill:rgb(48, 48, 48);stroke:rgb(48, 48, 48);"/><text class="clickable sprotty-label port" id="sprotty_ArchitectureBlockImpl$rvdff2ie/GenerateStatementBlockImpl$null5/InstantiationBlockImpl$dff_left/BPortImpl$scan_mode/label" transform="translate(6, -9) translate(32.4375, 14)" style="cursor:default;font-size:12px;perspective-origin:0px 0px;fill:rgb(48, 48, 48);text-anchor:middle;">scan_mode</text></g><g id="sprotty_ArchitectureBlockImpl$rvdff2ie/GenerateStatementBlockImpl$null5/InstantiationBlockImpl$dff_left/BPortImpl$rst_l" class="triangle" transform="translate(0, 122)"><path d="M 0,0 L 5,2.5 L 0,5 Z" transform="translate(-1.67, -2.5)" class="sprotty-port" style="fill:rgb(48, 48, 48);stroke:rgb(48, 48, 48);"/><text class="clickable sprotty-label port" id="sprotty_ArchitectureBlockImpl$rvdff2ie/GenerateStatementBlockImpl$null5/InstantiationBlockImpl$dff_left/BPortImpl$rst_l/label" transform="translate(6, -9) translate(12.3125, 14)" style="cursor:default;font-size:12px;perspective-origin:0px 0px;fill:rgb(48, 48, 48);text-anchor:middle;">rst_l</text></g><g id="sprotty_ArchitectureBlockImpl$rvdff2ie/GenerateStatementBlockImpl$null5/InstantiationBlockImpl$dff_left/BPortImpl$clk" class="triangle" transform="translate(0, 94)"><path d="M 0,0 L 5,2.5 L 0,5 Z" transform="translate(-1.67, -2.5)" class="sprotty-port" style="fill:rgb(48, 48, 48);stroke:rgb(48, 48, 48);"/><text class="clickable sprotty-label port" id="sprotty_ArchitectureBlockImpl$rvdff2ie/GenerateStatementBlockImpl$null5/InstantiationBlockImpl$dff_left/BPortImpl$clk/label" transform="translate(6, -9) translate(8.078125, 14)" style="cursor:default;font-size:12px;perspective-origin:0px 0px;fill:rgb(48, 48, 48);text-anchor:middle;">clk</text></g><g id="sprotty_ArchitectureBlockImpl$rvdff2ie/GenerateStatementBlockImpl$null5/InstantiationBlockImpl$dff_left/BPortImpl$en" class="triangle" transform="translate(0, 66)"><path d="M 0,0 L 5,2.5 L 0,5 Z" transform="translate(-1.67, -2.5)" class="sprotty-port" style="fill:rgb(48, 48, 48);stroke:rgb(48, 48, 48);"/><text class="clickable sprotty-label port" id="sprotty_ArchitectureBlockImpl$rvdff2ie/GenerateStatementBlockImpl$null5/InstantiationBlockImpl$dff_left/BPortImpl$en/label" transform="translate(6, -9) translate(7, 14)" style="cursor:default;font-size:12px;perspective-origin:0px 0px;fill:rgb(48, 48, 48);text-anchor:middle;">en</text></g><g id="sprotty_ArchitectureBlockImpl$rvdff2ie/GenerateStatementBlockImpl$null5/InstantiationBlockImpl$dff_left/BPortImpl$din" class="triangle" transform="translate(0, 38)"><path d="M 0,0 L 5,2.5 L 0,5 Z" transform="translate(-1.67, -2.5)" class="sprotty-port" style="fill:rgb(48, 48, 48);stroke:rgb(48, 48, 48);"/><text class="clickable sprotty-label port" id="sprotty_ArchitectureBlockImpl$rvdff2ie/GenerateStatementBlockImpl$null5/InstantiationBlockImpl$dff_left/BPortImpl$din/label" transform="translate(6, -9) translate(9.046875, 14)" style="cursor:default;font-size:12px;perspective-origin:0px 0px;fill:rgb(48, 48, 48);text-anchor:middle;">din</text></g><g id="sprotty_ArchitectureBlockImpl$rvdff2ie/GenerateStatementBlockImpl$null5/InstantiationBlockImpl$dff_left/BPortImpl$dout" class="triangle" transform="translate(141.75, 94)"><path d="M 0,0 L 5,2.5 L 0,5 Z" transform="translate(-1.67, -2.5)" class="sprotty-port" style="fill:rgb(48, 48, 48);stroke:rgb(48, 48, 48);"/><text class="clickable sprotty-label port" id="sprotty_ArchitectureBlockImpl$rvdff2ie/GenerateStatementBlockImpl$null5/InstantiationBlockImpl$dff_left/BPortImpl$dout/label" transform="translate(-32.53125, -9) translate(13.265625, 14)" style="cursor:default;font-size:12px;perspective-origin:0px 0px;fill:rgb(48, 48, 48);text-anchor:middle;">dout</text></g></g><g id="sprotty_ArchitectureBlockImpl$rvdff2ie/GenerateStatementBlockImpl$null5/GPortImpl$scan_mode" class="triangle" transform="translate(0, 178)"><path d="M 0,0 L 5,2.5 L 0,5 Z" transform="translate(-1.67, -2.5)" class="sprotty-port" style="fill:rgb(48, 48, 48);stroke:rgb(48, 48, 48);"/></g><g id="sprotty_ArchitectureBlockImpl$rvdff2ie/GenerateStatementBlockImpl$null5/GPortImpl$rst_l" class="triangle" transform="translate(0, 150)"><path d="M 0,0 L 5,2.5 L 0,5 Z" transform="translate(-1.67, -2.5)" class="sprotty-port" style="fill:rgb(48, 48, 48);stroke:rgb(48, 48, 48);"/></g><g id="sprotty_ArchitectureBlockImpl$rvdff2ie/GenerateStatementBlockImpl$null5/GPortImpl$clk" class="triangle" transform="translate(0, 122)"><path d="M 0,0 L 5,2.5 L 0,5 Z" transform="translate(-1.67, -2.5)" class="sprotty-port" style="fill:rgb(48, 48, 48);stroke:rgb(48, 48, 48);"/></g><g id="sprotty_ArchitectureBlockImpl$rvdff2ie/GenerateStatementBlockImpl$null5/GPortImpl$din" class="triangle" transform="translate(0, 24)"><path d="M 0,0 L 5,2.5 L 0,5 Z" transform="translate(-1.67, -2.5)" class="sprotty-port" style="fill:rgb(48, 48, 48);stroke:rgb(48, 48, 48);"/></g><g id="sprotty_ArchitectureBlockImpl$rvdff2ie/GenerateStatementBlockImpl$null5/GPortImpl$dout" class="triangle" transform="translate(301.1875, 122)"><path d="M 0,0 L 5,2.5 L 0,5 Z" transform="translate(-1.67, -2.5)" class="sprotty-port" style="fill:rgb(48, 48, 48);stroke:rgb(48, 48, 48);"/></g></g><g id="sprotty_ArchitectureBlockImpl$rvdff2ie/BPortImpl$scan_mode" class="triangle" transform="translate(0, 225)"><path d="M 0,0 L 5,2.5 L 0,5 Z" transform="translate(-1.67, -2.5)" class="sprotty-port" style="fill:rgb(48, 48, 48);stroke:rgb(48, 48, 48);"/><text class="clickable sprotty-label port" id="sprotty_ArchitectureBlockImpl$rvdff2ie/BPortImpl$scan_mode/label" transform="translate(6, 6) translate(32.4375, 14)" style="cursor:default;font-size:12px;perspective-origin:0px 0px;fill:rgb(48, 48, 48);text-anchor:middle;">scan_mode</text></g><g id="sprotty_ArchitectureBlockImpl$rvdff2ie/BPortImpl$rst_l" class="triangle" transform="translate(0, 191)"><path d="M 0,0 L 5,2.5 L 0,5 Z" transform="translate(-1.67, -2.5)" class="sprotty-port" style="fill:rgb(48, 48, 48);stroke:rgb(48, 48, 48);"/><text class="clickable sprotty-label port" id="sprotty_ArchitectureBlockImpl$rvdff2ie/BPortImpl$rst_l/label" transform="translate(6, 6) translate(12.3125, 14)" style="cursor:default;font-size:12px;perspective-origin:0px 0px;fill:rgb(48, 48, 48);text-anchor:middle;">rst_l</text></g><g id="sprotty_ArchitectureBlockImpl$rvdff2ie/BPortImpl$clk" class="triangle" transform="translate(0, 157)"><path d="M 0,0 L 5,2.5 L 0,5 Z" transform="translate(-1.67, -2.5)" class="sprotty-port" style="fill:rgb(48, 48, 48);stroke:rgb(48, 48, 48);"/><text class="clickable sprotty-label port" id="sprotty_ArchitectureBlockImpl$rvdff2ie/BPortImpl$clk/label" transform="translate(6, 6) translate(8.078125, 14)" style="cursor:default;font-size:12px;perspective-origin:0px 0px;fill:rgb(48, 48, 48);text-anchor:middle;">clk</text></g><g id="sprotty_ArchitectureBlockImpl$rvdff2ie/BPortImpl$din" class="triangle" transform="translate(0, 59)"><path d="M 0,0 L 5,2.5 L 0,5 Z" transform="translate(-1.67, -2.5)" class="sprotty-port" style="fill:rgb(48, 48, 48);stroke:rgb(48, 48, 48);"/><text class="clickable sprotty-label port" id="sprotty_ArchitectureBlockImpl$rvdff2ie/BPortImpl$din/label" transform="translate(6, 6) translate(9.046875, 14)" style="cursor:default;font-size:12px;perspective-origin:0px 0px;fill:rgb(48, 48, 48);text-anchor:middle;">din</text></g><g id="sprotty_ArchitectureBlockImpl$rvdff2ie/BPortImpl$dout" class="triangle" transform="translate(454.59375, 157)"><path d="M 0,0 L 5,2.5 L 0,5 Z" transform="translate(-1.67, -2.5)" class="sprotty-port" style="fill:rgb(48, 48, 48);stroke:rgb(48, 48, 48);"/><text class="clickable sprotty-label port" id="sprotty_ArchitectureBlockImpl$rvdff2ie/BPortImpl$dout/label" transform="translate(-32.53125, 6) translate(13.265625, 14)" style="cursor:default;font-size:12px;perspective-origin:0px 0px;fill:rgb(48, 48, 48);text-anchor:middle;">dout</text></g></g></g></svg>