<svg xmlns="http://www.w3.org/2000/svg" id="sprotty_work.rvsyncss_fpga" class="sprotty-graph sprotty-block-diagram blockdiagram" style="font-family:&quot;Noto Sans&quot;, Helvetica, Arial, sans-serif;perspective-origin:0px 0px;transform-origin:0px 0px;" version="1.1" viewBox="7 7 524.5625 344" width="524.5625" height="344"><g transform="scale(1) translate(0,0)"><g id="sprotty_ArchitectureBlockImpl$rvsyncss_fpga" class="architecture" transform="translate(12, 12)"><g class="sprotty-block" style="fill:rgb(255, 255, 255);stroke:rgb(48, 48, 48);stroke-dasharray:0px;"><rect x="0" y="0" rx="1" ry="1" width="514.5625" height="334"/><text x="257.28125" y="12" class="sprotty-block-name" style="cursor:pointer;font-weight:700;perspective-origin:257.281px 0px;fill:rgb(48, 48, 48);stroke:rgba(0, 0, 0, 0);dominant-baseline:middle;text-anchor:middle;">rvsyncss_fpga</text><line x1="0" y1="20" x2="514.5625" y2="20"/></g><g id="sprotty_ArchitectureBlockImpl$rvsyncss_fpga/InstantiationBlockImpl$sync_ff2/BPortImpl$dout_to_ArchitectureBlockImpl$rvsyncss_fpga/BPortImpl$dout" class="sprotty-edge thick edge" style="fill:none;stroke:rgb(112, 112, 112);stroke-linejoin:round;stroke-width:3px;"><g><path d="M 467.03125 239 L 514.5625 239 "/><path d="M 467.03125 239 L 514.5625 239 " class="clickable"/></g></g><g id="sprotty_ArchitectureBlockImpl$rvsyncss_fpga/BPortImpl$din_to_ArchitectureBlockImpl$rvsyncss_fpga/InstantiationBlockImpl$sync_ff1/BPortImpl$din" class="sprotty-edge thick edge" style="fill:none;stroke:rgb(112, 112, 112);stroke-linejoin:round;stroke-width:3px;"><g><path d="M 0 80 L 78.21875 80 C 79.21875 80 80.21875 81 80.21875 82 L 80.21875 84 C 80.21875 85 81.21875 86 82.21875 86 L 100.21875 86 "/><path d="M 0 80 L 78.21875 80 C 79.21875 80 80.21875 81 80.21875 82 L 80.21875 84 C 80.21875 85 81.21875 86 82.21875 86 L 100.21875 86 " class="clickable"/></g></g><g id="sprotty_ArchitectureBlockImpl$rvsyncss_fpga/BPortImpl$gw_clk_to_ArchitectureBlockImpl$rvsyncss_fpga/InstantiationBlockImpl$sync_ff1/BPortImpl$clk" class="sprotty-edge edge" style="fill:none;stroke:rgb(112, 112, 112);stroke-linejoin:round;"><g><path d="M 0 114 L 100.21875 114 "/><path d="M 0 114 L 100.21875 114 " class="clickable"/></g></g><g id="sprotty_ArchitectureBlockImpl$rvsyncss_fpga/BPortImpl$clken_to_ArchitectureBlockImpl$rvsyncss_fpga/InstantiationBlockImpl$sync_ff1/BPortImpl$clken" class="sprotty-edge edge" style="fill:none;stroke:rgb(112, 112, 112);stroke-linejoin:round;"><g><path d="M 0 227 L 68.21875 227 C 69.21875 227 70.21875 226 70.21875 225 L 70.21875 144 C 70.21875 143 71.21875 142 72.21875 142 L 100.21875 142 "/><path d="M 0 227 L 68.21875 227 C 69.21875 227 70.21875 226 70.21875 225 L 70.21875 144 C 70.21875 143 71.21875 142 72.21875 142 L 100.21875 142 " class="clickable"/></g><circle r="2" id="sprotty_ArchitectureBlockImpl$rvsyncss_fpga/BPortImpl$clken_to_ArchitectureBlockImpl$rvsyncss_fpga/InstantiationBlockImpl$sync_ff1/BPortImpl$clken/junction0" transform="translate(70.21875, 227)" class="sprotty-junction junction" style="fill:rgb(112, 112, 112);stroke:none;"/></g><g id="sprotty_ArchitectureBlockImpl$rvsyncss_fpga/BPortImpl$rawclk_to_ArchitectureBlockImpl$rvsyncss_fpga/InstantiationBlockImpl$sync_ff1/BPortImpl$rawclk" class="sprotty-edge edge" style="fill:none;stroke:rgb(112, 112, 112);stroke-linejoin:round;"><g><path d="M 0 261 L 78.21875 261 C 79.21875 261 80.21875 260 80.21875 259 L 80.21875 172 C 80.21875 171 81.21875 170 82.21875 170 L 100.21875 170 "/><path d="M 0 261 L 78.21875 261 C 79.21875 261 80.21875 260 80.21875 259 L 80.21875 172 C 80.21875 171 81.21875 170 82.21875 170 L 100.21875 170 " class="clickable"/></g><circle r="2" id="sprotty_ArchitectureBlockImpl$rvsyncss_fpga/BPortImpl$rawclk_to_ArchitectureBlockImpl$rvsyncss_fpga/InstantiationBlockImpl$sync_ff1/BPortImpl$rawclk/junction0" transform="translate(80.21875, 261)" class="sprotty-junction junction" style="fill:rgb(112, 112, 112);stroke:none;"/></g><g id="sprotty_ArchitectureBlockImpl$rvsyncss_fpga/BPortImpl$rst_l_to_ArchitectureBlockImpl$rvsyncss_fpga/InstantiationBlockImpl$sync_ff1/BPortImpl$rst_l" class="sprotty-edge edge" style="fill:none;stroke:rgb(112, 112, 112);stroke-linejoin:round;"><g><path d="M 0 295 L 88.21875 295 C 89.21875 295 90.21875 294 90.21875 293 L 90.21875 200 C 90.21875 199 91.21875 198 92.21875 198 L 100.21875 198 "/><path d="M 0 295 L 88.21875 295 C 89.21875 295 90.21875 294 90.21875 293 L 90.21875 200 C 90.21875 199 91.21875 198 92.21875 198 L 100.21875 198 " class="clickable"/></g><circle r="2" id="sprotty_ArchitectureBlockImpl$rvsyncss_fpga/BPortImpl$rst_l_to_ArchitectureBlockImpl$rvsyncss_fpga/InstantiationBlockImpl$sync_ff1/BPortImpl$rst_l/junction0" transform="translate(90.21875, 295)" class="sprotty-junction junction" style="fill:rgb(112, 112, 112);stroke:none;"/></g><g id="sprotty_ArchitectureBlockImpl$rvsyncss_fpga/BPortImpl$gw_clk_to_ArchitectureBlockImpl$rvsyncss_fpga/InstantiationBlockImpl$sync_ff2/BPortImpl$clk" class="sprotty-edge edge" style="fill:none;stroke:rgb(112, 112, 112);stroke-linejoin:round;"><g><path d="M 0 114 L 68.21875 114 C 69.21875 114 70.21875 113 70.21875 112 L 70.21875 38 C 70.21875 37 71.21875 36 72.21875 36 L 286.625 36 C 287.625 36 288.625 37 288.625 38 L 288.625 209 C 288.625 210 289.625 211 290.625 211 L 298.625 211 "/><path d="M 0 114 L 68.21875 114 C 69.21875 114 70.21875 113 70.21875 112 L 70.21875 38 C 70.21875 37 71.21875 36 72.21875 36 L 286.625 36 C 287.625 36 288.625 37 288.625 38 L 288.625 209 C 288.625 210 289.625 211 290.625 211 L 298.625 211 " class="clickable"/></g><circle r="2" id="sprotty_ArchitectureBlockImpl$rvsyncss_fpga/BPortImpl$gw_clk_to_ArchitectureBlockImpl$rvsyncss_fpga/InstantiationBlockImpl$sync_ff2/BPortImpl$clk/junction0" transform="translate(70.21875, 114)" class="sprotty-junction junction" style="fill:rgb(112, 112, 112);stroke:none;"/></g><g id="sprotty_ArchitectureBlockImpl$rvsyncss_fpga/BPortImpl$clken_to_ArchitectureBlockImpl$rvsyncss_fpga/InstantiationBlockImpl$sync_ff2/BPortImpl$clken" class="sprotty-edge edge" style="fill:none;stroke:rgb(112, 112, 112);stroke-linejoin:round;"><g><path d="M 0 227 L 276.625 227 C 277.625 227 278.625 228 278.625 229 L 278.625 237 C 278.625 238 279.625 239 280.625 239 L 298.625 239 "/><path d="M 0 227 L 276.625 227 C 277.625 227 278.625 228 278.625 229 L 278.625 237 C 278.625 238 279.625 239 280.625 239 L 298.625 239 " class="clickable"/></g></g><g id="sprotty_ArchitectureBlockImpl$rvsyncss_fpga/BPortImpl$rawclk_to_ArchitectureBlockImpl$rvsyncss_fpga/InstantiationBlockImpl$sync_ff2/BPortImpl$rawclk" class="sprotty-edge edge" style="fill:none;stroke:rgb(112, 112, 112);stroke-linejoin:round;"><g><path d="M 0 261 L 276.625 261 C 277.625 261 278.625 262 278.625 263 L 278.625 265 C 278.625 266 279.625 267 280.625 267 L 298.625 267 "/><path d="M 0 261 L 276.625 261 C 277.625 261 278.625 262 278.625 263 L 278.625 265 C 278.625 266 279.625 267 280.625 267 L 298.625 267 " class="clickable"/></g></g><g id="sprotty_ArchitectureBlockImpl$rvsyncss_fpga/BPortImpl$rst_l_to_ArchitectureBlockImpl$rvsyncss_fpga/InstantiationBlockImpl$sync_ff2/BPortImpl$rst_l" class="sprotty-edge edge" style="fill:none;stroke:rgb(112, 112, 112);stroke-linejoin:round;"><g><path d="M 0 295 L 298.625 295 "/><path d="M 0 295 L 298.625 295 " class="clickable"/></g></g><g id="sprotty_ArchitectureBlockImpl$rvsyncss_fpga/InstantiationBlockImpl$sync_ff1/BPortImpl$dout_to_ArchitectureBlockImpl$rvsyncss_fpga/InstantiationBlockImpl$sync_ff2/BPortImpl$din" class="sprotty-edge thick edge" style="fill:none;stroke:rgb(112, 112, 112);stroke-linejoin:round;stroke-width:3px;"><g><path d="M 268.625 142 L 276.625 142 C 277.625 142 278.625 143 278.625 144 L 278.625 181 C 278.625 182 279.625 183 280.625 183 L 298.625 183 "/><path d="M 268.625 142 L 276.625 142 C 277.625 142 278.625 143 278.625 144 L 278.625 181 C 278.625 182 279.625 183 280.625 183 L 298.625 183 " class="clickable"/></g></g><g id="sprotty_ArchitectureBlockImpl$rvsyncss_fpga/InstantiationBlockImpl$sync_ff2" class="instantiation" transform="translate(298.625, 145)"><g class="sprotty-block" style="fill:rgb(255, 255, 255);stroke:rgb(48, 48, 48);stroke-dasharray:0px;"><rect x="0" y="0" rx="1" ry="1" width="168.40625" height="168"/><text x="84.203125" y="12" class="sprotty-block-name" style="cursor:pointer;font-weight:700;perspective-origin:84.2031px 0px;fill:rgb(48, 48, 48);stroke:rgba(0, 0, 0, 0);dominant-baseline:middle;text-anchor:middle;">sync_ff2 : rvdff_fpga</text><line x1="0" y1="20" x2="168.40625" y2="20"/></g><g id="sprotty_ArchitectureBlockImpl$rvsyncss_fpga/InstantiationBlockImpl$sync_ff2/BPortImpl$rst_l" class="triangle" transform="translate(0, 150)"><path d="M 0,0 L 5,2.5 L 0,5 Z" transform="translate(-1.67, -2.5)" class="sprotty-port" style="fill:rgb(48, 48, 48);stroke:rgb(48, 48, 48);"/><text class="clickable sprotty-label port" id="sprotty_ArchitectureBlockImpl$rvsyncss_fpga/InstantiationBlockImpl$sync_ff2/BPortImpl$rst_l/label" transform="translate(6, -9) translate(12.3125, 14)" style="cursor:default;font-size:12px;perspective-origin:0px 0px;fill:rgb(48, 48, 48);text-anchor:middle;">rst_l</text></g><g id="sprotty_ArchitectureBlockImpl$rvsyncss_fpga/InstantiationBlockImpl$sync_ff2/BPortImpl$rawclk" class="triangle" transform="translate(0, 122)"><path d="M 0,0 L 5,2.5 L 0,5 Z" transform="translate(-1.67, -2.5)" class="sprotty-port" style="fill:rgb(48, 48, 48);stroke:rgb(48, 48, 48);"/><text class="clickable sprotty-label port" id="sprotty_ArchitectureBlockImpl$rvsyncss_fpga/InstantiationBlockImpl$sync_ff2/BPortImpl$rawclk/label" transform="translate(6, -9) translate(18.421875, 14)" style="cursor:default;font-size:12px;perspective-origin:0px 0px;fill:rgb(48, 48, 48);text-anchor:middle;">rawclk</text></g><g id="sprotty_ArchitectureBlockImpl$rvsyncss_fpga/InstantiationBlockImpl$sync_ff2/BPortImpl$clken" class="triangle" transform="translate(0, 94)"><path d="M 0,0 L 5,2.5 L 0,5 Z" transform="translate(-1.67, -2.5)" class="sprotty-port" style="fill:rgb(48, 48, 48);stroke:rgb(48, 48, 48);"/><text class="clickable sprotty-label port" id="sprotty_ArchitectureBlockImpl$rvsyncss_fpga/InstantiationBlockImpl$sync_ff2/BPortImpl$clken/label" transform="translate(6, -9) translate(14.953125, 14)" style="cursor:default;font-size:12px;perspective-origin:0px 0px;fill:rgb(48, 48, 48);text-anchor:middle;">clken</text></g><g id="sprotty_ArchitectureBlockImpl$rvsyncss_fpga/InstantiationBlockImpl$sync_ff2/BPortImpl$clk" class="triangle" transform="translate(0, 66)"><path d="M 0,0 L 5,2.5 L 0,5 Z" transform="translate(-1.67, -2.5)" class="sprotty-port" style="fill:rgb(48, 48, 48);stroke:rgb(48, 48, 48);"/><text class="clickable sprotty-label port" id="sprotty_ArchitectureBlockImpl$rvsyncss_fpga/InstantiationBlockImpl$sync_ff2/BPortImpl$clk/label" transform="translate(6, -9) translate(8.078125, 14)" style="cursor:default;font-size:12px;perspective-origin:0px 0px;fill:rgb(48, 48, 48);text-anchor:middle;">clk</text></g><g id="sprotty_ArchitectureBlockImpl$rvsyncss_fpga/InstantiationBlockImpl$sync_ff2/BPortImpl$din" class="triangle" transform="translate(0, 38)"><path d="M 0,0 L 5,2.5 L 0,5 Z" transform="translate(-1.67, -2.5)" class="sprotty-port" style="fill:rgb(48, 48, 48);stroke:rgb(48, 48, 48);"/><text class="clickable sprotty-label port" id="sprotty_ArchitectureBlockImpl$rvsyncss_fpga/InstantiationBlockImpl$sync_ff2/BPortImpl$din/label" transform="translate(6, -9) translate(9.046875, 14)" style="cursor:default;font-size:12px;perspective-origin:0px 0px;fill:rgb(48, 48, 48);text-anchor:middle;">din</text></g><g id="sprotty_ArchitectureBlockImpl$rvsyncss_fpga/InstantiationBlockImpl$sync_ff2/BPortImpl$dout" class="triangle" transform="translate(168.40625, 94)"><path d="M 0,0 L 5,2.5 L 0,5 Z" transform="translate(-1.67, -2.5)" class="sprotty-port" style="fill:rgb(48, 48, 48);stroke:rgb(48, 48, 48);"/><text class="clickable sprotty-label port" id="sprotty_ArchitectureBlockImpl$rvsyncss_fpga/InstantiationBlockImpl$sync_ff2/BPortImpl$dout/label" transform="translate(-32.53125, -9) translate(13.265625, 14)" style="cursor:default;font-size:12px;perspective-origin:0px 0px;fill:rgb(48, 48, 48);text-anchor:middle;">dout</text></g></g><g id="sprotty_ArchitectureBlockImpl$rvsyncss_fpga/InstantiationBlockImpl$sync_ff1" class="instantiation" transform="translate(100.21875, 48)"><g class="sprotty-block" style="fill:rgb(255, 255, 255);stroke:rgb(48, 48, 48);stroke-dasharray:0px;"><rect x="0" y="0" rx="1" ry="1" width="168.40625" height="168"/><text x="84.203125" y="12" class="sprotty-block-name" style="cursor:pointer;font-weight:700;perspective-origin:84.2031px 0px;fill:rgb(48, 48, 48);stroke:rgba(0, 0, 0, 0);dominant-baseline:middle;text-anchor:middle;">sync_ff1 : rvdff_fpga</text><line x1="0" y1="20" x2="168.40625" y2="20"/></g><g id="sprotty_ArchitectureBlockImpl$rvsyncss_fpga/InstantiationBlockImpl$sync_ff1/BPortImpl$rst_l" class="triangle" transform="translate(0, 150)"><path d="M 0,0 L 5,2.5 L 0,5 Z" transform="translate(-1.67, -2.5)" class="sprotty-port" style="fill:rgb(48, 48, 48);stroke:rgb(48, 48, 48);"/><text class="clickable sprotty-label port" id="sprotty_ArchitectureBlockImpl$rvsyncss_fpga/InstantiationBlockImpl$sync_ff1/BPortImpl$rst_l/label" transform="translate(6, -9) translate(12.3125, 14)" style="cursor:default;font-size:12px;perspective-origin:0px 0px;fill:rgb(48, 48, 48);text-anchor:middle;">rst_l</text></g><g id="sprotty_ArchitectureBlockImpl$rvsyncss_fpga/InstantiationBlockImpl$sync_ff1/BPortImpl$rawclk" class="triangle" transform="translate(0, 122)"><path d="M 0,0 L 5,2.5 L 0,5 Z" transform="translate(-1.67, -2.5)" class="sprotty-port" style="fill:rgb(48, 48, 48);stroke:rgb(48, 48, 48);"/><text class="clickable sprotty-label port" id="sprotty_ArchitectureBlockImpl$rvsyncss_fpga/InstantiationBlockImpl$sync_ff1/BPortImpl$rawclk/label" transform="translate(6, -9) translate(18.421875, 14)" style="cursor:default;font-size:12px;perspective-origin:0px 0px;fill:rgb(48, 48, 48);text-anchor:middle;">rawclk</text></g><g id="sprotty_ArchitectureBlockImpl$rvsyncss_fpga/InstantiationBlockImpl$sync_ff1/BPortImpl$clken" class="triangle" transform="translate(0, 94)"><path d="M 0,0 L 5,2.5 L 0,5 Z" transform="translate(-1.67, -2.5)" class="sprotty-port" style="fill:rgb(48, 48, 48);stroke:rgb(48, 48, 48);"/><text class="clickable sprotty-label port" id="sprotty_ArchitectureBlockImpl$rvsyncss_fpga/InstantiationBlockImpl$sync_ff1/BPortImpl$clken/label" transform="translate(6, -9) translate(14.953125, 14)" style="cursor:default;font-size:12px;perspective-origin:0px 0px;fill:rgb(48, 48, 48);text-anchor:middle;">clken</text></g><g id="sprotty_ArchitectureBlockImpl$rvsyncss_fpga/InstantiationBlockImpl$sync_ff1/BPortImpl$clk" class="triangle" transform="translate(0, 66)"><path d="M 0,0 L 5,2.5 L 0,5 Z" transform="translate(-1.67, -2.5)" class="sprotty-port" style="fill:rgb(48, 48, 48);stroke:rgb(48, 48, 48);"/><text class="clickable sprotty-label port" id="sprotty_ArchitectureBlockImpl$rvsyncss_fpga/InstantiationBlockImpl$sync_ff1/BPortImpl$clk/label" transform="translate(6, -9) translate(8.078125, 14)" style="cursor:default;font-size:12px;perspective-origin:0px 0px;fill:rgb(48, 48, 48);text-anchor:middle;">clk</text></g><g id="sprotty_ArchitectureBlockImpl$rvsyncss_fpga/InstantiationBlockImpl$sync_ff1/BPortImpl$din" class="triangle" transform="translate(0, 38)"><path d="M 0,0 L 5,2.5 L 0,5 Z" transform="translate(-1.67, -2.5)" class="sprotty-port" style="fill:rgb(48, 48, 48);stroke:rgb(48, 48, 48);"/><text class="clickable sprotty-label port" id="sprotty_ArchitectureBlockImpl$rvsyncss_fpga/InstantiationBlockImpl$sync_ff1/BPortImpl$din/label" transform="translate(6, -9) translate(9.046875, 14)" style="cursor:default;font-size:12px;perspective-origin:0px 0px;fill:rgb(48, 48, 48);text-anchor:middle;">din</text></g><g id="sprotty_ArchitectureBlockImpl$rvsyncss_fpga/InstantiationBlockImpl$sync_ff1/BPortImpl$dout" class="triangle" transform="translate(168.40625, 94)"><path d="M 0,0 L 5,2.5 L 0,5 Z" transform="translate(-1.67, -2.5)" class="sprotty-port" style="fill:rgb(48, 48, 48);stroke:rgb(48, 48, 48);"/><text class="clickable sprotty-label port" id="sprotty_ArchitectureBlockImpl$rvsyncss_fpga/InstantiationBlockImpl$sync_ff1/BPortImpl$dout/label" transform="translate(-32.53125, -9) translate(13.265625, 14)" style="cursor:default;font-size:12px;perspective-origin:0px 0px;fill:rgb(48, 48, 48);text-anchor:middle;">dout</text></g></g><g id="sprotty_ArchitectureBlockImpl$rvsyncss_fpga/BPortImpl$din" class="triangle" transform="translate(0, 80)"><path d="M 0,0 L 5,2.5 L 0,5 Z" transform="translate(-1.67, -2.5)" class="sprotty-port" style="fill:rgb(48, 48, 48);stroke:rgb(48, 48, 48);"/><text class="clickable sprotty-label port" id="sprotty_ArchitectureBlockImpl$rvsyncss_fpga/BPortImpl$din/label" transform="translate(6, 6) translate(9.046875, 14)" style="cursor:default;font-size:12px;perspective-origin:0px 0px;fill:rgb(48, 48, 48);text-anchor:middle;">din</text></g><g id="sprotty_ArchitectureBlockImpl$rvsyncss_fpga/BPortImpl$rst_l" class="triangle" transform="translate(0, 295)"><path d="M 0,0 L 5,2.5 L 0,5 Z" transform="translate(-1.67, -2.5)" class="sprotty-port" style="fill:rgb(48, 48, 48);stroke:rgb(48, 48, 48);"/><text class="clickable sprotty-label port" id="sprotty_ArchitectureBlockImpl$rvsyncss_fpga/BPortImpl$rst_l/label" transform="translate(6, 6) translate(12.3125, 14)" style="cursor:default;font-size:12px;perspective-origin:0px 0px;fill:rgb(48, 48, 48);text-anchor:middle;">rst_l</text></g><g id="sprotty_ArchitectureBlockImpl$rvsyncss_fpga/BPortImpl$clken" class="triangle" transform="translate(0, 227)"><path d="M 0,0 L 5,2.5 L 0,5 Z" transform="translate(-1.67, -2.5)" class="sprotty-port" style="fill:rgb(48, 48, 48);stroke:rgb(48, 48, 48);"/><text class="clickable sprotty-label port" id="sprotty_ArchitectureBlockImpl$rvsyncss_fpga/BPortImpl$clken/label" transform="translate(6, 6) translate(14.953125, 14)" style="cursor:default;font-size:12px;perspective-origin:0px 0px;fill:rgb(48, 48, 48);text-anchor:middle;">clken</text></g><g id="sprotty_ArchitectureBlockImpl$rvsyncss_fpga/BPortImpl$rawclk" class="triangle" transform="translate(0, 261)"><path d="M 0,0 L 5,2.5 L 0,5 Z" transform="translate(-1.67, -2.5)" class="sprotty-port" style="fill:rgb(48, 48, 48);stroke:rgb(48, 48, 48);"/><text class="clickable sprotty-label port" id="sprotty_ArchitectureBlockImpl$rvsyncss_fpga/BPortImpl$rawclk/label" transform="translate(6, 6) translate(18.421875, 14)" style="cursor:default;font-size:12px;perspective-origin:0px 0px;fill:rgb(48, 48, 48);text-anchor:middle;">rawclk</text></g><g id="sprotty_ArchitectureBlockImpl$rvsyncss_fpga/BPortImpl$gw_clk" class="triangle" transform="translate(0, 114)"><path d="M 0,0 L 5,2.5 L 0,5 Z" transform="translate(-1.67, -2.5)" class="sprotty-port" style="fill:rgb(48, 48, 48);stroke:rgb(48, 48, 48);"/><text class="clickable sprotty-label port" id="sprotty_ArchitectureBlockImpl$rvsyncss_fpga/BPortImpl$gw_clk/label" transform="translate(6, 6) translate(19.609375, 14)" style="cursor:default;font-size:12px;perspective-origin:0px 0px;fill:rgb(48, 48, 48);text-anchor:middle;">gw_clk</text></g><g id="sprotty_ArchitectureBlockImpl$rvsyncss_fpga/BPortImpl$dout" class="triangle" transform="translate(514.5625, 239)"><path d="M 0,0 L 5,2.5 L 0,5 Z" transform="translate(-1.67, -2.5)" class="sprotty-port" style="fill:rgb(48, 48, 48);stroke:rgb(48, 48, 48);"/><text class="clickable sprotty-label port" id="sprotty_ArchitectureBlockImpl$rvsyncss_fpga/BPortImpl$dout/label" transform="translate(-32.53125, 6) translate(13.265625, 14)" style="cursor:default;font-size:12px;perspective-origin:0px 0px;fill:rgb(48, 48, 48);text-anchor:middle;">dout</text></g></g></g></svg>