<svg xmlns="http://www.w3.org/2000/svg" id="sprotty_work.rvdffs_fpga" class="sprotty-graph sprotty-block-diagram blockdiagram" style="font-family:&quot;Noto Sans&quot;, Helvetica, Arial, sans-serif;perspective-origin:0px 0px;transform-origin:0px 0px;" version="1.1" viewBox="7 7 219.15625 294" width="219.15625" height="294"><g transform="scale(1) translate(0,0)"><g id="sprotty_ArchitectureBlockImpl$rvdffs_fpga" class="architecture" transform="translate(12, 12)"><g class="sprotty-block" style="fill:rgb(255, 255, 255);stroke:rgb(48, 48, 48);stroke-dasharray:0px;"><rect x="0" y="0" rx="1" ry="1" width="209.15625" height="284"/><text x="104.578125" y="12" class="sprotty-block-name" style="cursor:pointer;font-weight:700;perspective-origin:104.578px 0px;fill:rgb(48, 48, 48);stroke:rgba(0, 0, 0, 0);dominant-baseline:middle;text-anchor:middle;">rvdffs_fpga</text><line x1="0" y1="20" x2="209.15625" y2="20"/></g><g id="sprotty_ArchitectureBlockImpl$rvdffs_fpga/InstantiationBlockImpl$dffs/BPortImpl$dout_to_ArchitectureBlockImpl$rvdffs_fpga/BPortImpl$dout" class="sprotty-edge thick edge" style="fill:none;stroke:rgb(112, 112, 112);stroke-linejoin:round;stroke-width:3px;"><g><path d="M 161.625 115 L 209.15625 115 "/><path d="M 161.625 115 L 209.15625 115 " class="clickable"/></g></g><g id="sprotty_ArchitectureBlockImpl$rvdffs_fpga/BPortImpl$din_to_ArchitectureBlockImpl$rvdffs_fpga/InstantiationBlockImpl$dffs/BPortImpl$din" class="sprotty-edge thick edge" style="fill:none;stroke:rgb(112, 112, 112);stroke-linejoin:round;stroke-width:3px;"><g><path d="M 0 55 L 53.625 55 C 54.625 55 55.625 56 55.625 57 L 55.625 71 C 55.625 72 56.625 73 57.625 73 L 65.625 73 "/><path d="M 0 55 L 53.625 55 C 54.625 55 55.625 56 55.625 57 L 55.625 71 C 55.625 72 56.625 73 57.625 73 L 65.625 73 " class="clickable"/></g></g><g id="sprotty_ArchitectureBlockImpl$rvdffs_fpga/BPortImpl$en_to_ArchitectureBlockImpl$rvdffs_fpga/InstantiationBlockImpl$dffs/BPortImpl$en" class="sprotty-edge edge" style="fill:none;stroke:rgb(112, 112, 112);stroke-linejoin:round;"><g><path d="M 0 89 L 53.625 89 C 54.625 89 55.625 90 55.625 91 L 55.625 99 C 55.625 100 56.625 101 57.625 101 L 65.625 101 "/><path d="M 0 89 L 53.625 89 C 54.625 89 55.625 90 55.625 91 L 55.625 99 C 55.625 100 56.625 101 57.625 101 L 65.625 101 " class="clickable"/></g></g><g id="sprotty_ArchitectureBlockImpl$rvdffs_fpga/BPortImpl$clk_to_ArchitectureBlockImpl$rvdffs_fpga/InstantiationBlockImpl$dffs/BPortImpl$clk" class="sprotty-edge edge" style="fill:none;stroke:rgb(112, 112, 112);stroke-linejoin:round;"><g><path d="M 0 123 L 53.625 123 C 54.625 123 55.625 124 55.625 125 L 55.625 127 C 55.625 128 56.625 129 57.625 129 L 65.625 129 "/><path d="M 0 123 L 53.625 123 C 54.625 123 55.625 124 55.625 125 L 55.625 127 C 55.625 128 56.625 129 57.625 129 L 65.625 129 " class="clickable"/></g></g><g id="sprotty_ArchitectureBlockImpl$rvdffs_fpga/BPortImpl$rst_l_to_ArchitectureBlockImpl$rvdffs_fpga/InstantiationBlockImpl$dffs/BPortImpl$rst_l" class="sprotty-edge edge" style="fill:none;stroke:rgb(112, 112, 112);stroke-linejoin:round;"><g><path d="M 0 157 L 65.625 157 "/><path d="M 0 157 L 65.625 157 " class="clickable"/></g></g><g id="sprotty_ArchitectureBlockImpl$rvdffs_fpga/InstantiationBlockImpl$dffs" class="instantiation" transform="translate(65.625, 35)"><g class="sprotty-block" style="fill:rgb(255, 255, 255);stroke:rgb(48, 48, 48);stroke-dasharray:0px;"><rect x="0" y="0" rx="1" ry="1" width="96" height="140"/><text x="48" y="12" class="sprotty-block-name" style="cursor:pointer;font-weight:700;perspective-origin:48px 0px;fill:rgb(48, 48, 48);stroke:rgba(0, 0, 0, 0);dominant-baseline:middle;text-anchor:middle;">dffs : rvdffs</text><line x1="0" y1="20" x2="96" y2="20"/></g><g id="sprotty_ArchitectureBlockImpl$rvdffs_fpga/InstantiationBlockImpl$dffs/BPortImpl$rst_l" class="triangle" transform="translate(0, 122)"><path d="M 0,0 L 5,2.5 L 0,5 Z" transform="translate(-1.67, -2.5)" class="sprotty-port" style="fill:rgb(48, 48, 48);stroke:rgb(48, 48, 48);"/><text class="clickable sprotty-label port" id="sprotty_ArchitectureBlockImpl$rvdffs_fpga/InstantiationBlockImpl$dffs/BPortImpl$rst_l/label" transform="translate(6, -9) translate(12.3125, 14)" style="cursor:default;font-size:12px;perspective-origin:0px 0px;fill:rgb(48, 48, 48);text-anchor:middle;">rst_l</text></g><g id="sprotty_ArchitectureBlockImpl$rvdffs_fpga/InstantiationBlockImpl$dffs/BPortImpl$clk" class="triangle" transform="translate(0, 94)"><path d="M 0,0 L 5,2.5 L 0,5 Z" transform="translate(-1.67, -2.5)" class="sprotty-port" style="fill:rgb(48, 48, 48);stroke:rgb(48, 48, 48);"/><text class="clickable sprotty-label port" id="sprotty_ArchitectureBlockImpl$rvdffs_fpga/InstantiationBlockImpl$dffs/BPortImpl$clk/label" transform="translate(6, -9) translate(8.078125, 14)" style="cursor:default;font-size:12px;perspective-origin:0px 0px;fill:rgb(48, 48, 48);text-anchor:middle;">clk</text></g><g id="sprotty_ArchitectureBlockImpl$rvdffs_fpga/InstantiationBlockImpl$dffs/BPortImpl$en" class="triangle" transform="translate(0, 66)"><path d="M 0,0 L 5,2.5 L 0,5 Z" transform="translate(-1.67, -2.5)" class="sprotty-port" style="fill:rgb(48, 48, 48);stroke:rgb(48, 48, 48);"/><text class="clickable sprotty-label port" id="sprotty_ArchitectureBlockImpl$rvdffs_fpga/InstantiationBlockImpl$dffs/BPortImpl$en/label" transform="translate(6, -9) translate(7, 14)" style="cursor:default;font-size:12px;perspective-origin:0px 0px;fill:rgb(48, 48, 48);text-anchor:middle;">en</text></g><g id="sprotty_ArchitectureBlockImpl$rvdffs_fpga/InstantiationBlockImpl$dffs/BPortImpl$din" class="triangle" transform="translate(0, 38)"><path d="M 0,0 L 5,2.5 L 0,5 Z" transform="translate(-1.67, -2.5)" class="sprotty-port" style="fill:rgb(48, 48, 48);stroke:rgb(48, 48, 48);"/><text class="clickable sprotty-label port" id="sprotty_ArchitectureBlockImpl$rvdffs_fpga/InstantiationBlockImpl$dffs/BPortImpl$din/label" transform="translate(6, -9) translate(9.046875, 14)" style="cursor:default;font-size:12px;perspective-origin:0px 0px;fill:rgb(48, 48, 48);text-anchor:middle;">din</text></g><g id="sprotty_ArchitectureBlockImpl$rvdffs_fpga/InstantiationBlockImpl$dffs/BPortImpl$dout" class="triangle" transform="translate(96, 80)"><path d="M 0,0 L 5,2.5 L 0,5 Z" transform="translate(-1.67, -2.5)" class="sprotty-port" style="fill:rgb(48, 48, 48);stroke:rgb(48, 48, 48);"/><text class="clickable sprotty-label port" id="sprotty_ArchitectureBlockImpl$rvdffs_fpga/InstantiationBlockImpl$dffs/BPortImpl$dout/label" transform="translate(-32.53125, -9) translate(13.265625, 14)" style="cursor:default;font-size:12px;perspective-origin:0px 0px;fill:rgb(48, 48, 48);text-anchor:middle;">dout</text></g></g><g id="sprotty_ArchitectureBlockImpl$rvdffs_fpga/BPortImpl$rst_l" class="triangle" transform="translate(0, 157)"><path d="M 0,0 L 5,2.5 L 0,5 Z" transform="translate(-1.67, -2.5)" class="sprotty-port" style="fill:rgb(48, 48, 48);stroke:rgb(48, 48, 48);"/><text class="clickable sprotty-label port" id="sprotty_ArchitectureBlockImpl$rvdffs_fpga/BPortImpl$rst_l/label" transform="translate(6, 6) translate(12.3125, 14)" style="cursor:default;font-size:12px;perspective-origin:0px 0px;fill:rgb(48, 48, 48);text-anchor:middle;">rst_l</text></g><g id="sprotty_ArchitectureBlockImpl$rvdffs_fpga/BPortImpl$rawclk" class="triangle" transform="translate(0, 201)"><path d="M 0,0 L 5,2.5 L 0,5 Z" transform="translate(-1.67, -2.5)" class="sprotty-port" style="fill:rgb(48, 48, 48);stroke:rgb(48, 48, 48);"/><text class="clickable sprotty-label port" id="sprotty_ArchitectureBlockImpl$rvdffs_fpga/BPortImpl$rawclk/label" transform="translate(6, 6) translate(18.421875, 14)" style="cursor:default;font-size:12px;perspective-origin:0px 0px;fill:rgb(48, 48, 48);text-anchor:middle;">rawclk</text></g><g id="sprotty_ArchitectureBlockImpl$rvdffs_fpga/BPortImpl$clken" class="triangle" transform="translate(0, 245)"><path d="M 0,0 L 5,2.5 L 0,5 Z" transform="translate(-1.67, -2.5)" class="sprotty-port" style="fill:rgb(48, 48, 48);stroke:rgb(48, 48, 48);"/><text class="clickable sprotty-label port" id="sprotty_ArchitectureBlockImpl$rvdffs_fpga/BPortImpl$clken/label" transform="translate(6, 6) translate(14.953125, 14)" style="cursor:default;font-size:12px;perspective-origin:0px 0px;fill:rgb(48, 48, 48);text-anchor:middle;">clken</text></g><g id="sprotty_ArchitectureBlockImpl$rvdffs_fpga/BPortImpl$clk" class="triangle" transform="translate(0, 123)"><path d="M 0,0 L 5,2.5 L 0,5 Z" transform="translate(-1.67, -2.5)" class="sprotty-port" style="fill:rgb(48, 48, 48);stroke:rgb(48, 48, 48);"/><text class="clickable sprotty-label port" id="sprotty_ArchitectureBlockImpl$rvdffs_fpga/BPortImpl$clk/label" transform="translate(6, 6) translate(8.078125, 14)" style="cursor:default;font-size:12px;perspective-origin:0px 0px;fill:rgb(48, 48, 48);text-anchor:middle;">clk</text></g><g id="sprotty_ArchitectureBlockImpl$rvdffs_fpga/BPortImpl$en" class="triangle" transform="translate(0, 89)"><path d="M 0,0 L 5,2.5 L 0,5 Z" transform="translate(-1.67, -2.5)" class="sprotty-port" style="fill:rgb(48, 48, 48);stroke:rgb(48, 48, 48);"/><text class="clickable sprotty-label port" id="sprotty_ArchitectureBlockImpl$rvdffs_fpga/BPortImpl$en/label" transform="translate(6, 6) translate(7, 14)" style="cursor:default;font-size:12px;perspective-origin:0px 0px;fill:rgb(48, 48, 48);text-anchor:middle;">en</text></g><g id="sprotty_ArchitectureBlockImpl$rvdffs_fpga/BPortImpl$din" class="triangle" transform="translate(0, 55)"><path d="M 0,0 L 5,2.5 L 0,5 Z" transform="translate(-1.67, -2.5)" class="sprotty-port" style="fill:rgb(48, 48, 48);stroke:rgb(48, 48, 48);"/><text class="clickable sprotty-label port" id="sprotty_ArchitectureBlockImpl$rvdffs_fpga/BPortImpl$din/label" transform="translate(6, 6) translate(9.046875, 14)" style="cursor:default;font-size:12px;perspective-origin:0px 0px;fill:rgb(48, 48, 48);text-anchor:middle;">din</text></g><g id="sprotty_ArchitectureBlockImpl$rvdffs_fpga/BPortImpl$dout" class="triangle" transform="translate(209.15625, 115)"><path d="M 0,0 L 5,2.5 L 0,5 Z" transform="translate(-1.67, -2.5)" class="sprotty-port" style="fill:rgb(48, 48, 48);stroke:rgb(48, 48, 48);"/><text class="clickable sprotty-label port" id="sprotty_ArchitectureBlockImpl$rvdffs_fpga/BPortImpl$dout/label" transform="translate(-32.53125, 6) translate(13.265625, 14)" style="cursor:default;font-size:12px;perspective-origin:0px 0px;fill:rgb(48, 48, 48);text-anchor:middle;">dout</text></g></g></g></svg>