<svg xmlns="http://www.w3.org/2000/svg" id="sprotty_work.rvarbiter2_pic" class="sprotty-graph sprotty-block-diagram blockdiagram" style="font-family:&quot;Noto Sans&quot;, Helvetica, Arial, sans-serif;perspective-origin:0px 0px;transform-origin:0px 0px;" version="1.1" viewBox="7 7 399.015625 353" width="399.015625" height="353"><g transform="scale(1) translate(0,0)"><g id="sprotty_ArchitectureBlockImpl$rvarbiter2_pic" class="architecture" transform="translate(12, 12)"><g class="sprotty-block" style="fill:rgb(255, 255, 255);stroke:rgb(48, 48, 48);stroke-dasharray:0px;"><rect x="0" y="0" rx="1" ry="1" width="389.015625" height="343"/><text x="194.5078125" y="12" class="sprotty-block-name" style="cursor:pointer;font-weight:700;perspective-origin:194.5px 0px;fill:rgb(48, 48, 48);stroke:rgba(0, 0, 0, 0);dominant-baseline:middle;text-anchor:middle;">rvarbiter2_pic</text><line x1="0" y1="20" x2="389.015625" y2="20"/></g><g id="sprotty_ArchitectureBlockImpl$rvarbiter2_pic/AssignmentBlockImpl$tid/GPortImpl$tidOUT_to_ArchitectureBlockImpl$rvarbiter2_pic/BPortImpl$tid" class="sprotty-edge edge" style="fill:none;stroke:rgb(112, 112, 112);stroke-linejoin:round;"><g><path d="M 161.34375 50 L 389.015625 50 "/><path d="M 161.34375 50 L 389.015625 50 " class="clickable"/></g></g><g id="sprotty_ArchitectureBlockImpl$rvarbiter2_pic/InstantiationBlockImpl$favor_ff/BPortImpl$dout_to_ArchitectureBlockImpl$rvarbiter2_pic/BPortImpl$favor" class="sprotty-edge edge" style="fill:none;stroke:rgb(112, 112, 112);stroke-linejoin:round;"><g><path d="M 319.4375 218 L 389.015625 218 "/><path d="M 319.4375 218 L 389.015625 218 " class="clickable"/></g></g><g id="sprotty_ArchitectureBlockImpl$rvarbiter2_pic/BPortImpl$shift_to_ArchitectureBlockImpl$rvarbiter2_pic/InstantiationBlockImpl$favor_ff/BPortImpl$en" class="sprotty-edge edge" style="fill:none;stroke:rgb(112, 112, 112);stroke-linejoin:round;"><g><path d="M 0 192 L 179.34375 192 C 180.34375 192 181.34375 193 181.34375 194 L 181.34375 202 C 181.34375 203 182.34375 204 183.34375 204 L 191.34375 204 "/><path d="M 0 192 L 179.34375 192 C 180.34375 192 181.34375 193 181.34375 194 L 181.34375 202 C 181.34375 203 182.34375 204 183.34375 204 L 191.34375 204 " class="clickable"/></g><circle r="2" id="sprotty_ArchitectureBlockImpl$rvarbiter2_pic/BPortImpl$shift_to_ArchitectureBlockImpl$rvarbiter2_pic/InstantiationBlockImpl$favor_ff/BPortImpl$en/junction0" transform="translate(181.34375, 192)" class="sprotty-junction junction" style="fill:rgb(112, 112, 112);stroke:none;"/></g><g id="sprotty_ArchitectureBlockImpl$rvarbiter2_pic/BPortImpl$clk_to_ArchitectureBlockImpl$rvarbiter2_pic/InstantiationBlockImpl$favor_ff/BPortImpl$clk" class="sprotty-edge edge" style="fill:none;stroke:rgb(112, 112, 112);stroke-linejoin:round;"><g><path d="M 0 226 L 169.34375 226 C 170.34375 226 171.34375 227 171.34375 228 L 171.34375 230 C 171.34375 231 172.34375 232 173.34375 232 L 191.34375 232 "/><path d="M 0 226 L 169.34375 226 C 170.34375 226 171.34375 227 171.34375 228 L 171.34375 230 C 171.34375 231 172.34375 232 173.34375 232 L 191.34375 232 " class="clickable"/></g></g><g id="sprotty_ArchitectureBlockImpl$rvarbiter2_pic/BPortImpl$rst_l_to_ArchitectureBlockImpl$rvarbiter2_pic/InstantiationBlockImpl$favor_ff/BPortImpl$rst_l" class="sprotty-edge edge" style="fill:none;stroke:rgb(112, 112, 112);stroke-linejoin:round;"><g><path d="M 0 260 L 191.34375 260 "/><path d="M 0 260 L 191.34375 260 " class="clickable"/></g></g><g id="sprotty_ArchitectureBlockImpl$rvarbiter2_pic/BPortImpl$ready_to_ArchitectureBlockImpl$rvarbiter2_pic/AssignmentBlockImpl$ready0/GPortImpl$readyIN" class="sprotty-edge thick edge" style="fill:none;stroke:rgb(112, 112, 112);stroke-linejoin:round;stroke-width:3px;"><g><path d="M 0 125 L 60.46875 125 C 61.46875 125 62.46875 126 62.46875 127 L 62.46875 168 C 62.46875 169 63.46875 170 64.46875 170 L 72.46875 170 "/><path d="M 0 125 L 60.46875 125 C 61.46875 125 62.46875 126 62.46875 127 L 62.46875 168 C 62.46875 169 63.46875 170 64.46875 170 L 72.46875 170 " class="clickable"/></g><circle r="3" id="sprotty_ArchitectureBlockImpl$rvarbiter2_pic/BPortImpl$ready_to_ArchitectureBlockImpl$rvarbiter2_pic/AssignmentBlockImpl$ready0/GPortImpl$readyIN/junction0" transform="translate(62.46875, 125)" class="sprotty-junction thick" style="fill:rgb(112, 112, 112);stroke:none;"/></g><g id="sprotty_ArchitectureBlockImpl$rvarbiter2_pic/BPortImpl$ready_to_ArchitectureBlockImpl$rvarbiter2_pic/AssignmentBlockImpl$ready1/GPortImpl$readyIN" class="sprotty-edge thick edge" style="fill:none;stroke:rgb(112, 112, 112);stroke-linejoin:round;stroke-width:3px;"><g><path d="M 0 125 L 72.46875 125 "/><path d="M 0 125 L 72.46875 125 " class="clickable"/></g></g><g id="sprotty_ArchitectureBlockImpl$rvarbiter2_pic/BPortImpl$ready_to_ArchitectureBlockImpl$rvarbiter2_pic/AssignmentBlockImpl$ready2/GPortImpl$readyIN" class="sprotty-edge thick edge" style="fill:none;stroke:rgb(112, 112, 112);stroke-linejoin:round;stroke-width:3px;"><g><path d="M 0 125 L 60.46875 125 C 61.46875 125 62.46875 124 62.46875 123 L 62.46875 85 C 62.46875 84 63.46875 83 64.46875 83 L 72.46875 83 "/><path d="M 0 125 L 60.46875 125 C 61.46875 125 62.46875 124 62.46875 123 L 62.46875 85 C 62.46875 84 63.46875 83 64.46875 83 L 72.46875 83 " class="clickable"/></g><circle r="3" id="sprotty_ArchitectureBlockImpl$rvarbiter2_pic/BPortImpl$ready_to_ArchitectureBlockImpl$rvarbiter2_pic/AssignmentBlockImpl$ready2/GPortImpl$readyIN/junction0" transform="translate(62.46875, 83)" class="sprotty-junction thick" style="fill:rgb(112, 112, 112);stroke:none;"/></g><g id="sprotty_ArchitectureBlockImpl$rvarbiter2_pic/BPortImpl$favor_to_ArchitectureBlockImpl$rvarbiter2_pic/AssignmentBlockImpl$favor_in/GPortImpl$favorIN" class="sprotty-edge edge" style="fill:none;stroke:rgb(112, 112, 112);stroke-linejoin:round;"><g><path d="M 389.015625 218 L 331.4375 218 C 330.4375 218 329.4375 217 329.4375 216 L 329.4375 77 C 329.4375 76 328.4375 75 327.4375 75 L 133.90625 75 C 132.90625 75 131.90625 76 131.90625 77 L 131.90625 128 C 131.90625 129 132.90625 130 133.90625 130 L 141.90625 130 "/><path d="M 389.015625 218 L 331.4375 218 C 330.4375 218 329.4375 217 329.4375 216 L 329.4375 77 C 329.4375 76 328.4375 75 327.4375 75 L 133.90625 75 C 132.90625 75 131.90625 76 131.90625 77 L 131.90625 128 C 131.90625 129 132.90625 130 133.90625 130 L 141.90625 130 " class="clickable"/></g><circle r="2" id="sprotty_ArchitectureBlockImpl$rvarbiter2_pic/BPortImpl$favor_to_ArchitectureBlockImpl$rvarbiter2_pic/AssignmentBlockImpl$favor_in/GPortImpl$favorIN/junction0" transform="translate(329.4375, 218)" class="sprotty-junction junction" style="fill:rgb(112, 112, 112);stroke:none;"/></g><g id="sprotty_ArchitectureBlockImpl$rvarbiter2_pic/BPortImpl$ready_to_ArchitectureBlockImpl$rvarbiter2_pic/AssignmentBlockImpl$favor_in/GPortImpl$readyIN" class="sprotty-edge thick edge" style="fill:none;stroke:rgb(112, 112, 112);stroke-linejoin:round;stroke-width:3px;"><g><path d="M 0 125 L 60.46875 125 C 61.46875 125 62.46875 126 62.46875 127 L 62.46875 145 C 62.46875 146 63.46875 147 64.46875 147 L 99.90625 147 C 100.90625 147 101.90625 148 101.90625 149 L 101.90625 158 C 101.90625 159 102.90625 160 103.90625 160 L 141.90625 160 "/><path d="M 0 125 L 60.46875 125 C 61.46875 125 62.46875 126 62.46875 127 L 62.46875 145 C 62.46875 146 63.46875 147 64.46875 147 L 99.90625 147 C 100.90625 147 101.90625 148 101.90625 149 L 101.90625 158 C 101.90625 159 102.90625 160 103.90625 160 L 141.90625 160 " class="clickable"/></g><circle r="3" id="sprotty_ArchitectureBlockImpl$rvarbiter2_pic/BPortImpl$ready_to_ArchitectureBlockImpl$rvarbiter2_pic/AssignmentBlockImpl$favor_in/GPortImpl$readyIN/junction0" transform="translate(62.46875, 147)" class="sprotty-junction thick" style="fill:rgb(112, 112, 112);stroke:none;"/></g><g id="sprotty_ArchitectureBlockImpl$rvarbiter2_pic/BPortImpl$ready_to_ArchitectureBlockImpl$rvarbiter2_pic/AssignmentBlockImpl$tid/GPortImpl$readyIN" class="sprotty-edge thick edge" style="fill:none;stroke:rgb(112, 112, 112);stroke-linejoin:round;stroke-width:3px;"><g><path d="M 0 125 L 60.46875 125 C 61.46875 125 62.46875 124 62.46875 123 L 62.46875 47 C 62.46875 46 63.46875 45 64.46875 45 L 141.90625 45 "/><path d="M 0 125 L 60.46875 125 C 61.46875 125 62.46875 124 62.46875 123 L 62.46875 47 C 62.46875 46 63.46875 45 64.46875 45 L 141.90625 45 " class="clickable"/></g></g><g id="sprotty_ArchitectureBlockImpl$rvarbiter2_pic/AssignmentBlockImpl$ready0/GPortImpl$ready0OUT_to_ArchitectureBlockImpl$rvarbiter2_pic/AssignmentBlockImpl$favor_in/GPortImpl$ready0IN" class="sprotty-edge edge" style="fill:none;stroke:rgb(112, 112, 112);stroke-linejoin:round;"><g><path d="M 91.90625 170 L 141.90625 170 "/><path d="M 91.90625 170 L 141.90625 170 " class="clickable"/></g></g><g id="sprotty_ArchitectureBlockImpl$rvarbiter2_pic/AssignmentBlockImpl$ready1/GPortImpl$ready1OUT_to_ArchitectureBlockImpl$rvarbiter2_pic/AssignmentBlockImpl$favor_in/GPortImpl$ready1IN" class="sprotty-edge edge" style="fill:none;stroke:rgb(112, 112, 112);stroke-linejoin:round;"><g><path d="M 91.90625 125 L 109.90625 125 C 110.90625 125 111.90625 126 111.90625 127 L 111.90625 148 C 111.90625 149 112.90625 150 113.90625 150 L 141.90625 150 "/><path d="M 91.90625 125 L 109.90625 125 C 110.90625 125 111.90625 126 111.90625 127 L 111.90625 148 C 111.90625 149 112.90625 150 113.90625 150 L 141.90625 150 " class="clickable"/></g></g><g id="sprotty_ArchitectureBlockImpl$rvarbiter2_pic/AssignmentBlockImpl$ready2/GPortImpl$ready2OUT_to_ArchitectureBlockImpl$rvarbiter2_pic/InstantiationBlockImpl$favor_ff/BPortImpl$en" class="sprotty-edge edge" style="fill:none;stroke:rgb(112, 112, 112);stroke-linejoin:round;"><g><path d="M 91.90625 83 L 179.34375 83 C 180.34375 83 181.34375 84 181.34375 85 L 181.34375 202 C 181.34375 203 182.34375 204 183.34375 204 L 191.34375 204 "/><path d="M 91.90625 83 L 179.34375 83 C 180.34375 83 181.34375 84 181.34375 85 L 181.34375 202 C 181.34375 203 182.34375 204 183.34375 204 L 191.34375 204 " class="clickable"/></g></g><g id="sprotty_ArchitectureBlockImpl$rvarbiter2_pic/AssignmentBlockImpl$ready2/GPortImpl$ready2OUT_to_ArchitectureBlockImpl$rvarbiter2_pic/AssignmentBlockImpl$favor_in/GPortImpl$ready2IN" class="sprotty-edge edge" style="fill:none;stroke:rgb(112, 112, 112);stroke-linejoin:round;"><g><path d="M 91.90625 83 L 119.90625 83 C 120.90625 83 121.90625 84 121.90625 85 L 121.90625 138 C 121.90625 139 122.90625 140 123.90625 140 L 141.90625 140 "/><path d="M 91.90625 83 L 119.90625 83 C 120.90625 83 121.90625 84 121.90625 85 L 121.90625 138 C 121.90625 139 122.90625 140 123.90625 140 L 141.90625 140 " class="clickable"/></g><circle r="2" id="sprotty_ArchitectureBlockImpl$rvarbiter2_pic/AssignmentBlockImpl$ready2/GPortImpl$ready2OUT_to_ArchitectureBlockImpl$rvarbiter2_pic/AssignmentBlockImpl$favor_in/GPortImpl$ready2IN/junction0" transform="translate(121.90625, 83)" class="sprotty-junction junction" style="fill:rgb(112, 112, 112);stroke:none;"/></g><g id="sprotty_ArchitectureBlockImpl$rvarbiter2_pic/AssignmentBlockImpl$ready2/GPortImpl$ready2OUT_to_ArchitectureBlockImpl$rvarbiter2_pic/AssignmentBlockImpl$tid/GPortImpl$ready2IN" class="sprotty-edge edge" style="fill:none;stroke:rgb(112, 112, 112);stroke-linejoin:round;"><g><path d="M 91.90625 83 L 119.90625 83 C 120.90625 83 121.90625 82 121.90625 81 L 121.90625 57 C 121.90625 56 122.90625 55 123.90625 55 L 141.90625 55 "/><path d="M 91.90625 83 L 119.90625 83 C 120.90625 83 121.90625 82 121.90625 81 L 121.90625 57 C 121.90625 56 122.90625 55 123.90625 55 L 141.90625 55 " class="clickable"/></g></g><g id="sprotty_ArchitectureBlockImpl$rvarbiter2_pic/AssignmentBlockImpl$favor_in/GPortImpl$favorOUT_to_ArchitectureBlockImpl$rvarbiter2_pic/InstantiationBlockImpl$favor_ff/BPortImpl$din" class="sprotty-edge edge" style="fill:none;stroke:rgb(112, 112, 112);stroke-linejoin:round;"><g><path d="M 161.34375 150 L 169.34375 150 C 170.34375 150 171.34375 151 171.34375 152 L 171.34375 174 C 171.34375 175 172.34375 176 173.34375 176 L 191.34375 176 "/><path d="M 161.34375 150 L 169.34375 150 C 170.34375 150 171.34375 151 171.34375 152 L 171.34375 174 C 171.34375 175 172.34375 176 173.34375 176 L 191.34375 176 " class="clickable"/></g></g><g id="sprotty_ArchitectureBlockImpl$rvarbiter2_pic/AssignmentBlockImpl$tid" class="statement" transform="translate(141.90625, 35)"><rect x="0" y="0" rx="10" ry="5" width="19.4375" height="30" class="sprotty-node" style="fill:rgb(245, 245, 245);stroke:rgb(112, 112, 112);"/><text class="clickable sprotty-label statementtype" id="sprotty_ArchitectureBlockImpl$rvarbiter2_pic/AssignmentBlockImpl$tid/labeltype" transform="translate(5, 9) translate(4.71875, 9.5)" style="cursor:default;font-size:8px;font-weight:700;perspective-origin:0px 0px;fill:rgb(112, 112, 112);text-anchor:middle;">&lt;=</text><g id="sprotty_ArchitectureBlockImpl$rvarbiter2_pic/AssignmentBlockImpl$tid/GPortImpl$readyIN" class="sprotty-hidden hidden" transform="translate(0, 10)" style="display:block;height:0px;width:0px;"/><g id="sprotty_ArchitectureBlockImpl$rvarbiter2_pic/AssignmentBlockImpl$tid/GPortImpl$ready2IN" class="sprotty-hidden hidden" transform="translate(0, 20)" style="display:block;height:0px;width:0px;"/><g id="sprotty_ArchitectureBlockImpl$rvarbiter2_pic/AssignmentBlockImpl$tid/GPortImpl$tidOUT" class="sprotty-hidden hidden" transform="translate(19.4375, 15)" style="display:block;height:0px;width:0px;"/></g><g id="sprotty_ArchitectureBlockImpl$rvarbiter2_pic/AssignmentBlockImpl$favor_in" class="statement" transform="translate(141.90625, 120)"><rect x="0" y="0" rx="10" ry="5" width="19.4375" height="60" class="sprotty-node" style="fill:rgb(245, 245, 245);stroke:rgb(112, 112, 112);"/><text class="clickable sprotty-label statementtype" id="sprotty_ArchitectureBlockImpl$rvarbiter2_pic/AssignmentBlockImpl$favor_in/labeltype" transform="translate(5, 24) translate(4.71875, 9.5)" style="cursor:default;font-size:8px;font-weight:700;perspective-origin:0px 0px;fill:rgb(112, 112, 112);text-anchor:middle;">&lt;=</text><g id="sprotty_ArchitectureBlockImpl$rvarbiter2_pic/AssignmentBlockImpl$favor_in/GPortImpl$ready0IN" class="sprotty-hidden hidden" transform="translate(0, 50)" style="display:block;height:0px;width:0px;"/><g id="sprotty_ArchitectureBlockImpl$rvarbiter2_pic/AssignmentBlockImpl$favor_in/GPortImpl$readyIN" class="sprotty-hidden hidden" transform="translate(0, 40)" style="display:block;height:0px;width:0px;"/><g id="sprotty_ArchitectureBlockImpl$rvarbiter2_pic/AssignmentBlockImpl$favor_in/GPortImpl$ready1IN" class="sprotty-hidden hidden" transform="translate(0, 30)" style="display:block;height:0px;width:0px;"/><g id="sprotty_ArchitectureBlockImpl$rvarbiter2_pic/AssignmentBlockImpl$favor_in/GPortImpl$favorIN" class="sprotty-hidden hidden" transform="translate(0, 10)" style="display:block;height:0px;width:0px;"/><g id="sprotty_ArchitectureBlockImpl$rvarbiter2_pic/AssignmentBlockImpl$favor_in/GPortImpl$ready2IN" class="sprotty-hidden hidden" transform="translate(0, 20)" style="display:block;height:0px;width:0px;"/><g id="sprotty_ArchitectureBlockImpl$rvarbiter2_pic/AssignmentBlockImpl$favor_in/GPortImpl$favorOUT" class="sprotty-hidden hidden" transform="translate(19.4375, 30)" style="display:block;height:0px;width:0px;"/></g><g id="sprotty_ArchitectureBlockImpl$rvarbiter2_pic/AssignmentBlockImpl$ready2" class="statement" transform="translate(72.46875, 72)"><rect x="0" y="0" rx="10" ry="5" width="19.4375" height="22" class="sprotty-node" style="fill:rgb(245, 245, 245);stroke:rgb(112, 112, 112);"/><text class="clickable sprotty-label statementtype" id="sprotty_ArchitectureBlockImpl$rvarbiter2_pic/AssignmentBlockImpl$ready2/labeltype" transform="translate(5, 5) translate(4.71875, 9.5)" style="cursor:default;font-size:8px;font-weight:700;perspective-origin:0px 0px;fill:rgb(112, 112, 112);text-anchor:middle;">&lt;=</text><g id="sprotty_ArchitectureBlockImpl$rvarbiter2_pic/AssignmentBlockImpl$ready2/GPortImpl$readyIN" class="sprotty-hidden hidden" transform="translate(0, 11)" style="display:block;height:0px;width:0px;"/><g id="sprotty_ArchitectureBlockImpl$rvarbiter2_pic/AssignmentBlockImpl$ready2/GPortImpl$ready2OUT" class="sprotty-hidden hidden" transform="translate(19.4375, 11)" style="display:block;height:0px;width:0px;"/></g><g id="sprotty_ArchitectureBlockImpl$rvarbiter2_pic/AssignmentBlockImpl$ready1" class="statement" transform="translate(72.46875, 114)"><rect x="0" y="0" rx="10" ry="5" width="19.4375" height="22" class="sprotty-node" style="fill:rgb(245, 245, 245);stroke:rgb(112, 112, 112);"/><text class="clickable sprotty-label statementtype" id="sprotty_ArchitectureBlockImpl$rvarbiter2_pic/AssignmentBlockImpl$ready1/labeltype" transform="translate(5, 5) translate(4.71875, 9.5)" style="cursor:default;font-size:8px;font-weight:700;perspective-origin:0px 0px;fill:rgb(112, 112, 112);text-anchor:middle;">&lt;=</text><g id="sprotty_ArchitectureBlockImpl$rvarbiter2_pic/AssignmentBlockImpl$ready1/GPortImpl$readyIN" class="sprotty-hidden hidden" transform="translate(0, 11)" style="display:block;height:0px;width:0px;"/><g id="sprotty_ArchitectureBlockImpl$rvarbiter2_pic/AssignmentBlockImpl$ready1/GPortImpl$ready1OUT" class="sprotty-hidden hidden" transform="translate(19.4375, 11)" style="display:block;height:0px;width:0px;"/></g><g id="sprotty_ArchitectureBlockImpl$rvarbiter2_pic/AssignmentBlockImpl$ready0" class="statement" transform="translate(72.46875, 159)"><rect x="0" y="0" rx="10" ry="5" width="19.4375" height="22" class="sprotty-node" style="fill:rgb(245, 245, 245);stroke:rgb(112, 112, 112);"/><text class="clickable sprotty-label statementtype" id="sprotty_ArchitectureBlockImpl$rvarbiter2_pic/AssignmentBlockImpl$ready0/labeltype" transform="translate(5, 5) translate(4.71875, 9.5)" style="cursor:default;font-size:8px;font-weight:700;perspective-origin:0px 0px;fill:rgb(112, 112, 112);text-anchor:middle;">&lt;=</text><g id="sprotty_ArchitectureBlockImpl$rvarbiter2_pic/AssignmentBlockImpl$ready0/GPortImpl$readyIN" class="sprotty-hidden hidden" transform="translate(0, 11)" style="display:block;height:0px;width:0px;"/><g id="sprotty_ArchitectureBlockImpl$rvarbiter2_pic/AssignmentBlockImpl$ready0/GPortImpl$ready0OUT" class="sprotty-hidden hidden" transform="translate(19.4375, 11)" style="display:block;height:0px;width:0px;"/></g><g id="sprotty_ArchitectureBlockImpl$rvarbiter2_pic/InstantiationBlockImpl$favor_ff" class="instantiation" transform="translate(191.34375, 138)"><g class="sprotty-block" style="fill:rgb(255, 255, 255);stroke:rgb(48, 48, 48);stroke-dasharray:0px;"><rect x="0" y="0" rx="1" ry="1" width="128.09375" height="140"/><text x="64.046875" y="12" class="sprotty-block-name" style="cursor:pointer;font-weight:700;perspective-origin:64.0469px 0px;fill:rgb(48, 48, 48);stroke:rgba(0, 0, 0, 0);dominant-baseline:middle;text-anchor:middle;">favor_ff : rvdffs</text><line x1="0" y1="20" x2="128.09375" y2="20"/></g><g id="sprotty_ArchitectureBlockImpl$rvarbiter2_pic/InstantiationBlockImpl$favor_ff/BPortImpl$rst_l" class="triangle" transform="translate(0, 122)"><path d="M 0,0 L 5,2.5 L 0,5 Z" transform="translate(-1.67, -2.5)" class="sprotty-port" style="fill:rgb(48, 48, 48);stroke:rgb(48, 48, 48);"/><text class="clickable sprotty-label port" id="sprotty_ArchitectureBlockImpl$rvarbiter2_pic/InstantiationBlockImpl$favor_ff/BPortImpl$rst_l/label" transform="translate(6, -9) translate(12.3125, 14)" style="cursor:default;font-size:12px;perspective-origin:0px 0px;fill:rgb(48, 48, 48);text-anchor:middle;">rst_l</text></g><g id="sprotty_ArchitectureBlockImpl$rvarbiter2_pic/InstantiationBlockImpl$favor_ff/BPortImpl$clk" class="triangle" transform="translate(0, 94)"><path d="M 0,0 L 5,2.5 L 0,5 Z" transform="translate(-1.67, -2.5)" class="sprotty-port" style="fill:rgb(48, 48, 48);stroke:rgb(48, 48, 48);"/><text class="clickable sprotty-label port" id="sprotty_ArchitectureBlockImpl$rvarbiter2_pic/InstantiationBlockImpl$favor_ff/BPortImpl$clk/label" transform="translate(6, -9) translate(8.078125, 14)" style="cursor:default;font-size:12px;perspective-origin:0px 0px;fill:rgb(48, 48, 48);text-anchor:middle;">clk</text></g><g id="sprotty_ArchitectureBlockImpl$rvarbiter2_pic/InstantiationBlockImpl$favor_ff/BPortImpl$en" class="triangle" transform="translate(0, 66)"><path d="M 0,0 L 5,2.5 L 0,5 Z" transform="translate(-1.67, -2.5)" class="sprotty-port" style="fill:rgb(48, 48, 48);stroke:rgb(48, 48, 48);"/><text class="clickable sprotty-label port" id="sprotty_ArchitectureBlockImpl$rvarbiter2_pic/InstantiationBlockImpl$favor_ff/BPortImpl$en/label" transform="translate(6, -9) translate(7, 14)" style="cursor:default;font-size:12px;perspective-origin:0px 0px;fill:rgb(48, 48, 48);text-anchor:middle;">en</text></g><g id="sprotty_ArchitectureBlockImpl$rvarbiter2_pic/InstantiationBlockImpl$favor_ff/BPortImpl$din" class="triangle" transform="translate(0, 38)"><path d="M 0,0 L 5,2.5 L 0,5 Z" transform="translate(-1.67, -2.5)" class="sprotty-port" style="fill:rgb(48, 48, 48);stroke:rgb(48, 48, 48);"/><text class="clickable sprotty-label port" id="sprotty_ArchitectureBlockImpl$rvarbiter2_pic/InstantiationBlockImpl$favor_ff/BPortImpl$din/label" transform="translate(6, -9) translate(9.046875, 14)" style="cursor:default;font-size:12px;perspective-origin:0px 0px;fill:rgb(48, 48, 48);text-anchor:middle;">din</text></g><g id="sprotty_ArchitectureBlockImpl$rvarbiter2_pic/InstantiationBlockImpl$favor_ff/BPortImpl$dout" class="triangle" transform="translate(128.09375, 80)"><path d="M 0,0 L 5,2.5 L 0,5 Z" transform="translate(-1.67, -2.5)" class="sprotty-port" style="fill:rgb(48, 48, 48);stroke:rgb(48, 48, 48);"/><text class="clickable sprotty-label port" id="sprotty_ArchitectureBlockImpl$rvarbiter2_pic/InstantiationBlockImpl$favor_ff/BPortImpl$dout/label" transform="translate(-32.53125, -9) translate(13.265625, 14)" style="cursor:default;font-size:12px;perspective-origin:0px 0px;fill:rgb(48, 48, 48);text-anchor:middle;">dout</text></g></g><g id="sprotty_ArchitectureBlockImpl$rvarbiter2_pic/BPortImpl$scan_mode" class="triangle" transform="translate(0, 304)"><path d="M 0,0 L 5,2.5 L 0,5 Z" transform="translate(-1.67, -2.5)" class="sprotty-port" style="fill:rgb(48, 48, 48);stroke:rgb(48, 48, 48);"/><text class="clickable sprotty-label port" id="sprotty_ArchitectureBlockImpl$rvarbiter2_pic/BPortImpl$scan_mode/label" transform="translate(6, 6) translate(32.4375, 14)" style="cursor:default;font-size:12px;perspective-origin:0px 0px;fill:rgb(48, 48, 48);text-anchor:middle;">scan_mode</text></g><g id="sprotty_ArchitectureBlockImpl$rvarbiter2_pic/BPortImpl$rst_l" class="triangle" transform="translate(0, 260)"><path d="M 0,0 L 5,2.5 L 0,5 Z" transform="translate(-1.67, -2.5)" class="sprotty-port" style="fill:rgb(48, 48, 48);stroke:rgb(48, 48, 48);"/><text class="clickable sprotty-label port" id="sprotty_ArchitectureBlockImpl$rvarbiter2_pic/BPortImpl$rst_l/label" transform="translate(6, 6) translate(12.3125, 14)" style="cursor:default;font-size:12px;perspective-origin:0px 0px;fill:rgb(48, 48, 48);text-anchor:middle;">rst_l</text></g><g id="sprotty_ArchitectureBlockImpl$rvarbiter2_pic/BPortImpl$clk" class="triangle" transform="translate(0, 226)"><path d="M 0,0 L 5,2.5 L 0,5 Z" transform="translate(-1.67, -2.5)" class="sprotty-port" style="fill:rgb(48, 48, 48);stroke:rgb(48, 48, 48);"/><text class="clickable sprotty-label port" id="sprotty_ArchitectureBlockImpl$rvarbiter2_pic/BPortImpl$clk/label" transform="translate(6, 6) translate(8.078125, 14)" style="cursor:default;font-size:12px;perspective-origin:0px 0px;fill:rgb(48, 48, 48);text-anchor:middle;">clk</text></g><g id="sprotty_ArchitectureBlockImpl$rvarbiter2_pic/BPortImpl$shift" class="triangle" transform="translate(0, 192)"><path d="M 0,0 L 5,2.5 L 0,5 Z" transform="translate(-1.67, -2.5)" class="sprotty-port" style="fill:rgb(48, 48, 48);stroke:rgb(48, 48, 48);"/><text class="clickable sprotty-label port" id="sprotty_ArchitectureBlockImpl$rvarbiter2_pic/BPortImpl$shift/label" transform="translate(6, 6) translate(12.3125, 14)" style="cursor:default;font-size:12px;perspective-origin:0px 0px;fill:rgb(48, 48, 48);text-anchor:middle;">shift</text></g><g id="sprotty_ArchitectureBlockImpl$rvarbiter2_pic/BPortImpl$ready" class="triangle" transform="translate(0, 125)"><path d="M 0,0 L 5,2.5 L 0,5 Z" transform="translate(-1.67, -2.5)" class="sprotty-port" style="fill:rgb(48, 48, 48);stroke:rgb(48, 48, 48);"/><text class="clickable sprotty-label port" id="sprotty_ArchitectureBlockImpl$rvarbiter2_pic/BPortImpl$ready/label" transform="translate(6, 6) translate(15.734375, 14)" style="cursor:default;font-size:12px;perspective-origin:0px 0px;fill:rgb(48, 48, 48);text-anchor:middle;">ready</text></g><g id="sprotty_ArchitectureBlockImpl$rvarbiter2_pic/BPortImpl$tid" class="triangle" transform="translate(389.015625, 50)"><path d="M 0,0 L 5,2.5 L 0,5 Z" transform="translate(-1.67, -2.5)" class="sprotty-port" style="fill:rgb(48, 48, 48);stroke:rgb(48, 48, 48);"/><text class="clickable sprotty-label port" id="sprotty_ArchitectureBlockImpl$rvarbiter2_pic/BPortImpl$tid/label" transform="translate(-21.28125, 6) translate(7.640625, 14)" style="cursor:default;font-size:12px;perspective-origin:0px 0px;fill:rgb(48, 48, 48);text-anchor:middle;">tid</text></g><g id="sprotty_ArchitectureBlockImpl$rvarbiter2_pic/BPortImpl$favor" class="triangle" transform="translate(389.015625, 218)"><path d="M 0,0 L 5,2.5 L 0,5 Z" transform="translate(-1.67, -2.5)" class="sprotty-port" style="fill:rgb(48, 48, 48);stroke:rgb(48, 48, 48);"/><text class="clickable sprotty-label port" id="sprotty_ArchitectureBlockImpl$rvarbiter2_pic/BPortImpl$favor/label" transform="translate(-34.578125, 6) translate(14.28125, 14)" style="cursor:default;font-size:12px;perspective-origin:0px 0px;fill:rgb(48, 48, 48);text-anchor:middle;">favor</text></g></g></g></svg>