<svg xmlns="http://www.w3.org/2000/svg" id="sprotty_work.eh2_ifu_predecode_ctl" class="sprotty-graph sprotty-block-diagram blockdiagram" style="font-family:&quot;Noto Sans&quot;, Helvetica, Arial, sans-serif;perspective-origin:0px 0px;transform-origin:0px 0px;" version="1.1" viewBox="7 7 211.3125 334" width="211.3125" height="334"><g transform="scale(1) translate(0,0)"><g id="sprotty_ArchitectureBlockImpl$eh2_ifu_predecode_ctl" class="architecture" transform="translate(12, 12)"><g class="sprotty-block" style="fill:rgb(255, 255, 255);stroke:rgb(48, 48, 48);stroke-dasharray:0px;"><rect x="0" y="0" rx="1" ry="1" width="201.3125" height="324"/><text x="100.65625" y="12" class="sprotty-block-name" style="cursor:pointer;font-weight:700;perspective-origin:100.656px 0px;fill:rgb(48, 48, 48);stroke:rgba(0, 0, 0, 0);dominant-baseline:middle;text-anchor:middle;">eh2_ifu_predecode_ctl</text><line x1="0" y1="20" x2="201.3125" y2="20"/></g><g id="sprotty_ArchitectureBlockImpl$eh2_ifu_predecode_ctl/AssignmentBlockImpl$predecode.lsu/GPortImpl$predecodeOUT_to_ArchitectureBlockImpl$eh2_ifu_predecode_ctl/BPortImpl$predecode" class="sprotty-edge thick edge" style="fill:none;stroke:rgb(112, 112, 112);stroke-linejoin:round;stroke-width:3px;"><g><path d="M 100.40625 298 L 108.40625 298 C 109.40625 298 110.40625 297 110.40625 296 L 110.40625 174 C 110.40625 173 111.40625 172 112.40625 172 L 201.3125 172 "/><path d="M 100.40625 298 L 108.40625 298 C 109.40625 298 110.40625 297 110.40625 296 L 110.40625 174 C 110.40625 173 111.40625 172 112.40625 172 L 201.3125 172 " class="clickable"/></g></g><g id="sprotty_ArchitectureBlockImpl$eh2_ifu_predecode_ctl/AssignmentBlockImpl$predecode.mul/GPortImpl$predecodeOUT_to_ArchitectureBlockImpl$eh2_ifu_predecode_ctl/BPortImpl$predecode" class="sprotty-edge thick edge" style="fill:none;stroke:rgb(112, 112, 112);stroke-linejoin:round;stroke-width:3px;"><g><path d="M 100.40625 88 L 108.40625 88 C 109.40625 88 110.40625 89 110.40625 90 L 110.40625 170 C 110.40625 171 111.40625 172 112.40625 172 L 201.3125 172 "/><path d="M 100.40625 88 L 108.40625 88 C 109.40625 88 110.40625 89 110.40625 90 L 110.40625 170 C 110.40625 171 111.40625 172 112.40625 172 L 201.3125 172 " class="clickable"/></g><circle r="3" id="sprotty_ArchitectureBlockImpl$eh2_ifu_predecode_ctl/AssignmentBlockImpl$predecode.mul/GPortImpl$predecodeOUT_to_ArchitectureBlockImpl$eh2_ifu_predecode_ctl/BPortImpl$predecode/junction0" transform="translate(110.40625, 88)" class="sprotty-junction thick" style="fill:rgb(112, 112, 112);stroke:none;"/></g><g id="sprotty_ArchitectureBlockImpl$eh2_ifu_predecode_ctl/AssignmentBlockImpl$predecode.i0_only/GPortImpl$predecodeOUT_to_ArchitectureBlockImpl$eh2_ifu_predecode_ctl/BPortImpl$predecode" class="sprotty-edge thick edge" style="fill:none;stroke:rgb(112, 112, 112);stroke-linejoin:round;stroke-width:3px;"><g><path d="M 100.40625 46 L 108.40625 46 C 109.40625 46 110.40625 47 110.40625 48 L 110.40625 170 C 110.40625 171 111.40625 172 112.40625 172 L 201.3125 172 "/><path d="M 100.40625 46 L 108.40625 46 C 109.40625 46 110.40625 47 110.40625 48 L 110.40625 170 C 110.40625 171 111.40625 172 112.40625 172 L 201.3125 172 " class="clickable"/></g><circle r="3" id="sprotty_ArchitectureBlockImpl$eh2_ifu_predecode_ctl/AssignmentBlockImpl$predecode.i0_only/GPortImpl$predecodeOUT_to_ArchitectureBlockImpl$eh2_ifu_predecode_ctl/BPortImpl$predecode/junction0" transform="translate(110.40625, 172)" class="sprotty-junction thick" style="fill:rgb(112, 112, 112);stroke:none;"/></g><g id="sprotty_ArchitectureBlockImpl$eh2_ifu_predecode_ctl/AssignmentBlockImpl$predecode.legal1/GPortImpl$predecodeOUT_to_ArchitectureBlockImpl$eh2_ifu_predecode_ctl/BPortImpl$predecode" class="sprotty-edge thick edge" style="fill:none;stroke:rgb(112, 112, 112);stroke-linejoin:round;stroke-width:3px;"><g><path d="M 100.40625 256 L 108.40625 256 C 109.40625 256 110.40625 255 110.40625 254 L 110.40625 174 C 110.40625 173 111.40625 172 112.40625 172 L 201.3125 172 "/><path d="M 100.40625 256 L 108.40625 256 C 109.40625 256 110.40625 255 110.40625 254 L 110.40625 174 C 110.40625 173 111.40625 172 112.40625 172 L 201.3125 172 " class="clickable"/></g><circle r="3" id="sprotty_ArchitectureBlockImpl$eh2_ifu_predecode_ctl/AssignmentBlockImpl$predecode.legal1/GPortImpl$predecodeOUT_to_ArchitectureBlockImpl$eh2_ifu_predecode_ctl/BPortImpl$predecode/junction0" transform="translate(110.40625, 256)" class="sprotty-junction thick" style="fill:rgb(112, 112, 112);stroke:none;"/></g><g id="sprotty_ArchitectureBlockImpl$eh2_ifu_predecode_ctl/AssignmentBlockImpl$predecode.legal2/GPortImpl$predecodeOUT_to_ArchitectureBlockImpl$eh2_ifu_predecode_ctl/BPortImpl$predecode" class="sprotty-edge thick edge" style="fill:none;stroke:rgb(112, 112, 112);stroke-linejoin:round;stroke-width:3px;"><g><path d="M 100.40625 172 L 201.3125 172 "/><path d="M 100.40625 172 L 201.3125 172 " class="clickable"/></g></g><g id="sprotty_ArchitectureBlockImpl$eh2_ifu_predecode_ctl/AssignmentBlockImpl$predecode.legal3/GPortImpl$predecodeOUT_to_ArchitectureBlockImpl$eh2_ifu_predecode_ctl/BPortImpl$predecode" class="sprotty-edge thick edge" style="fill:none;stroke:rgb(112, 112, 112);stroke-linejoin:round;stroke-width:3px;"><g><path d="M 100.40625 130 L 108.40625 130 C 109.40625 130 110.40625 131 110.40625 132 L 110.40625 170 C 110.40625 171 111.40625 172 112.40625 172 L 201.3125 172 "/><path d="M 100.40625 130 L 108.40625 130 C 109.40625 130 110.40625 131 110.40625 132 L 110.40625 170 C 110.40625 171 111.40625 172 112.40625 172 L 201.3125 172 " class="clickable"/></g><circle r="3" id="sprotty_ArchitectureBlockImpl$eh2_ifu_predecode_ctl/AssignmentBlockImpl$predecode.legal3/GPortImpl$predecodeOUT_to_ArchitectureBlockImpl$eh2_ifu_predecode_ctl/BPortImpl$predecode/junction0" transform="translate(110.40625, 130)" class="sprotty-junction thick" style="fill:rgb(112, 112, 112);stroke:none;"/></g><g id="sprotty_ArchitectureBlockImpl$eh2_ifu_predecode_ctl/AssignmentBlockImpl$predecode.legal4/GPortImpl$predecodeOUT_to_ArchitectureBlockImpl$eh2_ifu_predecode_ctl/BPortImpl$predecode" class="sprotty-edge thick edge" style="fill:none;stroke:rgb(112, 112, 112);stroke-linejoin:round;stroke-width:3px;"><g><path d="M 100.40625 214 L 108.40625 214 C 109.40625 214 110.40625 213 110.40625 212 L 110.40625 174 C 110.40625 173 111.40625 172 112.40625 172 L 201.3125 172 "/><path d="M 100.40625 214 L 108.40625 214 C 109.40625 214 110.40625 213 110.40625 212 L 110.40625 174 C 110.40625 173 111.40625 172 112.40625 172 L 201.3125 172 " class="clickable"/></g><circle r="3" id="sprotty_ArchitectureBlockImpl$eh2_ifu_predecode_ctl/AssignmentBlockImpl$predecode.legal4/GPortImpl$predecodeOUT_to_ArchitectureBlockImpl$eh2_ifu_predecode_ctl/BPortImpl$predecode/junction0" transform="translate(110.40625, 214)" class="sprotty-junction thick" style="fill:rgb(112, 112, 112);stroke:none;"/></g><g id="sprotty_ArchitectureBlockImpl$eh2_ifu_predecode_ctl/BPortImpl$inst_to_ArchitectureBlockImpl$eh2_ifu_predecode_ctl/AssignmentBlockImpl$i/GPortImpl$instIN" class="sprotty-edge thick edge" style="fill:none;stroke:rgb(112, 112, 112);stroke-linejoin:round;stroke-width:3px;"><g><path d="M 0 46 L 41.53125 46 "/><path d="M 0 46 L 41.53125 46 " class="clickable"/></g></g><g id="sprotty_ArchitectureBlockImpl$eh2_ifu_predecode_ctl/AssignmentBlockImpl$i/GPortImpl$iOUT_to_ArchitectureBlockImpl$eh2_ifu_predecode_ctl/AssignmentBlockImpl$predecode.lsu/GPortImpl$iIN" class="sprotty-edge thick edge" style="fill:none;stroke:rgb(112, 112, 112);stroke-linejoin:round;stroke-width:3px;"><g><path d="M 60.96875 46 L 68.96875 46 C 69.96875 46 70.96875 47 70.96875 48 L 70.96875 296 C 70.96875 297 71.96875 298 72.96875 298 L 80.96875 298 "/><path d="M 60.96875 46 L 68.96875 46 C 69.96875 46 70.96875 47 70.96875 48 L 70.96875 296 C 70.96875 297 71.96875 298 72.96875 298 L 80.96875 298 " class="clickable"/></g><circle r="3" id="sprotty_ArchitectureBlockImpl$eh2_ifu_predecode_ctl/AssignmentBlockImpl$i/GPortImpl$iOUT_to_ArchitectureBlockImpl$eh2_ifu_predecode_ctl/AssignmentBlockImpl$predecode.lsu/GPortImpl$iIN/junction0" transform="translate(70.96875, 46)" class="sprotty-junction thick" style="fill:rgb(112, 112, 112);stroke:none;"/></g><g id="sprotty_ArchitectureBlockImpl$eh2_ifu_predecode_ctl/AssignmentBlockImpl$i/GPortImpl$iOUT_to_ArchitectureBlockImpl$eh2_ifu_predecode_ctl/AssignmentBlockImpl$predecode.mul/GPortImpl$iIN" class="sprotty-edge thick edge" style="fill:none;stroke:rgb(112, 112, 112);stroke-linejoin:round;stroke-width:3px;"><g><path d="M 60.96875 46 L 68.96875 46 C 69.96875 46 70.96875 47 70.96875 48 L 70.96875 86 C 70.96875 87 71.96875 88 72.96875 88 L 80.96875 88 "/><path d="M 60.96875 46 L 68.96875 46 C 69.96875 46 70.96875 47 70.96875 48 L 70.96875 86 C 70.96875 87 71.96875 88 72.96875 88 L 80.96875 88 " class="clickable"/></g><circle r="3" id="sprotty_ArchitectureBlockImpl$eh2_ifu_predecode_ctl/AssignmentBlockImpl$i/GPortImpl$iOUT_to_ArchitectureBlockImpl$eh2_ifu_predecode_ctl/AssignmentBlockImpl$predecode.mul/GPortImpl$iIN/junction0" transform="translate(70.96875, 88)" class="sprotty-junction thick" style="fill:rgb(112, 112, 112);stroke:none;"/></g><g id="sprotty_ArchitectureBlockImpl$eh2_ifu_predecode_ctl/AssignmentBlockImpl$i/GPortImpl$iOUT_to_ArchitectureBlockImpl$eh2_ifu_predecode_ctl/AssignmentBlockImpl$predecode.i0_only/GPortImpl$iIN" class="sprotty-edge thick edge" style="fill:none;stroke:rgb(112, 112, 112);stroke-linejoin:round;stroke-width:3px;"><g><path d="M 60.96875 46 L 80.96875 46 "/><path d="M 60.96875 46 L 80.96875 46 " class="clickable"/></g></g><g id="sprotty_ArchitectureBlockImpl$eh2_ifu_predecode_ctl/AssignmentBlockImpl$i/GPortImpl$iOUT_to_ArchitectureBlockImpl$eh2_ifu_predecode_ctl/AssignmentBlockImpl$predecode.legal1/GPortImpl$iIN" class="sprotty-edge thick edge" style="fill:none;stroke:rgb(112, 112, 112);stroke-linejoin:round;stroke-width:3px;"><g><path d="M 60.96875 46 L 68.96875 46 C 69.96875 46 70.96875 47 70.96875 48 L 70.96875 254 C 70.96875 255 71.96875 256 72.96875 256 L 80.96875 256 "/><path d="M 60.96875 46 L 68.96875 46 C 69.96875 46 70.96875 47 70.96875 48 L 70.96875 254 C 70.96875 255 71.96875 256 72.96875 256 L 80.96875 256 " class="clickable"/></g><circle r="3" id="sprotty_ArchitectureBlockImpl$eh2_ifu_predecode_ctl/AssignmentBlockImpl$i/GPortImpl$iOUT_to_ArchitectureBlockImpl$eh2_ifu_predecode_ctl/AssignmentBlockImpl$predecode.legal1/GPortImpl$iIN/junction0" transform="translate(70.96875, 256)" class="sprotty-junction thick" style="fill:rgb(112, 112, 112);stroke:none;"/></g><g id="sprotty_ArchitectureBlockImpl$eh2_ifu_predecode_ctl/AssignmentBlockImpl$i/GPortImpl$iOUT_to_ArchitectureBlockImpl$eh2_ifu_predecode_ctl/AssignmentBlockImpl$predecode.legal2/GPortImpl$iIN" class="sprotty-edge thick edge" style="fill:none;stroke:rgb(112, 112, 112);stroke-linejoin:round;stroke-width:3px;"><g><path d="M 60.96875 46 L 68.96875 46 C 69.96875 46 70.96875 47 70.96875 48 L 70.96875 170 C 70.96875 171 71.96875 172 72.96875 172 L 80.96875 172 "/><path d="M 60.96875 46 L 68.96875 46 C 69.96875 46 70.96875 47 70.96875 48 L 70.96875 170 C 70.96875 171 71.96875 172 72.96875 172 L 80.96875 172 " class="clickable"/></g><circle r="3" id="sprotty_ArchitectureBlockImpl$eh2_ifu_predecode_ctl/AssignmentBlockImpl$i/GPortImpl$iOUT_to_ArchitectureBlockImpl$eh2_ifu_predecode_ctl/AssignmentBlockImpl$predecode.legal2/GPortImpl$iIN/junction0" transform="translate(70.96875, 172)" class="sprotty-junction thick" style="fill:rgb(112, 112, 112);stroke:none;"/></g><g id="sprotty_ArchitectureBlockImpl$eh2_ifu_predecode_ctl/AssignmentBlockImpl$i/GPortImpl$iOUT_to_ArchitectureBlockImpl$eh2_ifu_predecode_ctl/AssignmentBlockImpl$predecode.legal3/GPortImpl$iIN" class="sprotty-edge thick edge" style="fill:none;stroke:rgb(112, 112, 112);stroke-linejoin:round;stroke-width:3px;"><g><path d="M 60.96875 46 L 68.96875 46 C 69.96875 46 70.96875 47 70.96875 48 L 70.96875 128 C 70.96875 129 71.96875 130 72.96875 130 L 80.96875 130 "/><path d="M 60.96875 46 L 68.96875 46 C 69.96875 46 70.96875 47 70.96875 48 L 70.96875 128 C 70.96875 129 71.96875 130 72.96875 130 L 80.96875 130 " class="clickable"/></g><circle r="3" id="sprotty_ArchitectureBlockImpl$eh2_ifu_predecode_ctl/AssignmentBlockImpl$i/GPortImpl$iOUT_to_ArchitectureBlockImpl$eh2_ifu_predecode_ctl/AssignmentBlockImpl$predecode.legal3/GPortImpl$iIN/junction0" transform="translate(70.96875, 130)" class="sprotty-junction thick" style="fill:rgb(112, 112, 112);stroke:none;"/></g><g id="sprotty_ArchitectureBlockImpl$eh2_ifu_predecode_ctl/AssignmentBlockImpl$i/GPortImpl$iOUT_to_ArchitectureBlockImpl$eh2_ifu_predecode_ctl/AssignmentBlockImpl$predecode.legal4/GPortImpl$iIN" class="sprotty-edge thick edge" style="fill:none;stroke:rgb(112, 112, 112);stroke-linejoin:round;stroke-width:3px;"><g><path d="M 60.96875 46 L 68.96875 46 C 69.96875 46 70.96875 47 70.96875 48 L 70.96875 212 C 70.96875 213 71.96875 214 72.96875 214 L 80.96875 214 "/><path d="M 60.96875 46 L 68.96875 46 C 69.96875 46 70.96875 47 70.96875 48 L 70.96875 212 C 70.96875 213 71.96875 214 72.96875 214 L 80.96875 214 " class="clickable"/></g><circle r="3" id="sprotty_ArchitectureBlockImpl$eh2_ifu_predecode_ctl/AssignmentBlockImpl$i/GPortImpl$iOUT_to_ArchitectureBlockImpl$eh2_ifu_predecode_ctl/AssignmentBlockImpl$predecode.legal4/GPortImpl$iIN/junction0" transform="translate(70.96875, 214)" class="sprotty-junction thick" style="fill:rgb(112, 112, 112);stroke:none;"/></g><g id="sprotty_ArchitectureBlockImpl$eh2_ifu_predecode_ctl/AssignmentBlockImpl$predecode.legal4" class="statement" transform="translate(80.96875, 203)"><rect x="0" y="0" rx="10" ry="5" width="19.4375" height="22" class="sprotty-node" style="fill:rgb(245, 245, 245);stroke:rgb(112, 112, 112);"/><text class="clickable sprotty-label statementtype" id="sprotty_ArchitectureBlockImpl$eh2_ifu_predecode_ctl/AssignmentBlockImpl$predecode.legal4/labeltype" transform="translate(5, 5) translate(4.71875, 9)" style="cursor:default;font-size:8px;font-weight:700;perspective-origin:0px 0px;fill:rgb(112, 112, 112);text-anchor:middle;">&lt;=</text><g id="sprotty_ArchitectureBlockImpl$eh2_ifu_predecode_ctl/AssignmentBlockImpl$predecode.legal4/GPortImpl$iIN" class="sprotty-hidden hidden" transform="translate(0, 11)" style="display:block;height:0px;width:0px;"/><g id="sprotty_ArchitectureBlockImpl$eh2_ifu_predecode_ctl/AssignmentBlockImpl$predecode.legal4/GPortImpl$predecodeOUT" class="sprotty-hidden hidden" transform="translate(19.4375, 11)" style="display:block;height:0px;width:0px;"/></g><g id="sprotty_ArchitectureBlockImpl$eh2_ifu_predecode_ctl/AssignmentBlockImpl$predecode.legal3" class="statement" transform="translate(80.96875, 119)"><rect x="0" y="0" rx="10" ry="5" width="19.4375" height="22" class="sprotty-node" style="fill:rgb(245, 245, 245);stroke:rgb(112, 112, 112);"/><text class="clickable sprotty-label statementtype" id="sprotty_ArchitectureBlockImpl$eh2_ifu_predecode_ctl/AssignmentBlockImpl$predecode.legal3/labeltype" transform="translate(5, 5) translate(4.71875, 9)" style="cursor:default;font-size:8px;font-weight:700;perspective-origin:0px 0px;fill:rgb(112, 112, 112);text-anchor:middle;">&lt;=</text><g id="sprotty_ArchitectureBlockImpl$eh2_ifu_predecode_ctl/AssignmentBlockImpl$predecode.legal3/GPortImpl$iIN" class="sprotty-hidden hidden" transform="translate(0, 11)" style="display:block;height:0px;width:0px;"/><g id="sprotty_ArchitectureBlockImpl$eh2_ifu_predecode_ctl/AssignmentBlockImpl$predecode.legal3/GPortImpl$predecodeOUT" class="sprotty-hidden hidden" transform="translate(19.4375, 11)" style="display:block;height:0px;width:0px;"/></g><g id="sprotty_ArchitectureBlockImpl$eh2_ifu_predecode_ctl/AssignmentBlockImpl$predecode.legal2" class="statement" transform="translate(80.96875, 161)"><rect x="0" y="0" rx="10" ry="5" width="19.4375" height="22" class="sprotty-node" style="fill:rgb(245, 245, 245);stroke:rgb(112, 112, 112);"/><text class="clickable sprotty-label statementtype" id="sprotty_ArchitectureBlockImpl$eh2_ifu_predecode_ctl/AssignmentBlockImpl$predecode.legal2/labeltype" transform="translate(5, 5) translate(4.71875, 9)" style="cursor:default;font-size:8px;font-weight:700;perspective-origin:0px 0px;fill:rgb(112, 112, 112);text-anchor:middle;">&lt;=</text><g id="sprotty_ArchitectureBlockImpl$eh2_ifu_predecode_ctl/AssignmentBlockImpl$predecode.legal2/GPortImpl$iIN" class="sprotty-hidden hidden" transform="translate(0, 11)" style="display:block;height:0px;width:0px;"/><g id="sprotty_ArchitectureBlockImpl$eh2_ifu_predecode_ctl/AssignmentBlockImpl$predecode.legal2/GPortImpl$predecodeOUT" class="sprotty-hidden hidden" transform="translate(19.4375, 11)" style="display:block;height:0px;width:0px;"/></g><g id="sprotty_ArchitectureBlockImpl$eh2_ifu_predecode_ctl/AssignmentBlockImpl$predecode.legal1" class="statement" transform="translate(80.96875, 245)"><rect x="0" y="0" rx="10" ry="5" width="19.4375" height="22" class="sprotty-node" style="fill:rgb(245, 245, 245);stroke:rgb(112, 112, 112);"/><text class="clickable sprotty-label statementtype" id="sprotty_ArchitectureBlockImpl$eh2_ifu_predecode_ctl/AssignmentBlockImpl$predecode.legal1/labeltype" transform="translate(5, 5) translate(4.71875, 9)" style="cursor:default;font-size:8px;font-weight:700;perspective-origin:0px 0px;fill:rgb(112, 112, 112);text-anchor:middle;">&lt;=</text><g id="sprotty_ArchitectureBlockImpl$eh2_ifu_predecode_ctl/AssignmentBlockImpl$predecode.legal1/GPortImpl$iIN" class="sprotty-hidden hidden" transform="translate(0, 11)" style="display:block;height:0px;width:0px;"/><g id="sprotty_ArchitectureBlockImpl$eh2_ifu_predecode_ctl/AssignmentBlockImpl$predecode.legal1/GPortImpl$predecodeOUT" class="sprotty-hidden hidden" transform="translate(19.4375, 11)" style="display:block;height:0px;width:0px;"/></g><g id="sprotty_ArchitectureBlockImpl$eh2_ifu_predecode_ctl/AssignmentBlockImpl$predecode.i0_only" class="statement" transform="translate(80.96875, 35)"><rect x="0" y="0" rx="10" ry="5" width="19.4375" height="22" class="sprotty-node" style="fill:rgb(245, 245, 245);stroke:rgb(112, 112, 112);"/><text class="clickable sprotty-label statementtype" id="sprotty_ArchitectureBlockImpl$eh2_ifu_predecode_ctl/AssignmentBlockImpl$predecode.i0_only/labeltype" transform="translate(5, 5) translate(4.71875, 9)" style="cursor:default;font-size:8px;font-weight:700;perspective-origin:0px 0px;fill:rgb(112, 112, 112);text-anchor:middle;">&lt;=</text><g id="sprotty_ArchitectureBlockImpl$eh2_ifu_predecode_ctl/AssignmentBlockImpl$predecode.i0_only/GPortImpl$iIN" class="sprotty-hidden hidden" transform="translate(0, 11)" style="display:block;height:0px;width:0px;"/><g id="sprotty_ArchitectureBlockImpl$eh2_ifu_predecode_ctl/AssignmentBlockImpl$predecode.i0_only/GPortImpl$predecodeOUT" class="sprotty-hidden hidden" transform="translate(19.4375, 11)" style="display:block;height:0px;width:0px;"/></g><g id="sprotty_ArchitectureBlockImpl$eh2_ifu_predecode_ctl/AssignmentBlockImpl$predecode.mul" class="statement" transform="translate(80.96875, 77)"><rect x="0" y="0" rx="10" ry="5" width="19.4375" height="22" class="sprotty-node" style="fill:rgb(245, 245, 245);stroke:rgb(112, 112, 112);"/><text class="clickable sprotty-label statementtype" id="sprotty_ArchitectureBlockImpl$eh2_ifu_predecode_ctl/AssignmentBlockImpl$predecode.mul/labeltype" transform="translate(5, 5) translate(4.71875, 9)" style="cursor:default;font-size:8px;font-weight:700;perspective-origin:0px 0px;fill:rgb(112, 112, 112);text-anchor:middle;">&lt;=</text><g id="sprotty_ArchitectureBlockImpl$eh2_ifu_predecode_ctl/AssignmentBlockImpl$predecode.mul/GPortImpl$iIN" class="sprotty-hidden hidden" transform="translate(0, 11)" style="display:block;height:0px;width:0px;"/><g id="sprotty_ArchitectureBlockImpl$eh2_ifu_predecode_ctl/AssignmentBlockImpl$predecode.mul/GPortImpl$predecodeOUT" class="sprotty-hidden hidden" transform="translate(19.4375, 11)" style="display:block;height:0px;width:0px;"/></g><g id="sprotty_ArchitectureBlockImpl$eh2_ifu_predecode_ctl/AssignmentBlockImpl$predecode.lsu" class="statement" transform="translate(80.96875, 287)"><rect x="0" y="0" rx="10" ry="5" width="19.4375" height="22" class="sprotty-node" style="fill:rgb(245, 245, 245);stroke:rgb(112, 112, 112);"/><text class="clickable sprotty-label statementtype" id="sprotty_ArchitectureBlockImpl$eh2_ifu_predecode_ctl/AssignmentBlockImpl$predecode.lsu/labeltype" transform="translate(5, 5) translate(4.71875, 9)" style="cursor:default;font-size:8px;font-weight:700;perspective-origin:0px 0px;fill:rgb(112, 112, 112);text-anchor:middle;">&lt;=</text><g id="sprotty_ArchitectureBlockImpl$eh2_ifu_predecode_ctl/AssignmentBlockImpl$predecode.lsu/GPortImpl$iIN" class="sprotty-hidden hidden" transform="translate(0, 11)" style="display:block;height:0px;width:0px;"/><g id="sprotty_ArchitectureBlockImpl$eh2_ifu_predecode_ctl/AssignmentBlockImpl$predecode.lsu/GPortImpl$predecodeOUT" class="sprotty-hidden hidden" transform="translate(19.4375, 11)" style="display:block;height:0px;width:0px;"/></g><g id="sprotty_ArchitectureBlockImpl$eh2_ifu_predecode_ctl/AssignmentBlockImpl$i" class="statement" transform="translate(41.53125, 35)"><rect x="0" y="0" rx="10" ry="5" width="19.4375" height="22" class="sprotty-node" style="fill:rgb(245, 245, 245);stroke:rgb(112, 112, 112);"/><text class="clickable sprotty-label statementtype" id="sprotty_ArchitectureBlockImpl$eh2_ifu_predecode_ctl/AssignmentBlockImpl$i/labeltype" transform="translate(5, 5) translate(4.71875, 9)" style="cursor:default;font-size:8px;font-weight:700;perspective-origin:0px 0px;fill:rgb(112, 112, 112);text-anchor:middle;">&lt;=</text><g id="sprotty_ArchitectureBlockImpl$eh2_ifu_predecode_ctl/AssignmentBlockImpl$i/GPortImpl$instIN" class="sprotty-hidden hidden" transform="translate(0, 11)" style="display:block;height:0px;width:0px;"/><g id="sprotty_ArchitectureBlockImpl$eh2_ifu_predecode_ctl/AssignmentBlockImpl$i/GPortImpl$iOUT" class="sprotty-hidden hidden" transform="translate(19.4375, 11)" style="display:block;height:0px;width:0px;"/></g><g id="sprotty_ArchitectureBlockImpl$eh2_ifu_predecode_ctl/BPortImpl$inst" class="triangle" transform="translate(0, 46)"><path d="M 0,0 L 5,2.5 L 0,5 Z" transform="translate(-1.67, -2.5)" class="sprotty-port" style="fill:rgb(48, 48, 48);stroke:rgb(48, 48, 48);"/><text class="clickable sprotty-label port" id="sprotty_ArchitectureBlockImpl$eh2_ifu_predecode_ctl/BPortImpl$inst/label" transform="translate(6, 6) translate(10.265625, 14)" style="cursor:default;font-size:12px;perspective-origin:0px 0px;fill:rgb(48, 48, 48);text-anchor:middle;">inst</text></g><g id="sprotty_ArchitectureBlockImpl$eh2_ifu_predecode_ctl/BPortImpl$predecode" class="triangle" transform="translate(201.3125, 172)"><path d="M 0,0 L 5,2.5 L 0,5 Z" transform="translate(-1.67, -2.5)" class="sprotty-port" style="fill:rgb(48, 48, 48);stroke:rgb(48, 48, 48);"/><text class="clickable sprotty-label port" id="sprotty_ArchitectureBlockImpl$eh2_ifu_predecode_ctl/BPortImpl$predecode/label" transform="translate(-65.90625, 6) translate(29.953125, 14)" style="cursor:default;font-size:12px;perspective-origin:0px 0px;fill:rgb(48, 48, 48);text-anchor:middle;">predecode</text></g></g></g></svg>