<svg xmlns="http://www.w3.org/2000/svg" id="sprotty_work.rvdffie" class="sprotty-graph sprotty-block-diagram blockdiagram" style="font-family:&quot;Noto Sans&quot;, Helvetica, Arial, sans-serif;perspective-origin:0px 0px;transform-origin:0px 0px;" version="1.1" viewBox="7 7 525.546875 245" width="525.546875" height="245"><g transform="scale(1) translate(0,0)"><g id="sprotty_ArchitectureBlockImpl$rvdffie" class="architecture" transform="translate(12, 12)"><g class="sprotty-block" style="fill:rgb(255, 255, 255);stroke:rgb(48, 48, 48);stroke-dasharray:0px;"><rect x="0" y="0" rx="1" ry="1" width="515.546875" height="235"/><text x="257.7734375" y="12" class="sprotty-block-name" style="cursor:pointer;font-weight:700;perspective-origin:257.766px 0px;fill:rgb(48, 48, 48);stroke:rgba(0, 0, 0, 0);dominant-baseline:middle;text-anchor:middle;">rvdffie</text><line x1="0" y1="20" x2="515.546875" y2="20"/></g><g id="sprotty_ArchitectureBlockImpl$rvdffie/GenerateStatementBlockImpl$null5/GPortImpl$dout_to_ArchitectureBlockImpl$rvdffie/BPortImpl$dout" class="sprotty-edge thick edge" style="fill:none;stroke:rgb(112, 112, 112);stroke-linejoin:round;stroke-width:3px;"><g><path d="M 468.015625 51 L 515.546875 51 "/><path d="M 468.015625 51 L 515.546875 51 " class="clickable"/></g></g><g id="sprotty_ArchitectureBlockImpl$rvdffie/BPortImpl$clk_to_ArchitectureBlockImpl$rvdffie/GenerateStatementBlockImpl$null5/GPortImpl$clk" class="sprotty-edge edge" style="fill:none;stroke:rgb(112, 112, 112);stroke-linejoin:round;"><g><path d="M 0 128 L 93.875 128 C 94.875 128 95.875 129 95.875 130 L 95.875 137 C 95.875 138 96.875 139 97.875 139 L 105.875 139 "/><path d="M 0 128 L 93.875 128 C 94.875 128 95.875 129 95.875 130 L 95.875 137 C 95.875 138 96.875 139 97.875 139 L 105.875 139 " class="clickable"/></g></g><g id="sprotty_ArchitectureBlockImpl$rvdffie/BPortImpl$scan_mode_to_ArchitectureBlockImpl$rvdffie/GenerateStatementBlockImpl$null5/GPortImpl$scan_mode" class="sprotty-edge edge" style="fill:none;stroke:rgb(112, 112, 112);stroke-linejoin:round;"><g><path d="M 0 162 L 93.875 162 C 94.875 162 95.875 163 95.875 164 L 95.875 165 C 95.875 166 96.875 167 97.875 167 L 105.875 167 "/><path d="M 0 162 L 93.875 162 C 94.875 162 95.875 163 95.875 164 L 95.875 165 C 95.875 166 96.875 167 97.875 167 L 105.875 167 " class="clickable"/></g></g><g id="sprotty_ArchitectureBlockImpl$rvdffie/BPortImpl$din_to_ArchitectureBlockImpl$rvdffie/GenerateStatementBlockImpl$null5/GPortImpl$din" class="sprotty-edge thick edge" style="fill:none;stroke:rgb(112, 112, 112);stroke-linejoin:round;stroke-width:3px;"><g><path d="M 0 61 L 105.875 61 "/><path d="M 0 61 L 105.875 61 " class="clickable"/></g></g><g id="sprotty_ArchitectureBlockImpl$rvdffie/BPortImpl$rst_l_to_ArchitectureBlockImpl$rvdffie/GenerateStatementBlockImpl$null5/GPortImpl$rst_l" class="sprotty-edge edge" style="fill:none;stroke:rgb(112, 112, 112);stroke-linejoin:round;"><g><path d="M 0 196 L 105.875 196 "/><path d="M 0 196 L 105.875 196 " class="clickable"/></g></g><g id="sprotty_ArchitectureBlockImpl$rvdffie/BPortImpl$dout_to_ArchitectureBlockImpl$rvdffie/GenerateStatementBlockImpl$null5/GPortImpl$dout" class="sprotty-edge thick edge" style="fill:none;stroke:rgb(112, 112, 112);stroke-linejoin:round;stroke-width:3px;"><g><path d="M 515.546875 51 L 468.015625 51 "/><path d="M 515.546875 51 L 468.015625 51 " class="clickable"/></g></g><g id="sprotty_ArchitectureBlockImpl$rvdffie/GenerateStatementBlockImpl$null5" class="generate" transform="translate(105.875, 35)"><g class="sprotty-block sprotty-block-generate" style="fill:rgb(255, 255, 255);stroke:rgb(48, 48, 48);stroke-dasharray:0px;"><rect x="0" y="0" rx="1" ry="1" width="362.140625" height="178" style="stroke-dasharray:3px, 1px;"/><text x="181.0703125" y="12" class="sprotty-block-name" style="cursor:pointer;font-weight:700;fill:rgb(48, 48, 48);stroke:rgba(0, 0, 0, 0);dominant-baseline:middle;text-anchor:middle;"/></g><g id="sprotty_ArchitectureBlockImpl$rvdffie/GenerateStatementBlockImpl$null5/InstantiationBlockImpl$dff/BPortImpl$dout_to_ArchitectureBlockImpl$rvdffie/GenerateStatementBlockImpl$null5/GPortImpl$dout" class="sprotty-edge thick edge" style="fill:none;stroke:rgb(112, 112, 112);stroke-linejoin:round;stroke-width:3px;"><g><path d="M 327.140625 104 L 335.140625 104 C 336.140625 104 337.140625 103 337.140625 102 L 337.140625 18 C 337.140625 17 338.140625 16 339.140625 16 L 362.140625 16 "/><path d="M 327.140625 104 L 335.140625 104 C 336.140625 104 337.140625 103 337.140625 102 L 337.140625 18 C 337.140625 17 338.140625 16 339.140625 16 L 362.140625 16 " class="clickable"/></g><circle r="3" id="sprotty_ArchitectureBlockImpl$rvdffie/GenerateStatementBlockImpl$null5/InstantiationBlockImpl$dff/BPortImpl$dout_to_ArchitectureBlockImpl$rvdffie/GenerateStatementBlockImpl$null5/GPortImpl$dout/junction0" transform="translate(337.140625, 16)" class="sprotty-junction thick" style="fill:rgb(112, 112, 112);stroke:none;"/></g><g id="sprotty_ArchitectureBlockImpl$rvdffie/GenerateStatementBlockImpl$null5/GPortImpl$clk_to_ArchitectureBlockImpl$rvdffie/GenerateStatementBlockImpl$null5/InstantiationBlockImpl$clkhdr/BPortImpl$clk" class="sprotty-edge edge" style="fill:none;stroke:rgb(112, 112, 112);stroke-linejoin:round;"><g><path d="M 0 104 L 84.4375 104 "/><path d="M 0 104 L 84.4375 104 " class="clickable"/></g></g><g id="sprotty_ArchitectureBlockImpl$rvdffie/GenerateStatementBlockImpl$null5/GPortImpl$scan_mode_to_ArchitectureBlockImpl$rvdffie/GenerateStatementBlockImpl$null5/InstantiationBlockImpl$clkhdr/BPortImpl$scan_mode" class="sprotty-edge edge" style="fill:none;stroke:rgb(112, 112, 112);stroke-linejoin:round;"><g><path d="M 0 132 L 84.4375 132 "/><path d="M 0 132 L 84.4375 132 " class="clickable"/></g></g><g id="sprotty_ArchitectureBlockImpl$rvdffie/GenerateStatementBlockImpl$null5/GPortImpl$din_to_ArchitectureBlockImpl$rvdffie/GenerateStatementBlockImpl$null5/InstantiationBlockImpl$dff/BPortImpl$din" class="sprotty-edge thick edge" style="fill:none;stroke:rgb(112, 112, 112);stroke-linejoin:round;stroke-width:3px;"><g><path d="M 0 26 L 234.1875 26 C 235.1875 26 236.1875 27 236.1875 28 L 236.1875 74 C 236.1875 75 237.1875 76 238.1875 76 L 246.1875 76 "/><path d="M 0 26 L 234.1875 26 C 235.1875 26 236.1875 27 236.1875 28 L 236.1875 74 C 236.1875 75 237.1875 76 238.1875 76 L 246.1875 76 " class="clickable"/></g></g><g id="sprotty_ArchitectureBlockImpl$rvdffie/GenerateStatementBlockImpl$null5/GPortImpl$rst_l_to_ArchitectureBlockImpl$rvdffie/GenerateStatementBlockImpl$null5/InstantiationBlockImpl$dff/BPortImpl$rst_l" class="sprotty-edge edge" style="fill:none;stroke:rgb(112, 112, 112);stroke-linejoin:round;"><g><path d="M 0 161 L 234.1875 161 C 235.1875 161 236.1875 160 236.1875 159 L 236.1875 134 C 236.1875 133 237.1875 132 238.1875 132 L 246.1875 132 "/><path d="M 0 161 L 234.1875 161 C 235.1875 161 236.1875 160 236.1875 159 L 236.1875 134 C 236.1875 133 237.1875 132 238.1875 132 L 246.1875 132 " class="clickable"/></g></g><g id="sprotty_ArchitectureBlockImpl$rvdffie/GenerateStatementBlockImpl$null5/GPortImpl$din_to_ArchitectureBlockImpl$rvdffie/GenerateStatementBlockImpl$null5/AssignmentBlockImpl$en/GPortImpl$dinIN" class="sprotty-edge thick edge" style="fill:none;stroke:rgb(112, 112, 112);stroke-linejoin:round;stroke-width:3px;"><g><path d="M 0 26 L 23 26 C 24 26 25 27 25 28 L 25 56 C 25 57 26 58 27 58 L 45 58 "/><path d="M 0 26 L 23 26 C 24 26 25 27 25 28 L 25 56 C 25 57 26 58 27 58 L 45 58 " class="clickable"/></g><circle r="3" id="sprotty_ArchitectureBlockImpl$rvdffie/GenerateStatementBlockImpl$null5/GPortImpl$din_to_ArchitectureBlockImpl$rvdffie/GenerateStatementBlockImpl$null5/AssignmentBlockImpl$en/GPortImpl$dinIN/junction0" transform="translate(25, 26)" class="sprotty-junction thick" style="fill:rgb(112, 112, 112);stroke:none;"/></g><g id="sprotty_ArchitectureBlockImpl$rvdffie/GenerateStatementBlockImpl$null5/GPortImpl$dout_to_ArchitectureBlockImpl$rvdffie/GenerateStatementBlockImpl$null5/AssignmentBlockImpl$en/GPortImpl$doutIN" class="sprotty-edge thick edge" style="fill:none;stroke:rgb(112, 112, 112);stroke-linejoin:round;stroke-width:3px;"><g><path d="M 362.140625 16 L 37 16 C 36 16 35 17 35 18 L 35 46 C 35 47 36 48 37 48 L 45 48 "/><path d="M 362.140625 16 L 37 16 C 36 16 35 17 35 18 L 35 46 C 35 47 36 48 37 48 L 45 48 " class="clickable"/></g></g><g id="sprotty_ArchitectureBlockImpl$rvdffie/GenerateStatementBlockImpl$null5/AssignmentBlockImpl$en/GPortImpl$doutOUT_to_ArchitectureBlockImpl$rvdffie/GenerateStatementBlockImpl$null5/InstantiationBlockImpl$clkhdr/BPortImpl$en" class="sprotty-edge thick edge" style="fill:none;stroke:rgb(112, 112, 112);stroke-linejoin:round;stroke-width:3px;"><g><path d="M 64.4375 53 L 72.4375 53 C 73.4375 53 74.4375 54 74.4375 55 L 74.4375 74 C 74.4375 75 75.4375 76 76.4375 76 L 84.4375 76 "/><path d="M 64.4375 53 L 72.4375 53 C 73.4375 53 74.4375 54 74.4375 55 L 74.4375 74 C 74.4375 75 75.4375 76 76.4375 76 L 84.4375 76 " class="clickable"/></g></g><g id="sprotty_ArchitectureBlockImpl$rvdffie/GenerateStatementBlockImpl$null5/InstantiationBlockImpl$clkhdr/BPortImpl$l1clk_to_ArchitectureBlockImpl$rvdffie/GenerateStatementBlockImpl$null5/InstantiationBlockImpl$dff/BPortImpl$clk" class="sprotty-edge edge" style="fill:none;stroke:rgb(112, 112, 112);stroke-linejoin:round;"><g><path d="M 226.1875 104 L 246.1875 104 "/><path d="M 226.1875 104 L 246.1875 104 " class="clickable"/></g></g><g id="sprotty_ArchitectureBlockImpl$rvdffie/GenerateStatementBlockImpl$null5/AssignmentBlockImpl$en" class="statement" transform="translate(45, 38)"><rect x="0" y="0" rx="10" ry="5" width="19.4375" height="30" class="sprotty-node" style="fill:rgb(245, 245, 245);stroke:rgb(112, 112, 112);"/><text class="clickable sprotty-label statementtype" id="sprotty_ArchitectureBlockImpl$rvdffie/GenerateStatementBlockImpl$null5/AssignmentBlockImpl$en/labeltype" transform="translate(5, 9) translate(4.71875, 9.5)" style="cursor:default;font-size:8px;font-weight:700;perspective-origin:0px 0px;fill:rgb(112, 112, 112);text-anchor:middle;">&lt;=</text><g id="sprotty_ArchitectureBlockImpl$rvdffie/GenerateStatementBlockImpl$null5/AssignmentBlockImpl$en/GPortImpl$doutIN" class="sprotty-hidden hidden" transform="translate(0, 10)" style="display:block;height:0px;width:0px;"/><g id="sprotty_ArchitectureBlockImpl$rvdffie/GenerateStatementBlockImpl$null5/AssignmentBlockImpl$en/GPortImpl$dinIN" class="sprotty-hidden hidden" transform="translate(0, 20)" style="display:block;height:0px;width:0px;"/><g id="sprotty_ArchitectureBlockImpl$rvdffie/GenerateStatementBlockImpl$null5/AssignmentBlockImpl$en/GPortImpl$doutOUT" class="sprotty-hidden hidden" transform="translate(19.4375, 15)" style="display:block;height:0px;width:0px;"/></g><g id="sprotty_ArchitectureBlockImpl$rvdffie/GenerateStatementBlockImpl$null5/InstantiationBlockImpl$dff" class="instantiation" transform="translate(246.1875, 38)"><g class="sprotty-block" style="fill:rgb(255, 255, 255);stroke:rgb(48, 48, 48);stroke-dasharray:0px;"><rect x="0" y="0" rx="1" ry="1" width="80.953125" height="112"/><text x="40.4765625" y="12" class="sprotty-block-name" style="cursor:pointer;font-weight:700;perspective-origin:40.75px 0px;fill:rgb(48, 48, 48);stroke:rgba(0, 0, 0, 0);dominant-baseline:middle;text-anchor:middle;">dff : rvdff</text><line x1="0" y1="20" x2="80.953125" y2="20"/></g><g id="sprotty_ArchitectureBlockImpl$rvdffie/GenerateStatementBlockImpl$null5/InstantiationBlockImpl$dff/BPortImpl$rst_l" class="triangle" transform="translate(0, 94)"><path d="M 0,0 L 5,2.5 L 0,5 Z" transform="translate(-1.67, -2.5)" class="sprotty-port" style="fill:rgb(48, 48, 48);stroke:rgb(48, 48, 48);"/><text class="clickable sprotty-label port" id="sprotty_ArchitectureBlockImpl$rvdffie/GenerateStatementBlockImpl$null5/InstantiationBlockImpl$dff/BPortImpl$rst_l/label" transform="translate(6, -9) translate(12.3125, 14)" style="cursor:default;font-size:12px;perspective-origin:0px 0px;fill:rgb(48, 48, 48);text-anchor:middle;">rst_l</text></g><g id="sprotty_ArchitectureBlockImpl$rvdffie/GenerateStatementBlockImpl$null5/InstantiationBlockImpl$dff/BPortImpl$clk" class="triangle" transform="translate(0, 66)"><path d="M 0,0 L 5,2.5 L 0,5 Z" transform="translate(-1.67, -2.5)" class="sprotty-port" style="fill:rgb(48, 48, 48);stroke:rgb(48, 48, 48);"/><text class="clickable sprotty-label port" id="sprotty_ArchitectureBlockImpl$rvdffie/GenerateStatementBlockImpl$null5/InstantiationBlockImpl$dff/BPortImpl$clk/label" transform="translate(6, -9) translate(8.078125, 14)" style="cursor:default;font-size:12px;perspective-origin:0px 0px;fill:rgb(48, 48, 48);text-anchor:middle;">clk</text></g><g id="sprotty_ArchitectureBlockImpl$rvdffie/GenerateStatementBlockImpl$null5/InstantiationBlockImpl$dff/BPortImpl$din" class="triangle" transform="translate(0, 38)"><path d="M 0,0 L 5,2.5 L 0,5 Z" transform="translate(-1.67, -2.5)" class="sprotty-port" style="fill:rgb(48, 48, 48);stroke:rgb(48, 48, 48);"/><text class="clickable sprotty-label port" id="sprotty_ArchitectureBlockImpl$rvdffie/GenerateStatementBlockImpl$null5/InstantiationBlockImpl$dff/BPortImpl$din/label" transform="translate(6, -9) translate(9.046875, 14)" style="cursor:default;font-size:12px;perspective-origin:0px 0px;fill:rgb(48, 48, 48);text-anchor:middle;">din</text></g><g id="sprotty_ArchitectureBlockImpl$rvdffie/GenerateStatementBlockImpl$null5/InstantiationBlockImpl$dff/BPortImpl$dout" class="triangle" transform="translate(80.953125, 66)"><path d="M 0,0 L 5,2.5 L 0,5 Z" transform="translate(-1.67, -2.5)" class="sprotty-port" style="fill:rgb(48, 48, 48);stroke:rgb(48, 48, 48);"/><text class="clickable sprotty-label port" id="sprotty_ArchitectureBlockImpl$rvdffie/GenerateStatementBlockImpl$null5/InstantiationBlockImpl$dff/BPortImpl$dout/label" transform="translate(-32.53125, -9) translate(13.265625, 14)" style="cursor:default;font-size:12px;perspective-origin:0px 0px;fill:rgb(48, 48, 48);text-anchor:middle;">dout</text></g></g><g id="sprotty_ArchitectureBlockImpl$rvdffie/GenerateStatementBlockImpl$null5/InstantiationBlockImpl$clkhdr" class="instantiation" transform="translate(84.4375, 38)"><g class="sprotty-block" style="fill:rgb(255, 255, 255);stroke:rgb(48, 48, 48);stroke-dasharray:0px;"><rect x="0" y="0" rx="1" ry="1" width="141.75" height="112"/><text x="70.875" y="12" class="sprotty-block-name" style="cursor:pointer;font-weight:700;perspective-origin:70.8906px 0px;fill:rgb(48, 48, 48);stroke:rgba(0, 0, 0, 0);dominant-baseline:middle;text-anchor:middle;">clkhdr : rvclkhdr</text><line x1="0" y1="20" x2="141.75" y2="20"/></g><g id="sprotty_ArchitectureBlockImpl$rvdffie/GenerateStatementBlockImpl$null5/InstantiationBlockImpl$clkhdr/BPortImpl$scan_mode" class="triangle" transform="translate(0, 94)"><path d="M 0,0 L 5,2.5 L 0,5 Z" transform="translate(-1.67, -2.5)" class="sprotty-port" style="fill:rgb(48, 48, 48);stroke:rgb(48, 48, 48);"/><text class="clickable sprotty-label port" id="sprotty_ArchitectureBlockImpl$rvdffie/GenerateStatementBlockImpl$null5/InstantiationBlockImpl$clkhdr/BPortImpl$scan_mode/label" transform="translate(6, -9) translate(32.4375, 14)" style="cursor:default;font-size:12px;perspective-origin:0px 0px;fill:rgb(48, 48, 48);text-anchor:middle;">scan_mode</text></g><g id="sprotty_ArchitectureBlockImpl$rvdffie/GenerateStatementBlockImpl$null5/InstantiationBlockImpl$clkhdr/BPortImpl$clk" class="triangle" transform="translate(0, 66)"><path d="M 0,0 L 5,2.5 L 0,5 Z" transform="translate(-1.67, -2.5)" class="sprotty-port" style="fill:rgb(48, 48, 48);stroke:rgb(48, 48, 48);"/><text class="clickable sprotty-label port" id="sprotty_ArchitectureBlockImpl$rvdffie/GenerateStatementBlockImpl$null5/InstantiationBlockImpl$clkhdr/BPortImpl$clk/label" transform="translate(6, -9) translate(8.078125, 14)" style="cursor:default;font-size:12px;perspective-origin:0px 0px;fill:rgb(48, 48, 48);text-anchor:middle;">clk</text></g><g id="sprotty_ArchitectureBlockImpl$rvdffie/GenerateStatementBlockImpl$null5/InstantiationBlockImpl$clkhdr/BPortImpl$en" class="triangle" transform="translate(0, 38)"><path d="M 0,0 L 5,2.5 L 0,5 Z" transform="translate(-1.67, -2.5)" class="sprotty-port" style="fill:rgb(48, 48, 48);stroke:rgb(48, 48, 48);"/><text class="clickable sprotty-label port" id="sprotty_ArchitectureBlockImpl$rvdffie/GenerateStatementBlockImpl$null5/InstantiationBlockImpl$clkhdr/BPortImpl$en/label" transform="translate(6, -9) translate(7, 14)" style="cursor:default;font-size:12px;perspective-origin:0px 0px;fill:rgb(48, 48, 48);text-anchor:middle;">en</text></g><g id="sprotty_ArchitectureBlockImpl$rvdffie/GenerateStatementBlockImpl$null5/InstantiationBlockImpl$clkhdr/BPortImpl$l1clk" class="triangle" transform="translate(141.75, 66)"><path d="M 0,0 L 5,2.5 L 0,5 Z" transform="translate(-1.67, -2.5)" class="sprotty-port" style="fill:rgb(48, 48, 48);stroke:rgb(48, 48, 48);"/><text class="clickable sprotty-label port" id="sprotty_ArchitectureBlockImpl$rvdffie/GenerateStatementBlockImpl$null5/InstantiationBlockImpl$clkhdr/BPortImpl$l1clk/label" transform="translate(-32.25, -9) translate(13.125, 14)" style="cursor:default;font-size:12px;perspective-origin:0px 0px;fill:rgb(48, 48, 48);text-anchor:middle;">l1clk</text></g></g><g id="sprotty_ArchitectureBlockImpl$rvdffie/GenerateStatementBlockImpl$null5/GPortImpl$rst_l" class="triangle" transform="translate(0, 161)"><path d="M 0,0 L 5,2.5 L 0,5 Z" transform="translate(-1.67, -2.5)" class="sprotty-port" style="fill:rgb(48, 48, 48);stroke:rgb(48, 48, 48);"/></g><g id="sprotty_ArchitectureBlockImpl$rvdffie/GenerateStatementBlockImpl$null5/GPortImpl$din" class="triangle" transform="translate(0, 26)"><path d="M 0,0 L 5,2.5 L 0,5 Z" transform="translate(-1.67, -2.5)" class="sprotty-port" style="fill:rgb(48, 48, 48);stroke:rgb(48, 48, 48);"/></g><g id="sprotty_ArchitectureBlockImpl$rvdffie/GenerateStatementBlockImpl$null5/GPortImpl$scan_mode" class="triangle" transform="translate(0, 132)"><path d="M 0,0 L 5,2.5 L 0,5 Z" transform="translate(-1.67, -2.5)" class="sprotty-port" style="fill:rgb(48, 48, 48);stroke:rgb(48, 48, 48);"/></g><g id="sprotty_ArchitectureBlockImpl$rvdffie/GenerateStatementBlockImpl$null5/GPortImpl$clk" class="triangle" transform="translate(0, 104)"><path d="M 0,0 L 5,2.5 L 0,5 Z" transform="translate(-1.67, -2.5)" class="sprotty-port" style="fill:rgb(48, 48, 48);stroke:rgb(48, 48, 48);"/></g><g id="sprotty_ArchitectureBlockImpl$rvdffie/GenerateStatementBlockImpl$null5/GPortImpl$dout" class="triangle" transform="translate(362.140625, 16)"><path d="M 0,0 L 5,2.5 L 0,5 Z" transform="translate(-1.67, -2.5)" class="sprotty-port" style="fill:rgb(48, 48, 48);stroke:rgb(48, 48, 48);"/></g></g><g id="sprotty_ArchitectureBlockImpl$rvdffie/BPortImpl$scan_mode" class="triangle" transform="translate(0, 162)"><path d="M 0,0 L 5,2.5 L 0,5 Z" transform="translate(-1.67, -2.5)" class="sprotty-port" style="fill:rgb(48, 48, 48);stroke:rgb(48, 48, 48);"/><text class="clickable sprotty-label port" id="sprotty_ArchitectureBlockImpl$rvdffie/BPortImpl$scan_mode/label" transform="translate(6, 6) translate(32.4375, 14)" style="cursor:default;font-size:12px;perspective-origin:0px 0px;fill:rgb(48, 48, 48);text-anchor:middle;">scan_mode</text></g><g id="sprotty_ArchitectureBlockImpl$rvdffie/BPortImpl$rst_l" class="triangle" transform="translate(0, 196)"><path d="M 0,0 L 5,2.5 L 0,5 Z" transform="translate(-1.67, -2.5)" class="sprotty-port" style="fill:rgb(48, 48, 48);stroke:rgb(48, 48, 48);"/><text class="clickable sprotty-label port" id="sprotty_ArchitectureBlockImpl$rvdffie/BPortImpl$rst_l/label" transform="translate(6, 6) translate(12.3125, 14)" style="cursor:default;font-size:12px;perspective-origin:0px 0px;fill:rgb(48, 48, 48);text-anchor:middle;">rst_l</text></g><g id="sprotty_ArchitectureBlockImpl$rvdffie/BPortImpl$clk" class="triangle" transform="translate(0, 128)"><path d="M 0,0 L 5,2.5 L 0,5 Z" transform="translate(-1.67, -2.5)" class="sprotty-port" style="fill:rgb(48, 48, 48);stroke:rgb(48, 48, 48);"/><text class="clickable sprotty-label port" id="sprotty_ArchitectureBlockImpl$rvdffie/BPortImpl$clk/label" transform="translate(6, 6) translate(8.078125, 14)" style="cursor:default;font-size:12px;perspective-origin:0px 0px;fill:rgb(48, 48, 48);text-anchor:middle;">clk</text></g><g id="sprotty_ArchitectureBlockImpl$rvdffie/BPortImpl$din" class="triangle" transform="translate(0, 61)"><path d="M 0,0 L 5,2.5 L 0,5 Z" transform="translate(-1.67, -2.5)" class="sprotty-port" style="fill:rgb(48, 48, 48);stroke:rgb(48, 48, 48);"/><text class="clickable sprotty-label port" id="sprotty_ArchitectureBlockImpl$rvdffie/BPortImpl$din/label" transform="translate(6, 6) translate(9.046875, 14)" style="cursor:default;font-size:12px;perspective-origin:0px 0px;fill:rgb(48, 48, 48);text-anchor:middle;">din</text></g><g id="sprotty_ArchitectureBlockImpl$rvdffie/BPortImpl$dout" class="triangle" transform="translate(515.546875, 51)"><path d="M 0,0 L 5,2.5 L 0,5 Z" transform="translate(-1.67, -2.5)" class="sprotty-port" style="fill:rgb(48, 48, 48);stroke:rgb(48, 48, 48);"/><text class="clickable sprotty-label port" id="sprotty_ArchitectureBlockImpl$rvdffie/BPortImpl$dout/label" transform="translate(-32.53125, 6) translate(13.265625, 14)" style="cursor:default;font-size:12px;perspective-origin:0px 0px;fill:rgb(48, 48, 48);text-anchor:middle;">dout</text></g></g></g></svg>