<svg xmlns="http://www.w3.org/2000/svg" id="sprotty_work.dmi_wrapper" class="sprotty-graph sprotty-block-diagram blockdiagram" style="font-family:&quot;Noto Sans&quot;, Helvetica, Arial, sans-serif;perspective-origin:0px 0px;transform-origin:0px 0px;" version="1.1" viewBox="7 7 852.0625 437" width="852.0625" height="437"><g transform="scale(1) translate(0,0)"><g id="sprotty_ArchitectureBlockImpl$dmi_wrapper" class="architecture" transform="translate(12, 12)"><g class="sprotty-block" style="fill:rgb(255, 255, 255);stroke:rgb(48, 48, 48);stroke-dasharray:0px;"><rect x="0" y="0" rx="1" ry="1" width="842.0625" height="427"/><text x="421.03125" y="12" class="sprotty-block-name" style="cursor:pointer;font-weight:700;perspective-origin:421.047px 0px;fill:rgb(48, 48, 48);stroke:rgba(0, 0, 0, 0);dominant-baseline:middle;text-anchor:middle;">dmi_wrapper</text><line x1="0" y1="20" x2="842.0625" y2="20"/></g><g id="sprotty_ArchitectureBlockImpl$dmi_wrapper/InstantiationBlockImpl$i_jtag_tap/BPortImpl$tdo_to_ArchitectureBlockImpl$dmi_wrapper/BPortImpl$tdo" class="sprotty-edge edge" style="fill:none;stroke:rgb(112, 112, 112);stroke-linejoin:round;"><g><path d="M 290.75 73 L 842.0625 73 "/><path d="M 290.75 73 L 842.0625 73 " class="clickable"/></g></g><g id="sprotty_ArchitectureBlockImpl$dmi_wrapper/InstantiationBlockImpl$i_jtag_tap/BPortImpl$tdoEnable_to_ArchitectureBlockImpl$dmi_wrapper/BPortImpl$tdoEnable" class="sprotty-edge edge" style="fill:none;stroke:rgb(112, 112, 112);stroke-linejoin:round;"><g><path d="M 290.75 109 L 842.0625 109 "/><path d="M 290.75 109 L 842.0625 109 " class="clickable"/></g></g><g id="sprotty_ArchitectureBlockImpl$dmi_wrapper/InstantiationBlockImpl$i_jtag_tap/BPortImpl$wr_data_to_ArchitectureBlockImpl$dmi_wrapper/BPortImpl$reg_wr_data" class="sprotty-edge thick edge" style="fill:none;stroke:rgb(112, 112, 112);stroke-linejoin:round;stroke-width:3px;"><g><path d="M 290.75 145 L 842.0625 145 "/><path d="M 290.75 145 L 842.0625 145 " class="clickable"/></g></g><g id="sprotty_ArchitectureBlockImpl$dmi_wrapper/InstantiationBlockImpl$i_jtag_tap/BPortImpl$wr_addr_to_ArchitectureBlockImpl$dmi_wrapper/BPortImpl$reg_wr_addr" class="sprotty-edge thick edge" style="fill:none;stroke:rgb(112, 112, 112);stroke-linejoin:round;stroke-width:3px;"><g><path d="M 290.75 181 L 842.0625 181 "/><path d="M 290.75 181 L 842.0625 181 " class="clickable"/></g></g><g id="sprotty_ArchitectureBlockImpl$dmi_wrapper/InstantiationBlockImpl$i_dmi_jtag_to_core_sync/BPortImpl$reg_en_to_ArchitectureBlockImpl$dmi_wrapper/BPortImpl$reg_en" class="sprotty-edge edge" style="fill:none;stroke:rgb(112, 112, 112);stroke-linejoin:round;"><g><path d="M 731.9375 304 L 842.0625 304 "/><path d="M 731.9375 304 L 842.0625 304 " class="clickable"/></g></g><g id="sprotty_ArchitectureBlockImpl$dmi_wrapper/InstantiationBlockImpl$i_dmi_jtag_to_core_sync/BPortImpl$reg_wr_en_to_ArchitectureBlockImpl$dmi_wrapper/BPortImpl$reg_wr_en" class="sprotty-edge edge" style="fill:none;stroke:rgb(112, 112, 112);stroke-linejoin:round;"><g><path d="M 731.9375 388 L 842.0625 388 "/><path d="M 731.9375 388 L 842.0625 388 " class="clickable"/></g></g><g id="sprotty_ArchitectureBlockImpl$dmi_wrapper/InstantiationBlockImpl$i_jtag_tap/BPortImpl$dmi_hard_reset_to_ArchitectureBlockImpl$dmi_wrapper/BPortImpl$dmi_hard_reset" class="sprotty-edge edge" style="fill:none;stroke:rgb(112, 112, 112);stroke-linejoin:round;"><g><path d="M 290.75 325 L 308.75 325 C 309.75 325 310.75 324 310.75 323 L 310.75 256 C 310.75 255 311.75 254 312.75 254 L 842.0625 254 "/><path d="M 290.75 325 L 308.75 325 C 309.75 325 310.75 324 310.75 323 L 310.75 256 C 310.75 255 311.75 254 312.75 254 L 842.0625 254 " class="clickable"/></g></g><g id="sprotty_ArchitectureBlockImpl$dmi_wrapper/BPortImpl$trst_n_to_ArchitectureBlockImpl$dmi_wrapper/InstantiationBlockImpl$i_jtag_tap/BPortImpl$trst" class="sprotty-edge edge" style="fill:none;stroke:rgb(112, 112, 112);stroke-linejoin:round;"><g><path d="M 0 49 L 88.5 49 C 89.5 49 90.5 50 90.5 51 L 90.5 71 C 90.5 72 91.5 73 92.5 73 L 100.5 73 "/><path d="M 0 49 L 88.5 49 C 89.5 49 90.5 50 90.5 51 L 90.5 71 C 90.5 72 91.5 73 92.5 73 L 100.5 73 " class="clickable"/></g></g><g id="sprotty_ArchitectureBlockImpl$dmi_wrapper/BPortImpl$tck_to_ArchitectureBlockImpl$dmi_wrapper/InstantiationBlockImpl$i_jtag_tap/BPortImpl$tck" class="sprotty-edge edge" style="fill:none;stroke:rgb(112, 112, 112);stroke-linejoin:round;"><g><path d="M 0 83 L 88.5 83 C 89.5 83 90.5 84 90.5 85 L 90.5 99 C 90.5 100 91.5 101 92.5 101 L 100.5 101 "/><path d="M 0 83 L 88.5 83 C 89.5 83 90.5 84 90.5 85 L 90.5 99 C 90.5 100 91.5 101 92.5 101 L 100.5 101 " class="clickable"/></g></g><g id="sprotty_ArchitectureBlockImpl$dmi_wrapper/BPortImpl$tms_to_ArchitectureBlockImpl$dmi_wrapper/InstantiationBlockImpl$i_jtag_tap/BPortImpl$tms" class="sprotty-edge edge" style="fill:none;stroke:rgb(112, 112, 112);stroke-linejoin:round;"><g><path d="M 0 117 L 88.5 117 C 89.5 117 90.5 118 90.5 119 L 90.5 127 C 90.5 128 91.5 129 92.5 129 L 100.5 129 "/><path d="M 0 117 L 88.5 117 C 89.5 117 90.5 118 90.5 119 L 90.5 127 C 90.5 128 91.5 129 92.5 129 L 100.5 129 " class="clickable"/></g></g><g id="sprotty_ArchitectureBlockImpl$dmi_wrapper/BPortImpl$tdi_to_ArchitectureBlockImpl$dmi_wrapper/InstantiationBlockImpl$i_jtag_tap/BPortImpl$tdi" class="sprotty-edge edge" style="fill:none;stroke:rgb(112, 112, 112);stroke-linejoin:round;"><g><path d="M 0 151 L 88.5 151 C 89.5 151 90.5 152 90.5 153 L 90.5 155 C 90.5 156 91.5 157 92.5 157 L 100.5 157 "/><path d="M 0 151 L 88.5 151 C 89.5 151 90.5 152 90.5 153 L 90.5 155 C 90.5 156 91.5 157 92.5 157 L 100.5 157 " class="clickable"/></g></g><g id="sprotty_ArchitectureBlockImpl$dmi_wrapper/BPortImpl$rd_data_to_ArchitectureBlockImpl$dmi_wrapper/InstantiationBlockImpl$i_jtag_tap/BPortImpl$rd_data" class="sprotty-edge thick edge" style="fill:none;stroke:rgb(112, 112, 112);stroke-linejoin:round;stroke-width:3px;"><g><path d="M 0 185 L 100.5 185 "/><path d="M 0 185 L 100.5 185 " class="clickable"/></g></g><g id="sprotty_ArchitectureBlockImpl$dmi_wrapper/BPortImpl$jtag_id_to_ArchitectureBlockImpl$dmi_wrapper/InstantiationBlockImpl$i_jtag_tap/BPortImpl$jtag_id" class="sprotty-edge thick edge" style="fill:none;stroke:rgb(112, 112, 112);stroke-linejoin:round;stroke-width:3px;"><g><path d="M 0 297 L 100.5 297 "/><path d="M 0 297 L 100.5 297 " class="clickable"/></g></g><g id="sprotty_ArchitectureBlockImpl$dmi_wrapper/BPortImpl$core_rst_n_to_ArchitectureBlockImpl$dmi_wrapper/InstantiationBlockImpl$i_dmi_jtag_to_core_sync/BPortImpl$rst_n" class="sprotty-edge edge" style="fill:none;stroke:rgb(112, 112, 112);stroke-linejoin:round;"><g><path d="M 0 354 L 298.75 354 C 299.75 354 300.75 355 300.75 356 L 300.75 358 C 300.75 359 301.75 360 302.75 360 L 330.75 360 "/><path d="M 0 354 L 298.75 354 C 299.75 354 300.75 355 300.75 356 L 300.75 358 C 300.75 359 301.75 360 302.75 360 L 330.75 360 " class="clickable"/></g></g><g id="sprotty_ArchitectureBlockImpl$dmi_wrapper/BPortImpl$core_clk_to_ArchitectureBlockImpl$dmi_wrapper/InstantiationBlockImpl$i_dmi_jtag_to_core_sync/BPortImpl$clk" class="sprotty-edge edge" style="fill:none;stroke:rgb(112, 112, 112);stroke-linejoin:round;"><g><path d="M 0 388 L 330.75 388 "/><path d="M 0 388 L 330.75 388 " class="clickable"/></g></g><g id="sprotty_ArchitectureBlockImpl$dmi_wrapper/InstantiationBlockImpl$i_jtag_tap/BPortImpl$rd_en_to_ArchitectureBlockImpl$dmi_wrapper/InstantiationBlockImpl$i_dmi_jtag_to_core_sync/BPortImpl$rd_en" class="sprotty-edge edge" style="fill:none;stroke:rgb(112, 112, 112);stroke-linejoin:round;"><g><path d="M 290.75 253 L 298.75 253 C 299.75 253 300.75 254 300.75 255 L 300.75 302 C 300.75 303 301.75 304 302.75 304 L 330.75 304 "/><path d="M 290.75 253 L 298.75 253 C 299.75 253 300.75 254 300.75 255 L 300.75 302 C 300.75 303 301.75 304 302.75 304 L 330.75 304 " class="clickable"/></g></g><g id="sprotty_ArchitectureBlockImpl$dmi_wrapper/InstantiationBlockImpl$i_jtag_tap/BPortImpl$wr_en_to_ArchitectureBlockImpl$dmi_wrapper/InstantiationBlockImpl$i_dmi_jtag_to_core_sync/BPortImpl$wr_en" class="sprotty-edge edge" style="fill:none;stroke:rgb(112, 112, 112);stroke-linejoin:round;"><g><path d="M 290.75 217 L 318.75 217 C 319.75 217 320.75 218 320.75 219 L 320.75 330 C 320.75 331 321.75 332 322.75 332 L 330.75 332 "/><path d="M 290.75 217 L 318.75 217 C 319.75 217 320.75 218 320.75 219 L 320.75 330 C 320.75 331 321.75 332 322.75 332 L 330.75 332 " class="clickable"/></g></g><g id="sprotty_ArchitectureBlockImpl$dmi_wrapper/InstantiationBlockImpl$i_dmi_jtag_to_core_sync" class="instantiation" transform="translate(330.75, 266)"><g class="sprotty-block" style="fill:rgb(255, 255, 255);stroke:rgb(48, 48, 48);stroke-dasharray:0px;"><rect x="0" y="0" rx="1" ry="1" width="401.1875" height="140"/><text x="200.59375" y="12" class="sprotty-block-name" style="cursor:pointer;font-weight:700;perspective-origin:200.594px 0px;fill:rgb(48, 48, 48);stroke:rgba(0, 0, 0, 0);dominant-baseline:middle;text-anchor:middle;">i_dmi_jtag_to_core_sync : dmi_jtag_to_core_sync</text><line x1="0" y1="20" x2="401.1875" y2="20"/></g><g id="sprotty_ArchitectureBlockImpl$dmi_wrapper/InstantiationBlockImpl$i_dmi_jtag_to_core_sync/BPortImpl$clk" class="triangle" transform="translate(0, 122)"><path d="M 0,0 L 5,2.5 L 0,5 Z" transform="translate(-1.67, -2.5)" class="sprotty-port" style="fill:rgb(48, 48, 48);stroke:rgb(48, 48, 48);"/><text class="clickable sprotty-label port" id="sprotty_ArchitectureBlockImpl$dmi_wrapper/InstantiationBlockImpl$i_dmi_jtag_to_core_sync/BPortImpl$clk/label" transform="translate(6, -9) translate(8.078125, 14)" style="cursor:default;font-size:12px;perspective-origin:0px 0px;fill:rgb(48, 48, 48);text-anchor:middle;">clk</text></g><g id="sprotty_ArchitectureBlockImpl$dmi_wrapper/InstantiationBlockImpl$i_dmi_jtag_to_core_sync/BPortImpl$rst_n" class="triangle" transform="translate(0, 94)"><path d="M 0,0 L 5,2.5 L 0,5 Z" transform="translate(-1.67, -2.5)" class="sprotty-port" style="fill:rgb(48, 48, 48);stroke:rgb(48, 48, 48);"/><text class="clickable sprotty-label port" id="sprotty_ArchitectureBlockImpl$dmi_wrapper/InstantiationBlockImpl$i_dmi_jtag_to_core_sync/BPortImpl$rst_n/label" transform="translate(6, -9) translate(14.265625, 14)" style="cursor:default;font-size:12px;perspective-origin:0px 0px;fill:rgb(48, 48, 48);text-anchor:middle;">rst_n</text></g><g id="sprotty_ArchitectureBlockImpl$dmi_wrapper/InstantiationBlockImpl$i_dmi_jtag_to_core_sync/BPortImpl$wr_en" class="triangle" transform="translate(0, 66)"><path d="M 0,0 L 5,2.5 L 0,5 Z" transform="translate(-1.67, -2.5)" class="sprotty-port" style="fill:rgb(48, 48, 48);stroke:rgb(48, 48, 48);"/><text class="clickable sprotty-label port" id="sprotty_ArchitectureBlockImpl$dmi_wrapper/InstantiationBlockImpl$i_dmi_jtag_to_core_sync/BPortImpl$wr_en/label" transform="translate(6, -9) translate(17.484375, 14)" style="cursor:default;font-size:12px;perspective-origin:0px 0px;fill:rgb(48, 48, 48);text-anchor:middle;">wr_en</text></g><g id="sprotty_ArchitectureBlockImpl$dmi_wrapper/InstantiationBlockImpl$i_dmi_jtag_to_core_sync/BPortImpl$rd_en" class="triangle" transform="translate(0, 38)"><path d="M 0,0 L 5,2.5 L 0,5 Z" transform="translate(-1.67, -2.5)" class="sprotty-port" style="fill:rgb(48, 48, 48);stroke:rgb(48, 48, 48);"/><text class="clickable sprotty-label port" id="sprotty_ArchitectureBlockImpl$dmi_wrapper/InstantiationBlockImpl$i_dmi_jtag_to_core_sync/BPortImpl$rd_en/label" transform="translate(6, -9) translate(16.328125, 14)" style="cursor:default;font-size:12px;perspective-origin:0px 0px;fill:rgb(48, 48, 48);text-anchor:middle;">rd_en</text></g><g id="sprotty_ArchitectureBlockImpl$dmi_wrapper/InstantiationBlockImpl$i_dmi_jtag_to_core_sync/BPortImpl$reg_en" class="triangle" transform="translate(401.1875, 38)"><path d="M 0,0 L 5,2.5 L 0,5 Z" transform="translate(-1.67, -2.5)" class="sprotty-port" style="fill:rgb(48, 48, 48);stroke:rgb(48, 48, 48);"/><text class="clickable sprotty-label port" id="sprotty_ArchitectureBlockImpl$dmi_wrapper/InstantiationBlockImpl$i_dmi_jtag_to_core_sync/BPortImpl$reg_en/label" transform="translate(-44.5, -9) translate(19.25, 14)" style="cursor:default;font-size:12px;perspective-origin:0px 0px;fill:rgb(48, 48, 48);text-anchor:middle;">reg_en</text></g><g id="sprotty_ArchitectureBlockImpl$dmi_wrapper/InstantiationBlockImpl$i_dmi_jtag_to_core_sync/BPortImpl$reg_wr_en" class="triangle" transform="translate(401.1875, 122)"><path d="M 0,0 L 5,2.5 L 0,5 Z" transform="translate(-1.67, -2.5)" class="sprotty-port" style="fill:rgb(48, 48, 48);stroke:rgb(48, 48, 48);"/><text class="clickable sprotty-label port" id="sprotty_ArchitectureBlockImpl$dmi_wrapper/InstantiationBlockImpl$i_dmi_jtag_to_core_sync/BPortImpl$reg_wr_en/label" transform="translate(-65.5, -9) translate(29.75, 14)" style="cursor:default;font-size:12px;perspective-origin:0px 0px;fill:rgb(48, 48, 48);text-anchor:middle;">reg_wr_en</text></g></g><g id="sprotty_ArchitectureBlockImpl$dmi_wrapper/InstantiationBlockImpl$i_jtag_tap" class="instantiation" transform="translate(100.5, 35)"><g class="sprotty-block" style="fill:rgb(255, 255, 255);stroke:rgb(48, 48, 48);stroke-dasharray:0px;"><rect x="0" y="0" rx="1" ry="1" width="190.25" height="308"/><text x="95.125" y="12" class="sprotty-block-name" style="cursor:pointer;font-weight:700;perspective-origin:95.125px 0px;fill:rgb(48, 48, 48);stroke:rgba(0, 0, 0, 0);dominant-baseline:middle;text-anchor:middle;">i_jtag_tap : rvjtag_tap</text><line x1="0" y1="20" x2="190.25" y2="20"/></g><g id="sprotty_ArchitectureBlockImpl$dmi_wrapper/InstantiationBlockImpl$i_jtag_tap/BPortImpl$version" class="triangle" transform="translate(0, 290)"><path d="M 0,0 L 5,2.5 L 0,5 Z" transform="translate(-1.67, -2.5)" class="sprotty-port" style="fill:rgb(48, 48, 48);stroke:rgb(48, 48, 48);"/><text class="clickable sprotty-label port" id="sprotty_ArchitectureBlockImpl$dmi_wrapper/InstantiationBlockImpl$i_jtag_tap/BPortImpl$version/label" transform="translate(6, -9) translate(20.5, 14)" style="cursor:default;font-size:12px;perspective-origin:0px 0px;fill:rgb(48, 48, 48);text-anchor:middle;">version</text></g><g id="sprotty_ArchitectureBlockImpl$dmi_wrapper/InstantiationBlockImpl$i_jtag_tap/BPortImpl$jtag_id" class="triangle" transform="translate(0, 262)"><path d="M 0,0 L 5,2.5 L 0,5 Z" transform="translate(-1.67, -2.5)" class="sprotty-port" style="fill:rgb(48, 48, 48);stroke:rgb(48, 48, 48);"/><text class="clickable sprotty-label port" id="sprotty_ArchitectureBlockImpl$dmi_wrapper/InstantiationBlockImpl$i_jtag_tap/BPortImpl$jtag_id/label" transform="translate(6, -9) translate(19.796875, 14)" style="cursor:default;font-size:12px;perspective-origin:-0.265625px 0px;fill:rgb(48, 48, 48);text-anchor:middle;">jtag_id</text></g><g id="sprotty_ArchitectureBlockImpl$dmi_wrapper/InstantiationBlockImpl$i_jtag_tap/BPortImpl$dmi_stat" class="triangle" transform="translate(0, 234)"><path d="M 0,0 L 5,2.5 L 0,5 Z" transform="translate(-1.67, -2.5)" class="sprotty-port" style="fill:rgb(48, 48, 48);stroke:rgb(48, 48, 48);"/><text class="clickable sprotty-label port" id="sprotty_ArchitectureBlockImpl$dmi_wrapper/InstantiationBlockImpl$i_jtag_tap/BPortImpl$dmi_stat/label" transform="translate(6, -9) translate(24.640625, 14)" style="cursor:default;font-size:12px;perspective-origin:0px 0px;fill:rgb(48, 48, 48);text-anchor:middle;">dmi_stat</text></g><g id="sprotty_ArchitectureBlockImpl$dmi_wrapper/InstantiationBlockImpl$i_jtag_tap/BPortImpl$idle" class="triangle" transform="translate(0, 206)"><path d="M 0,0 L 5,2.5 L 0,5 Z" transform="translate(-1.67, -2.5)" class="sprotty-port" style="fill:rgb(48, 48, 48);stroke:rgb(48, 48, 48);"/><text class="clickable sprotty-label port" id="sprotty_ArchitectureBlockImpl$dmi_wrapper/InstantiationBlockImpl$i_jtag_tap/BPortImpl$idle/label" transform="translate(6, -9) translate(10.40625, 14)" style="cursor:default;font-size:12px;perspective-origin:0px 0px;fill:rgb(48, 48, 48);text-anchor:middle;">idle</text></g><g id="sprotty_ArchitectureBlockImpl$dmi_wrapper/InstantiationBlockImpl$i_jtag_tap/BPortImpl$rd_status" class="triangle" transform="translate(0, 178)"><path d="M 0,0 L 5,2.5 L 0,5 Z" transform="translate(-1.67, -2.5)" class="sprotty-port" style="fill:rgb(48, 48, 48);stroke:rgb(48, 48, 48);"/><text class="clickable sprotty-label port" id="sprotty_ArchitectureBlockImpl$dmi_wrapper/InstantiationBlockImpl$i_jtag_tap/BPortImpl$rd_status/label" transform="translate(6, -9) translate(26.140625, 14)" style="cursor:default;font-size:12px;perspective-origin:0px 0px;fill:rgb(48, 48, 48);text-anchor:middle;">rd_status</text></g><g id="sprotty_ArchitectureBlockImpl$dmi_wrapper/InstantiationBlockImpl$i_jtag_tap/BPortImpl$rd_data" class="triangle" transform="translate(0, 150)"><path d="M 0,0 L 5,2.5 L 0,5 Z" transform="translate(-1.67, -2.5)" class="sprotty-port" style="fill:rgb(48, 48, 48);stroke:rgb(48, 48, 48);"/><text class="clickable sprotty-label port" id="sprotty_ArchitectureBlockImpl$dmi_wrapper/InstantiationBlockImpl$i_jtag_tap/BPortImpl$rd_data/label" transform="translate(6, -9) translate(21.859375, 14)" style="cursor:default;font-size:12px;perspective-origin:0px 0px;fill:rgb(48, 48, 48);text-anchor:middle;">rd_data</text></g><g id="sprotty_ArchitectureBlockImpl$dmi_wrapper/InstantiationBlockImpl$i_jtag_tap/BPortImpl$tdi" class="triangle" transform="translate(0, 122)"><path d="M 0,0 L 5,2.5 L 0,5 Z" transform="translate(-1.67, -2.5)" class="sprotty-port" style="fill:rgb(48, 48, 48);stroke:rgb(48, 48, 48);"/><text class="clickable sprotty-label port" id="sprotty_ArchitectureBlockImpl$dmi_wrapper/InstantiationBlockImpl$i_jtag_tap/BPortImpl$tdi/label" transform="translate(6, -9) translate(7.546875, 14)" style="cursor:default;font-size:12px;perspective-origin:0px 0px;fill:rgb(48, 48, 48);text-anchor:middle;">tdi</text></g><g id="sprotty_ArchitectureBlockImpl$dmi_wrapper/InstantiationBlockImpl$i_jtag_tap/BPortImpl$tms" class="triangle" transform="translate(0, 94)"><path d="M 0,0 L 5,2.5 L 0,5 Z" transform="translate(-1.67, -2.5)" class="sprotty-port" style="fill:rgb(48, 48, 48);stroke:rgb(48, 48, 48);"/><text class="clickable sprotty-label port" id="sprotty_ArchitectureBlockImpl$dmi_wrapper/InstantiationBlockImpl$i_jtag_tap/BPortImpl$tms/label" transform="translate(6, -9) translate(10.640625, 14)" style="cursor:default;font-size:12px;perspective-origin:0px 0px;fill:rgb(48, 48, 48);text-anchor:middle;">tms</text></g><g id="sprotty_ArchitectureBlockImpl$dmi_wrapper/InstantiationBlockImpl$i_jtag_tap/BPortImpl$tck" class="triangle" transform="translate(0, 66)"><path d="M 0,0 L 5,2.5 L 0,5 Z" transform="translate(-1.67, -2.5)" class="sprotty-port" style="fill:rgb(48, 48, 48);stroke:rgb(48, 48, 48);"/><text class="clickable sprotty-label port" id="sprotty_ArchitectureBlockImpl$dmi_wrapper/InstantiationBlockImpl$i_jtag_tap/BPortImpl$tck/label" transform="translate(6, -9) translate(8.546875, 14)" style="cursor:default;font-size:12px;perspective-origin:0px 0px;fill:rgb(48, 48, 48);text-anchor:middle;">tck</text></g><g id="sprotty_ArchitectureBlockImpl$dmi_wrapper/InstantiationBlockImpl$i_jtag_tap/BPortImpl$trst" class="triangle" transform="translate(0, 38)"><path d="M 0,0 L 5,2.5 L 0,5 Z" transform="translate(-1.67, -2.5)" class="sprotty-port" style="fill:rgb(48, 48, 48);stroke:rgb(48, 48, 48);"/><text class="clickable sprotty-label port" id="sprotty_ArchitectureBlockImpl$dmi_wrapper/InstantiationBlockImpl$i_jtag_tap/BPortImpl$trst/label" transform="translate(6, -9) translate(9.515625, 14)" style="cursor:default;font-size:12px;perspective-origin:0px 0px;fill:rgb(48, 48, 48);text-anchor:middle;">trst</text></g><g id="sprotty_ArchitectureBlockImpl$dmi_wrapper/InstantiationBlockImpl$i_jtag_tap/BPortImpl$tdo" class="triangle" transform="translate(190.25, 38)"><path d="M 0,0 L 5,2.5 L 0,5 Z" transform="translate(-1.67, -2.5)" class="sprotty-port" style="fill:rgb(48, 48, 48);stroke:rgb(48, 48, 48);"/><text class="clickable sprotty-label port" id="sprotty_ArchitectureBlockImpl$dmi_wrapper/InstantiationBlockImpl$i_jtag_tap/BPortImpl$tdo/label" transform="translate(-25.0625, -9) translate(9.53125, 14)" style="cursor:default;font-size:12px;perspective-origin:0px 0px;fill:rgb(48, 48, 48);text-anchor:middle;">tdo</text></g><g id="sprotty_ArchitectureBlockImpl$dmi_wrapper/InstantiationBlockImpl$i_jtag_tap/BPortImpl$tdoEnable" class="triangle" transform="translate(190.25, 74)"><path d="M 0,0 L 5,2.5 L 0,5 Z" transform="translate(-1.67, -2.5)" class="sprotty-port" style="fill:rgb(48, 48, 48);stroke:rgb(48, 48, 48);"/><text class="clickable sprotty-label port" id="sprotty_ArchitectureBlockImpl$dmi_wrapper/InstantiationBlockImpl$i_jtag_tap/BPortImpl$tdoEnable/label" transform="translate(-63.71875, -9) translate(28.859375, 14)" style="cursor:default;font-size:12px;perspective-origin:0px 0px;fill:rgb(48, 48, 48);text-anchor:middle;">tdoEnable</text></g><g id="sprotty_ArchitectureBlockImpl$dmi_wrapper/InstantiationBlockImpl$i_jtag_tap/BPortImpl$wr_data" class="triangle" transform="translate(190.25, 110)"><path d="M 0,0 L 5,2.5 L 0,5 Z" transform="translate(-1.67, -2.5)" class="sprotty-port" style="fill:rgb(48, 48, 48);stroke:rgb(48, 48, 48);"/><text class="clickable sprotty-label port" id="sprotty_ArchitectureBlockImpl$dmi_wrapper/InstantiationBlockImpl$i_jtag_tap/BPortImpl$wr_data/label" transform="translate(-52.03125, -9) translate(23.015625, 14)" style="cursor:default;font-size:12px;perspective-origin:0px 0px;fill:rgb(48, 48, 48);text-anchor:middle;">wr_data</text></g><g id="sprotty_ArchitectureBlockImpl$dmi_wrapper/InstantiationBlockImpl$i_jtag_tap/BPortImpl$wr_addr" class="triangle" transform="translate(190.25, 146)"><path d="M 0,0 L 5,2.5 L 0,5 Z" transform="translate(-1.67, -2.5)" class="sprotty-port" style="fill:rgb(48, 48, 48);stroke:rgb(48, 48, 48);"/><text class="clickable sprotty-label port" id="sprotty_ArchitectureBlockImpl$dmi_wrapper/InstantiationBlockImpl$i_jtag_tap/BPortImpl$wr_addr/label" transform="translate(-53.328125, -9) translate(23.65625, 14)" style="cursor:default;font-size:12px;perspective-origin:0px 0px;fill:rgb(48, 48, 48);text-anchor:middle;">wr_addr</text></g><g id="sprotty_ArchitectureBlockImpl$dmi_wrapper/InstantiationBlockImpl$i_jtag_tap/BPortImpl$wr_en" class="triangle" transform="translate(190.25, 182)"><path d="M 0,0 L 5,2.5 L 0,5 Z" transform="translate(-1.67, -2.5)" class="sprotty-port" style="fill:rgb(48, 48, 48);stroke:rgb(48, 48, 48);"/><text class="clickable sprotty-label port" id="sprotty_ArchitectureBlockImpl$dmi_wrapper/InstantiationBlockImpl$i_jtag_tap/BPortImpl$wr_en/label" transform="translate(-40.96875, -9) translate(17.484375, 14)" style="cursor:default;font-size:12px;perspective-origin:0px 0px;fill:rgb(48, 48, 48);text-anchor:middle;">wr_en</text></g><g id="sprotty_ArchitectureBlockImpl$dmi_wrapper/InstantiationBlockImpl$i_jtag_tap/BPortImpl$rd_en" class="triangle" transform="translate(190.25, 218)"><path d="M 0,0 L 5,2.5 L 0,5 Z" transform="translate(-1.67, -2.5)" class="sprotty-port" style="fill:rgb(48, 48, 48);stroke:rgb(48, 48, 48);"/><text class="clickable sprotty-label port" id="sprotty_ArchitectureBlockImpl$dmi_wrapper/InstantiationBlockImpl$i_jtag_tap/BPortImpl$rd_en/label" transform="translate(-38.65625, -9) translate(16.328125, 14)" style="cursor:default;font-size:12px;perspective-origin:0px 0px;fill:rgb(48, 48, 48);text-anchor:middle;">rd_en</text></g><g id="sprotty_ArchitectureBlockImpl$dmi_wrapper/InstantiationBlockImpl$i_jtag_tap/BPortImpl$dmi_reset" class="triangle" transform="translate(190.25, 254)"><path d="M 0,0 L 5,2.5 L 0,5 Z" transform="translate(-1.67, -2.5)" class="sprotty-port" style="fill:rgb(48, 48, 48);stroke:rgb(48, 48, 48);"/><text class="clickable sprotty-label port" id="sprotty_ArchitectureBlockImpl$dmi_wrapper/InstantiationBlockImpl$i_jtag_tap/BPortImpl$dmi_reset/label" transform="translate(-62.40625, -9) translate(28.203125, 14)" style="cursor:default;font-size:12px;perspective-origin:0px 0px;fill:rgb(48, 48, 48);text-anchor:middle;">dmi_reset</text></g><g id="sprotty_ArchitectureBlockImpl$dmi_wrapper/InstantiationBlockImpl$i_jtag_tap/BPortImpl$dmi_hard_reset" class="triangle" transform="translate(190.25, 290)"><path d="M 0,0 L 5,2.5 L 0,5 Z" transform="translate(-1.67, -2.5)" class="sprotty-port" style="fill:rgb(48, 48, 48);stroke:rgb(48, 48, 48);"/><text class="clickable sprotty-label port" id="sprotty_ArchitectureBlockImpl$dmi_wrapper/InstantiationBlockImpl$i_jtag_tap/BPortImpl$dmi_hard_reset/label" transform="translate(-95.125, -9) translate(44.5625, 14)" style="cursor:default;font-size:12px;perspective-origin:0px 0px;fill:rgb(48, 48, 48);text-anchor:middle;">dmi_hard_reset</text></g></g><g id="sprotty_ArchitectureBlockImpl$dmi_wrapper/BPortImpl$rd_data" class="triangle" transform="translate(0, 185)"><path d="M 0,0 L 5,2.5 L 0,5 Z" transform="translate(-1.67, -2.5)" class="sprotty-port" style="fill:rgb(48, 48, 48);stroke:rgb(48, 48, 48);"/><text class="clickable sprotty-label port" id="sprotty_ArchitectureBlockImpl$dmi_wrapper/BPortImpl$rd_data/label" transform="translate(6, 6) translate(21.859375, 14)" style="cursor:default;font-size:12px;perspective-origin:0px 0px;fill:rgb(48, 48, 48);text-anchor:middle;">rd_data</text></g><g id="sprotty_ArchitectureBlockImpl$dmi_wrapper/BPortImpl$jtag_id" class="triangle" transform="translate(0, 297)"><path d="M 0,0 L 5,2.5 L 0,5 Z" transform="translate(-1.67, -2.5)" class="sprotty-port" style="fill:rgb(48, 48, 48);stroke:rgb(48, 48, 48);"/><text class="clickable sprotty-label port" id="sprotty_ArchitectureBlockImpl$dmi_wrapper/BPortImpl$jtag_id/label" transform="translate(6, 6) translate(19.796875, 14)" style="cursor:default;font-size:12px;perspective-origin:-0.265625px 0px;fill:rgb(48, 48, 48);text-anchor:middle;">jtag_id</text></g><g id="sprotty_ArchitectureBlockImpl$dmi_wrapper/BPortImpl$core_clk" class="triangle" transform="translate(0, 388)"><path d="M 0,0 L 5,2.5 L 0,5 Z" transform="translate(-1.67, -2.5)" class="sprotty-port" style="fill:rgb(48, 48, 48);stroke:rgb(48, 48, 48);"/><text class="clickable sprotty-label port" id="sprotty_ArchitectureBlockImpl$dmi_wrapper/BPortImpl$core_clk/label" transform="translate(6, 6) translate(23.5625, 14)" style="cursor:default;font-size:12px;perspective-origin:0px 0px;fill:rgb(48, 48, 48);text-anchor:middle;">core_clk</text></g><g id="sprotty_ArchitectureBlockImpl$dmi_wrapper/BPortImpl$core_rst_n" class="triangle" transform="translate(0, 354)"><path d="M 0,0 L 5,2.5 L 0,5 Z" transform="translate(-1.67, -2.5)" class="sprotty-port" style="fill:rgb(48, 48, 48);stroke:rgb(48, 48, 48);"/><text class="clickable sprotty-label port" id="sprotty_ArchitectureBlockImpl$dmi_wrapper/BPortImpl$core_rst_n/label" transform="translate(6, 6) translate(29.75, 14)" style="cursor:default;font-size:12px;perspective-origin:0px 0px;fill:rgb(48, 48, 48);text-anchor:middle;">core_rst_n</text></g><g id="sprotty_ArchitectureBlockImpl$dmi_wrapper/BPortImpl$tdi" class="triangle" transform="translate(0, 151)"><path d="M 0,0 L 5,2.5 L 0,5 Z" transform="translate(-1.67, -2.5)" class="sprotty-port" style="fill:rgb(48, 48, 48);stroke:rgb(48, 48, 48);"/><text class="clickable sprotty-label port" id="sprotty_ArchitectureBlockImpl$dmi_wrapper/BPortImpl$tdi/label" transform="translate(6, 6) translate(7.546875, 14)" style="cursor:default;font-size:12px;perspective-origin:0px 0px;fill:rgb(48, 48, 48);text-anchor:middle;">tdi</text></g><g id="sprotty_ArchitectureBlockImpl$dmi_wrapper/BPortImpl$tms" class="triangle" transform="translate(0, 117)"><path d="M 0,0 L 5,2.5 L 0,5 Z" transform="translate(-1.67, -2.5)" class="sprotty-port" style="fill:rgb(48, 48, 48);stroke:rgb(48, 48, 48);"/><text class="clickable sprotty-label port" id="sprotty_ArchitectureBlockImpl$dmi_wrapper/BPortImpl$tms/label" transform="translate(6, 6) translate(10.640625, 14)" style="cursor:default;font-size:12px;perspective-origin:0px 0px;fill:rgb(48, 48, 48);text-anchor:middle;">tms</text></g><g id="sprotty_ArchitectureBlockImpl$dmi_wrapper/BPortImpl$tck" class="triangle" transform="translate(0, 83)"><path d="M 0,0 L 5,2.5 L 0,5 Z" transform="translate(-1.67, -2.5)" class="sprotty-port" style="fill:rgb(48, 48, 48);stroke:rgb(48, 48, 48);"/><text class="clickable sprotty-label port" id="sprotty_ArchitectureBlockImpl$dmi_wrapper/BPortImpl$tck/label" transform="translate(6, 6) translate(8.546875, 14)" style="cursor:default;font-size:12px;perspective-origin:0px 0px;fill:rgb(48, 48, 48);text-anchor:middle;">tck</text></g><g id="sprotty_ArchitectureBlockImpl$dmi_wrapper/BPortImpl$trst_n" class="triangle" transform="translate(0, 49)"><path d="M 0,0 L 5,2.5 L 0,5 Z" transform="translate(-1.67, -2.5)" class="sprotty-port" style="fill:rgb(48, 48, 48);stroke:rgb(48, 48, 48);"/><text class="clickable sprotty-label port" id="sprotty_ArchitectureBlockImpl$dmi_wrapper/BPortImpl$trst_n/label" transform="translate(6, 6) translate(16.53125, 14)" style="cursor:default;font-size:12px;perspective-origin:0px 0px;fill:rgb(48, 48, 48);text-anchor:middle;">trst_n</text></g><g id="sprotty_ArchitectureBlockImpl$dmi_wrapper/BPortImpl$tdo" class="triangle" transform="translate(842.0625, 73)"><path d="M 0,0 L 5,2.5 L 0,5 Z" transform="translate(-1.67, -2.5)" class="sprotty-port" style="fill:rgb(48, 48, 48);stroke:rgb(48, 48, 48);"/><text class="clickable sprotty-label port" id="sprotty_ArchitectureBlockImpl$dmi_wrapper/BPortImpl$tdo/label" transform="translate(-25.0625, 6) translate(9.53125, 14)" style="cursor:default;font-size:12px;perspective-origin:0px 0px;fill:rgb(48, 48, 48);text-anchor:middle;">tdo</text></g><g id="sprotty_ArchitectureBlockImpl$dmi_wrapper/BPortImpl$tdoEnable" class="triangle" transform="translate(842.0625, 109)"><path d="M 0,0 L 5,2.5 L 0,5 Z" transform="translate(-1.67, -2.5)" class="sprotty-port" style="fill:rgb(48, 48, 48);stroke:rgb(48, 48, 48);"/><text class="clickable sprotty-label port" id="sprotty_ArchitectureBlockImpl$dmi_wrapper/BPortImpl$tdoEnable/label" transform="translate(-63.71875, 6) translate(28.859375, 14)" style="cursor:default;font-size:12px;perspective-origin:0px 0px;fill:rgb(48, 48, 48);text-anchor:middle;">tdoEnable</text></g><g id="sprotty_ArchitectureBlockImpl$dmi_wrapper/BPortImpl$reg_wr_data" class="triangle" transform="translate(842.0625, 145)"><path d="M 0,0 L 5,2.5 L 0,5 Z" transform="translate(-1.67, -2.5)" class="sprotty-port" style="fill:rgb(48, 48, 48);stroke:rgb(48, 48, 48);"/><text class="clickable sprotty-label port" id="sprotty_ArchitectureBlockImpl$dmi_wrapper/BPortImpl$reg_wr_data/label" transform="translate(-76.53125, 6) translate(35.265625, 14)" style="cursor:default;font-size:12px;perspective-origin:0px 0px;fill:rgb(48, 48, 48);text-anchor:middle;">reg_wr_data</text></g><g id="sprotty_ArchitectureBlockImpl$dmi_wrapper/BPortImpl$reg_wr_addr" class="triangle" transform="translate(842.0625, 181)"><path d="M 0,0 L 5,2.5 L 0,5 Z" transform="translate(-1.67, -2.5)" class="sprotty-port" style="fill:rgb(48, 48, 48);stroke:rgb(48, 48, 48);"/><text class="clickable sprotty-label port" id="sprotty_ArchitectureBlockImpl$dmi_wrapper/BPortImpl$reg_wr_addr/label" transform="translate(-77.84375, 6) translate(35.90625, 14)" style="cursor:default;font-size:12px;perspective-origin:0.015625px 0px;fill:rgb(48, 48, 48);text-anchor:middle;">reg_wr_addr</text></g><g id="sprotty_ArchitectureBlockImpl$dmi_wrapper/BPortImpl$reg_en" class="triangle" transform="translate(842.0625, 304)"><path d="M 0,0 L 5,2.5 L 0,5 Z" transform="translate(-1.67, -2.5)" class="sprotty-port" style="fill:rgb(48, 48, 48);stroke:rgb(48, 48, 48);"/><text class="clickable sprotty-label port" id="sprotty_ArchitectureBlockImpl$dmi_wrapper/BPortImpl$reg_en/label" transform="translate(-44.5, 6) translate(19.25, 14)" style="cursor:default;font-size:12px;perspective-origin:0px 0px;fill:rgb(48, 48, 48);text-anchor:middle;">reg_en</text></g><g id="sprotty_ArchitectureBlockImpl$dmi_wrapper/BPortImpl$reg_wr_en" class="triangle" transform="translate(842.0625, 388)"><path d="M 0,0 L 5,2.5 L 0,5 Z" transform="translate(-1.67, -2.5)" class="sprotty-port" style="fill:rgb(48, 48, 48);stroke:rgb(48, 48, 48);"/><text class="clickable sprotty-label port" id="sprotty_ArchitectureBlockImpl$dmi_wrapper/BPortImpl$reg_wr_en/label" transform="translate(-65.5, 6) translate(29.75, 14)" style="cursor:default;font-size:12px;perspective-origin:0px 0px;fill:rgb(48, 48, 48);text-anchor:middle;">reg_wr_en</text></g><g id="sprotty_ArchitectureBlockImpl$dmi_wrapper/BPortImpl$dmi_hard_reset" class="triangle" transform="translate(842.0625, 254)"><path d="M 0,0 L 5,2.5 L 0,5 Z" transform="translate(-1.67, -2.5)" class="sprotty-port" style="fill:rgb(48, 48, 48);stroke:rgb(48, 48, 48);"/><text class="clickable sprotty-label port" id="sprotty_ArchitectureBlockImpl$dmi_wrapper/BPortImpl$dmi_hard_reset/label" transform="translate(-95.125, 6) translate(44.5625, 14)" style="cursor:default;font-size:12px;perspective-origin:0px 0px;fill:rgb(48, 48, 48);text-anchor:middle;">dmi_hard_reset</text></g></g></g></svg>