<svg xmlns="http://www.w3.org/2000/svg" id="sprotty_work.eh2_dec_trigger" class="sprotty-graph sprotty-block-diagram blockdiagram" style="font-family:&quot;Noto Sans&quot;, Helvetica, Arial, sans-serif;perspective-origin:0px 0px;transform-origin:0px 0px;" version="1.1" viewBox="7 7 741.6875 396" width="741.6875" height="396"><g transform="scale(1) translate(0,0)"><g id="sprotty_ArchitectureBlockImpl$eh2_dec_trigger" class="architecture" transform="translate(12, 12)"><g class="sprotty-block" style="fill:rgb(255, 255, 255);stroke:rgb(48, 48, 48);stroke-dasharray:0px;"><rect x="0" y="0" rx="1" ry="1" width="731.6875" height="386"/><text x="365.84375" y="12" class="sprotty-block-name" style="cursor:pointer;font-weight:700;perspective-origin:365.859px 0px;fill:rgb(48, 48, 48);stroke:rgba(0, 0, 0, 0);dominant-baseline:middle;text-anchor:middle;">eh2_dec_trigger</text><line x1="0" y1="20" x2="731.6875" y2="20"/></g><g id="sprotty_ArchitectureBlockImpl$eh2_dec_trigger/GenerateStatementBlockImpl$null7/GPortImpl$dec_i0_trigger_match_d_to_ArchitectureBlockImpl$eh2_dec_trigger/BPortImpl$dec_i0_trigger_match_d" class="sprotty-edge thick edge" style="fill:none;stroke:rgb(112, 112, 112);stroke-linejoin:round;stroke-width:3px;"><g><path d="M 573.6875 290 L 731.6875 290 "/><path d="M 573.6875 290 L 731.6875 290 " class="clickable"/></g></g><g id="sprotty_ArchitectureBlockImpl$eh2_dec_trigger/GenerateStatementBlockImpl$null7/GPortImpl$dec_i1_trigger_match_d_to_ArchitectureBlockImpl$eh2_dec_trigger/BPortImpl$dec_i1_trigger_match_d" class="sprotty-edge thick edge" style="fill:none;stroke:rgb(112, 112, 112);stroke-linejoin:round;stroke-width:3px;"><g><path d="M 573.6875 70 L 731.6875 70 "/><path d="M 573.6875 70 L 731.6875 70 " class="clickable"/></g></g><g id="sprotty_ArchitectureBlockImpl$eh2_dec_trigger/BPortImpl$trigger_pkt_any_to_ArchitectureBlockImpl$eh2_dec_trigger/GenerateStatementBlockImpl$null7/GPortImpl$trigger_pkt_any" class="sprotty-edge thick edge" style="fill:none;stroke:rgb(112, 112, 112);stroke-linejoin:round;stroke-width:3px;"><g><path d="M 0 176 L 130.21875 176 "/><path d="M 0 176 L 130.21875 176 " class="clickable"/></g></g><g id="sprotty_ArchitectureBlockImpl$eh2_dec_trigger/BPortImpl$i0_ap_to_ArchitectureBlockImpl$eh2_dec_trigger/GenerateStatementBlockImpl$null7/GPortImpl$i0_ap" class="sprotty-edge thick edge" style="fill:none;stroke:rgb(112, 112, 112);stroke-linejoin:round;stroke-width:3px;"><g><path d="M 0 347 L 130.21875 347 "/><path d="M 0 347 L 130.21875 347 " class="clickable"/></g></g><g id="sprotty_ArchitectureBlockImpl$eh2_dec_trigger/BPortImpl$dec_i0_pc_d_to_ArchitectureBlockImpl$eh2_dec_trigger/GenerateStatementBlockImpl$null7/GPortImpl$dec_i0_pc_d" class="sprotty-edge thick edge" style="fill:none;stroke:rgb(112, 112, 112);stroke-linejoin:round;stroke-width:3px;"><g><path d="M 0 280 L 130.21875 280 "/><path d="M 0 280 L 130.21875 280 " class="clickable"/></g></g><g id="sprotty_ArchitectureBlockImpl$eh2_dec_trigger/BPortImpl$i1_ap_to_ArchitectureBlockImpl$eh2_dec_trigger/GenerateStatementBlockImpl$null7/GPortImpl$i1_ap" class="sprotty-edge thick edge" style="fill:none;stroke:rgb(112, 112, 112);stroke-linejoin:round;stroke-width:3px;"><g><path d="M 0 60 L 130.21875 60 "/><path d="M 0 60 L 130.21875 60 " class="clickable"/></g></g><g id="sprotty_ArchitectureBlockImpl$eh2_dec_trigger/BPortImpl$dec_i1_pc_d_to_ArchitectureBlockImpl$eh2_dec_trigger/GenerateStatementBlockImpl$null7/GPortImpl$dec_i1_pc_d" class="sprotty-edge thick edge" style="fill:none;stroke:rgb(112, 112, 112);stroke-linejoin:round;stroke-width:3px;"><g><path d="M 0 142 L 118.21875 142 C 119.21875 142 120.21875 143 120.21875 144 L 120.21875 144 C 120.21875 144.5 121.21875 145 122.21875 145 L 130.21875 145 "/><path d="M 0 142 L 118.21875 142 C 119.21875 142 120.21875 143 120.21875 144 L 120.21875 144 C 120.21875 144.5 121.21875 145 122.21875 145 L 130.21875 145 " class="clickable"/></g></g><g id="sprotty_ArchitectureBlockImpl$eh2_dec_trigger/GenerateStatementBlockImpl$null7" class="generate" transform="translate(130.21875, 35)"><g class="sprotty-block sprotty-block-generate" style="fill:rgb(255, 255, 255);stroke:rgb(48, 48, 48);stroke-dasharray:0px;"><rect x="0" y="0" rx="1" ry="1" width="443.46875" height="329" style="stroke-dasharray:3px, 1px;"/><text x="221.734375" y="12" class="sprotty-block-name" style="cursor:pointer;font-weight:700;fill:rgb(48, 48, 48);stroke:rgba(0, 0, 0, 0);dominant-baseline:middle;text-anchor:middle;"/></g><g id="sprotty_ArchitectureBlockImpl$eh2_dec_trigger/GenerateStatementBlockImpl$null7/AssignmentBlockImpl$dec_i0_trigger_match_d/GPortImpl$dec_i0_trigger_match_dOUT_to_ArchitectureBlockImpl$eh2_dec_trigger/GenerateStatementBlockImpl$null7/GPortImpl$dec_i0_trigger_match_d" class="sprotty-edge thick edge" style="fill:none;stroke:rgb(112, 112, 112);stroke-linejoin:round;stroke-width:3px;"><g><path d="M 428.46875 255 L 443.46875 255 "/><path d="M 428.46875 255 L 443.46875 255 " class="clickable"/></g></g><g id="sprotty_ArchitectureBlockImpl$eh2_dec_trigger/GenerateStatementBlockImpl$null7/AssignmentBlockImpl$dec_i1_trigger_match_d/GPortImpl$dec_i1_trigger_match_dOUT_to_ArchitectureBlockImpl$eh2_dec_trigger/GenerateStatementBlockImpl$null7/GPortImpl$dec_i1_trigger_match_d" class="sprotty-edge thick edge" style="fill:none;stroke:rgb(112, 112, 112);stroke-linejoin:round;stroke-width:3px;"><g><path d="M 428.46875 35 L 443.46875 35 "/><path d="M 428.46875 35 L 443.46875 35 " class="clickable"/></g></g><g id="sprotty_ArchitectureBlockImpl$eh2_dec_trigger/GenerateStatementBlockImpl$null7/GPortImpl$trigger_pkt_any_to_ArchitectureBlockImpl$eh2_dec_trigger/GenerateStatementBlockImpl$null7/InstantiationBlockImpl$trigger_i0_match/BPortImpl$mask" class="sprotty-edge thick edge" style="fill:none;stroke:rgb(112, 112, 112);stroke-linejoin:round;stroke-width:3px;"><g><path d="M 0 141 L 62.4375 141 C 63.4375 141 64.4375 142 64.4375 143 L 64.4375 215 C 64.4375 216 65.4375 217 66.4375 217 L 84.4375 217 "/><path d="M 0 141 L 62.4375 141 C 63.4375 141 64.4375 142 64.4375 143 L 64.4375 215 C 64.4375 216 65.4375 217 66.4375 217 L 84.4375 217 " class="clickable"/></g><circle r="3" id="sprotty_ArchitectureBlockImpl$eh2_dec_trigger/GenerateStatementBlockImpl$null7/GPortImpl$trigger_pkt_any_to_ArchitectureBlockImpl$eh2_dec_trigger/GenerateStatementBlockImpl$null7/InstantiationBlockImpl$trigger_i0_match/BPortImpl$mask/junction0" transform="translate(64.4375, 217)" class="sprotty-junction thick" style="fill:rgb(112, 112, 112);stroke:none;"/></g><g id="sprotty_ArchitectureBlockImpl$eh2_dec_trigger/GenerateStatementBlockImpl$null7/GPortImpl$trigger_pkt_any_to_ArchitectureBlockImpl$eh2_dec_trigger/GenerateStatementBlockImpl$null7/InstantiationBlockImpl$trigger_i0_match/BPortImpl$masken" class="sprotty-edge thick edge" style="fill:none;stroke:rgb(112, 112, 112);stroke-linejoin:round;stroke-width:3px;"><g><path d="M 0 141 L 62.4375 141 C 63.4375 141 64.4375 142 64.4375 143 L 64.4375 271 C 64.4375 272 65.4375 273 66.4375 273 L 84.4375 273 "/><path d="M 0 141 L 62.4375 141 C 63.4375 141 64.4375 142 64.4375 143 L 64.4375 271 C 64.4375 272 65.4375 273 66.4375 273 L 84.4375 273 " class="clickable"/></g><circle r="3" id="sprotty_ArchitectureBlockImpl$eh2_dec_trigger/GenerateStatementBlockImpl$null7/GPortImpl$trigger_pkt_any_to_ArchitectureBlockImpl$eh2_dec_trigger/GenerateStatementBlockImpl$null7/InstantiationBlockImpl$trigger_i0_match/BPortImpl$masken/junction0" transform="translate(64.4375, 273)" class="sprotty-junction thick" style="fill:rgb(112, 112, 112);stroke:none;"/></g><g id="sprotty_ArchitectureBlockImpl$eh2_dec_trigger/GenerateStatementBlockImpl$null7/GPortImpl$trigger_pkt_any_to_ArchitectureBlockImpl$eh2_dec_trigger/GenerateStatementBlockImpl$null7/InstantiationBlockImpl$trigger_i1_match/BPortImpl$mask" class="sprotty-edge thick edge" style="fill:none;stroke:rgb(112, 112, 112);stroke-linejoin:round;stroke-width:3px;"><g><path d="M 0 141 L 62.4375 141 C 63.4375 141 64.4375 140 64.4375 139 L 64.4375 87 C 64.4375 86 65.4375 85 66.4375 85 L 84.4375 85 "/><path d="M 0 141 L 62.4375 141 C 63.4375 141 64.4375 140 64.4375 139 L 64.4375 87 C 64.4375 86 65.4375 85 66.4375 85 L 84.4375 85 " class="clickable"/></g><circle r="3" id="sprotty_ArchitectureBlockImpl$eh2_dec_trigger/GenerateStatementBlockImpl$null7/GPortImpl$trigger_pkt_any_to_ArchitectureBlockImpl$eh2_dec_trigger/GenerateStatementBlockImpl$null7/InstantiationBlockImpl$trigger_i1_match/BPortImpl$mask/junction0" transform="translate(64.4375, 85)" class="sprotty-junction thick" style="fill:rgb(112, 112, 112);stroke:none;"/></g><g id="sprotty_ArchitectureBlockImpl$eh2_dec_trigger/GenerateStatementBlockImpl$null7/GPortImpl$trigger_pkt_any_to_ArchitectureBlockImpl$eh2_dec_trigger/GenerateStatementBlockImpl$null7/InstantiationBlockImpl$trigger_i1_match/BPortImpl$masken" class="sprotty-edge thick edge" style="fill:none;stroke:rgb(112, 112, 112);stroke-linejoin:round;stroke-width:3px;"><g><path d="M 0 141 L 84.4375 141 "/><path d="M 0 141 L 84.4375 141 " class="clickable"/></g></g><g id="sprotty_ArchitectureBlockImpl$eh2_dec_trigger/GenerateStatementBlockImpl$null7/GPortImpl$trigger_pkt_any_to_ArchitectureBlockImpl$eh2_dec_trigger/GenerateStatementBlockImpl$null7/AssignmentBlockImpl$dec_i0_match_data/GPortImpl$trigger_pkt_anyIN" class="sprotty-edge thick edge" style="fill:none;stroke:rgb(112, 112, 112);stroke-linejoin:round;stroke-width:3px;"><g><path d="M 0 141 L 23 141 C 24 141 25 142 25 143 L 25 233 C 25 234 26 235 27 235 L 35 235 "/><path d="M 0 141 L 23 141 C 24 141 25 142 25 143 L 25 233 C 25 234 26 235 27 235 L 35 235 " class="clickable"/></g><circle r="3" id="sprotty_ArchitectureBlockImpl$eh2_dec_trigger/GenerateStatementBlockImpl$null7/GPortImpl$trigger_pkt_any_to_ArchitectureBlockImpl$eh2_dec_trigger/GenerateStatementBlockImpl$null7/AssignmentBlockImpl$dec_i0_match_data/GPortImpl$trigger_pkt_anyIN/junction0" transform="translate(25, 141)" class="sprotty-junction thick" style="fill:rgb(112, 112, 112);stroke:none;"/></g><g id="sprotty_ArchitectureBlockImpl$eh2_dec_trigger/GenerateStatementBlockImpl$null7/GPortImpl$i0_ap_to_ArchitectureBlockImpl$eh2_dec_trigger/GenerateStatementBlockImpl$null7/AssignmentBlockImpl$dec_i0_match_data/GPortImpl$i0_apIN" class="sprotty-edge thick edge" style="fill:none;stroke:rgb(112, 112, 112);stroke-linejoin:round;stroke-width:3px;"><g><path d="M 0 312 L 23 312 C 24 312 25 311 25 310 L 25 257 C 25 256 26 255 27 255 L 35 255 "/><path d="M 0 312 L 23 312 C 24 312 25 311 25 310 L 25 257 C 25 256 26 255 27 255 L 35 255 " class="clickable"/></g><circle r="3" id="sprotty_ArchitectureBlockImpl$eh2_dec_trigger/GenerateStatementBlockImpl$null7/GPortImpl$i0_ap_to_ArchitectureBlockImpl$eh2_dec_trigger/GenerateStatementBlockImpl$null7/AssignmentBlockImpl$dec_i0_match_data/GPortImpl$i0_apIN/junction0" transform="translate(25, 312)" class="sprotty-junction thick" style="fill:rgb(112, 112, 112);stroke:none;"/></g><g id="sprotty_ArchitectureBlockImpl$eh2_dec_trigger/GenerateStatementBlockImpl$null7/GPortImpl$dec_i0_pc_d_to_ArchitectureBlockImpl$eh2_dec_trigger/GenerateStatementBlockImpl$null7/AssignmentBlockImpl$dec_i0_match_data/GPortImpl$dec_i0_pc_dIN" class="sprotty-edge thick edge" style="fill:none;stroke:rgb(112, 112, 112);stroke-linejoin:round;stroke-width:3px;"><g><path d="M 0 245 L 35 245 "/><path d="M 0 245 L 35 245 " class="clickable"/></g></g><g id="sprotty_ArchitectureBlockImpl$eh2_dec_trigger/GenerateStatementBlockImpl$null7/GPortImpl$trigger_pkt_any_to_ArchitectureBlockImpl$eh2_dec_trigger/GenerateStatementBlockImpl$null7/AssignmentBlockImpl$dec_i1_match_data/GPortImpl$trigger_pkt_anyIN" class="sprotty-edge thick edge" style="fill:none;stroke:rgb(112, 112, 112);stroke-linejoin:round;stroke-width:3px;"><g><path d="M 0 141 L 23 141 C 24 141 25 140 25 139 L 25 122 C 25 121 26 120 27 120 L 35 120 "/><path d="M 0 141 L 23 141 C 24 141 25 140 25 139 L 25 122 C 25 121 26 120 27 120 L 35 120 " class="clickable"/></g></g><g id="sprotty_ArchitectureBlockImpl$eh2_dec_trigger/GenerateStatementBlockImpl$null7/GPortImpl$i1_ap_to_ArchitectureBlockImpl$eh2_dec_trigger/GenerateStatementBlockImpl$null7/AssignmentBlockImpl$dec_i1_match_data/GPortImpl$i1_apIN" class="sprotty-edge thick edge" style="fill:none;stroke:rgb(112, 112, 112);stroke-linejoin:round;stroke-width:3px;"><g><path d="M 0 25 L 23 25 C 24 25 25 26 25 27 L 25 98 C 25 99 26 100 27 100 L 35 100 "/><path d="M 0 25 L 23 25 C 24 25 25 26 25 27 L 25 98 C 25 99 26 100 27 100 L 35 100 " class="clickable"/></g><circle r="3" id="sprotty_ArchitectureBlockImpl$eh2_dec_trigger/GenerateStatementBlockImpl$null7/GPortImpl$i1_ap_to_ArchitectureBlockImpl$eh2_dec_trigger/GenerateStatementBlockImpl$null7/AssignmentBlockImpl$dec_i1_match_data/GPortImpl$i1_apIN/junction0" transform="translate(25, 25)" class="sprotty-junction thick" style="fill:rgb(112, 112, 112);stroke:none;"/></g><g id="sprotty_ArchitectureBlockImpl$eh2_dec_trigger/GenerateStatementBlockImpl$null7/GPortImpl$dec_i1_pc_d_to_ArchitectureBlockImpl$eh2_dec_trigger/GenerateStatementBlockImpl$null7/AssignmentBlockImpl$dec_i1_match_data/GPortImpl$dec_i1_pc_dIN" class="sprotty-edge thick edge" style="fill:none;stroke:rgb(112, 112, 112);stroke-linejoin:round;stroke-width:3px;"><g><path d="M 0 110 L 35 110 "/><path d="M 0 110 L 35 110 " class="clickable"/></g></g><g id="sprotty_ArchitectureBlockImpl$eh2_dec_trigger/GenerateStatementBlockImpl$null7/GPortImpl$trigger_pkt_any_to_ArchitectureBlockImpl$eh2_dec_trigger/GenerateStatementBlockImpl$null7/AssignmentBlockImpl$dec_i0_trigger_match_d/GPortImpl$trigger_pkt_anyIN" class="sprotty-edge thick edge" style="fill:none;stroke:rgb(112, 112, 112);stroke-linejoin:round;stroke-width:3px;"><g><path d="M 0 141 L 62.4375 141 C 63.4375 141 64.4375 142 64.4375 143 L 64.4375 300 C 64.4375 301 65.4375 302 66.4375 302 L 387.03125 302 C 388.03125 302 389.03125 301 389.03125 300 L 389.03125 257 C 389.03125 256 390.03125 255 391.03125 255 L 409.03125 255 "/><path d="M 0 141 L 62.4375 141 C 63.4375 141 64.4375 142 64.4375 143 L 64.4375 300 C 64.4375 301 65.4375 302 66.4375 302 L 387.03125 302 C 388.03125 302 389.03125 301 389.03125 300 L 389.03125 257 C 389.03125 256 390.03125 255 391.03125 255 L 409.03125 255 " class="clickable"/></g></g><g id="sprotty_ArchitectureBlockImpl$eh2_dec_trigger/GenerateStatementBlockImpl$null7/GPortImpl$i0_ap_to_ArchitectureBlockImpl$eh2_dec_trigger/GenerateStatementBlockImpl$null7/AssignmentBlockImpl$dec_i0_trigger_match_d/GPortImpl$i0_apIN" class="sprotty-edge thick edge" style="fill:none;stroke:rgb(112, 112, 112);stroke-linejoin:round;stroke-width:3px;"><g><path d="M 0 312 L 397.03125 312 C 398.03125 312 399.03125 311 399.03125 310 L 399.03125 267 C 399.03125 266 400.03125 265 401.03125 265 L 409.03125 265 "/><path d="M 0 312 L 397.03125 312 C 398.03125 312 399.03125 311 399.03125 310 L 399.03125 267 C 399.03125 266 400.03125 265 401.03125 265 L 409.03125 265 " class="clickable"/></g></g><g id="sprotty_ArchitectureBlockImpl$eh2_dec_trigger/GenerateStatementBlockImpl$null7/GPortImpl$trigger_pkt_any_to_ArchitectureBlockImpl$eh2_dec_trigger/GenerateStatementBlockImpl$null7/AssignmentBlockImpl$dec_i1_trigger_match_d/GPortImpl$trigger_pkt_anyIN" class="sprotty-edge thick edge" style="fill:none;stroke:rgb(112, 112, 112);stroke-linejoin:round;stroke-width:3px;"><g><path d="M 0 141 L 62.4375 141 C 63.4375 141 64.4375 140 64.4375 139 L 64.4375 37 C 64.4375 36 65.4375 35 66.4375 35 L 409.03125 35 "/><path d="M 0 141 L 62.4375 141 C 63.4375 141 64.4375 140 64.4375 139 L 64.4375 37 C 64.4375 36 65.4375 35 66.4375 35 L 409.03125 35 " class="clickable"/></g><circle r="3" id="sprotty_ArchitectureBlockImpl$eh2_dec_trigger/GenerateStatementBlockImpl$null7/GPortImpl$trigger_pkt_any_to_ArchitectureBlockImpl$eh2_dec_trigger/GenerateStatementBlockImpl$null7/AssignmentBlockImpl$dec_i1_trigger_match_d/GPortImpl$trigger_pkt_anyIN/junction0" transform="translate(64.4375, 141)" class="sprotty-junction thick" style="fill:rgb(112, 112, 112);stroke:none;"/></g><g id="sprotty_ArchitectureBlockImpl$eh2_dec_trigger/GenerateStatementBlockImpl$null7/GPortImpl$i1_ap_to_ArchitectureBlockImpl$eh2_dec_trigger/GenerateStatementBlockImpl$null7/AssignmentBlockImpl$dec_i1_trigger_match_d/GPortImpl$i1_apIN" class="sprotty-edge thick edge" style="fill:none;stroke:rgb(112, 112, 112);stroke-linejoin:round;stroke-width:3px;"><g><path d="M 0 25 L 409.03125 25 "/><path d="M 0 25 L 409.03125 25 " class="clickable"/></g></g><g id="sprotty_ArchitectureBlockImpl$eh2_dec_trigger/GenerateStatementBlockImpl$null7/AssignmentBlockImpl$dec_i1_match_data/GPortImpl$dec_i1_match_dataOUT_to_ArchitectureBlockImpl$eh2_dec_trigger/GenerateStatementBlockImpl$null7/InstantiationBlockImpl$trigger_i1_match/BPortImpl$data" class="sprotty-edge thick edge" style="fill:none;stroke:rgb(112, 112, 112);stroke-linejoin:round;stroke-width:3px;"><g><path d="M 54.4375 110 L 72.4375 110 C 73.4375 110 74.4375 111 74.4375 112 L 74.4375 112 C 74.4375 112.5 75.4375 113 76.4375 113 L 84.4375 113 "/><path d="M 54.4375 110 L 72.4375 110 C 73.4375 110 74.4375 111 74.4375 112 L 74.4375 112 C 74.4375 112.5 75.4375 113 76.4375 113 L 84.4375 113 " class="clickable"/></g></g><g id="sprotty_ArchitectureBlockImpl$eh2_dec_trigger/GenerateStatementBlockImpl$null7/InstantiationBlockImpl$trigger_i1_match/BPortImpl$match_to_ArchitectureBlockImpl$eh2_dec_trigger/GenerateStatementBlockImpl$null7/AssignmentBlockImpl$dec_i1_trigger_match_d/GPortImpl$dec_i1_trigger_data_matchIN" class="sprotty-edge thick edge" style="fill:none;stroke:rgb(112, 112, 112);stroke-linejoin:round;stroke-width:3px;"><g><path d="M 379.03125 113 L 387.03125 113 C 388.03125 113 389.03125 112 389.03125 111 L 389.03125 47 C 389.03125 46 390.03125 45 391.03125 45 L 409.03125 45 "/><path d="M 379.03125 113 L 387.03125 113 C 388.03125 113 389.03125 112 389.03125 111 L 389.03125 47 C 389.03125 46 390.03125 45 391.03125 45 L 409.03125 45 " class="clickable"/></g></g><g id="sprotty_ArchitectureBlockImpl$eh2_dec_trigger/GenerateStatementBlockImpl$null7/AssignmentBlockImpl$dec_i0_match_data/GPortImpl$dec_i0_match_dataOUT_to_ArchitectureBlockImpl$eh2_dec_trigger/GenerateStatementBlockImpl$null7/InstantiationBlockImpl$trigger_i0_match/BPortImpl$data" class="sprotty-edge thick edge" style="fill:none;stroke:rgb(112, 112, 112);stroke-linejoin:round;stroke-width:3px;"><g><path d="M 54.4375 245 L 84.4375 245 "/><path d="M 54.4375 245 L 84.4375 245 " class="clickable"/></g></g><g id="sprotty_ArchitectureBlockImpl$eh2_dec_trigger/GenerateStatementBlockImpl$null7/InstantiationBlockImpl$trigger_i0_match/BPortImpl$match_to_ArchitectureBlockImpl$eh2_dec_trigger/GenerateStatementBlockImpl$null7/AssignmentBlockImpl$dec_i0_trigger_match_d/GPortImpl$dec_i0_trigger_data_matchIN" class="sprotty-edge thick edge" style="fill:none;stroke:rgb(112, 112, 112);stroke-linejoin:round;stroke-width:3px;"><g><path d="M 379.03125 245 L 409.03125 245 "/><path d="M 379.03125 245 L 409.03125 245 " class="clickable"/></g></g><g id="sprotty_ArchitectureBlockImpl$eh2_dec_trigger/GenerateStatementBlockImpl$null7/AssignmentBlockImpl$dec_i1_trigger_match_d" class="statement" transform="translate(409.03125, 15)"><rect x="0" y="0" rx="10" ry="5" width="19.4375" height="40" class="sprotty-node" style="fill:rgb(245, 245, 245);stroke:rgb(112, 112, 112);"/><text class="clickable sprotty-label statementtype" id="sprotty_ArchitectureBlockImpl$eh2_dec_trigger/GenerateStatementBlockImpl$null7/AssignmentBlockImpl$dec_i1_trigger_match_d/labeltype" transform="translate(5, 14) translate(4.71875, 9)" style="cursor:default;font-size:8px;font-weight:700;perspective-origin:0px 0px;fill:rgb(112, 112, 112);text-anchor:middle;">&lt;=</text><g id="sprotty_ArchitectureBlockImpl$eh2_dec_trigger/GenerateStatementBlockImpl$null7/AssignmentBlockImpl$dec_i1_trigger_match_d/GPortImpl$dec_i1_trigger_data_matchIN" class="sprotty-hidden hidden" transform="translate(0, 30)" style="display:block;height:0px;width:0px;"/><g id="sprotty_ArchitectureBlockImpl$eh2_dec_trigger/GenerateStatementBlockImpl$null7/AssignmentBlockImpl$dec_i1_trigger_match_d/GPortImpl$i1_apIN" class="sprotty-hidden hidden" transform="translate(0, 10)" style="display:block;height:0px;width:0px;"/><g id="sprotty_ArchitectureBlockImpl$eh2_dec_trigger/GenerateStatementBlockImpl$null7/AssignmentBlockImpl$dec_i1_trigger_match_d/GPortImpl$trigger_pkt_anyIN" class="sprotty-hidden hidden" transform="translate(0, 20)" style="display:block;height:0px;width:0px;"/><g id="sprotty_ArchitectureBlockImpl$eh2_dec_trigger/GenerateStatementBlockImpl$null7/AssignmentBlockImpl$dec_i1_trigger_match_d/GPortImpl$dec_i1_trigger_match_dOUT" class="sprotty-hidden hidden" transform="translate(19.4375, 20)" style="display:block;height:0px;width:0px;"/></g><g id="sprotty_ArchitectureBlockImpl$eh2_dec_trigger/GenerateStatementBlockImpl$null7/AssignmentBlockImpl$dec_i0_trigger_match_d" class="statement" transform="translate(409.03125, 235)"><rect x="0" y="0" rx="10" ry="5" width="19.4375" height="40" class="sprotty-node" style="fill:rgb(245, 245, 245);stroke:rgb(112, 112, 112);"/><text class="clickable sprotty-label statementtype" id="sprotty_ArchitectureBlockImpl$eh2_dec_trigger/GenerateStatementBlockImpl$null7/AssignmentBlockImpl$dec_i0_trigger_match_d/labeltype" transform="translate(5, 14) translate(4.71875, 9)" style="cursor:default;font-size:8px;font-weight:700;perspective-origin:0px 0px;fill:rgb(112, 112, 112);text-anchor:middle;">&lt;=</text><g id="sprotty_ArchitectureBlockImpl$eh2_dec_trigger/GenerateStatementBlockImpl$null7/AssignmentBlockImpl$dec_i0_trigger_match_d/GPortImpl$dec_i0_trigger_data_matchIN" class="sprotty-hidden hidden" transform="translate(0, 10)" style="display:block;height:0px;width:0px;"/><g id="sprotty_ArchitectureBlockImpl$eh2_dec_trigger/GenerateStatementBlockImpl$null7/AssignmentBlockImpl$dec_i0_trigger_match_d/GPortImpl$i0_apIN" class="sprotty-hidden hidden" transform="translate(0, 30)" style="display:block;height:0px;width:0px;"/><g id="sprotty_ArchitectureBlockImpl$eh2_dec_trigger/GenerateStatementBlockImpl$null7/AssignmentBlockImpl$dec_i0_trigger_match_d/GPortImpl$trigger_pkt_anyIN" class="sprotty-hidden hidden" transform="translate(0, 20)" style="display:block;height:0px;width:0px;"/><g id="sprotty_ArchitectureBlockImpl$eh2_dec_trigger/GenerateStatementBlockImpl$null7/AssignmentBlockImpl$dec_i0_trigger_match_d/GPortImpl$dec_i0_trigger_match_dOUT" class="sprotty-hidden hidden" transform="translate(19.4375, 20)" style="display:block;height:0px;width:0px;"/></g><g id="sprotty_ArchitectureBlockImpl$eh2_dec_trigger/GenerateStatementBlockImpl$null7/AssignmentBlockImpl$dec_i1_match_data" class="statement" transform="translate(35, 90)"><rect x="0" y="0" rx="10" ry="5" width="19.4375" height="40" class="sprotty-node" style="fill:rgb(245, 245, 245);stroke:rgb(112, 112, 112);"/><text class="clickable sprotty-label statementtype" id="sprotty_ArchitectureBlockImpl$eh2_dec_trigger/GenerateStatementBlockImpl$null7/AssignmentBlockImpl$dec_i1_match_data/labeltype" transform="translate(5, 14) translate(4.71875, 9)" style="cursor:default;font-size:8px;font-weight:700;perspective-origin:0px 0px;fill:rgb(112, 112, 112);text-anchor:middle;">&lt;=</text><g id="sprotty_ArchitectureBlockImpl$eh2_dec_trigger/GenerateStatementBlockImpl$null7/AssignmentBlockImpl$dec_i1_match_data/GPortImpl$dec_i1_pc_dIN" class="sprotty-hidden hidden" transform="translate(0, 20)" style="display:block;height:0px;width:0px;"/><g id="sprotty_ArchitectureBlockImpl$eh2_dec_trigger/GenerateStatementBlockImpl$null7/AssignmentBlockImpl$dec_i1_match_data/GPortImpl$i1_apIN" class="sprotty-hidden hidden" transform="translate(0, 10)" style="display:block;height:0px;width:0px;"/><g id="sprotty_ArchitectureBlockImpl$eh2_dec_trigger/GenerateStatementBlockImpl$null7/AssignmentBlockImpl$dec_i1_match_data/GPortImpl$trigger_pkt_anyIN" class="sprotty-hidden hidden" transform="translate(0, 30)" style="display:block;height:0px;width:0px;"/><g id="sprotty_ArchitectureBlockImpl$eh2_dec_trigger/GenerateStatementBlockImpl$null7/AssignmentBlockImpl$dec_i1_match_data/GPortImpl$dec_i1_match_dataOUT" class="sprotty-hidden hidden" transform="translate(19.4375, 20)" style="display:block;height:0px;width:0px;"/></g><g id="sprotty_ArchitectureBlockImpl$eh2_dec_trigger/GenerateStatementBlockImpl$null7/AssignmentBlockImpl$dec_i0_match_data" class="statement" transform="translate(35, 225)"><rect x="0" y="0" rx="10" ry="5" width="19.4375" height="40" class="sprotty-node" style="fill:rgb(245, 245, 245);stroke:rgb(112, 112, 112);"/><text class="clickable sprotty-label statementtype" id="sprotty_ArchitectureBlockImpl$eh2_dec_trigger/GenerateStatementBlockImpl$null7/AssignmentBlockImpl$dec_i0_match_data/labeltype" transform="translate(5, 14) translate(4.71875, 9)" style="cursor:default;font-size:8px;font-weight:700;perspective-origin:0px 0px;fill:rgb(112, 112, 112);text-anchor:middle;">&lt;=</text><g id="sprotty_ArchitectureBlockImpl$eh2_dec_trigger/GenerateStatementBlockImpl$null7/AssignmentBlockImpl$dec_i0_match_data/GPortImpl$dec_i0_pc_dIN" class="sprotty-hidden hidden" transform="translate(0, 20)" style="display:block;height:0px;width:0px;"/><g id="sprotty_ArchitectureBlockImpl$eh2_dec_trigger/GenerateStatementBlockImpl$null7/AssignmentBlockImpl$dec_i0_match_data/GPortImpl$i0_apIN" class="sprotty-hidden hidden" transform="translate(0, 30)" style="display:block;height:0px;width:0px;"/><g id="sprotty_ArchitectureBlockImpl$eh2_dec_trigger/GenerateStatementBlockImpl$null7/AssignmentBlockImpl$dec_i0_match_data/GPortImpl$trigger_pkt_anyIN" class="sprotty-hidden hidden" transform="translate(0, 10)" style="display:block;height:0px;width:0px;"/><g id="sprotty_ArchitectureBlockImpl$eh2_dec_trigger/GenerateStatementBlockImpl$null7/AssignmentBlockImpl$dec_i0_match_data/GPortImpl$dec_i0_match_dataOUT" class="sprotty-hidden hidden" transform="translate(19.4375, 20)" style="display:block;height:0px;width:0px;"/></g><g id="sprotty_ArchitectureBlockImpl$eh2_dec_trigger/GenerateStatementBlockImpl$null7/InstantiationBlockImpl$trigger_i1_match" class="instantiation" transform="translate(84.4375, 47)"><g class="sprotty-block" style="fill:rgb(255, 255, 255);stroke:rgb(48, 48, 48);stroke-dasharray:0px;"><rect x="0" y="0" rx="1" ry="1" width="294.59375" height="112"/><text x="147.296875" y="12" class="sprotty-block-name" style="cursor:pointer;font-weight:700;perspective-origin:147.297px 0px;fill:rgb(48, 48, 48);stroke:rgba(0, 0, 0, 0);dominant-baseline:middle;text-anchor:middle;">trigger_i1_match : rvmaskandmatch</text><line x1="0" y1="20" x2="294.59375" y2="20"/></g><g id="sprotty_ArchitectureBlockImpl$eh2_dec_trigger/GenerateStatementBlockImpl$null7/InstantiationBlockImpl$trigger_i1_match/BPortImpl$masken" class="triangle" transform="translate(0, 94)"><path d="M 0,0 L 5,2.5 L 0,5 Z" transform="translate(-1.67, -2.5)" class="sprotty-port" style="fill:rgb(48, 48, 48);stroke:rgb(48, 48, 48);"/><text class="clickable sprotty-label port" id="sprotty_ArchitectureBlockImpl$eh2_dec_trigger/GenerateStatementBlockImpl$null7/InstantiationBlockImpl$trigger_i1_match/BPortImpl$masken/label" transform="translate(6, -9) translate(21.9375, 14)" style="cursor:default;font-size:12px;perspective-origin:0px 0px;fill:rgb(48, 48, 48);text-anchor:middle;">masken</text></g><g id="sprotty_ArchitectureBlockImpl$eh2_dec_trigger/GenerateStatementBlockImpl$null7/InstantiationBlockImpl$trigger_i1_match/BPortImpl$data" class="triangle" transform="translate(0, 66)"><path d="M 0,0 L 5,2.5 L 0,5 Z" transform="translate(-1.67, -2.5)" class="sprotty-port" style="fill:rgb(48, 48, 48);stroke:rgb(48, 48, 48);"/><text class="clickable sprotty-label port" id="sprotty_ArchitectureBlockImpl$eh2_dec_trigger/GenerateStatementBlockImpl$null7/InstantiationBlockImpl$trigger_i1_match/BPortImpl$data/label" transform="translate(6, -9) translate(12.53125, 14)" style="cursor:default;font-size:12px;perspective-origin:0px 0px;fill:rgb(48, 48, 48);text-anchor:middle;">data</text></g><g id="sprotty_ArchitectureBlockImpl$eh2_dec_trigger/GenerateStatementBlockImpl$null7/InstantiationBlockImpl$trigger_i1_match/BPortImpl$mask" class="triangle" transform="translate(0, 38)"><path d="M 0,0 L 5,2.5 L 0,5 Z" transform="translate(-1.67, -2.5)" class="sprotty-port" style="fill:rgb(48, 48, 48);stroke:rgb(48, 48, 48);"/><text class="clickable sprotty-label port" id="sprotty_ArchitectureBlockImpl$eh2_dec_trigger/GenerateStatementBlockImpl$null7/InstantiationBlockImpl$trigger_i1_match/BPortImpl$mask/label" transform="translate(6, -9) translate(15.0625, 14)" style="cursor:default;font-size:12px;perspective-origin:0px 0px;fill:rgb(48, 48, 48);text-anchor:middle;">mask</text></g><g id="sprotty_ArchitectureBlockImpl$eh2_dec_trigger/GenerateStatementBlockImpl$null7/InstantiationBlockImpl$trigger_i1_match/BPortImpl$match" class="triangle" transform="translate(294.59375, 66)"><path d="M 0,0 L 5,2.5 L 0,5 Z" transform="translate(-1.67, -2.5)" class="sprotty-port" style="fill:rgb(48, 48, 48);stroke:rgb(48, 48, 48);"/><text class="clickable sprotty-label port" id="sprotty_ArchitectureBlockImpl$eh2_dec_trigger/GenerateStatementBlockImpl$null7/InstantiationBlockImpl$trigger_i1_match/BPortImpl$match/label" transform="translate(-41.4375, -9) translate(17.71875, 14)" style="cursor:default;font-size:12px;perspective-origin:0px 0px;fill:rgb(48, 48, 48);text-anchor:middle;">match</text></g></g><g id="sprotty_ArchitectureBlockImpl$eh2_dec_trigger/GenerateStatementBlockImpl$null7/InstantiationBlockImpl$trigger_i0_match" class="instantiation" transform="translate(84.4375, 179)"><g class="sprotty-block" style="fill:rgb(255, 255, 255);stroke:rgb(48, 48, 48);stroke-dasharray:0px;"><rect x="0" y="0" rx="1" ry="1" width="294.59375" height="112"/><text x="147.296875" y="12" class="sprotty-block-name" style="cursor:pointer;font-weight:700;perspective-origin:147.297px 0px;fill:rgb(48, 48, 48);stroke:rgba(0, 0, 0, 0);dominant-baseline:middle;text-anchor:middle;">trigger_i0_match : rvmaskandmatch</text><line x1="0" y1="20" x2="294.59375" y2="20"/></g><g id="sprotty_ArchitectureBlockImpl$eh2_dec_trigger/GenerateStatementBlockImpl$null7/InstantiationBlockImpl$trigger_i0_match/BPortImpl$masken" class="triangle" transform="translate(0, 94)"><path d="M 0,0 L 5,2.5 L 0,5 Z" transform="translate(-1.67, -2.5)" class="sprotty-port" style="fill:rgb(48, 48, 48);stroke:rgb(48, 48, 48);"/><text class="clickable sprotty-label port" id="sprotty_ArchitectureBlockImpl$eh2_dec_trigger/GenerateStatementBlockImpl$null7/InstantiationBlockImpl$trigger_i0_match/BPortImpl$masken/label" transform="translate(6, -9) translate(21.9375, 14)" style="cursor:default;font-size:12px;perspective-origin:0px 0px;fill:rgb(48, 48, 48);text-anchor:middle;">masken</text></g><g id="sprotty_ArchitectureBlockImpl$eh2_dec_trigger/GenerateStatementBlockImpl$null7/InstantiationBlockImpl$trigger_i0_match/BPortImpl$data" class="triangle" transform="translate(0, 66)"><path d="M 0,0 L 5,2.5 L 0,5 Z" transform="translate(-1.67, -2.5)" class="sprotty-port" style="fill:rgb(48, 48, 48);stroke:rgb(48, 48, 48);"/><text class="clickable sprotty-label port" id="sprotty_ArchitectureBlockImpl$eh2_dec_trigger/GenerateStatementBlockImpl$null7/InstantiationBlockImpl$trigger_i0_match/BPortImpl$data/label" transform="translate(6, -9) translate(12.53125, 14)" style="cursor:default;font-size:12px;perspective-origin:0px 0px;fill:rgb(48, 48, 48);text-anchor:middle;">data</text></g><g id="sprotty_ArchitectureBlockImpl$eh2_dec_trigger/GenerateStatementBlockImpl$null7/InstantiationBlockImpl$trigger_i0_match/BPortImpl$mask" class="triangle" transform="translate(0, 38)"><path d="M 0,0 L 5,2.5 L 0,5 Z" transform="translate(-1.67, -2.5)" class="sprotty-port" style="fill:rgb(48, 48, 48);stroke:rgb(48, 48, 48);"/><text class="clickable sprotty-label port" id="sprotty_ArchitectureBlockImpl$eh2_dec_trigger/GenerateStatementBlockImpl$null7/InstantiationBlockImpl$trigger_i0_match/BPortImpl$mask/label" transform="translate(6, -9) translate(15.0625, 14)" style="cursor:default;font-size:12px;perspective-origin:0px 0px;fill:rgb(48, 48, 48);text-anchor:middle;">mask</text></g><g id="sprotty_ArchitectureBlockImpl$eh2_dec_trigger/GenerateStatementBlockImpl$null7/InstantiationBlockImpl$trigger_i0_match/BPortImpl$match" class="triangle" transform="translate(294.59375, 66)"><path d="M 0,0 L 5,2.5 L 0,5 Z" transform="translate(-1.67, -2.5)" class="sprotty-port" style="fill:rgb(48, 48, 48);stroke:rgb(48, 48, 48);"/><text class="clickable sprotty-label port" id="sprotty_ArchitectureBlockImpl$eh2_dec_trigger/GenerateStatementBlockImpl$null7/InstantiationBlockImpl$trigger_i0_match/BPortImpl$match/label" transform="translate(-41.4375, -9) translate(17.71875, 14)" style="cursor:default;font-size:12px;perspective-origin:0px 0px;fill:rgb(48, 48, 48);text-anchor:middle;">match</text></g></g><g id="sprotty_ArchitectureBlockImpl$eh2_dec_trigger/GenerateStatementBlockImpl$null7/GPortImpl$dec_i1_pc_d" class="triangle" transform="translate(0, 110)"><path d="M 0,0 L 5,2.5 L 0,5 Z" transform="translate(-1.67, -2.5)" class="sprotty-port" style="fill:rgb(48, 48, 48);stroke:rgb(48, 48, 48);"/></g><g id="sprotty_ArchitectureBlockImpl$eh2_dec_trigger/GenerateStatementBlockImpl$null7/GPortImpl$i1_ap" class="triangle" transform="translate(0, 25)"><path d="M 0,0 L 5,2.5 L 0,5 Z" transform="translate(-1.67, -2.5)" class="sprotty-port" style="fill:rgb(48, 48, 48);stroke:rgb(48, 48, 48);"/></g><g id="sprotty_ArchitectureBlockImpl$eh2_dec_trigger/GenerateStatementBlockImpl$null7/GPortImpl$dec_i0_pc_d" class="triangle" transform="translate(0, 245)"><path d="M 0,0 L 5,2.5 L 0,5 Z" transform="translate(-1.67, -2.5)" class="sprotty-port" style="fill:rgb(48, 48, 48);stroke:rgb(48, 48, 48);"/></g><g id="sprotty_ArchitectureBlockImpl$eh2_dec_trigger/GenerateStatementBlockImpl$null7/GPortImpl$i0_ap" class="triangle" transform="translate(0, 312)"><path d="M 0,0 L 5,2.5 L 0,5 Z" transform="translate(-1.67, -2.5)" class="sprotty-port" style="fill:rgb(48, 48, 48);stroke:rgb(48, 48, 48);"/></g><g id="sprotty_ArchitectureBlockImpl$eh2_dec_trigger/GenerateStatementBlockImpl$null7/GPortImpl$trigger_pkt_any" class="triangle" transform="translate(0, 141)"><path d="M 0,0 L 5,2.5 L 0,5 Z" transform="translate(-1.67, -2.5)" class="sprotty-port" style="fill:rgb(48, 48, 48);stroke:rgb(48, 48, 48);"/></g><g id="sprotty_ArchitectureBlockImpl$eh2_dec_trigger/GenerateStatementBlockImpl$null7/GPortImpl$dec_i0_trigger_match_d" class="triangle" transform="translate(443.46875, 255)"><path d="M 0,0 L 5,2.5 L 0,5 Z" transform="translate(-1.67, -2.5)" class="sprotty-port" style="fill:rgb(48, 48, 48);stroke:rgb(48, 48, 48);"/></g><g id="sprotty_ArchitectureBlockImpl$eh2_dec_trigger/GenerateStatementBlockImpl$null7/GPortImpl$dec_i1_trigger_match_d" class="triangle" transform="translate(443.46875, 35)"><path d="M 0,0 L 5,2.5 L 0,5 Z" transform="translate(-1.67, -2.5)" class="sprotty-port" style="fill:rgb(48, 48, 48);stroke:rgb(48, 48, 48);"/></g></g><g id="sprotty_ArchitectureBlockImpl$eh2_dec_trigger/BPortImpl$i1_ap" class="triangle" transform="translate(0, 60)"><path d="M 0,0 L 5,2.5 L 0,5 Z" transform="translate(-1.67, -2.5)" class="sprotty-port" style="fill:rgb(48, 48, 48);stroke:rgb(48, 48, 48);"/><text class="clickable sprotty-label port" id="sprotty_ArchitectureBlockImpl$eh2_dec_trigger/BPortImpl$i1_ap/label" transform="translate(6, 6) translate(15.453125, 14)" style="cursor:default;font-size:12px;perspective-origin:0px 0px;fill:rgb(48, 48, 48);text-anchor:middle;">i1_ap</text></g><g id="sprotty_ArchitectureBlockImpl$eh2_dec_trigger/BPortImpl$i0_ap" class="triangle" transform="translate(0, 347)"><path d="M 0,0 L 5,2.5 L 0,5 Z" transform="translate(-1.67, -2.5)" class="sprotty-port" style="fill:rgb(48, 48, 48);stroke:rgb(48, 48, 48);"/><text class="clickable sprotty-label port" id="sprotty_ArchitectureBlockImpl$eh2_dec_trigger/BPortImpl$i0_ap/label" transform="translate(6, 6) translate(15.453125, 14)" style="cursor:default;font-size:12px;perspective-origin:0px 0px;fill:rgb(48, 48, 48);text-anchor:middle;">i0_ap</text></g><g id="sprotty_ArchitectureBlockImpl$eh2_dec_trigger/BPortImpl$dec_i1_pc_d" class="triangle" transform="translate(0, 142)"><path d="M 0,0 L 5,2.5 L 0,5 Z" transform="translate(-1.67, -2.5)" class="sprotty-port" style="fill:rgb(48, 48, 48);stroke:rgb(48, 48, 48);"/><text class="clickable sprotty-label port" id="sprotty_ArchitectureBlockImpl$eh2_dec_trigger/BPortImpl$dec_i1_pc_d/label" transform="translate(6, 6) translate(35.640625, 14)" style="cursor:default;font-size:12px;perspective-origin:0px 0px;fill:rgb(48, 48, 48);text-anchor:middle;">dec_i1_pc_d</text></g><g id="sprotty_ArchitectureBlockImpl$eh2_dec_trigger/BPortImpl$dec_i0_pc_d" class="triangle" transform="translate(0, 280)"><path d="M 0,0 L 5,2.5 L 0,5 Z" transform="translate(-1.67, -2.5)" class="sprotty-port" style="fill:rgb(48, 48, 48);stroke:rgb(48, 48, 48);"/><text class="clickable sprotty-label port" id="sprotty_ArchitectureBlockImpl$eh2_dec_trigger/BPortImpl$dec_i0_pc_d/label" transform="translate(6, 6) translate(35.640625, 14)" style="cursor:default;font-size:12px;perspective-origin:0px 0px;fill:rgb(48, 48, 48);text-anchor:middle;">dec_i0_pc_d</text></g><g id="sprotty_ArchitectureBlockImpl$eh2_dec_trigger/BPortImpl$trigger_pkt_any" class="triangle" transform="translate(0, 176)"><path d="M 0,0 L 5,2.5 L 0,5 Z" transform="translate(-1.67, -2.5)" class="sprotty-port" style="fill:rgb(48, 48, 48);stroke:rgb(48, 48, 48);"/><text class="clickable sprotty-label port" id="sprotty_ArchitectureBlockImpl$eh2_dec_trigger/BPortImpl$trigger_pkt_any/label" transform="translate(6, 6) translate(44.609375, 14)" style="cursor:default;font-size:12px;perspective-origin:0px 0px;fill:rgb(48, 48, 48);text-anchor:middle;">trigger_pkt_any</text></g><g id="sprotty_ArchitectureBlockImpl$eh2_dec_trigger/BPortImpl$dec_i0_trigger_match_d" class="triangle" transform="translate(731.6875, 290)"><path d="M 0,0 L 5,2.5 L 0,5 Z" transform="translate(-1.67, -2.5)" class="sprotty-port" style="fill:rgb(48, 48, 48);stroke:rgb(48, 48, 48);"/><text class="clickable sprotty-label port" id="sprotty_ArchitectureBlockImpl$eh2_dec_trigger/BPortImpl$dec_i0_trigger_match_d/label" transform="translate(-143, 6) translate(68.5, 14)" style="cursor:default;font-size:12px;perspective-origin:0px 0px;fill:rgb(48, 48, 48);text-anchor:middle;">dec_i0_trigger_match_d</text></g><g id="sprotty_ArchitectureBlockImpl$eh2_dec_trigger/BPortImpl$dec_i1_trigger_match_d" class="triangle" transform="translate(731.6875, 70)"><path d="M 0,0 L 5,2.5 L 0,5 Z" transform="translate(-1.67, -2.5)" class="sprotty-port" style="fill:rgb(48, 48, 48);stroke:rgb(48, 48, 48);"/><text class="clickable sprotty-label port" id="sprotty_ArchitectureBlockImpl$eh2_dec_trigger/BPortImpl$dec_i1_trigger_match_d/label" transform="translate(-143, 6) translate(68.5, 14)" style="cursor:default;font-size:12px;perspective-origin:0px 0px;fill:rgb(48, 48, 48);text-anchor:middle;">dec_i1_trigger_match_d</text></g></g></g></svg>