<svg xmlns="http://www.w3.org/2000/svg" id="sprotty_work.rvrangecheck" class="sprotty-graph sprotty-block-diagram blockdiagram" style="font-family:&quot;Noto Sans&quot;, Helvetica, Arial, sans-serif;perspective-origin:0px 0px;transform-origin:0px 0px;" version="1.1" viewBox="7 7 280.28125 251" width="280.28125" height="251"><g transform="scale(1) translate(0,0)"><g id="sprotty_ArchitectureBlockImpl$rvrangecheck" class="architecture" transform="translate(12, 12)"><g class="sprotty-block" style="fill:rgb(255, 255, 255);stroke:rgb(48, 48, 48);stroke-dasharray:0px;"><rect x="0" y="0" rx="1" ry="1" width="270.28125" height="241"/><text x="135.140625" y="12" class="sprotty-block-name" style="cursor:pointer;font-weight:700;perspective-origin:135.141px 0px;fill:rgb(48, 48, 48);stroke:rgba(0, 0, 0, 0);dominant-baseline:middle;text-anchor:middle;">rvrangecheck</text><line x1="0" y1="20" x2="270.28125" y2="20"/></g><g id="sprotty_ArchitectureBlockImpl$rvrangecheck/GenerateStatementBlockImpl$null3/GPortImpl$in_range_to_ArchitectureBlockImpl$rvrangecheck/BPortImpl$in_range" class="sprotty-edge edge" style="fill:none;stroke:rgb(112, 112, 112);stroke-linejoin:round;"><g><path d="M 156.78125 116 L 270.28125 116 "/><path d="M 156.78125 116 L 270.28125 116 " class="clickable"/></g></g><g id="sprotty_ArchitectureBlockImpl$rvrangecheck/AssignmentBlockImpl$in_region/GPortImpl$in_regionOUT_to_ArchitectureBlockImpl$rvrangecheck/BPortImpl$in_region" class="sprotty-edge edge" style="fill:none;stroke:rgb(112, 112, 112);stroke-linejoin:round;"><g><path d="M 196.21875 54 L 270.28125 54 "/><path d="M 196.21875 54 L 270.28125 54 " class="clickable"/></g></g><g id="sprotty_ArchitectureBlockImpl$rvrangecheck/BPortImpl$addr_to_ArchitectureBlockImpl$rvrangecheck/AssignmentBlockImpl$in_region/GPortImpl$addrIN" class="sprotty-edge thick edge" style="fill:none;stroke:rgb(112, 112, 112);stroke-linejoin:round;stroke-width:3px;"><g><path d="M 0 116 L 55.34375 116 C 56.34375 116 57.34375 115 57.34375 114 L 57.34375 38 C 57.34375 37 58.34375 36 59.34375 36 L 164.78125 36 C 165.78125 36 166.78125 37 166.78125 38 L 166.78125 47 C 166.78125 48 167.78125 49 168.78125 49 L 176.78125 49 "/><path d="M 0 116 L 55.34375 116 C 56.34375 116 57.34375 115 57.34375 114 L 57.34375 38 C 57.34375 37 58.34375 36 59.34375 36 L 164.78125 36 C 165.78125 36 166.78125 37 166.78125 38 L 166.78125 47 C 166.78125 48 167.78125 49 168.78125 49 L 176.78125 49 " class="clickable"/></g><circle r="3" id="sprotty_ArchitectureBlockImpl$rvrangecheck/BPortImpl$addr_to_ArchitectureBlockImpl$rvrangecheck/AssignmentBlockImpl$in_region/GPortImpl$addrIN/junction0" transform="translate(57.34375, 116)" class="sprotty-junction thick" style="fill:rgb(112, 112, 112);stroke:none;"/></g><g id="sprotty_ArchitectureBlockImpl$rvrangecheck/BPortImpl$addr_to_ArchitectureBlockImpl$rvrangecheck/GenerateStatementBlockImpl$null3/GPortImpl$addr" class="sprotty-edge thick edge" style="fill:none;stroke:rgb(112, 112, 112);stroke-linejoin:round;stroke-width:3px;"><g><path d="M 0 116 L 67.34375 116 "/><path d="M 0 116 L 67.34375 116 " class="clickable"/></g></g><g id="sprotty_ArchitectureBlockImpl$rvrangecheck/AssignmentBlockImpl$region/GPortImpl$start_addrOUT_to_ArchitectureBlockImpl$rvrangecheck/AssignmentBlockImpl$in_region/GPortImpl$regionIN" class="sprotty-edge thick edge" style="fill:none;stroke:rgb(112, 112, 112);stroke-linejoin:round;stroke-width:3px;"><g><path d="M 156.78125 59 L 176.78125 59 "/><path d="M 156.78125 59 L 176.78125 59 " class="clickable"/></g></g><g id="sprotty_ArchitectureBlockImpl$rvrangecheck/GenerateStatementBlockImpl$null3" class="generate" transform="translate(67.34375, 90)"><g class="sprotty-block sprotty-block-generate" style="fill:rgb(255, 255, 255);stroke:rgb(48, 48, 48);stroke-dasharray:0px;"><rect x="0" y="0" rx="1" ry="1" width="89.4375" height="94" style="stroke-dasharray:3px, 1px;"/><text x="44.71875" y="12" class="sprotty-block-name" style="cursor:pointer;font-weight:700;fill:rgb(48, 48, 48);stroke:rgba(0, 0, 0, 0);dominant-baseline:middle;text-anchor:middle;"/></g><g id="sprotty_ArchitectureBlockImpl$rvrangecheck/GenerateStatementBlockImpl$null3/AssignmentBlockImpl$in_range1/GPortImpl$in_rangeOUT_to_ArchitectureBlockImpl$rvrangecheck/GenerateStatementBlockImpl$null3/GPortImpl$in_range" class="sprotty-edge edge" style="fill:none;stroke:rgb(112, 112, 112);stroke-linejoin:round;"><g><path d="M 54.4375 68 L 62.4375 68 C 63.4375 68 64.4375 67 64.4375 66 L 64.4375 28 C 64.4375 27 65.4375 26 66.4375 26 L 89.4375 26 "/><path d="M 54.4375 68 L 62.4375 68 C 63.4375 68 64.4375 67 64.4375 66 L 64.4375 28 C 64.4375 27 65.4375 26 66.4375 26 L 89.4375 26 " class="clickable"/></g><circle r="2" id="sprotty_ArchitectureBlockImpl$rvrangecheck/GenerateStatementBlockImpl$null3/AssignmentBlockImpl$in_range1/GPortImpl$in_rangeOUT_to_ArchitectureBlockImpl$rvrangecheck/GenerateStatementBlockImpl$null3/GPortImpl$in_range/junction0" transform="translate(64.4375, 26)" class="sprotty-junction junction" style="fill:rgb(112, 112, 112);stroke:none;"/></g><g id="sprotty_ArchitectureBlockImpl$rvrangecheck/GenerateStatementBlockImpl$null3/AssignmentBlockImpl$in_range/GPortImpl$in_rangeOUT_to_ArchitectureBlockImpl$rvrangecheck/GenerateStatementBlockImpl$null3/GPortImpl$in_range" class="sprotty-edge edge" style="fill:none;stroke:rgb(112, 112, 112);stroke-linejoin:round;"><g><path d="M 54.4375 26 L 89.4375 26 "/><path d="M 54.4375 26 L 89.4375 26 " class="clickable"/></g></g><g id="sprotty_ArchitectureBlockImpl$rvrangecheck/GenerateStatementBlockImpl$null3/GPortImpl$addr_to_ArchitectureBlockImpl$rvrangecheck/GenerateStatementBlockImpl$null3/AssignmentBlockImpl$in_range1/GPortImpl$addrIN" class="sprotty-edge thick edge" style="fill:none;stroke:rgb(112, 112, 112);stroke-linejoin:round;stroke-width:3px;"><g><path d="M 0 26 L 23 26 C 24 26 25 27 25 28 L 25 66 C 25 67 26 68 27 68 L 35 68 "/><path d="M 0 26 L 23 26 C 24 26 25 27 25 28 L 25 66 C 25 67 26 68 27 68 L 35 68 " class="clickable"/></g><circle r="3" id="sprotty_ArchitectureBlockImpl$rvrangecheck/GenerateStatementBlockImpl$null3/GPortImpl$addr_to_ArchitectureBlockImpl$rvrangecheck/GenerateStatementBlockImpl$null3/AssignmentBlockImpl$in_range1/GPortImpl$addrIN/junction0" transform="translate(25, 26)" class="sprotty-junction thick" style="fill:rgb(112, 112, 112);stroke:none;"/></g><g id="sprotty_ArchitectureBlockImpl$rvrangecheck/GenerateStatementBlockImpl$null3/GPortImpl$addr_to_ArchitectureBlockImpl$rvrangecheck/GenerateStatementBlockImpl$null3/AssignmentBlockImpl$in_range/GPortImpl$addrIN" class="sprotty-edge thick edge" style="fill:none;stroke:rgb(112, 112, 112);stroke-linejoin:round;stroke-width:3px;"><g><path d="M 0 26 L 35 26 "/><path d="M 0 26 L 35 26 " class="clickable"/></g></g><g id="sprotty_ArchitectureBlockImpl$rvrangecheck/GenerateStatementBlockImpl$null3/AssignmentBlockImpl$in_range" class="statement" transform="translate(35, 15)"><rect x="0" y="0" rx="10" ry="5" width="19.4375" height="22" class="sprotty-node" style="fill:rgb(245, 245, 245);stroke:rgb(112, 112, 112);"/><text class="clickable sprotty-label statementtype" id="sprotty_ArchitectureBlockImpl$rvrangecheck/GenerateStatementBlockImpl$null3/AssignmentBlockImpl$in_range/labeltype" transform="translate(5, 5) translate(4.71875, 9)" style="cursor:default;font-size:8px;font-weight:700;perspective-origin:0px 0px;fill:rgb(112, 112, 112);text-anchor:middle;">&lt;=</text><g id="sprotty_ArchitectureBlockImpl$rvrangecheck/GenerateStatementBlockImpl$null3/AssignmentBlockImpl$in_range/GPortImpl$addrIN" class="sprotty-hidden hidden" transform="translate(0, 11)" style="display:block;height:0px;width:0px;"/><g id="sprotty_ArchitectureBlockImpl$rvrangecheck/GenerateStatementBlockImpl$null3/AssignmentBlockImpl$in_range/GPortImpl$in_rangeOUT" class="sprotty-hidden hidden" transform="translate(19.4375, 11)" style="display:block;height:0px;width:0px;"/></g><g id="sprotty_ArchitectureBlockImpl$rvrangecheck/GenerateStatementBlockImpl$null3/AssignmentBlockImpl$in_range1" class="statement" transform="translate(35, 57)"><rect x="0" y="0" rx="10" ry="5" width="19.4375" height="22" class="sprotty-node" style="fill:rgb(245, 245, 245);stroke:rgb(112, 112, 112);"/><text class="clickable sprotty-label statementtype" id="sprotty_ArchitectureBlockImpl$rvrangecheck/GenerateStatementBlockImpl$null3/AssignmentBlockImpl$in_range1/labeltype" transform="translate(5, 5) translate(4.71875, 9)" style="cursor:default;font-size:8px;font-weight:700;perspective-origin:0px 0px;fill:rgb(112, 112, 112);text-anchor:middle;">&lt;=</text><g id="sprotty_ArchitectureBlockImpl$rvrangecheck/GenerateStatementBlockImpl$null3/AssignmentBlockImpl$in_range1/GPortImpl$addrIN" class="sprotty-hidden hidden" transform="translate(0, 11)" style="display:block;height:0px;width:0px;"/><g id="sprotty_ArchitectureBlockImpl$rvrangecheck/GenerateStatementBlockImpl$null3/AssignmentBlockImpl$in_range1/GPortImpl$in_rangeOUT" class="sprotty-hidden hidden" transform="translate(19.4375, 11)" style="display:block;height:0px;width:0px;"/></g><g id="sprotty_ArchitectureBlockImpl$rvrangecheck/GenerateStatementBlockImpl$null3/GPortImpl$addr" class="triangle" transform="translate(0, 26)"><path d="M 0,0 L 5,2.5 L 0,5 Z" transform="translate(-1.67, -2.5)" class="sprotty-port" style="fill:rgb(48, 48, 48);stroke:rgb(48, 48, 48);"/></g><g id="sprotty_ArchitectureBlockImpl$rvrangecheck/GenerateStatementBlockImpl$null3/GPortImpl$in_range" class="triangle" transform="translate(89.4375, 26)"><path d="M 0,0 L 5,2.5 L 0,5 Z" transform="translate(-1.67, -2.5)" class="sprotty-port" style="fill:rgb(48, 48, 48);stroke:rgb(48, 48, 48);"/></g></g><g id="sprotty_ArchitectureBlockImpl$rvrangecheck/AssignmentBlockImpl$in_region" class="statement" transform="translate(176.78125, 39)"><rect x="0" y="0" rx="10" ry="5" width="19.4375" height="30" class="sprotty-node" style="fill:rgb(245, 245, 245);stroke:rgb(112, 112, 112);"/><text class="clickable sprotty-label statementtype" id="sprotty_ArchitectureBlockImpl$rvrangecheck/AssignmentBlockImpl$in_region/labeltype" transform="translate(5, 9) translate(4.71875, 9)" style="cursor:default;font-size:8px;font-weight:700;perspective-origin:0px 0px;fill:rgb(112, 112, 112);text-anchor:middle;">&lt;=</text><g id="sprotty_ArchitectureBlockImpl$rvrangecheck/AssignmentBlockImpl$in_region/GPortImpl$regionIN" class="sprotty-hidden hidden" transform="translate(0, 20)" style="display:block;height:0px;width:0px;"/><g id="sprotty_ArchitectureBlockImpl$rvrangecheck/AssignmentBlockImpl$in_region/GPortImpl$addrIN" class="sprotty-hidden hidden" transform="translate(0, 10)" style="display:block;height:0px;width:0px;"/><g id="sprotty_ArchitectureBlockImpl$rvrangecheck/AssignmentBlockImpl$in_region/GPortImpl$in_regionOUT" class="sprotty-hidden hidden" transform="translate(19.4375, 15)" style="display:block;height:0px;width:0px;"/></g><g id="sprotty_ArchitectureBlockImpl$rvrangecheck/AssignmentBlockImpl$region" class="statement" transform="translate(137.34375, 48)"><rect x="0" y="0" rx="10" ry="5" width="19.4375" height="22" class="sprotty-node" style="fill:rgb(245, 245, 245);stroke:rgb(112, 112, 112);"/><text class="clickable sprotty-label statementtype" id="sprotty_ArchitectureBlockImpl$rvrangecheck/AssignmentBlockImpl$region/labeltype" transform="translate(5, 5) translate(4.71875, 9)" style="cursor:default;font-size:8px;font-weight:700;perspective-origin:0px 0px;fill:rgb(112, 112, 112);text-anchor:middle;">&lt;=</text><g id="sprotty_ArchitectureBlockImpl$rvrangecheck/AssignmentBlockImpl$region/GPortImpl$start_addrOUT" class="sprotty-hidden hidden" transform="translate(19.4375, 11)" style="display:block;height:0px;width:0px;"/></g><g id="sprotty_ArchitectureBlockImpl$rvrangecheck/AssignmentBlockImpl$start_addr" class="statement" transform="translate(15, 204)"><rect x="0" y="0" rx="10" ry="5" width="19.4375" height="22" class="sprotty-node" style="fill:rgb(245, 245, 245);stroke:rgb(112, 112, 112);"/><text class="clickable sprotty-label statementtype" id="sprotty_ArchitectureBlockImpl$rvrangecheck/AssignmentBlockImpl$start_addr/labeltype" transform="translate(5, 5) translate(4.71875, 9)" style="cursor:default;font-size:8px;font-weight:700;perspective-origin:0px 0px;fill:rgb(112, 112, 112);text-anchor:middle;">&lt;=</text></g><g id="sprotty_ArchitectureBlockImpl$rvrangecheck/BPortImpl$addr" class="triangle" transform="translate(0, 116)"><path d="M 0,0 L 5,2.5 L 0,5 Z" transform="translate(-1.67, -2.5)" class="sprotty-port" style="fill:rgb(48, 48, 48);stroke:rgb(48, 48, 48);"/><text class="clickable sprotty-label port" id="sprotty_ArchitectureBlockImpl$rvrangecheck/BPortImpl$addr/label" transform="translate(6, 6) translate(13.15625, 14)" style="cursor:default;font-size:12px;perspective-origin:0.015625px 0px;fill:rgb(48, 48, 48);text-anchor:middle;">addr</text></g><g id="sprotty_ArchitectureBlockImpl$rvrangecheck/BPortImpl$in_range" class="triangle" transform="translate(270.28125, 116)"><path d="M 0,0 L 5,2.5 L 0,5 Z" transform="translate(-1.67, -2.5)" class="sprotty-port" style="fill:rgb(48, 48, 48);stroke:rgb(48, 48, 48);"/><text class="clickable sprotty-label port" id="sprotty_ArchitectureBlockImpl$rvrangecheck/BPortImpl$in_range/label" transform="translate(-55, 6) translate(24.5, 14)" style="cursor:default;font-size:12px;perspective-origin:0px 0px;fill:rgb(48, 48, 48);text-anchor:middle;">in_range</text></g><g id="sprotty_ArchitectureBlockImpl$rvrangecheck/BPortImpl$in_region" class="triangle" transform="translate(270.28125, 54)"><path d="M 0,0 L 5,2.5 L 0,5 Z" transform="translate(-1.67, -2.5)" class="sprotty-port" style="fill:rgb(48, 48, 48);stroke:rgb(48, 48, 48);"/><text class="clickable sprotty-label port" id="sprotty_ArchitectureBlockImpl$rvrangecheck/BPortImpl$in_region/label" transform="translate(-59.0625, 6) translate(26.53125, 14)" style="cursor:default;font-size:12px;perspective-origin:0px 0px;fill:rgb(48, 48, 48);text-anchor:middle;">in_region</text></g></g></g></svg>