<svg xmlns="http://www.w3.org/2000/svg" id="sprotty_work.rvdffe" class="sprotty-graph sprotty-block-diagram blockdiagram" style="font-family:&quot;Noto Sans&quot;, Helvetica, Arial, sans-serif;perspective-origin:0px 0px;transform-origin:0px 0px;" version="1.1" viewBox="7 7 436.109375 235" width="436.109375" height="235"><g transform="scale(1) translate(0,0)"><g id="sprotty_ArchitectureBlockImpl$rvdffe" class="architecture" transform="translate(12, 12)"><g class="sprotty-block" style="fill:rgb(255, 255, 255);stroke:rgb(48, 48, 48);stroke-dasharray:0px;"><rect x="0" y="0" rx="1" ry="1" width="426.109375" height="225"/><text x="213.0546875" y="12" class="sprotty-block-name" style="cursor:pointer;font-weight:700;perspective-origin:213.047px 0px;fill:rgb(48, 48, 48);stroke:rgba(0, 0, 0, 0);dominant-baseline:middle;text-anchor:middle;">rvdffe</text><line x1="0" y1="20" x2="426.109375" y2="20"/></g><g id="sprotty_ArchitectureBlockImpl$rvdffe/GenerateStatementBlockImpl$null6/GPortImpl$dout_to_ArchitectureBlockImpl$rvdffe/BPortImpl$dout" class="sprotty-edge thick edge" style="fill:none;stroke:rgb(112, 112, 112);stroke-linejoin:round;stroke-width:3px;"><g><path d="M 378.578125 129 L 426.109375 129 "/><path d="M 378.578125 129 L 426.109375 129 " class="clickable"/></g></g><g id="sprotty_ArchitectureBlockImpl$rvdffe/BPortImpl$en_to_ArchitectureBlockImpl$rvdffe/GenerateStatementBlockImpl$null6/GPortImpl$en" class="sprotty-edge edge" style="fill:none;stroke:rgb(112, 112, 112);stroke-linejoin:round;"><g><path d="M 0 84 L 93.875 84 C 94.875 84 95.875 85 95.875 86 L 95.875 99 C 95.875 100 96.875 101 97.875 101 L 105.875 101 "/><path d="M 0 84 L 93.875 84 C 94.875 84 95.875 85 95.875 86 L 95.875 99 C 95.875 100 96.875 101 97.875 101 L 105.875 101 " class="clickable"/></g></g><g id="sprotty_ArchitectureBlockImpl$rvdffe/BPortImpl$clk_to_ArchitectureBlockImpl$rvdffe/GenerateStatementBlockImpl$null6/GPortImpl$clk" class="sprotty-edge edge" style="fill:none;stroke:rgb(112, 112, 112);stroke-linejoin:round;"><g><path d="M 0 118 L 93.875 118 C 94.875 118 95.875 119 95.875 120 L 95.875 127 C 95.875 128 96.875 129 97.875 129 L 105.875 129 "/><path d="M 0 118 L 93.875 118 C 94.875 118 95.875 119 95.875 120 L 95.875 127 C 95.875 128 96.875 129 97.875 129 L 105.875 129 " class="clickable"/></g></g><g id="sprotty_ArchitectureBlockImpl$rvdffe/BPortImpl$scan_mode_to_ArchitectureBlockImpl$rvdffe/GenerateStatementBlockImpl$null6/GPortImpl$scan_mode" class="sprotty-edge edge" style="fill:none;stroke:rgb(112, 112, 112);stroke-linejoin:round;"><g><path d="M 0 152 L 93.875 152 C 94.875 152 95.875 153 95.875 154 L 95.875 155 C 95.875 156 96.875 157 97.875 157 L 105.875 157 "/><path d="M 0 152 L 93.875 152 C 94.875 152 95.875 153 95.875 154 L 95.875 155 C 95.875 156 96.875 157 97.875 157 L 105.875 157 " class="clickable"/></g></g><g id="sprotty_ArchitectureBlockImpl$rvdffe/BPortImpl$din_to_ArchitectureBlockImpl$rvdffe/GenerateStatementBlockImpl$null6/GPortImpl$din" class="sprotty-edge thick edge" style="fill:none;stroke:rgb(112, 112, 112);stroke-linejoin:round;stroke-width:3px;"><g><path d="M 0 50 L 95.875 50 L 95.875 51 L 105.875 51 "/><path d="M 0 50 L 95.875 50 L 95.875 51 L 105.875 51 " class="clickable"/></g></g><g id="sprotty_ArchitectureBlockImpl$rvdffe/BPortImpl$rst_l_to_ArchitectureBlockImpl$rvdffe/GenerateStatementBlockImpl$null6/GPortImpl$rst_l" class="sprotty-edge edge" style="fill:none;stroke:rgb(112, 112, 112);stroke-linejoin:round;"><g><path d="M 0 186 L 105.875 186 "/><path d="M 0 186 L 105.875 186 " class="clickable"/></g></g><g id="sprotty_ArchitectureBlockImpl$rvdffe/GenerateStatementBlockImpl$null6" class="generate" transform="translate(105.875, 35)"><g class="sprotty-block sprotty-block-generate" style="fill:rgb(255, 255, 255);stroke:rgb(48, 48, 48);stroke-dasharray:0px;"><rect x="0" y="0" rx="1" ry="1" width="272.703125" height="168" style="stroke-dasharray:3px, 1px;"/><text x="136.3515625" y="12" class="sprotty-block-name" style="cursor:pointer;font-weight:700;fill:rgb(48, 48, 48);stroke:rgba(0, 0, 0, 0);dominant-baseline:middle;text-anchor:middle;"/></g><g id="sprotty_ArchitectureBlockImpl$rvdffe/GenerateStatementBlockImpl$null6/InstantiationBlockImpl$dff/BPortImpl$dout_to_ArchitectureBlockImpl$rvdffe/GenerateStatementBlockImpl$null6/GPortImpl$dout" class="sprotty-edge thick edge" style="fill:none;stroke:rgb(112, 112, 112);stroke-linejoin:round;stroke-width:3px;"><g><path d="M 257.703125 94 L 272.703125 94 "/><path d="M 257.703125 94 L 272.703125 94 " class="clickable"/></g></g><g id="sprotty_ArchitectureBlockImpl$rvdffe/GenerateStatementBlockImpl$null6/GPortImpl$en_to_ArchitectureBlockImpl$rvdffe/GenerateStatementBlockImpl$null6/InstantiationBlockImpl$clkhdr/BPortImpl$en" class="sprotty-edge edge" style="fill:none;stroke:rgb(112, 112, 112);stroke-linejoin:round;"><g><path d="M 0 66 L 15 66 "/><path d="M 0 66 L 15 66 " class="clickable"/></g></g><g id="sprotty_ArchitectureBlockImpl$rvdffe/GenerateStatementBlockImpl$null6/GPortImpl$clk_to_ArchitectureBlockImpl$rvdffe/GenerateStatementBlockImpl$null6/InstantiationBlockImpl$clkhdr/BPortImpl$clk" class="sprotty-edge edge" style="fill:none;stroke:rgb(112, 112, 112);stroke-linejoin:round;"><g><path d="M 0 94 L 15 94 "/><path d="M 0 94 L 15 94 " class="clickable"/></g></g><g id="sprotty_ArchitectureBlockImpl$rvdffe/GenerateStatementBlockImpl$null6/GPortImpl$scan_mode_to_ArchitectureBlockImpl$rvdffe/GenerateStatementBlockImpl$null6/InstantiationBlockImpl$clkhdr/BPortImpl$scan_mode" class="sprotty-edge edge" style="fill:none;stroke:rgb(112, 112, 112);stroke-linejoin:round;"><g><path d="M 0 122 L 15 122 "/><path d="M 0 122 L 15 122 " class="clickable"/></g></g><g id="sprotty_ArchitectureBlockImpl$rvdffe/GenerateStatementBlockImpl$null6/GPortImpl$din_to_ArchitectureBlockImpl$rvdffe/GenerateStatementBlockImpl$null6/InstantiationBlockImpl$dff/BPortImpl$din" class="sprotty-edge thick edge" style="fill:none;stroke:rgb(112, 112, 112);stroke-linejoin:round;stroke-width:3px;"><g><path d="M 0 16 L 164.75 16 C 165.75 16 166.75 17 166.75 18 L 166.75 64 C 166.75 65 167.75 66 168.75 66 L 176.75 66 "/><path d="M 0 16 L 164.75 16 C 165.75 16 166.75 17 166.75 18 L 166.75 64 C 166.75 65 167.75 66 168.75 66 L 176.75 66 " class="clickable"/></g></g><g id="sprotty_ArchitectureBlockImpl$rvdffe/GenerateStatementBlockImpl$null6/GPortImpl$rst_l_to_ArchitectureBlockImpl$rvdffe/GenerateStatementBlockImpl$null6/InstantiationBlockImpl$dff/BPortImpl$rst_l" class="sprotty-edge edge" style="fill:none;stroke:rgb(112, 112, 112);stroke-linejoin:round;"><g><path d="M 0 151 L 164.75 151 C 165.75 151 166.75 150 166.75 149 L 166.75 124 C 166.75 123 167.75 122 168.75 122 L 176.75 122 "/><path d="M 0 151 L 164.75 151 C 165.75 151 166.75 150 166.75 149 L 166.75 124 C 166.75 123 167.75 122 168.75 122 L 176.75 122 " class="clickable"/></g></g><g id="sprotty_ArchitectureBlockImpl$rvdffe/GenerateStatementBlockImpl$null6/InstantiationBlockImpl$clkhdr/BPortImpl$l1clk_to_ArchitectureBlockImpl$rvdffe/GenerateStatementBlockImpl$null6/InstantiationBlockImpl$dff/BPortImpl$clk" class="sprotty-edge edge" style="fill:none;stroke:rgb(112, 112, 112);stroke-linejoin:round;"><g><path d="M 156.75 94 L 176.75 94 "/><path d="M 156.75 94 L 176.75 94 " class="clickable"/></g></g><g id="sprotty_ArchitectureBlockImpl$rvdffe/GenerateStatementBlockImpl$null6/InstantiationBlockImpl$dff" class="instantiation" transform="translate(176.75, 28)"><g class="sprotty-block" style="fill:rgb(255, 255, 255);stroke:rgb(48, 48, 48);stroke-dasharray:0px;"><rect x="0" y="0" rx="1" ry="1" width="80.953125" height="112"/><text x="40.4765625" y="12" class="sprotty-block-name" style="cursor:pointer;font-weight:700;perspective-origin:40.75px 0px;fill:rgb(48, 48, 48);stroke:rgba(0, 0, 0, 0);dominant-baseline:middle;text-anchor:middle;">dff : rvdff</text><line x1="0" y1="20" x2="80.953125" y2="20"/></g><g id="sprotty_ArchitectureBlockImpl$rvdffe/GenerateStatementBlockImpl$null6/InstantiationBlockImpl$dff/BPortImpl$rst_l" class="triangle" transform="translate(0, 94)"><path d="M 0,0 L 5,2.5 L 0,5 Z" transform="translate(-1.67, -2.5)" class="sprotty-port" style="fill:rgb(48, 48, 48);stroke:rgb(48, 48, 48);"/><text class="clickable sprotty-label port" id="sprotty_ArchitectureBlockImpl$rvdffe/GenerateStatementBlockImpl$null6/InstantiationBlockImpl$dff/BPortImpl$rst_l/label" transform="translate(6, -9) translate(12.3125, 14)" style="cursor:default;font-size:12px;perspective-origin:0px 0px;fill:rgb(48, 48, 48);text-anchor:middle;">rst_l</text></g><g id="sprotty_ArchitectureBlockImpl$rvdffe/GenerateStatementBlockImpl$null6/InstantiationBlockImpl$dff/BPortImpl$clk" class="triangle" transform="translate(0, 66)"><path d="M 0,0 L 5,2.5 L 0,5 Z" transform="translate(-1.67, -2.5)" class="sprotty-port" style="fill:rgb(48, 48, 48);stroke:rgb(48, 48, 48);"/><text class="clickable sprotty-label port" id="sprotty_ArchitectureBlockImpl$rvdffe/GenerateStatementBlockImpl$null6/InstantiationBlockImpl$dff/BPortImpl$clk/label" transform="translate(6, -9) translate(8.078125, 14)" style="cursor:default;font-size:12px;perspective-origin:0px 0px;fill:rgb(48, 48, 48);text-anchor:middle;">clk</text></g><g id="sprotty_ArchitectureBlockImpl$rvdffe/GenerateStatementBlockImpl$null6/InstantiationBlockImpl$dff/BPortImpl$din" class="triangle" transform="translate(0, 38)"><path d="M 0,0 L 5,2.5 L 0,5 Z" transform="translate(-1.67, -2.5)" class="sprotty-port" style="fill:rgb(48, 48, 48);stroke:rgb(48, 48, 48);"/><text class="clickable sprotty-label port" id="sprotty_ArchitectureBlockImpl$rvdffe/GenerateStatementBlockImpl$null6/InstantiationBlockImpl$dff/BPortImpl$din/label" transform="translate(6, -9) translate(9.046875, 14)" style="cursor:default;font-size:12px;perspective-origin:0px 0px;fill:rgb(48, 48, 48);text-anchor:middle;">din</text></g><g id="sprotty_ArchitectureBlockImpl$rvdffe/GenerateStatementBlockImpl$null6/InstantiationBlockImpl$dff/BPortImpl$dout" class="triangle" transform="translate(80.953125, 66)"><path d="M 0,0 L 5,2.5 L 0,5 Z" transform="translate(-1.67, -2.5)" class="sprotty-port" style="fill:rgb(48, 48, 48);stroke:rgb(48, 48, 48);"/><text class="clickable sprotty-label port" id="sprotty_ArchitectureBlockImpl$rvdffe/GenerateStatementBlockImpl$null6/InstantiationBlockImpl$dff/BPortImpl$dout/label" transform="translate(-32.53125, -9) translate(13.265625, 14)" style="cursor:default;font-size:12px;perspective-origin:0px 0px;fill:rgb(48, 48, 48);text-anchor:middle;">dout</text></g></g><g id="sprotty_ArchitectureBlockImpl$rvdffe/GenerateStatementBlockImpl$null6/InstantiationBlockImpl$clkhdr" class="instantiation" transform="translate(15, 28)"><g class="sprotty-block" style="fill:rgb(255, 255, 255);stroke:rgb(48, 48, 48);stroke-dasharray:0px;"><rect x="0" y="0" rx="1" ry="1" width="141.75" height="112"/><text x="70.875" y="12" class="sprotty-block-name" style="cursor:pointer;font-weight:700;perspective-origin:70.8906px 0px;fill:rgb(48, 48, 48);stroke:rgba(0, 0, 0, 0);dominant-baseline:middle;text-anchor:middle;">clkhdr : rvclkhdr</text><line x1="0" y1="20" x2="141.75" y2="20"/></g><g id="sprotty_ArchitectureBlockImpl$rvdffe/GenerateStatementBlockImpl$null6/InstantiationBlockImpl$clkhdr/BPortImpl$scan_mode" class="triangle" transform="translate(0, 94)"><path d="M 0,0 L 5,2.5 L 0,5 Z" transform="translate(-1.67, -2.5)" class="sprotty-port" style="fill:rgb(48, 48, 48);stroke:rgb(48, 48, 48);"/><text class="clickable sprotty-label port" id="sprotty_ArchitectureBlockImpl$rvdffe/GenerateStatementBlockImpl$null6/InstantiationBlockImpl$clkhdr/BPortImpl$scan_mode/label" transform="translate(6, -9) translate(32.4375, 14)" style="cursor:default;font-size:12px;perspective-origin:0px 0px;fill:rgb(48, 48, 48);text-anchor:middle;">scan_mode</text></g><g id="sprotty_ArchitectureBlockImpl$rvdffe/GenerateStatementBlockImpl$null6/InstantiationBlockImpl$clkhdr/BPortImpl$clk" class="triangle" transform="translate(0, 66)"><path d="M 0,0 L 5,2.5 L 0,5 Z" transform="translate(-1.67, -2.5)" class="sprotty-port" style="fill:rgb(48, 48, 48);stroke:rgb(48, 48, 48);"/><text class="clickable sprotty-label port" id="sprotty_ArchitectureBlockImpl$rvdffe/GenerateStatementBlockImpl$null6/InstantiationBlockImpl$clkhdr/BPortImpl$clk/label" transform="translate(6, -9) translate(8.078125, 14)" style="cursor:default;font-size:12px;perspective-origin:0px 0px;fill:rgb(48, 48, 48);text-anchor:middle;">clk</text></g><g id="sprotty_ArchitectureBlockImpl$rvdffe/GenerateStatementBlockImpl$null6/InstantiationBlockImpl$clkhdr/BPortImpl$en" class="triangle" transform="translate(0, 38)"><path d="M 0,0 L 5,2.5 L 0,5 Z" transform="translate(-1.67, -2.5)" class="sprotty-port" style="fill:rgb(48, 48, 48);stroke:rgb(48, 48, 48);"/><text class="clickable sprotty-label port" id="sprotty_ArchitectureBlockImpl$rvdffe/GenerateStatementBlockImpl$null6/InstantiationBlockImpl$clkhdr/BPortImpl$en/label" transform="translate(6, -9) translate(7, 14)" style="cursor:default;font-size:12px;perspective-origin:0px 0px;fill:rgb(48, 48, 48);text-anchor:middle;">en</text></g><g id="sprotty_ArchitectureBlockImpl$rvdffe/GenerateStatementBlockImpl$null6/InstantiationBlockImpl$clkhdr/BPortImpl$l1clk" class="triangle" transform="translate(141.75, 66)"><path d="M 0,0 L 5,2.5 L 0,5 Z" transform="translate(-1.67, -2.5)" class="sprotty-port" style="fill:rgb(48, 48, 48);stroke:rgb(48, 48, 48);"/><text class="clickable sprotty-label port" id="sprotty_ArchitectureBlockImpl$rvdffe/GenerateStatementBlockImpl$null6/InstantiationBlockImpl$clkhdr/BPortImpl$l1clk/label" transform="translate(-32.25, -9) translate(13.125, 14)" style="cursor:default;font-size:12px;perspective-origin:0px 0px;fill:rgb(48, 48, 48);text-anchor:middle;">l1clk</text></g></g><g id="sprotty_ArchitectureBlockImpl$rvdffe/GenerateStatementBlockImpl$null6/GPortImpl$rst_l" class="triangle" transform="translate(0, 151)"><path d="M 0,0 L 5,2.5 L 0,5 Z" transform="translate(-1.67, -2.5)" class="sprotty-port" style="fill:rgb(48, 48, 48);stroke:rgb(48, 48, 48);"/></g><g id="sprotty_ArchitectureBlockImpl$rvdffe/GenerateStatementBlockImpl$null6/GPortImpl$din" class="triangle" transform="translate(0, 16)"><path d="M 0,0 L 5,2.5 L 0,5 Z" transform="translate(-1.67, -2.5)" class="sprotty-port" style="fill:rgb(48, 48, 48);stroke:rgb(48, 48, 48);"/></g><g id="sprotty_ArchitectureBlockImpl$rvdffe/GenerateStatementBlockImpl$null6/GPortImpl$scan_mode" class="triangle" transform="translate(0, 122)"><path d="M 0,0 L 5,2.5 L 0,5 Z" transform="translate(-1.67, -2.5)" class="sprotty-port" style="fill:rgb(48, 48, 48);stroke:rgb(48, 48, 48);"/></g><g id="sprotty_ArchitectureBlockImpl$rvdffe/GenerateStatementBlockImpl$null6/GPortImpl$clk" class="triangle" transform="translate(0, 94)"><path d="M 0,0 L 5,2.5 L 0,5 Z" transform="translate(-1.67, -2.5)" class="sprotty-port" style="fill:rgb(48, 48, 48);stroke:rgb(48, 48, 48);"/></g><g id="sprotty_ArchitectureBlockImpl$rvdffe/GenerateStatementBlockImpl$null6/GPortImpl$en" class="triangle" transform="translate(0, 66)"><path d="M 0,0 L 5,2.5 L 0,5 Z" transform="translate(-1.67, -2.5)" class="sprotty-port" style="fill:rgb(48, 48, 48);stroke:rgb(48, 48, 48);"/></g><g id="sprotty_ArchitectureBlockImpl$rvdffe/GenerateStatementBlockImpl$null6/GPortImpl$dout" class="triangle" transform="translate(272.703125, 94)"><path d="M 0,0 L 5,2.5 L 0,5 Z" transform="translate(-1.67, -2.5)" class="sprotty-port" style="fill:rgb(48, 48, 48);stroke:rgb(48, 48, 48);"/></g></g><g id="sprotty_ArchitectureBlockImpl$rvdffe/BPortImpl$scan_mode" class="triangle" transform="translate(0, 152)"><path d="M 0,0 L 5,2.5 L 0,5 Z" transform="translate(-1.67, -2.5)" class="sprotty-port" style="fill:rgb(48, 48, 48);stroke:rgb(48, 48, 48);"/><text class="clickable sprotty-label port" id="sprotty_ArchitectureBlockImpl$rvdffe/BPortImpl$scan_mode/label" transform="translate(6, 6) translate(32.4375, 14)" style="cursor:default;font-size:12px;perspective-origin:0px 0px;fill:rgb(48, 48, 48);text-anchor:middle;">scan_mode</text></g><g id="sprotty_ArchitectureBlockImpl$rvdffe/BPortImpl$rst_l" class="triangle" transform="translate(0, 186)"><path d="M 0,0 L 5,2.5 L 0,5 Z" transform="translate(-1.67, -2.5)" class="sprotty-port" style="fill:rgb(48, 48, 48);stroke:rgb(48, 48, 48);"/><text class="clickable sprotty-label port" id="sprotty_ArchitectureBlockImpl$rvdffe/BPortImpl$rst_l/label" transform="translate(6, 6) translate(12.3125, 14)" style="cursor:default;font-size:12px;perspective-origin:0px 0px;fill:rgb(48, 48, 48);text-anchor:middle;">rst_l</text></g><g id="sprotty_ArchitectureBlockImpl$rvdffe/BPortImpl$clk" class="triangle" transform="translate(0, 118)"><path d="M 0,0 L 5,2.5 L 0,5 Z" transform="translate(-1.67, -2.5)" class="sprotty-port" style="fill:rgb(48, 48, 48);stroke:rgb(48, 48, 48);"/><text class="clickable sprotty-label port" id="sprotty_ArchitectureBlockImpl$rvdffe/BPortImpl$clk/label" transform="translate(6, 6) translate(8.078125, 14)" style="cursor:default;font-size:12px;perspective-origin:0px 0px;fill:rgb(48, 48, 48);text-anchor:middle;">clk</text></g><g id="sprotty_ArchitectureBlockImpl$rvdffe/BPortImpl$en" class="triangle" transform="translate(0, 84)"><path d="M 0,0 L 5,2.5 L 0,5 Z" transform="translate(-1.67, -2.5)" class="sprotty-port" style="fill:rgb(48, 48, 48);stroke:rgb(48, 48, 48);"/><text class="clickable sprotty-label port" id="sprotty_ArchitectureBlockImpl$rvdffe/BPortImpl$en/label" transform="translate(6, 6) translate(7, 14)" style="cursor:default;font-size:12px;perspective-origin:0px 0px;fill:rgb(48, 48, 48);text-anchor:middle;">en</text></g><g id="sprotty_ArchitectureBlockImpl$rvdffe/BPortImpl$din" class="triangle" transform="translate(0, 50)"><path d="M 0,0 L 5,2.5 L 0,5 Z" transform="translate(-1.67, -2.5)" class="sprotty-port" style="fill:rgb(48, 48, 48);stroke:rgb(48, 48, 48);"/><text class="clickable sprotty-label port" id="sprotty_ArchitectureBlockImpl$rvdffe/BPortImpl$din/label" transform="translate(6, 6) translate(9.046875, 14)" style="cursor:default;font-size:12px;perspective-origin:0px 0px;fill:rgb(48, 48, 48);text-anchor:middle;">din</text></g><g id="sprotty_ArchitectureBlockImpl$rvdffe/BPortImpl$dout" class="triangle" transform="translate(426.109375, 129)"><path d="M 0,0 L 5,2.5 L 0,5 Z" transform="translate(-1.67, -2.5)" class="sprotty-port" style="fill:rgb(48, 48, 48);stroke:rgb(48, 48, 48);"/><text class="clickable sprotty-label port" id="sprotty_ArchitectureBlockImpl$rvdffe/BPortImpl$dout/label" transform="translate(-32.53125, 6) translate(13.265625, 14)" style="cursor:default;font-size:12px;perspective-origin:0px 0px;fill:rgb(48, 48, 48);text-anchor:middle;">dout</text></g></g></g></svg>