<svg xmlns="http://www.w3.org/2000/svg" id="sprotty_work.rvdffiee" class="sprotty-graph sprotty-block-diagram blockdiagram" style="font-family:&quot;Noto Sans&quot;, Helvetica, Arial, sans-serif;perspective-origin:0px 0px;transform-origin:0px 0px;" version="1.1" viewBox="7 7 424.59375 271" width="424.59375" height="271"><g transform="scale(1) translate(0,0)"><g id="sprotty_ArchitectureBlockImpl$rvdffiee" class="architecture" transform="translate(12, 12)"><g class="sprotty-block" style="fill:rgb(255, 255, 255);stroke:rgb(48, 48, 48);stroke-dasharray:0px;"><rect x="0" y="0" rx="1" ry="1" width="414.59375" height="261"/><text x="207.296875" y="12" class="sprotty-block-name" style="cursor:pointer;font-weight:700;perspective-origin:207.297px 0px;fill:rgb(48, 48, 48);stroke:rgba(0, 0, 0, 0);dominant-baseline:middle;text-anchor:middle;">rvdffiee</text><line x1="0" y1="20" x2="414.59375" y2="20"/></g><g id="sprotty_ArchitectureBlockImpl$rvdffiee/GenerateStatementBlockImpl$null6/GPortImpl$dout_to_ArchitectureBlockImpl$rvdffiee/BPortImpl$dout" class="sprotty-edge thick edge" style="fill:none;stroke:rgb(112, 112, 112);stroke-linejoin:round;stroke-width:3px;"><g><path d="M 367.0625 51 L 414.59375 51 "/><path d="M 367.0625 51 L 414.59375 51 " class="clickable"/></g></g><g id="sprotty_ArchitectureBlockImpl$rvdffiee/BPortImpl$din_to_ArchitectureBlockImpl$rvdffiee/GenerateStatementBlockImpl$null6/GPortImpl$din" class="sprotty-edge thick edge" style="fill:none;stroke:rgb(112, 112, 112);stroke-linejoin:round;stroke-width:3px;"><g><path d="M 0 77 L 93.875 77 C 94.875 77 95.875 78 95.875 79 L 95.875 92 C 95.875 93 96.875 94 97.875 94 L 105.875 94 "/><path d="M 0 77 L 93.875 77 C 94.875 77 95.875 78 95.875 79 L 95.875 92 C 95.875 93 96.875 94 97.875 94 L 105.875 94 " class="clickable"/></g></g><g id="sprotty_ArchitectureBlockImpl$rvdffiee/BPortImpl$clk_to_ArchitectureBlockImpl$rvdffiee/GenerateStatementBlockImpl$null6/GPortImpl$clk" class="sprotty-edge edge" style="fill:none;stroke:rgb(112, 112, 112);stroke-linejoin:round;"><g><path d="M 0 145 L 93.875 145 C 94.875 145 95.875 146 95.875 147 L 95.875 155 C 95.875 156 96.875 157 97.875 157 L 105.875 157 "/><path d="M 0 145 L 93.875 145 C 94.875 145 95.875 146 95.875 147 L 95.875 155 C 95.875 156 96.875 157 97.875 157 L 105.875 157 " class="clickable"/></g></g><g id="sprotty_ArchitectureBlockImpl$rvdffiee/BPortImpl$rst_l_to_ArchitectureBlockImpl$rvdffiee/GenerateStatementBlockImpl$null6/GPortImpl$rst_l" class="sprotty-edge edge" style="fill:none;stroke:rgb(112, 112, 112);stroke-linejoin:round;"><g><path d="M 0 179 L 93.875 179 C 94.875 179 95.875 180 95.875 181 L 95.875 183 C 95.875 184 96.875 185 97.875 185 L 105.875 185 "/><path d="M 0 179 L 93.875 179 C 94.875 179 95.875 180 95.875 181 L 95.875 183 C 95.875 184 96.875 185 97.875 185 L 105.875 185 " class="clickable"/></g></g><g id="sprotty_ArchitectureBlockImpl$rvdffiee/BPortImpl$scan_mode_to_ArchitectureBlockImpl$rvdffiee/GenerateStatementBlockImpl$null6/GPortImpl$scan_mode" class="sprotty-edge edge" style="fill:none;stroke:rgb(112, 112, 112);stroke-linejoin:round;"><g><path d="M 0 213 L 105.875 213 "/><path d="M 0 213 L 105.875 213 " class="clickable"/></g></g><g id="sprotty_ArchitectureBlockImpl$rvdffiee/BPortImpl$dout_to_ArchitectureBlockImpl$rvdffiee/GenerateStatementBlockImpl$null6/GPortImpl$dout" class="sprotty-edge thick edge" style="fill:none;stroke:rgb(112, 112, 112);stroke-linejoin:round;stroke-width:3px;"><g><path d="M 414.59375 51 L 367.0625 51 "/><path d="M 414.59375 51 L 367.0625 51 " class="clickable"/></g></g><g id="sprotty_ArchitectureBlockImpl$rvdffiee/BPortImpl$en_to_ArchitectureBlockImpl$rvdffiee/GenerateStatementBlockImpl$null6/GPortImpl$en" class="sprotty-edge edge" style="fill:none;stroke:rgb(112, 112, 112);stroke-linejoin:round;"><g><path d="M 0 111 L 93.875 111 C 94.875 111 95.875 112 95.875 113 L 95.875 134 C 95.875 135 96.875 136 97.875 136 L 105.875 136 "/><path d="M 0 111 L 93.875 111 C 94.875 111 95.875 112 95.875 113 L 95.875 134 C 95.875 135 96.875 136 97.875 136 L 105.875 136 " class="clickable"/></g></g><g id="sprotty_ArchitectureBlockImpl$rvdffiee/GenerateStatementBlockImpl$null6" class="generate" transform="translate(105.875, 35)"><g class="sprotty-block sprotty-block-generate" style="fill:rgb(255, 255, 255);stroke:rgb(48, 48, 48);stroke-dasharray:0px;"><rect x="0" y="0" rx="1" ry="1" width="261.1875" height="211" style="stroke-dasharray:3px, 1px;"/><text x="130.59375" y="12" class="sprotty-block-name" style="cursor:pointer;font-weight:700;fill:rgb(48, 48, 48);stroke:rgba(0, 0, 0, 0);dominant-baseline:middle;text-anchor:middle;"/></g><g id="sprotty_ArchitectureBlockImpl$rvdffiee/GenerateStatementBlockImpl$null6/InstantiationBlockImpl$dff/BPortImpl$dout_to_ArchitectureBlockImpl$rvdffiee/GenerateStatementBlockImpl$null6/GPortImpl$dout" class="sprotty-edge thick edge" style="fill:none;stroke:rgb(112, 112, 112);stroke-linejoin:round;stroke-width:3px;"><g><path d="M 226.1875 122 L 234.1875 122 C 235.1875 122 236.1875 121 236.1875 120 L 236.1875 18 C 236.1875 17 237.1875 16 238.1875 16 L 261.1875 16 "/><path d="M 226.1875 122 L 234.1875 122 C 235.1875 122 236.1875 121 236.1875 120 L 236.1875 18 C 236.1875 17 237.1875 16 238.1875 16 L 261.1875 16 " class="clickable"/></g><circle r="3" id="sprotty_ArchitectureBlockImpl$rvdffiee/GenerateStatementBlockImpl$null6/InstantiationBlockImpl$dff/BPortImpl$dout_to_ArchitectureBlockImpl$rvdffiee/GenerateStatementBlockImpl$null6/GPortImpl$dout/junction0" transform="translate(236.1875, 16)" class="sprotty-junction thick" style="fill:rgb(112, 112, 112);stroke:none;"/></g><g id="sprotty_ArchitectureBlockImpl$rvdffiee/GenerateStatementBlockImpl$null6/GPortImpl$din_to_ArchitectureBlockImpl$rvdffiee/GenerateStatementBlockImpl$null6/InstantiationBlockImpl$dff/BPortImpl$din" class="sprotty-edge thick edge" style="fill:none;stroke:rgb(112, 112, 112);stroke-linejoin:round;stroke-width:3px;"><g><path d="M 0 59 L 72.4375 59 C 73.4375 59 74.4375 60 74.4375 61 L 74.4375 64 C 74.4375 65 75.4375 66 76.4375 66 L 84.4375 66 "/><path d="M 0 59 L 72.4375 59 C 73.4375 59 74.4375 60 74.4375 61 L 74.4375 64 C 74.4375 65 75.4375 66 76.4375 66 L 84.4375 66 " class="clickable"/></g></g><g id="sprotty_ArchitectureBlockImpl$rvdffiee/GenerateStatementBlockImpl$null6/GPortImpl$clk_to_ArchitectureBlockImpl$rvdffiee/GenerateStatementBlockImpl$null6/InstantiationBlockImpl$dff/BPortImpl$clk" class="sprotty-edge edge" style="fill:none;stroke:rgb(112, 112, 112);stroke-linejoin:round;"><g><path d="M 0 122 L 84.4375 122 "/><path d="M 0 122 L 84.4375 122 " class="clickable"/></g></g><g id="sprotty_ArchitectureBlockImpl$rvdffiee/GenerateStatementBlockImpl$null6/GPortImpl$rst_l_to_ArchitectureBlockImpl$rvdffiee/GenerateStatementBlockImpl$null6/InstantiationBlockImpl$dff/BPortImpl$rst_l" class="sprotty-edge edge" style="fill:none;stroke:rgb(112, 112, 112);stroke-linejoin:round;"><g><path d="M 0 150 L 84.4375 150 "/><path d="M 0 150 L 84.4375 150 " class="clickable"/></g></g><g id="sprotty_ArchitectureBlockImpl$rvdffiee/GenerateStatementBlockImpl$null6/GPortImpl$scan_mode_to_ArchitectureBlockImpl$rvdffiee/GenerateStatementBlockImpl$null6/InstantiationBlockImpl$dff/BPortImpl$scan_mode" class="sprotty-edge edge" style="fill:none;stroke:rgb(112, 112, 112);stroke-linejoin:round;"><g><path d="M 0 178 L 84.4375 178 "/><path d="M 0 178 L 84.4375 178 " class="clickable"/></g></g><g id="sprotty_ArchitectureBlockImpl$rvdffiee/GenerateStatementBlockImpl$null6/GPortImpl$din_to_ArchitectureBlockImpl$rvdffiee/GenerateStatementBlockImpl$null6/AssignmentBlockImpl$final_en/GPortImpl$dinIN" class="sprotty-edge thick edge" style="fill:none;stroke:rgb(112, 112, 112);stroke-linejoin:round;stroke-width:3px;"><g><path d="M 0 59 L 23 59 C 24 59 25 60 25 61 L 25 89 C 25 90 26 91 27 91 L 45 91 "/><path d="M 0 59 L 23 59 C 24 59 25 60 25 61 L 25 89 C 25 90 26 91 27 91 L 45 91 " class="clickable"/></g><circle r="3" id="sprotty_ArchitectureBlockImpl$rvdffiee/GenerateStatementBlockImpl$null6/GPortImpl$din_to_ArchitectureBlockImpl$rvdffiee/GenerateStatementBlockImpl$null6/AssignmentBlockImpl$final_en/GPortImpl$dinIN/junction0" transform="translate(25, 59)" class="sprotty-junction thick" style="fill:rgb(112, 112, 112);stroke:none;"/></g><g id="sprotty_ArchitectureBlockImpl$rvdffiee/GenerateStatementBlockImpl$null6/GPortImpl$dout_to_ArchitectureBlockImpl$rvdffiee/GenerateStatementBlockImpl$null6/AssignmentBlockImpl$final_en/GPortImpl$doutIN" class="sprotty-edge thick edge" style="fill:none;stroke:rgb(112, 112, 112);stroke-linejoin:round;stroke-width:3px;"><g><path d="M 261.1875 16 L 37 16 C 36 16 35 17 35 18 L 35 79 C 35 80 36 81 37 81 L 45 81 "/><path d="M 261.1875 16 L 37 16 C 36 16 35 17 35 18 L 35 79 C 35 80 36 81 37 81 L 45 81 " class="clickable"/></g></g><g id="sprotty_ArchitectureBlockImpl$rvdffiee/GenerateStatementBlockImpl$null6/GPortImpl$en_to_ArchitectureBlockImpl$rvdffiee/GenerateStatementBlockImpl$null6/AssignmentBlockImpl$final_en/GPortImpl$enIN" class="sprotty-edge edge" style="fill:none;stroke:rgb(112, 112, 112);stroke-linejoin:round;"><g><path d="M 0 101 L 45 101 "/><path d="M 0 101 L 45 101 " class="clickable"/></g></g><g id="sprotty_ArchitectureBlockImpl$rvdffiee/GenerateStatementBlockImpl$null6/AssignmentBlockImpl$final_en/GPortImpl$final_enOUT_to_ArchitectureBlockImpl$rvdffiee/GenerateStatementBlockImpl$null6/InstantiationBlockImpl$dff/BPortImpl$en" class="sprotty-edge edge" style="fill:none;stroke:rgb(112, 112, 112);stroke-linejoin:round;"><g><path d="M 64.4375 91 L 72.4375 91 C 73.4375 91 74.4375 92 74.4375 93 L 74.4375 93 C 74.4375 93.5 75.4375 94 76.4375 94 L 84.4375 94 "/><path d="M 64.4375 91 L 72.4375 91 C 73.4375 91 74.4375 92 74.4375 93 L 74.4375 93 C 74.4375 93.5 75.4375 94 76.4375 94 L 84.4375 94 " class="clickable"/></g></g><g id="sprotty_ArchitectureBlockImpl$rvdffiee/GenerateStatementBlockImpl$null6/AssignmentBlockImpl$final_en" class="statement" transform="translate(45, 71)"><rect x="0" y="0" rx="10" ry="5" width="19.4375" height="40" class="sprotty-node" style="fill:rgb(245, 245, 245);stroke:rgb(112, 112, 112);"/><text class="clickable sprotty-label statementtype" id="sprotty_ArchitectureBlockImpl$rvdffiee/GenerateStatementBlockImpl$null6/AssignmentBlockImpl$final_en/labeltype" transform="translate(5, 14) translate(4.71875, 9.5)" style="cursor:default;font-size:8px;font-weight:700;perspective-origin:0px 0px;fill:rgb(112, 112, 112);text-anchor:middle;">&lt;=</text><g id="sprotty_ArchitectureBlockImpl$rvdffiee/GenerateStatementBlockImpl$null6/AssignmentBlockImpl$final_en/GPortImpl$enIN" class="sprotty-hidden hidden" transform="translate(0, 30)" style="display:block;height:0px;width:0px;"/><g id="sprotty_ArchitectureBlockImpl$rvdffiee/GenerateStatementBlockImpl$null6/AssignmentBlockImpl$final_en/GPortImpl$doutIN" class="sprotty-hidden hidden" transform="translate(0, 10)" style="display:block;height:0px;width:0px;"/><g id="sprotty_ArchitectureBlockImpl$rvdffiee/GenerateStatementBlockImpl$null6/AssignmentBlockImpl$final_en/GPortImpl$dinIN" class="sprotty-hidden hidden" transform="translate(0, 20)" style="display:block;height:0px;width:0px;"/><g id="sprotty_ArchitectureBlockImpl$rvdffiee/GenerateStatementBlockImpl$null6/AssignmentBlockImpl$final_en/GPortImpl$final_enOUT" class="sprotty-hidden hidden" transform="translate(19.4375, 20)" style="display:block;height:0px;width:0px;"/></g><g id="sprotty_ArchitectureBlockImpl$rvdffiee/GenerateStatementBlockImpl$null6/InstantiationBlockImpl$dff" class="instantiation" transform="translate(84.4375, 28)"><g class="sprotty-block" style="fill:rgb(255, 255, 255);stroke:rgb(48, 48, 48);stroke-dasharray:0px;"><rect x="0" y="0" rx="1" ry="1" width="141.75" height="168"/><text x="70.875" y="12" class="sprotty-block-name" style="cursor:pointer;font-weight:700;perspective-origin:70.875px 0px;fill:rgb(48, 48, 48);stroke:rgba(0, 0, 0, 0);dominant-baseline:middle;text-anchor:middle;">dff : rvdffe</text><line x1="0" y1="20" x2="141.75" y2="20"/></g><g id="sprotty_ArchitectureBlockImpl$rvdffiee/GenerateStatementBlockImpl$null6/InstantiationBlockImpl$dff/BPortImpl$scan_mode" class="triangle" transform="translate(0, 150)"><path d="M 0,0 L 5,2.5 L 0,5 Z" transform="translate(-1.67, -2.5)" class="sprotty-port" style="fill:rgb(48, 48, 48);stroke:rgb(48, 48, 48);"/><text class="clickable sprotty-label port" id="sprotty_ArchitectureBlockImpl$rvdffiee/GenerateStatementBlockImpl$null6/InstantiationBlockImpl$dff/BPortImpl$scan_mode/label" transform="translate(6, -9) translate(32.4375, 14)" style="cursor:default;font-size:12px;perspective-origin:0px 0px;fill:rgb(48, 48, 48);text-anchor:middle;">scan_mode</text></g><g id="sprotty_ArchitectureBlockImpl$rvdffiee/GenerateStatementBlockImpl$null6/InstantiationBlockImpl$dff/BPortImpl$rst_l" class="triangle" transform="translate(0, 122)"><path d="M 0,0 L 5,2.5 L 0,5 Z" transform="translate(-1.67, -2.5)" class="sprotty-port" style="fill:rgb(48, 48, 48);stroke:rgb(48, 48, 48);"/><text class="clickable sprotty-label port" id="sprotty_ArchitectureBlockImpl$rvdffiee/GenerateStatementBlockImpl$null6/InstantiationBlockImpl$dff/BPortImpl$rst_l/label" transform="translate(6, -9) translate(12.3125, 14)" style="cursor:default;font-size:12px;perspective-origin:0px 0px;fill:rgb(48, 48, 48);text-anchor:middle;">rst_l</text></g><g id="sprotty_ArchitectureBlockImpl$rvdffiee/GenerateStatementBlockImpl$null6/InstantiationBlockImpl$dff/BPortImpl$clk" class="triangle" transform="translate(0, 94)"><path d="M 0,0 L 5,2.5 L 0,5 Z" transform="translate(-1.67, -2.5)" class="sprotty-port" style="fill:rgb(48, 48, 48);stroke:rgb(48, 48, 48);"/><text class="clickable sprotty-label port" id="sprotty_ArchitectureBlockImpl$rvdffiee/GenerateStatementBlockImpl$null6/InstantiationBlockImpl$dff/BPortImpl$clk/label" transform="translate(6, -9) translate(8.078125, 14)" style="cursor:default;font-size:12px;perspective-origin:0px 0px;fill:rgb(48, 48, 48);text-anchor:middle;">clk</text></g><g id="sprotty_ArchitectureBlockImpl$rvdffiee/GenerateStatementBlockImpl$null6/InstantiationBlockImpl$dff/BPortImpl$en" class="triangle" transform="translate(0, 66)"><path d="M 0,0 L 5,2.5 L 0,5 Z" transform="translate(-1.67, -2.5)" class="sprotty-port" style="fill:rgb(48, 48, 48);stroke:rgb(48, 48, 48);"/><text class="clickable sprotty-label port" id="sprotty_ArchitectureBlockImpl$rvdffiee/GenerateStatementBlockImpl$null6/InstantiationBlockImpl$dff/BPortImpl$en/label" transform="translate(6, -9) translate(7, 14)" style="cursor:default;font-size:12px;perspective-origin:0px 0px;fill:rgb(48, 48, 48);text-anchor:middle;">en</text></g><g id="sprotty_ArchitectureBlockImpl$rvdffiee/GenerateStatementBlockImpl$null6/InstantiationBlockImpl$dff/BPortImpl$din" class="triangle" transform="translate(0, 38)"><path d="M 0,0 L 5,2.5 L 0,5 Z" transform="translate(-1.67, -2.5)" class="sprotty-port" style="fill:rgb(48, 48, 48);stroke:rgb(48, 48, 48);"/><text class="clickable sprotty-label port" id="sprotty_ArchitectureBlockImpl$rvdffiee/GenerateStatementBlockImpl$null6/InstantiationBlockImpl$dff/BPortImpl$din/label" transform="translate(6, -9) translate(9.046875, 14)" style="cursor:default;font-size:12px;perspective-origin:0px 0px;fill:rgb(48, 48, 48);text-anchor:middle;">din</text></g><g id="sprotty_ArchitectureBlockImpl$rvdffiee/GenerateStatementBlockImpl$null6/InstantiationBlockImpl$dff/BPortImpl$dout" class="triangle" transform="translate(141.75, 94)"><path d="M 0,0 L 5,2.5 L 0,5 Z" transform="translate(-1.67, -2.5)" class="sprotty-port" style="fill:rgb(48, 48, 48);stroke:rgb(48, 48, 48);"/><text class="clickable sprotty-label port" id="sprotty_ArchitectureBlockImpl$rvdffiee/GenerateStatementBlockImpl$null6/InstantiationBlockImpl$dff/BPortImpl$dout/label" transform="translate(-32.53125, -9) translate(13.265625, 14)" style="cursor:default;font-size:12px;perspective-origin:0px 0px;fill:rgb(48, 48, 48);text-anchor:middle;">dout</text></g></g><g id="sprotty_ArchitectureBlockImpl$rvdffiee/GenerateStatementBlockImpl$null6/GPortImpl$en" class="triangle" transform="translate(0, 101)"><path d="M 0,0 L 5,2.5 L 0,5 Z" transform="translate(-1.67, -2.5)" class="sprotty-port" style="fill:rgb(48, 48, 48);stroke:rgb(48, 48, 48);"/></g><g id="sprotty_ArchitectureBlockImpl$rvdffiee/GenerateStatementBlockImpl$null6/GPortImpl$scan_mode" class="triangle" transform="translate(0, 178)"><path d="M 0,0 L 5,2.5 L 0,5 Z" transform="translate(-1.67, -2.5)" class="sprotty-port" style="fill:rgb(48, 48, 48);stroke:rgb(48, 48, 48);"/></g><g id="sprotty_ArchitectureBlockImpl$rvdffiee/GenerateStatementBlockImpl$null6/GPortImpl$rst_l" class="triangle" transform="translate(0, 150)"><path d="M 0,0 L 5,2.5 L 0,5 Z" transform="translate(-1.67, -2.5)" class="sprotty-port" style="fill:rgb(48, 48, 48);stroke:rgb(48, 48, 48);"/></g><g id="sprotty_ArchitectureBlockImpl$rvdffiee/GenerateStatementBlockImpl$null6/GPortImpl$clk" class="triangle" transform="translate(0, 122)"><path d="M 0,0 L 5,2.5 L 0,5 Z" transform="translate(-1.67, -2.5)" class="sprotty-port" style="fill:rgb(48, 48, 48);stroke:rgb(48, 48, 48);"/></g><g id="sprotty_ArchitectureBlockImpl$rvdffiee/GenerateStatementBlockImpl$null6/GPortImpl$din" class="triangle" transform="translate(0, 59)"><path d="M 0,0 L 5,2.5 L 0,5 Z" transform="translate(-1.67, -2.5)" class="sprotty-port" style="fill:rgb(48, 48, 48);stroke:rgb(48, 48, 48);"/></g><g id="sprotty_ArchitectureBlockImpl$rvdffiee/GenerateStatementBlockImpl$null6/GPortImpl$dout" class="triangle" transform="translate(261.1875, 16)"><path d="M 0,0 L 5,2.5 L 0,5 Z" transform="translate(-1.67, -2.5)" class="sprotty-port" style="fill:rgb(48, 48, 48);stroke:rgb(48, 48, 48);"/></g></g><g id="sprotty_ArchitectureBlockImpl$rvdffiee/BPortImpl$en" class="triangle" transform="translate(0, 111)"><path d="M 0,0 L 5,2.5 L 0,5 Z" transform="translate(-1.67, -2.5)" class="sprotty-port" style="fill:rgb(48, 48, 48);stroke:rgb(48, 48, 48);"/><text class="clickable sprotty-label port" id="sprotty_ArchitectureBlockImpl$rvdffiee/BPortImpl$en/label" transform="translate(6, 6) translate(7, 14)" style="cursor:default;font-size:12px;perspective-origin:0px 0px;fill:rgb(48, 48, 48);text-anchor:middle;">en</text></g><g id="sprotty_ArchitectureBlockImpl$rvdffiee/BPortImpl$scan_mode" class="triangle" transform="translate(0, 213)"><path d="M 0,0 L 5,2.5 L 0,5 Z" transform="translate(-1.67, -2.5)" class="sprotty-port" style="fill:rgb(48, 48, 48);stroke:rgb(48, 48, 48);"/><text class="clickable sprotty-label port" id="sprotty_ArchitectureBlockImpl$rvdffiee/BPortImpl$scan_mode/label" transform="translate(6, 6) translate(32.4375, 14)" style="cursor:default;font-size:12px;perspective-origin:0px 0px;fill:rgb(48, 48, 48);text-anchor:middle;">scan_mode</text></g><g id="sprotty_ArchitectureBlockImpl$rvdffiee/BPortImpl$rst_l" class="triangle" transform="translate(0, 179)"><path d="M 0,0 L 5,2.5 L 0,5 Z" transform="translate(-1.67, -2.5)" class="sprotty-port" style="fill:rgb(48, 48, 48);stroke:rgb(48, 48, 48);"/><text class="clickable sprotty-label port" id="sprotty_ArchitectureBlockImpl$rvdffiee/BPortImpl$rst_l/label" transform="translate(6, 6) translate(12.3125, 14)" style="cursor:default;font-size:12px;perspective-origin:0px 0px;fill:rgb(48, 48, 48);text-anchor:middle;">rst_l</text></g><g id="sprotty_ArchitectureBlockImpl$rvdffiee/BPortImpl$clk" class="triangle" transform="translate(0, 145)"><path d="M 0,0 L 5,2.5 L 0,5 Z" transform="translate(-1.67, -2.5)" class="sprotty-port" style="fill:rgb(48, 48, 48);stroke:rgb(48, 48, 48);"/><text class="clickable sprotty-label port" id="sprotty_ArchitectureBlockImpl$rvdffiee/BPortImpl$clk/label" transform="translate(6, 6) translate(8.078125, 14)" style="cursor:default;font-size:12px;perspective-origin:0px 0px;fill:rgb(48, 48, 48);text-anchor:middle;">clk</text></g><g id="sprotty_ArchitectureBlockImpl$rvdffiee/BPortImpl$din" class="triangle" transform="translate(0, 77)"><path d="M 0,0 L 5,2.5 L 0,5 Z" transform="translate(-1.67, -2.5)" class="sprotty-port" style="fill:rgb(48, 48, 48);stroke:rgb(48, 48, 48);"/><text class="clickable sprotty-label port" id="sprotty_ArchitectureBlockImpl$rvdffiee/BPortImpl$din/label" transform="translate(6, 6) translate(9.046875, 14)" style="cursor:default;font-size:12px;perspective-origin:0px 0px;fill:rgb(48, 48, 48);text-anchor:middle;">din</text></g><g id="sprotty_ArchitectureBlockImpl$rvdffiee/BPortImpl$dout" class="triangle" transform="translate(414.59375, 51)"><path d="M 0,0 L 5,2.5 L 0,5 Z" transform="translate(-1.67, -2.5)" class="sprotty-port" style="fill:rgb(48, 48, 48);stroke:rgb(48, 48, 48);"/><text class="clickable sprotty-label port" id="sprotty_ArchitectureBlockImpl$rvdffiee/BPortImpl$dout/label" transform="translate(-32.53125, 6) translate(13.265625, 14)" style="cursor:default;font-size:12px;perspective-origin:0px 0px;fill:rgb(48, 48, 48);text-anchor:middle;">dout</text></g></g></g></svg>