<svg xmlns="http://www.w3.org/2000/svg" id="sprotty_work.eh2_lsu_trigger" class="sprotty-graph sprotty-block-diagram blockdiagram" style="font-family:&quot;Noto Sans&quot;, Helvetica, Arial, sans-serif;perspective-origin:0px 0px;transform-origin:0px 0px;" version="1.1" viewBox="7 7 1158 391" width="1158" height="391"><g transform="scale(1) translate(0,0)"><g id="sprotty_ArchitectureBlockImpl$eh2_lsu_trigger" class="architecture" transform="translate(12, 12)"><g class="sprotty-block" style="fill:rgb(255, 255, 255);stroke:rgb(48, 48, 48);stroke-dasharray:0px;"><rect x="0" y="0" rx="1" ry="1" width="1148" height="381"/><text x="574" y="12" class="sprotty-block-name" style="cursor:pointer;font-weight:700;perspective-origin:574.016px 0px;fill:rgb(48, 48, 48);stroke:rgba(0, 0, 0, 0);dominant-baseline:middle;text-anchor:middle;">eh2_lsu_trigger</text><line x1="0" y1="20" x2="1148" y2="20"/></g><g id="sprotty_ArchitectureBlockImpl$eh2_lsu_trigger/GenerateStatementBlockImpl$null11/GPortImpl$lsu_trigger_match_dc4_to_ArchitectureBlockImpl$eh2_lsu_trigger/BPortImpl$lsu_trigger_match_dc4" class="sprotty-edge thick edge" style="fill:none;stroke:rgb(112, 112, 112);stroke-linejoin:round;stroke-width:3px;"><g><path d="M 997.78125 194 L 1148 194 "/><path d="M 997.78125 194 L 1148 194 " class="clickable"/></g></g><g id="sprotty_ArchitectureBlockImpl$eh2_lsu_trigger/BPortImpl$lsu_pkt_dc3_to_ArchitectureBlockImpl$eh2_lsu_trigger/InstantiationBlockImpl$store_data_trigger_ff/BPortImpl$en" class="sprotty-edge thick edge" style="fill:none;stroke:rgb(112, 112, 112);stroke-linejoin:round;stroke-width:3px;"><g><path d="M 0 206 L 118.21875 206 C 119.21875 206 120.21875 207 120.21875 208 L 120.21875 238 C 120.21875 239 121.21875 240 122.21875 240 L 280.84375 240 C 281.84375 240 282.84375 241 282.84375 242 L 282.84375 256 C 282.84375 257 283.84375 258 284.84375 258 L 292.84375 258 "/><path d="M 0 206 L 118.21875 206 C 119.21875 206 120.21875 207 120.21875 208 L 120.21875 238 C 120.21875 239 121.21875 240 122.21875 240 L 280.84375 240 C 281.84375 240 282.84375 241 282.84375 242 L 282.84375 256 C 282.84375 257 283.84375 258 284.84375 258 L 292.84375 258 " class="clickable"/></g><circle r="3" id="sprotty_ArchitectureBlockImpl$eh2_lsu_trigger/BPortImpl$lsu_pkt_dc3_to_ArchitectureBlockImpl$eh2_lsu_trigger/InstantiationBlockImpl$store_data_trigger_ff/BPortImpl$en/junction0" transform="translate(120.21875, 206)" class="sprotty-junction thick" style="fill:rgb(112, 112, 112);stroke:none;"/><circle r="3" id="sprotty_ArchitectureBlockImpl$eh2_lsu_trigger/BPortImpl$lsu_pkt_dc3_to_ArchitectureBlockImpl$eh2_lsu_trigger/InstantiationBlockImpl$store_data_trigger_ff/BPortImpl$en/junction1" transform="translate(120.21875, 240)" class="sprotty-junction thick" style="fill:rgb(112, 112, 112);stroke:none;"/></g><g id="sprotty_ArchitectureBlockImpl$eh2_lsu_trigger/BPortImpl$clk_override_to_ArchitectureBlockImpl$eh2_lsu_trigger/InstantiationBlockImpl$store_data_trigger_ff/BPortImpl$en" class="sprotty-edge edge" style="fill:none;stroke:rgb(112, 112, 112);stroke-linejoin:round;"><g><path d="M 0 240 L 280.84375 240 C 281.84375 240 282.84375 241 282.84375 242 L 282.84375 256 C 282.84375 257 283.84375 258 284.84375 258 L 292.84375 258 "/><path d="M 0 240 L 280.84375 240 C 281.84375 240 282.84375 241 282.84375 242 L 282.84375 256 C 282.84375 257 283.84375 258 284.84375 258 L 292.84375 258 " class="clickable"/></g></g><g id="sprotty_ArchitectureBlockImpl$eh2_lsu_trigger/BPortImpl$clk_to_ArchitectureBlockImpl$eh2_lsu_trigger/InstantiationBlockImpl$store_data_trigger_ff/BPortImpl$clk" class="sprotty-edge edge" style="fill:none;stroke:rgb(112, 112, 112);stroke-linejoin:round;"><g><path d="M 0 274 L 280.84375 274 C 281.84375 274 282.84375 275 282.84375 276 L 282.84375 284 C 282.84375 285 283.84375 286 284.84375 286 L 292.84375 286 "/><path d="M 0 274 L 280.84375 274 C 281.84375 274 282.84375 275 282.84375 276 L 282.84375 284 C 282.84375 285 283.84375 286 284.84375 286 L 292.84375 286 " class="clickable"/></g></g><g id="sprotty_ArchitectureBlockImpl$eh2_lsu_trigger/BPortImpl$rst_l_to_ArchitectureBlockImpl$eh2_lsu_trigger/InstantiationBlockImpl$store_data_trigger_ff/BPortImpl$rst_l" class="sprotty-edge edge" style="fill:none;stroke:rgb(112, 112, 112);stroke-linejoin:round;"><g><path d="M 0 308 L 280.84375 308 C 281.84375 308 282.84375 309 282.84375 310 L 282.84375 312 C 282.84375 313 283.84375 314 284.84375 314 L 292.84375 314 "/><path d="M 0 308 L 280.84375 308 C 281.84375 308 282.84375 309 282.84375 310 L 282.84375 312 C 282.84375 313 283.84375 314 284.84375 314 L 292.84375 314 " class="clickable"/></g></g><g id="sprotty_ArchitectureBlockImpl$eh2_lsu_trigger/BPortImpl$scan_mode_to_ArchitectureBlockImpl$eh2_lsu_trigger/InstantiationBlockImpl$store_data_trigger_ff/BPortImpl$scan_mode" class="sprotty-edge edge" style="fill:none;stroke:rgb(112, 112, 112);stroke-linejoin:round;"><g><path d="M 0 342 L 292.84375 342 "/><path d="M 0 342 L 292.84375 342 " class="clickable"/></g></g><g id="sprotty_ArchitectureBlockImpl$eh2_lsu_trigger/BPortImpl$lsu_pkt_dc3_to_ArchitectureBlockImpl$eh2_lsu_trigger/AssignmentBlockImpl$trigger_store_data_dc3/GPortImpl$lsu_pkt_dc3IN" class="sprotty-edge thick edge" style="fill:none;stroke:rgb(112, 112, 112);stroke-linejoin:round;stroke-width:3px;"><g><path d="M 0 206 L 118.21875 206 C 119.21875 206 120.21875 205 120.21875 204 L 120.21875 197 C 120.21875 196 121.21875 195 122.21875 195 L 213.96875 195 "/><path d="M 0 206 L 118.21875 206 C 119.21875 206 120.21875 205 120.21875 204 L 120.21875 197 C 120.21875 196 121.21875 195 122.21875 195 L 213.96875 195 " class="clickable"/></g></g><g id="sprotty_ArchitectureBlockImpl$eh2_lsu_trigger/BPortImpl$amo_data_dc3_to_ArchitectureBlockImpl$eh2_lsu_trigger/AssignmentBlockImpl$trigger_store_data_dc3/GPortImpl$amo_data_dc3IN" class="sprotty-edge thick edge" style="fill:none;stroke:rgb(112, 112, 112);stroke-linejoin:round;stroke-width:3px;"><g><path d="M 0 172 L 201.96875 172 C 202.96875 172 203.96875 173 203.96875 174 L 203.96875 174 C 203.96875 174.5 204.96875 175 205.96875 175 L 213.96875 175 "/><path d="M 0 172 L 201.96875 172 C 202.96875 172 203.96875 173 203.96875 174 L 203.96875 174 C 203.96875 174.5 204.96875 175 205.96875 175 L 213.96875 175 " class="clickable"/></g></g><g id="sprotty_ArchitectureBlockImpl$eh2_lsu_trigger/BPortImpl$store_data_dc3_to_ArchitectureBlockImpl$eh2_lsu_trigger/AssignmentBlockImpl$trigger_store_data_dc3/GPortImpl$store_data_dc3IN" class="sprotty-edge thick edge" style="fill:none;stroke:rgb(112, 112, 112);stroke-linejoin:round;stroke-width:3px;"><g><path d="M 0 138 L 201.96875 138 C 202.96875 138 203.96875 139 203.96875 140 L 203.96875 163 C 203.96875 164 204.96875 165 205.96875 165 L 213.96875 165 "/><path d="M 0 138 L 201.96875 138 C 202.96875 138 203.96875 139 203.96875 140 L 203.96875 163 C 203.96875 164 204.96875 165 205.96875 165 L 213.96875 165 " class="clickable"/></g></g><g id="sprotty_ArchitectureBlockImpl$eh2_lsu_trigger/BPortImpl$lsu_pkt_dc3_to_ArchitectureBlockImpl$eh2_lsu_trigger/AssignmentBlockImpl$store_data_trigger_dc3/GPortImpl$lsu_pkt_dc3IN" class="sprotty-edge thick edge" style="fill:none;stroke:rgb(112, 112, 112);stroke-linejoin:round;stroke-width:3px;"><g><path d="M 0 206 L 118.21875 206 C 119.21875 206 120.21875 207 120.21875 208 L 120.21875 238 C 120.21875 239 121.21875 240 122.21875 240 L 241.40625 240 C 242.40625 240 243.40625 239 243.40625 238 L 243.40625 192 C 243.40625 191 244.40625 190 245.40625 190 L 253.40625 190 "/><path d="M 0 206 L 118.21875 206 C 119.21875 206 120.21875 207 120.21875 208 L 120.21875 238 C 120.21875 239 121.21875 240 122.21875 240 L 241.40625 240 C 242.40625 240 243.40625 239 243.40625 238 L 243.40625 192 C 243.40625 191 244.40625 190 245.40625 190 L 253.40625 190 " class="clickable"/></g><circle r="3" id="sprotty_ArchitectureBlockImpl$eh2_lsu_trigger/BPortImpl$lsu_pkt_dc3_to_ArchitectureBlockImpl$eh2_lsu_trigger/AssignmentBlockImpl$store_data_trigger_dc3/GPortImpl$lsu_pkt_dc3IN/junction0" transform="translate(243.40625, 190)" class="sprotty-junction thick" style="fill:rgb(112, 112, 112);stroke:none;"/></g><g id="sprotty_ArchitectureBlockImpl$eh2_lsu_trigger/BPortImpl$lsu_addr_dc4_to_ArchitectureBlockImpl$eh2_lsu_trigger/AssignmentBlockImpl$ldst_addr_trigger_dc4/GPortImpl$lsu_addr_dc4IN" class="sprotty-edge thick edge" style="fill:none;stroke:rgb(112, 112, 112);stroke-linejoin:round;stroke-width:3px;"><g><path d="M 0 104 L 253.40625 104 "/><path d="M 0 104 L 253.40625 104 " class="clickable"/></g></g><g id="sprotty_ArchitectureBlockImpl$eh2_lsu_trigger/BPortImpl$trigger_pkt_any_to_ArchitectureBlockImpl$eh2_lsu_trigger/GenerateStatementBlockImpl$null11/GPortImpl$trigger_pkt_any" class="sprotty-edge thick edge" style="fill:none;stroke:rgb(112, 112, 112);stroke-linejoin:round;stroke-width:3px;"><g><path d="M 0 70 L 546.25 70 C 547.25 70 548.25 71 548.25 72 L 548.25 242 C 548.25 243 549.25 244 550.25 244 L 568.25 244 "/><path d="M 0 70 L 546.25 70 C 547.25 70 548.25 71 548.25 72 L 548.25 242 C 548.25 243 549.25 244 550.25 244 L 568.25 244 " class="clickable"/></g></g><g id="sprotty_ArchitectureBlockImpl$eh2_lsu_trigger/BPortImpl$lsu_pkt_dc4_to_ArchitectureBlockImpl$eh2_lsu_trigger/GenerateStatementBlockImpl$null11/GPortImpl$lsu_pkt_dc4" class="sprotty-edge thick edge" style="fill:none;stroke:rgb(112, 112, 112);stroke-linejoin:round;stroke-width:3px;"><g><path d="M 0 36 L 556.25 36 C 557.25 36 558.25 37 558.25 38 L 558.25 182 C 558.25 183 559.25 184 560.25 184 L 568.25 184 "/><path d="M 0 36 L 556.25 36 C 557.25 36 558.25 37 558.25 38 L 558.25 182 C 558.25 183 559.25 184 560.25 184 L 568.25 184 " class="clickable"/></g></g><g id="sprotty_ArchitectureBlockImpl$eh2_lsu_trigger/AlwaysBlockImpl$null12/GPortImpl$trigger_enableOUT_to_ArchitectureBlockImpl$eh2_lsu_trigger/InstantiationBlockImpl$store_data_trigger_ff/BPortImpl$en" class="sprotty-edge edge" style="fill:none;stroke:rgb(112, 112, 112);stroke-linejoin:round;"><g><path d="M 193.96875 218 L 201.96875 218 C 202.96875 218 203.96875 219 203.96875 220 L 203.96875 238 C 203.96875 239 204.96875 240 205.96875 240 L 280.84375 240 C 281.84375 240 282.84375 241 282.84375 242 L 282.84375 256 C 282.84375 257 283.84375 258 284.84375 258 L 292.84375 258 "/><path d="M 193.96875 218 L 201.96875 218 C 202.96875 218 203.96875 219 203.96875 220 L 203.96875 238 C 203.96875 239 204.96875 240 205.96875 240 L 280.84375 240 C 281.84375 240 282.84375 241 282.84375 242 L 282.84375 256 C 282.84375 257 283.84375 258 284.84375 258 L 292.84375 258 " class="clickable"/></g><circle r="2" id="sprotty_ArchitectureBlockImpl$eh2_lsu_trigger/AlwaysBlockImpl$null12/GPortImpl$trigger_enableOUT_to_ArchitectureBlockImpl$eh2_lsu_trigger/InstantiationBlockImpl$store_data_trigger_ff/BPortImpl$en/junction0" transform="translate(203.96875, 218)" class="sprotty-junction junction" style="fill:rgb(112, 112, 112);stroke:none;"/><circle r="2" id="sprotty_ArchitectureBlockImpl$eh2_lsu_trigger/AlwaysBlockImpl$null12/GPortImpl$trigger_enableOUT_to_ArchitectureBlockImpl$eh2_lsu_trigger/InstantiationBlockImpl$store_data_trigger_ff/BPortImpl$en/junction1" transform="translate(203.96875, 240)" class="sprotty-junction junction" style="fill:rgb(112, 112, 112);stroke:none;"/></g><g id="sprotty_ArchitectureBlockImpl$eh2_lsu_trigger/AlwaysBlockImpl$null12/GPortImpl$trigger_enableOUT_to_ArchitectureBlockImpl$eh2_lsu_trigger/AssignmentBlockImpl$trigger_store_data_dc3/GPortImpl$trigger_enableIN" class="sprotty-edge edge" style="fill:none;stroke:rgb(112, 112, 112);stroke-linejoin:round;"><g><path d="M 193.96875 218 L 201.96875 218 C 202.96875 218 203.96875 217 203.96875 216 L 203.96875 187 C 203.96875 186 204.96875 185 205.96875 185 L 213.96875 185 "/><path d="M 193.96875 218 L 201.96875 218 C 202.96875 218 203.96875 217 203.96875 216 L 203.96875 187 C 203.96875 186 204.96875 185 205.96875 185 L 213.96875 185 " class="clickable"/></g></g><g id="sprotty_ArchitectureBlockImpl$eh2_lsu_trigger/AlwaysBlockImpl$null12/GPortImpl$trigger_enableOUT_to_ArchitectureBlockImpl$eh2_lsu_trigger/AssignmentBlockImpl$ldst_addr_trigger_dc4/GPortImpl$trigger_enableIN" class="sprotty-edge edge" style="fill:none;stroke:rgb(112, 112, 112);stroke-linejoin:round;"><g><path d="M 193.96875 218 L 201.96875 218 C 202.96875 218 203.96875 219 203.96875 220 L 203.96875 238 C 203.96875 239 204.96875 240 205.96875 240 L 241.40625 240 C 242.40625 240 243.40625 239 243.40625 238 L 243.40625 116 C 243.40625 115 244.40625 114 245.40625 114 L 253.40625 114 "/><path d="M 193.96875 218 L 201.96875 218 C 202.96875 218 203.96875 219 203.96875 220 L 203.96875 238 C 203.96875 239 204.96875 240 205.96875 240 L 241.40625 240 C 242.40625 240 243.40625 239 243.40625 238 L 243.40625 116 C 243.40625 115 244.40625 114 245.40625 114 L 253.40625 114 " class="clickable"/></g><circle r="2" id="sprotty_ArchitectureBlockImpl$eh2_lsu_trigger/AlwaysBlockImpl$null12/GPortImpl$trigger_enableOUT_to_ArchitectureBlockImpl$eh2_lsu_trigger/AssignmentBlockImpl$ldst_addr_trigger_dc4/GPortImpl$trigger_enableIN/junction0" transform="translate(243.40625, 240)" class="sprotty-junction junction" style="fill:rgb(112, 112, 112);stroke:none;"/></g><g id="sprotty_ArchitectureBlockImpl$eh2_lsu_trigger/AssignmentBlockImpl$ldst_addr_trigger_dc4/GPortImpl$trigger_enableOUT_to_ArchitectureBlockImpl$eh2_lsu_trigger/GenerateStatementBlockImpl$null11/GPortImpl$ldst_addr_trigger_dc4" class="sprotty-edge thick edge" style="fill:none;stroke:rgb(112, 112, 112);stroke-linejoin:round;stroke-width:3px;"><g><path d="M 272.84375 109 L 536.25 109 C 537.25 109 538.25 110 538.25 111 L 538.25 274 C 538.25 275 539.25 276 540.25 276 L 568.25 276 "/><path d="M 272.84375 109 L 536.25 109 C 537.25 109 538.25 110 538.25 111 L 538.25 274 C 538.25 275 539.25 276 540.25 276 L 568.25 276 " class="clickable"/></g></g><g id="sprotty_ArchitectureBlockImpl$eh2_lsu_trigger/AssignmentBlockImpl$trigger_store_data_dc3/GPortImpl$trigger_enableOUT_to_ArchitectureBlockImpl$eh2_lsu_trigger/AssignmentBlockImpl$store_data_trigger_dc3/GPortImpl$trigger_store_data_dc3IN" class="sprotty-edge thick edge" style="fill:none;stroke:rgb(112, 112, 112);stroke-linejoin:round;stroke-width:3px;"><g><path d="M 233.40625 180 L 253.40625 180 "/><path d="M 233.40625 180 L 253.40625 180 " class="clickable"/></g></g><g id="sprotty_ArchitectureBlockImpl$eh2_lsu_trigger/AssignmentBlockImpl$store_data_trigger_dc3/GPortImpl$trigger_store_data_dc3OUT_to_ArchitectureBlockImpl$eh2_lsu_trigger/InstantiationBlockImpl$store_data_trigger_ff/BPortImpl$din" class="sprotty-edge thick edge" style="fill:none;stroke:rgb(112, 112, 112);stroke-linejoin:round;stroke-width:3px;"><g><path d="M 272.84375 185 L 280.84375 185 C 281.84375 185 282.84375 186 282.84375 187 L 282.84375 228 C 282.84375 229 283.84375 230 284.84375 230 L 292.84375 230 "/><path d="M 272.84375 185 L 280.84375 185 C 281.84375 185 282.84375 186 282.84375 187 L 282.84375 228 C 282.84375 229 283.84375 230 284.84375 230 L 292.84375 230 " class="clickable"/></g></g><g id="sprotty_ArchitectureBlockImpl$eh2_lsu_trigger/InstantiationBlockImpl$store_data_trigger_ff/BPortImpl$dout_to_ArchitectureBlockImpl$eh2_lsu_trigger/GenerateStatementBlockImpl$null11/GPortImpl$store_data_trigger_dc4" class="sprotty-edge thick edge" style="fill:none;stroke:rgb(112, 112, 112);stroke-linejoin:round;stroke-width:3px;"><g><path d="M 528.25 286 L 568.25 286 "/><path d="M 528.25 286 L 568.25 286 " class="clickable"/></g></g><g id="sprotty_ArchitectureBlockImpl$eh2_lsu_trigger/GenerateStatementBlockImpl$null11" class="generate" transform="translate(568.25, 159)"><g class="sprotty-block sprotty-block-generate" style="fill:rgb(255, 255, 255);stroke:rgb(48, 48, 48);stroke-dasharray:0px;"><rect x="0" y="0" rx="1" ry="1" width="429.53125" height="174" style="stroke-dasharray:3px, 1px;"/><text x="214.765625" y="12" class="sprotty-block-name" style="cursor:pointer;font-weight:700;fill:rgb(48, 48, 48);stroke:rgba(0, 0, 0, 0);dominant-baseline:middle;text-anchor:middle;"/></g><g id="sprotty_ArchitectureBlockImpl$eh2_lsu_trigger/GenerateStatementBlockImpl$null11/AssignmentBlockImpl$lsu_trigger_match_dc4/GPortImpl$lsu_trigger_match_dc4OUT_to_ArchitectureBlockImpl$eh2_lsu_trigger/GenerateStatementBlockImpl$null11/GPortImpl$lsu_trigger_match_dc4" class="sprotty-edge thick edge" style="fill:none;stroke:rgb(112, 112, 112);stroke-linejoin:round;stroke-width:3px;"><g><path d="M 414.53125 35 L 429.53125 35 "/><path d="M 414.53125 35 L 429.53125 35 " class="clickable"/></g></g><g id="sprotty_ArchitectureBlockImpl$eh2_lsu_trigger/GenerateStatementBlockImpl$null11/GPortImpl$trigger_pkt_any_to_ArchitectureBlockImpl$eh2_lsu_trigger/GenerateStatementBlockImpl$null11/AssignmentBlockImpl$trigger_tid_pkt_any/GPortImpl$trigger_pkt_anyIN" class="sprotty-edge thick edge" style="fill:none;stroke:rgb(112, 112, 112);stroke-linejoin:round;stroke-width:3px;"><g><path d="M 0 85 L 15 85 "/><path d="M 0 85 L 15 85 " class="clickable"/></g></g><g id="sprotty_ArchitectureBlockImpl$eh2_lsu_trigger/GenerateStatementBlockImpl$null11/GPortImpl$lsu_pkt_dc4_to_ArchitectureBlockImpl$eh2_lsu_trigger/GenerateStatementBlockImpl$null11/AssignmentBlockImpl$lsu_trigger_match_dc4/GPortImpl$lsu_pkt_dc4IN" class="sprotty-edge thick edge" style="fill:none;stroke:rgb(112, 112, 112);stroke-linejoin:round;stroke-width:3px;"><g><path d="M 0 25 L 395.09375 25 "/><path d="M 0 25 L 395.09375 25 " class="clickable"/></g></g><g id="sprotty_ArchitectureBlockImpl$eh2_lsu_trigger/GenerateStatementBlockImpl$null11/GPortImpl$ldst_addr_trigger_dc4_to_ArchitectureBlockImpl$eh2_lsu_trigger/GenerateStatementBlockImpl$null11/AssignmentBlockImpl$lsu_match_data/GPortImpl$ldst_addr_trigger_dc4IN" class="sprotty-edge thick edge" style="fill:none;stroke:rgb(112, 112, 112);stroke-linejoin:round;stroke-width:3px;"><g><path d="M 0 117 L 54.4375 117 "/><path d="M 0 117 L 54.4375 117 " class="clickable"/></g></g><g id="sprotty_ArchitectureBlockImpl$eh2_lsu_trigger/GenerateStatementBlockImpl$null11/GPortImpl$store_data_trigger_dc4_to_ArchitectureBlockImpl$eh2_lsu_trigger/GenerateStatementBlockImpl$null11/AssignmentBlockImpl$lsu_match_data/GPortImpl$store_data_trigger_dc4IN" class="sprotty-edge thick edge" style="fill:none;stroke:rgb(112, 112, 112);stroke-linejoin:round;stroke-width:3px;"><g><path d="M 0 127 L 54.4375 127 "/><path d="M 0 127 L 54.4375 127 " class="clickable"/></g></g><g id="sprotty_ArchitectureBlockImpl$eh2_lsu_trigger/GenerateStatementBlockImpl$null11/AssignmentBlockImpl$trigger_tid_pkt_any/GPortImpl$trigger_tid_pkt_anyOUT_to_ArchitectureBlockImpl$eh2_lsu_trigger/GenerateStatementBlockImpl$null11/InstantiationBlockImpl$trigger_match/BPortImpl$mask" class="sprotty-edge thick edge" style="fill:none;stroke:rgb(112, 112, 112);stroke-linejoin:round;stroke-width:3px;"><g><path d="M 34.4375 85 L 103.875 85 "/><path d="M 34.4375 85 L 103.875 85 " class="clickable"/></g></g><g id="sprotty_ArchitectureBlockImpl$eh2_lsu_trigger/GenerateStatementBlockImpl$null11/AssignmentBlockImpl$trigger_tid_pkt_any/GPortImpl$trigger_tid_pkt_anyOUT_to_ArchitectureBlockImpl$eh2_lsu_trigger/GenerateStatementBlockImpl$null11/AssignmentBlockImpl$lsu_trigger_match_dc4/GPortImpl$trigger_tid_pkt_anyIN" class="sprotty-edge thick edge" style="fill:none;stroke:rgb(112, 112, 112);stroke-linejoin:round;stroke-width:3px;"><g><path d="M 34.4375 85 L 91.875 85 C 92.875 85 93.875 84 93.875 83 L 93.875 37 C 93.875 36 94.875 35 95.875 35 L 395.09375 35 "/><path d="M 34.4375 85 L 91.875 85 C 92.875 85 93.875 84 93.875 83 L 93.875 37 C 93.875 36 94.875 35 95.875 35 L 395.09375 35 " class="clickable"/></g><circle r="3" id="sprotty_ArchitectureBlockImpl$eh2_lsu_trigger/GenerateStatementBlockImpl$null11/AssignmentBlockImpl$trigger_tid_pkt_any/GPortImpl$trigger_tid_pkt_anyOUT_to_ArchitectureBlockImpl$eh2_lsu_trigger/GenerateStatementBlockImpl$null11/AssignmentBlockImpl$lsu_trigger_match_dc4/GPortImpl$trigger_tid_pkt_anyIN/junction0" transform="translate(93.875, 85)" class="sprotty-junction thick" style="fill:rgb(112, 112, 112);stroke:none;"/></g><g id="sprotty_ArchitectureBlockImpl$eh2_lsu_trigger/GenerateStatementBlockImpl$null11/AssignmentBlockImpl$trigger_tid_pkt_any/GPortImpl$trigger_tid_pkt_anyOUT_to_ArchitectureBlockImpl$eh2_lsu_trigger/GenerateStatementBlockImpl$null11/AssignmentBlockImpl$lsu_match_data/GPortImpl$trigger_tid_pkt_anyIN" class="sprotty-edge thick edge" style="fill:none;stroke:rgb(112, 112, 112);stroke-linejoin:round;stroke-width:3px;"><g><path d="M 34.4375 85 L 42.4375 85 C 43.4375 85 44.4375 86 44.4375 87 L 44.4375 105 C 44.4375 106 45.4375 107 46.4375 107 L 54.4375 107 "/><path d="M 34.4375 85 L 42.4375 85 C 43.4375 85 44.4375 86 44.4375 87 L 44.4375 105 C 44.4375 106 45.4375 107 46.4375 107 L 54.4375 107 " class="clickable"/></g><circle r="3" id="sprotty_ArchitectureBlockImpl$eh2_lsu_trigger/GenerateStatementBlockImpl$null11/AssignmentBlockImpl$trigger_tid_pkt_any/GPortImpl$trigger_tid_pkt_anyOUT_to_ArchitectureBlockImpl$eh2_lsu_trigger/GenerateStatementBlockImpl$null11/AssignmentBlockImpl$lsu_match_data/GPortImpl$trigger_tid_pkt_anyIN/junction0" transform="translate(44.4375, 85)" class="sprotty-junction thick" style="fill:rgb(112, 112, 112);stroke:none;"/></g><g id="sprotty_ArchitectureBlockImpl$eh2_lsu_trigger/GenerateStatementBlockImpl$null11/AssignmentBlockImpl$trigger_tid_pkt_any/GPortImpl$trigger_tid_pkt_anyOUT_to_ArchitectureBlockImpl$eh2_lsu_trigger/GenerateStatementBlockImpl$null11/InstantiationBlockImpl$trigger_match/BPortImpl$masken" class="sprotty-edge thick edge" style="fill:none;stroke:rgb(112, 112, 112);stroke-linejoin:round;stroke-width:3px;"><g><path d="M 34.4375 85 L 91.875 85 C 92.875 85 93.875 86 93.875 87 L 93.875 139 C 93.875 140 94.875 141 95.875 141 L 103.875 141 "/><path d="M 34.4375 85 L 91.875 85 C 92.875 85 93.875 86 93.875 87 L 93.875 139 C 93.875 140 94.875 141 95.875 141 L 103.875 141 " class="clickable"/></g></g><g id="sprotty_ArchitectureBlockImpl$eh2_lsu_trigger/GenerateStatementBlockImpl$null11/AssignmentBlockImpl$lsu_match_data/GPortImpl$store_data_trigger_dc4OUT_to_ArchitectureBlockImpl$eh2_lsu_trigger/GenerateStatementBlockImpl$null11/InstantiationBlockImpl$trigger_match/BPortImpl$data" class="sprotty-edge thick edge" style="fill:none;stroke:rgb(112, 112, 112);stroke-linejoin:round;stroke-width:3px;"><g><path d="M 73.875 117 L 81.875 117 C 82.875 117 83.875 116 83.875 115 L 83.875 115 C 83.875 114 84.875 113 85.875 113 L 103.875 113 "/><path d="M 73.875 117 L 81.875 117 C 82.875 117 83.875 116 83.875 115 L 83.875 115 C 83.875 114 84.875 113 85.875 113 L 103.875 113 " class="clickable"/></g></g><g id="sprotty_ArchitectureBlockImpl$eh2_lsu_trigger/GenerateStatementBlockImpl$null11/InstantiationBlockImpl$trigger_match/BPortImpl$match_to_ArchitectureBlockImpl$eh2_lsu_trigger/GenerateStatementBlockImpl$null11/AssignmentBlockImpl$lsu_trigger_match_dc4/GPortImpl$lsu_trigger_data_matchIN" class="sprotty-edge thick edge" style="fill:none;stroke:rgb(112, 112, 112);stroke-linejoin:round;stroke-width:3px;"><g><path d="M 375.09375 113 L 383.09375 113 C 384.09375 113 385.09375 112 385.09375 111 L 385.09375 47 C 385.09375 46 386.09375 45 387.09375 45 L 395.09375 45 "/><path d="M 375.09375 113 L 383.09375 113 C 384.09375 113 385.09375 112 385.09375 111 L 385.09375 47 C 385.09375 46 386.09375 45 387.09375 45 L 395.09375 45 " class="clickable"/></g></g><g id="sprotty_ArchitectureBlockImpl$eh2_lsu_trigger/GenerateStatementBlockImpl$null11/AssignmentBlockImpl$lsu_trigger_match_dc4" class="statement" transform="translate(395.09375, 15)"><rect x="0" y="0" rx="10" ry="5" width="19.4375" height="40" class="sprotty-node" style="fill:rgb(245, 245, 245);stroke:rgb(112, 112, 112);"/><text class="clickable sprotty-label statementtype" id="sprotty_ArchitectureBlockImpl$eh2_lsu_trigger/GenerateStatementBlockImpl$null11/AssignmentBlockImpl$lsu_trigger_match_dc4/labeltype" transform="translate(5, 14) translate(4.71875, 9)" style="cursor:default;font-size:8px;font-weight:700;perspective-origin:0px 0px;fill:rgb(112, 112, 112);text-anchor:middle;">&lt;=</text><g id="sprotty_ArchitectureBlockImpl$eh2_lsu_trigger/GenerateStatementBlockImpl$null11/AssignmentBlockImpl$lsu_trigger_match_dc4/GPortImpl$lsu_trigger_data_matchIN" class="sprotty-hidden hidden" transform="translate(0, 30)" style="display:block;height:0px;width:0px;"/><g id="sprotty_ArchitectureBlockImpl$eh2_lsu_trigger/GenerateStatementBlockImpl$null11/AssignmentBlockImpl$lsu_trigger_match_dc4/GPortImpl$trigger_tid_pkt_anyIN" class="sprotty-hidden hidden" transform="translate(0, 20)" style="display:block;height:0px;width:0px;"/><g id="sprotty_ArchitectureBlockImpl$eh2_lsu_trigger/GenerateStatementBlockImpl$null11/AssignmentBlockImpl$lsu_trigger_match_dc4/GPortImpl$lsu_pkt_dc4IN" class="sprotty-hidden hidden" transform="translate(0, 10)" style="display:block;height:0px;width:0px;"/><g id="sprotty_ArchitectureBlockImpl$eh2_lsu_trigger/GenerateStatementBlockImpl$null11/AssignmentBlockImpl$lsu_trigger_match_dc4/GPortImpl$lsu_trigger_match_dc4OUT" class="sprotty-hidden hidden" transform="translate(19.4375, 20)" style="display:block;height:0px;width:0px;"/></g><g id="sprotty_ArchitectureBlockImpl$eh2_lsu_trigger/GenerateStatementBlockImpl$null11/AssignmentBlockImpl$lsu_match_data" class="statement" transform="translate(54.4375, 97)"><rect x="0" y="0" rx="10" ry="5" width="19.4375" height="40" class="sprotty-node" style="fill:rgb(245, 245, 245);stroke:rgb(112, 112, 112);"/><text class="clickable sprotty-label statementtype" id="sprotty_ArchitectureBlockImpl$eh2_lsu_trigger/GenerateStatementBlockImpl$null11/AssignmentBlockImpl$lsu_match_data/labeltype" transform="translate(5, 14) translate(4.71875, 9)" style="cursor:default;font-size:8px;font-weight:700;perspective-origin:0px 0px;fill:rgb(112, 112, 112);text-anchor:middle;">&lt;=</text><g id="sprotty_ArchitectureBlockImpl$eh2_lsu_trigger/GenerateStatementBlockImpl$null11/AssignmentBlockImpl$lsu_match_data/GPortImpl$store_data_trigger_dc4IN" class="sprotty-hidden hidden" transform="translate(0, 30)" style="display:block;height:0px;width:0px;"/><g id="sprotty_ArchitectureBlockImpl$eh2_lsu_trigger/GenerateStatementBlockImpl$null11/AssignmentBlockImpl$lsu_match_data/GPortImpl$ldst_addr_trigger_dc4IN" class="sprotty-hidden hidden" transform="translate(0, 20)" style="display:block;height:0px;width:0px;"/><g id="sprotty_ArchitectureBlockImpl$eh2_lsu_trigger/GenerateStatementBlockImpl$null11/AssignmentBlockImpl$lsu_match_data/GPortImpl$trigger_tid_pkt_anyIN" class="sprotty-hidden hidden" transform="translate(0, 10)" style="display:block;height:0px;width:0px;"/><g id="sprotty_ArchitectureBlockImpl$eh2_lsu_trigger/GenerateStatementBlockImpl$null11/AssignmentBlockImpl$lsu_match_data/GPortImpl$store_data_trigger_dc4OUT" class="sprotty-hidden hidden" transform="translate(19.4375, 20)" style="display:block;height:0px;width:0px;"/></g><g id="sprotty_ArchitectureBlockImpl$eh2_lsu_trigger/GenerateStatementBlockImpl$null11/AssignmentBlockImpl$trigger_tid_pkt_any" class="statement" transform="translate(15, 74)"><rect x="0" y="0" rx="10" ry="5" width="19.4375" height="22" class="sprotty-node" style="fill:rgb(245, 245, 245);stroke:rgb(112, 112, 112);"/><text class="clickable sprotty-label statementtype" id="sprotty_ArchitectureBlockImpl$eh2_lsu_trigger/GenerateStatementBlockImpl$null11/AssignmentBlockImpl$trigger_tid_pkt_any/labeltype" transform="translate(5, 5) translate(4.71875, 9)" style="cursor:default;font-size:8px;font-weight:700;perspective-origin:0px 0px;fill:rgb(112, 112, 112);text-anchor:middle;">&lt;=</text><g id="sprotty_ArchitectureBlockImpl$eh2_lsu_trigger/GenerateStatementBlockImpl$null11/AssignmentBlockImpl$trigger_tid_pkt_any/GPortImpl$trigger_pkt_anyIN" class="sprotty-hidden hidden" transform="translate(0, 11)" style="display:block;height:0px;width:0px;"/><g id="sprotty_ArchitectureBlockImpl$eh2_lsu_trigger/GenerateStatementBlockImpl$null11/AssignmentBlockImpl$trigger_tid_pkt_any/GPortImpl$trigger_tid_pkt_anyOUT" class="sprotty-hidden hidden" transform="translate(19.4375, 11)" style="display:block;height:0px;width:0px;"/></g><g id="sprotty_ArchitectureBlockImpl$eh2_lsu_trigger/GenerateStatementBlockImpl$null11/InstantiationBlockImpl$trigger_match" class="instantiation" transform="translate(103.875, 47)"><g class="sprotty-block" style="fill:rgb(255, 255, 255);stroke:rgb(48, 48, 48);stroke-dasharray:0px;"><rect x="0" y="0" rx="1" ry="1" width="271.21875" height="112"/><text x="135.609375" y="12" class="sprotty-block-name" style="cursor:pointer;font-weight:700;perspective-origin:135.609px 0px;fill:rgb(48, 48, 48);stroke:rgba(0, 0, 0, 0);dominant-baseline:middle;text-anchor:middle;">trigger_match : rvmaskandmatch</text><line x1="0" y1="20" x2="271.21875" y2="20"/></g><g id="sprotty_ArchitectureBlockImpl$eh2_lsu_trigger/GenerateStatementBlockImpl$null11/InstantiationBlockImpl$trigger_match/BPortImpl$masken" class="triangle" transform="translate(0, 94)"><path d="M 0,0 L 5,2.5 L 0,5 Z" transform="translate(-1.67, -2.5)" class="sprotty-port" style="fill:rgb(48, 48, 48);stroke:rgb(48, 48, 48);"/><text class="clickable sprotty-label port" id="sprotty_ArchitectureBlockImpl$eh2_lsu_trigger/GenerateStatementBlockImpl$null11/InstantiationBlockImpl$trigger_match/BPortImpl$masken/label" transform="translate(6, -9) translate(21.9375, 14)" style="cursor:default;font-size:12px;perspective-origin:0px 0px;fill:rgb(48, 48, 48);text-anchor:middle;">masken</text></g><g id="sprotty_ArchitectureBlockImpl$eh2_lsu_trigger/GenerateStatementBlockImpl$null11/InstantiationBlockImpl$trigger_match/BPortImpl$data" class="triangle" transform="translate(0, 66)"><path d="M 0,0 L 5,2.5 L 0,5 Z" transform="translate(-1.67, -2.5)" class="sprotty-port" style="fill:rgb(48, 48, 48);stroke:rgb(48, 48, 48);"/><text class="clickable sprotty-label port" id="sprotty_ArchitectureBlockImpl$eh2_lsu_trigger/GenerateStatementBlockImpl$null11/InstantiationBlockImpl$trigger_match/BPortImpl$data/label" transform="translate(6, -9) translate(12.53125, 14)" style="cursor:default;font-size:12px;perspective-origin:0px 0px;fill:rgb(48, 48, 48);text-anchor:middle;">data</text></g><g id="sprotty_ArchitectureBlockImpl$eh2_lsu_trigger/GenerateStatementBlockImpl$null11/InstantiationBlockImpl$trigger_match/BPortImpl$mask" class="triangle" transform="translate(0, 38)"><path d="M 0,0 L 5,2.5 L 0,5 Z" transform="translate(-1.67, -2.5)" class="sprotty-port" style="fill:rgb(48, 48, 48);stroke:rgb(48, 48, 48);"/><text class="clickable sprotty-label port" id="sprotty_ArchitectureBlockImpl$eh2_lsu_trigger/GenerateStatementBlockImpl$null11/InstantiationBlockImpl$trigger_match/BPortImpl$mask/label" transform="translate(6, -9) translate(15.0625, 14)" style="cursor:default;font-size:12px;perspective-origin:0px 0px;fill:rgb(48, 48, 48);text-anchor:middle;">mask</text></g><g id="sprotty_ArchitectureBlockImpl$eh2_lsu_trigger/GenerateStatementBlockImpl$null11/InstantiationBlockImpl$trigger_match/BPortImpl$match" class="triangle" transform="translate(271.21875, 66)"><path d="M 0,0 L 5,2.5 L 0,5 Z" transform="translate(-1.67, -2.5)" class="sprotty-port" style="fill:rgb(48, 48, 48);stroke:rgb(48, 48, 48);"/><text class="clickable sprotty-label port" id="sprotty_ArchitectureBlockImpl$eh2_lsu_trigger/GenerateStatementBlockImpl$null11/InstantiationBlockImpl$trigger_match/BPortImpl$match/label" transform="translate(-41.4375, -9) translate(17.71875, 14)" style="cursor:default;font-size:12px;perspective-origin:0px 0px;fill:rgb(48, 48, 48);text-anchor:middle;">match</text></g></g><g id="sprotty_ArchitectureBlockImpl$eh2_lsu_trigger/GenerateStatementBlockImpl$null11/GPortImpl$store_data_trigger_dc4" class="triangle" transform="translate(0, 127)"><path d="M 0,0 L 5,2.5 L 0,5 Z" transform="translate(-1.67, -2.5)" class="sprotty-port" style="fill:rgb(48, 48, 48);stroke:rgb(48, 48, 48);"/></g><g id="sprotty_ArchitectureBlockImpl$eh2_lsu_trigger/GenerateStatementBlockImpl$null11/GPortImpl$ldst_addr_trigger_dc4" class="triangle" transform="translate(0, 117)"><path d="M 0,0 L 5,2.5 L 0,5 Z" transform="translate(-1.67, -2.5)" class="sprotty-port" style="fill:rgb(48, 48, 48);stroke:rgb(48, 48, 48);"/></g><g id="sprotty_ArchitectureBlockImpl$eh2_lsu_trigger/GenerateStatementBlockImpl$null11/GPortImpl$lsu_pkt_dc4" class="triangle" transform="translate(0, 25)"><path d="M 0,0 L 5,2.5 L 0,5 Z" transform="translate(-1.67, -2.5)" class="sprotty-port" style="fill:rgb(48, 48, 48);stroke:rgb(48, 48, 48);"/></g><g id="sprotty_ArchitectureBlockImpl$eh2_lsu_trigger/GenerateStatementBlockImpl$null11/GPortImpl$trigger_pkt_any" class="triangle" transform="translate(0, 85)"><path d="M 0,0 L 5,2.5 L 0,5 Z" transform="translate(-1.67, -2.5)" class="sprotty-port" style="fill:rgb(48, 48, 48);stroke:rgb(48, 48, 48);"/></g><g id="sprotty_ArchitectureBlockImpl$eh2_lsu_trigger/GenerateStatementBlockImpl$null11/GPortImpl$lsu_trigger_match_dc4" class="triangle" transform="translate(429.53125, 35)"><path d="M 0,0 L 5,2.5 L 0,5 Z" transform="translate(-1.67, -2.5)" class="sprotty-port" style="fill:rgb(48, 48, 48);stroke:rgb(48, 48, 48);"/></g></g><g id="sprotty_ArchitectureBlockImpl$eh2_lsu_trigger/AlwaysBlockImpl$null12" class="statement" transform="translate(130.21875, 207)"><rect x="0" y="0" rx="10" ry="5" width="63.75" height="22" class="sprotty-node" style="fill:rgb(245, 245, 245);stroke:rgb(112, 112, 112);"/><text class="clickable sprotty-label statementtype" id="sprotty_ArchitectureBlockImpl$eh2_lsu_trigger/AlwaysBlockImpl$null12/labeltype" transform="translate(5, 5) translate(26.875, 9)" style="cursor:default;font-size:8px;font-weight:700;perspective-origin:0px 0px;fill:rgb(112, 112, 112);text-anchor:middle;">always_comb</text><g id="sprotty_ArchitectureBlockImpl$eh2_lsu_trigger/AlwaysBlockImpl$null12/GPortImpl$trigger_enableOUT" class="sprotty-hidden hidden" transform="translate(63.75, 11)" style="display:block;height:0px;width:0px;"/></g><g id="sprotty_ArchitectureBlockImpl$eh2_lsu_trigger/AssignmentBlockImpl$ldst_addr_trigger_dc4" class="statement" transform="translate(253.40625, 94)"><rect x="0" y="0" rx="10" ry="5" width="19.4375" height="30" class="sprotty-node" style="fill:rgb(245, 245, 245);stroke:rgb(112, 112, 112);"/><text class="clickable sprotty-label statementtype" id="sprotty_ArchitectureBlockImpl$eh2_lsu_trigger/AssignmentBlockImpl$ldst_addr_trigger_dc4/labeltype" transform="translate(5, 9) translate(4.71875, 9)" style="cursor:default;font-size:8px;font-weight:700;perspective-origin:0px 0px;fill:rgb(112, 112, 112);text-anchor:middle;">&lt;=</text><g id="sprotty_ArchitectureBlockImpl$eh2_lsu_trigger/AssignmentBlockImpl$ldst_addr_trigger_dc4/GPortImpl$trigger_enableIN" class="sprotty-hidden hidden" transform="translate(0, 20)" style="display:block;height:0px;width:0px;"/><g id="sprotty_ArchitectureBlockImpl$eh2_lsu_trigger/AssignmentBlockImpl$ldst_addr_trigger_dc4/GPortImpl$lsu_addr_dc4IN" class="sprotty-hidden hidden" transform="translate(0, 10)" style="display:block;height:0px;width:0px;"/><g id="sprotty_ArchitectureBlockImpl$eh2_lsu_trigger/AssignmentBlockImpl$ldst_addr_trigger_dc4/GPortImpl$trigger_enableOUT" class="sprotty-hidden hidden" transform="translate(19.4375, 15)" style="display:block;height:0px;width:0px;"/></g><g id="sprotty_ArchitectureBlockImpl$eh2_lsu_trigger/AssignmentBlockImpl$store_data_trigger_dc3" class="statement" transform="translate(253.40625, 170)"><rect x="0" y="0" rx="10" ry="5" width="19.4375" height="30" class="sprotty-node" style="fill:rgb(245, 245, 245);stroke:rgb(112, 112, 112);"/><text class="clickable sprotty-label statementtype" id="sprotty_ArchitectureBlockImpl$eh2_lsu_trigger/AssignmentBlockImpl$store_data_trigger_dc3/labeltype" transform="translate(5, 9) translate(4.71875, 9)" style="cursor:default;font-size:8px;font-weight:700;perspective-origin:0px 0px;fill:rgb(112, 112, 112);text-anchor:middle;">&lt;=</text><g id="sprotty_ArchitectureBlockImpl$eh2_lsu_trigger/AssignmentBlockImpl$store_data_trigger_dc3/GPortImpl$trigger_store_data_dc3IN" class="sprotty-hidden hidden" transform="translate(0, 10)" style="display:block;height:0px;width:0px;"/><g id="sprotty_ArchitectureBlockImpl$eh2_lsu_trigger/AssignmentBlockImpl$store_data_trigger_dc3/GPortImpl$lsu_pkt_dc3IN" class="sprotty-hidden hidden" transform="translate(0, 20)" style="display:block;height:0px;width:0px;"/><g id="sprotty_ArchitectureBlockImpl$eh2_lsu_trigger/AssignmentBlockImpl$store_data_trigger_dc3/GPortImpl$trigger_store_data_dc3OUT" class="sprotty-hidden hidden" transform="translate(19.4375, 15)" style="display:block;height:0px;width:0px;"/></g><g id="sprotty_ArchitectureBlockImpl$eh2_lsu_trigger/AssignmentBlockImpl$trigger_store_data_dc3" class="statement" transform="translate(213.96875, 155)"><rect x="0" y="0" rx="10" ry="5" width="19.4375" height="50" class="sprotty-node" style="fill:rgb(245, 245, 245);stroke:rgb(112, 112, 112);"/><text class="clickable sprotty-label statementtype" id="sprotty_ArchitectureBlockImpl$eh2_lsu_trigger/AssignmentBlockImpl$trigger_store_data_dc3/labeltype" transform="translate(5, 19) translate(4.71875, 9)" style="cursor:default;font-size:8px;font-weight:700;perspective-origin:0px 0px;fill:rgb(112, 112, 112);text-anchor:middle;">&lt;=</text><g id="sprotty_ArchitectureBlockImpl$eh2_lsu_trigger/AssignmentBlockImpl$trigger_store_data_dc3/GPortImpl$trigger_enableIN" class="sprotty-hidden hidden" transform="translate(0, 30)" style="display:block;height:0px;width:0px;"/><g id="sprotty_ArchitectureBlockImpl$eh2_lsu_trigger/AssignmentBlockImpl$trigger_store_data_dc3/GPortImpl$store_data_dc3IN" class="sprotty-hidden hidden" transform="translate(0, 10)" style="display:block;height:0px;width:0px;"/><g id="sprotty_ArchitectureBlockImpl$eh2_lsu_trigger/AssignmentBlockImpl$trigger_store_data_dc3/GPortImpl$amo_data_dc3IN" class="sprotty-hidden hidden" transform="translate(0, 20)" style="display:block;height:0px;width:0px;"/><g id="sprotty_ArchitectureBlockImpl$eh2_lsu_trigger/AssignmentBlockImpl$trigger_store_data_dc3/GPortImpl$lsu_pkt_dc3IN" class="sprotty-hidden hidden" transform="translate(0, 40)" style="display:block;height:0px;width:0px;"/><g id="sprotty_ArchitectureBlockImpl$eh2_lsu_trigger/AssignmentBlockImpl$trigger_store_data_dc3/GPortImpl$trigger_enableOUT" class="sprotty-hidden hidden" transform="translate(19.4375, 25)" style="display:block;height:0px;width:0px;"/></g><g id="sprotty_ArchitectureBlockImpl$eh2_lsu_trigger/InstantiationBlockImpl$store_data_trigger_ff" class="instantiation" transform="translate(292.84375, 192)"><g class="sprotty-block" style="fill:rgb(255, 255, 255);stroke:rgb(48, 48, 48);stroke-dasharray:0px;"><rect x="0" y="0" rx="1" ry="1" width="235.40625" height="168"/><text x="117.703125" y="12" class="sprotty-block-name" style="cursor:pointer;font-weight:700;perspective-origin:117.703px 0px;fill:rgb(48, 48, 48);stroke:rgba(0, 0, 0, 0);dominant-baseline:middle;text-anchor:middle;">store_data_trigger_ff : rvdffe</text><line x1="0" y1="20" x2="235.40625" y2="20"/></g><g id="sprotty_ArchitectureBlockImpl$eh2_lsu_trigger/InstantiationBlockImpl$store_data_trigger_ff/BPortImpl$scan_mode" class="triangle" transform="translate(0, 150)"><path d="M 0,0 L 5,2.5 L 0,5 Z" transform="translate(-1.67, -2.5)" class="sprotty-port" style="fill:rgb(48, 48, 48);stroke:rgb(48, 48, 48);"/><text class="clickable sprotty-label port" id="sprotty_ArchitectureBlockImpl$eh2_lsu_trigger/InstantiationBlockImpl$store_data_trigger_ff/BPortImpl$scan_mode/label" transform="translate(6, -9) translate(32.4375, 14)" style="cursor:default;font-size:12px;perspective-origin:0px 0px;fill:rgb(48, 48, 48);text-anchor:middle;">scan_mode</text></g><g id="sprotty_ArchitectureBlockImpl$eh2_lsu_trigger/InstantiationBlockImpl$store_data_trigger_ff/BPortImpl$rst_l" class="triangle" transform="translate(0, 122)"><path d="M 0,0 L 5,2.5 L 0,5 Z" transform="translate(-1.67, -2.5)" class="sprotty-port" style="fill:rgb(48, 48, 48);stroke:rgb(48, 48, 48);"/><text class="clickable sprotty-label port" id="sprotty_ArchitectureBlockImpl$eh2_lsu_trigger/InstantiationBlockImpl$store_data_trigger_ff/BPortImpl$rst_l/label" transform="translate(6, -9) translate(12.3125, 14)" style="cursor:default;font-size:12px;perspective-origin:0px 0px;fill:rgb(48, 48, 48);text-anchor:middle;">rst_l</text></g><g id="sprotty_ArchitectureBlockImpl$eh2_lsu_trigger/InstantiationBlockImpl$store_data_trigger_ff/BPortImpl$clk" class="triangle" transform="translate(0, 94)"><path d="M 0,0 L 5,2.5 L 0,5 Z" transform="translate(-1.67, -2.5)" class="sprotty-port" style="fill:rgb(48, 48, 48);stroke:rgb(48, 48, 48);"/><text class="clickable sprotty-label port" id="sprotty_ArchitectureBlockImpl$eh2_lsu_trigger/InstantiationBlockImpl$store_data_trigger_ff/BPortImpl$clk/label" transform="translate(6, -9) translate(8.078125, 14)" style="cursor:default;font-size:12px;perspective-origin:0px 0px;fill:rgb(48, 48, 48);text-anchor:middle;">clk</text></g><g id="sprotty_ArchitectureBlockImpl$eh2_lsu_trigger/InstantiationBlockImpl$store_data_trigger_ff/BPortImpl$en" class="triangle" transform="translate(0, 66)"><path d="M 0,0 L 5,2.5 L 0,5 Z" transform="translate(-1.67, -2.5)" class="sprotty-port" style="fill:rgb(48, 48, 48);stroke:rgb(48, 48, 48);"/><text class="clickable sprotty-label port" id="sprotty_ArchitectureBlockImpl$eh2_lsu_trigger/InstantiationBlockImpl$store_data_trigger_ff/BPortImpl$en/label" transform="translate(6, -9) translate(7, 14)" style="cursor:default;font-size:12px;perspective-origin:0px 0px;fill:rgb(48, 48, 48);text-anchor:middle;">en</text></g><g id="sprotty_ArchitectureBlockImpl$eh2_lsu_trigger/InstantiationBlockImpl$store_data_trigger_ff/BPortImpl$din" class="triangle" transform="translate(0, 38)"><path d="M 0,0 L 5,2.5 L 0,5 Z" transform="translate(-1.67, -2.5)" class="sprotty-port" style="fill:rgb(48, 48, 48);stroke:rgb(48, 48, 48);"/><text class="clickable sprotty-label port" id="sprotty_ArchitectureBlockImpl$eh2_lsu_trigger/InstantiationBlockImpl$store_data_trigger_ff/BPortImpl$din/label" transform="translate(6, -9) translate(9.046875, 14)" style="cursor:default;font-size:12px;perspective-origin:0px 0px;fill:rgb(48, 48, 48);text-anchor:middle;">din</text></g><g id="sprotty_ArchitectureBlockImpl$eh2_lsu_trigger/InstantiationBlockImpl$store_data_trigger_ff/BPortImpl$dout" class="triangle" transform="translate(235.40625, 94)"><path d="M 0,0 L 5,2.5 L 0,5 Z" transform="translate(-1.67, -2.5)" class="sprotty-port" style="fill:rgb(48, 48, 48);stroke:rgb(48, 48, 48);"/><text class="clickable sprotty-label port" id="sprotty_ArchitectureBlockImpl$eh2_lsu_trigger/InstantiationBlockImpl$store_data_trigger_ff/BPortImpl$dout/label" transform="translate(-32.53125, -9) translate(13.265625, 14)" style="cursor:default;font-size:12px;perspective-origin:0px 0px;fill:rgb(48, 48, 48);text-anchor:middle;">dout</text></g></g><g id="sprotty_ArchitectureBlockImpl$eh2_lsu_trigger/BPortImpl$amo_data_dc3" class="triangle" transform="translate(0, 172)"><path d="M 0,0 L 5,2.5 L 0,5 Z" transform="translate(-1.67, -2.5)" class="sprotty-port" style="fill:rgb(48, 48, 48);stroke:rgb(48, 48, 48);"/><text class="clickable sprotty-label port" id="sprotty_ArchitectureBlockImpl$eh2_lsu_trigger/BPortImpl$amo_data_dc3/label" transform="translate(6, 6) translate(41.90625, 14)" style="cursor:default;font-size:12px;perspective-origin:0px 0px;fill:rgb(48, 48, 48);text-anchor:middle;">amo_data_dc3</text></g><g id="sprotty_ArchitectureBlockImpl$eh2_lsu_trigger/BPortImpl$store_data_dc3" class="triangle" transform="translate(0, 138)"><path d="M 0,0 L 5,2.5 L 0,5 Z" transform="translate(-1.67, -2.5)" class="sprotty-port" style="fill:rgb(48, 48, 48);stroke:rgb(48, 48, 48);"/><text class="clickable sprotty-label port" id="sprotty_ArchitectureBlockImpl$eh2_lsu_trigger/BPortImpl$store_data_dc3/label" transform="translate(6, 6) translate(43.40625, 14)" style="cursor:default;font-size:12px;perspective-origin:0px 0px;fill:rgb(48, 48, 48);text-anchor:middle;">store_data_dc3</text></g><g id="sprotty_ArchitectureBlockImpl$eh2_lsu_trigger/BPortImpl$lsu_addr_dc4" class="triangle" transform="translate(0, 104)"><path d="M 0,0 L 5,2.5 L 0,5 Z" transform="translate(-1.67, -2.5)" class="sprotty-port" style="fill:rgb(48, 48, 48);stroke:rgb(48, 48, 48);"/><text class="clickable sprotty-label port" id="sprotty_ArchitectureBlockImpl$eh2_lsu_trigger/BPortImpl$lsu_addr_dc4/label" transform="translate(6, 6) translate(38.125, 14)" style="cursor:default;font-size:12px;perspective-origin:0px 0px;fill:rgb(48, 48, 48);text-anchor:middle;">lsu_addr_dc4</text></g><g id="sprotty_ArchitectureBlockImpl$eh2_lsu_trigger/BPortImpl$lsu_pkt_dc4" class="triangle" transform="translate(0, 36)"><path d="M 0,0 L 5,2.5 L 0,5 Z" transform="translate(-1.67, -2.5)" class="sprotty-port" style="fill:rgb(48, 48, 48);stroke:rgb(48, 48, 48);"/><text class="clickable sprotty-label port" id="sprotty_ArchitectureBlockImpl$eh2_lsu_trigger/BPortImpl$lsu_pkt_dc4/label" transform="translate(6, 6) translate(34.140625, 14)" style="cursor:default;font-size:12px;perspective-origin:0px 0px;fill:rgb(48, 48, 48);text-anchor:middle;">lsu_pkt_dc4</text></g><g id="sprotty_ArchitectureBlockImpl$eh2_lsu_trigger/BPortImpl$lsu_pkt_dc3" class="triangle" transform="translate(0, 206)"><path d="M 0,0 L 5,2.5 L 0,5 Z" transform="translate(-1.67, -2.5)" class="sprotty-port" style="fill:rgb(48, 48, 48);stroke:rgb(48, 48, 48);"/><text class="clickable sprotty-label port" id="sprotty_ArchitectureBlockImpl$eh2_lsu_trigger/BPortImpl$lsu_pkt_dc3/label" transform="translate(6, 6) translate(34.140625, 14)" style="cursor:default;font-size:12px;perspective-origin:0px 0px;fill:rgb(48, 48, 48);text-anchor:middle;">lsu_pkt_dc3</text></g><g id="sprotty_ArchitectureBlockImpl$eh2_lsu_trigger/BPortImpl$trigger_pkt_any" class="triangle" transform="translate(0, 70)"><path d="M 0,0 L 5,2.5 L 0,5 Z" transform="translate(-1.67, -2.5)" class="sprotty-port" style="fill:rgb(48, 48, 48);stroke:rgb(48, 48, 48);"/><text class="clickable sprotty-label port" id="sprotty_ArchitectureBlockImpl$eh2_lsu_trigger/BPortImpl$trigger_pkt_any/label" transform="translate(6, 6) translate(44.609375, 14)" style="cursor:default;font-size:12px;perspective-origin:0px 0px;fill:rgb(48, 48, 48);text-anchor:middle;">trigger_pkt_any</text></g><g id="sprotty_ArchitectureBlockImpl$eh2_lsu_trigger/BPortImpl$clk" class="triangle" transform="translate(0, 274)"><path d="M 0,0 L 5,2.5 L 0,5 Z" transform="translate(-1.67, -2.5)" class="sprotty-port" style="fill:rgb(48, 48, 48);stroke:rgb(48, 48, 48);"/><text class="clickable sprotty-label port" id="sprotty_ArchitectureBlockImpl$eh2_lsu_trigger/BPortImpl$clk/label" transform="translate(6, 6) translate(8.078125, 14)" style="cursor:default;font-size:12px;perspective-origin:0px 0px;fill:rgb(48, 48, 48);text-anchor:middle;">clk</text></g><g id="sprotty_ArchitectureBlockImpl$eh2_lsu_trigger/BPortImpl$clk_override" class="triangle" transform="translate(0, 240)"><path d="M 0,0 L 5,2.5 L 0,5 Z" transform="translate(-1.67, -2.5)" class="sprotty-port" style="fill:rgb(48, 48, 48);stroke:rgb(48, 48, 48);"/><text class="clickable sprotty-label port" id="sprotty_ArchitectureBlockImpl$eh2_lsu_trigger/BPortImpl$clk_override/label" transform="translate(6, 6) translate(34.828125, 14)" style="cursor:default;font-size:12px;perspective-origin:0px 0px;fill:rgb(48, 48, 48);text-anchor:middle;">clk_override</text></g><g id="sprotty_ArchitectureBlockImpl$eh2_lsu_trigger/BPortImpl$rst_l" class="triangle" transform="translate(0, 308)"><path d="M 0,0 L 5,2.5 L 0,5 Z" transform="translate(-1.67, -2.5)" class="sprotty-port" style="fill:rgb(48, 48, 48);stroke:rgb(48, 48, 48);"/><text class="clickable sprotty-label port" id="sprotty_ArchitectureBlockImpl$eh2_lsu_trigger/BPortImpl$rst_l/label" transform="translate(6, 6) translate(12.3125, 14)" style="cursor:default;font-size:12px;perspective-origin:0px 0px;fill:rgb(48, 48, 48);text-anchor:middle;">rst_l</text></g><g id="sprotty_ArchitectureBlockImpl$eh2_lsu_trigger/BPortImpl$scan_mode" class="triangle" transform="translate(0, 342)"><path d="M 0,0 L 5,2.5 L 0,5 Z" transform="translate(-1.67, -2.5)" class="sprotty-port" style="fill:rgb(48, 48, 48);stroke:rgb(48, 48, 48);"/><text class="clickable sprotty-label port" id="sprotty_ArchitectureBlockImpl$eh2_lsu_trigger/BPortImpl$scan_mode/label" transform="translate(6, 6) translate(32.4375, 14)" style="cursor:default;font-size:12px;perspective-origin:0px 0px;fill:rgb(48, 48, 48);text-anchor:middle;">scan_mode</text></g><g id="sprotty_ArchitectureBlockImpl$eh2_lsu_trigger/BPortImpl$lsu_trigger_match_dc4" class="triangle" transform="translate(1148, 194)"><path d="M 0,0 L 5,2.5 L 0,5 Z" transform="translate(-1.67, -2.5)" class="sprotty-port" style="fill:rgb(48, 48, 48);stroke:rgb(48, 48, 48);"/><text class="clickable sprotty-label port" id="sprotty_ArchitectureBlockImpl$eh2_lsu_trigger/BPortImpl$lsu_trigger_match_dc4/label" transform="translate(-135.21875, 6) translate(64.609375, 14)" style="cursor:default;font-size:12px;perspective-origin:0px 0px;fill:rgb(48, 48, 48);text-anchor:middle;">lsu_trigger_match_dc4</text></g></g></g></svg>