<svg xmlns="http://www.w3.org/2000/svg" id="sprotty_work.eh2_configurable_gw" class="sprotty-graph sprotty-block-diagram blockdiagram" style="font-family:&quot;Noto Sans&quot;, Helvetica, Arial, sans-serif;perspective-origin:0px 0px;transform-origin:0px 0px;" version="1.1" viewBox="7 7 609.15625 505" width="609.15625" height="505"><g transform="scale(1) translate(0,0)"><g id="sprotty_ArchitectureBlockImpl$eh2_configurable_gw" class="architecture" transform="translate(12, 12)"><g class="sprotty-block" style="fill:rgb(255, 255, 255);stroke:rgb(48, 48, 48);stroke-dasharray:0px;"><rect x="0" y="0" rx="1" ry="1" width="599.15625" height="495"/><text x="299.578125" y="12" class="sprotty-block-name" style="cursor:pointer;font-weight:700;perspective-origin:299.578px 0px;fill:rgb(48, 48, 48);stroke:rgba(0, 0, 0, 0);dominant-baseline:middle;text-anchor:middle;">eh2_configurable_gw</text><line x1="0" y1="20" x2="599.15625" y2="20"/></g><g id="sprotty_ArchitectureBlockImpl$eh2_configurable_gw/AssignmentBlockImpl$extintsrc_req_config/GPortImpl$extintsrc_req_configOUT_to_ArchitectureBlockImpl$eh2_configurable_gw/BPortImpl$extintsrc_req_config" class="sprotty-edge edge" style="fill:none;stroke:rgb(112, 112, 112);stroke-linejoin:round;"><g><path d="M 443.5 417 L 599.15625 417 "/><path d="M 443.5 417 L 599.15625 417 " class="clickable"/></g></g><g id="sprotty_ArchitectureBlockImpl$eh2_configurable_gw/BPortImpl$gw_clk_to_ArchitectureBlockImpl$eh2_configurable_gw/InstantiationBlockImpl$sync_inst/BPortImpl$gw_clk" class="sprotty-edge edge" style="fill:none;stroke:rgb(112, 112, 112);stroke-linejoin:round;"><g><path d="M 0 115 L 165.28125 115 C 166.28125 115 167.28125 116 167.28125 117 L 167.28125 279 C 167.28125 280 168.28125 281 169.28125 281 L 177.28125 281 "/><path d="M 0 115 L 165.28125 115 C 166.28125 115 167.28125 116 167.28125 117 L 167.28125 279 C 167.28125 280 168.28125 281 169.28125 281 L 177.28125 281 " class="clickable"/></g></g><g id="sprotty_ArchitectureBlockImpl$eh2_configurable_gw/BPortImpl$rawclk_to_ArchitectureBlockImpl$eh2_configurable_gw/InstantiationBlockImpl$sync_inst/BPortImpl$rawclk" class="sprotty-edge edge" style="fill:none;stroke:rgb(112, 112, 112);stroke-linejoin:round;"><g><path d="M 0 309 L 177.28125 309 "/><path d="M 0 309 L 177.28125 309 " class="clickable"/></g></g><g id="sprotty_ArchitectureBlockImpl$eh2_configurable_gw/BPortImpl$clken_to_ArchitectureBlockImpl$eh2_configurable_gw/InstantiationBlockImpl$sync_inst/BPortImpl$clken" class="sprotty-edge edge" style="fill:none;stroke:rgb(112, 112, 112);stroke-linejoin:round;"><g><path d="M 0 149 L 135.28125 149 C 136.28125 149 137.28125 150 137.28125 151 L 137.28125 335 C 137.28125 336 138.28125 337 139.28125 337 L 177.28125 337 "/><path d="M 0 149 L 135.28125 149 C 136.28125 149 137.28125 150 137.28125 151 L 137.28125 335 C 137.28125 336 138.28125 337 139.28125 337 L 177.28125 337 " class="clickable"/></g><circle r="2" id="sprotty_ArchitectureBlockImpl$eh2_configurable_gw/BPortImpl$clken_to_ArchitectureBlockImpl$eh2_configurable_gw/InstantiationBlockImpl$sync_inst/BPortImpl$clken/junction0" transform="translate(137.28125, 149)" class="sprotty-junction junction" style="fill:rgb(112, 112, 112);stroke:none;"/></g><g id="sprotty_ArchitectureBlockImpl$eh2_configurable_gw/BPortImpl$rst_l_to_ArchitectureBlockImpl$eh2_configurable_gw/InstantiationBlockImpl$sync_inst/BPortImpl$rst_l" class="sprotty-edge edge" style="fill:none;stroke:rgb(112, 112, 112);stroke-linejoin:round;"><g><path d="M 0 354 L 155.28125 354 C 156.28125 354 157.28125 355 157.28125 356 L 157.28125 363 C 157.28125 364 158.28125 365 159.28125 365 L 177.28125 365 "/><path d="M 0 354 L 155.28125 354 C 156.28125 354 157.28125 355 157.28125 356 L 157.28125 363 C 157.28125 364 158.28125 365 159.28125 365 L 177.28125 365 " class="clickable"/></g><circle r="2" id="sprotty_ArchitectureBlockImpl$eh2_configurable_gw/BPortImpl$rst_l_to_ArchitectureBlockImpl$eh2_configurable_gw/InstantiationBlockImpl$sync_inst/BPortImpl$rst_l/junction0" transform="translate(157.28125, 354)" class="sprotty-junction junction" style="fill:rgb(112, 112, 112);stroke:none;"/></g><g id="sprotty_ArchitectureBlockImpl$eh2_configurable_gw/BPortImpl$extintsrc_req_to_ArchitectureBlockImpl$eh2_configurable_gw/InstantiationBlockImpl$sync_inst/BPortImpl$din" class="sprotty-edge edge" style="fill:none;stroke:rgb(112, 112, 112);stroke-linejoin:round;"><g><path d="M 0 388 L 135.28125 388 C 136.28125 388 137.28125 389 137.28125 390 L 137.28125 391 C 137.28125 392 138.28125 393 139.28125 393 L 177.28125 393 "/><path d="M 0 388 L 135.28125 388 C 136.28125 388 137.28125 389 137.28125 390 L 137.28125 391 C 137.28125 392 138.28125 393 139.28125 393 L 177.28125 393 " class="clickable"/></g></g><g id="sprotty_ArchitectureBlockImpl$eh2_configurable_gw/BPortImpl$gw_clk_to_ArchitectureBlockImpl$eh2_configurable_gw/InstantiationBlockImpl$int_pend_ff/BPortImpl$clk" class="sprotty-edge edge" style="fill:none;stroke:rgb(112, 112, 112);stroke-linejoin:round;"><g><path d="M 0 115 L 165.28125 115 C 166.28125 115 167.28125 116 167.28125 117 L 167.28125 119 C 167.28125 120 168.28125 121 169.28125 121 L 181.45833333333334 121 "/><path d="M 0 115 L 165.28125 115 C 166.28125 115 167.28125 116 167.28125 117 L 167.28125 119 C 167.28125 120 168.28125 121 169.28125 121 L 181.45833333333334 121 " class="clickable"/></g><circle r="2" id="sprotty_ArchitectureBlockImpl$eh2_configurable_gw/BPortImpl$gw_clk_to_ArchitectureBlockImpl$eh2_configurable_gw/InstantiationBlockImpl$int_pend_ff/BPortImpl$clk/junction0" transform="translate(167.28125, 121)" class="sprotty-junction junction" style="fill:rgb(112, 112, 112);stroke:none;"/></g><g id="sprotty_ArchitectureBlockImpl$eh2_configurable_gw/BPortImpl$clken_to_ArchitectureBlockImpl$eh2_configurable_gw/InstantiationBlockImpl$int_pend_ff/BPortImpl$clken" class="sprotty-edge edge" style="fill:none;stroke:rgb(112, 112, 112);stroke-linejoin:round;"><g><path d="M 0 149 L 181.45833333333334 149 "/><path d="M 0 149 L 181.45833333333334 149 " class="clickable"/></g></g><g id="sprotty_ArchitectureBlockImpl$eh2_configurable_gw/BPortImpl$rawclk_to_ArchitectureBlockImpl$eh2_configurable_gw/InstantiationBlockImpl$int_pend_ff/BPortImpl$rawclk" class="sprotty-edge edge" style="fill:none;stroke:rgb(112, 112, 112);stroke-linejoin:round;"><g><path d="M 0 309 L 145.28125 309 C 146.28125 309 147.28125 308 147.28125 307 L 147.28125 179 C 147.28125 178 148.28125 177 149.28125 177 L 181.45833333333334 177 "/><path d="M 0 309 L 145.28125 309 C 146.28125 309 147.28125 308 147.28125 307 L 147.28125 179 C 147.28125 178 148.28125 177 149.28125 177 L 181.45833333333334 177 " class="clickable"/></g><circle r="2" id="sprotty_ArchitectureBlockImpl$eh2_configurable_gw/BPortImpl$rawclk_to_ArchitectureBlockImpl$eh2_configurable_gw/InstantiationBlockImpl$int_pend_ff/BPortImpl$rawclk/junction0" transform="translate(147.28125, 309)" class="sprotty-junction junction" style="fill:rgb(112, 112, 112);stroke:none;"/></g><g id="sprotty_ArchitectureBlockImpl$eh2_configurable_gw/BPortImpl$rst_l_to_ArchitectureBlockImpl$eh2_configurable_gw/InstantiationBlockImpl$int_pend_ff/BPortImpl$rst_l" class="sprotty-edge edge" style="fill:none;stroke:rgb(112, 112, 112);stroke-linejoin:round;"><g><path d="M 0 354 L 155.28125 354 C 156.28125 354 157.28125 353 157.28125 352 L 157.28125 207 C 157.28125 206 158.28125 205 159.28125 205 L 181.45833333333334 205 "/><path d="M 0 354 L 155.28125 354 C 156.28125 354 157.28125 353 157.28125 352 L 157.28125 207 C 157.28125 206 158.28125 205 159.28125 205 L 181.45833333333334 205 " class="clickable"/></g></g><g id="sprotty_ArchitectureBlockImpl$eh2_configurable_gw/BPortImpl$meigwctrl_polarity_to_ArchitectureBlockImpl$eh2_configurable_gw/AssignmentBlockImpl$gw_int_pending_in/GPortImpl$meigwctrl_polarityIN" class="sprotty-edge edge" style="fill:none;stroke:rgb(112, 112, 112);stroke-linejoin:round;"><g><path d="M 0 422 L 412.0625 422 C 413.0625 422 414.0625 421 414.0625 420 L 414.0625 349 C 414.0625 348 415.0625 347 416.0625 347 L 424.0625 347 "/><path d="M 0 422 L 412.0625 422 C 413.0625 422 414.0625 421 414.0625 420 L 414.0625 349 C 414.0625 348 415.0625 347 416.0625 347 L 424.0625 347 " class="clickable"/></g><circle r="2" id="sprotty_ArchitectureBlockImpl$eh2_configurable_gw/BPortImpl$meigwctrl_polarity_to_ArchitectureBlockImpl$eh2_configurable_gw/AssignmentBlockImpl$gw_int_pending_in/GPortImpl$meigwctrl_polarityIN/junction0" transform="translate(414.0625, 422)" class="sprotty-junction junction" style="fill:rgb(112, 112, 112);stroke:none;"/></g><g id="sprotty_ArchitectureBlockImpl$eh2_configurable_gw/BPortImpl$meigwclr_to_ArchitectureBlockImpl$eh2_configurable_gw/AssignmentBlockImpl$gw_int_pending_in/GPortImpl$meigwclrIN" class="sprotty-edge edge" style="fill:none;stroke:rgb(112, 112, 112);stroke-linejoin:round;"><g><path d="M 0 43 L 412.0625 43 C 413.0625 43 414.0625 44 414.0625 45 L 414.0625 315 C 414.0625 316 415.0625 317 416.0625 317 L 424.0625 317 "/><path d="M 0 43 L 412.0625 43 C 413.0625 43 414.0625 44 414.0625 45 L 414.0625 315 C 414.0625 316 415.0625 317 416.0625 317 L 424.0625 317 " class="clickable"/></g></g><g id="sprotty_ArchitectureBlockImpl$eh2_configurable_gw/BPortImpl$meigwctrl_type_to_ArchitectureBlockImpl$eh2_configurable_gw/AssignmentBlockImpl$extintsrc_req_config/GPortImpl$meigwctrl_typeIN" class="sprotty-edge edge" style="fill:none;stroke:rgb(112, 112, 112);stroke-linejoin:round;"><g><path d="M 0 456 L 392.0625 456 C 393.0625 456 394.0625 455 394.0625 454 L 394.0625 434 C 394.0625 433 395.0625 432 396.0625 432 L 424.0625 432 "/><path d="M 0 456 L 392.0625 456 C 393.0625 456 394.0625 455 394.0625 454 L 394.0625 434 C 394.0625 433 395.0625 432 396.0625 432 L 424.0625 432 " class="clickable"/></g></g><g id="sprotty_ArchitectureBlockImpl$eh2_configurable_gw/BPortImpl$meigwctrl_polarity_to_ArchitectureBlockImpl$eh2_configurable_gw/AssignmentBlockImpl$extintsrc_req_config/GPortImpl$meigwctrl_polarityIN" class="sprotty-edge edge" style="fill:none;stroke:rgb(112, 112, 112);stroke-linejoin:round;"><g><path d="M 0 422 L 424.0625 422 "/><path d="M 0 422 L 424.0625 422 " class="clickable"/></g></g><g id="sprotty_ArchitectureBlockImpl$eh2_configurable_gw/AssignmentBlockImpl$gw_int_pending_in/GPortImpl$gw_int_pending_inOUT_to_ArchitectureBlockImpl$eh2_configurable_gw/InstantiationBlockImpl$int_pend_ff/BPortImpl$din" class="sprotty-edge edge" style="fill:none;stroke:rgb(112, 112, 112);stroke-linejoin:round;"><g><path d="M 443.5 332 L 451.5 332 C 452.5 332 453.5 331 453.5 330 L 453.5 37 C 453.5 36 452.5 35 451.5 35 L 169.28125 35 C 168.28125 35 167.28125 36 167.28125 37 L 167.28125 91 C 167.28125 92 168.28125 93 169.28125 93 L 181.45833333333334 93 "/><path d="M 443.5 332 L 451.5 332 C 452.5 332 453.5 331 453.5 330 L 453.5 37 C 453.5 36 452.5 35 451.5 35 L 169.28125 35 C 168.28125 35 167.28125 36 167.28125 37 L 167.28125 91 C 167.28125 92 168.28125 93 169.28125 93 L 181.45833333333334 93 " class="clickable"/></g></g><g id="sprotty_ArchitectureBlockImpl$eh2_configurable_gw/InstantiationBlockImpl$int_pend_ff/BPortImpl$dout_to_ArchitectureBlockImpl$eh2_configurable_gw/AssignmentBlockImpl$gw_int_pending_in/GPortImpl$gw_int_pendingIN" class="sprotty-edge edge" style="fill:none;stroke:rgb(112, 112, 112);stroke-linejoin:round;"><g><path d="M 375.70833333333337 149 L 402.0625 149 C 403.0625 149 404.0625 150 404.0625 151 L 404.0625 325 C 404.0625 326 405.0625 327 406.0625 327 L 424.0625 327 "/><path d="M 375.70833333333337 149 L 402.0625 149 C 403.0625 149 404.0625 150 404.0625 151 L 404.0625 325 C 404.0625 326 405.0625 327 406.0625 327 L 424.0625 327 " class="clickable"/></g><circle r="2" id="sprotty_ArchitectureBlockImpl$eh2_configurable_gw/InstantiationBlockImpl$int_pend_ff/BPortImpl$dout_to_ArchitectureBlockImpl$eh2_configurable_gw/AssignmentBlockImpl$gw_int_pending_in/GPortImpl$gw_int_pendingIN/junction0" transform="translate(404.0625, 327)" class="sprotty-junction junction" style="fill:rgb(112, 112, 112);stroke:none;"/></g><g id="sprotty_ArchitectureBlockImpl$eh2_configurable_gw/InstantiationBlockImpl$int_pend_ff/BPortImpl$dout_to_ArchitectureBlockImpl$eh2_configurable_gw/AssignmentBlockImpl$extintsrc_req_config/GPortImpl$gw_int_pendingIN" class="sprotty-edge edge" style="fill:none;stroke:rgb(112, 112, 112);stroke-linejoin:round;"><g><path d="M 375.70833333333337 149 L 402.0625 149 C 403.0625 149 404.0625 150 404.0625 151 L 404.0625 400 C 404.0625 401 405.0625 402 406.0625 402 L 424.0625 402 "/><path d="M 375.70833333333337 149 L 402.0625 149 C 403.0625 149 404.0625 150 404.0625 151 L 404.0625 400 C 404.0625 401 405.0625 402 406.0625 402 L 424.0625 402 " class="clickable"/></g></g><g id="sprotty_ArchitectureBlockImpl$eh2_configurable_gw/InstantiationBlockImpl$sync_inst/BPortImpl$dout_to_ArchitectureBlockImpl$eh2_configurable_gw/AssignmentBlockImpl$gw_int_pending_in/GPortImpl$extintsrc_req_syncIN" class="sprotty-edge edge" style="fill:none;stroke:rgb(112, 112, 112);stroke-linejoin:round;"><g><path d="M 384.0625 337 L 424.0625 337 "/><path d="M 384.0625 337 L 424.0625 337 " class="clickable"/></g></g><g id="sprotty_ArchitectureBlockImpl$eh2_configurable_gw/InstantiationBlockImpl$sync_inst/BPortImpl$dout_to_ArchitectureBlockImpl$eh2_configurable_gw/AssignmentBlockImpl$extintsrc_req_config/GPortImpl$extintsrc_req_syncIN" class="sprotty-edge edge" style="fill:none;stroke:rgb(112, 112, 112);stroke-linejoin:round;"><g><path d="M 384.0625 337 L 392.0625 337 C 393.0625 337 394.0625 338 394.0625 339 L 394.0625 410 C 394.0625 411 395.0625 412 396.0625 412 L 424.0625 412 "/><path d="M 384.0625 337 L 392.0625 337 C 393.0625 337 394.0625 338 394.0625 339 L 394.0625 410 C 394.0625 411 395.0625 412 396.0625 412 L 424.0625 412 " class="clickable"/></g><circle r="2" id="sprotty_ArchitectureBlockImpl$eh2_configurable_gw/InstantiationBlockImpl$sync_inst/BPortImpl$dout_to_ArchitectureBlockImpl$eh2_configurable_gw/AssignmentBlockImpl$extintsrc_req_config/GPortImpl$extintsrc_req_syncIN/junction0" transform="translate(394.0625, 337)" class="sprotty-junction junction" style="fill:rgb(112, 112, 112);stroke:none;"/></g><g id="sprotty_ArchitectureBlockImpl$eh2_configurable_gw/AssignmentBlockImpl$extintsrc_req_config" class="statement" transform="translate(424.0625, 392)"><rect x="0" y="0" rx="10" ry="5" width="19.4375" height="50" class="sprotty-node" style="fill:rgb(245, 245, 245);stroke:rgb(112, 112, 112);"/><text class="clickable sprotty-label statementtype" id="sprotty_ArchitectureBlockImpl$eh2_configurable_gw/AssignmentBlockImpl$extintsrc_req_config/labeltype" transform="translate(5, 19) translate(4.71875, 9)" style="cursor:default;font-size:8px;font-weight:700;perspective-origin:0px 0px;fill:rgb(112, 112, 112);text-anchor:middle;">&lt;=</text><g id="sprotty_ArchitectureBlockImpl$eh2_configurable_gw/AssignmentBlockImpl$extintsrc_req_config/GPortImpl$gw_int_pendingIN" class="sprotty-hidden hidden" transform="translate(0, 10)" style="display:block;height:0px;width:0px;"/><g id="sprotty_ArchitectureBlockImpl$eh2_configurable_gw/AssignmentBlockImpl$extintsrc_req_config/GPortImpl$meigwctrl_polarityIN" class="sprotty-hidden hidden" transform="translate(0, 30)" style="display:block;height:0px;width:0px;"/><g id="sprotty_ArchitectureBlockImpl$eh2_configurable_gw/AssignmentBlockImpl$extintsrc_req_config/GPortImpl$extintsrc_req_syncIN" class="sprotty-hidden hidden" transform="translate(0, 20)" style="display:block;height:0px;width:0px;"/><g id="sprotty_ArchitectureBlockImpl$eh2_configurable_gw/AssignmentBlockImpl$extintsrc_req_config/GPortImpl$meigwctrl_typeIN" class="sprotty-hidden hidden" transform="translate(0, 40)" style="display:block;height:0px;width:0px;"/><g id="sprotty_ArchitectureBlockImpl$eh2_configurable_gw/AssignmentBlockImpl$extintsrc_req_config/GPortImpl$extintsrc_req_configOUT" class="sprotty-hidden hidden" transform="translate(19.4375, 25)" style="display:block;height:0px;width:0px;"/></g><g id="sprotty_ArchitectureBlockImpl$eh2_configurable_gw/AssignmentBlockImpl$gw_int_pending_in" class="statement" transform="translate(424.0625, 307)"><rect x="0" y="0" rx="10" ry="5" width="19.4375" height="50" class="sprotty-node" style="fill:rgb(245, 245, 245);stroke:rgb(112, 112, 112);"/><text class="clickable sprotty-label statementtype" id="sprotty_ArchitectureBlockImpl$eh2_configurable_gw/AssignmentBlockImpl$gw_int_pending_in/labeltype" transform="translate(5, 19) translate(4.71875, 9)" style="cursor:default;font-size:8px;font-weight:700;perspective-origin:0px 0px;fill:rgb(112, 112, 112);text-anchor:middle;">&lt;=</text><g id="sprotty_ArchitectureBlockImpl$eh2_configurable_gw/AssignmentBlockImpl$gw_int_pending_in/GPortImpl$meigwclrIN" class="sprotty-hidden hidden" transform="translate(0, 10)" style="display:block;height:0px;width:0px;"/><g id="sprotty_ArchitectureBlockImpl$eh2_configurable_gw/AssignmentBlockImpl$gw_int_pending_in/GPortImpl$gw_int_pendingIN" class="sprotty-hidden hidden" transform="translate(0, 20)" style="display:block;height:0px;width:0px;"/><g id="sprotty_ArchitectureBlockImpl$eh2_configurable_gw/AssignmentBlockImpl$gw_int_pending_in/GPortImpl$meigwctrl_polarityIN" class="sprotty-hidden hidden" transform="translate(0, 40)" style="display:block;height:0px;width:0px;"/><g id="sprotty_ArchitectureBlockImpl$eh2_configurable_gw/AssignmentBlockImpl$gw_int_pending_in/GPortImpl$extintsrc_req_syncIN" class="sprotty-hidden hidden" transform="translate(0, 30)" style="display:block;height:0px;width:0px;"/><g id="sprotty_ArchitectureBlockImpl$eh2_configurable_gw/AssignmentBlockImpl$gw_int_pending_in/GPortImpl$gw_int_pending_inOUT" class="sprotty-hidden hidden" transform="translate(19.4375, 25)" style="display:block;height:0px;width:0px;"/></g><g id="sprotty_ArchitectureBlockImpl$eh2_configurable_gw/InstantiationBlockImpl$int_pend_ff" class="instantiation" transform="translate(181.45833333333334, 55)"><g class="sprotty-block" style="fill:rgb(255, 255, 255);stroke:rgb(48, 48, 48);stroke-dasharray:0px;"><rect x="0" y="0" rx="1" ry="1" width="194.25" height="168"/><text x="97.125" y="12" class="sprotty-block-name" style="cursor:pointer;font-weight:700;perspective-origin:97.125px 0px;fill:rgb(48, 48, 48);stroke:rgba(0, 0, 0, 0);dominant-baseline:middle;text-anchor:middle;">int_pend_ff : rvdff_fpga</text><line x1="0" y1="20" x2="194.25" y2="20"/></g><g id="sprotty_ArchitectureBlockImpl$eh2_configurable_gw/InstantiationBlockImpl$int_pend_ff/BPortImpl$rst_l" class="triangle" transform="translate(0, 150)"><path d="M 0,0 L 5,2.5 L 0,5 Z" transform="translate(-1.67, -2.5)" class="sprotty-port" style="fill:rgb(48, 48, 48);stroke:rgb(48, 48, 48);"/><text class="clickable sprotty-label port" id="sprotty_ArchitectureBlockImpl$eh2_configurable_gw/InstantiationBlockImpl$int_pend_ff/BPortImpl$rst_l/label" transform="translate(6, -9) translate(12.3125, 14)" style="cursor:default;font-size:12px;perspective-origin:0px 0px;fill:rgb(48, 48, 48);text-anchor:middle;">rst_l</text></g><g id="sprotty_ArchitectureBlockImpl$eh2_configurable_gw/InstantiationBlockImpl$int_pend_ff/BPortImpl$rawclk" class="triangle" transform="translate(0, 122)"><path d="M 0,0 L 5,2.5 L 0,5 Z" transform="translate(-1.67, -2.5)" class="sprotty-port" style="fill:rgb(48, 48, 48);stroke:rgb(48, 48, 48);"/><text class="clickable sprotty-label port" id="sprotty_ArchitectureBlockImpl$eh2_configurable_gw/InstantiationBlockImpl$int_pend_ff/BPortImpl$rawclk/label" transform="translate(6, -9) translate(18.421875, 14)" style="cursor:default;font-size:12px;perspective-origin:0px 0px;fill:rgb(48, 48, 48);text-anchor:middle;">rawclk</text></g><g id="sprotty_ArchitectureBlockImpl$eh2_configurable_gw/InstantiationBlockImpl$int_pend_ff/BPortImpl$clken" class="triangle" transform="translate(0, 94)"><path d="M 0,0 L 5,2.5 L 0,5 Z" transform="translate(-1.67, -2.5)" class="sprotty-port" style="fill:rgb(48, 48, 48);stroke:rgb(48, 48, 48);"/><text class="clickable sprotty-label port" id="sprotty_ArchitectureBlockImpl$eh2_configurable_gw/InstantiationBlockImpl$int_pend_ff/BPortImpl$clken/label" transform="translate(6, -9) translate(14.953125, 14)" style="cursor:default;font-size:12px;perspective-origin:0px 0px;fill:rgb(48, 48, 48);text-anchor:middle;">clken</text></g><g id="sprotty_ArchitectureBlockImpl$eh2_configurable_gw/InstantiationBlockImpl$int_pend_ff/BPortImpl$clk" class="triangle" transform="translate(0, 66)"><path d="M 0,0 L 5,2.5 L 0,5 Z" transform="translate(-1.67, -2.5)" class="sprotty-port" style="fill:rgb(48, 48, 48);stroke:rgb(48, 48, 48);"/><text class="clickable sprotty-label port" id="sprotty_ArchitectureBlockImpl$eh2_configurable_gw/InstantiationBlockImpl$int_pend_ff/BPortImpl$clk/label" transform="translate(6, -9) translate(8.078125, 14)" style="cursor:default;font-size:12px;perspective-origin:0px 0px;fill:rgb(48, 48, 48);text-anchor:middle;">clk</text></g><g id="sprotty_ArchitectureBlockImpl$eh2_configurable_gw/InstantiationBlockImpl$int_pend_ff/BPortImpl$din" class="triangle" transform="translate(0, 38)"><path d="M 0,0 L 5,2.5 L 0,5 Z" transform="translate(-1.67, -2.5)" class="sprotty-port" style="fill:rgb(48, 48, 48);stroke:rgb(48, 48, 48);"/><text class="clickable sprotty-label port" id="sprotty_ArchitectureBlockImpl$eh2_configurable_gw/InstantiationBlockImpl$int_pend_ff/BPortImpl$din/label" transform="translate(6, -9) translate(9.046875, 14)" style="cursor:default;font-size:12px;perspective-origin:0px 0px;fill:rgb(48, 48, 48);text-anchor:middle;">din</text></g><g id="sprotty_ArchitectureBlockImpl$eh2_configurable_gw/InstantiationBlockImpl$int_pend_ff/BPortImpl$dout" class="triangle" transform="translate(194.25, 94)"><path d="M 0,0 L 5,2.5 L 0,5 Z" transform="translate(-1.67, -2.5)" class="sprotty-port" style="fill:rgb(48, 48, 48);stroke:rgb(48, 48, 48);"/><text class="clickable sprotty-label port" id="sprotty_ArchitectureBlockImpl$eh2_configurable_gw/InstantiationBlockImpl$int_pend_ff/BPortImpl$dout/label" transform="translate(-32.53125, -9) translate(13.265625, 14)" style="cursor:default;font-size:12px;perspective-origin:0px 0px;fill:rgb(48, 48, 48);text-anchor:middle;">dout</text></g></g><g id="sprotty_ArchitectureBlockImpl$eh2_configurable_gw/InstantiationBlockImpl$sync_inst" class="instantiation" transform="translate(177.28125, 243)"><g class="sprotty-block" style="fill:rgb(255, 255, 255);stroke:rgb(48, 48, 48);stroke-dasharray:0px;"><rect x="0" y="0" rx="1" ry="1" width="206.78125" height="168"/><text x="103.390625" y="12" class="sprotty-block-name" style="cursor:pointer;font-weight:700;perspective-origin:103.391px 0px;fill:rgb(48, 48, 48);stroke:rgba(0, 0, 0, 0);dominant-baseline:middle;text-anchor:middle;">sync_inst : rvsyncss_fpga</text><line x1="0" y1="20" x2="206.78125" y2="20"/></g><g id="sprotty_ArchitectureBlockImpl$eh2_configurable_gw/InstantiationBlockImpl$sync_inst/BPortImpl$din" class="triangle" transform="translate(0, 150)"><path d="M 0,0 L 5,2.5 L 0,5 Z" transform="translate(-1.67, -2.5)" class="sprotty-port" style="fill:rgb(48, 48, 48);stroke:rgb(48, 48, 48);"/><text class="clickable sprotty-label port" id="sprotty_ArchitectureBlockImpl$eh2_configurable_gw/InstantiationBlockImpl$sync_inst/BPortImpl$din/label" transform="translate(6, -9) translate(9.046875, 14)" style="cursor:default;font-size:12px;perspective-origin:0px 0px;fill:rgb(48, 48, 48);text-anchor:middle;">din</text></g><g id="sprotty_ArchitectureBlockImpl$eh2_configurable_gw/InstantiationBlockImpl$sync_inst/BPortImpl$rst_l" class="triangle" transform="translate(0, 122)"><path d="M 0,0 L 5,2.5 L 0,5 Z" transform="translate(-1.67, -2.5)" class="sprotty-port" style="fill:rgb(48, 48, 48);stroke:rgb(48, 48, 48);"/><text class="clickable sprotty-label port" id="sprotty_ArchitectureBlockImpl$eh2_configurable_gw/InstantiationBlockImpl$sync_inst/BPortImpl$rst_l/label" transform="translate(6, -9) translate(12.3125, 14)" style="cursor:default;font-size:12px;perspective-origin:0px 0px;fill:rgb(48, 48, 48);text-anchor:middle;">rst_l</text></g><g id="sprotty_ArchitectureBlockImpl$eh2_configurable_gw/InstantiationBlockImpl$sync_inst/BPortImpl$clken" class="triangle" transform="translate(0, 94)"><path d="M 0,0 L 5,2.5 L 0,5 Z" transform="translate(-1.67, -2.5)" class="sprotty-port" style="fill:rgb(48, 48, 48);stroke:rgb(48, 48, 48);"/><text class="clickable sprotty-label port" id="sprotty_ArchitectureBlockImpl$eh2_configurable_gw/InstantiationBlockImpl$sync_inst/BPortImpl$clken/label" transform="translate(6, -9) translate(14.953125, 14)" style="cursor:default;font-size:12px;perspective-origin:0px 0px;fill:rgb(48, 48, 48);text-anchor:middle;">clken</text></g><g id="sprotty_ArchitectureBlockImpl$eh2_configurable_gw/InstantiationBlockImpl$sync_inst/BPortImpl$rawclk" class="triangle" transform="translate(0, 66)"><path d="M 0,0 L 5,2.5 L 0,5 Z" transform="translate(-1.67, -2.5)" class="sprotty-port" style="fill:rgb(48, 48, 48);stroke:rgb(48, 48, 48);"/><text class="clickable sprotty-label port" id="sprotty_ArchitectureBlockImpl$eh2_configurable_gw/InstantiationBlockImpl$sync_inst/BPortImpl$rawclk/label" transform="translate(6, -9) translate(18.421875, 14)" style="cursor:default;font-size:12px;perspective-origin:0px 0px;fill:rgb(48, 48, 48);text-anchor:middle;">rawclk</text></g><g id="sprotty_ArchitectureBlockImpl$eh2_configurable_gw/InstantiationBlockImpl$sync_inst/BPortImpl$gw_clk" class="triangle" transform="translate(0, 38)"><path d="M 0,0 L 5,2.5 L 0,5 Z" transform="translate(-1.67, -2.5)" class="sprotty-port" style="fill:rgb(48, 48, 48);stroke:rgb(48, 48, 48);"/><text class="clickable sprotty-label port" id="sprotty_ArchitectureBlockImpl$eh2_configurable_gw/InstantiationBlockImpl$sync_inst/BPortImpl$gw_clk/label" transform="translate(6, -9) translate(19.609375, 14)" style="cursor:default;font-size:12px;perspective-origin:0px 0px;fill:rgb(48, 48, 48);text-anchor:middle;">gw_clk</text></g><g id="sprotty_ArchitectureBlockImpl$eh2_configurable_gw/InstantiationBlockImpl$sync_inst/BPortImpl$dout" class="triangle" transform="translate(206.78125, 94)"><path d="M 0,0 L 5,2.5 L 0,5 Z" transform="translate(-1.67, -2.5)" class="sprotty-port" style="fill:rgb(48, 48, 48);stroke:rgb(48, 48, 48);"/><text class="clickable sprotty-label port" id="sprotty_ArchitectureBlockImpl$eh2_configurable_gw/InstantiationBlockImpl$sync_inst/BPortImpl$dout/label" transform="translate(-32.53125, -9) translate(13.265625, 14)" style="cursor:default;font-size:12px;perspective-origin:0px 0px;fill:rgb(48, 48, 48);text-anchor:middle;">dout</text></g></g><g id="sprotty_ArchitectureBlockImpl$eh2_configurable_gw/BPortImpl$meigwclr" class="triangle" transform="translate(0, 43)"><path d="M 0,0 L 5,2.5 L 0,5 Z" transform="translate(-1.67, -2.5)" class="sprotty-port" style="fill:rgb(48, 48, 48);stroke:rgb(48, 48, 48);"/><text class="clickable sprotty-label port" id="sprotty_ArchitectureBlockImpl$eh2_configurable_gw/BPortImpl$meigwclr/label" transform="translate(6, 6) translate(25.765625, 14)" style="cursor:default;font-size:12px;perspective-origin:0.015625px 0px;fill:rgb(48, 48, 48);text-anchor:middle;">meigwclr</text></g><g id="sprotty_ArchitectureBlockImpl$eh2_configurable_gw/BPortImpl$meigwctrl_type" class="triangle" transform="translate(0, 456)"><path d="M 0,0 L 5,2.5 L 0,5 Z" transform="translate(-1.67, -2.5)" class="sprotty-port" style="fill:rgb(48, 48, 48);stroke:rgb(48, 48, 48);"/><text class="clickable sprotty-label port" id="sprotty_ArchitectureBlockImpl$eh2_configurable_gw/BPortImpl$meigwctrl_type/label" transform="translate(6, 6) translate(43.75, 14)" style="cursor:default;font-size:12px;perspective-origin:0px 0px;fill:rgb(48, 48, 48);text-anchor:middle;">meigwctrl_type</text></g><g id="sprotty_ArchitectureBlockImpl$eh2_configurable_gw/BPortImpl$meigwctrl_polarity" class="triangle" transform="translate(0, 422)"><path d="M 0,0 L 5,2.5 L 0,5 Z" transform="translate(-1.67, -2.5)" class="sprotty-port" style="fill:rgb(48, 48, 48);stroke:rgb(48, 48, 48);"/><text class="clickable sprotty-label port" id="sprotty_ArchitectureBlockImpl$eh2_configurable_gw/BPortImpl$meigwctrl_polarity/label" transform="translate(6, 6) translate(53.140625, 14)" style="cursor:default;font-size:12px;perspective-origin:0px 0px;fill:rgb(48, 48, 48);text-anchor:middle;">meigwctrl_polarity</text></g><g id="sprotty_ArchitectureBlockImpl$eh2_configurable_gw/BPortImpl$extintsrc_req" class="triangle" transform="translate(0, 388)"><path d="M 0,0 L 5,2.5 L 0,5 Z" transform="translate(-1.67, -2.5)" class="sprotty-port" style="fill:rgb(48, 48, 48);stroke:rgb(48, 48, 48);"/><text class="clickable sprotty-label port" id="sprotty_ArchitectureBlockImpl$eh2_configurable_gw/BPortImpl$extintsrc_req/label" transform="translate(6, 6) translate(36.671875, 14)" style="cursor:default;font-size:12px;perspective-origin:0px 0px;fill:rgb(48, 48, 48);text-anchor:middle;">extintsrc_req</text></g><g id="sprotty_ArchitectureBlockImpl$eh2_configurable_gw/BPortImpl$rst_l" class="triangle" transform="translate(0, 354)"><path d="M 0,0 L 5,2.5 L 0,5 Z" transform="translate(-1.67, -2.5)" class="sprotty-port" style="fill:rgb(48, 48, 48);stroke:rgb(48, 48, 48);"/><text class="clickable sprotty-label port" id="sprotty_ArchitectureBlockImpl$eh2_configurable_gw/BPortImpl$rst_l/label" transform="translate(6, 6) translate(12.3125, 14)" style="cursor:default;font-size:12px;perspective-origin:0px 0px;fill:rgb(48, 48, 48);text-anchor:middle;">rst_l</text></g><g id="sprotty_ArchitectureBlockImpl$eh2_configurable_gw/BPortImpl$clken" class="triangle" transform="translate(0, 149)"><path d="M 0,0 L 5,2.5 L 0,5 Z" transform="translate(-1.67, -2.5)" class="sprotty-port" style="fill:rgb(48, 48, 48);stroke:rgb(48, 48, 48);"/><text class="clickable sprotty-label port" id="sprotty_ArchitectureBlockImpl$eh2_configurable_gw/BPortImpl$clken/label" transform="translate(6, 6) translate(14.953125, 14)" style="cursor:default;font-size:12px;perspective-origin:0px 0px;fill:rgb(48, 48, 48);text-anchor:middle;">clken</text></g><g id="sprotty_ArchitectureBlockImpl$eh2_configurable_gw/BPortImpl$rawclk" class="triangle" transform="translate(0, 309)"><path d="M 0,0 L 5,2.5 L 0,5 Z" transform="translate(-1.67, -2.5)" class="sprotty-port" style="fill:rgb(48, 48, 48);stroke:rgb(48, 48, 48);"/><text class="clickable sprotty-label port" id="sprotty_ArchitectureBlockImpl$eh2_configurable_gw/BPortImpl$rawclk/label" transform="translate(6, 6) translate(18.421875, 14)" style="cursor:default;font-size:12px;perspective-origin:0px 0px;fill:rgb(48, 48, 48);text-anchor:middle;">rawclk</text></g><g id="sprotty_ArchitectureBlockImpl$eh2_configurable_gw/BPortImpl$gw_clk" class="triangle" transform="translate(0, 115)"><path d="M 0,0 L 5,2.5 L 0,5 Z" transform="translate(-1.67, -2.5)" class="sprotty-port" style="fill:rgb(48, 48, 48);stroke:rgb(48, 48, 48);"/><text class="clickable sprotty-label port" id="sprotty_ArchitectureBlockImpl$eh2_configurable_gw/BPortImpl$gw_clk/label" transform="translate(6, 6) translate(19.609375, 14)" style="cursor:default;font-size:12px;perspective-origin:0px 0px;fill:rgb(48, 48, 48);text-anchor:middle;">gw_clk</text></g><g id="sprotty_ArchitectureBlockImpl$eh2_configurable_gw/BPortImpl$extintsrc_req_config" class="triangle" transform="translate(599.15625, 417)"><path d="M 0,0 L 5,2.5 L 0,5 Z" transform="translate(-1.67, -2.5)" class="sprotty-port" style="fill:rgb(48, 48, 48);stroke:rgb(48, 48, 48);"/><text class="clickable sprotty-label port" id="sprotty_ArchitectureBlockImpl$eh2_configurable_gw/BPortImpl$extintsrc_req_config/label" transform="translate(-120.65625, 6) translate(57.328125, 14)" style="cursor:default;font-size:12px;perspective-origin:0px 0px;fill:rgb(48, 48, 48);text-anchor:middle;">extintsrc_req_config</text></g></g></g></svg>