<svg xmlns="http://www.w3.org/2000/svg" id="sprotty_work.rvarbiter2" class="sprotty-graph sprotty-block-diagram blockdiagram" style="font-family:&quot;Noto Sans&quot;, Helvetica, Arial, sans-serif;perspective-origin:0px 0px;transform-origin:0px 0px;" version="1.1" viewBox="7 7 395.15625 373" width="395.15625" height="373"><g transform="scale(1) translate(0,0)"><g id="sprotty_ArchitectureBlockImpl$rvarbiter2" class="architecture" transform="translate(12, 12)"><g class="sprotty-block" style="fill:rgb(255, 255, 255);stroke:rgb(48, 48, 48);stroke-dasharray:0px;"><rect x="0" y="0" rx="1" ry="1" width="385.15625" height="363"/><text x="192.578125" y="12" class="sprotty-block-name" style="cursor:pointer;font-weight:700;perspective-origin:192.578px 0px;fill:rgb(48, 48, 48);stroke:rgba(0, 0, 0, 0);dominant-baseline:middle;text-anchor:middle;">rvarbiter2</text><line x1="0" y1="20" x2="385.15625" y2="20"/></g><g id="sprotty_ArchitectureBlockImpl$rvarbiter2/AssignmentBlockImpl$tid/GPortImpl$tidOUT_to_ArchitectureBlockImpl$rvarbiter2/BPortImpl$tid" class="sprotty-edge edge" style="fill:none;stroke:rgb(112, 112, 112);stroke-linejoin:round;"><g><path d="M 348.875 146 L 385.15625 146 "/><path d="M 348.875 146 L 385.15625 146 " class="clickable"/></g></g><g id="sprotty_ArchitectureBlockImpl$rvarbiter2/BPortImpl$shift_to_ArchitectureBlockImpl$rvarbiter2/InstantiationBlockImpl$favor_ff/BPortImpl$en" class="sprotty-edge edge" style="fill:none;stroke:rgb(112, 112, 112);stroke-linejoin:round;"><g><path d="M 0 168 L 99.90625 168 C 100.90625 168 101.90625 167 101.90625 166 L 101.90625 148 C 101.90625 147 102.90625 146 103.90625 146 L 149.34375 146 C 150.34375 146 151.34375 147 151.34375 148 L 151.34375 222 C 151.34375 223 152.34375 224 153.34375 224 L 171.34375 224 "/><path d="M 0 168 L 99.90625 168 C 100.90625 168 101.90625 167 101.90625 166 L 101.90625 148 C 101.90625 147 102.90625 146 103.90625 146 L 149.34375 146 C 150.34375 146 151.34375 147 151.34375 148 L 151.34375 222 C 151.34375 223 152.34375 224 153.34375 224 L 171.34375 224 " class="clickable"/></g></g><g id="sprotty_ArchitectureBlockImpl$rvarbiter2/BPortImpl$clk_to_ArchitectureBlockImpl$rvarbiter2/InstantiationBlockImpl$favor_ff/BPortImpl$clk" class="sprotty-edge edge" style="fill:none;stroke:rgb(112, 112, 112);stroke-linejoin:round;"><g><path d="M 0 246 L 149.34375 246 C 150.34375 246 151.34375 247 151.34375 248 L 151.34375 250 C 151.34375 251 152.34375 252 153.34375 252 L 171.34375 252 "/><path d="M 0 246 L 149.34375 246 C 150.34375 246 151.34375 247 151.34375 248 L 151.34375 250 C 151.34375 251 152.34375 252 153.34375 252 L 171.34375 252 " class="clickable"/></g></g><g id="sprotty_ArchitectureBlockImpl$rvarbiter2/BPortImpl$rst_l_to_ArchitectureBlockImpl$rvarbiter2/InstantiationBlockImpl$favor_ff/BPortImpl$rst_l" class="sprotty-edge edge" style="fill:none;stroke:rgb(112, 112, 112);stroke-linejoin:round;"><g><path d="M 0 280 L 171.34375 280 "/><path d="M 0 280 L 171.34375 280 " class="clickable"/></g></g><g id="sprotty_ArchitectureBlockImpl$rvarbiter2/BPortImpl$ready_to_ArchitectureBlockImpl$rvarbiter2/AssignmentBlockImpl$ready0/GPortImpl$readyIN" class="sprotty-edge thick edge" style="fill:none;stroke:rgb(112, 112, 112);stroke-linejoin:round;stroke-width:3px;"><g><path d="M 0 36 L 60.46875 36 C 61.46875 36 62.46875 37 62.46875 38 L 62.46875 102 C 62.46875 103 63.46875 104 64.46875 104 L 72.46875 104 "/><path d="M 0 36 L 60.46875 36 C 61.46875 36 62.46875 37 62.46875 38 L 62.46875 102 C 62.46875 103 63.46875 104 64.46875 104 L 72.46875 104 " class="clickable"/></g><circle r="3" id="sprotty_ArchitectureBlockImpl$rvarbiter2/BPortImpl$ready_to_ArchitectureBlockImpl$rvarbiter2/AssignmentBlockImpl$ready0/GPortImpl$readyIN/junction0" transform="translate(62.46875, 36)" class="sprotty-junction thick" style="fill:rgb(112, 112, 112);stroke:none;"/><circle r="3" id="sprotty_ArchitectureBlockImpl$rvarbiter2/BPortImpl$ready_to_ArchitectureBlockImpl$rvarbiter2/AssignmentBlockImpl$ready0/GPortImpl$readyIN/junction1" transform="translate(62.46875, 104)" class="sprotty-junction thick" style="fill:rgb(112, 112, 112);stroke:none;"/></g><g id="sprotty_ArchitectureBlockImpl$rvarbiter2/BPortImpl$ready_to_ArchitectureBlockImpl$rvarbiter2/AssignmentBlockImpl$ready1/GPortImpl$readyIN" class="sprotty-edge thick edge" style="fill:none;stroke:rgb(112, 112, 112);stroke-linejoin:round;stroke-width:3px;"><g><path d="M 0 36 L 60.46875 36 C 61.46875 36 62.46875 37 62.46875 38 L 62.46875 57 C 62.46875 58 63.46875 59 64.46875 59 L 72.46875 59 "/><path d="M 0 36 L 60.46875 36 C 61.46875 36 62.46875 37 62.46875 38 L 62.46875 57 C 62.46875 58 63.46875 59 64.46875 59 L 72.46875 59 " class="clickable"/></g><circle r="3" id="sprotty_ArchitectureBlockImpl$rvarbiter2/BPortImpl$ready_to_ArchitectureBlockImpl$rvarbiter2/AssignmentBlockImpl$ready1/GPortImpl$readyIN/junction0" transform="translate(62.46875, 59)" class="sprotty-junction thick" style="fill:rgb(112, 112, 112);stroke:none;"/></g><g id="sprotty_ArchitectureBlockImpl$rvarbiter2/BPortImpl$ready_to_ArchitectureBlockImpl$rvarbiter2/AssignmentBlockImpl$ready2/GPortImpl$readyIN" class="sprotty-edge thick edge" style="fill:none;stroke:rgb(112, 112, 112);stroke-linejoin:round;stroke-width:3px;"><g><path d="M 0 36 L 60.46875 36 C 61.46875 36 62.46875 37 62.46875 38 L 62.46875 144 C 62.46875 145 63.46875 146 64.46875 146 L 72.46875 146 "/><path d="M 0 36 L 60.46875 36 C 61.46875 36 62.46875 37 62.46875 38 L 62.46875 144 C 62.46875 145 63.46875 146 64.46875 146 L 72.46875 146 " class="clickable"/></g></g><g id="sprotty_ArchitectureBlockImpl$rvarbiter2/BPortImpl$ready_to_ArchitectureBlockImpl$rvarbiter2/AssignmentBlockImpl$favor_in/GPortImpl$readyIN" class="sprotty-edge thick edge" style="fill:none;stroke:rgb(112, 112, 112);stroke-linejoin:round;stroke-width:3px;"><g><path d="M 0 36 L 60.46875 36 C 61.46875 36 62.46875 37 62.46875 38 L 62.46875 79 C 62.46875 80 63.46875 81 64.46875 81 L 121.90625 81 "/><path d="M 0 36 L 60.46875 36 C 61.46875 36 62.46875 37 62.46875 38 L 62.46875 79 C 62.46875 80 63.46875 81 64.46875 81 L 121.90625 81 " class="clickable"/></g><circle r="3" id="sprotty_ArchitectureBlockImpl$rvarbiter2/BPortImpl$ready_to_ArchitectureBlockImpl$rvarbiter2/AssignmentBlockImpl$favor_in/GPortImpl$readyIN/junction0" transform="translate(62.46875, 81)" class="sprotty-junction thick" style="fill:rgb(112, 112, 112);stroke:none;"/></g><g id="sprotty_ArchitectureBlockImpl$rvarbiter2/BPortImpl$ready_to_ArchitectureBlockImpl$rvarbiter2/AssignmentBlockImpl$tid/GPortImpl$readyIN" class="sprotty-edge thick edge" style="fill:none;stroke:rgb(112, 112, 112);stroke-linejoin:round;stroke-width:3px;"><g><path d="M 0 36 L 317.4375 36 C 318.4375 36 319.4375 37 319.4375 38 L 319.4375 134 C 319.4375 135 320.4375 136 321.4375 136 L 329.4375 136 "/><path d="M 0 36 L 317.4375 36 C 318.4375 36 319.4375 37 319.4375 38 L 319.4375 134 C 319.4375 135 320.4375 136 321.4375 136 L 329.4375 136 " class="clickable"/></g></g><g id="sprotty_ArchitectureBlockImpl$rvarbiter2/AssignmentBlockImpl$ready0/GPortImpl$ready0OUT_to_ArchitectureBlockImpl$rvarbiter2/AssignmentBlockImpl$favor_in/GPortImpl$ready0IN" class="sprotty-edge edge" style="fill:none;stroke:rgb(112, 112, 112);stroke-linejoin:round;"><g><path d="M 91.90625 104 L 109.90625 104 C 110.90625 104 111.90625 103 111.90625 102 L 111.90625 102 C 111.90625 101.5 112.90625 101 113.90625 101 L 121.90625 101 "/><path d="M 91.90625 104 L 109.90625 104 C 110.90625 104 111.90625 103 111.90625 102 L 111.90625 102 C 111.90625 101.5 112.90625 101 113.90625 101 L 121.90625 101 " class="clickable"/></g></g><g id="sprotty_ArchitectureBlockImpl$rvarbiter2/AssignmentBlockImpl$ready1/GPortImpl$ready1OUT_to_ArchitectureBlockImpl$rvarbiter2/AssignmentBlockImpl$favor_in/GPortImpl$ready1IN" class="sprotty-edge edge" style="fill:none;stroke:rgb(112, 112, 112);stroke-linejoin:round;"><g><path d="M 91.90625 59 L 99.90625 59 C 100.90625 59 101.90625 60 101.90625 61 L 101.90625 69 C 101.90625 70 102.90625 71 103.90625 71 L 121.90625 71 "/><path d="M 91.90625 59 L 99.90625 59 C 100.90625 59 101.90625 60 101.90625 61 L 101.90625 69 C 101.90625 70 102.90625 71 103.90625 71 L 121.90625 71 " class="clickable"/></g></g><g id="sprotty_ArchitectureBlockImpl$rvarbiter2/AssignmentBlockImpl$ready2/GPortImpl$ready2OUT_to_ArchitectureBlockImpl$rvarbiter2/InstantiationBlockImpl$favor_ff/BPortImpl$en" class="sprotty-edge edge" style="fill:none;stroke:rgb(112, 112, 112);stroke-linejoin:round;"><g><path d="M 91.90625 146 L 149.34375 146 C 150.34375 146 151.34375 147 151.34375 148 L 151.34375 222 C 151.34375 223 152.34375 224 153.34375 224 L 171.34375 224 "/><path d="M 91.90625 146 L 149.34375 146 C 150.34375 146 151.34375 147 151.34375 148 L 151.34375 222 C 151.34375 223 152.34375 224 153.34375 224 L 171.34375 224 " class="clickable"/></g><circle r="2" id="sprotty_ArchitectureBlockImpl$rvarbiter2/AssignmentBlockImpl$ready2/GPortImpl$ready2OUT_to_ArchitectureBlockImpl$rvarbiter2/InstantiationBlockImpl$favor_ff/BPortImpl$en/junction0" transform="translate(151.34375, 146)" class="sprotty-junction junction" style="fill:rgb(112, 112, 112);stroke:none;"/></g><g id="sprotty_ArchitectureBlockImpl$rvarbiter2/AssignmentBlockImpl$ready2/GPortImpl$ready2OUT_to_ArchitectureBlockImpl$rvarbiter2/AssignmentBlockImpl$favor_in/GPortImpl$ready2IN" class="sprotty-edge edge" style="fill:none;stroke:rgb(112, 112, 112);stroke-linejoin:round;"><g><path d="M 91.90625 146 L 99.90625 146 C 100.90625 146 101.90625 145 101.90625 144 L 101.90625 93 C 101.90625 92 102.90625 91 103.90625 91 L 121.90625 91 "/><path d="M 91.90625 146 L 99.90625 146 C 100.90625 146 101.90625 145 101.90625 144 L 101.90625 93 C 101.90625 92 102.90625 91 103.90625 91 L 121.90625 91 " class="clickable"/></g><circle r="2" id="sprotty_ArchitectureBlockImpl$rvarbiter2/AssignmentBlockImpl$ready2/GPortImpl$ready2OUT_to_ArchitectureBlockImpl$rvarbiter2/AssignmentBlockImpl$favor_in/GPortImpl$ready2IN/junction0" transform="translate(101.90625, 146)" class="sprotty-junction junction" style="fill:rgb(112, 112, 112);stroke:none;"/></g><g id="sprotty_ArchitectureBlockImpl$rvarbiter2/AssignmentBlockImpl$ready2/GPortImpl$ready2OUT_to_ArchitectureBlockImpl$rvarbiter2/AssignmentBlockImpl$tid/GPortImpl$ready2IN" class="sprotty-edge edge" style="fill:none;stroke:rgb(112, 112, 112);stroke-linejoin:round;"><g><path d="M 91.90625 146 L 329.4375 146 "/><path d="M 91.90625 146 L 329.4375 146 " class="clickable"/></g></g><g id="sprotty_ArchitectureBlockImpl$rvarbiter2/AssignmentBlockImpl$favor_in/GPortImpl$favorOUT_to_ArchitectureBlockImpl$rvarbiter2/InstantiationBlockImpl$favor_ff/BPortImpl$din" class="sprotty-edge edge" style="fill:none;stroke:rgb(112, 112, 112);stroke-linejoin:round;"><g><path d="M 141.34375 91 L 159.34375 91 C 160.34375 91 161.34375 92 161.34375 93 L 161.34375 194 C 161.34375 195 162.34375 196 163.34375 196 L 171.34375 196 "/><path d="M 141.34375 91 L 159.34375 91 C 160.34375 91 161.34375 92 161.34375 93 L 161.34375 194 C 161.34375 195 162.34375 196 163.34375 196 L 171.34375 196 " class="clickable"/></g></g><g id="sprotty_ArchitectureBlockImpl$rvarbiter2/InstantiationBlockImpl$favor_ff/BPortImpl$dout_to_ArchitectureBlockImpl$rvarbiter2/AssignmentBlockImpl$favor_in/GPortImpl$favorIN" class="sprotty-edge edge" style="fill:none;stroke:rgb(112, 112, 112);stroke-linejoin:round;"><g><path d="M 299.4375 238 L 307.4375 238 C 308.4375 238 309.4375 237 309.4375 236 L 309.4375 133 C 309.4375 132 308.4375 131 307.4375 131 L 113.90625 131 C 112.90625 131 111.90625 130 111.90625 129 L 111.90625 113 C 111.90625 112 112.90625 111 113.90625 111 L 121.90625 111 "/><path d="M 299.4375 238 L 307.4375 238 C 308.4375 238 309.4375 237 309.4375 236 L 309.4375 133 C 309.4375 132 308.4375 131 307.4375 131 L 113.90625 131 C 112.90625 131 111.90625 130 111.90625 129 L 111.90625 113 C 111.90625 112 112.90625 111 113.90625 111 L 121.90625 111 " class="clickable"/></g></g><g id="sprotty_ArchitectureBlockImpl$rvarbiter2/InstantiationBlockImpl$favor_ff/BPortImpl$dout_to_ArchitectureBlockImpl$rvarbiter2/AssignmentBlockImpl$tid/GPortImpl$favorIN" class="sprotty-edge edge" style="fill:none;stroke:rgb(112, 112, 112);stroke-linejoin:round;"><g><path d="M 299.4375 238 L 307.4375 238 C 308.4375 238 309.4375 237 309.4375 236 L 309.4375 158 C 309.4375 157 310.4375 156 311.4375 156 L 329.4375 156 "/><path d="M 299.4375 238 L 307.4375 238 C 308.4375 238 309.4375 237 309.4375 236 L 309.4375 158 C 309.4375 157 310.4375 156 311.4375 156 L 329.4375 156 " class="clickable"/></g><circle r="2" id="sprotty_ArchitectureBlockImpl$rvarbiter2/InstantiationBlockImpl$favor_ff/BPortImpl$dout_to_ArchitectureBlockImpl$rvarbiter2/AssignmentBlockImpl$tid/GPortImpl$favorIN/junction0" transform="translate(309.4375, 156)" class="sprotty-junction junction" style="fill:rgb(112, 112, 112);stroke:none;"/></g><g id="sprotty_ArchitectureBlockImpl$rvarbiter2/AssignmentBlockImpl$tid" class="statement" transform="translate(329.4375, 126)"><rect x="0" y="0" rx="10" ry="5" width="19.4375" height="40" class="sprotty-node" style="fill:rgb(245, 245, 245);stroke:rgb(112, 112, 112);"/><text class="clickable sprotty-label statementtype" id="sprotty_ArchitectureBlockImpl$rvarbiter2/AssignmentBlockImpl$tid/labeltype" transform="translate(5, 14) translate(4.71875, 9)" style="cursor:default;font-size:8px;font-weight:700;perspective-origin:0px 0px;fill:rgb(112, 112, 112);text-anchor:middle;">&lt;=</text><g id="sprotty_ArchitectureBlockImpl$rvarbiter2/AssignmentBlockImpl$tid/GPortImpl$readyIN" class="sprotty-hidden hidden" transform="translate(0, 10)" style="display:block;height:0px;width:0px;"/><g id="sprotty_ArchitectureBlockImpl$rvarbiter2/AssignmentBlockImpl$tid/GPortImpl$favorIN" class="sprotty-hidden hidden" transform="translate(0, 30)" style="display:block;height:0px;width:0px;"/><g id="sprotty_ArchitectureBlockImpl$rvarbiter2/AssignmentBlockImpl$tid/GPortImpl$ready2IN" class="sprotty-hidden hidden" transform="translate(0, 20)" style="display:block;height:0px;width:0px;"/><g id="sprotty_ArchitectureBlockImpl$rvarbiter2/AssignmentBlockImpl$tid/GPortImpl$tidOUT" class="sprotty-hidden hidden" transform="translate(19.4375, 20)" style="display:block;height:0px;width:0px;"/></g><g id="sprotty_ArchitectureBlockImpl$rvarbiter2/AssignmentBlockImpl$favor_in" class="statement" transform="translate(121.90625, 61)"><rect x="0" y="0" rx="10" ry="5" width="19.4375" height="60" class="sprotty-node" style="fill:rgb(245, 245, 245);stroke:rgb(112, 112, 112);"/><text class="clickable sprotty-label statementtype" id="sprotty_ArchitectureBlockImpl$rvarbiter2/AssignmentBlockImpl$favor_in/labeltype" transform="translate(5, 24) translate(4.71875, 9)" style="cursor:default;font-size:8px;font-weight:700;perspective-origin:0px 0px;fill:rgb(112, 112, 112);text-anchor:middle;">&lt;=</text><g id="sprotty_ArchitectureBlockImpl$rvarbiter2/AssignmentBlockImpl$favor_in/GPortImpl$ready0IN" class="sprotty-hidden hidden" transform="translate(0, 40)" style="display:block;height:0px;width:0px;"/><g id="sprotty_ArchitectureBlockImpl$rvarbiter2/AssignmentBlockImpl$favor_in/GPortImpl$readyIN" class="sprotty-hidden hidden" transform="translate(0, 20)" style="display:block;height:0px;width:0px;"/><g id="sprotty_ArchitectureBlockImpl$rvarbiter2/AssignmentBlockImpl$favor_in/GPortImpl$ready1IN" class="sprotty-hidden hidden" transform="translate(0, 10)" style="display:block;height:0px;width:0px;"/><g id="sprotty_ArchitectureBlockImpl$rvarbiter2/AssignmentBlockImpl$favor_in/GPortImpl$favorIN" class="sprotty-hidden hidden" transform="translate(0, 50)" style="display:block;height:0px;width:0px;"/><g id="sprotty_ArchitectureBlockImpl$rvarbiter2/AssignmentBlockImpl$favor_in/GPortImpl$ready2IN" class="sprotty-hidden hidden" transform="translate(0, 30)" style="display:block;height:0px;width:0px;"/><g id="sprotty_ArchitectureBlockImpl$rvarbiter2/AssignmentBlockImpl$favor_in/GPortImpl$favorOUT" class="sprotty-hidden hidden" transform="translate(19.4375, 30)" style="display:block;height:0px;width:0px;"/></g><g id="sprotty_ArchitectureBlockImpl$rvarbiter2/AssignmentBlockImpl$ready2" class="statement" transform="translate(72.46875, 135)"><rect x="0" y="0" rx="10" ry="5" width="19.4375" height="22" class="sprotty-node" style="fill:rgb(245, 245, 245);stroke:rgb(112, 112, 112);"/><text class="clickable sprotty-label statementtype" id="sprotty_ArchitectureBlockImpl$rvarbiter2/AssignmentBlockImpl$ready2/labeltype" transform="translate(5, 5) translate(4.71875, 9)" style="cursor:default;font-size:8px;font-weight:700;perspective-origin:0px 0px;fill:rgb(112, 112, 112);text-anchor:middle;">&lt;=</text><g id="sprotty_ArchitectureBlockImpl$rvarbiter2/AssignmentBlockImpl$ready2/GPortImpl$readyIN" class="sprotty-hidden hidden" transform="translate(0, 11)" style="display:block;height:0px;width:0px;"/><g id="sprotty_ArchitectureBlockImpl$rvarbiter2/AssignmentBlockImpl$ready2/GPortImpl$ready2OUT" class="sprotty-hidden hidden" transform="translate(19.4375, 11)" style="display:block;height:0px;width:0px;"/></g><g id="sprotty_ArchitectureBlockImpl$rvarbiter2/AssignmentBlockImpl$ready1" class="statement" transform="translate(72.46875, 48)"><rect x="0" y="0" rx="10" ry="5" width="19.4375" height="22" class="sprotty-node" style="fill:rgb(245, 245, 245);stroke:rgb(112, 112, 112);"/><text class="clickable sprotty-label statementtype" id="sprotty_ArchitectureBlockImpl$rvarbiter2/AssignmentBlockImpl$ready1/labeltype" transform="translate(5, 5) translate(4.71875, 9)" style="cursor:default;font-size:8px;font-weight:700;perspective-origin:0px 0px;fill:rgb(112, 112, 112);text-anchor:middle;">&lt;=</text><g id="sprotty_ArchitectureBlockImpl$rvarbiter2/AssignmentBlockImpl$ready1/GPortImpl$readyIN" class="sprotty-hidden hidden" transform="translate(0, 11)" style="display:block;height:0px;width:0px;"/><g id="sprotty_ArchitectureBlockImpl$rvarbiter2/AssignmentBlockImpl$ready1/GPortImpl$ready1OUT" class="sprotty-hidden hidden" transform="translate(19.4375, 11)" style="display:block;height:0px;width:0px;"/></g><g id="sprotty_ArchitectureBlockImpl$rvarbiter2/AssignmentBlockImpl$ready0" class="statement" transform="translate(72.46875, 93)"><rect x="0" y="0" rx="10" ry="5" width="19.4375" height="22" class="sprotty-node" style="fill:rgb(245, 245, 245);stroke:rgb(112, 112, 112);"/><text class="clickable sprotty-label statementtype" id="sprotty_ArchitectureBlockImpl$rvarbiter2/AssignmentBlockImpl$ready0/labeltype" transform="translate(5, 5) translate(4.71875, 9)" style="cursor:default;font-size:8px;font-weight:700;perspective-origin:0px 0px;fill:rgb(112, 112, 112);text-anchor:middle;">&lt;=</text><g id="sprotty_ArchitectureBlockImpl$rvarbiter2/AssignmentBlockImpl$ready0/GPortImpl$readyIN" class="sprotty-hidden hidden" transform="translate(0, 11)" style="display:block;height:0px;width:0px;"/><g id="sprotty_ArchitectureBlockImpl$rvarbiter2/AssignmentBlockImpl$ready0/GPortImpl$ready0OUT" class="sprotty-hidden hidden" transform="translate(19.4375, 11)" style="display:block;height:0px;width:0px;"/></g><g id="sprotty_ArchitectureBlockImpl$rvarbiter2/InstantiationBlockImpl$favor_ff" class="instantiation" transform="translate(171.34375, 158)"><g class="sprotty-block" style="fill:rgb(255, 255, 255);stroke:rgb(48, 48, 48);stroke-dasharray:0px;"><rect x="0" y="0" rx="1" ry="1" width="128.09375" height="140"/><text x="64.046875" y="12" class="sprotty-block-name" style="cursor:pointer;font-weight:700;perspective-origin:64.0469px 0px;fill:rgb(48, 48, 48);stroke:rgba(0, 0, 0, 0);dominant-baseline:middle;text-anchor:middle;">favor_ff : rvdffs</text><line x1="0" y1="20" x2="128.09375" y2="20"/></g><g id="sprotty_ArchitectureBlockImpl$rvarbiter2/InstantiationBlockImpl$favor_ff/BPortImpl$rst_l" class="triangle" transform="translate(0, 122)"><path d="M 0,0 L 5,2.5 L 0,5 Z" transform="translate(-1.67, -2.5)" class="sprotty-port" style="fill:rgb(48, 48, 48);stroke:rgb(48, 48, 48);"/><text class="clickable sprotty-label port" id="sprotty_ArchitectureBlockImpl$rvarbiter2/InstantiationBlockImpl$favor_ff/BPortImpl$rst_l/label" transform="translate(6, -9) translate(12.3125, 14)" style="cursor:default;font-size:12px;perspective-origin:0px 0px;fill:rgb(48, 48, 48);text-anchor:middle;">rst_l</text></g><g id="sprotty_ArchitectureBlockImpl$rvarbiter2/InstantiationBlockImpl$favor_ff/BPortImpl$clk" class="triangle" transform="translate(0, 94)"><path d="M 0,0 L 5,2.5 L 0,5 Z" transform="translate(-1.67, -2.5)" class="sprotty-port" style="fill:rgb(48, 48, 48);stroke:rgb(48, 48, 48);"/><text class="clickable sprotty-label port" id="sprotty_ArchitectureBlockImpl$rvarbiter2/InstantiationBlockImpl$favor_ff/BPortImpl$clk/label" transform="translate(6, -9) translate(8.078125, 14)" style="cursor:default;font-size:12px;perspective-origin:0px 0px;fill:rgb(48, 48, 48);text-anchor:middle;">clk</text></g><g id="sprotty_ArchitectureBlockImpl$rvarbiter2/InstantiationBlockImpl$favor_ff/BPortImpl$en" class="triangle" transform="translate(0, 66)"><path d="M 0,0 L 5,2.5 L 0,5 Z" transform="translate(-1.67, -2.5)" class="sprotty-port" style="fill:rgb(48, 48, 48);stroke:rgb(48, 48, 48);"/><text class="clickable sprotty-label port" id="sprotty_ArchitectureBlockImpl$rvarbiter2/InstantiationBlockImpl$favor_ff/BPortImpl$en/label" transform="translate(6, -9) translate(7, 14)" style="cursor:default;font-size:12px;perspective-origin:0px 0px;fill:rgb(48, 48, 48);text-anchor:middle;">en</text></g><g id="sprotty_ArchitectureBlockImpl$rvarbiter2/InstantiationBlockImpl$favor_ff/BPortImpl$din" class="triangle" transform="translate(0, 38)"><path d="M 0,0 L 5,2.5 L 0,5 Z" transform="translate(-1.67, -2.5)" class="sprotty-port" style="fill:rgb(48, 48, 48);stroke:rgb(48, 48, 48);"/><text class="clickable sprotty-label port" id="sprotty_ArchitectureBlockImpl$rvarbiter2/InstantiationBlockImpl$favor_ff/BPortImpl$din/label" transform="translate(6, -9) translate(9.046875, 14)" style="cursor:default;font-size:12px;perspective-origin:0px 0px;fill:rgb(48, 48, 48);text-anchor:middle;">din</text></g><g id="sprotty_ArchitectureBlockImpl$rvarbiter2/InstantiationBlockImpl$favor_ff/BPortImpl$dout" class="triangle" transform="translate(128.09375, 80)"><path d="M 0,0 L 5,2.5 L 0,5 Z" transform="translate(-1.67, -2.5)" class="sprotty-port" style="fill:rgb(48, 48, 48);stroke:rgb(48, 48, 48);"/><text class="clickable sprotty-label port" id="sprotty_ArchitectureBlockImpl$rvarbiter2/InstantiationBlockImpl$favor_ff/BPortImpl$dout/label" transform="translate(-32.53125, -9) translate(13.265625, 14)" style="cursor:default;font-size:12px;perspective-origin:0px 0px;fill:rgb(48, 48, 48);text-anchor:middle;">dout</text></g></g><g id="sprotty_ArchitectureBlockImpl$rvarbiter2/BPortImpl$scan_mode" class="triangle" transform="translate(0, 324)"><path d="M 0,0 L 5,2.5 L 0,5 Z" transform="translate(-1.67, -2.5)" class="sprotty-port" style="fill:rgb(48, 48, 48);stroke:rgb(48, 48, 48);"/><text class="clickable sprotty-label port" id="sprotty_ArchitectureBlockImpl$rvarbiter2/BPortImpl$scan_mode/label" transform="translate(6, 6) translate(32.4375, 14)" style="cursor:default;font-size:12px;perspective-origin:0px 0px;fill:rgb(48, 48, 48);text-anchor:middle;">scan_mode</text></g><g id="sprotty_ArchitectureBlockImpl$rvarbiter2/BPortImpl$rst_l" class="triangle" transform="translate(0, 280)"><path d="M 0,0 L 5,2.5 L 0,5 Z" transform="translate(-1.67, -2.5)" class="sprotty-port" style="fill:rgb(48, 48, 48);stroke:rgb(48, 48, 48);"/><text class="clickable sprotty-label port" id="sprotty_ArchitectureBlockImpl$rvarbiter2/BPortImpl$rst_l/label" transform="translate(6, 6) translate(12.3125, 14)" style="cursor:default;font-size:12px;perspective-origin:0px 0px;fill:rgb(48, 48, 48);text-anchor:middle;">rst_l</text></g><g id="sprotty_ArchitectureBlockImpl$rvarbiter2/BPortImpl$clk" class="triangle" transform="translate(0, 246)"><path d="M 0,0 L 5,2.5 L 0,5 Z" transform="translate(-1.67, -2.5)" class="sprotty-port" style="fill:rgb(48, 48, 48);stroke:rgb(48, 48, 48);"/><text class="clickable sprotty-label port" id="sprotty_ArchitectureBlockImpl$rvarbiter2/BPortImpl$clk/label" transform="translate(6, 6) translate(8.078125, 14)" style="cursor:default;font-size:12px;perspective-origin:0px 0px;fill:rgb(48, 48, 48);text-anchor:middle;">clk</text></g><g id="sprotty_ArchitectureBlockImpl$rvarbiter2/BPortImpl$shift" class="triangle" transform="translate(0, 168)"><path d="M 0,0 L 5,2.5 L 0,5 Z" transform="translate(-1.67, -2.5)" class="sprotty-port" style="fill:rgb(48, 48, 48);stroke:rgb(48, 48, 48);"/><text class="clickable sprotty-label port" id="sprotty_ArchitectureBlockImpl$rvarbiter2/BPortImpl$shift/label" transform="translate(6, 6) translate(12.3125, 14)" style="cursor:default;font-size:12px;perspective-origin:0px 0px;fill:rgb(48, 48, 48);text-anchor:middle;">shift</text></g><g id="sprotty_ArchitectureBlockImpl$rvarbiter2/BPortImpl$ready" class="triangle" transform="translate(0, 36)"><path d="M 0,0 L 5,2.5 L 0,5 Z" transform="translate(-1.67, -2.5)" class="sprotty-port" style="fill:rgb(48, 48, 48);stroke:rgb(48, 48, 48);"/><text class="clickable sprotty-label port" id="sprotty_ArchitectureBlockImpl$rvarbiter2/BPortImpl$ready/label" transform="translate(6, 6) translate(15.734375, 14)" style="cursor:default;font-size:12px;perspective-origin:0px 0px;fill:rgb(48, 48, 48);text-anchor:middle;">ready</text></g><g id="sprotty_ArchitectureBlockImpl$rvarbiter2/BPortImpl$tid" class="triangle" transform="translate(385.15625, 146)"><path d="M 0,0 L 5,2.5 L 0,5 Z" transform="translate(-1.67, -2.5)" class="sprotty-port" style="fill:rgb(48, 48, 48);stroke:rgb(48, 48, 48);"/><text class="clickable sprotty-label port" id="sprotty_ArchitectureBlockImpl$rvarbiter2/BPortImpl$tid/label" transform="translate(-21.28125, 6) translate(7.640625, 14)" style="cursor:default;font-size:12px;perspective-origin:0px 0px;fill:rgb(48, 48, 48);text-anchor:middle;">tid</text></g></g></g></svg>