<svg xmlns="http://www.w3.org/2000/svg" id="sprotty_work.rvdffsc_fpga" class="sprotty-graph sprotty-block-diagram blockdiagram" style="font-family:&quot;Noto Sans&quot;, Helvetica, Arial, sans-serif;perspective-origin:0px 0px;transform-origin:0px 0px;" version="1.1" viewBox="7 7 238.859375 322" width="238.859375" height="322"><g transform="scale(1) translate(0,0)"><g id="sprotty_ArchitectureBlockImpl$rvdffsc_fpga" class="architecture" transform="translate(12, 12)"><g class="sprotty-block" style="fill:rgb(255, 255, 255);stroke:rgb(48, 48, 48);stroke-dasharray:0px;"><rect x="0" y="0" rx="1" ry="1" width="228.859375" height="312"/><text x="114.4296875" y="12" class="sprotty-block-name" style="cursor:pointer;font-weight:700;perspective-origin:114.422px 0px;fill:rgb(48, 48, 48);stroke:rgba(0, 0, 0, 0);dominant-baseline:middle;text-anchor:middle;">rvdffsc_fpga</text><line x1="0" y1="20" x2="228.859375" y2="20"/></g><g id="sprotty_ArchitectureBlockImpl$rvdffsc_fpga/InstantiationBlockImpl$dffsc/BPortImpl$dout_to_ArchitectureBlockImpl$rvdffsc_fpga/BPortImpl$dout" class="sprotty-edge thick edge" style="fill:none;stroke:rgb(112, 112, 112);stroke-linejoin:round;stroke-width:3px;"><g><path d="M 181.328125 129 L 228.859375 129 "/><path d="M 181.328125 129 L 228.859375 129 " class="clickable"/></g></g><g id="sprotty_ArchitectureBlockImpl$rvdffsc_fpga/BPortImpl$din_to_ArchitectureBlockImpl$rvdffsc_fpga/InstantiationBlockImpl$dffsc/BPortImpl$din" class="sprotty-edge thick edge" style="fill:none;stroke:rgb(112, 112, 112);stroke-linejoin:round;stroke-width:3px;"><g><path d="M 0 49 L 56.453125 49 C 57.453125 49 58.453125 50 58.453125 51 L 58.453125 71 C 58.453125 72 59.453125 73 60.453125 73 L 68.453125 73 "/><path d="M 0 49 L 56.453125 49 C 57.453125 49 58.453125 50 58.453125 51 L 58.453125 71 C 58.453125 72 59.453125 73 60.453125 73 L 68.453125 73 " class="clickable"/></g></g><g id="sprotty_ArchitectureBlockImpl$rvdffsc_fpga/BPortImpl$en_to_ArchitectureBlockImpl$rvdffsc_fpga/InstantiationBlockImpl$dffsc/BPortImpl$en" class="sprotty-edge edge" style="fill:none;stroke:rgb(112, 112, 112);stroke-linejoin:round;"><g><path d="M 0 83 L 56.453125 83 C 57.453125 83 58.453125 84 58.453125 85 L 58.453125 99 C 58.453125 100 59.453125 101 60.453125 101 L 68.453125 101 "/><path d="M 0 83 L 56.453125 83 C 57.453125 83 58.453125 84 58.453125 85 L 58.453125 99 C 58.453125 100 59.453125 101 60.453125 101 L 68.453125 101 " class="clickable"/></g></g><g id="sprotty_ArchitectureBlockImpl$rvdffsc_fpga/BPortImpl$clear_to_ArchitectureBlockImpl$rvdffsc_fpga/InstantiationBlockImpl$dffsc/BPortImpl$clear" class="sprotty-edge edge" style="fill:none;stroke:rgb(112, 112, 112);stroke-linejoin:round;"><g><path d="M 0 117 L 56.453125 117 C 57.453125 117 58.453125 118 58.453125 119 L 58.453125 127 C 58.453125 128 59.453125 129 60.453125 129 L 68.453125 129 "/><path d="M 0 117 L 56.453125 117 C 57.453125 117 58.453125 118 58.453125 119 L 58.453125 127 C 58.453125 128 59.453125 129 60.453125 129 L 68.453125 129 " class="clickable"/></g></g><g id="sprotty_ArchitectureBlockImpl$rvdffsc_fpga/BPortImpl$clk_to_ArchitectureBlockImpl$rvdffsc_fpga/InstantiationBlockImpl$dffsc/BPortImpl$clk" class="sprotty-edge edge" style="fill:none;stroke:rgb(112, 112, 112);stroke-linejoin:round;"><g><path d="M 0 151 L 56.453125 151 C 57.453125 151 58.453125 152 58.453125 153 L 58.453125 155 C 58.453125 156 59.453125 157 60.453125 157 L 68.453125 157 "/><path d="M 0 151 L 56.453125 151 C 57.453125 151 58.453125 152 58.453125 153 L 58.453125 155 C 58.453125 156 59.453125 157 60.453125 157 L 68.453125 157 " class="clickable"/></g></g><g id="sprotty_ArchitectureBlockImpl$rvdffsc_fpga/BPortImpl$rst_l_to_ArchitectureBlockImpl$rvdffsc_fpga/InstantiationBlockImpl$dffsc/BPortImpl$rst_l" class="sprotty-edge edge" style="fill:none;stroke:rgb(112, 112, 112);stroke-linejoin:round;"><g><path d="M 0 185 L 68.453125 185 "/><path d="M 0 185 L 68.453125 185 " class="clickable"/></g></g><g id="sprotty_ArchitectureBlockImpl$rvdffsc_fpga/InstantiationBlockImpl$dffsc" class="instantiation" transform="translate(68.453125, 35)"><g class="sprotty-block" style="fill:rgb(255, 255, 255);stroke:rgb(48, 48, 48);stroke-dasharray:0px;"><rect x="0" y="0" rx="1" ry="1" width="112.875" height="168"/><text x="56.4375" y="12" class="sprotty-block-name" style="cursor:pointer;font-weight:700;perspective-origin:56.4375px 0px;fill:rgb(48, 48, 48);stroke:rgba(0, 0, 0, 0);dominant-baseline:middle;text-anchor:middle;">dffsc : rvdffsc</text><line x1="0" y1="20" x2="112.875" y2="20"/></g><g id="sprotty_ArchitectureBlockImpl$rvdffsc_fpga/InstantiationBlockImpl$dffsc/BPortImpl$rst_l" class="triangle" transform="translate(0, 150)"><path d="M 0,0 L 5,2.5 L 0,5 Z" transform="translate(-1.67, -2.5)" class="sprotty-port" style="fill:rgb(48, 48, 48);stroke:rgb(48, 48, 48);"/><text class="clickable sprotty-label port" id="sprotty_ArchitectureBlockImpl$rvdffsc_fpga/InstantiationBlockImpl$dffsc/BPortImpl$rst_l/label" transform="translate(6, -9) translate(12.3125, 14)" style="cursor:default;font-size:12px;perspective-origin:0px 0px;fill:rgb(48, 48, 48);text-anchor:middle;">rst_l</text></g><g id="sprotty_ArchitectureBlockImpl$rvdffsc_fpga/InstantiationBlockImpl$dffsc/BPortImpl$clk" class="triangle" transform="translate(0, 122)"><path d="M 0,0 L 5,2.5 L 0,5 Z" transform="translate(-1.67, -2.5)" class="sprotty-port" style="fill:rgb(48, 48, 48);stroke:rgb(48, 48, 48);"/><text class="clickable sprotty-label port" id="sprotty_ArchitectureBlockImpl$rvdffsc_fpga/InstantiationBlockImpl$dffsc/BPortImpl$clk/label" transform="translate(6, -9) translate(8.078125, 14)" style="cursor:default;font-size:12px;perspective-origin:0px 0px;fill:rgb(48, 48, 48);text-anchor:middle;">clk</text></g><g id="sprotty_ArchitectureBlockImpl$rvdffsc_fpga/InstantiationBlockImpl$dffsc/BPortImpl$clear" class="triangle" transform="translate(0, 94)"><path d="M 0,0 L 5,2.5 L 0,5 Z" transform="translate(-1.67, -2.5)" class="sprotty-port" style="fill:rgb(48, 48, 48);stroke:rgb(48, 48, 48);"/><text class="clickable sprotty-label port" id="sprotty_ArchitectureBlockImpl$rvdffsc_fpga/InstantiationBlockImpl$dffsc/BPortImpl$clear/label" transform="translate(6, -9) translate(13.71875, 14)" style="cursor:default;font-size:12px;perspective-origin:0px 0px;fill:rgb(48, 48, 48);text-anchor:middle;">clear</text></g><g id="sprotty_ArchitectureBlockImpl$rvdffsc_fpga/InstantiationBlockImpl$dffsc/BPortImpl$en" class="triangle" transform="translate(0, 66)"><path d="M 0,0 L 5,2.5 L 0,5 Z" transform="translate(-1.67, -2.5)" class="sprotty-port" style="fill:rgb(48, 48, 48);stroke:rgb(48, 48, 48);"/><text class="clickable sprotty-label port" id="sprotty_ArchitectureBlockImpl$rvdffsc_fpga/InstantiationBlockImpl$dffsc/BPortImpl$en/label" transform="translate(6, -9) translate(7, 14)" style="cursor:default;font-size:12px;perspective-origin:0px 0px;fill:rgb(48, 48, 48);text-anchor:middle;">en</text></g><g id="sprotty_ArchitectureBlockImpl$rvdffsc_fpga/InstantiationBlockImpl$dffsc/BPortImpl$din" class="triangle" transform="translate(0, 38)"><path d="M 0,0 L 5,2.5 L 0,5 Z" transform="translate(-1.67, -2.5)" class="sprotty-port" style="fill:rgb(48, 48, 48);stroke:rgb(48, 48, 48);"/><text class="clickable sprotty-label port" id="sprotty_ArchitectureBlockImpl$rvdffsc_fpga/InstantiationBlockImpl$dffsc/BPortImpl$din/label" transform="translate(6, -9) translate(9.046875, 14)" style="cursor:default;font-size:12px;perspective-origin:0px 0px;fill:rgb(48, 48, 48);text-anchor:middle;">din</text></g><g id="sprotty_ArchitectureBlockImpl$rvdffsc_fpga/InstantiationBlockImpl$dffsc/BPortImpl$dout" class="triangle" transform="translate(112.875, 94)"><path d="M 0,0 L 5,2.5 L 0,5 Z" transform="translate(-1.67, -2.5)" class="sprotty-port" style="fill:rgb(48, 48, 48);stroke:rgb(48, 48, 48);"/><text class="clickable sprotty-label port" id="sprotty_ArchitectureBlockImpl$rvdffsc_fpga/InstantiationBlockImpl$dffsc/BPortImpl$dout/label" transform="translate(-32.53125, -9) translate(13.265625, 14)" style="cursor:default;font-size:12px;perspective-origin:0px 0px;fill:rgb(48, 48, 48);text-anchor:middle;">dout</text></g></g><g id="sprotty_ArchitectureBlockImpl$rvdffsc_fpga/BPortImpl$rst_l" class="triangle" transform="translate(0, 185)"><path d="M 0,0 L 5,2.5 L 0,5 Z" transform="translate(-1.67, -2.5)" class="sprotty-port" style="fill:rgb(48, 48, 48);stroke:rgb(48, 48, 48);"/><text class="clickable sprotty-label port" id="sprotty_ArchitectureBlockImpl$rvdffsc_fpga/BPortImpl$rst_l/label" transform="translate(6, 6) translate(12.3125, 14)" style="cursor:default;font-size:12px;perspective-origin:0px 0px;fill:rgb(48, 48, 48);text-anchor:middle;">rst_l</text></g><g id="sprotty_ArchitectureBlockImpl$rvdffsc_fpga/BPortImpl$rawclk" class="triangle" transform="translate(0, 229)"><path d="M 0,0 L 5,2.5 L 0,5 Z" transform="translate(-1.67, -2.5)" class="sprotty-port" style="fill:rgb(48, 48, 48);stroke:rgb(48, 48, 48);"/><text class="clickable sprotty-label port" id="sprotty_ArchitectureBlockImpl$rvdffsc_fpga/BPortImpl$rawclk/label" transform="translate(6, 6) translate(18.421875, 14)" style="cursor:default;font-size:12px;perspective-origin:0px 0px;fill:rgb(48, 48, 48);text-anchor:middle;">rawclk</text></g><g id="sprotty_ArchitectureBlockImpl$rvdffsc_fpga/BPortImpl$clken" class="triangle" transform="translate(0, 273)"><path d="M 0,0 L 5,2.5 L 0,5 Z" transform="translate(-1.67, -2.5)" class="sprotty-port" style="fill:rgb(48, 48, 48);stroke:rgb(48, 48, 48);"/><text class="clickable sprotty-label port" id="sprotty_ArchitectureBlockImpl$rvdffsc_fpga/BPortImpl$clken/label" transform="translate(6, 6) translate(14.953125, 14)" style="cursor:default;font-size:12px;perspective-origin:0px 0px;fill:rgb(48, 48, 48);text-anchor:middle;">clken</text></g><g id="sprotty_ArchitectureBlockImpl$rvdffsc_fpga/BPortImpl$clk" class="triangle" transform="translate(0, 151)"><path d="M 0,0 L 5,2.5 L 0,5 Z" transform="translate(-1.67, -2.5)" class="sprotty-port" style="fill:rgb(48, 48, 48);stroke:rgb(48, 48, 48);"/><text class="clickable sprotty-label port" id="sprotty_ArchitectureBlockImpl$rvdffsc_fpga/BPortImpl$clk/label" transform="translate(6, 6) translate(8.078125, 14)" style="cursor:default;font-size:12px;perspective-origin:0px 0px;fill:rgb(48, 48, 48);text-anchor:middle;">clk</text></g><g id="sprotty_ArchitectureBlockImpl$rvdffsc_fpga/BPortImpl$clear" class="triangle" transform="translate(0, 117)"><path d="M 0,0 L 5,2.5 L 0,5 Z" transform="translate(-1.67, -2.5)" class="sprotty-port" style="fill:rgb(48, 48, 48);stroke:rgb(48, 48, 48);"/><text class="clickable sprotty-label port" id="sprotty_ArchitectureBlockImpl$rvdffsc_fpga/BPortImpl$clear/label" transform="translate(6, 6) translate(13.71875, 14)" style="cursor:default;font-size:12px;perspective-origin:0px 0px;fill:rgb(48, 48, 48);text-anchor:middle;">clear</text></g><g id="sprotty_ArchitectureBlockImpl$rvdffsc_fpga/BPortImpl$en" class="triangle" transform="translate(0, 83)"><path d="M 0,0 L 5,2.5 L 0,5 Z" transform="translate(-1.67, -2.5)" class="sprotty-port" style="fill:rgb(48, 48, 48);stroke:rgb(48, 48, 48);"/><text class="clickable sprotty-label port" id="sprotty_ArchitectureBlockImpl$rvdffsc_fpga/BPortImpl$en/label" transform="translate(6, 6) translate(7, 14)" style="cursor:default;font-size:12px;perspective-origin:0px 0px;fill:rgb(48, 48, 48);text-anchor:middle;">en</text></g><g id="sprotty_ArchitectureBlockImpl$rvdffsc_fpga/BPortImpl$din" class="triangle" transform="translate(0, 49)"><path d="M 0,0 L 5,2.5 L 0,5 Z" transform="translate(-1.67, -2.5)" class="sprotty-port" style="fill:rgb(48, 48, 48);stroke:rgb(48, 48, 48);"/><text class="clickable sprotty-label port" id="sprotty_ArchitectureBlockImpl$rvdffsc_fpga/BPortImpl$din/label" transform="translate(6, 6) translate(9.046875, 14)" style="cursor:default;font-size:12px;perspective-origin:0px 0px;fill:rgb(48, 48, 48);text-anchor:middle;">din</text></g><g id="sprotty_ArchitectureBlockImpl$rvdffsc_fpga/BPortImpl$dout" class="triangle" transform="translate(228.859375, 129)"><path d="M 0,0 L 5,2.5 L 0,5 Z" transform="translate(-1.67, -2.5)" class="sprotty-port" style="fill:rgb(48, 48, 48);stroke:rgb(48, 48, 48);"/><text class="clickable sprotty-label port" id="sprotty_ArchitectureBlockImpl$rvdffsc_fpga/BPortImpl$dout/label" transform="translate(-32.53125, 6) translate(13.265625, 14)" style="cursor:default;font-size:12px;perspective-origin:0px 0px;fill:rgb(48, 48, 48);text-anchor:middle;">dout</text></g></g></g></svg>