<svg xmlns="http://www.w3.org/2000/svg" id="sprotty_work.rvdffsc" class="sprotty-graph sprotty-block-diagram blockdiagram" style="font-family:&quot;Noto Sans&quot;, Helvetica, Arial, sans-serif;perspective-origin:0px 0px;transform-origin:0px 0px;" version="1.1" viewBox="7 7 302.59375 220" width="302.59375" height="220"><g transform="scale(1) translate(0,0)"><g id="sprotty_ArchitectureBlockImpl$rvdffsc" class="architecture" transform="translate(12, 12)"><g class="sprotty-block" style="fill:rgb(255, 255, 255);stroke:rgb(48, 48, 48);stroke-dasharray:0px;"><rect x="0" y="0" rx="1" ry="1" width="292.59375" height="210"/><text x="146.296875" y="12" class="sprotty-block-name" style="cursor:pointer;font-weight:700;perspective-origin:146.297px 0px;fill:rgb(48, 48, 48);stroke:rgba(0, 0, 0, 0);dominant-baseline:middle;text-anchor:middle;">rvdffsc</text><line x1="0" y1="20" x2="292.59375" y2="20"/></g><g id="sprotty_ArchitectureBlockImpl$rvdffsc/InstantiationBlockImpl$dffsc/BPortImpl$dout_to_ArchitectureBlockImpl$rvdffsc/BPortImpl$dout" class="sprotty-edge thick edge" style="fill:none;stroke:rgb(112, 112, 112);stroke-linejoin:round;stroke-width:3px;"><g><path d="M 225.0625 143 L 292.59375 143 "/><path d="M 225.0625 143 L 292.59375 143 " class="clickable"/></g></g><g id="sprotty_ArchitectureBlockImpl$rvdffsc/BPortImpl$clk_to_ArchitectureBlockImpl$rvdffsc/InstantiationBlockImpl$dffsc/BPortImpl$clk" class="sprotty-edge edge" style="fill:none;stroke:rgb(112, 112, 112);stroke-linejoin:round;"><g><path d="M 0 137 L 115.890625 137 C 116.890625 137 117.890625 138 117.890625 139 L 117.890625 141 C 117.890625 142 118.890625 143 119.890625 143 L 127.890625 143 "/><path d="M 0 137 L 115.890625 137 C 116.890625 137 117.890625 138 117.890625 139 L 117.890625 141 C 117.890625 142 118.890625 143 119.890625 143 L 127.890625 143 " class="clickable"/></g></g><g id="sprotty_ArchitectureBlockImpl$rvdffsc/BPortImpl$rst_l_to_ArchitectureBlockImpl$rvdffsc/InstantiationBlockImpl$dffsc/BPortImpl$rst_l" class="sprotty-edge edge" style="fill:none;stroke:rgb(112, 112, 112);stroke-linejoin:round;"><g><path d="M 0 171 L 127.890625 171 "/><path d="M 0 171 L 127.890625 171 " class="clickable"/></g></g><g id="sprotty_ArchitectureBlockImpl$rvdffsc/BPortImpl$clear_to_ArchitectureBlockImpl$rvdffsc/AssignmentBlockImpl$din_new/GPortImpl$clearIN" class="sprotty-edge edge" style="fill:none;stroke:rgb(112, 112, 112);stroke-linejoin:round;"><g><path d="M 0 35 L 66.453125 35 C 67.453125 35 68.453125 36 68.453125 37 L 68.453125 81 C 68.453125 82 69.453125 83 70.453125 83 L 88.453125 83 "/><path d="M 0 35 L 66.453125 35 C 67.453125 35 68.453125 36 68.453125 37 L 68.453125 81 C 68.453125 82 69.453125 83 70.453125 83 L 88.453125 83 " class="clickable"/></g></g><g id="sprotty_ArchitectureBlockImpl$rvdffsc/BPortImpl$en_to_ArchitectureBlockImpl$rvdffsc/AssignmentBlockImpl$din_new/GPortImpl$enIN" class="sprotty-edge edge" style="fill:none;stroke:rgb(112, 112, 112);stroke-linejoin:round;"><g><path d="M 0 103 L 88.453125 103 "/><path d="M 0 103 L 88.453125 103 " class="clickable"/></g></g><g id="sprotty_ArchitectureBlockImpl$rvdffsc/BPortImpl$din_to_ArchitectureBlockImpl$rvdffsc/AssignmentBlockImpl$din_new/GPortImpl$dinIN" class="sprotty-edge thick edge" style="fill:none;stroke:rgb(112, 112, 112);stroke-linejoin:round;stroke-width:3px;"><g><path d="M 0 69 L 56.453125 69 C 57.453125 69 58.453125 70 58.453125 71 L 58.453125 91 C 58.453125 92 59.453125 93 60.453125 93 L 88.453125 93 "/><path d="M 0 69 L 56.453125 69 C 57.453125 69 58.453125 70 58.453125 71 L 58.453125 91 C 58.453125 92 59.453125 93 60.453125 93 L 88.453125 93 " class="clickable"/></g></g><g id="sprotty_ArchitectureBlockImpl$rvdffsc/BPortImpl$dout_to_ArchitectureBlockImpl$rvdffsc/AssignmentBlockImpl$din_new/GPortImpl$doutIN" class="sprotty-edge thick edge" style="fill:none;stroke:rgb(112, 112, 112);stroke-linejoin:round;stroke-width:3px;"><g><path d="M 292.59375 143 L 237.0625 143 C 236.0625 143 235.0625 142 235.0625 141 L 235.0625 55 C 235.0625 54 234.0625 53 233.0625 53 L 80.453125 53 C 79.453125 53 78.453125 54 78.453125 55 L 78.453125 71 C 78.453125 72 79.453125 73 80.453125 73 L 88.453125 73 "/><path d="M 292.59375 143 L 237.0625 143 C 236.0625 143 235.0625 142 235.0625 141 L 235.0625 55 C 235.0625 54 234.0625 53 233.0625 53 L 80.453125 53 C 79.453125 53 78.453125 54 78.453125 55 L 78.453125 71 C 78.453125 72 79.453125 73 80.453125 73 L 88.453125 73 " class="clickable"/></g><circle r="3" id="sprotty_ArchitectureBlockImpl$rvdffsc/BPortImpl$dout_to_ArchitectureBlockImpl$rvdffsc/AssignmentBlockImpl$din_new/GPortImpl$doutIN/junction0" transform="translate(235.0625, 143)" class="sprotty-junction thick" style="fill:rgb(112, 112, 112);stroke:none;"/></g><g id="sprotty_ArchitectureBlockImpl$rvdffsc/AssignmentBlockImpl$din_new/GPortImpl$doutOUT_to_ArchitectureBlockImpl$rvdffsc/InstantiationBlockImpl$dffsc/BPortImpl$din" class="sprotty-edge thick edge" style="fill:none;stroke:rgb(112, 112, 112);stroke-linejoin:round;stroke-width:3px;"><g><path d="M 107.890625 88 L 115.890625 88 C 116.890625 88 117.890625 89 117.890625 90 L 117.890625 113 C 117.890625 114 118.890625 115 119.890625 115 L 127.890625 115 "/><path d="M 107.890625 88 L 115.890625 88 C 116.890625 88 117.890625 89 117.890625 90 L 117.890625 113 C 117.890625 114 118.890625 115 119.890625 115 L 127.890625 115 " class="clickable"/></g></g><g id="sprotty_ArchitectureBlockImpl$rvdffsc/AssignmentBlockImpl$din_new" class="statement" transform="translate(88.453125, 63)"><rect x="0" y="0" rx="10" ry="5" width="19.4375" height="50" class="sprotty-node" style="fill:rgb(245, 245, 245);stroke:rgb(112, 112, 112);"/><text class="clickable sprotty-label statementtype" id="sprotty_ArchitectureBlockImpl$rvdffsc/AssignmentBlockImpl$din_new/labeltype" transform="translate(5, 19) translate(4.71875, 9)" style="cursor:default;font-size:8px;font-weight:700;perspective-origin:0px 0px;fill:rgb(112, 112, 112);text-anchor:middle;">&lt;=</text><g id="sprotty_ArchitectureBlockImpl$rvdffsc/AssignmentBlockImpl$din_new/GPortImpl$doutIN" class="sprotty-hidden hidden" transform="translate(0, 10)" style="display:block;height:0px;width:0px;"/><g id="sprotty_ArchitectureBlockImpl$rvdffsc/AssignmentBlockImpl$din_new/GPortImpl$dinIN" class="sprotty-hidden hidden" transform="translate(0, 30)" style="display:block;height:0px;width:0px;"/><g id="sprotty_ArchitectureBlockImpl$rvdffsc/AssignmentBlockImpl$din_new/GPortImpl$enIN" class="sprotty-hidden hidden" transform="translate(0, 40)" style="display:block;height:0px;width:0px;"/><g id="sprotty_ArchitectureBlockImpl$rvdffsc/AssignmentBlockImpl$din_new/GPortImpl$clearIN" class="sprotty-hidden hidden" transform="translate(0, 20)" style="display:block;height:0px;width:0px;"/><g id="sprotty_ArchitectureBlockImpl$rvdffsc/AssignmentBlockImpl$din_new/GPortImpl$doutOUT" class="sprotty-hidden hidden" transform="translate(19.4375, 25)" style="display:block;height:0px;width:0px;"/></g><g id="sprotty_ArchitectureBlockImpl$rvdffsc/InstantiationBlockImpl$dffsc" class="instantiation" transform="translate(127.890625, 77)"><g class="sprotty-block" style="fill:rgb(255, 255, 255);stroke:rgb(48, 48, 48);stroke-dasharray:0px;"><rect x="0" y="0" rx="1" ry="1" width="97.171875" height="112"/><text x="48.5859375" y="12" class="sprotty-block-name" style="cursor:pointer;font-weight:700;perspective-origin:48.8594px 0px;fill:rgb(48, 48, 48);stroke:rgba(0, 0, 0, 0);dominant-baseline:middle;text-anchor:middle;">dffsc : rvdff</text><line x1="0" y1="20" x2="97.171875" y2="20"/></g><g id="sprotty_ArchitectureBlockImpl$rvdffsc/InstantiationBlockImpl$dffsc/BPortImpl$rst_l" class="triangle" transform="translate(0, 94)"><path d="M 0,0 L 5,2.5 L 0,5 Z" transform="translate(-1.67, -2.5)" class="sprotty-port" style="fill:rgb(48, 48, 48);stroke:rgb(48, 48, 48);"/><text class="clickable sprotty-label port" id="sprotty_ArchitectureBlockImpl$rvdffsc/InstantiationBlockImpl$dffsc/BPortImpl$rst_l/label" transform="translate(6, -9) translate(12.3125, 14)" style="cursor:default;font-size:12px;perspective-origin:0px 0px;fill:rgb(48, 48, 48);text-anchor:middle;">rst_l</text></g><g id="sprotty_ArchitectureBlockImpl$rvdffsc/InstantiationBlockImpl$dffsc/BPortImpl$clk" class="triangle" transform="translate(0, 66)"><path d="M 0,0 L 5,2.5 L 0,5 Z" transform="translate(-1.67, -2.5)" class="sprotty-port" style="fill:rgb(48, 48, 48);stroke:rgb(48, 48, 48);"/><text class="clickable sprotty-label port" id="sprotty_ArchitectureBlockImpl$rvdffsc/InstantiationBlockImpl$dffsc/BPortImpl$clk/label" transform="translate(6, -9) translate(8.078125, 14)" style="cursor:default;font-size:12px;perspective-origin:0px 0px;fill:rgb(48, 48, 48);text-anchor:middle;">clk</text></g><g id="sprotty_ArchitectureBlockImpl$rvdffsc/InstantiationBlockImpl$dffsc/BPortImpl$din" class="triangle" transform="translate(0, 38)"><path d="M 0,0 L 5,2.5 L 0,5 Z" transform="translate(-1.67, -2.5)" class="sprotty-port" style="fill:rgb(48, 48, 48);stroke:rgb(48, 48, 48);"/><text class="clickable sprotty-label port" id="sprotty_ArchitectureBlockImpl$rvdffsc/InstantiationBlockImpl$dffsc/BPortImpl$din/label" transform="translate(6, -9) translate(9.046875, 14)" style="cursor:default;font-size:12px;perspective-origin:0px 0px;fill:rgb(48, 48, 48);text-anchor:middle;">din</text></g><g id="sprotty_ArchitectureBlockImpl$rvdffsc/InstantiationBlockImpl$dffsc/BPortImpl$dout" class="triangle" transform="translate(97.171875, 66)"><path d="M 0,0 L 5,2.5 L 0,5 Z" transform="translate(-1.67, -2.5)" class="sprotty-port" style="fill:rgb(48, 48, 48);stroke:rgb(48, 48, 48);"/><text class="clickable sprotty-label port" id="sprotty_ArchitectureBlockImpl$rvdffsc/InstantiationBlockImpl$dffsc/BPortImpl$dout/label" transform="translate(-32.53125, -9) translate(13.265625, 14)" style="cursor:default;font-size:12px;perspective-origin:0px 0px;fill:rgb(48, 48, 48);text-anchor:middle;">dout</text></g></g><g id="sprotty_ArchitectureBlockImpl$rvdffsc/BPortImpl$rst_l" class="triangle" transform="translate(0, 171)"><path d="M 0,0 L 5,2.5 L 0,5 Z" transform="translate(-1.67, -2.5)" class="sprotty-port" style="fill:rgb(48, 48, 48);stroke:rgb(48, 48, 48);"/><text class="clickable sprotty-label port" id="sprotty_ArchitectureBlockImpl$rvdffsc/BPortImpl$rst_l/label" transform="translate(6, 6) translate(12.3125, 14)" style="cursor:default;font-size:12px;perspective-origin:0px 0px;fill:rgb(48, 48, 48);text-anchor:middle;">rst_l</text></g><g id="sprotty_ArchitectureBlockImpl$rvdffsc/BPortImpl$clk" class="triangle" transform="translate(0, 137)"><path d="M 0,0 L 5,2.5 L 0,5 Z" transform="translate(-1.67, -2.5)" class="sprotty-port" style="fill:rgb(48, 48, 48);stroke:rgb(48, 48, 48);"/><text class="clickable sprotty-label port" id="sprotty_ArchitectureBlockImpl$rvdffsc/BPortImpl$clk/label" transform="translate(6, 6) translate(8.078125, 14)" style="cursor:default;font-size:12px;perspective-origin:0px 0px;fill:rgb(48, 48, 48);text-anchor:middle;">clk</text></g><g id="sprotty_ArchitectureBlockImpl$rvdffsc/BPortImpl$clear" class="triangle" transform="translate(0, 35)"><path d="M 0,0 L 5,2.5 L 0,5 Z" transform="translate(-1.67, -2.5)" class="sprotty-port" style="fill:rgb(48, 48, 48);stroke:rgb(48, 48, 48);"/><text class="clickable sprotty-label port" id="sprotty_ArchitectureBlockImpl$rvdffsc/BPortImpl$clear/label" transform="translate(6, 6) translate(13.71875, 14)" style="cursor:default;font-size:12px;perspective-origin:0px 0px;fill:rgb(48, 48, 48);text-anchor:middle;">clear</text></g><g id="sprotty_ArchitectureBlockImpl$rvdffsc/BPortImpl$en" class="triangle" transform="translate(0, 103)"><path d="M 0,0 L 5,2.5 L 0,5 Z" transform="translate(-1.67, -2.5)" class="sprotty-port" style="fill:rgb(48, 48, 48);stroke:rgb(48, 48, 48);"/><text class="clickable sprotty-label port" id="sprotty_ArchitectureBlockImpl$rvdffsc/BPortImpl$en/label" transform="translate(6, 6) translate(7, 14)" style="cursor:default;font-size:12px;perspective-origin:0px 0px;fill:rgb(48, 48, 48);text-anchor:middle;">en</text></g><g id="sprotty_ArchitectureBlockImpl$rvdffsc/BPortImpl$din" class="triangle" transform="translate(0, 69)"><path d="M 0,0 L 5,2.5 L 0,5 Z" transform="translate(-1.67, -2.5)" class="sprotty-port" style="fill:rgb(48, 48, 48);stroke:rgb(48, 48, 48);"/><text class="clickable sprotty-label port" id="sprotty_ArchitectureBlockImpl$rvdffsc/BPortImpl$din/label" transform="translate(6, 6) translate(9.046875, 14)" style="cursor:default;font-size:12px;perspective-origin:0px 0px;fill:rgb(48, 48, 48);text-anchor:middle;">din</text></g><g id="sprotty_ArchitectureBlockImpl$rvdffsc/BPortImpl$dout" class="triangle" transform="translate(292.59375, 143)"><path d="M 0,0 L 5,2.5 L 0,5 Z" transform="translate(-1.67, -2.5)" class="sprotty-port" style="fill:rgb(48, 48, 48);stroke:rgb(48, 48, 48);"/><text class="clickable sprotty-label port" id="sprotty_ArchitectureBlockImpl$rvdffsc/BPortImpl$dout/label" transform="translate(-32.53125, 6) translate(13.265625, 14)" style="cursor:default;font-size:12px;perspective-origin:0px 0px;fill:rgb(48, 48, 48);text-anchor:middle;">dout</text></g></g></g></svg>