<svg xmlns="http://www.w3.org/2000/svg" id="sprotty_work.rvmaskandmatch" class="sprotty-graph sprotty-block-diagram blockdiagram" style="font-family:&quot;Noto Sans&quot;, Helvetica, Arial, sans-serif;perspective-origin:0px 0px;transform-origin:0px 0px;" version="1.1" viewBox="7 7 449.5 216" width="449.5" height="216"><g transform="scale(1) translate(0,0)"><g id="sprotty_ArchitectureBlockImpl$rvmaskandmatch" class="architecture" transform="translate(12, 12)"><g class="sprotty-block" style="fill:rgb(255, 255, 255);stroke:rgb(48, 48, 48);stroke-dasharray:0px;"><rect x="0" y="0" rx="1" ry="1" width="439.5" height="206"/><text x="219.75" y="12" class="sprotty-block-name" style="cursor:pointer;font-weight:700;perspective-origin:219.75px 0px;fill:rgb(48, 48, 48);stroke:rgba(0, 0, 0, 0);dominant-baseline:middle;text-anchor:middle;">rvmaskandmatch</text><line x1="0" y1="20" x2="439.5" y2="20"/></g><g id="sprotty_ArchitectureBlockImpl$rvmaskandmatch/AssignmentBlockImpl$match/GPortImpl$matchOUT_to_ArchitectureBlockImpl$rvmaskandmatch/BPortImpl$match" class="sprotty-edge edge" style="fill:none;stroke:rgb(112, 112, 112);stroke-linejoin:round;"><g><path d="M 383.0625 96 L 439.5 96 "/><path d="M 383.0625 96 L 439.5 96 " class="clickable"/></g></g><g id="sprotty_ArchitectureBlockImpl$rvmaskandmatch/BPortImpl$masken_to_ArchitectureBlockImpl$rvmaskandmatch/AssignmentBlockImpl$masken_or_fullmask/GPortImpl$maskenIN" class="sprotty-edge edge" style="fill:none;stroke:rgb(112, 112, 112);stroke-linejoin:round;"><g><path d="M 0 35 L 92.875 35 C 93.875 35 94.875 36 94.875 37 L 94.875 89 C 94.875 90 95.875 91 96.875 91 L 104.875 91 "/><path d="M 0 35 L 92.875 35 C 93.875 35 94.875 36 94.875 37 L 94.875 89 C 94.875 90 95.875 91 96.875 91 L 104.875 91 " class="clickable"/></g></g><g id="sprotty_ArchitectureBlockImpl$rvmaskandmatch/BPortImpl$mask_to_ArchitectureBlockImpl$rvmaskandmatch/AssignmentBlockImpl$masken_or_fullmask/GPortImpl$maskIN" class="sprotty-edge thick edge" style="fill:none;stroke:rgb(112, 112, 112);stroke-linejoin:round;stroke-width:3px;"><g><path d="M 0 69 L 82.875 69 C 83.875 69 84.875 70 84.875 71 L 84.875 99 C 84.875 100 85.875 101 86.875 101 L 104.875 101 "/><path d="M 0 69 L 82.875 69 C 83.875 69 84.875 70 84.875 71 L 84.875 99 C 84.875 100 85.875 101 86.875 101 L 104.875 101 " class="clickable"/></g><circle r="3" id="sprotty_ArchitectureBlockImpl$rvmaskandmatch/BPortImpl$mask_to_ArchitectureBlockImpl$rvmaskandmatch/AssignmentBlockImpl$masken_or_fullmask/GPortImpl$maskIN/junction0" transform="translate(84.875, 69)" class="sprotty-junction thick" style="fill:rgb(112, 112, 112);stroke:none;"/><circle r="3" id="sprotty_ArchitectureBlockImpl$rvmaskandmatch/BPortImpl$mask_to_ArchitectureBlockImpl$rvmaskandmatch/AssignmentBlockImpl$masken_or_fullmask/GPortImpl$maskIN/junction1" transform="translate(84.875, 101)" class="sprotty-junction thick" style="fill:rgb(112, 112, 112);stroke:none;"/></g><g id="sprotty_ArchitectureBlockImpl$rvmaskandmatch/BPortImpl$mask_to_ArchitectureBlockImpl$rvmaskandmatch/AssignmentBlockImpl$matchvec/GPortImpl$maskIN" class="sprotty-edge thick edge" style="fill:none;stroke:rgb(112, 112, 112);stroke-linejoin:round;stroke-width:3px;"><g><path d="M 0 69 L 82.875 69 C 83.875 69 84.875 70 84.875 71 L 84.875 169 C 84.875 170 85.875 171 86.875 171 L 196.78125 171 "/><path d="M 0 69 L 82.875 69 C 83.875 69 84.875 70 84.875 71 L 84.875 169 C 84.875 170 85.875 171 86.875 171 L 196.78125 171 " class="clickable"/></g></g><g id="sprotty_ArchitectureBlockImpl$rvmaskandmatch/BPortImpl$data_to_ArchitectureBlockImpl$rvmaskandmatch/AssignmentBlockImpl$matchvec/GPortImpl$dataIN" class="sprotty-edge thick edge" style="fill:none;stroke:rgb(112, 112, 112);stroke-linejoin:round;stroke-width:3px;"><g><path d="M 0 122 L 72.875 122 C 73.875 122 74.875 123 74.875 124 L 74.875 179 C 74.875 180 75.875 181 76.875 181 L 196.78125 181 "/><path d="M 0 122 L 72.875 122 C 73.875 122 74.875 123 74.875 124 L 74.875 179 C 74.875 180 75.875 181 76.875 181 L 196.78125 181 " class="clickable"/></g><circle r="3" id="sprotty_ArchitectureBlockImpl$rvmaskandmatch/BPortImpl$data_to_ArchitectureBlockImpl$rvmaskandmatch/AssignmentBlockImpl$matchvec/GPortImpl$dataIN/junction0" transform="translate(74.875, 122)" class="sprotty-junction thick" style="fill:rgb(112, 112, 112);stroke:none;"/></g><g id="sprotty_ArchitectureBlockImpl$rvmaskandmatch/BPortImpl$mask_to_ArchitectureBlockImpl$rvmaskandmatch/GenerateStatementBlockImpl$match_after_first_zero/GPortImpl$mask" class="sprotty-edge thick edge" style="fill:none;stroke:rgb(112, 112, 112);stroke-linejoin:round;stroke-width:3px;"><g><path d="M 0 69 L 132.3125 69 C 133.3125 69 134.3125 70 134.3125 71 L 134.3125 84 C 134.3125 85 135.3125 86 136.3125 86 L 154.3125 86 "/><path d="M 0 69 L 132.3125 69 C 133.3125 69 134.3125 70 134.3125 71 L 134.3125 84 C 134.3125 85 135.3125 86 136.3125 86 L 154.3125 86 " class="clickable"/></g></g><g id="sprotty_ArchitectureBlockImpl$rvmaskandmatch/BPortImpl$data_to_ArchitectureBlockImpl$rvmaskandmatch/GenerateStatementBlockImpl$match_after_first_zero/GPortImpl$data" class="sprotty-edge thick edge" style="fill:none;stroke:rgb(112, 112, 112);stroke-linejoin:round;stroke-width:3px;"><g><path d="M 0 122 L 132.3125 122 C 133.3125 122 134.3125 121 134.3125 120 L 134.3125 108 C 134.3125 107 135.3125 106 136.3125 106 L 154.3125 106 "/><path d="M 0 122 L 132.3125 122 C 133.3125 122 134.3125 121 134.3125 120 L 134.3125 108 C 134.3125 107 135.3125 106 136.3125 106 L 154.3125 106 " class="clickable"/></g></g><g id="sprotty_ArchitectureBlockImpl$rvmaskandmatch/AssignmentBlockImpl$matchvec/GPortImpl$matchvecOUT_to_ArchitectureBlockImpl$rvmaskandmatch/AssignmentBlockImpl$match/GPortImpl$matchvecIN" class="sprotty-edge thick edge" style="fill:none;stroke:rgb(112, 112, 112);stroke-linejoin:round;stroke-width:3px;"><g><path d="M 216.21875 171 L 351.625 171 C 352.625 171 353.625 170 353.625 169 L 353.625 98 C 353.625 97 354.625 96 355.625 96 L 363.625 96 "/><path d="M 216.21875 171 L 351.625 171 C 352.625 171 353.625 170 353.625 169 L 353.625 98 C 353.625 97 354.625 96 355.625 96 L 363.625 96 " class="clickable"/></g><circle r="3" id="sprotty_ArchitectureBlockImpl$rvmaskandmatch/AssignmentBlockImpl$matchvec/GPortImpl$matchvecOUT_to_ArchitectureBlockImpl$rvmaskandmatch/AssignmentBlockImpl$match/GPortImpl$matchvecIN/junction0" transform="translate(353.625, 96)" class="sprotty-junction thick" style="fill:rgb(112, 112, 112);stroke:none;"/></g><g id="sprotty_ArchitectureBlockImpl$rvmaskandmatch/GenerateStatementBlockImpl$match_after_first_zero/GPortImpl$matchvec_to_ArchitectureBlockImpl$rvmaskandmatch/AssignmentBlockImpl$match/GPortImpl$matchvecIN" class="sprotty-edge thick edge" style="fill:none;stroke:rgb(112, 112, 112);stroke-linejoin:round;stroke-width:3px;"><g><path d="M 343.625 96 L 363.625 96 "/><path d="M 343.625 96 L 363.625 96 " class="clickable"/></g></g><g id="sprotty_ArchitectureBlockImpl$rvmaskandmatch/AssignmentBlockImpl$masken_or_fullmask/GPortImpl$masken_or_fullmaskOUT_to_ArchitectureBlockImpl$rvmaskandmatch/AssignmentBlockImpl$matchvec/GPortImpl$masken_or_fullmaskIN" class="sprotty-edge edge" style="fill:none;stroke:rgb(112, 112, 112);stroke-linejoin:round;"><g><path d="M 124.3125 96 L 142.3125 96 C 143.3125 96 144.3125 97 144.3125 98 L 144.3125 159 C 144.3125 160 145.3125 161 146.3125 161 L 196.78125 161 "/><path d="M 124.3125 96 L 142.3125 96 C 143.3125 96 144.3125 97 144.3125 98 L 144.3125 159 C 144.3125 160 145.3125 161 146.3125 161 L 196.78125 161 " class="clickable"/></g><circle r="2" id="sprotty_ArchitectureBlockImpl$rvmaskandmatch/AssignmentBlockImpl$masken_or_fullmask/GPortImpl$masken_or_fullmaskOUT_to_ArchitectureBlockImpl$rvmaskandmatch/AssignmentBlockImpl$matchvec/GPortImpl$masken_or_fullmaskIN/junction0" transform="translate(144.3125, 96)" class="sprotty-junction junction" style="fill:rgb(112, 112, 112);stroke:none;"/></g><g id="sprotty_ArchitectureBlockImpl$rvmaskandmatch/AssignmentBlockImpl$masken_or_fullmask/GPortImpl$masken_or_fullmaskOUT_to_ArchitectureBlockImpl$rvmaskandmatch/GenerateStatementBlockImpl$match_after_first_zero/GPortImpl$masken_or_fullmask" class="sprotty-edge edge" style="fill:none;stroke:rgb(112, 112, 112);stroke-linejoin:round;"><g><path d="M 124.3125 96 L 154.3125 96 "/><path d="M 124.3125 96 L 154.3125 96 " class="clickable"/></g></g><g id="sprotty_ArchitectureBlockImpl$rvmaskandmatch/GenerateStatementBlockImpl$match_after_first_zero" class="generate" transform="translate(154.3125, 41)"><g class="sprotty-block sprotty-block-generate" style="fill:rgb(255, 255, 255);stroke:rgb(48, 48, 48);stroke-dasharray:0px;"><rect x="0" y="0" rx="1" ry="1" width="189.3125" height="90" style="stroke-dasharray:3px, 1px;"/><text x="94.65625" y="12" class="sprotty-block-name" style="cursor:pointer;font-weight:700;perspective-origin:94.6562px 0px;fill:rgb(48, 48, 48);stroke:rgba(0, 0, 0, 0);dominant-baseline:middle;text-anchor:middle;">match_after_first_zero</text><line x1="0" y1="20" x2="189.3125" y2="20" style="stroke-dasharray:3px, 1px;"/></g><g id="sprotty_ArchitectureBlockImpl$rvmaskandmatch/GenerateStatementBlockImpl$match_after_first_zero/GPortImpl$mask_to_ArchitectureBlockImpl$rvmaskandmatch/GenerateStatementBlockImpl$match_after_first_zero/AssignmentBlockImpl$matchvec/GPortImpl$maskIN" class="sprotty-edge thick edge" style="fill:none;stroke:rgb(112, 112, 112);stroke-linejoin:round;stroke-width:3px;"><g><path d="M 0 45 L 15 45 "/><path d="M 0 45 L 15 45 " class="clickable"/></g></g><g id="sprotty_ArchitectureBlockImpl$rvmaskandmatch/GenerateStatementBlockImpl$match_after_first_zero/GPortImpl$data_to_ArchitectureBlockImpl$rvmaskandmatch/GenerateStatementBlockImpl$match_after_first_zero/AssignmentBlockImpl$matchvec/GPortImpl$dataIN" class="sprotty-edge thick edge" style="fill:none;stroke:rgb(112, 112, 112);stroke-linejoin:round;stroke-width:3px;"><g><path d="M 0 65 L 15 65 "/><path d="M 0 65 L 15 65 " class="clickable"/></g></g><g id="sprotty_ArchitectureBlockImpl$rvmaskandmatch/GenerateStatementBlockImpl$match_after_first_zero/AssignmentBlockImpl$matchvec/GPortImpl$matchvecOUT_to_ArchitectureBlockImpl$rvmaskandmatch/GenerateStatementBlockImpl$match_after_first_zero/GPortImpl$matchvec" class="sprotty-edge thick edge" style="fill:none;stroke:rgb(112, 112, 112);stroke-linejoin:round;stroke-width:3px;"><g><path d="M 34.4375 55 L 189.3125 55 "/><path d="M 34.4375 55 L 189.3125 55 " class="clickable"/></g></g><g id="sprotty_ArchitectureBlockImpl$rvmaskandmatch/GenerateStatementBlockImpl$match_after_first_zero/GPortImpl$masken_or_fullmask_to_ArchitectureBlockImpl$rvmaskandmatch/GenerateStatementBlockImpl$match_after_first_zero/AssignmentBlockImpl$matchvec/GPortImpl$masken_or_fullmaskIN" class="sprotty-edge edge" style="fill:none;stroke:rgb(112, 112, 112);stroke-linejoin:round;"><g><path d="M 0 55 L 15 55 "/><path d="M 0 55 L 15 55 " class="clickable"/></g></g><g id="sprotty_ArchitectureBlockImpl$rvmaskandmatch/GenerateStatementBlockImpl$match_after_first_zero/AssignmentBlockImpl$matchvec" class="statement" transform="translate(15, 35)"><rect x="0" y="0" rx="10" ry="5" width="19.4375" height="40" class="sprotty-node" style="fill:rgb(245, 245, 245);stroke:rgb(112, 112, 112);"/><text class="clickable sprotty-label statementtype" id="sprotty_ArchitectureBlockImpl$rvmaskandmatch/GenerateStatementBlockImpl$match_after_first_zero/AssignmentBlockImpl$matchvec/labeltype" transform="translate(5, 14) translate(4.71875, 9.5)" style="cursor:default;font-size:8px;font-weight:700;perspective-origin:0px 0px;fill:rgb(112, 112, 112);text-anchor:middle;">&lt;=</text><g id="sprotty_ArchitectureBlockImpl$rvmaskandmatch/GenerateStatementBlockImpl$match_after_first_zero/AssignmentBlockImpl$matchvec/GPortImpl$dataIN" class="sprotty-hidden hidden" transform="translate(0, 30)" style="display:block;height:0px;width:0px;"/><g id="sprotty_ArchitectureBlockImpl$rvmaskandmatch/GenerateStatementBlockImpl$match_after_first_zero/AssignmentBlockImpl$matchvec/GPortImpl$masken_or_fullmaskIN" class="sprotty-hidden hidden" transform="translate(0, 20)" style="display:block;height:0px;width:0px;"/><g id="sprotty_ArchitectureBlockImpl$rvmaskandmatch/GenerateStatementBlockImpl$match_after_first_zero/AssignmentBlockImpl$matchvec/GPortImpl$maskIN" class="sprotty-hidden hidden" transform="translate(0, 10)" style="display:block;height:0px;width:0px;"/><g id="sprotty_ArchitectureBlockImpl$rvmaskandmatch/GenerateStatementBlockImpl$match_after_first_zero/AssignmentBlockImpl$matchvec/GPortImpl$matchvecOUT" class="sprotty-hidden hidden" transform="translate(19.4375, 20)" style="display:block;height:0px;width:0px;"/></g><g id="sprotty_ArchitectureBlockImpl$rvmaskandmatch/GenerateStatementBlockImpl$match_after_first_zero/GPortImpl$masken_or_fullmask" class="triangle" transform="translate(0, 55)"><path d="M 0,0 L 5,2.5 L 0,5 Z" transform="translate(-1.67, -2.5)" class="sprotty-port" style="fill:rgb(48, 48, 48);stroke:rgb(48, 48, 48);"/></g><g id="sprotty_ArchitectureBlockImpl$rvmaskandmatch/GenerateStatementBlockImpl$match_after_first_zero/GPortImpl$data" class="triangle" transform="translate(0, 65)"><path d="M 0,0 L 5,2.5 L 0,5 Z" transform="translate(-1.67, -2.5)" class="sprotty-port" style="fill:rgb(48, 48, 48);stroke:rgb(48, 48, 48);"/></g><g id="sprotty_ArchitectureBlockImpl$rvmaskandmatch/GenerateStatementBlockImpl$match_after_first_zero/GPortImpl$mask" class="triangle" transform="translate(0, 45)"><path d="M 0,0 L 5,2.5 L 0,5 Z" transform="translate(-1.67, -2.5)" class="sprotty-port" style="fill:rgb(48, 48, 48);stroke:rgb(48, 48, 48);"/></g><g id="sprotty_ArchitectureBlockImpl$rvmaskandmatch/GenerateStatementBlockImpl$match_after_first_zero/GPortImpl$matchvec" class="triangle" transform="translate(189.3125, 55)"><path d="M 0,0 L 5,2.5 L 0,5 Z" transform="translate(-1.67, -2.5)" class="sprotty-port" style="fill:rgb(48, 48, 48);stroke:rgb(48, 48, 48);"/></g></g><g id="sprotty_ArchitectureBlockImpl$rvmaskandmatch/AssignmentBlockImpl$match" class="statement" transform="translate(363.625, 85)"><rect x="0" y="0" rx="10" ry="5" width="19.4375" height="22" class="sprotty-node" style="fill:rgb(245, 245, 245);stroke:rgb(112, 112, 112);"/><text class="clickable sprotty-label statementtype" id="sprotty_ArchitectureBlockImpl$rvmaskandmatch/AssignmentBlockImpl$match/labeltype" transform="translate(5, 5) translate(4.71875, 9.5)" style="cursor:default;font-size:8px;font-weight:700;perspective-origin:0px 0px;fill:rgb(112, 112, 112);text-anchor:middle;">&lt;=</text><g id="sprotty_ArchitectureBlockImpl$rvmaskandmatch/AssignmentBlockImpl$match/GPortImpl$matchvecIN" class="sprotty-hidden hidden" transform="translate(0, 11)" style="display:block;height:0px;width:0px;"/><g id="sprotty_ArchitectureBlockImpl$rvmaskandmatch/AssignmentBlockImpl$match/GPortImpl$matchOUT" class="sprotty-hidden hidden" transform="translate(19.4375, 11)" style="display:block;height:0px;width:0px;"/></g><g id="sprotty_ArchitectureBlockImpl$rvmaskandmatch/AssignmentBlockImpl$matchvec" class="statement" transform="translate(196.78125, 151)"><rect x="0" y="0" rx="10" ry="5" width="19.4375" height="40" class="sprotty-node" style="fill:rgb(245, 245, 245);stroke:rgb(112, 112, 112);"/><text class="clickable sprotty-label statementtype" id="sprotty_ArchitectureBlockImpl$rvmaskandmatch/AssignmentBlockImpl$matchvec/labeltype" transform="translate(5, 14) translate(4.71875, 9.5)" style="cursor:default;font-size:8px;font-weight:700;perspective-origin:0px 0px;fill:rgb(112, 112, 112);text-anchor:middle;">&lt;=</text><g id="sprotty_ArchitectureBlockImpl$rvmaskandmatch/AssignmentBlockImpl$matchvec/GPortImpl$dataIN" class="sprotty-hidden hidden" transform="translate(0, 30)" style="display:block;height:0px;width:0px;"/><g id="sprotty_ArchitectureBlockImpl$rvmaskandmatch/AssignmentBlockImpl$matchvec/GPortImpl$maskIN" class="sprotty-hidden hidden" transform="translate(0, 20)" style="display:block;height:0px;width:0px;"/><g id="sprotty_ArchitectureBlockImpl$rvmaskandmatch/AssignmentBlockImpl$matchvec/GPortImpl$masken_or_fullmaskIN" class="sprotty-hidden hidden" transform="translate(0, 10)" style="display:block;height:0px;width:0px;"/><g id="sprotty_ArchitectureBlockImpl$rvmaskandmatch/AssignmentBlockImpl$matchvec/GPortImpl$matchvecOUT" class="sprotty-hidden hidden" transform="translate(19.4375, 20)" style="display:block;height:0px;width:0px;"/></g><g id="sprotty_ArchitectureBlockImpl$rvmaskandmatch/AssignmentBlockImpl$masken_or_fullmask" class="statement" transform="translate(104.875, 81)"><rect x="0" y="0" rx="10" ry="5" width="19.4375" height="30" class="sprotty-node" style="fill:rgb(245, 245, 245);stroke:rgb(112, 112, 112);"/><text class="clickable sprotty-label statementtype" id="sprotty_ArchitectureBlockImpl$rvmaskandmatch/AssignmentBlockImpl$masken_or_fullmask/labeltype" transform="translate(5, 9) translate(4.71875, 9.5)" style="cursor:default;font-size:8px;font-weight:700;perspective-origin:0px 0px;fill:rgb(112, 112, 112);text-anchor:middle;">&lt;=</text><g id="sprotty_ArchitectureBlockImpl$rvmaskandmatch/AssignmentBlockImpl$masken_or_fullmask/GPortImpl$maskIN" class="sprotty-hidden hidden" transform="translate(0, 20)" style="display:block;height:0px;width:0px;"/><g id="sprotty_ArchitectureBlockImpl$rvmaskandmatch/AssignmentBlockImpl$masken_or_fullmask/GPortImpl$maskenIN" class="sprotty-hidden hidden" transform="translate(0, 10)" style="display:block;height:0px;width:0px;"/><g id="sprotty_ArchitectureBlockImpl$rvmaskandmatch/AssignmentBlockImpl$masken_or_fullmask/GPortImpl$masken_or_fullmaskOUT" class="sprotty-hidden hidden" transform="translate(19.4375, 15)" style="display:block;height:0px;width:0px;"/></g><g id="sprotty_ArchitectureBlockImpl$rvmaskandmatch/BPortImpl$masken" class="triangle" transform="translate(0, 35)"><path d="M 0,0 L 5,2.5 L 0,5 Z" transform="translate(-1.67, -2.5)" class="sprotty-port" style="fill:rgb(48, 48, 48);stroke:rgb(48, 48, 48);"/><text class="clickable sprotty-label port" id="sprotty_ArchitectureBlockImpl$rvmaskandmatch/BPortImpl$masken/label" transform="translate(6, 6) translate(21.9375, 14)" style="cursor:default;font-size:12px;perspective-origin:0px 0px;fill:rgb(48, 48, 48);text-anchor:middle;">masken</text></g><g id="sprotty_ArchitectureBlockImpl$rvmaskandmatch/BPortImpl$data" class="triangle" transform="translate(0, 122)"><path d="M 0,0 L 5,2.5 L 0,5 Z" transform="translate(-1.67, -2.5)" class="sprotty-port" style="fill:rgb(48, 48, 48);stroke:rgb(48, 48, 48);"/><text class="clickable sprotty-label port" id="sprotty_ArchitectureBlockImpl$rvmaskandmatch/BPortImpl$data/label" transform="translate(6, 6) translate(12.53125, 14)" style="cursor:default;font-size:12px;perspective-origin:0px 0px;fill:rgb(48, 48, 48);text-anchor:middle;">data</text></g><g id="sprotty_ArchitectureBlockImpl$rvmaskandmatch/BPortImpl$mask" class="triangle" transform="translate(0, 69)"><path d="M 0,0 L 5,2.5 L 0,5 Z" transform="translate(-1.67, -2.5)" class="sprotty-port" style="fill:rgb(48, 48, 48);stroke:rgb(48, 48, 48);"/><text class="clickable sprotty-label port" id="sprotty_ArchitectureBlockImpl$rvmaskandmatch/BPortImpl$mask/label" transform="translate(6, 6) translate(15.0625, 14)" style="cursor:default;font-size:12px;perspective-origin:0px 0px;fill:rgb(48, 48, 48);text-anchor:middle;">mask</text></g><g id="sprotty_ArchitectureBlockImpl$rvmaskandmatch/BPortImpl$match" class="triangle" transform="translate(439.5, 96)"><path d="M 0,0 L 5,2.5 L 0,5 Z" transform="translate(-1.67, -2.5)" class="sprotty-port" style="fill:rgb(48, 48, 48);stroke:rgb(48, 48, 48);"/><text class="clickable sprotty-label port" id="sprotty_ArchitectureBlockImpl$rvmaskandmatch/BPortImpl$match/label" transform="translate(-41.4375, 6) translate(17.71875, 14)" style="cursor:default;font-size:12px;perspective-origin:0px 0px;fill:rgb(48, 48, 48);text-anchor:middle;">match</text></g></g></g></svg>