<svg xmlns="http://www.w3.org/2000/svg" id="sprotty_work.eh2_ifu_tb_memread" class="sprotty-graph sprotty-block-diagram blockdiagram" style="font-family:&quot;Noto Sans&quot;, Helvetica, Arial, sans-serif;perspective-origin:0px 0px;transform-origin:0px 0px;" version="1.1" viewBox="7 7 493.90625 160" width="493.90625" height="160"><g transform="scale(1) translate(0,0)"><g id="sprotty_ArchitectureBlockImpl$eh2_ifu_tb_memread" class="architecture" transform="translate(12, 12)"><g class="sprotty-block" style="fill:rgb(255, 255, 255);stroke:rgb(48, 48, 48);stroke-dasharray:0px;"><rect x="0" y="0" rx="1" ry="1" width="483.90625" height="150"/><text x="241.953125" y="12" class="sprotty-block-name" style="cursor:pointer;font-weight:700;perspective-origin:241.953px 0px;fill:rgb(48, 48, 48);stroke:rgba(0, 0, 0, 0);dominant-baseline:middle;text-anchor:middle;">eh2_ifu_tb_memread</text><line x1="0" y1="20" x2="483.90625" y2="20"/></g><g id="sprotty_ArchitectureBlockImpl$eh2_ifu_tb_memread/AlwaysBlockImpl$null2/GPortImpl$clkOUT_to_ArchitectureBlockImpl$eh2_ifu_tb_memread/AlwaysBlockImpl$null1/GPortImpl$clkIN" class="sprotty-edge edge" style="fill:none;stroke:rgb(112, 112, 112);stroke-linejoin:round;"><g><path d="M 52.34375 96 L 72.34375 96 "/><path d="M 52.34375 96 L 72.34375 96 " class="clickable"/></g></g><g id="sprotty_ArchitectureBlockImpl$eh2_ifu_tb_memread/AlwaysBlockImpl$null2/GPortImpl$clkOUT_to_ArchitectureBlockImpl$eh2_ifu_tb_memread/AlwaysBlockImpl$null0/GPortImpl$clkIN" class="sprotty-edge edge" style="fill:none;stroke:rgb(112, 112, 112);stroke-linejoin:round;"><g><path d="M 52.34375 96 L 60.34375 96 C 61.34375 96 62.34375 95 62.34375 94 L 62.34375 38 C 62.34375 37 63.34375 36 64.34375 36 L 419.5625 36 C 420.5625 36 421.5625 37 421.5625 38 L 421.5625 98 C 421.5625 99 422.5625 100 423.5625 100 L 431.5625 100 "/><path d="M 52.34375 96 L 60.34375 96 C 61.34375 96 62.34375 95 62.34375 94 L 62.34375 38 C 62.34375 37 63.34375 36 64.34375 36 L 419.5625 36 C 420.5625 36 421.5625 37 421.5625 38 L 421.5625 98 C 421.5625 99 422.5625 100 423.5625 100 L 431.5625 100 " class="clickable"/></g><circle r="2" id="sprotty_ArchitectureBlockImpl$eh2_ifu_tb_memread/AlwaysBlockImpl$null2/GPortImpl$clkOUT_to_ArchitectureBlockImpl$eh2_ifu_tb_memread/AlwaysBlockImpl$null0/GPortImpl$clkIN/junction0" transform="translate(62.34375, 96)" class="sprotty-junction junction" style="fill:rgb(112, 112, 112);stroke:none;"/></g><g id="sprotty_ArchitectureBlockImpl$eh2_ifu_tb_memread/AlwaysBlockImpl$null1/GPortImpl$clk_countOUT_to_ArchitectureBlockImpl$eh2_ifu_tb_memread/AlwaysBlockImpl$null0/GPortImpl$clk_countIN" class="sprotty-edge thick edge" style="fill:none;stroke:rgb(112, 112, 112);stroke-linejoin:round;stroke-width:3px;"><g><path d="M 109.6875 86 L 117.6875 86 C 118.6875 86 119.6875 85 119.6875 84 L 119.6875 48 C 119.6875 47 120.6875 46 121.6875 46 L 409.5625 46 C 410.5625 46 411.5625 47 411.5625 48 L 411.5625 108 C 411.5625 109 412.5625 110 413.5625 110 L 431.5625 110 "/><path d="M 109.6875 86 L 117.6875 86 C 118.6875 86 119.6875 85 119.6875 84 L 119.6875 48 C 119.6875 47 120.6875 46 121.6875 46 L 409.5625 46 C 410.5625 46 411.5625 47 411.5625 48 L 411.5625 108 C 411.5625 109 412.5625 110 413.5625 110 L 431.5625 110 " class="clickable"/></g></g><g id="sprotty_ArchitectureBlockImpl$eh2_ifu_tb_memread/AlwaysBlockImpl$null1/GPortImpl$expected_valOUT_to_ArchitectureBlockImpl$eh2_ifu_tb_memread/AssignmentBlockImpl$error/GPortImpl$expected_valIN" class="sprotty-edge thick edge" style="fill:none;stroke:rgb(112, 112, 112);stroke-linejoin:round;stroke-width:3px;"><g><path d="M 109.6875 106 L 117.6875 106 C 118.6875 106 119.6875 107 119.6875 108 L 119.6875 123 C 119.6875 124 120.6875 125 121.6875 125 L 382.125 125 "/><path d="M 109.6875 106 L 117.6875 106 C 118.6875 106 119.6875 107 119.6875 108 L 119.6875 123 C 119.6875 124 120.6875 125 121.6875 125 L 382.125 125 " class="clickable"/></g></g><g id="sprotty_ArchitectureBlockImpl$eh2_ifu_tb_memread/AlwaysBlockImpl$null1/GPortImpl$compressed_dinOUT_to_ArchitectureBlockImpl$eh2_ifu_tb_memread/InstantiationBlockImpl$align/BPortImpl$din" class="sprotty-edge thick edge" style="fill:none;stroke:rgb(112, 112, 112);stroke-linejoin:round;stroke-width:3px;"><g><path d="M 109.6875 96 L 129.6875 96 "/><path d="M 109.6875 96 L 129.6875 96 " class="clickable"/></g></g><g id="sprotty_ArchitectureBlockImpl$eh2_ifu_tb_memread/InstantiationBlockImpl$align/BPortImpl$dout_to_ArchitectureBlockImpl$eh2_ifu_tb_memread/AssignmentBlockImpl$error/GPortImpl$actualIN" class="sprotty-edge thick edge" style="fill:none;stroke:rgb(112, 112, 112);stroke-linejoin:round;stroke-width:3px;"><g><path d="M 362.125 96 L 370.125 96 C 371.125 96 372.125 97 372.125 98 L 372.125 113 C 372.125 114 373.125 115 374.125 115 L 382.125 115 "/><path d="M 362.125 96 L 370.125 96 C 371.125 96 372.125 97 372.125 98 L 372.125 113 C 372.125 114 373.125 115 374.125 115 L 382.125 115 " class="clickable"/></g></g><g id="sprotty_ArchitectureBlockImpl$eh2_ifu_tb_memread/AssignmentBlockImpl$error/GPortImpl$expected_valOUT_to_ArchitectureBlockImpl$eh2_ifu_tb_memread/AlwaysBlockImpl$null0/GPortImpl$errorIN" class="sprotty-edge thick edge" style="fill:none;stroke:rgb(112, 112, 112);stroke-linejoin:round;stroke-width:3px;"><g><path d="M 401.5625 120 L 431.5625 120 "/><path d="M 401.5625 120 L 431.5625 120 " class="clickable"/></g></g><g id="sprotty_ArchitectureBlockImpl$eh2_ifu_tb_memread/AlwaysBlockImpl$null0" class="statement" transform="translate(431.5625, 90)"><rect x="0" y="0" rx="10" ry="5" width="37.34375" height="40" class="sprotty-node" style="fill:rgb(245, 245, 245);stroke:rgb(112, 112, 112);"/><text class="clickable sprotty-label statementtype" id="sprotty_ArchitectureBlockImpl$eh2_ifu_tb_memread/AlwaysBlockImpl$null0/labeltype" transform="translate(5, 14) translate(13.671875, 9)" style="cursor:default;font-size:8px;font-weight:700;perspective-origin:0px 0px;fill:rgb(112, 112, 112);text-anchor:middle;">always</text><g id="sprotty_ArchitectureBlockImpl$eh2_ifu_tb_memread/AlwaysBlockImpl$null0/GPortImpl$errorIN" class="sprotty-hidden hidden" transform="translate(0, 30)" style="display:block;height:0px;width:0px;"/><g id="sprotty_ArchitectureBlockImpl$eh2_ifu_tb_memread/AlwaysBlockImpl$null0/GPortImpl$clk_countIN" class="sprotty-hidden hidden" transform="translate(0, 20)" style="display:block;height:0px;width:0px;"/><g id="sprotty_ArchitectureBlockImpl$eh2_ifu_tb_memread/AlwaysBlockImpl$null0/GPortImpl$clkIN" class="sprotty-hidden hidden" transform="translate(0, 10)" style="display:block;height:0px;width:0px;"/></g><g id="sprotty_ArchitectureBlockImpl$eh2_ifu_tb_memread/AlwaysBlockImpl$null1" class="statement" transform="translate(72.34375, 76)"><rect x="0" y="0" rx="10" ry="5" width="37.34375" height="40" class="sprotty-node" style="fill:rgb(245, 245, 245);stroke:rgb(112, 112, 112);"/><text class="clickable sprotty-label statementtype" id="sprotty_ArchitectureBlockImpl$eh2_ifu_tb_memread/AlwaysBlockImpl$null1/labeltype" transform="translate(5, 14) translate(13.671875, 9)" style="cursor:default;font-size:8px;font-weight:700;perspective-origin:0px 0px;fill:rgb(112, 112, 112);text-anchor:middle;">always</text><g id="sprotty_ArchitectureBlockImpl$eh2_ifu_tb_memread/AlwaysBlockImpl$null1/GPortImpl$clkIN" class="sprotty-hidden hidden" transform="translate(0, 20)" style="display:block;height:0px;width:0px;"/><g id="sprotty_ArchitectureBlockImpl$eh2_ifu_tb_memread/AlwaysBlockImpl$null1/GPortImpl$clk_countOUT" class="sprotty-hidden hidden" transform="translate(37.34375, 10)" style="display:block;height:0px;width:0px;"/><g id="sprotty_ArchitectureBlockImpl$eh2_ifu_tb_memread/AlwaysBlockImpl$null1/GPortImpl$compressed_dinOUT" class="sprotty-hidden hidden" transform="translate(37.34375, 20)" style="display:block;height:0px;width:0px;"/><g id="sprotty_ArchitectureBlockImpl$eh2_ifu_tb_memread/AlwaysBlockImpl$null1/GPortImpl$expected_valOUT" class="sprotty-hidden hidden" transform="translate(37.34375, 30)" style="display:block;height:0px;width:0px;"/></g><g id="sprotty_ArchitectureBlockImpl$eh2_ifu_tb_memread/AlwaysBlockImpl$null2" class="statement" transform="translate(15, 85)"><rect x="0" y="0" rx="10" ry="5" width="37.34375" height="22" class="sprotty-node" style="fill:rgb(245, 245, 245);stroke:rgb(112, 112, 112);"/><text class="clickable sprotty-label statementtype" id="sprotty_ArchitectureBlockImpl$eh2_ifu_tb_memread/AlwaysBlockImpl$null2/labeltype" transform="translate(5, 5) translate(13.671875, 9)" style="cursor:default;font-size:8px;font-weight:700;perspective-origin:0px 0px;fill:rgb(112, 112, 112);text-anchor:middle;">always</text><g id="sprotty_ArchitectureBlockImpl$eh2_ifu_tb_memread/AlwaysBlockImpl$null2/GPortImpl$clkOUT" class="sprotty-hidden hidden" transform="translate(37.34375, 11)" style="display:block;height:0px;width:0px;"/></g><g id="sprotty_ArchitectureBlockImpl$eh2_ifu_tb_memread/AssignmentBlockImpl$error" class="statement" transform="translate(382.125, 105)"><rect x="0" y="0" rx="10" ry="5" width="19.4375" height="30" class="sprotty-node" style="fill:rgb(245, 245, 245);stroke:rgb(112, 112, 112);"/><text class="clickable sprotty-label statementtype" id="sprotty_ArchitectureBlockImpl$eh2_ifu_tb_memread/AssignmentBlockImpl$error/labeltype" transform="translate(5, 9) translate(4.71875, 9)" style="cursor:default;font-size:8px;font-weight:700;perspective-origin:0px 0px;fill:rgb(112, 112, 112);text-anchor:middle;">&lt;=</text><g id="sprotty_ArchitectureBlockImpl$eh2_ifu_tb_memread/AssignmentBlockImpl$error/GPortImpl$expected_valIN" class="sprotty-hidden hidden" transform="translate(0, 20)" style="display:block;height:0px;width:0px;"/><g id="sprotty_ArchitectureBlockImpl$eh2_ifu_tb_memread/AssignmentBlockImpl$error/GPortImpl$actualIN" class="sprotty-hidden hidden" transform="translate(0, 10)" style="display:block;height:0px;width:0px;"/><g id="sprotty_ArchitectureBlockImpl$eh2_ifu_tb_memread/AssignmentBlockImpl$error/GPortImpl$expected_valOUT" class="sprotty-hidden hidden" transform="translate(19.4375, 15)" style="display:block;height:0px;width:0px;"/></g><g id="sprotty_ArchitectureBlockImpl$eh2_ifu_tb_memread/InstantiationBlockImpl$align" class="instantiation" transform="translate(129.6875, 58)"><g class="sprotty-block" style="fill:rgb(255, 255, 255);stroke:rgb(48, 48, 48);stroke-dasharray:0px;"><rect x="0" y="0" rx="1" ry="1" width="232.4375" height="56"/><text x="116.21875" y="12" class="sprotty-block-name" style="cursor:pointer;font-weight:700;perspective-origin:116.219px 0px;fill:rgb(48, 48, 48);stroke:rgba(0, 0, 0, 0);dominant-baseline:middle;text-anchor:middle;">align : eh2_ifu_compress_ctl</text><line x1="0" y1="20" x2="232.4375" y2="20"/></g><g id="sprotty_ArchitectureBlockImpl$eh2_ifu_tb_memread/InstantiationBlockImpl$align/BPortImpl$din" class="triangle" transform="translate(0, 38)"><path d="M 0,0 L 5,2.5 L 0,5 Z" transform="translate(-1.67, -2.5)" class="sprotty-port" style="fill:rgb(48, 48, 48);stroke:rgb(48, 48, 48);"/><text class="clickable sprotty-label port" id="sprotty_ArchitectureBlockImpl$eh2_ifu_tb_memread/InstantiationBlockImpl$align/BPortImpl$din/label" transform="translate(6, -9) translate(9.046875, 14)" style="cursor:default;font-size:12px;perspective-origin:0px 0px;fill:rgb(48, 48, 48);text-anchor:middle;">din</text></g><g id="sprotty_ArchitectureBlockImpl$eh2_ifu_tb_memread/InstantiationBlockImpl$align/BPortImpl$dout" class="triangle" transform="translate(232.4375, 38)"><path d="M 0,0 L 5,2.5 L 0,5 Z" transform="translate(-1.67, -2.5)" class="sprotty-port" style="fill:rgb(48, 48, 48);stroke:rgb(48, 48, 48);"/><text class="clickable sprotty-label port" id="sprotty_ArchitectureBlockImpl$eh2_ifu_tb_memread/InstantiationBlockImpl$align/BPortImpl$dout/label" transform="translate(-32.53125, -9) translate(13.265625, 14)" style="cursor:default;font-size:12px;perspective-origin:0px 0px;fill:rgb(48, 48, 48);text-anchor:middle;">dout</text></g></g></g></g></svg>