<svg xmlns="http://www.w3.org/2000/svg" id="sprotty_work.rvarbiter2_fpga" class="sprotty-graph sprotty-block-diagram blockdiagram" style="font-family:&quot;Noto Sans&quot;, Helvetica, Arial, sans-serif;perspective-origin:0px 0px;transform-origin:0px 0px;" version="1.1" viewBox="7 7 474.53125 401" width="474.53125" height="401"><g transform="scale(1) translate(0,0)"><g id="sprotty_ArchitectureBlockImpl$rvarbiter2_fpga" class="architecture" transform="translate(12, 12)"><g class="sprotty-block" style="fill:rgb(255, 255, 255);stroke:rgb(48, 48, 48);stroke-dasharray:0px;"><rect x="0" y="0" rx="1" ry="1" width="464.53125" height="391"/><text x="232.265625" y="12" class="sprotty-block-name" style="cursor:pointer;font-weight:700;perspective-origin:232.266px 0px;fill:rgb(48, 48, 48);stroke:rgba(0, 0, 0, 0);dominant-baseline:middle;text-anchor:middle;">rvarbiter2_fpga</text><line x1="0" y1="20" x2="464.53125" y2="20"/></g><g id="sprotty_ArchitectureBlockImpl$rvarbiter2_fpga/AssignmentBlockImpl$tid/GPortImpl$tidOUT_to_ArchitectureBlockImpl$rvarbiter2_fpga/BPortImpl$tid" class="sprotty-edge edge" style="fill:none;stroke:rgb(112, 112, 112);stroke-linejoin:round;"><g><path d="M 428.25 228 L 464.53125 228 "/><path d="M 428.25 228 L 464.53125 228 " class="clickable"/></g></g><g id="sprotty_ArchitectureBlockImpl$rvarbiter2_fpga/BPortImpl$shift_to_ArchitectureBlockImpl$rvarbiter2_fpga/InstantiationBlockImpl$favor_ff/BPortImpl$en" class="sprotty-edge edge" style="fill:none;stroke:rgb(112, 112, 112);stroke-linejoin:round;"><g><path d="M 0 172 L 174.71875 172 C 175.71875 172 176.71875 173 176.71875 174 L 176.71875 194 C 176.71875 195 177.71875 196 178.71875 196 L 196.71875 196 "/><path d="M 0 172 L 174.71875 172 C 175.71875 172 176.71875 173 176.71875 174 L 176.71875 194 C 176.71875 195 177.71875 196 178.71875 196 L 196.71875 196 " class="clickable"/></g><circle r="2" id="sprotty_ArchitectureBlockImpl$rvarbiter2_fpga/BPortImpl$shift_to_ArchitectureBlockImpl$rvarbiter2_fpga/InstantiationBlockImpl$favor_ff/BPortImpl$en/junction0" transform="translate(176.71875, 172)" class="sprotty-junction junction" style="fill:rgb(112, 112, 112);stroke:none;"/></g><g id="sprotty_ArchitectureBlockImpl$rvarbiter2_fpga/BPortImpl$clk_to_ArchitectureBlockImpl$rvarbiter2_fpga/InstantiationBlockImpl$favor_ff/BPortImpl$clk" class="sprotty-edge edge" style="fill:none;stroke:rgb(112, 112, 112);stroke-linejoin:round;"><g><path d="M 0 206 L 174.71875 206 C 175.71875 206 176.71875 207 176.71875 208 L 176.71875 222 C 176.71875 223 177.71875 224 178.71875 224 L 196.71875 224 "/><path d="M 0 206 L 174.71875 206 C 175.71875 206 176.71875 207 176.71875 208 L 176.71875 222 C 176.71875 223 177.71875 224 178.71875 224 L 196.71875 224 " class="clickable"/></g></g><g id="sprotty_ArchitectureBlockImpl$rvarbiter2_fpga/BPortImpl$clken_to_ArchitectureBlockImpl$rvarbiter2_fpga/InstantiationBlockImpl$favor_ff/BPortImpl$clken" class="sprotty-edge edge" style="fill:none;stroke:rgb(112, 112, 112);stroke-linejoin:round;"><g><path d="M 0 240 L 174.71875 240 C 175.71875 240 176.71875 241 176.71875 242 L 176.71875 250 C 176.71875 251 177.71875 252 178.71875 252 L 196.71875 252 "/><path d="M 0 240 L 174.71875 240 C 175.71875 240 176.71875 241 176.71875 242 L 176.71875 250 C 176.71875 251 177.71875 252 178.71875 252 L 196.71875 252 " class="clickable"/></g></g><g id="sprotty_ArchitectureBlockImpl$rvarbiter2_fpga/BPortImpl$rawclk_to_ArchitectureBlockImpl$rvarbiter2_fpga/InstantiationBlockImpl$favor_ff/BPortImpl$rawclk" class="sprotty-edge edge" style="fill:none;stroke:rgb(112, 112, 112);stroke-linejoin:round;"><g><path d="M 0 274 L 174.71875 274 C 175.71875 274 176.71875 275 176.71875 276 L 176.71875 278 C 176.71875 279 177.71875 280 178.71875 280 L 196.71875 280 "/><path d="M 0 274 L 174.71875 274 C 175.71875 274 176.71875 275 176.71875 276 L 176.71875 278 C 176.71875 279 177.71875 280 178.71875 280 L 196.71875 280 " class="clickable"/></g></g><g id="sprotty_ArchitectureBlockImpl$rvarbiter2_fpga/BPortImpl$rst_l_to_ArchitectureBlockImpl$rvarbiter2_fpga/InstantiationBlockImpl$favor_ff/BPortImpl$rst_l" class="sprotty-edge edge" style="fill:none;stroke:rgb(112, 112, 112);stroke-linejoin:round;"><g><path d="M 0 308 L 196.71875 308 "/><path d="M 0 308 L 196.71875 308 " class="clickable"/></g></g><g id="sprotty_ArchitectureBlockImpl$rvarbiter2_fpga/BPortImpl$ready_to_ArchitectureBlockImpl$rvarbiter2_fpga/AssignmentBlockImpl$ready0/GPortImpl$readyIN" class="sprotty-edge thick edge" style="fill:none;stroke:rgb(112, 112, 112);stroke-linejoin:round;stroke-width:3px;"><g><path d="M 0 85 L 65.84375 85 C 66.84375 85 67.84375 86 67.84375 87 L 67.84375 106 C 67.84375 107 68.84375 108 69.84375 108 L 77.84375 108 "/><path d="M 0 85 L 65.84375 85 C 66.84375 85 67.84375 86 67.84375 87 L 67.84375 106 C 67.84375 107 68.84375 108 69.84375 108 L 77.84375 108 " class="clickable"/></g><circle r="3" id="sprotty_ArchitectureBlockImpl$rvarbiter2_fpga/BPortImpl$ready_to_ArchitectureBlockImpl$rvarbiter2_fpga/AssignmentBlockImpl$ready0/GPortImpl$readyIN/junction0" transform="translate(67.84375, 85)" class="sprotty-junction thick" style="fill:rgb(112, 112, 112);stroke:none;"/><circle r="3" id="sprotty_ArchitectureBlockImpl$rvarbiter2_fpga/BPortImpl$ready_to_ArchitectureBlockImpl$rvarbiter2_fpga/AssignmentBlockImpl$ready0/GPortImpl$readyIN/junction1" transform="translate(67.84375, 108)" class="sprotty-junction thick" style="fill:rgb(112, 112, 112);stroke:none;"/></g><g id="sprotty_ArchitectureBlockImpl$rvarbiter2_fpga/BPortImpl$ready_to_ArchitectureBlockImpl$rvarbiter2_fpga/AssignmentBlockImpl$ready1/GPortImpl$readyIN" class="sprotty-edge thick edge" style="fill:none;stroke:rgb(112, 112, 112);stroke-linejoin:round;stroke-width:3px;"><g><path d="M 0 85 L 65.84375 85 C 66.84375 85 67.84375 86 67.84375 87 L 67.84375 148 C 67.84375 149 68.84375 150 69.84375 150 L 77.84375 150 "/><path d="M 0 85 L 65.84375 85 C 66.84375 85 67.84375 86 67.84375 87 L 67.84375 148 C 67.84375 149 68.84375 150 69.84375 150 L 77.84375 150 " class="clickable"/></g></g><g id="sprotty_ArchitectureBlockImpl$rvarbiter2_fpga/BPortImpl$ready_to_ArchitectureBlockImpl$rvarbiter2_fpga/AssignmentBlockImpl$ready2/GPortImpl$readyIN" class="sprotty-edge thick edge" style="fill:none;stroke:rgb(112, 112, 112);stroke-linejoin:round;stroke-width:3px;"><g><path d="M 0 85 L 65.84375 85 C 66.84375 85 67.84375 84 67.84375 83 L 67.84375 65 C 67.84375 64 68.84375 63 69.84375 63 L 77.84375 63 "/><path d="M 0 85 L 65.84375 85 C 66.84375 85 67.84375 84 67.84375 83 L 67.84375 65 C 67.84375 64 68.84375 63 69.84375 63 L 77.84375 63 " class="clickable"/></g><circle r="3" id="sprotty_ArchitectureBlockImpl$rvarbiter2_fpga/BPortImpl$ready_to_ArchitectureBlockImpl$rvarbiter2_fpga/AssignmentBlockImpl$ready2/GPortImpl$readyIN/junction0" transform="translate(67.84375, 63)" class="sprotty-junction thick" style="fill:rgb(112, 112, 112);stroke:none;"/></g><g id="sprotty_ArchitectureBlockImpl$rvarbiter2_fpga/BPortImpl$ready_to_ArchitectureBlockImpl$rvarbiter2_fpga/AssignmentBlockImpl$favor_in/GPortImpl$readyIN" class="sprotty-edge thick edge" style="fill:none;stroke:rgb(112, 112, 112);stroke-linejoin:round;stroke-width:3px;"><g><path d="M 0 85 L 115.28125 85 C 116.28125 85 117.28125 86 117.28125 87 L 117.28125 128 C 117.28125 129 118.28125 130 119.28125 130 L 147.28125 130 "/><path d="M 0 85 L 115.28125 85 C 116.28125 85 117.28125 86 117.28125 87 L 117.28125 128 C 117.28125 129 118.28125 130 119.28125 130 L 147.28125 130 " class="clickable"/></g></g><g id="sprotty_ArchitectureBlockImpl$rvarbiter2_fpga/BPortImpl$ready_to_ArchitectureBlockImpl$rvarbiter2_fpga/AssignmentBlockImpl$tid/GPortImpl$readyIN" class="sprotty-edge thick edge" style="fill:none;stroke:rgb(112, 112, 112);stroke-linejoin:round;stroke-width:3px;"><g><path d="M 0 85 L 65.84375 85 C 66.84375 85 67.84375 84 67.84375 83 L 67.84375 38 C 67.84375 37 68.84375 36 69.84375 36 L 396.8125 36 C 397.8125 36 398.8125 37 398.8125 38 L 398.8125 216 C 398.8125 217 399.8125 218 400.8125 218 L 408.8125 218 "/><path d="M 0 85 L 65.84375 85 C 66.84375 85 67.84375 84 67.84375 83 L 67.84375 38 C 67.84375 37 68.84375 36 69.84375 36 L 396.8125 36 C 397.8125 36 398.8125 37 398.8125 38 L 398.8125 216 C 398.8125 217 399.8125 218 400.8125 218 L 408.8125 218 " class="clickable"/></g></g><g id="sprotty_ArchitectureBlockImpl$rvarbiter2_fpga/AssignmentBlockImpl$ready0/GPortImpl$ready0OUT_to_ArchitectureBlockImpl$rvarbiter2_fpga/AssignmentBlockImpl$favor_in/GPortImpl$ready0IN" class="sprotty-edge edge" style="fill:none;stroke:rgb(112, 112, 112);stroke-linejoin:round;"><g><path d="M 97.28125 108 L 105.28125 108 C 106.28125 108 107.28125 109 107.28125 110 L 107.28125 138 C 107.28125 139 108.28125 140 109.28125 140 L 147.28125 140 "/><path d="M 97.28125 108 L 105.28125 108 C 106.28125 108 107.28125 109 107.28125 110 L 107.28125 138 C 107.28125 139 108.28125 140 109.28125 140 L 147.28125 140 " class="clickable"/></g></g><g id="sprotty_ArchitectureBlockImpl$rvarbiter2_fpga/AssignmentBlockImpl$ready1/GPortImpl$ready1OUT_to_ArchitectureBlockImpl$rvarbiter2_fpga/AssignmentBlockImpl$favor_in/GPortImpl$ready1IN" class="sprotty-edge edge" style="fill:none;stroke:rgb(112, 112, 112);stroke-linejoin:round;"><g><path d="M 97.28125 150 L 147.28125 150 "/><path d="M 97.28125 150 L 147.28125 150 " class="clickable"/></g></g><g id="sprotty_ArchitectureBlockImpl$rvarbiter2_fpga/AssignmentBlockImpl$ready2/GPortImpl$ready2OUT_to_ArchitectureBlockImpl$rvarbiter2_fpga/InstantiationBlockImpl$favor_ff/BPortImpl$en" class="sprotty-edge edge" style="fill:none;stroke:rgb(112, 112, 112);stroke-linejoin:round;"><g><path d="M 97.28125 63 L 174.71875 63 C 175.71875 63 176.71875 64 176.71875 65 L 176.71875 194 C 176.71875 195 177.71875 196 178.71875 196 L 196.71875 196 "/><path d="M 97.28125 63 L 174.71875 63 C 175.71875 63 176.71875 64 176.71875 65 L 176.71875 194 C 176.71875 195 177.71875 196 178.71875 196 L 196.71875 196 " class="clickable"/></g></g><g id="sprotty_ArchitectureBlockImpl$rvarbiter2_fpga/AssignmentBlockImpl$ready2/GPortImpl$ready2OUT_to_ArchitectureBlockImpl$rvarbiter2_fpga/AssignmentBlockImpl$favor_in/GPortImpl$ready2IN" class="sprotty-edge edge" style="fill:none;stroke:rgb(112, 112, 112);stroke-linejoin:round;"><g><path d="M 97.28125 63 L 125.28125 63 C 126.28125 63 127.28125 64 127.28125 65 L 127.28125 118 C 127.28125 119 128.28125 120 129.28125 120 L 147.28125 120 "/><path d="M 97.28125 63 L 125.28125 63 C 126.28125 63 127.28125 64 127.28125 65 L 127.28125 118 C 127.28125 119 128.28125 120 129.28125 120 L 147.28125 120 " class="clickable"/></g><circle r="2" id="sprotty_ArchitectureBlockImpl$rvarbiter2_fpga/AssignmentBlockImpl$ready2/GPortImpl$ready2OUT_to_ArchitectureBlockImpl$rvarbiter2_fpga/AssignmentBlockImpl$favor_in/GPortImpl$ready2IN/junction0" transform="translate(127.28125, 63)" class="sprotty-junction junction" style="fill:rgb(112, 112, 112);stroke:none;"/></g><g id="sprotty_ArchitectureBlockImpl$rvarbiter2_fpga/AssignmentBlockImpl$ready2/GPortImpl$ready2OUT_to_ArchitectureBlockImpl$rvarbiter2_fpga/AssignmentBlockImpl$tid/GPortImpl$ready2IN" class="sprotty-edge edge" style="fill:none;stroke:rgb(112, 112, 112);stroke-linejoin:round;"><g><path d="M 97.28125 63 L 125.28125 63 C 126.28125 63 127.28125 62 127.28125 61 L 127.28125 48 C 127.28125 47 128.28125 46 129.28125 46 L 386.8125 46 C 387.8125 46 388.8125 47 388.8125 48 L 388.8125 226 C 388.8125 227 389.8125 228 390.8125 228 L 408.8125 228 "/><path d="M 97.28125 63 L 125.28125 63 C 126.28125 63 127.28125 62 127.28125 61 L 127.28125 48 C 127.28125 47 128.28125 46 129.28125 46 L 386.8125 46 C 387.8125 46 388.8125 47 388.8125 48 L 388.8125 226 C 388.8125 227 389.8125 228 390.8125 228 L 408.8125 228 " class="clickable"/></g></g><g id="sprotty_ArchitectureBlockImpl$rvarbiter2_fpga/AssignmentBlockImpl$favor_in/GPortImpl$favorOUT_to_ArchitectureBlockImpl$rvarbiter2_fpga/InstantiationBlockImpl$favor_ff/BPortImpl$din" class="sprotty-edge edge" style="fill:none;stroke:rgb(112, 112, 112);stroke-linejoin:round;"><g><path d="M 166.71875 130 L 184.71875 130 C 185.71875 130 186.71875 131 186.71875 132 L 186.71875 166 C 186.71875 167 187.71875 168 188.71875 168 L 196.71875 168 "/><path d="M 166.71875 130 L 184.71875 130 C 185.71875 130 186.71875 131 186.71875 132 L 186.71875 166 C 186.71875 167 187.71875 168 188.71875 168 L 196.71875 168 " class="clickable"/></g></g><g id="sprotty_ArchitectureBlockImpl$rvarbiter2_fpga/InstantiationBlockImpl$favor_ff/BPortImpl$dout_to_ArchitectureBlockImpl$rvarbiter2_fpga/AssignmentBlockImpl$favor_in/GPortImpl$favorIN" class="sprotty-edge edge" style="fill:none;stroke:rgb(112, 112, 112);stroke-linejoin:round;"><g><path d="M 368.8125 238 L 376.8125 238 C 377.8125 238 378.8125 237 378.8125 236 L 378.8125 57 C 378.8125 56 377.8125 55 376.8125 55 L 139.28125 55 C 138.28125 55 137.28125 56 137.28125 57 L 137.28125 108 C 137.28125 109 138.28125 110 139.28125 110 L 147.28125 110 "/><path d="M 368.8125 238 L 376.8125 238 C 377.8125 238 378.8125 237 378.8125 236 L 378.8125 57 C 378.8125 56 377.8125 55 376.8125 55 L 139.28125 55 C 138.28125 55 137.28125 56 137.28125 57 L 137.28125 108 C 137.28125 109 138.28125 110 139.28125 110 L 147.28125 110 " class="clickable"/></g><circle r="2" id="sprotty_ArchitectureBlockImpl$rvarbiter2_fpga/InstantiationBlockImpl$favor_ff/BPortImpl$dout_to_ArchitectureBlockImpl$rvarbiter2_fpga/AssignmentBlockImpl$favor_in/GPortImpl$favorIN/junction0" transform="translate(378.8125, 238)" class="sprotty-junction junction" style="fill:rgb(112, 112, 112);stroke:none;"/></g><g id="sprotty_ArchitectureBlockImpl$rvarbiter2_fpga/InstantiationBlockImpl$favor_ff/BPortImpl$dout_to_ArchitectureBlockImpl$rvarbiter2_fpga/AssignmentBlockImpl$tid/GPortImpl$favorIN" class="sprotty-edge edge" style="fill:none;stroke:rgb(112, 112, 112);stroke-linejoin:round;"><g><path d="M 368.8125 238 L 408.8125 238 "/><path d="M 368.8125 238 L 408.8125 238 " class="clickable"/></g></g><g id="sprotty_ArchitectureBlockImpl$rvarbiter2_fpga/AssignmentBlockImpl$tid" class="statement" transform="translate(408.8125, 208)"><rect x="0" y="0" rx="10" ry="5" width="19.4375" height="40" class="sprotty-node" style="fill:rgb(245, 245, 245);stroke:rgb(112, 112, 112);"/><text class="clickable sprotty-label statementtype" id="sprotty_ArchitectureBlockImpl$rvarbiter2_fpga/AssignmentBlockImpl$tid/labeltype" transform="translate(5, 14) translate(4.71875, 9.5)" style="cursor:default;font-size:8px;font-weight:700;perspective-origin:0px 0px;fill:rgb(112, 112, 112);text-anchor:middle;">&lt;=</text><g id="sprotty_ArchitectureBlockImpl$rvarbiter2_fpga/AssignmentBlockImpl$tid/GPortImpl$readyIN" class="sprotty-hidden hidden" transform="translate(0, 10)" style="display:block;height:0px;width:0px;"/><g id="sprotty_ArchitectureBlockImpl$rvarbiter2_fpga/AssignmentBlockImpl$tid/GPortImpl$favorIN" class="sprotty-hidden hidden" transform="translate(0, 30)" style="display:block;height:0px;width:0px;"/><g id="sprotty_ArchitectureBlockImpl$rvarbiter2_fpga/AssignmentBlockImpl$tid/GPortImpl$ready2IN" class="sprotty-hidden hidden" transform="translate(0, 20)" style="display:block;height:0px;width:0px;"/><g id="sprotty_ArchitectureBlockImpl$rvarbiter2_fpga/AssignmentBlockImpl$tid/GPortImpl$tidOUT" class="sprotty-hidden hidden" transform="translate(19.4375, 20)" style="display:block;height:0px;width:0px;"/></g><g id="sprotty_ArchitectureBlockImpl$rvarbiter2_fpga/AssignmentBlockImpl$favor_in" class="statement" transform="translate(147.28125, 100)"><rect x="0" y="0" rx="10" ry="5" width="19.4375" height="60" class="sprotty-node" style="fill:rgb(245, 245, 245);stroke:rgb(112, 112, 112);"/><text class="clickable sprotty-label statementtype" id="sprotty_ArchitectureBlockImpl$rvarbiter2_fpga/AssignmentBlockImpl$favor_in/labeltype" transform="translate(5, 24) translate(4.71875, 9.5)" style="cursor:default;font-size:8px;font-weight:700;perspective-origin:0px 0px;fill:rgb(112, 112, 112);text-anchor:middle;">&lt;=</text><g id="sprotty_ArchitectureBlockImpl$rvarbiter2_fpga/AssignmentBlockImpl$favor_in/GPortImpl$ready0IN" class="sprotty-hidden hidden" transform="translate(0, 40)" style="display:block;height:0px;width:0px;"/><g id="sprotty_ArchitectureBlockImpl$rvarbiter2_fpga/AssignmentBlockImpl$favor_in/GPortImpl$readyIN" class="sprotty-hidden hidden" transform="translate(0, 30)" style="display:block;height:0px;width:0px;"/><g id="sprotty_ArchitectureBlockImpl$rvarbiter2_fpga/AssignmentBlockImpl$favor_in/GPortImpl$ready1IN" class="sprotty-hidden hidden" transform="translate(0, 50)" style="display:block;height:0px;width:0px;"/><g id="sprotty_ArchitectureBlockImpl$rvarbiter2_fpga/AssignmentBlockImpl$favor_in/GPortImpl$favorIN" class="sprotty-hidden hidden" transform="translate(0, 10)" style="display:block;height:0px;width:0px;"/><g id="sprotty_ArchitectureBlockImpl$rvarbiter2_fpga/AssignmentBlockImpl$favor_in/GPortImpl$ready2IN" class="sprotty-hidden hidden" transform="translate(0, 20)" style="display:block;height:0px;width:0px;"/><g id="sprotty_ArchitectureBlockImpl$rvarbiter2_fpga/AssignmentBlockImpl$favor_in/GPortImpl$favorOUT" class="sprotty-hidden hidden" transform="translate(19.4375, 30)" style="display:block;height:0px;width:0px;"/></g><g id="sprotty_ArchitectureBlockImpl$rvarbiter2_fpga/AssignmentBlockImpl$ready2" class="statement" transform="translate(77.84375, 52)"><rect x="0" y="0" rx="10" ry="5" width="19.4375" height="22" class="sprotty-node" style="fill:rgb(245, 245, 245);stroke:rgb(112, 112, 112);"/><text class="clickable sprotty-label statementtype" id="sprotty_ArchitectureBlockImpl$rvarbiter2_fpga/AssignmentBlockImpl$ready2/labeltype" transform="translate(5, 5) translate(4.71875, 9.5)" style="cursor:default;font-size:8px;font-weight:700;perspective-origin:0px 0px;fill:rgb(112, 112, 112);text-anchor:middle;">&lt;=</text><g id="sprotty_ArchitectureBlockImpl$rvarbiter2_fpga/AssignmentBlockImpl$ready2/GPortImpl$readyIN" class="sprotty-hidden hidden" transform="translate(0, 11)" style="display:block;height:0px;width:0px;"/><g id="sprotty_ArchitectureBlockImpl$rvarbiter2_fpga/AssignmentBlockImpl$ready2/GPortImpl$ready2OUT" class="sprotty-hidden hidden" transform="translate(19.4375, 11)" style="display:block;height:0px;width:0px;"/></g><g id="sprotty_ArchitectureBlockImpl$rvarbiter2_fpga/AssignmentBlockImpl$ready1" class="statement" transform="translate(77.84375, 139)"><rect x="0" y="0" rx="10" ry="5" width="19.4375" height="22" class="sprotty-node" style="fill:rgb(245, 245, 245);stroke:rgb(112, 112, 112);"/><text class="clickable sprotty-label statementtype" id="sprotty_ArchitectureBlockImpl$rvarbiter2_fpga/AssignmentBlockImpl$ready1/labeltype" transform="translate(5, 5) translate(4.71875, 9.5)" style="cursor:default;font-size:8px;font-weight:700;perspective-origin:0px 0px;fill:rgb(112, 112, 112);text-anchor:middle;">&lt;=</text><g id="sprotty_ArchitectureBlockImpl$rvarbiter2_fpga/AssignmentBlockImpl$ready1/GPortImpl$readyIN" class="sprotty-hidden hidden" transform="translate(0, 11)" style="display:block;height:0px;width:0px;"/><g id="sprotty_ArchitectureBlockImpl$rvarbiter2_fpga/AssignmentBlockImpl$ready1/GPortImpl$ready1OUT" class="sprotty-hidden hidden" transform="translate(19.4375, 11)" style="display:block;height:0px;width:0px;"/></g><g id="sprotty_ArchitectureBlockImpl$rvarbiter2_fpga/AssignmentBlockImpl$ready0" class="statement" transform="translate(77.84375, 97)"><rect x="0" y="0" rx="10" ry="5" width="19.4375" height="22" class="sprotty-node" style="fill:rgb(245, 245, 245);stroke:rgb(112, 112, 112);"/><text class="clickable sprotty-label statementtype" id="sprotty_ArchitectureBlockImpl$rvarbiter2_fpga/AssignmentBlockImpl$ready0/labeltype" transform="translate(5, 5) translate(4.71875, 9.5)" style="cursor:default;font-size:8px;font-weight:700;perspective-origin:0px 0px;fill:rgb(112, 112, 112);text-anchor:middle;">&lt;=</text><g id="sprotty_ArchitectureBlockImpl$rvarbiter2_fpga/AssignmentBlockImpl$ready0/GPortImpl$readyIN" class="sprotty-hidden hidden" transform="translate(0, 11)" style="display:block;height:0px;width:0px;"/><g id="sprotty_ArchitectureBlockImpl$rvarbiter2_fpga/AssignmentBlockImpl$ready0/GPortImpl$ready0OUT" class="sprotty-hidden hidden" transform="translate(19.4375, 11)" style="display:block;height:0px;width:0px;"/></g><g id="sprotty_ArchitectureBlockImpl$rvarbiter2_fpga/InstantiationBlockImpl$favor_ff" class="instantiation" transform="translate(196.71875, 130)"><g class="sprotty-block" style="fill:rgb(255, 255, 255);stroke:rgb(48, 48, 48);stroke-dasharray:0px;"><rect x="0" y="0" rx="1" ry="1" width="172.09375" height="196"/><text x="86.046875" y="12" class="sprotty-block-name" style="cursor:pointer;font-weight:700;perspective-origin:86.0469px 0px;fill:rgb(48, 48, 48);stroke:rgba(0, 0, 0, 0);dominant-baseline:middle;text-anchor:middle;">favor_ff : rvdffs_fpga</text><line x1="0" y1="20" x2="172.09375" y2="20"/></g><g id="sprotty_ArchitectureBlockImpl$rvarbiter2_fpga/InstantiationBlockImpl$favor_ff/BPortImpl$rst_l" class="triangle" transform="translate(0, 178)"><path d="M 0,0 L 5,2.5 L 0,5 Z" transform="translate(-1.67, -2.5)" class="sprotty-port" style="fill:rgb(48, 48, 48);stroke:rgb(48, 48, 48);"/><text class="clickable sprotty-label port" id="sprotty_ArchitectureBlockImpl$rvarbiter2_fpga/InstantiationBlockImpl$favor_ff/BPortImpl$rst_l/label" transform="translate(6, -9) translate(12.3125, 14)" style="cursor:default;font-size:12px;perspective-origin:0px 0px;fill:rgb(48, 48, 48);text-anchor:middle;">rst_l</text></g><g id="sprotty_ArchitectureBlockImpl$rvarbiter2_fpga/InstantiationBlockImpl$favor_ff/BPortImpl$rawclk" class="triangle" transform="translate(0, 150)"><path d="M 0,0 L 5,2.5 L 0,5 Z" transform="translate(-1.67, -2.5)" class="sprotty-port" style="fill:rgb(48, 48, 48);stroke:rgb(48, 48, 48);"/><text class="clickable sprotty-label port" id="sprotty_ArchitectureBlockImpl$rvarbiter2_fpga/InstantiationBlockImpl$favor_ff/BPortImpl$rawclk/label" transform="translate(6, -9) translate(18.421875, 14)" style="cursor:default;font-size:12px;perspective-origin:0px 0px;fill:rgb(48, 48, 48);text-anchor:middle;">rawclk</text></g><g id="sprotty_ArchitectureBlockImpl$rvarbiter2_fpga/InstantiationBlockImpl$favor_ff/BPortImpl$clken" class="triangle" transform="translate(0, 122)"><path d="M 0,0 L 5,2.5 L 0,5 Z" transform="translate(-1.67, -2.5)" class="sprotty-port" style="fill:rgb(48, 48, 48);stroke:rgb(48, 48, 48);"/><text class="clickable sprotty-label port" id="sprotty_ArchitectureBlockImpl$rvarbiter2_fpga/InstantiationBlockImpl$favor_ff/BPortImpl$clken/label" transform="translate(6, -9) translate(14.953125, 14)" style="cursor:default;font-size:12px;perspective-origin:0px 0px;fill:rgb(48, 48, 48);text-anchor:middle;">clken</text></g><g id="sprotty_ArchitectureBlockImpl$rvarbiter2_fpga/InstantiationBlockImpl$favor_ff/BPortImpl$clk" class="triangle" transform="translate(0, 94)"><path d="M 0,0 L 5,2.5 L 0,5 Z" transform="translate(-1.67, -2.5)" class="sprotty-port" style="fill:rgb(48, 48, 48);stroke:rgb(48, 48, 48);"/><text class="clickable sprotty-label port" id="sprotty_ArchitectureBlockImpl$rvarbiter2_fpga/InstantiationBlockImpl$favor_ff/BPortImpl$clk/label" transform="translate(6, -9) translate(8.078125, 14)" style="cursor:default;font-size:12px;perspective-origin:0px 0px;fill:rgb(48, 48, 48);text-anchor:middle;">clk</text></g><g id="sprotty_ArchitectureBlockImpl$rvarbiter2_fpga/InstantiationBlockImpl$favor_ff/BPortImpl$en" class="triangle" transform="translate(0, 66)"><path d="M 0,0 L 5,2.5 L 0,5 Z" transform="translate(-1.67, -2.5)" class="sprotty-port" style="fill:rgb(48, 48, 48);stroke:rgb(48, 48, 48);"/><text class="clickable sprotty-label port" id="sprotty_ArchitectureBlockImpl$rvarbiter2_fpga/InstantiationBlockImpl$favor_ff/BPortImpl$en/label" transform="translate(6, -9) translate(7, 14)" style="cursor:default;font-size:12px;perspective-origin:0px 0px;fill:rgb(48, 48, 48);text-anchor:middle;">en</text></g><g id="sprotty_ArchitectureBlockImpl$rvarbiter2_fpga/InstantiationBlockImpl$favor_ff/BPortImpl$din" class="triangle" transform="translate(0, 38)"><path d="M 0,0 L 5,2.5 L 0,5 Z" transform="translate(-1.67, -2.5)" class="sprotty-port" style="fill:rgb(48, 48, 48);stroke:rgb(48, 48, 48);"/><text class="clickable sprotty-label port" id="sprotty_ArchitectureBlockImpl$rvarbiter2_fpga/InstantiationBlockImpl$favor_ff/BPortImpl$din/label" transform="translate(6, -9) translate(9.046875, 14)" style="cursor:default;font-size:12px;perspective-origin:0px 0px;fill:rgb(48, 48, 48);text-anchor:middle;">din</text></g><g id="sprotty_ArchitectureBlockImpl$rvarbiter2_fpga/InstantiationBlockImpl$favor_ff/BPortImpl$dout" class="triangle" transform="translate(172.09375, 108)"><path d="M 0,0 L 5,2.5 L 0,5 Z" transform="translate(-1.67, -2.5)" class="sprotty-port" style="fill:rgb(48, 48, 48);stroke:rgb(48, 48, 48);"/><text class="clickable sprotty-label port" id="sprotty_ArchitectureBlockImpl$rvarbiter2_fpga/InstantiationBlockImpl$favor_ff/BPortImpl$dout/label" transform="translate(-32.53125, -9) translate(13.265625, 14)" style="cursor:default;font-size:12px;perspective-origin:0px 0px;fill:rgb(48, 48, 48);text-anchor:middle;">dout</text></g></g><g id="sprotty_ArchitectureBlockImpl$rvarbiter2_fpga/BPortImpl$scan_mode" class="triangle" transform="translate(0, 352)"><path d="M 0,0 L 5,2.5 L 0,5 Z" transform="translate(-1.67, -2.5)" class="sprotty-port" style="fill:rgb(48, 48, 48);stroke:rgb(48, 48, 48);"/><text class="clickable sprotty-label port" id="sprotty_ArchitectureBlockImpl$rvarbiter2_fpga/BPortImpl$scan_mode/label" transform="translate(6, 6) translate(32.4375, 14)" style="cursor:default;font-size:12px;perspective-origin:0px 0px;fill:rgb(48, 48, 48);text-anchor:middle;">scan_mode</text></g><g id="sprotty_ArchitectureBlockImpl$rvarbiter2_fpga/BPortImpl$rst_l" class="triangle" transform="translate(0, 308)"><path d="M 0,0 L 5,2.5 L 0,5 Z" transform="translate(-1.67, -2.5)" class="sprotty-port" style="fill:rgb(48, 48, 48);stroke:rgb(48, 48, 48);"/><text class="clickable sprotty-label port" id="sprotty_ArchitectureBlockImpl$rvarbiter2_fpga/BPortImpl$rst_l/label" transform="translate(6, 6) translate(12.3125, 14)" style="cursor:default;font-size:12px;perspective-origin:0px 0px;fill:rgb(48, 48, 48);text-anchor:middle;">rst_l</text></g><g id="sprotty_ArchitectureBlockImpl$rvarbiter2_fpga/BPortImpl$clken" class="triangle" transform="translate(0, 240)"><path d="M 0,0 L 5,2.5 L 0,5 Z" transform="translate(-1.67, -2.5)" class="sprotty-port" style="fill:rgb(48, 48, 48);stroke:rgb(48, 48, 48);"/><text class="clickable sprotty-label port" id="sprotty_ArchitectureBlockImpl$rvarbiter2_fpga/BPortImpl$clken/label" transform="translate(6, 6) translate(14.953125, 14)" style="cursor:default;font-size:12px;perspective-origin:0px 0px;fill:rgb(48, 48, 48);text-anchor:middle;">clken</text></g><g id="sprotty_ArchitectureBlockImpl$rvarbiter2_fpga/BPortImpl$rawclk" class="triangle" transform="translate(0, 274)"><path d="M 0,0 L 5,2.5 L 0,5 Z" transform="translate(-1.67, -2.5)" class="sprotty-port" style="fill:rgb(48, 48, 48);stroke:rgb(48, 48, 48);"/><text class="clickable sprotty-label port" id="sprotty_ArchitectureBlockImpl$rvarbiter2_fpga/BPortImpl$rawclk/label" transform="translate(6, 6) translate(18.421875, 14)" style="cursor:default;font-size:12px;perspective-origin:0px 0px;fill:rgb(48, 48, 48);text-anchor:middle;">rawclk</text></g><g id="sprotty_ArchitectureBlockImpl$rvarbiter2_fpga/BPortImpl$clk" class="triangle" transform="translate(0, 206)"><path d="M 0,0 L 5,2.5 L 0,5 Z" transform="translate(-1.67, -2.5)" class="sprotty-port" style="fill:rgb(48, 48, 48);stroke:rgb(48, 48, 48);"/><text class="clickable sprotty-label port" id="sprotty_ArchitectureBlockImpl$rvarbiter2_fpga/BPortImpl$clk/label" transform="translate(6, 6) translate(8.078125, 14)" style="cursor:default;font-size:12px;perspective-origin:0px 0px;fill:rgb(48, 48, 48);text-anchor:middle;">clk</text></g><g id="sprotty_ArchitectureBlockImpl$rvarbiter2_fpga/BPortImpl$shift" class="triangle" transform="translate(0, 172)"><path d="M 0,0 L 5,2.5 L 0,5 Z" transform="translate(-1.67, -2.5)" class="sprotty-port" style="fill:rgb(48, 48, 48);stroke:rgb(48, 48, 48);"/><text class="clickable sprotty-label port" id="sprotty_ArchitectureBlockImpl$rvarbiter2_fpga/BPortImpl$shift/label" transform="translate(6, 6) translate(12.3125, 14)" style="cursor:default;font-size:12px;perspective-origin:0px 0px;fill:rgb(48, 48, 48);text-anchor:middle;">shift</text></g><g id="sprotty_ArchitectureBlockImpl$rvarbiter2_fpga/BPortImpl$ready" class="triangle" transform="translate(0, 85)"><path d="M 0,0 L 5,2.5 L 0,5 Z" transform="translate(-1.67, -2.5)" class="sprotty-port" style="fill:rgb(48, 48, 48);stroke:rgb(48, 48, 48);"/><text class="clickable sprotty-label port" id="sprotty_ArchitectureBlockImpl$rvarbiter2_fpga/BPortImpl$ready/label" transform="translate(6, 6) translate(15.734375, 14)" style="cursor:default;font-size:12px;perspective-origin:0px 0px;fill:rgb(48, 48, 48);text-anchor:middle;">ready</text></g><g id="sprotty_ArchitectureBlockImpl$rvarbiter2_fpga/BPortImpl$tid" class="triangle" transform="translate(464.53125, 228)"><path d="M 0,0 L 5,2.5 L 0,5 Z" transform="translate(-1.67, -2.5)" class="sprotty-port" style="fill:rgb(48, 48, 48);stroke:rgb(48, 48, 48);"/><text class="clickable sprotty-label port" id="sprotty_ArchitectureBlockImpl$rvarbiter2_fpga/BPortImpl$tid/label" transform="translate(-21.28125, 6) translate(7.640625, 14)" style="cursor:default;font-size:12px;perspective-origin:0px 0px;fill:rgb(48, 48, 48);text-anchor:middle;">tid</text></g></g></g></svg>