<svg xmlns="http://www.w3.org/2000/svg" id="sprotty_work.rvdfflie" class="sprotty-graph sprotty-block-diagram blockdiagram" style="font-family:&quot;Noto Sans&quot;, Helvetica, Arial, sans-serif;perspective-origin:0px 0px;transform-origin:0px 0px;" version="1.1" viewBox="7 7 425.15625 446" width="425.15625" height="446"><g transform="scale(1) translate(0,0)"><g id="sprotty_ArchitectureBlockImpl$rvdfflie" class="architecture" transform="translate(12, 12)"><g class="sprotty-block" style="fill:rgb(255, 255, 255);stroke:rgb(48, 48, 48);stroke-dasharray:0px;"><rect x="0" y="0" rx="1" ry="1" width="415.15625" height="436"/><text x="207.578125" y="12" class="sprotty-block-name" style="cursor:pointer;font-weight:700;perspective-origin:207.578px 0px;fill:rgb(48, 48, 48);stroke:rgba(0, 0, 0, 0);dominant-baseline:middle;text-anchor:middle;">rvdfflie</text><line x1="0" y1="20" x2="415.15625" y2="20"/></g><g id="sprotty_ArchitectureBlockImpl$rvdfflie/GenerateStatementBlockImpl$null6/GPortImpl$dout_to_ArchitectureBlockImpl$rvdfflie/BPortImpl$dout" class="sprotty-edge thick edge" style="fill:none;stroke:rgb(112, 112, 112);stroke-linejoin:round;stroke-width:3px;"><g><path d="M 367.625 144 L 415.15625 144 "/><path d="M 367.625 144 L 415.15625 144 " class="clickable"/></g></g><g id="sprotty_ArchitectureBlockImpl$rvdfflie/BPortImpl$din_to_ArchitectureBlockImpl$rvdfflie/GenerateStatementBlockImpl$null6/GPortImpl$din" class="sprotty-edge thick edge" style="fill:none;stroke:rgb(112, 112, 112);stroke-linejoin:round;stroke-width:3px;"><g><path d="M 0 48 L 103.875 48 C 104.875 48 105.875 49 105.875 50 L 105.875 94 C 105.875 95 106.875 96 107.875 96 L 115.875 96 "/><path d="M 0 48 L 103.875 48 C 104.875 48 105.875 49 105.875 50 L 105.875 94 C 105.875 95 106.875 96 107.875 96 L 115.875 96 " class="clickable"/></g></g><g id="sprotty_ArchitectureBlockImpl$rvdfflie/BPortImpl$clk_to_ArchitectureBlockImpl$rvdfflie/GenerateStatementBlockImpl$null6/GPortImpl$clk" class="sprotty-edge edge" style="fill:none;stroke:rgb(112, 112, 112);stroke-linejoin:round;"><g><path d="M 0 82 L 93.875 82 C 94.875 82 95.875 83 95.875 84 L 95.875 104 C 95.875 105 96.875 106 97.875 106 L 115.875 106 "/><path d="M 0 82 L 93.875 82 C 94.875 82 95.875 83 95.875 84 L 95.875 104 C 95.875 105 96.875 106 97.875 106 L 115.875 106 " class="clickable"/></g></g><g id="sprotty_ArchitectureBlockImpl$rvdfflie/BPortImpl$rst_l_to_ArchitectureBlockImpl$rvdfflie/GenerateStatementBlockImpl$null6/GPortImpl$rst_l" class="sprotty-edge edge" style="fill:none;stroke:rgb(112, 112, 112);stroke-linejoin:round;"><g><path d="M 0 172 L 115.875 172 "/><path d="M 0 172 L 115.875 172 " class="clickable"/></g></g><g id="sprotty_ArchitectureBlockImpl$rvdfflie/BPortImpl$scan_mode_to_ArchitectureBlockImpl$rvdfflie/GenerateStatementBlockImpl$null6/GPortImpl$scan_mode" class="sprotty-edge edge" style="fill:none;stroke:rgb(112, 112, 112);stroke-linejoin:round;"><g><path d="M 0 206 L 93.875 206 C 94.875 206 95.875 205 95.875 204 L 95.875 202 C 95.875 201 96.875 200 97.875 200 L 115.875 200 "/><path d="M 0 206 L 93.875 206 C 94.875 206 95.875 205 95.875 204 L 95.875 202 C 95.875 201 96.875 200 97.875 200 L 115.875 200 " class="clickable"/></g></g><g id="sprotty_ArchitectureBlockImpl$rvdfflie/BPortImpl$en_to_ArchitectureBlockImpl$rvdfflie/GenerateStatementBlockImpl$null6/GPortImpl$en" class="sprotty-edge edge" style="fill:none;stroke:rgb(112, 112, 112);stroke-linejoin:round;"><g><path d="M 0 116 L 115.875 116 "/><path d="M 0 116 L 115.875 116 " class="clickable"/></g></g><g id="sprotty_ArchitectureBlockImpl$rvdfflie/GenerateStatementBlockImpl$null6" class="generate" transform="translate(115.875, 35)"><g class="sprotty-block sprotty-block-generate" style="fill:rgb(255, 255, 255);stroke:rgb(48, 48, 48);stroke-dasharray:0px;"><rect x="0" y="0" rx="1" ry="1" width="251.75" height="386" style="stroke-dasharray:3px, 1px;"/><text x="125.875" y="12" class="sprotty-block-name" style="cursor:pointer;font-weight:700;fill:rgb(48, 48, 48);stroke:rgba(0, 0, 0, 0);dominant-baseline:middle;text-anchor:middle;"/></g><g id="sprotty_ArchitectureBlockImpl$rvdfflie/GenerateStatementBlockImpl$null6/InstantiationBlockImpl$dff_left/BPortImpl$dout_to_ArchitectureBlockImpl$rvdfflie/GenerateStatementBlockImpl$null6/GPortImpl$dout" class="sprotty-edge thick edge" style="fill:none;stroke:rgb(112, 112, 112);stroke-linejoin:round;stroke-width:3px;"><g><path d="M 216.75 297 L 224.75 297 C 225.75 297 226.75 296 226.75 295 L 226.75 111 C 226.75 110 227.75 109 228.75 109 L 251.75 109 "/><path d="M 216.75 297 L 224.75 297 C 225.75 297 226.75 296 226.75 295 L 226.75 111 C 226.75 110 227.75 109 228.75 109 L 251.75 109 " class="clickable"/></g><circle r="3" id="sprotty_ArchitectureBlockImpl$rvdfflie/GenerateStatementBlockImpl$null6/InstantiationBlockImpl$dff_left/BPortImpl$dout_to_ArchitectureBlockImpl$rvdfflie/GenerateStatementBlockImpl$null6/GPortImpl$dout/junction0" transform="translate(226.75, 109)" class="sprotty-junction thick" style="fill:rgb(112, 112, 112);stroke:none;"/></g><g id="sprotty_ArchitectureBlockImpl$rvdfflie/GenerateStatementBlockImpl$null6/InstantiationBlockImpl$dff_extra/BPortImpl$dout_to_ArchitectureBlockImpl$rvdfflie/GenerateStatementBlockImpl$null6/GPortImpl$dout" class="sprotty-edge thick edge" style="fill:none;stroke:rgb(112, 112, 112);stroke-linejoin:round;stroke-width:3px;"><g><path d="M 216.75 109 L 251.75 109 "/><path d="M 216.75 109 L 251.75 109 " class="clickable"/></g></g><g id="sprotty_ArchitectureBlockImpl$rvdfflie/GenerateStatementBlockImpl$null6/GPortImpl$din_to_ArchitectureBlockImpl$rvdfflie/GenerateStatementBlockImpl$null6/InstantiationBlockImpl$dff_left/BPortImpl$din" class="sprotty-edge thick edge" style="fill:none;stroke:rgb(112, 112, 112);stroke-linejoin:round;stroke-width:3px;"><g><path d="M 0 61 L 63 61 C 64 61 65 62 65 63 L 65 239 C 65 240 66 241 67 241 L 75 241 "/><path d="M 0 61 L 63 61 C 64 61 65 62 65 63 L 65 239 C 65 240 66 241 67 241 L 75 241 " class="clickable"/></g><circle r="3" id="sprotty_ArchitectureBlockImpl$rvdfflie/GenerateStatementBlockImpl$null6/GPortImpl$din_to_ArchitectureBlockImpl$rvdfflie/GenerateStatementBlockImpl$null6/InstantiationBlockImpl$dff_left/BPortImpl$din/junction0" transform="translate(65, 61)" class="sprotty-junction thick" style="fill:rgb(112, 112, 112);stroke:none;"/></g><g id="sprotty_ArchitectureBlockImpl$rvdfflie/GenerateStatementBlockImpl$null6/GPortImpl$clk_to_ArchitectureBlockImpl$rvdfflie/GenerateStatementBlockImpl$null6/InstantiationBlockImpl$dff_left/BPortImpl$clk" class="sprotty-edge edge" style="fill:none;stroke:rgb(112, 112, 112);stroke-linejoin:round;"><g><path d="M 0 71 L 53 71 C 54 71 55 72 55 73 L 55 267 C 55 268 56 269 57 269 L 75 269 "/><path d="M 0 71 L 53 71 C 54 71 55 72 55 73 L 55 267 C 55 268 56 269 57 269 L 75 269 " class="clickable"/></g></g><g id="sprotty_ArchitectureBlockImpl$rvdfflie/GenerateStatementBlockImpl$null6/GPortImpl$rst_l_to_ArchitectureBlockImpl$rvdfflie/GenerateStatementBlockImpl$null6/InstantiationBlockImpl$dff_left/BPortImpl$rst_l" class="sprotty-edge edge" style="fill:none;stroke:rgb(112, 112, 112);stroke-linejoin:round;"><g><path d="M 0 137 L 43 137 C 44 137 45 138 45 139 L 45 295 C 45 296 46 297 47 297 L 75 297 "/><path d="M 0 137 L 43 137 C 44 137 45 138 45 139 L 45 295 C 45 296 46 297 47 297 L 75 297 " class="clickable"/></g><circle r="2" id="sprotty_ArchitectureBlockImpl$rvdfflie/GenerateStatementBlockImpl$null6/GPortImpl$rst_l_to_ArchitectureBlockImpl$rvdfflie/GenerateStatementBlockImpl$null6/InstantiationBlockImpl$dff_left/BPortImpl$rst_l/junction0" transform="translate(45, 137)" class="sprotty-junction junction" style="fill:rgb(112, 112, 112);stroke:none;"/></g><g id="sprotty_ArchitectureBlockImpl$rvdfflie/GenerateStatementBlockImpl$null6/GPortImpl$scan_mode_to_ArchitectureBlockImpl$rvdfflie/GenerateStatementBlockImpl$null6/InstantiationBlockImpl$dff_left/BPortImpl$scan_mode" class="sprotty-edge edge" style="fill:none;stroke:rgb(112, 112, 112);stroke-linejoin:round;"><g><path d="M 0 165 L 33 165 C 34 165 35 166 35 167 L 35 323 C 35 324 36 325 37 325 L 75 325 "/><path d="M 0 165 L 33 165 C 34 165 35 166 35 167 L 35 323 C 35 324 36 325 37 325 L 75 325 " class="clickable"/></g><circle r="2" id="sprotty_ArchitectureBlockImpl$rvdfflie/GenerateStatementBlockImpl$null6/GPortImpl$scan_mode_to_ArchitectureBlockImpl$rvdfflie/GenerateStatementBlockImpl$null6/InstantiationBlockImpl$dff_left/BPortImpl$scan_mode/junction0" transform="translate(35, 165)" class="sprotty-junction junction" style="fill:rgb(112, 112, 112);stroke:none;"/></g><g id="sprotty_ArchitectureBlockImpl$rvdfflie/GenerateStatementBlockImpl$null6/GPortImpl$en_to_ArchitectureBlockImpl$rvdfflie/GenerateStatementBlockImpl$null6/InstantiationBlockImpl$dff_left/BPortImpl$en" class="sprotty-edge edge" style="fill:none;stroke:rgb(112, 112, 112);stroke-linejoin:round;"><g><path d="M 0 81 L 23 81 C 24 81 25 82 25 83 L 25 351 C 25 352 26 353 27 353 L 75 353 "/><path d="M 0 81 L 23 81 C 24 81 25 82 25 83 L 25 351 C 25 352 26 353 27 353 L 75 353 " class="clickable"/></g><circle r="2" id="sprotty_ArchitectureBlockImpl$rvdfflie/GenerateStatementBlockImpl$null6/GPortImpl$en_to_ArchitectureBlockImpl$rvdfflie/GenerateStatementBlockImpl$null6/InstantiationBlockImpl$dff_left/BPortImpl$en/junction0" transform="translate(25, 81)" class="sprotty-junction junction" style="fill:rgb(112, 112, 112);stroke:none;"/></g><g id="sprotty_ArchitectureBlockImpl$rvdfflie/GenerateStatementBlockImpl$null6/GPortImpl$din_to_ArchitectureBlockImpl$rvdfflie/GenerateStatementBlockImpl$null6/InstantiationBlockImpl$dff_extra/BPortImpl$din" class="sprotty-edge thick edge" style="fill:none;stroke:rgb(112, 112, 112);stroke-linejoin:round;stroke-width:3px;"><g><path d="M 0 61 L 63 61 C 64 61 65 60 65 59 L 65 55 C 65 54 66 53 67 53 L 75 53 "/><path d="M 0 61 L 63 61 C 64 61 65 60 65 59 L 65 55 C 65 54 66 53 67 53 L 75 53 " class="clickable"/></g></g><g id="sprotty_ArchitectureBlockImpl$rvdfflie/GenerateStatementBlockImpl$null6/GPortImpl$en_to_ArchitectureBlockImpl$rvdfflie/GenerateStatementBlockImpl$null6/InstantiationBlockImpl$dff_extra/BPortImpl$en" class="sprotty-edge edge" style="fill:none;stroke:rgb(112, 112, 112);stroke-linejoin:round;"><g><path d="M 0 81 L 75 81 "/><path d="M 0 81 L 75 81 " class="clickable"/></g></g><g id="sprotty_ArchitectureBlockImpl$rvdfflie/GenerateStatementBlockImpl$null6/GPortImpl$clk_to_ArchitectureBlockImpl$rvdfflie/GenerateStatementBlockImpl$null6/InstantiationBlockImpl$dff_extra/BPortImpl$clk" class="sprotty-edge edge" style="fill:none;stroke:rgb(112, 112, 112);stroke-linejoin:round;"><g><path d="M 0 71 L 53 71 C 54 71 55 72 55 73 L 55 107 C 55 108 56 109 57 109 L 75 109 "/><path d="M 0 71 L 53 71 C 54 71 55 72 55 73 L 55 107 C 55 108 56 109 57 109 L 75 109 " class="clickable"/></g><circle r="2" id="sprotty_ArchitectureBlockImpl$rvdfflie/GenerateStatementBlockImpl$null6/GPortImpl$clk_to_ArchitectureBlockImpl$rvdfflie/GenerateStatementBlockImpl$null6/InstantiationBlockImpl$dff_extra/BPortImpl$clk/junction0" transform="translate(55, 109)" class="sprotty-junction junction" style="fill:rgb(112, 112, 112);stroke:none;"/></g><g id="sprotty_ArchitectureBlockImpl$rvdfflie/GenerateStatementBlockImpl$null6/GPortImpl$rst_l_to_ArchitectureBlockImpl$rvdfflie/GenerateStatementBlockImpl$null6/InstantiationBlockImpl$dff_extra/BPortImpl$rst_l" class="sprotty-edge edge" style="fill:none;stroke:rgb(112, 112, 112);stroke-linejoin:round;"><g><path d="M 0 137 L 75 137 "/><path d="M 0 137 L 75 137 " class="clickable"/></g></g><g id="sprotty_ArchitectureBlockImpl$rvdfflie/GenerateStatementBlockImpl$null6/GPortImpl$scan_mode_to_ArchitectureBlockImpl$rvdfflie/GenerateStatementBlockImpl$null6/InstantiationBlockImpl$dff_extra/BPortImpl$scan_mode" class="sprotty-edge edge" style="fill:none;stroke:rgb(112, 112, 112);stroke-linejoin:round;"><g><path d="M 0 165 L 75 165 "/><path d="M 0 165 L 75 165 " class="clickable"/></g></g><g id="sprotty_ArchitectureBlockImpl$rvdfflie/GenerateStatementBlockImpl$null6/InstantiationBlockImpl$dff_extra" class="instantiation" transform="translate(75, 15)"><g class="sprotty-block" style="fill:rgb(255, 255, 255);stroke:rgb(48, 48, 48);stroke-dasharray:0px;"><rect x="0" y="0" rx="1" ry="1" width="141.75" height="168"/><text x="70.875" y="12" class="sprotty-block-name" style="cursor:pointer;font-weight:700;perspective-origin:70.875px 0px;fill:rgb(48, 48, 48);stroke:rgba(0, 0, 0, 0);dominant-baseline:middle;text-anchor:middle;">dff_extra : rvdffe</text><line x1="0" y1="20" x2="141.75" y2="20"/></g><g id="sprotty_ArchitectureBlockImpl$rvdfflie/GenerateStatementBlockImpl$null6/InstantiationBlockImpl$dff_extra/BPortImpl$scan_mode" class="triangle" transform="translate(0, 150)"><path d="M 0,0 L 5,2.5 L 0,5 Z" transform="translate(-1.67, -2.5)" class="sprotty-port" style="fill:rgb(48, 48, 48);stroke:rgb(48, 48, 48);"/><text class="clickable sprotty-label port" id="sprotty_ArchitectureBlockImpl$rvdfflie/GenerateStatementBlockImpl$null6/InstantiationBlockImpl$dff_extra/BPortImpl$scan_mode/label" transform="translate(6, -9) translate(32.4375, 14)" style="cursor:default;font-size:12px;perspective-origin:0px 0px;fill:rgb(48, 48, 48);text-anchor:middle;">scan_mode</text></g><g id="sprotty_ArchitectureBlockImpl$rvdfflie/GenerateStatementBlockImpl$null6/InstantiationBlockImpl$dff_extra/BPortImpl$rst_l" class="triangle" transform="translate(0, 122)"><path d="M 0,0 L 5,2.5 L 0,5 Z" transform="translate(-1.67, -2.5)" class="sprotty-port" style="fill:rgb(48, 48, 48);stroke:rgb(48, 48, 48);"/><text class="clickable sprotty-label port" id="sprotty_ArchitectureBlockImpl$rvdfflie/GenerateStatementBlockImpl$null6/InstantiationBlockImpl$dff_extra/BPortImpl$rst_l/label" transform="translate(6, -9) translate(12.3125, 14)" style="cursor:default;font-size:12px;perspective-origin:0px 0px;fill:rgb(48, 48, 48);text-anchor:middle;">rst_l</text></g><g id="sprotty_ArchitectureBlockImpl$rvdfflie/GenerateStatementBlockImpl$null6/InstantiationBlockImpl$dff_extra/BPortImpl$clk" class="triangle" transform="translate(0, 94)"><path d="M 0,0 L 5,2.5 L 0,5 Z" transform="translate(-1.67, -2.5)" class="sprotty-port" style="fill:rgb(48, 48, 48);stroke:rgb(48, 48, 48);"/><text class="clickable sprotty-label port" id="sprotty_ArchitectureBlockImpl$rvdfflie/GenerateStatementBlockImpl$null6/InstantiationBlockImpl$dff_extra/BPortImpl$clk/label" transform="translate(6, -9) translate(8.078125, 14)" style="cursor:default;font-size:12px;perspective-origin:0px 0px;fill:rgb(48, 48, 48);text-anchor:middle;">clk</text></g><g id="sprotty_ArchitectureBlockImpl$rvdfflie/GenerateStatementBlockImpl$null6/InstantiationBlockImpl$dff_extra/BPortImpl$en" class="triangle" transform="translate(0, 66)"><path d="M 0,0 L 5,2.5 L 0,5 Z" transform="translate(-1.67, -2.5)" class="sprotty-port" style="fill:rgb(48, 48, 48);stroke:rgb(48, 48, 48);"/><text class="clickable sprotty-label port" id="sprotty_ArchitectureBlockImpl$rvdfflie/GenerateStatementBlockImpl$null6/InstantiationBlockImpl$dff_extra/BPortImpl$en/label" transform="translate(6, -9) translate(7, 14)" style="cursor:default;font-size:12px;perspective-origin:0px 0px;fill:rgb(48, 48, 48);text-anchor:middle;">en</text></g><g id="sprotty_ArchitectureBlockImpl$rvdfflie/GenerateStatementBlockImpl$null6/InstantiationBlockImpl$dff_extra/BPortImpl$din" class="triangle" transform="translate(0, 38)"><path d="M 0,0 L 5,2.5 L 0,5 Z" transform="translate(-1.67, -2.5)" class="sprotty-port" style="fill:rgb(48, 48, 48);stroke:rgb(48, 48, 48);"/><text class="clickable sprotty-label port" id="sprotty_ArchitectureBlockImpl$rvdfflie/GenerateStatementBlockImpl$null6/InstantiationBlockImpl$dff_extra/BPortImpl$din/label" transform="translate(6, -9) translate(9.046875, 14)" style="cursor:default;font-size:12px;perspective-origin:0px 0px;fill:rgb(48, 48, 48);text-anchor:middle;">din</text></g><g id="sprotty_ArchitectureBlockImpl$rvdfflie/GenerateStatementBlockImpl$null6/InstantiationBlockImpl$dff_extra/BPortImpl$dout" class="triangle" transform="translate(141.75, 94)"><path d="M 0,0 L 5,2.5 L 0,5 Z" transform="translate(-1.67, -2.5)" class="sprotty-port" style="fill:rgb(48, 48, 48);stroke:rgb(48, 48, 48);"/><text class="clickable sprotty-label port" id="sprotty_ArchitectureBlockImpl$rvdfflie/GenerateStatementBlockImpl$null6/InstantiationBlockImpl$dff_extra/BPortImpl$dout/label" transform="translate(-32.53125, -9) translate(13.265625, 14)" style="cursor:default;font-size:12px;perspective-origin:0px 0px;fill:rgb(48, 48, 48);text-anchor:middle;">dout</text></g></g><g id="sprotty_ArchitectureBlockImpl$rvdfflie/GenerateStatementBlockImpl$null6/InstantiationBlockImpl$dff_left" class="instantiation" transform="translate(75, 203)"><g class="sprotty-block" style="fill:rgb(255, 255, 255);stroke:rgb(48, 48, 48);stroke-dasharray:0px;"><rect x="0" y="0" rx="1" ry="1" width="141.75" height="168"/><text x="70.875" y="12" class="sprotty-block-name" style="cursor:pointer;font-weight:700;perspective-origin:70.875px 0px;fill:rgb(48, 48, 48);stroke:rgba(0, 0, 0, 0);dominant-baseline:middle;text-anchor:middle;">dff_left : rvdffiee</text><line x1="0" y1="20" x2="141.75" y2="20"/></g><g id="sprotty_ArchitectureBlockImpl$rvdfflie/GenerateStatementBlockImpl$null6/InstantiationBlockImpl$dff_left/BPortImpl$en" class="triangle" transform="translate(0, 150)"><path d="M 0,0 L 5,2.5 L 0,5 Z" transform="translate(-1.67, -2.5)" class="sprotty-port" style="fill:rgb(48, 48, 48);stroke:rgb(48, 48, 48);"/><text class="clickable sprotty-label port" id="sprotty_ArchitectureBlockImpl$rvdfflie/GenerateStatementBlockImpl$null6/InstantiationBlockImpl$dff_left/BPortImpl$en/label" transform="translate(6, -9) translate(7, 14)" style="cursor:default;font-size:12px;perspective-origin:0px 0px;fill:rgb(48, 48, 48);text-anchor:middle;">en</text></g><g id="sprotty_ArchitectureBlockImpl$rvdfflie/GenerateStatementBlockImpl$null6/InstantiationBlockImpl$dff_left/BPortImpl$scan_mode" class="triangle" transform="translate(0, 122)"><path d="M 0,0 L 5,2.5 L 0,5 Z" transform="translate(-1.67, -2.5)" class="sprotty-port" style="fill:rgb(48, 48, 48);stroke:rgb(48, 48, 48);"/><text class="clickable sprotty-label port" id="sprotty_ArchitectureBlockImpl$rvdfflie/GenerateStatementBlockImpl$null6/InstantiationBlockImpl$dff_left/BPortImpl$scan_mode/label" transform="translate(6, -9) translate(32.4375, 14)" style="cursor:default;font-size:12px;perspective-origin:0px 0px;fill:rgb(48, 48, 48);text-anchor:middle;">scan_mode</text></g><g id="sprotty_ArchitectureBlockImpl$rvdfflie/GenerateStatementBlockImpl$null6/InstantiationBlockImpl$dff_left/BPortImpl$rst_l" class="triangle" transform="translate(0, 94)"><path d="M 0,0 L 5,2.5 L 0,5 Z" transform="translate(-1.67, -2.5)" class="sprotty-port" style="fill:rgb(48, 48, 48);stroke:rgb(48, 48, 48);"/><text class="clickable sprotty-label port" id="sprotty_ArchitectureBlockImpl$rvdfflie/GenerateStatementBlockImpl$null6/InstantiationBlockImpl$dff_left/BPortImpl$rst_l/label" transform="translate(6, -9) translate(12.3125, 14)" style="cursor:default;font-size:12px;perspective-origin:0px 0px;fill:rgb(48, 48, 48);text-anchor:middle;">rst_l</text></g><g id="sprotty_ArchitectureBlockImpl$rvdfflie/GenerateStatementBlockImpl$null6/InstantiationBlockImpl$dff_left/BPortImpl$clk" class="triangle" transform="translate(0, 66)"><path d="M 0,0 L 5,2.5 L 0,5 Z" transform="translate(-1.67, -2.5)" class="sprotty-port" style="fill:rgb(48, 48, 48);stroke:rgb(48, 48, 48);"/><text class="clickable sprotty-label port" id="sprotty_ArchitectureBlockImpl$rvdfflie/GenerateStatementBlockImpl$null6/InstantiationBlockImpl$dff_left/BPortImpl$clk/label" transform="translate(6, -9) translate(8.078125, 14)" style="cursor:default;font-size:12px;perspective-origin:0px 0px;fill:rgb(48, 48, 48);text-anchor:middle;">clk</text></g><g id="sprotty_ArchitectureBlockImpl$rvdfflie/GenerateStatementBlockImpl$null6/InstantiationBlockImpl$dff_left/BPortImpl$din" class="triangle" transform="translate(0, 38)"><path d="M 0,0 L 5,2.5 L 0,5 Z" transform="translate(-1.67, -2.5)" class="sprotty-port" style="fill:rgb(48, 48, 48);stroke:rgb(48, 48, 48);"/><text class="clickable sprotty-label port" id="sprotty_ArchitectureBlockImpl$rvdfflie/GenerateStatementBlockImpl$null6/InstantiationBlockImpl$dff_left/BPortImpl$din/label" transform="translate(6, -9) translate(9.046875, 14)" style="cursor:default;font-size:12px;perspective-origin:0px 0px;fill:rgb(48, 48, 48);text-anchor:middle;">din</text></g><g id="sprotty_ArchitectureBlockImpl$rvdfflie/GenerateStatementBlockImpl$null6/InstantiationBlockImpl$dff_left/BPortImpl$dout" class="triangle" transform="translate(141.75, 94)"><path d="M 0,0 L 5,2.5 L 0,5 Z" transform="translate(-1.67, -2.5)" class="sprotty-port" style="fill:rgb(48, 48, 48);stroke:rgb(48, 48, 48);"/><text class="clickable sprotty-label port" id="sprotty_ArchitectureBlockImpl$rvdfflie/GenerateStatementBlockImpl$null6/InstantiationBlockImpl$dff_left/BPortImpl$dout/label" transform="translate(-32.53125, -9) translate(13.265625, 14)" style="cursor:default;font-size:12px;perspective-origin:0px 0px;fill:rgb(48, 48, 48);text-anchor:middle;">dout</text></g></g><g id="sprotty_ArchitectureBlockImpl$rvdfflie/GenerateStatementBlockImpl$null6/GPortImpl$en" class="triangle" transform="translate(0, 81)"><path d="M 0,0 L 5,2.5 L 0,5 Z" transform="translate(-1.67, -2.5)" class="sprotty-port" style="fill:rgb(48, 48, 48);stroke:rgb(48, 48, 48);"/></g><g id="sprotty_ArchitectureBlockImpl$rvdfflie/GenerateStatementBlockImpl$null6/GPortImpl$scan_mode" class="triangle" transform="translate(0, 165)"><path d="M 0,0 L 5,2.5 L 0,5 Z" transform="translate(-1.67, -2.5)" class="sprotty-port" style="fill:rgb(48, 48, 48);stroke:rgb(48, 48, 48);"/></g><g id="sprotty_ArchitectureBlockImpl$rvdfflie/GenerateStatementBlockImpl$null6/GPortImpl$rst_l" class="triangle" transform="translate(0, 137)"><path d="M 0,0 L 5,2.5 L 0,5 Z" transform="translate(-1.67, -2.5)" class="sprotty-port" style="fill:rgb(48, 48, 48);stroke:rgb(48, 48, 48);"/></g><g id="sprotty_ArchitectureBlockImpl$rvdfflie/GenerateStatementBlockImpl$null6/GPortImpl$clk" class="triangle" transform="translate(0, 71)"><path d="M 0,0 L 5,2.5 L 0,5 Z" transform="translate(-1.67, -2.5)" class="sprotty-port" style="fill:rgb(48, 48, 48);stroke:rgb(48, 48, 48);"/></g><g id="sprotty_ArchitectureBlockImpl$rvdfflie/GenerateStatementBlockImpl$null6/GPortImpl$din" class="triangle" transform="translate(0, 61)"><path d="M 0,0 L 5,2.5 L 0,5 Z" transform="translate(-1.67, -2.5)" class="sprotty-port" style="fill:rgb(48, 48, 48);stroke:rgb(48, 48, 48);"/></g><g id="sprotty_ArchitectureBlockImpl$rvdfflie/GenerateStatementBlockImpl$null6/GPortImpl$dout" class="triangle" transform="translate(251.75, 109)"><path d="M 0,0 L 5,2.5 L 0,5 Z" transform="translate(-1.67, -2.5)" class="sprotty-port" style="fill:rgb(48, 48, 48);stroke:rgb(48, 48, 48);"/></g></g><g id="sprotty_ArchitectureBlockImpl$rvdfflie/BPortImpl$scan_mode" class="triangle" transform="translate(0, 206)"><path d="M 0,0 L 5,2.5 L 0,5 Z" transform="translate(-1.67, -2.5)" class="sprotty-port" style="fill:rgb(48, 48, 48);stroke:rgb(48, 48, 48);"/><text class="clickable sprotty-label port" id="sprotty_ArchitectureBlockImpl$rvdfflie/BPortImpl$scan_mode/label" transform="translate(6, 6) translate(32.4375, 14)" style="cursor:default;font-size:12px;perspective-origin:0px 0px;fill:rgb(48, 48, 48);text-anchor:middle;">scan_mode</text></g><g id="sprotty_ArchitectureBlockImpl$rvdfflie/BPortImpl$en" class="triangle" transform="translate(0, 116)"><path d="M 0,0 L 5,2.5 L 0,5 Z" transform="translate(-1.67, -2.5)" class="sprotty-port" style="fill:rgb(48, 48, 48);stroke:rgb(48, 48, 48);"/><text class="clickable sprotty-label port" id="sprotty_ArchitectureBlockImpl$rvdfflie/BPortImpl$en/label" transform="translate(6, 6) translate(7, 14)" style="cursor:default;font-size:12px;perspective-origin:0px 0px;fill:rgb(48, 48, 48);text-anchor:middle;">en</text></g><g id="sprotty_ArchitectureBlockImpl$rvdfflie/BPortImpl$rst_l" class="triangle" transform="translate(0, 172)"><path d="M 0,0 L 5,2.5 L 0,5 Z" transform="translate(-1.67, -2.5)" class="sprotty-port" style="fill:rgb(48, 48, 48);stroke:rgb(48, 48, 48);"/><text class="clickable sprotty-label port" id="sprotty_ArchitectureBlockImpl$rvdfflie/BPortImpl$rst_l/label" transform="translate(6, 6) translate(12.3125, 14)" style="cursor:default;font-size:12px;perspective-origin:0px 0px;fill:rgb(48, 48, 48);text-anchor:middle;">rst_l</text></g><g id="sprotty_ArchitectureBlockImpl$rvdfflie/BPortImpl$clk" class="triangle" transform="translate(0, 82)"><path d="M 0,0 L 5,2.5 L 0,5 Z" transform="translate(-1.67, -2.5)" class="sprotty-port" style="fill:rgb(48, 48, 48);stroke:rgb(48, 48, 48);"/><text class="clickable sprotty-label port" id="sprotty_ArchitectureBlockImpl$rvdfflie/BPortImpl$clk/label" transform="translate(6, 6) translate(8.078125, 14)" style="cursor:default;font-size:12px;perspective-origin:0px 0px;fill:rgb(48, 48, 48);text-anchor:middle;">clk</text></g><g id="sprotty_ArchitectureBlockImpl$rvdfflie/BPortImpl$din" class="triangle" transform="translate(0, 48)"><path d="M 0,0 L 5,2.5 L 0,5 Z" transform="translate(-1.67, -2.5)" class="sprotty-port" style="fill:rgb(48, 48, 48);stroke:rgb(48, 48, 48);"/><text class="clickable sprotty-label port" id="sprotty_ArchitectureBlockImpl$rvdfflie/BPortImpl$din/label" transform="translate(6, 6) translate(9.046875, 14)" style="cursor:default;font-size:12px;perspective-origin:0px 0px;fill:rgb(48, 48, 48);text-anchor:middle;">din</text></g><g id="sprotty_ArchitectureBlockImpl$rvdfflie/BPortImpl$dout" class="triangle" transform="translate(415.15625, 144)"><path d="M 0,0 L 5,2.5 L 0,5 Z" transform="translate(-1.67, -2.5)" class="sprotty-port" style="fill:rgb(48, 48, 48);stroke:rgb(48, 48, 48);"/><text class="clickable sprotty-label port" id="sprotty_ArchitectureBlockImpl$rvdfflie/BPortImpl$dout/label" transform="translate(-32.53125, 6) translate(13.265625, 14)" style="cursor:default;font-size:12px;perspective-origin:0px 0px;fill:rgb(48, 48, 48);text-anchor:middle;">dout</text></g></g></g></svg>