<svg xmlns="http://www.w3.org/2000/svg" id="sprotty_work.ram_3072x39" class="sprotty-graph sprotty-block-diagram blockdiagram" style="font-family:&quot;Noto Sans&quot;, Helvetica, Arial, sans-serif;perspective-origin:0px 0px;transform-origin:0px 0px;" version="1.1" viewBox="7 7 186.625 622" width="186.625" height="622"><g transform="scale(1) translate(0,0)"><g id="sprotty_ArchitectureBlockImpl$ram_3072x39" class="architecture" transform="translate(12, 12)"><g class="sprotty-block" style="fill:rgb(255, 255, 255);stroke:rgb(48, 48, 48);stroke-dasharray:0px;"><rect x="0" y="0" rx="1" ry="1" width="176.625" height="612"/><text x="88.3125" y="12" class="sprotty-block-name" style="cursor:pointer;font-weight:700;perspective-origin:88.3125px 0px;fill:rgb(48, 48, 48);stroke:rgba(0, 0, 0, 0);dominant-baseline:middle;text-anchor:middle;">ram_3072x39</text><line x1="0" y1="20" x2="176.625" y2="20"/></g><g id="sprotty_ArchitectureBlockImpl$ram_3072x39/AlwaysBlockImpl$null16/GPortImpl$ADROUT_to_ArchitectureBlockImpl$ram_3072x39/BPortImpl$ADR" class="sprotty-edge thick edge" style="fill:none;stroke:rgb(112, 112, 112);stroke-linejoin:round;stroke-width:3px;"><g><path d="M 111.5 113 L 119.5 113 C 120.5 113 121.5 114 121.5 115 L 121.5 141 C 121.5 142 120.5 143 119.5 143 L 0 143 "/><path d="M 111.5 113 L 119.5 113 C 120.5 113 121.5 114 121.5 115 L 121.5 141 C 121.5 142 120.5 143 119.5 143 L 0 143 " class="clickable"/></g></g><g id="sprotty_ArchitectureBlockImpl$ram_3072x39/AlwaysBlockImpl$null16/GPortImpl$QOUT_to_ArchitectureBlockImpl$ram_3072x39/BPortImpl$Q" class="sprotty-edge thick edge" style="fill:none;stroke:rgb(112, 112, 112);stroke-linejoin:round;stroke-width:3px;"><g><path d="M 111.5 93 L 176.625 93 "/><path d="M 111.5 93 L 176.625 93 " class="clickable"/></g></g><g id="sprotty_ArchitectureBlockImpl$ram_3072x39/AssignmentBlockImpl$ROP/GPortImpl$ROPOUT_to_ArchitectureBlockImpl$ram_3072x39/BPortImpl$ROP" class="sprotty-edge edge" style="fill:none;stroke:rgb(112, 112, 112);stroke-linejoin:round;"><g><path d="M 102.546875 177 L 176.625 177 "/><path d="M 102.546875 177 L 176.625 177 " class="clickable"/></g></g><g id="sprotty_ArchitectureBlockImpl$ram_3072x39/BPortImpl$ME_to_ArchitectureBlockImpl$ram_3072x39/AssignmentBlockImpl$ROP/GPortImpl$MEIN" class="sprotty-edge edge" style="fill:none;stroke:rgb(112, 112, 112);stroke-linejoin:round;"><g><path d="M 0 177 L 83.109375 177 "/><path d="M 0 177 L 83.109375 177 " class="clickable"/></g></g><g id="sprotty_ArchitectureBlockImpl$ram_3072x39/BPortImpl$CLK_to_ArchitectureBlockImpl$ram_3072x39/AlwaysBlockImpl$null16/GPortImpl$CLKIN" class="sprotty-edge edge" style="fill:none;stroke:rgb(112, 112, 112);stroke-linejoin:round;"><g><path d="M 0 35 L 62.15625 35 C 63.15625 35 64.15625 36 64.15625 37 L 64.15625 81 C 64.15625 82 65.15625 83 66.15625 83 L 74.15625 83 "/><path d="M 0 35 L 62.15625 35 C 63.15625 35 64.15625 36 64.15625 37 L 64.15625 81 C 64.15625 82 65.15625 83 66.15625 83 L 74.15625 83 " class="clickable"/></g></g><g id="sprotty_ArchitectureBlockImpl$ram_3072x39/BPortImpl$ME_to_ArchitectureBlockImpl$ram_3072x39/AlwaysBlockImpl$null16/GPortImpl$MEIN" class="sprotty-edge edge" style="fill:none;stroke:rgb(112, 112, 112);stroke-linejoin:round;"><g><path d="M 0 177 L 62.15625 177 C 63.15625 177 64.15625 176 64.15625 175 L 64.15625 125 C 64.15625 124 65.15625 123 66.15625 123 L 74.15625 123 "/><path d="M 0 177 L 62.15625 177 C 63.15625 177 64.15625 176 64.15625 175 L 64.15625 125 C 64.15625 124 65.15625 123 66.15625 123 L 74.15625 123 " class="clickable"/></g><circle r="2" id="sprotty_ArchitectureBlockImpl$ram_3072x39/BPortImpl$ME_to_ArchitectureBlockImpl$ram_3072x39/AlwaysBlockImpl$null16/GPortImpl$MEIN/junction0" transform="translate(64.15625, 177)" class="sprotty-junction junction" style="fill:rgb(112, 112, 112);stroke:none;"/></g><g id="sprotty_ArchitectureBlockImpl$ram_3072x39/BPortImpl$WE_to_ArchitectureBlockImpl$ram_3072x39/AlwaysBlockImpl$null16/GPortImpl$WEIN" class="sprotty-edge edge" style="fill:none;stroke:rgb(112, 112, 112);stroke-linejoin:round;"><g><path d="M 0 69 L 52.15625 69 C 53.15625 69 54.15625 70 54.15625 71 L 54.15625 91 C 54.15625 92 55.15625 93 56.15625 93 L 74.15625 93 "/><path d="M 0 69 L 52.15625 69 C 53.15625 69 54.15625 70 54.15625 71 L 54.15625 91 C 54.15625 92 55.15625 93 56.15625 93 L 74.15625 93 " class="clickable"/></g></g><g id="sprotty_ArchitectureBlockImpl$ram_3072x39/BPortImpl$D_to_ArchitectureBlockImpl$ram_3072x39/AlwaysBlockImpl$null16/GPortImpl$DIN" class="sprotty-edge thick edge" style="fill:none;stroke:rgb(112, 112, 112);stroke-linejoin:round;stroke-width:3px;"><g><path d="M 0 103 L 74.15625 103 "/><path d="M 0 103 L 74.15625 103 " class="clickable"/></g></g><g id="sprotty_ArchitectureBlockImpl$ram_3072x39/BPortImpl$ADR_to_ArchitectureBlockImpl$ram_3072x39/AlwaysBlockImpl$null16/GPortImpl$ADRIN" class="sprotty-edge thick edge" style="fill:none;stroke:rgb(112, 112, 112);stroke-linejoin:round;stroke-width:3px;"><g><path d="M 0 143 L 52.15625 143 C 53.15625 143 54.15625 142 54.15625 141 L 54.15625 115 C 54.15625 114 55.15625 113 56.15625 113 L 74.15625 113 "/><path d="M 0 143 L 52.15625 143 C 53.15625 143 54.15625 142 54.15625 141 L 54.15625 115 C 54.15625 114 55.15625 113 56.15625 113 L 74.15625 113 " class="clickable"/></g><circle r="3" id="sprotty_ArchitectureBlockImpl$ram_3072x39/BPortImpl$ADR_to_ArchitectureBlockImpl$ram_3072x39/AlwaysBlockImpl$null16/GPortImpl$ADRIN/junction0" transform="translate(54.15625, 143)" class="sprotty-junction thick" style="fill:rgb(112, 112, 112);stroke:none;"/></g><g id="sprotty_ArchitectureBlockImpl$ram_3072x39/AlwaysBlockImpl$null16" class="statement" transform="translate(74.15625, 73)"><rect x="0" y="0" rx="10" ry="5" width="37.34375" height="60" class="sprotty-node" style="fill:rgb(245, 245, 245);stroke:rgb(112, 112, 112);"/><text class="clickable sprotty-label statementtype" id="sprotty_ArchitectureBlockImpl$ram_3072x39/AlwaysBlockImpl$null16/labeltype" transform="translate(5, 24) translate(13.671875, 9.5)" style="cursor:default;font-size:8px;font-weight:700;perspective-origin:0px 0px;fill:rgb(112, 112, 112);text-anchor:middle;">always</text><g id="sprotty_ArchitectureBlockImpl$ram_3072x39/AlwaysBlockImpl$null16/GPortImpl$ADRIN" class="sprotty-hidden hidden" transform="translate(0, 40)" style="display:block;height:0px;width:0px;"/><g id="sprotty_ArchitectureBlockImpl$ram_3072x39/AlwaysBlockImpl$null16/GPortImpl$DIN" class="sprotty-hidden hidden" transform="translate(0, 30)" style="display:block;height:0px;width:0px;"/><g id="sprotty_ArchitectureBlockImpl$ram_3072x39/AlwaysBlockImpl$null16/GPortImpl$WEIN" class="sprotty-hidden hidden" transform="translate(0, 20)" style="display:block;height:0px;width:0px;"/><g id="sprotty_ArchitectureBlockImpl$ram_3072x39/AlwaysBlockImpl$null16/GPortImpl$MEIN" class="sprotty-hidden hidden" transform="translate(0, 50)" style="display:block;height:0px;width:0px;"/><g id="sprotty_ArchitectureBlockImpl$ram_3072x39/AlwaysBlockImpl$null16/GPortImpl$CLKIN" class="sprotty-hidden hidden" transform="translate(0, 10)" style="display:block;height:0px;width:0px;"/><g id="sprotty_ArchitectureBlockImpl$ram_3072x39/AlwaysBlockImpl$null16/GPortImpl$ADROUT" class="sprotty-hidden hidden" transform="translate(37.34375, 40)" style="display:block;height:0px;width:0px;"/><g id="sprotty_ArchitectureBlockImpl$ram_3072x39/AlwaysBlockImpl$null16/GPortImpl$QOUT" class="sprotty-hidden hidden" transform="translate(37.34375, 20)" style="display:block;height:0px;width:0px;"/></g><g id="sprotty_ArchitectureBlockImpl$ram_3072x39/AssignmentBlockImpl$ROP" class="statement" transform="translate(83.109375, 166)"><rect x="0" y="0" rx="10" ry="5" width="19.4375" height="22" class="sprotty-node" style="fill:rgb(245, 245, 245);stroke:rgb(112, 112, 112);"/><text class="clickable sprotty-label statementtype" id="sprotty_ArchitectureBlockImpl$ram_3072x39/AssignmentBlockImpl$ROP/labeltype" transform="translate(5, 5) translate(4.71875, 9.5)" style="cursor:default;font-size:8px;font-weight:700;perspective-origin:0px 0px;fill:rgb(112, 112, 112);text-anchor:middle;">&lt;=</text><g id="sprotty_ArchitectureBlockImpl$ram_3072x39/AssignmentBlockImpl$ROP/GPortImpl$MEIN" class="sprotty-hidden hidden" transform="translate(0, 11)" style="display:block;height:0px;width:0px;"/><g id="sprotty_ArchitectureBlockImpl$ram_3072x39/AssignmentBlockImpl$ROP/GPortImpl$ROPOUT" class="sprotty-hidden hidden" transform="translate(19.4375, 11)" style="display:block;height:0px;width:0px;"/></g><g id="sprotty_ArchitectureBlockImpl$ram_3072x39/BPortImpl$BC2" class="triangle" transform="translate(0, 221)"><path d="M 0,0 L 5,2.5 L 0,5 Z" transform="translate(-1.67, -2.5)" class="sprotty-port" style="fill:rgb(48, 48, 48);stroke:rgb(48, 48, 48);"/><text class="clickable sprotty-label port" id="sprotty_ArchitectureBlockImpl$ram_3072x39/BPortImpl$BC2/label" transform="translate(6, 6) translate(11.109375, 14)" style="cursor:default;font-size:12px;perspective-origin:0px 0px;fill:rgb(48, 48, 48);text-anchor:middle;">BC2</text></g><g id="sprotty_ArchitectureBlockImpl$ram_3072x39/BPortImpl$BC1" class="triangle" transform="translate(0, 265)"><path d="M 0,0 L 5,2.5 L 0,5 Z" transform="translate(-1.67, -2.5)" class="sprotty-port" style="fill:rgb(48, 48, 48);stroke:rgb(48, 48, 48);"/><text class="clickable sprotty-label port" id="sprotty_ArchitectureBlockImpl$ram_3072x39/BPortImpl$BC1/label" transform="translate(6, 6) translate(11.109375, 14)" style="cursor:default;font-size:12px;perspective-origin:0px 0px;fill:rgb(48, 48, 48);text-anchor:middle;">BC1</text></g><g id="sprotty_ArchitectureBlockImpl$ram_3072x39/BPortImpl$TEST_RNM" class="triangle" transform="translate(0, 309)"><path d="M 0,0 L 5,2.5 L 0,5 Z" transform="translate(-1.67, -2.5)" class="sprotty-port" style="fill:rgb(48, 48, 48);stroke:rgb(48, 48, 48);"/><text class="clickable sprotty-label port" id="sprotty_ArchitectureBlockImpl$ram_3072x39/BPortImpl$TEST_RNM/label" transform="translate(6, 6) translate(30.546875, 14)" style="cursor:default;font-size:12px;perspective-origin:0px 0px;fill:rgb(48, 48, 48);text-anchor:middle;">TEST_RNM</text></g><g id="sprotty_ArchitectureBlockImpl$ram_3072x39/BPortImpl$SD" class="triangle" transform="translate(0, 353)"><path d="M 0,0 L 5,2.5 L 0,5 Z" transform="translate(-1.67, -2.5)" class="sprotty-port" style="fill:rgb(48, 48, 48);stroke:rgb(48, 48, 48);"/><text class="clickable sprotty-label port" id="sprotty_ArchitectureBlockImpl$ram_3072x39/BPortImpl$SD/label" transform="translate(6, 6) translate(7.71875, 14)" style="cursor:default;font-size:12px;perspective-origin:0px 0px;fill:rgb(48, 48, 48);text-anchor:middle;">SD</text></g><g id="sprotty_ArchitectureBlockImpl$ram_3072x39/BPortImpl$DS" class="triangle" transform="translate(0, 397)"><path d="M 0,0 L 5,2.5 L 0,5 Z" transform="translate(-1.67, -2.5)" class="sprotty-port" style="fill:rgb(48, 48, 48);stroke:rgb(48, 48, 48);"/><text class="clickable sprotty-label port" id="sprotty_ArchitectureBlockImpl$ram_3072x39/BPortImpl$DS/label" transform="translate(6, 6) translate(7.71875, 14)" style="cursor:default;font-size:12px;perspective-origin:0px 0px;fill:rgb(48, 48, 48);text-anchor:middle;">DS</text></g><g id="sprotty_ArchitectureBlockImpl$ram_3072x39/BPortImpl$LS" class="triangle" transform="translate(0, 441)"><path d="M 0,0 L 5,2.5 L 0,5 Z" transform="translate(-1.67, -2.5)" class="sprotty-port" style="fill:rgb(48, 48, 48);stroke:rgb(48, 48, 48);"/><text class="clickable sprotty-label port" id="sprotty_ArchitectureBlockImpl$ram_3072x39/BPortImpl$LS/label" transform="translate(6, 6) translate(6.6875, 14)" style="cursor:default;font-size:12px;perspective-origin:0px 0px;fill:rgb(48, 48, 48);text-anchor:middle;">LS</text></g><g id="sprotty_ArchitectureBlockImpl$ram_3072x39/BPortImpl$RM" class="triangle" transform="translate(0, 485)"><path d="M 0,0 L 5,2.5 L 0,5 Z" transform="translate(-1.67, -2.5)" class="sprotty-port" style="fill:rgb(48, 48, 48);stroke:rgb(48, 48, 48);"/><text class="clickable sprotty-label port" id="sprotty_ArchitectureBlockImpl$ram_3072x39/BPortImpl$RM/label" transform="translate(6, 6) translate(8.6875, 14)" style="cursor:default;font-size:12px;perspective-origin:0px 0px;fill:rgb(48, 48, 48);text-anchor:middle;">RM</text></g><g id="sprotty_ArchitectureBlockImpl$ram_3072x39/BPortImpl$RME" class="triangle" transform="translate(0, 529)"><path d="M 0,0 L 5,2.5 L 0,5 Z" transform="translate(-1.67, -2.5)" class="sprotty-port" style="fill:rgb(48, 48, 48);stroke:rgb(48, 48, 48);"/><text class="clickable sprotty-label port" id="sprotty_ArchitectureBlockImpl$ram_3072x39/BPortImpl$RME/label" transform="translate(6, 6) translate(12.21875, 14)" style="cursor:default;font-size:12px;perspective-origin:0px 0px;fill:rgb(48, 48, 48);text-anchor:middle;">RME</text></g><g id="sprotty_ArchitectureBlockImpl$ram_3072x39/BPortImpl$TEST1" class="triangle" transform="translate(0, 573)"><path d="M 0,0 L 5,2.5 L 0,5 Z" transform="translate(-1.67, -2.5)" class="sprotty-port" style="fill:rgb(48, 48, 48);stroke:rgb(48, 48, 48);"/><text class="clickable sprotty-label port" id="sprotty_ArchitectureBlockImpl$ram_3072x39/BPortImpl$TEST1/label" transform="translate(6, 6) translate(17.5, 14)" style="cursor:default;font-size:12px;perspective-origin:0px 0px;fill:rgb(48, 48, 48);text-anchor:middle;">TEST1</text></g><g id="sprotty_ArchitectureBlockImpl$ram_3072x39/BPortImpl$CLK" class="triangle" transform="translate(0, 35)"><path d="M 0,0 L 5,2.5 L 0,5 Z" transform="translate(-1.67, -2.5)" class="sprotty-port" style="fill:rgb(48, 48, 48);stroke:rgb(48, 48, 48);"/><text class="clickable sprotty-label port" id="sprotty_ArchitectureBlockImpl$ram_3072x39/BPortImpl$CLK/label" transform="translate(6, 6) translate(10.96875, 14)" style="cursor:default;font-size:12px;perspective-origin:0px 0px;fill:rgb(48, 48, 48);text-anchor:middle;">CLK</text></g><g id="sprotty_ArchitectureBlockImpl$ram_3072x39/BPortImpl$ME" class="triangle" transform="translate(0, 177)"><path d="M 0,0 L 5,2.5 L 0,5 Z" transform="translate(-1.67, -2.5)" class="sprotty-port" style="fill:rgb(48, 48, 48);stroke:rgb(48, 48, 48);"/><text class="clickable sprotty-label port" id="sprotty_ArchitectureBlockImpl$ram_3072x39/BPortImpl$ME/label" transform="translate(6, 6) translate(8.40625, 14)" style="cursor:default;font-size:12px;perspective-origin:0px 0px;fill:rgb(48, 48, 48);text-anchor:middle;">ME</text></g><g id="sprotty_ArchitectureBlockImpl$ram_3072x39/BPortImpl$WE" class="triangle" transform="translate(0, 69)"><path d="M 0,0 L 5,2.5 L 0,5 Z" transform="translate(-1.67, -2.5)" class="sprotty-port" style="fill:rgb(48, 48, 48);stroke:rgb(48, 48, 48);"/><text class="clickable sprotty-label port" id="sprotty_ArchitectureBlockImpl$ram_3072x39/BPortImpl$WE/label" transform="translate(6, 6) translate(8.796875, 14)" style="cursor:default;font-size:12px;perspective-origin:0px 0px;fill:rgb(48, 48, 48);text-anchor:middle;">WE</text></g><g id="sprotty_ArchitectureBlockImpl$ram_3072x39/BPortImpl$D" class="triangle" transform="translate(0, 103)"><path d="M 0,0 L 5,2.5 L 0,5 Z" transform="translate(-1.67, -2.5)" class="sprotty-port" style="fill:rgb(48, 48, 48);stroke:rgb(48, 48, 48);"/><text class="clickable sprotty-label port" id="sprotty_ArchitectureBlockImpl$ram_3072x39/BPortImpl$D/label" transform="translate(6, 6) translate(4.125, 14)" style="cursor:default;font-size:12px;perspective-origin:0px 0px;fill:rgb(48, 48, 48);text-anchor:middle;">D</text></g><g id="sprotty_ArchitectureBlockImpl$ram_3072x39/BPortImpl$ADR" class="triangle" transform="translate(0, 143)"><path d="M 0,0 L 5,2.5 L 0,5 Z" transform="translate(-1.67, -2.5)" class="sprotty-port" style="fill:rgb(48, 48, 48);stroke:rgb(48, 48, 48);"/><text class="clickable sprotty-label port" id="sprotty_ArchitectureBlockImpl$ram_3072x39/BPortImpl$ADR/label" transform="translate(6, 6) translate(11.578125, 14)" style="cursor:default;font-size:12px;perspective-origin:0px 0px;fill:rgb(48, 48, 48);text-anchor:middle;">ADR</text></g><g id="sprotty_ArchitectureBlockImpl$ram_3072x39/BPortImpl$Q" class="triangle" transform="translate(176.625, 93)"><path d="M 0,0 L 5,2.5 L 0,5 Z" transform="translate(-1.67, -2.5)" class="sprotty-port" style="fill:rgb(48, 48, 48);stroke:rgb(48, 48, 48);"/><text class="clickable sprotty-label port" id="sprotty_ArchitectureBlockImpl$ram_3072x39/BPortImpl$Q/label" transform="translate(-14.90625, 6) translate(4.453125, 14)" style="cursor:default;font-size:12px;perspective-origin:0px 0px;fill:rgb(48, 48, 48);text-anchor:middle;">Q</text></g><g id="sprotty_ArchitectureBlockImpl$ram_3072x39/BPortImpl$ROP" class="triangle" transform="translate(176.625, 177)"><path d="M 0,0 L 5,2.5 L 0,5 Z" transform="translate(-1.67, -2.5)" class="sprotty-port" style="fill:rgb(48, 48, 48);stroke:rgb(48, 48, 48);"/><text class="clickable sprotty-label port" id="sprotty_ArchitectureBlockImpl$ram_3072x39/BPortImpl$ROP/label" transform="translate(-30.125, 6) translate(12.0625, 14)" style="cursor:default;font-size:12px;perspective-origin:0px 0px;fill:rgb(48, 48, 48);text-anchor:middle;">ROP</text></g></g></g></svg>