<svg xmlns="http://www.w3.org/2000/svg" id="sprotty_work.rvclkhdr" class="sprotty-graph sprotty-block-diagram blockdiagram" style="font-family:&quot;Noto Sans&quot;, Helvetica, Arial, sans-serif;perspective-origin:0px 0px;transform-origin:0px 0px;" version="1.1" viewBox="7 7 274.15625 222" width="274.15625" height="222"><g transform="scale(1) translate(0,0)"><g id="sprotty_ArchitectureBlockImpl$rvclkhdr" class="architecture" transform="translate(12, 12)"><g class="sprotty-block" style="fill:rgb(255, 255, 255);stroke:rgb(48, 48, 48);stroke-dasharray:0px;"><rect x="0" y="0" rx="1" ry="1" width="264.15625" height="212"/><text x="132.078125" y="12" class="sprotty-block-name" style="cursor:pointer;font-weight:700;perspective-origin:132.094px 0px;fill:rgb(48, 48, 48);stroke:rgba(0, 0, 0, 0);dominant-baseline:middle;text-anchor:middle;">rvclkhdr</text><line x1="0" y1="20" x2="264.15625" y2="20"/></g><g id="sprotty_ArchitectureBlockImpl$rvclkhdr/InstantiationBlockImpl$clkhdr/BPortImpl$Q_to_ArchitectureBlockImpl$rvclkhdr/BPortImpl$l1clk" class="sprotty-edge edge" style="fill:none;stroke:rgb(112, 112, 112);stroke-linejoin:round;"><g><path d="M 216.90625 101 L 264.15625 101 "/><path d="M 216.90625 101 L 264.15625 101 " class="clickable"/></g></g><g id="sprotty_ArchitectureBlockImpl$rvclkhdr/BPortImpl$en_to_ArchitectureBlockImpl$rvclkhdr/InstantiationBlockImpl$clkhdr/BPortImpl$EN" class="sprotty-edge edge" style="fill:none;stroke:rgb(112, 112, 112);stroke-linejoin:round;"><g><path d="M 0 95 L 64.59375 95 C 65.59375 95 66.59375 96 66.59375 97 L 66.59375 99 C 66.59375 100 67.59375 101 68.59375 101 L 76.59375 101 "/><path d="M 0 95 L 64.59375 95 C 65.59375 95 66.59375 96 66.59375 97 L 66.59375 99 C 66.59375 100 67.59375 101 68.59375 101 L 76.59375 101 " class="clickable"/></g></g><g id="sprotty_ArchitectureBlockImpl$rvclkhdr/BPortImpl$clk_to_ArchitectureBlockImpl$rvclkhdr/InstantiationBlockImpl$clkhdr/BPortImpl$CK" class="sprotty-edge edge" style="fill:none;stroke:rgb(112, 112, 112);stroke-linejoin:round;"><g><path d="M 0 129 L 76.59375 129 "/><path d="M 0 129 L 76.59375 129 " class="clickable"/></g></g><g id="sprotty_ArchitectureBlockImpl$rvclkhdr/AssignmentBlockImpl$SE/GPortImpl$SEOUT_to_ArchitectureBlockImpl$rvclkhdr/InstantiationBlockImpl$clkhdr/BPortImpl$SE" class="sprotty-edge edge" style="fill:none;stroke:rgb(112, 112, 112);stroke-linejoin:round;"><g><path d="M 56.59375 73 L 76.59375 73 "/><path d="M 56.59375 73 L 76.59375 73 " class="clickable"/></g></g><g id="sprotty_ArchitectureBlockImpl$rvclkhdr/AssignmentBlockImpl$SE" class="statement" transform="translate(37.15625, 62)"><rect x="0" y="0" rx="10" ry="5" width="19.4375" height="22" class="sprotty-node" style="fill:rgb(245, 245, 245);stroke:rgb(112, 112, 112);"/><text class="clickable sprotty-label statementtype" id="sprotty_ArchitectureBlockImpl$rvclkhdr/AssignmentBlockImpl$SE/labeltype" transform="translate(5, 5) translate(4.71875, 9)" style="cursor:default;font-size:8px;font-weight:700;perspective-origin:0px 0px;fill:rgb(112, 112, 112);text-anchor:middle;">&lt;=</text><g id="sprotty_ArchitectureBlockImpl$rvclkhdr/AssignmentBlockImpl$SE/GPortImpl$SEOUT" class="sprotty-hidden hidden" transform="translate(19.4375, 11)" style="display:block;height:0px;width:0px;"/></g><g id="sprotty_ArchitectureBlockImpl$rvclkhdr/InstantiationBlockImpl$clkhdr" class="instantiation" transform="translate(76.59375, 35)"><g class="sprotty-block" style="fill:rgb(255, 255, 255);stroke:rgb(48, 48, 48);stroke-dasharray:0px;"><rect x="0" y="0" rx="1" ry="1" width="140.3125" height="112"/><text x="70.15625" y="12" class="sprotty-block-name" style="cursor:pointer;font-weight:700;perspective-origin:70.1719px 0px;fill:rgb(48, 48, 48);stroke:rgba(0, 0, 0, 0);dominant-baseline:middle;text-anchor:middle;">clkhdr : clockhdr</text><line x1="0" y1="20" x2="140.3125" y2="20"/></g><g id="sprotty_ArchitectureBlockImpl$rvclkhdr/InstantiationBlockImpl$clkhdr/BPortImpl$CK" class="triangle" transform="translate(0, 94)"><path d="M 0,0 L 5,2.5 L 0,5 Z" transform="translate(-1.67, -2.5)" class="sprotty-port" style="fill:rgb(48, 48, 48);stroke:rgb(48, 48, 48);"/><text class="clickable sprotty-label port" id="sprotty_ArchitectureBlockImpl$rvclkhdr/InstantiationBlockImpl$clkhdr/BPortImpl$CK/label" transform="translate(6, -9) translate(7.71875, 14)" style="cursor:default;font-size:12px;perspective-origin:0px 0px;fill:rgb(48, 48, 48);text-anchor:middle;">CK</text></g><g id="sprotty_ArchitectureBlockImpl$rvclkhdr/InstantiationBlockImpl$clkhdr/BPortImpl$EN" class="triangle" transform="translate(0, 66)"><path d="M 0,0 L 5,2.5 L 0,5 Z" transform="translate(-1.67, -2.5)" class="sprotty-port" style="fill:rgb(48, 48, 48);stroke:rgb(48, 48, 48);"/><text class="clickable sprotty-label port" id="sprotty_ArchitectureBlockImpl$rvclkhdr/InstantiationBlockImpl$clkhdr/BPortImpl$EN/label" transform="translate(6, -9) translate(7.875, 14)" style="cursor:default;font-size:12px;perspective-origin:0px 0px;fill:rgb(48, 48, 48);text-anchor:middle;">EN</text></g><g id="sprotty_ArchitectureBlockImpl$rvclkhdr/InstantiationBlockImpl$clkhdr/BPortImpl$SE" class="triangle" transform="translate(0, 38)"><path d="M 0,0 L 5,2.5 L 0,5 Z" transform="translate(-1.67, -2.5)" class="sprotty-port" style="fill:rgb(48, 48, 48);stroke:rgb(48, 48, 48);"/><text class="clickable sprotty-label port" id="sprotty_ArchitectureBlockImpl$rvclkhdr/InstantiationBlockImpl$clkhdr/BPortImpl$SE/label" transform="translate(6, -9) translate(7.125, 14)" style="cursor:default;font-size:12px;perspective-origin:0px 0px;fill:rgb(48, 48, 48);text-anchor:middle;">SE</text></g><g id="sprotty_ArchitectureBlockImpl$rvclkhdr/InstantiationBlockImpl$clkhdr/BPortImpl$Q" class="triangle" transform="translate(140.3125, 66)"><path d="M 0,0 L 5,2.5 L 0,5 Z" transform="translate(-1.67, -2.5)" class="sprotty-port" style="fill:rgb(48, 48, 48);stroke:rgb(48, 48, 48);"/><text class="clickable sprotty-label port" id="sprotty_ArchitectureBlockImpl$rvclkhdr/InstantiationBlockImpl$clkhdr/BPortImpl$Q/label" transform="translate(-14.90625, -9) translate(4.453125, 14)" style="cursor:default;font-size:12px;perspective-origin:0px 0px;fill:rgb(48, 48, 48);text-anchor:middle;">Q</text></g></g><g id="sprotty_ArchitectureBlockImpl$rvclkhdr/BPortImpl$scan_mode" class="triangle" transform="translate(0, 173)"><path d="M 0,0 L 5,2.5 L 0,5 Z" transform="translate(-1.67, -2.5)" class="sprotty-port" style="fill:rgb(48, 48, 48);stroke:rgb(48, 48, 48);"/><text class="clickable sprotty-label port" id="sprotty_ArchitectureBlockImpl$rvclkhdr/BPortImpl$scan_mode/label" transform="translate(6, 6) translate(32.4375, 14)" style="cursor:default;font-size:12px;perspective-origin:0px 0px;fill:rgb(48, 48, 48);text-anchor:middle;">scan_mode</text></g><g id="sprotty_ArchitectureBlockImpl$rvclkhdr/BPortImpl$clk" class="triangle" transform="translate(0, 129)"><path d="M 0,0 L 5,2.5 L 0,5 Z" transform="translate(-1.67, -2.5)" class="sprotty-port" style="fill:rgb(48, 48, 48);stroke:rgb(48, 48, 48);"/><text class="clickable sprotty-label port" id="sprotty_ArchitectureBlockImpl$rvclkhdr/BPortImpl$clk/label" transform="translate(6, 6) translate(8.078125, 14)" style="cursor:default;font-size:12px;perspective-origin:0px 0px;fill:rgb(48, 48, 48);text-anchor:middle;">clk</text></g><g id="sprotty_ArchitectureBlockImpl$rvclkhdr/BPortImpl$en" class="triangle" transform="translate(0, 95)"><path d="M 0,0 L 5,2.5 L 0,5 Z" transform="translate(-1.67, -2.5)" class="sprotty-port" style="fill:rgb(48, 48, 48);stroke:rgb(48, 48, 48);"/><text class="clickable sprotty-label port" id="sprotty_ArchitectureBlockImpl$rvclkhdr/BPortImpl$en/label" transform="translate(6, 6) translate(7, 14)" style="cursor:default;font-size:12px;perspective-origin:0px 0px;fill:rgb(48, 48, 48);text-anchor:middle;">en</text></g><g id="sprotty_ArchitectureBlockImpl$rvclkhdr/BPortImpl$l1clk" class="triangle" transform="translate(264.15625, 101)"><path d="M 0,0 L 5,2.5 L 0,5 Z" transform="translate(-1.67, -2.5)" class="sprotty-port" style="fill:rgb(48, 48, 48);stroke:rgb(48, 48, 48);"/><text class="clickable sprotty-label port" id="sprotty_ArchitectureBlockImpl$rvclkhdr/BPortImpl$l1clk/label" transform="translate(-32.25, 6) translate(13.125, 14)" style="cursor:default;font-size:12px;perspective-origin:0px 0px;fill:rgb(48, 48, 48);text-anchor:middle;">l1clk</text></g></g></g></svg>