<svg xmlns="http://www.w3.org/2000/svg" id="sprotty_work.rvecc_encode_64" class="sprotty-graph sprotty-block-diagram blockdiagram" style="font-family:&quot;Noto Sans&quot;, Helvetica, Arial, sans-serif;perspective-origin:0px 0px;transform-origin:0px 0px;" version="1.1" viewBox="7 7 173.90625 334" width="173.90625" height="334"><g transform="scale(1) translate(0,0)"><g id="sprotty_ArchitectureBlockImpl$rvecc_encode_64" class="architecture" transform="translate(12, 12)"><g class="sprotty-block" style="fill:rgb(255, 255, 255);stroke:rgb(48, 48, 48);stroke-dasharray:0px;"><rect x="0" y="0" rx="1" ry="1" width="163.90625" height="324"/><text x="81.953125" y="12" class="sprotty-block-name" style="cursor:pointer;font-weight:700;perspective-origin:81.9531px 0px;fill:rgb(48, 48, 48);stroke:rgba(0, 0, 0, 0);dominant-baseline:middle;text-anchor:middle;">rvecc_encode_64</text><line x1="0" y1="20" x2="163.90625" y2="20"/></g><g id="sprotty_ArchitectureBlockImpl$rvecc_encode_64/AssignmentBlockImpl$ecc_out6/GPortImpl$ecc_outOUT_to_ArchitectureBlockImpl$rvecc_encode_64/BPortImpl$ecc_out" class="sprotty-edge thick edge" style="fill:none;stroke:rgb(112, 112, 112);stroke-linejoin:round;stroke-width:3px;"><g><path d="M 78.53125 298 L 86.53125 298 C 87.53125 298 88.53125 297 88.53125 296 L 88.53125 174 C 88.53125 173 89.53125 172 90.53125 172 L 163.90625 172 "/><path d="M 78.53125 298 L 86.53125 298 C 87.53125 298 88.53125 297 88.53125 296 L 88.53125 174 C 88.53125 173 89.53125 172 90.53125 172 L 163.90625 172 " class="clickable"/></g></g><g id="sprotty_ArchitectureBlockImpl$rvecc_encode_64/AssignmentBlockImpl$ecc_out5/GPortImpl$ecc_outOUT_to_ArchitectureBlockImpl$rvecc_encode_64/BPortImpl$ecc_out" class="sprotty-edge thick edge" style="fill:none;stroke:rgb(112, 112, 112);stroke-linejoin:round;stroke-width:3px;"><g><path d="M 78.53125 88 L 86.53125 88 C 87.53125 88 88.53125 89 88.53125 90 L 88.53125 170 C 88.53125 171 89.53125 172 90.53125 172 L 163.90625 172 "/><path d="M 78.53125 88 L 86.53125 88 C 87.53125 88 88.53125 89 88.53125 90 L 88.53125 170 C 88.53125 171 89.53125 172 90.53125 172 L 163.90625 172 " class="clickable"/></g><circle r="3" id="sprotty_ArchitectureBlockImpl$rvecc_encode_64/AssignmentBlockImpl$ecc_out5/GPortImpl$ecc_outOUT_to_ArchitectureBlockImpl$rvecc_encode_64/BPortImpl$ecc_out/junction0" transform="translate(88.53125, 88)" class="sprotty-junction thick" style="fill:rgb(112, 112, 112);stroke:none;"/></g><g id="sprotty_ArchitectureBlockImpl$rvecc_encode_64/AssignmentBlockImpl$ecc_out4/GPortImpl$ecc_outOUT_to_ArchitectureBlockImpl$rvecc_encode_64/BPortImpl$ecc_out" class="sprotty-edge thick edge" style="fill:none;stroke:rgb(112, 112, 112);stroke-linejoin:round;stroke-width:3px;"><g><path d="M 78.53125 46 L 86.53125 46 C 87.53125 46 88.53125 47 88.53125 48 L 88.53125 170 C 88.53125 171 89.53125 172 90.53125 172 L 163.90625 172 "/><path d="M 78.53125 46 L 86.53125 46 C 87.53125 46 88.53125 47 88.53125 48 L 88.53125 170 C 88.53125 171 89.53125 172 90.53125 172 L 163.90625 172 " class="clickable"/></g><circle r="3" id="sprotty_ArchitectureBlockImpl$rvecc_encode_64/AssignmentBlockImpl$ecc_out4/GPortImpl$ecc_outOUT_to_ArchitectureBlockImpl$rvecc_encode_64/BPortImpl$ecc_out/junction0" transform="translate(88.53125, 172)" class="sprotty-junction thick" style="fill:rgb(112, 112, 112);stroke:none;"/></g><g id="sprotty_ArchitectureBlockImpl$rvecc_encode_64/AssignmentBlockImpl$ecc_out3/GPortImpl$ecc_outOUT_to_ArchitectureBlockImpl$rvecc_encode_64/BPortImpl$ecc_out" class="sprotty-edge thick edge" style="fill:none;stroke:rgb(112, 112, 112);stroke-linejoin:round;stroke-width:3px;"><g><path d="M 78.53125 256 L 86.53125 256 C 87.53125 256 88.53125 255 88.53125 254 L 88.53125 174 C 88.53125 173 89.53125 172 90.53125 172 L 163.90625 172 "/><path d="M 78.53125 256 L 86.53125 256 C 87.53125 256 88.53125 255 88.53125 254 L 88.53125 174 C 88.53125 173 89.53125 172 90.53125 172 L 163.90625 172 " class="clickable"/></g><circle r="3" id="sprotty_ArchitectureBlockImpl$rvecc_encode_64/AssignmentBlockImpl$ecc_out3/GPortImpl$ecc_outOUT_to_ArchitectureBlockImpl$rvecc_encode_64/BPortImpl$ecc_out/junction0" transform="translate(88.53125, 256)" class="sprotty-junction thick" style="fill:rgb(112, 112, 112);stroke:none;"/></g><g id="sprotty_ArchitectureBlockImpl$rvecc_encode_64/AssignmentBlockImpl$ecc_out2/GPortImpl$ecc_outOUT_to_ArchitectureBlockImpl$rvecc_encode_64/BPortImpl$ecc_out" class="sprotty-edge thick edge" style="fill:none;stroke:rgb(112, 112, 112);stroke-linejoin:round;stroke-width:3px;"><g><path d="M 78.53125 172 L 163.90625 172 "/><path d="M 78.53125 172 L 163.90625 172 " class="clickable"/></g></g><g id="sprotty_ArchitectureBlockImpl$rvecc_encode_64/AssignmentBlockImpl$ecc_out1/GPortImpl$ecc_outOUT_to_ArchitectureBlockImpl$rvecc_encode_64/BPortImpl$ecc_out" class="sprotty-edge thick edge" style="fill:none;stroke:rgb(112, 112, 112);stroke-linejoin:round;stroke-width:3px;"><g><path d="M 78.53125 130 L 86.53125 130 C 87.53125 130 88.53125 131 88.53125 132 L 88.53125 170 C 88.53125 171 89.53125 172 90.53125 172 L 163.90625 172 "/><path d="M 78.53125 130 L 86.53125 130 C 87.53125 130 88.53125 131 88.53125 132 L 88.53125 170 C 88.53125 171 89.53125 172 90.53125 172 L 163.90625 172 " class="clickable"/></g><circle r="3" id="sprotty_ArchitectureBlockImpl$rvecc_encode_64/AssignmentBlockImpl$ecc_out1/GPortImpl$ecc_outOUT_to_ArchitectureBlockImpl$rvecc_encode_64/BPortImpl$ecc_out/junction0" transform="translate(88.53125, 130)" class="sprotty-junction thick" style="fill:rgb(112, 112, 112);stroke:none;"/></g><g id="sprotty_ArchitectureBlockImpl$rvecc_encode_64/AssignmentBlockImpl$ecc_out/GPortImpl$ecc_outOUT_to_ArchitectureBlockImpl$rvecc_encode_64/BPortImpl$ecc_out" class="sprotty-edge thick edge" style="fill:none;stroke:rgb(112, 112, 112);stroke-linejoin:round;stroke-width:3px;"><g><path d="M 78.53125 214 L 86.53125 214 C 87.53125 214 88.53125 213 88.53125 212 L 88.53125 174 C 88.53125 173 89.53125 172 90.53125 172 L 163.90625 172 "/><path d="M 78.53125 214 L 86.53125 214 C 87.53125 214 88.53125 213 88.53125 212 L 88.53125 174 C 88.53125 173 89.53125 172 90.53125 172 L 163.90625 172 " class="clickable"/></g><circle r="3" id="sprotty_ArchitectureBlockImpl$rvecc_encode_64/AssignmentBlockImpl$ecc_out/GPortImpl$ecc_outOUT_to_ArchitectureBlockImpl$rvecc_encode_64/BPortImpl$ecc_out/junction0" transform="translate(88.53125, 214)" class="sprotty-junction thick" style="fill:rgb(112, 112, 112);stroke:none;"/></g><g id="sprotty_ArchitectureBlockImpl$rvecc_encode_64/BPortImpl$din_to_ArchitectureBlockImpl$rvecc_encode_64/AssignmentBlockImpl$ecc_out6/GPortImpl$dinIN" class="sprotty-edge thick edge" style="fill:none;stroke:rgb(112, 112, 112);stroke-linejoin:round;stroke-width:3px;"><g><path d="M 0 46 L 47.09375 46 C 48.09375 46 49.09375 47 49.09375 48 L 49.09375 296 C 49.09375 297 50.09375 298 51.09375 298 L 59.09375 298 "/><path d="M 0 46 L 47.09375 46 C 48.09375 46 49.09375 47 49.09375 48 L 49.09375 296 C 49.09375 297 50.09375 298 51.09375 298 L 59.09375 298 " class="clickable"/></g><circle r="3" id="sprotty_ArchitectureBlockImpl$rvecc_encode_64/BPortImpl$din_to_ArchitectureBlockImpl$rvecc_encode_64/AssignmentBlockImpl$ecc_out6/GPortImpl$dinIN/junction0" transform="translate(49.09375, 46)" class="sprotty-junction thick" style="fill:rgb(112, 112, 112);stroke:none;"/></g><g id="sprotty_ArchitectureBlockImpl$rvecc_encode_64/BPortImpl$din_to_ArchitectureBlockImpl$rvecc_encode_64/AssignmentBlockImpl$ecc_out5/GPortImpl$dinIN" class="sprotty-edge thick edge" style="fill:none;stroke:rgb(112, 112, 112);stroke-linejoin:round;stroke-width:3px;"><g><path d="M 0 46 L 47.09375 46 C 48.09375 46 49.09375 47 49.09375 48 L 49.09375 86 C 49.09375 87 50.09375 88 51.09375 88 L 59.09375 88 "/><path d="M 0 46 L 47.09375 46 C 48.09375 46 49.09375 47 49.09375 48 L 49.09375 86 C 49.09375 87 50.09375 88 51.09375 88 L 59.09375 88 " class="clickable"/></g><circle r="3" id="sprotty_ArchitectureBlockImpl$rvecc_encode_64/BPortImpl$din_to_ArchitectureBlockImpl$rvecc_encode_64/AssignmentBlockImpl$ecc_out5/GPortImpl$dinIN/junction0" transform="translate(49.09375, 88)" class="sprotty-junction thick" style="fill:rgb(112, 112, 112);stroke:none;"/></g><g id="sprotty_ArchitectureBlockImpl$rvecc_encode_64/BPortImpl$din_to_ArchitectureBlockImpl$rvecc_encode_64/AssignmentBlockImpl$ecc_out4/GPortImpl$dinIN" class="sprotty-edge thick edge" style="fill:none;stroke:rgb(112, 112, 112);stroke-linejoin:round;stroke-width:3px;"><g><path d="M 0 46 L 59.09375 46 "/><path d="M 0 46 L 59.09375 46 " class="clickable"/></g></g><g id="sprotty_ArchitectureBlockImpl$rvecc_encode_64/BPortImpl$din_to_ArchitectureBlockImpl$rvecc_encode_64/AssignmentBlockImpl$ecc_out3/GPortImpl$dinIN" class="sprotty-edge thick edge" style="fill:none;stroke:rgb(112, 112, 112);stroke-linejoin:round;stroke-width:3px;"><g><path d="M 0 46 L 47.09375 46 C 48.09375 46 49.09375 47 49.09375 48 L 49.09375 254 C 49.09375 255 50.09375 256 51.09375 256 L 59.09375 256 "/><path d="M 0 46 L 47.09375 46 C 48.09375 46 49.09375 47 49.09375 48 L 49.09375 254 C 49.09375 255 50.09375 256 51.09375 256 L 59.09375 256 " class="clickable"/></g><circle r="3" id="sprotty_ArchitectureBlockImpl$rvecc_encode_64/BPortImpl$din_to_ArchitectureBlockImpl$rvecc_encode_64/AssignmentBlockImpl$ecc_out3/GPortImpl$dinIN/junction0" transform="translate(49.09375, 256)" class="sprotty-junction thick" style="fill:rgb(112, 112, 112);stroke:none;"/></g><g id="sprotty_ArchitectureBlockImpl$rvecc_encode_64/BPortImpl$din_to_ArchitectureBlockImpl$rvecc_encode_64/AssignmentBlockImpl$ecc_out2/GPortImpl$dinIN" class="sprotty-edge thick edge" style="fill:none;stroke:rgb(112, 112, 112);stroke-linejoin:round;stroke-width:3px;"><g><path d="M 0 46 L 47.09375 46 C 48.09375 46 49.09375 47 49.09375 48 L 49.09375 170 C 49.09375 171 50.09375 172 51.09375 172 L 59.09375 172 "/><path d="M 0 46 L 47.09375 46 C 48.09375 46 49.09375 47 49.09375 48 L 49.09375 170 C 49.09375 171 50.09375 172 51.09375 172 L 59.09375 172 " class="clickable"/></g><circle r="3" id="sprotty_ArchitectureBlockImpl$rvecc_encode_64/BPortImpl$din_to_ArchitectureBlockImpl$rvecc_encode_64/AssignmentBlockImpl$ecc_out2/GPortImpl$dinIN/junction0" transform="translate(49.09375, 172)" class="sprotty-junction thick" style="fill:rgb(112, 112, 112);stroke:none;"/></g><g id="sprotty_ArchitectureBlockImpl$rvecc_encode_64/BPortImpl$din_to_ArchitectureBlockImpl$rvecc_encode_64/AssignmentBlockImpl$ecc_out1/GPortImpl$dinIN" class="sprotty-edge thick edge" style="fill:none;stroke:rgb(112, 112, 112);stroke-linejoin:round;stroke-width:3px;"><g><path d="M 0 46 L 47.09375 46 C 48.09375 46 49.09375 47 49.09375 48 L 49.09375 128 C 49.09375 129 50.09375 130 51.09375 130 L 59.09375 130 "/><path d="M 0 46 L 47.09375 46 C 48.09375 46 49.09375 47 49.09375 48 L 49.09375 128 C 49.09375 129 50.09375 130 51.09375 130 L 59.09375 130 " class="clickable"/></g><circle r="3" id="sprotty_ArchitectureBlockImpl$rvecc_encode_64/BPortImpl$din_to_ArchitectureBlockImpl$rvecc_encode_64/AssignmentBlockImpl$ecc_out1/GPortImpl$dinIN/junction0" transform="translate(49.09375, 130)" class="sprotty-junction thick" style="fill:rgb(112, 112, 112);stroke:none;"/></g><g id="sprotty_ArchitectureBlockImpl$rvecc_encode_64/BPortImpl$din_to_ArchitectureBlockImpl$rvecc_encode_64/AssignmentBlockImpl$ecc_out/GPortImpl$dinIN" class="sprotty-edge thick edge" style="fill:none;stroke:rgb(112, 112, 112);stroke-linejoin:round;stroke-width:3px;"><g><path d="M 0 46 L 47.09375 46 C 48.09375 46 49.09375 47 49.09375 48 L 49.09375 212 C 49.09375 213 50.09375 214 51.09375 214 L 59.09375 214 "/><path d="M 0 46 L 47.09375 46 C 48.09375 46 49.09375 47 49.09375 48 L 49.09375 212 C 49.09375 213 50.09375 214 51.09375 214 L 59.09375 214 " class="clickable"/></g><circle r="3" id="sprotty_ArchitectureBlockImpl$rvecc_encode_64/BPortImpl$din_to_ArchitectureBlockImpl$rvecc_encode_64/AssignmentBlockImpl$ecc_out/GPortImpl$dinIN/junction0" transform="translate(49.09375, 214)" class="sprotty-junction thick" style="fill:rgb(112, 112, 112);stroke:none;"/></g><g id="sprotty_ArchitectureBlockImpl$rvecc_encode_64/AssignmentBlockImpl$ecc_out" class="statement" transform="translate(59.09375, 203)"><rect x="0" y="0" rx="10" ry="5" width="19.4375" height="22" class="sprotty-node" style="fill:rgb(245, 245, 245);stroke:rgb(112, 112, 112);"/><text class="clickable sprotty-label statementtype" id="sprotty_ArchitectureBlockImpl$rvecc_encode_64/AssignmentBlockImpl$ecc_out/labeltype" transform="translate(5, 5) translate(4.71875, 9.5)" style="cursor:default;font-size:8px;font-weight:700;perspective-origin:0px 0px;fill:rgb(112, 112, 112);text-anchor:middle;">&lt;=</text><g id="sprotty_ArchitectureBlockImpl$rvecc_encode_64/AssignmentBlockImpl$ecc_out/GPortImpl$dinIN" class="sprotty-hidden hidden" transform="translate(0, 11)" style="display:block;height:0px;width:0px;"/><g id="sprotty_ArchitectureBlockImpl$rvecc_encode_64/AssignmentBlockImpl$ecc_out/GPortImpl$ecc_outOUT" class="sprotty-hidden hidden" transform="translate(19.4375, 11)" style="display:block;height:0px;width:0px;"/></g><g id="sprotty_ArchitectureBlockImpl$rvecc_encode_64/AssignmentBlockImpl$ecc_out1" class="statement" transform="translate(59.09375, 119)"><rect x="0" y="0" rx="10" ry="5" width="19.4375" height="22" class="sprotty-node" style="fill:rgb(245, 245, 245);stroke:rgb(112, 112, 112);"/><text class="clickable sprotty-label statementtype" id="sprotty_ArchitectureBlockImpl$rvecc_encode_64/AssignmentBlockImpl$ecc_out1/labeltype" transform="translate(5, 5) translate(4.71875, 9.5)" style="cursor:default;font-size:8px;font-weight:700;perspective-origin:0px 0px;fill:rgb(112, 112, 112);text-anchor:middle;">&lt;=</text><g id="sprotty_ArchitectureBlockImpl$rvecc_encode_64/AssignmentBlockImpl$ecc_out1/GPortImpl$dinIN" class="sprotty-hidden hidden" transform="translate(0, 11)" style="display:block;height:0px;width:0px;"/><g id="sprotty_ArchitectureBlockImpl$rvecc_encode_64/AssignmentBlockImpl$ecc_out1/GPortImpl$ecc_outOUT" class="sprotty-hidden hidden" transform="translate(19.4375, 11)" style="display:block;height:0px;width:0px;"/></g><g id="sprotty_ArchitectureBlockImpl$rvecc_encode_64/AssignmentBlockImpl$ecc_out2" class="statement" transform="translate(59.09375, 161)"><rect x="0" y="0" rx="10" ry="5" width="19.4375" height="22" class="sprotty-node" style="fill:rgb(245, 245, 245);stroke:rgb(112, 112, 112);"/><text class="clickable sprotty-label statementtype" id="sprotty_ArchitectureBlockImpl$rvecc_encode_64/AssignmentBlockImpl$ecc_out2/labeltype" transform="translate(5, 5) translate(4.71875, 9.5)" style="cursor:default;font-size:8px;font-weight:700;perspective-origin:0px 0px;fill:rgb(112, 112, 112);text-anchor:middle;">&lt;=</text><g id="sprotty_ArchitectureBlockImpl$rvecc_encode_64/AssignmentBlockImpl$ecc_out2/GPortImpl$dinIN" class="sprotty-hidden hidden" transform="translate(0, 11)" style="display:block;height:0px;width:0px;"/><g id="sprotty_ArchitectureBlockImpl$rvecc_encode_64/AssignmentBlockImpl$ecc_out2/GPortImpl$ecc_outOUT" class="sprotty-hidden hidden" transform="translate(19.4375, 11)" style="display:block;height:0px;width:0px;"/></g><g id="sprotty_ArchitectureBlockImpl$rvecc_encode_64/AssignmentBlockImpl$ecc_out3" class="statement" transform="translate(59.09375, 245)"><rect x="0" y="0" rx="10" ry="5" width="19.4375" height="22" class="sprotty-node" style="fill:rgb(245, 245, 245);stroke:rgb(112, 112, 112);"/><text class="clickable sprotty-label statementtype" id="sprotty_ArchitectureBlockImpl$rvecc_encode_64/AssignmentBlockImpl$ecc_out3/labeltype" transform="translate(5, 5) translate(4.71875, 9.5)" style="cursor:default;font-size:8px;font-weight:700;perspective-origin:0px 0px;fill:rgb(112, 112, 112);text-anchor:middle;">&lt;=</text><g id="sprotty_ArchitectureBlockImpl$rvecc_encode_64/AssignmentBlockImpl$ecc_out3/GPortImpl$dinIN" class="sprotty-hidden hidden" transform="translate(0, 11)" style="display:block;height:0px;width:0px;"/><g id="sprotty_ArchitectureBlockImpl$rvecc_encode_64/AssignmentBlockImpl$ecc_out3/GPortImpl$ecc_outOUT" class="sprotty-hidden hidden" transform="translate(19.4375, 11)" style="display:block;height:0px;width:0px;"/></g><g id="sprotty_ArchitectureBlockImpl$rvecc_encode_64/AssignmentBlockImpl$ecc_out4" class="statement" transform="translate(59.09375, 35)"><rect x="0" y="0" rx="10" ry="5" width="19.4375" height="22" class="sprotty-node" style="fill:rgb(245, 245, 245);stroke:rgb(112, 112, 112);"/><text class="clickable sprotty-label statementtype" id="sprotty_ArchitectureBlockImpl$rvecc_encode_64/AssignmentBlockImpl$ecc_out4/labeltype" transform="translate(5, 5) translate(4.71875, 9.5)" style="cursor:default;font-size:8px;font-weight:700;perspective-origin:0px 0px;fill:rgb(112, 112, 112);text-anchor:middle;">&lt;=</text><g id="sprotty_ArchitectureBlockImpl$rvecc_encode_64/AssignmentBlockImpl$ecc_out4/GPortImpl$dinIN" class="sprotty-hidden hidden" transform="translate(0, 11)" style="display:block;height:0px;width:0px;"/><g id="sprotty_ArchitectureBlockImpl$rvecc_encode_64/AssignmentBlockImpl$ecc_out4/GPortImpl$ecc_outOUT" class="sprotty-hidden hidden" transform="translate(19.4375, 11)" style="display:block;height:0px;width:0px;"/></g><g id="sprotty_ArchitectureBlockImpl$rvecc_encode_64/AssignmentBlockImpl$ecc_out5" class="statement" transform="translate(59.09375, 77)"><rect x="0" y="0" rx="10" ry="5" width="19.4375" height="22" class="sprotty-node" style="fill:rgb(245, 245, 245);stroke:rgb(112, 112, 112);"/><text class="clickable sprotty-label statementtype" id="sprotty_ArchitectureBlockImpl$rvecc_encode_64/AssignmentBlockImpl$ecc_out5/labeltype" transform="translate(5, 5) translate(4.71875, 9.5)" style="cursor:default;font-size:8px;font-weight:700;perspective-origin:0px 0px;fill:rgb(112, 112, 112);text-anchor:middle;">&lt;=</text><g id="sprotty_ArchitectureBlockImpl$rvecc_encode_64/AssignmentBlockImpl$ecc_out5/GPortImpl$dinIN" class="sprotty-hidden hidden" transform="translate(0, 11)" style="display:block;height:0px;width:0px;"/><g id="sprotty_ArchitectureBlockImpl$rvecc_encode_64/AssignmentBlockImpl$ecc_out5/GPortImpl$ecc_outOUT" class="sprotty-hidden hidden" transform="translate(19.4375, 11)" style="display:block;height:0px;width:0px;"/></g><g id="sprotty_ArchitectureBlockImpl$rvecc_encode_64/AssignmentBlockImpl$ecc_out6" class="statement" transform="translate(59.09375, 287)"><rect x="0" y="0" rx="10" ry="5" width="19.4375" height="22" class="sprotty-node" style="fill:rgb(245, 245, 245);stroke:rgb(112, 112, 112);"/><text class="clickable sprotty-label statementtype" id="sprotty_ArchitectureBlockImpl$rvecc_encode_64/AssignmentBlockImpl$ecc_out6/labeltype" transform="translate(5, 5) translate(4.71875, 9.5)" style="cursor:default;font-size:8px;font-weight:700;perspective-origin:0px 0px;fill:rgb(112, 112, 112);text-anchor:middle;">&lt;=</text><g id="sprotty_ArchitectureBlockImpl$rvecc_encode_64/AssignmentBlockImpl$ecc_out6/GPortImpl$dinIN" class="sprotty-hidden hidden" transform="translate(0, 11)" style="display:block;height:0px;width:0px;"/><g id="sprotty_ArchitectureBlockImpl$rvecc_encode_64/AssignmentBlockImpl$ecc_out6/GPortImpl$ecc_outOUT" class="sprotty-hidden hidden" transform="translate(19.4375, 11)" style="display:block;height:0px;width:0px;"/></g><g id="sprotty_ArchitectureBlockImpl$rvecc_encode_64/BPortImpl$din" class="triangle" transform="translate(0, 46)"><path d="M 0,0 L 5,2.5 L 0,5 Z" transform="translate(-1.67, -2.5)" class="sprotty-port" style="fill:rgb(48, 48, 48);stroke:rgb(48, 48, 48);"/><text class="clickable sprotty-label port" id="sprotty_ArchitectureBlockImpl$rvecc_encode_64/BPortImpl$din/label" transform="translate(6, 6) translate(9.046875, 14)" style="cursor:default;font-size:12px;perspective-origin:0px 0px;fill:rgb(48, 48, 48);text-anchor:middle;">din</text></g><g id="sprotty_ArchitectureBlockImpl$rvecc_encode_64/BPortImpl$ecc_out" class="triangle" transform="translate(163.90625, 172)"><path d="M 0,0 L 5,2.5 L 0,5 Z" transform="translate(-1.67, -2.5)" class="sprotty-port" style="fill:rgb(48, 48, 48);stroke:rgb(48, 48, 48);"/><text class="clickable sprotty-label port" id="sprotty_ArchitectureBlockImpl$rvecc_encode_64/BPortImpl$ecc_out/label" transform="translate(-50.375, 6) translate(22.1875, 14)" style="cursor:default;font-size:12px;perspective-origin:0px 0px;fill:rgb(48, 48, 48);text-anchor:middle;">ecc_out</text></g></g></g></svg>