<svg xmlns="http://www.w3.org/2000/svg" id="sprotty_work.clockhdr" class="sprotty-graph sprotty-block-diagram blockdiagram" style="font-family:&quot;Noto Sans&quot;, Helvetica, Arial, sans-serif;perspective-origin:0px 0px;transform-origin:0px 0px;" version="1.1" viewBox="7 7 212.875 153" width="212.875" height="153"><g transform="scale(1) translate(0,0)"><g id="sprotty_ArchitectureBlockImpl$clockhdr" class="architecture" transform="translate(12, 12)"><g class="sprotty-block" style="fill:rgb(255, 255, 255);stroke:rgb(48, 48, 48);stroke-dasharray:0px;"><rect x="0" y="0" rx="1" ry="1" width="202.875" height="143"/><text x="101.4375" y="12" class="sprotty-block-name" style="cursor:pointer;font-weight:700;perspective-origin:101.453px 0px;fill:rgb(48, 48, 48);stroke:rgba(0, 0, 0, 0);dominant-baseline:middle;text-anchor:middle;">clockhdr</text><line x1="0" y1="20" x2="202.875" y2="20"/></g><g id="sprotty_ArchitectureBlockImpl$clockhdr/AssignmentBlockImpl$Q/GPortImpl$QOUT_to_ArchitectureBlockImpl$clockhdr/BPortImpl$Q" class="sprotty-edge edge" style="fill:none;stroke:rgb(112, 112, 112);stroke-linejoin:round;"><g><path d="M 172.96875 89 L 202.875 89 "/><path d="M 172.96875 89 L 202.875 89 " class="clickable"/></g></g><g id="sprotty_ArchitectureBlockImpl$clockhdr/BPortImpl$EN_to_ArchitectureBlockImpl$clockhdr/AssignmentBlockImpl$enable/GPortImpl$ENIN" class="sprotty-edge edge" style="fill:none;stroke:rgb(112, 112, 112);stroke-linejoin:round;"><g><path d="M 0 70 L 44.75 70 C 45.75 70 46.75 71 46.75 72 L 46.75 92 C 46.75 93 47.75 94 48.75 94 L 56.75 94 "/><path d="M 0 70 L 44.75 70 C 45.75 70 46.75 71 46.75 72 L 46.75 92 C 46.75 93 47.75 94 48.75 94 L 56.75 94 " class="clickable"/></g></g><g id="sprotty_ArchitectureBlockImpl$clockhdr/BPortImpl$SE_to_ArchitectureBlockImpl$clockhdr/AssignmentBlockImpl$enable/GPortImpl$SEIN" class="sprotty-edge edge" style="fill:none;stroke:rgb(112, 112, 112);stroke-linejoin:round;"><g><path d="M 0 104 L 56.75 104 "/><path d="M 0 104 L 56.75 104 " class="clickable"/></g></g><g id="sprotty_ArchitectureBlockImpl$clockhdr/BPortImpl$CK_to_ArchitectureBlockImpl$clockhdr/AssignmentBlockImpl$Q/GPortImpl$CKIN" class="sprotty-edge edge" style="fill:none;stroke:rgb(112, 112, 112);stroke-linejoin:round;"><g><path d="M 0 36 L 141.53125 36 C 142.53125 36 143.53125 37 143.53125 38 L 143.53125 82 C 143.53125 83 144.53125 84 145.53125 84 L 153.53125 84 "/><path d="M 0 36 L 141.53125 36 C 142.53125 36 143.53125 37 143.53125 38 L 143.53125 82 C 143.53125 83 144.53125 84 145.53125 84 L 153.53125 84 " class="clickable"/></g></g><g id="sprotty_ArchitectureBlockImpl$clockhdr/BPortImpl$CK_to_ArchitectureBlockImpl$clockhdr/AlwaysBlockImpl$null4/GPortImpl$CKIN" class="sprotty-edge edge" style="fill:none;stroke:rgb(112, 112, 112);stroke-linejoin:round;"><g><path d="M 0 36 L 84.1875 36 C 85.1875 36 86.1875 37 86.1875 38 L 86.1875 87 C 86.1875 88 87.1875 89 88.1875 89 L 96.1875 89 "/><path d="M 0 36 L 84.1875 36 C 85.1875 36 86.1875 37 86.1875 38 L 86.1875 87 C 86.1875 88 87.1875 89 88.1875 89 L 96.1875 89 " class="clickable"/></g><circle r="2" id="sprotty_ArchitectureBlockImpl$clockhdr/BPortImpl$CK_to_ArchitectureBlockImpl$clockhdr/AlwaysBlockImpl$null4/GPortImpl$CKIN/junction0" transform="translate(86.1875, 36)" class="sprotty-junction junction" style="fill:rgb(112, 112, 112);stroke:none;"/></g><g id="sprotty_ArchitectureBlockImpl$clockhdr/AlwaysBlockImpl$null4/GPortImpl$en_ffOUT_to_ArchitectureBlockImpl$clockhdr/AssignmentBlockImpl$Q/GPortImpl$en_ffIN" class="sprotty-edge edge" style="fill:none;stroke:rgb(112, 112, 112);stroke-linejoin:round;"><g><path d="M 133.53125 94 L 153.53125 94 "/><path d="M 133.53125 94 L 153.53125 94 " class="clickable"/></g></g><g id="sprotty_ArchitectureBlockImpl$clockhdr/AssignmentBlockImpl$enable/GPortImpl$enableOUT_to_ArchitectureBlockImpl$clockhdr/AlwaysBlockImpl$null4/GPortImpl$enableIN" class="sprotty-edge edge" style="fill:none;stroke:rgb(112, 112, 112);stroke-linejoin:round;"><g><path d="M 76.1875 99 L 96.1875 99 "/><path d="M 76.1875 99 L 96.1875 99 " class="clickable"/></g></g><g id="sprotty_ArchitectureBlockImpl$clockhdr/AlwaysBlockImpl$null4" class="statement" transform="translate(96.1875, 79)"><rect x="0" y="0" rx="10" ry="5" width="37.34375" height="30" class="sprotty-node" style="fill:rgb(245, 245, 245);stroke:rgb(112, 112, 112);"/><text class="clickable sprotty-label statementtype" id="sprotty_ArchitectureBlockImpl$clockhdr/AlwaysBlockImpl$null4/labeltype" transform="translate(5, 9) translate(13.671875, 9)" style="cursor:default;font-size:8px;font-weight:700;perspective-origin:0px 0px;fill:rgb(112, 112, 112);text-anchor:middle;">always</text><g id="sprotty_ArchitectureBlockImpl$clockhdr/AlwaysBlockImpl$null4/GPortImpl$enableIN" class="sprotty-hidden hidden" transform="translate(0, 20)" style="display:block;height:0px;width:0px;"/><g id="sprotty_ArchitectureBlockImpl$clockhdr/AlwaysBlockImpl$null4/GPortImpl$CKIN" class="sprotty-hidden hidden" transform="translate(0, 10)" style="display:block;height:0px;width:0px;"/><g id="sprotty_ArchitectureBlockImpl$clockhdr/AlwaysBlockImpl$null4/GPortImpl$en_ffOUT" class="sprotty-hidden hidden" transform="translate(37.34375, 15)" style="display:block;height:0px;width:0px;"/></g><g id="sprotty_ArchitectureBlockImpl$clockhdr/AssignmentBlockImpl$Q" class="statement" transform="translate(153.53125, 74)"><rect x="0" y="0" rx="10" ry="5" width="19.4375" height="30" class="sprotty-node" style="fill:rgb(245, 245, 245);stroke:rgb(112, 112, 112);"/><text class="clickable sprotty-label statementtype" id="sprotty_ArchitectureBlockImpl$clockhdr/AssignmentBlockImpl$Q/labeltype" transform="translate(5, 9) translate(4.71875, 9)" style="cursor:default;font-size:8px;font-weight:700;perspective-origin:0px 0px;fill:rgb(112, 112, 112);text-anchor:middle;">&lt;=</text><g id="sprotty_ArchitectureBlockImpl$clockhdr/AssignmentBlockImpl$Q/GPortImpl$en_ffIN" class="sprotty-hidden hidden" transform="translate(0, 20)" style="display:block;height:0px;width:0px;"/><g id="sprotty_ArchitectureBlockImpl$clockhdr/AssignmentBlockImpl$Q/GPortImpl$CKIN" class="sprotty-hidden hidden" transform="translate(0, 10)" style="display:block;height:0px;width:0px;"/><g id="sprotty_ArchitectureBlockImpl$clockhdr/AssignmentBlockImpl$Q/GPortImpl$QOUT" class="sprotty-hidden hidden" transform="translate(19.4375, 15)" style="display:block;height:0px;width:0px;"/></g><g id="sprotty_ArchitectureBlockImpl$clockhdr/AssignmentBlockImpl$enable" class="statement" transform="translate(56.75, 84)"><rect x="0" y="0" rx="10" ry="5" width="19.4375" height="30" class="sprotty-node" style="fill:rgb(245, 245, 245);stroke:rgb(112, 112, 112);"/><text class="clickable sprotty-label statementtype" id="sprotty_ArchitectureBlockImpl$clockhdr/AssignmentBlockImpl$enable/labeltype" transform="translate(5, 9) translate(4.71875, 9)" style="cursor:default;font-size:8px;font-weight:700;perspective-origin:0px 0px;fill:rgb(112, 112, 112);text-anchor:middle;">&lt;=</text><g id="sprotty_ArchitectureBlockImpl$clockhdr/AssignmentBlockImpl$enable/GPortImpl$SEIN" class="sprotty-hidden hidden" transform="translate(0, 20)" style="display:block;height:0px;width:0px;"/><g id="sprotty_ArchitectureBlockImpl$clockhdr/AssignmentBlockImpl$enable/GPortImpl$ENIN" class="sprotty-hidden hidden" transform="translate(0, 10)" style="display:block;height:0px;width:0px;"/><g id="sprotty_ArchitectureBlockImpl$clockhdr/AssignmentBlockImpl$enable/GPortImpl$enableOUT" class="sprotty-hidden hidden" transform="translate(19.4375, 15)" style="display:block;height:0px;width:0px;"/></g><g id="sprotty_ArchitectureBlockImpl$clockhdr/BPortImpl$CK" class="triangle" transform="translate(0, 36)"><path d="M 0,0 L 5,2.5 L 0,5 Z" transform="translate(-1.67, -2.5)" class="sprotty-port" style="fill:rgb(48, 48, 48);stroke:rgb(48, 48, 48);"/><text class="clickable sprotty-label port" id="sprotty_ArchitectureBlockImpl$clockhdr/BPortImpl$CK/label" transform="translate(6, 6) translate(7.71875, 14)" style="cursor:default;font-size:12px;perspective-origin:0px 0px;fill:rgb(48, 48, 48);text-anchor:middle;">CK</text></g><g id="sprotty_ArchitectureBlockImpl$clockhdr/BPortImpl$EN" class="triangle" transform="translate(0, 70)"><path d="M 0,0 L 5,2.5 L 0,5 Z" transform="translate(-1.67, -2.5)" class="sprotty-port" style="fill:rgb(48, 48, 48);stroke:rgb(48, 48, 48);"/><text class="clickable sprotty-label port" id="sprotty_ArchitectureBlockImpl$clockhdr/BPortImpl$EN/label" transform="translate(6, 6) translate(7.875, 14)" style="cursor:default;font-size:12px;perspective-origin:0px 0px;fill:rgb(48, 48, 48);text-anchor:middle;">EN</text></g><g id="sprotty_ArchitectureBlockImpl$clockhdr/BPortImpl$SE" class="triangle" transform="translate(0, 104)"><path d="M 0,0 L 5,2.5 L 0,5 Z" transform="translate(-1.67, -2.5)" class="sprotty-port" style="fill:rgb(48, 48, 48);stroke:rgb(48, 48, 48);"/><text class="clickable sprotty-label port" id="sprotty_ArchitectureBlockImpl$clockhdr/BPortImpl$SE/label" transform="translate(6, 6) translate(7.125, 14)" style="cursor:default;font-size:12px;perspective-origin:0px 0px;fill:rgb(48, 48, 48);text-anchor:middle;">SE</text></g><g id="sprotty_ArchitectureBlockImpl$clockhdr/BPortImpl$Q" class="triangle" transform="translate(202.875, 89)"><path d="M 0,0 L 5,2.5 L 0,5 Z" transform="translate(-1.67, -2.5)" class="sprotty-port" style="fill:rgb(48, 48, 48);stroke:rgb(48, 48, 48);"/><text class="clickable sprotty-label port" id="sprotty_ArchitectureBlockImpl$clockhdr/BPortImpl$Q/label" transform="translate(-14.90625, 6) translate(4.453125, 14)" style="cursor:default;font-size:12px;perspective-origin:0px 0px;fill:rgb(48, 48, 48);text-anchor:middle;">Q</text></g></g></g></svg>