<svg xmlns="http://www.w3.org/2000/svg" id="sprotty_work.rvdff" class="sprotty-graph sprotty-block-diagram blockdiagram" style="font-family:&quot;Noto Sans&quot;, Helvetica, Arial, sans-serif;perspective-origin:0px 0px;transform-origin:0px 0px;" version="1.1" viewBox="7 7 171.078125 152" width="171.078125" height="152"><g transform="scale(1) translate(0,0)"><g id="sprotty_ArchitectureBlockImpl$rvdff" transform="translate(12, 12)" class="architecture"><g class="sprotty-block" style="fill:rgb(255, 255, 255);stroke:rgb(48, 48, 48);stroke-dasharray:0px;"><rect x="0" y="0" rx="1" ry="1" width="161.078125" height="142"/><text x="80.5390625" y="12" class="sprotty-block-name" style="cursor:pointer;font-weight:700;perspective-origin:80.7969px 0px;fill:rgb(48, 48, 48);stroke:rgba(0, 0, 0, 0);dominant-baseline:middle;text-anchor:middle;">rvdff</text><line x1="0" y1="20" x2="161.078125" y2="20"/></g><g id="sprotty_ArchitectureBlockImpl$rvdff/AlwaysBlockImpl$null4/GPortImpl$doutOUT_to_ArchitectureBlockImpl$rvdff/BPortImpl$dout" class="sprotty-edge thick edge" style="fill:none;stroke:rgb(112, 112, 112);stroke-linejoin:round;stroke-width:3px;"><g><path d="M 113.546875 69 L 161.078125 69 "/><path d="M 113.546875 69 L 161.078125 69 " class="clickable"/></g></g><g id="sprotty_ArchitectureBlockImpl$rvdff/BPortImpl$clk_to_ArchitectureBlockImpl$rvdff/AlwaysBlockImpl$null4/GPortImpl$clkIN" class="sprotty-edge edge" style="fill:none;stroke:rgb(112, 112, 112);stroke-linejoin:round;"><g><path d="M 0 35 L 53.625 35 C 54.625 35 55.625 36 55.625 37 L 55.625 57 C 55.625 58 56.625 59 57.625 59 L 65.625 59 "/><path d="M 0 35 L 53.625 35 C 54.625 35 55.625 36 55.625 37 L 55.625 57 C 55.625 58 56.625 59 57.625 59 L 65.625 59 " class="clickable"/></g></g><g id="sprotty_ArchitectureBlockImpl$rvdff/BPortImpl$rst_l_to_ArchitectureBlockImpl$rvdff/AlwaysBlockImpl$null4/GPortImpl$rst_lIN" class="sprotty-edge edge" style="fill:none;stroke:rgb(112, 112, 112);stroke-linejoin:round;"><g><path d="M 0 69 L 65.625 69 "/><path d="M 0 69 L 65.625 69 " class="clickable"/></g></g><g id="sprotty_ArchitectureBlockImpl$rvdff/BPortImpl$din_to_ArchitectureBlockImpl$rvdff/AlwaysBlockImpl$null4/GPortImpl$dinIN" class="sprotty-edge thick edge" style="fill:none;stroke:rgb(112, 112, 112);stroke-linejoin:round;stroke-width:3px;"><g><path d="M 0 103 L 53.625 103 C 54.625 103 55.625 102 55.625 101 L 55.625 81 C 55.625 80 56.625 79 57.625 79 L 65.625 79 "/><path d="M 0 103 L 53.625 103 C 54.625 103 55.625 102 55.625 101 L 55.625 81 C 55.625 80 56.625 79 57.625 79 L 65.625 79 " class="clickable"/></g></g><g id="sprotty_ArchitectureBlockImpl$rvdff/AlwaysBlockImpl$null4" transform="translate(65.625, 49)" class="statement"><rect x="0" y="0" rx="10" ry="5" width="47.921875" height="40" class="sprotty-node" style="fill:rgb(245, 245, 245);stroke:rgb(112, 112, 112);"/><text class="clickable sprotty-label statementtype" id="sprotty_ArchitectureBlockImpl$rvdff/AlwaysBlockImpl$null4/labeltype" transform="translate(5, 14) translate(18.828125, 9.5)" style="cursor:default;font-size:8px;font-weight:700;perspective-origin:0.125px 0px;fill:rgb(112, 112, 112);text-anchor:middle;">always_ff</text><g id="sprotty_ArchitectureBlockImpl$rvdff/AlwaysBlockImpl$null4/GPortImpl$dinIN" transform="translate(0, 30)" class="sprotty-hidden hidden" style="display:block;height:0px;width:0px;"/><g id="sprotty_ArchitectureBlockImpl$rvdff/AlwaysBlockImpl$null4/GPortImpl$rst_lIN" transform="translate(0, 20)" class="sprotty-hidden hidden" style="display:block;height:0px;width:0px;"/><g id="sprotty_ArchitectureBlockImpl$rvdff/AlwaysBlockImpl$null4/GPortImpl$clkIN" transform="translate(0, 10)" class="sprotty-hidden hidden" style="display:block;height:0px;width:0px;"/><g id="sprotty_ArchitectureBlockImpl$rvdff/AlwaysBlockImpl$null4/GPortImpl$doutOUT" transform="translate(47.921875, 20)" class="sprotty-hidden hidden" style="display:block;height:0px;width:0px;"/></g><g id="sprotty_ArchitectureBlockImpl$rvdff/BPortImpl$rst_l" transform="translate(0, 69)" class="triangle"><path d="M 0,0 L 5,2.5 L 0,5 Z" transform="translate(-1.67, -2.5)" class="sprotty-port" style="fill:rgb(48, 48, 48);stroke:rgb(48, 48, 48);"/><text class="clickable sprotty-label port" id="sprotty_ArchitectureBlockImpl$rvdff/BPortImpl$rst_l/label" transform="translate(6, 6) translate(12.3125, 14)" style="cursor:default;font-size:12px;perspective-origin:0px 0px;fill:rgb(48, 48, 48);text-anchor:middle;">rst_l</text></g><g id="sprotty_ArchitectureBlockImpl$rvdff/BPortImpl$clk" transform="translate(0, 35)" class="triangle"><path d="M 0,0 L 5,2.5 L 0,5 Z" transform="translate(-1.67, -2.5)" class="sprotty-port" style="fill:rgb(48, 48, 48);stroke:rgb(48, 48, 48);"/><text class="clickable sprotty-label port" id="sprotty_ArchitectureBlockImpl$rvdff/BPortImpl$clk/label" transform="translate(6, 6) translate(8.078125, 14)" style="cursor:default;font-size:12px;perspective-origin:0px 0px;fill:rgb(48, 48, 48);text-anchor:middle;">clk</text></g><g id="sprotty_ArchitectureBlockImpl$rvdff/BPortImpl$din" transform="translate(0, 103)" class="triangle"><path d="M 0,0 L 5,2.5 L 0,5 Z" transform="translate(-1.67, -2.5)" class="sprotty-port" style="fill:rgb(48, 48, 48);stroke:rgb(48, 48, 48);"/><text class="clickable sprotty-label port" id="sprotty_ArchitectureBlockImpl$rvdff/BPortImpl$din/label" transform="translate(6, 6) translate(9.046875, 14)" style="cursor:default;font-size:12px;perspective-origin:0px 0px;fill:rgb(48, 48, 48);text-anchor:middle;">din</text></g><g id="sprotty_ArchitectureBlockImpl$rvdff/BPortImpl$dout" transform="translate(161.078125, 69)" class="triangle"><path d="M 0,0 L 5,2.5 L 0,5 Z" transform="translate(-1.67, -2.5)" class="sprotty-port" style="fill:rgb(48, 48, 48);stroke:rgb(48, 48, 48);"/><text class="clickable sprotty-label port" id="sprotty_ArchitectureBlockImpl$rvdff/BPortImpl$dout/label" transform="translate(-32.53125, 6) translate(13.265625, 14)" style="cursor:default;font-size:12px;perspective-origin:0px 0px;fill:rgb(48, 48, 48);text-anchor:middle;">dout</text></g></g></g></svg>