<svg xmlns="http://www.w3.org/2000/svg" id="sprotty_work.eh2_cmp_and_mux" class="sprotty-graph sprotty-block-diagram blockdiagram" style="font-family:&quot;Noto Sans&quot;, Helvetica, Arial, sans-serif;perspective-origin:0px 0px;transform-origin:0px 0px;" version="1.1" viewBox="7 7 263.625 208" width="263.625" height="208"><g transform="scale(1) translate(0,0)"><g id="sprotty_ArchitectureBlockImpl$eh2_cmp_and_mux" class="architecture" transform="translate(12, 12)"><g class="sprotty-block" style="fill:rgb(255, 255, 255);stroke:rgb(48, 48, 48);stroke-dasharray:0px;"><rect x="0" y="0" rx="1" ry="1" width="253.625" height="198"/><text x="126.8125" y="12" class="sprotty-block-name" style="cursor:pointer;font-weight:700;perspective-origin:126.812px 0px;fill:rgb(48, 48, 48);stroke:rgba(0, 0, 0, 0);dominant-baseline:middle;text-anchor:middle;">eh2_cmp_and_mux</text><line x1="0" y1="20" x2="253.625" y2="20"/></g><g id="sprotty_ArchitectureBlockImpl$eh2_cmp_and_mux/AssignmentBlockImpl$out_id/GPortImpl$out_idOUT_to_ArchitectureBlockImpl$eh2_cmp_and_mux/BPortImpl$out_id" class="sprotty-edge thick edge" style="fill:none;stroke:rgb(112, 112, 112);stroke-linejoin:round;stroke-width:3px;"><g><path d="M 165.40625 125 L 253.625 125 "/><path d="M 165.40625 125 L 253.625 125 " class="clickable"/></g></g><g id="sprotty_ArchitectureBlockImpl$eh2_cmp_and_mux/AssignmentBlockImpl$out_priority/GPortImpl$out_priorityOUT_to_ArchitectureBlockImpl$eh2_cmp_and_mux/BPortImpl$out_priority" class="sprotty-edge thick edge" style="fill:none;stroke:rgb(112, 112, 112);stroke-linejoin:round;stroke-width:3px;"><g><path d="M 165.40625 65 L 253.625 65 "/><path d="M 165.40625 65 L 253.625 65 " class="clickable"/></g></g><g id="sprotty_ArchitectureBlockImpl$eh2_cmp_and_mux/BPortImpl$a_priority_to_ArchitectureBlockImpl$eh2_cmp_and_mux/AssignmentBlockImpl$a_is_lt_b/GPortImpl$a_priorityIN" class="sprotty-edge thick edge" style="fill:none;stroke:rgb(112, 112, 112);stroke-linejoin:round;stroke-width:3px;"><g><path d="M 0 70 L 96.53125 70 "/><path d="M 0 70 L 96.53125 70 " class="clickable"/></g></g><g id="sprotty_ArchitectureBlockImpl$eh2_cmp_and_mux/BPortImpl$b_priority_to_ArchitectureBlockImpl$eh2_cmp_and_mux/AssignmentBlockImpl$a_is_lt_b/GPortImpl$b_priorityIN" class="sprotty-edge thick edge" style="fill:none;stroke:rgb(112, 112, 112);stroke-linejoin:round;stroke-width:3px;"><g><path d="M 0 36 L 84.53125 36 C 85.53125 36 86.53125 37 86.53125 38 L 86.53125 58 C 86.53125 59 87.53125 60 88.53125 60 L 96.53125 60 "/><path d="M 0 36 L 84.53125 36 C 85.53125 36 86.53125 37 86.53125 38 L 86.53125 58 C 86.53125 59 87.53125 60 88.53125 60 L 96.53125 60 " class="clickable"/></g><circle r="3" id="sprotty_ArchitectureBlockImpl$eh2_cmp_and_mux/BPortImpl$b_priority_to_ArchitectureBlockImpl$eh2_cmp_and_mux/AssignmentBlockImpl$a_is_lt_b/GPortImpl$b_priorityIN/junction0" transform="translate(86.53125, 36)" class="sprotty-junction thick" style="fill:rgb(112, 112, 112);stroke:none;"/></g><g id="sprotty_ArchitectureBlockImpl$eh2_cmp_and_mux/BPortImpl$b_id_to_ArchitectureBlockImpl$eh2_cmp_and_mux/AssignmentBlockImpl$out_id/GPortImpl$b_idIN" class="sprotty-edge thick edge" style="fill:none;stroke:rgb(112, 112, 112);stroke-linejoin:round;stroke-width:3px;"><g><path d="M 0 125 L 145.96875 125 "/><path d="M 0 125 L 145.96875 125 " class="clickable"/></g></g><g id="sprotty_ArchitectureBlockImpl$eh2_cmp_and_mux/BPortImpl$a_id_to_ArchitectureBlockImpl$eh2_cmp_and_mux/AssignmentBlockImpl$out_id/GPortImpl$a_idIN" class="sprotty-edge thick edge" style="fill:none;stroke:rgb(112, 112, 112);stroke-linejoin:round;stroke-width:3px;"><g><path d="M 0 159 L 123.96875 159 C 124.96875 159 125.96875 158 125.96875 157 L 125.96875 137 C 125.96875 136 126.96875 135 127.96875 135 L 145.96875 135 "/><path d="M 0 159 L 123.96875 159 C 124.96875 159 125.96875 158 125.96875 157 L 125.96875 137 C 125.96875 136 126.96875 135 127.96875 135 L 145.96875 135 " class="clickable"/></g></g><g id="sprotty_ArchitectureBlockImpl$eh2_cmp_and_mux/BPortImpl$b_priority_to_ArchitectureBlockImpl$eh2_cmp_and_mux/AssignmentBlockImpl$out_priority/GPortImpl$b_priorityIN" class="sprotty-edge thick edge" style="fill:none;stroke:rgb(112, 112, 112);stroke-linejoin:round;stroke-width:3px;"><g><path d="M 0 36 L 123.96875 36 C 124.96875 36 125.96875 37 125.96875 38 L 125.96875 53 C 125.96875 54 126.96875 55 127.96875 55 L 145.96875 55 "/><path d="M 0 36 L 123.96875 36 C 124.96875 36 125.96875 37 125.96875 38 L 125.96875 53 C 125.96875 54 126.96875 55 127.96875 55 L 145.96875 55 " class="clickable"/></g></g><g id="sprotty_ArchitectureBlockImpl$eh2_cmp_and_mux/BPortImpl$a_priority_to_ArchitectureBlockImpl$eh2_cmp_and_mux/AssignmentBlockImpl$out_priority/GPortImpl$a_priorityIN" class="sprotty-edge thick edge" style="fill:none;stroke:rgb(112, 112, 112);stroke-linejoin:round;stroke-width:3px;"><g><path d="M 0 70 L 84.53125 70 C 85.53125 70 86.53125 71 86.53125 72 L 86.53125 89 C 86.53125 90 87.53125 91 88.53125 91 L 123.96875 91 C 124.96875 91 125.96875 90 125.96875 89 L 125.96875 77 C 125.96875 76 126.96875 75 127.96875 75 L 145.96875 75 "/><path d="M 0 70 L 84.53125 70 C 85.53125 70 86.53125 71 86.53125 72 L 86.53125 89 C 86.53125 90 87.53125 91 88.53125 91 L 123.96875 91 C 124.96875 91 125.96875 90 125.96875 89 L 125.96875 77 C 125.96875 76 126.96875 75 127.96875 75 L 145.96875 75 " class="clickable"/></g><circle r="3" id="sprotty_ArchitectureBlockImpl$eh2_cmp_and_mux/BPortImpl$a_priority_to_ArchitectureBlockImpl$eh2_cmp_and_mux/AssignmentBlockImpl$out_priority/GPortImpl$a_priorityIN/junction0" transform="translate(86.53125, 70)" class="sprotty-junction thick" style="fill:rgb(112, 112, 112);stroke:none;"/></g><g id="sprotty_ArchitectureBlockImpl$eh2_cmp_and_mux/AssignmentBlockImpl$a_is_lt_b/GPortImpl$a_is_lt_bOUT_to_ArchitectureBlockImpl$eh2_cmp_and_mux/AssignmentBlockImpl$out_id/GPortImpl$a_is_lt_bIN" class="sprotty-edge edge" style="fill:none;stroke:rgb(112, 112, 112);stroke-linejoin:round;"><g><path d="M 115.96875 65 L 133.96875 65 C 134.96875 65 135.96875 66 135.96875 67 L 135.96875 113 C 135.96875 114 136.96875 115 137.96875 115 L 145.96875 115 "/><path d="M 115.96875 65 L 133.96875 65 C 134.96875 65 135.96875 66 135.96875 67 L 135.96875 113 C 135.96875 114 136.96875 115 137.96875 115 L 145.96875 115 " class="clickable"/></g><circle r="2" id="sprotty_ArchitectureBlockImpl$eh2_cmp_and_mux/AssignmentBlockImpl$a_is_lt_b/GPortImpl$a_is_lt_bOUT_to_ArchitectureBlockImpl$eh2_cmp_and_mux/AssignmentBlockImpl$out_id/GPortImpl$a_is_lt_bIN/junction0" transform="translate(135.96875, 65)" class="sprotty-junction junction" style="fill:rgb(112, 112, 112);stroke:none;"/></g><g id="sprotty_ArchitectureBlockImpl$eh2_cmp_and_mux/AssignmentBlockImpl$a_is_lt_b/GPortImpl$a_is_lt_bOUT_to_ArchitectureBlockImpl$eh2_cmp_and_mux/AssignmentBlockImpl$out_priority/GPortImpl$a_is_lt_bIN" class="sprotty-edge edge" style="fill:none;stroke:rgb(112, 112, 112);stroke-linejoin:round;"><g><path d="M 115.96875 65 L 145.96875 65 "/><path d="M 115.96875 65 L 145.96875 65 " class="clickable"/></g></g><g id="sprotty_ArchitectureBlockImpl$eh2_cmp_and_mux/AssignmentBlockImpl$out_priority" class="statement" transform="translate(145.96875, 45)"><rect x="0" y="0" rx="10" ry="5" width="19.4375" height="40" class="sprotty-node" style="fill:rgb(245, 245, 245);stroke:rgb(112, 112, 112);"/><text class="clickable sprotty-label statementtype" id="sprotty_ArchitectureBlockImpl$eh2_cmp_and_mux/AssignmentBlockImpl$out_priority/labeltype" transform="translate(5, 14) translate(4.71875, 9)" style="cursor:default;font-size:8px;font-weight:700;perspective-origin:0px 0px;fill:rgb(112, 112, 112);text-anchor:middle;">&lt;=</text><g id="sprotty_ArchitectureBlockImpl$eh2_cmp_and_mux/AssignmentBlockImpl$out_priority/GPortImpl$a_priorityIN" class="sprotty-hidden hidden" transform="translate(0, 30)" style="display:block;height:0px;width:0px;"/><g id="sprotty_ArchitectureBlockImpl$eh2_cmp_and_mux/AssignmentBlockImpl$out_priority/GPortImpl$b_priorityIN" class="sprotty-hidden hidden" transform="translate(0, 10)" style="display:block;height:0px;width:0px;"/><g id="sprotty_ArchitectureBlockImpl$eh2_cmp_and_mux/AssignmentBlockImpl$out_priority/GPortImpl$a_is_lt_bIN" class="sprotty-hidden hidden" transform="translate(0, 20)" style="display:block;height:0px;width:0px;"/><g id="sprotty_ArchitectureBlockImpl$eh2_cmp_and_mux/AssignmentBlockImpl$out_priority/GPortImpl$out_priorityOUT" class="sprotty-hidden hidden" transform="translate(19.4375, 20)" style="display:block;height:0px;width:0px;"/></g><g id="sprotty_ArchitectureBlockImpl$eh2_cmp_and_mux/AssignmentBlockImpl$out_id" class="statement" transform="translate(145.96875, 105)"><rect x="0" y="0" rx="10" ry="5" width="19.4375" height="40" class="sprotty-node" style="fill:rgb(245, 245, 245);stroke:rgb(112, 112, 112);"/><text class="clickable sprotty-label statementtype" id="sprotty_ArchitectureBlockImpl$eh2_cmp_and_mux/AssignmentBlockImpl$out_id/labeltype" transform="translate(5, 14) translate(4.71875, 9)" style="cursor:default;font-size:8px;font-weight:700;perspective-origin:0px 0px;fill:rgb(112, 112, 112);text-anchor:middle;">&lt;=</text><g id="sprotty_ArchitectureBlockImpl$eh2_cmp_and_mux/AssignmentBlockImpl$out_id/GPortImpl$a_idIN" class="sprotty-hidden hidden" transform="translate(0, 30)" style="display:block;height:0px;width:0px;"/><g id="sprotty_ArchitectureBlockImpl$eh2_cmp_and_mux/AssignmentBlockImpl$out_id/GPortImpl$b_idIN" class="sprotty-hidden hidden" transform="translate(0, 20)" style="display:block;height:0px;width:0px;"/><g id="sprotty_ArchitectureBlockImpl$eh2_cmp_and_mux/AssignmentBlockImpl$out_id/GPortImpl$a_is_lt_bIN" class="sprotty-hidden hidden" transform="translate(0, 10)" style="display:block;height:0px;width:0px;"/><g id="sprotty_ArchitectureBlockImpl$eh2_cmp_and_mux/AssignmentBlockImpl$out_id/GPortImpl$out_idOUT" class="sprotty-hidden hidden" transform="translate(19.4375, 20)" style="display:block;height:0px;width:0px;"/></g><g id="sprotty_ArchitectureBlockImpl$eh2_cmp_and_mux/AssignmentBlockImpl$a_is_lt_b" class="statement" transform="translate(96.53125, 50)"><rect x="0" y="0" rx="10" ry="5" width="19.4375" height="30" class="sprotty-node" style="fill:rgb(245, 245, 245);stroke:rgb(112, 112, 112);"/><text class="clickable sprotty-label statementtype" id="sprotty_ArchitectureBlockImpl$eh2_cmp_and_mux/AssignmentBlockImpl$a_is_lt_b/labeltype" transform="translate(5, 9) translate(4.71875, 9)" style="cursor:default;font-size:8px;font-weight:700;perspective-origin:0px 0px;fill:rgb(112, 112, 112);text-anchor:middle;">&lt;=</text><g id="sprotty_ArchitectureBlockImpl$eh2_cmp_and_mux/AssignmentBlockImpl$a_is_lt_b/GPortImpl$b_priorityIN" class="sprotty-hidden hidden" transform="translate(0, 10)" style="display:block;height:0px;width:0px;"/><g id="sprotty_ArchitectureBlockImpl$eh2_cmp_and_mux/AssignmentBlockImpl$a_is_lt_b/GPortImpl$a_priorityIN" class="sprotty-hidden hidden" transform="translate(0, 20)" style="display:block;height:0px;width:0px;"/><g id="sprotty_ArchitectureBlockImpl$eh2_cmp_and_mux/AssignmentBlockImpl$a_is_lt_b/GPortImpl$a_is_lt_bOUT" class="sprotty-hidden hidden" transform="translate(19.4375, 15)" style="display:block;height:0px;width:0px;"/></g><g id="sprotty_ArchitectureBlockImpl$eh2_cmp_and_mux/BPortImpl$b_priority" class="triangle" transform="translate(0, 36)"><path d="M 0,0 L 5,2.5 L 0,5 Z" transform="translate(-1.67, -2.5)" class="sprotty-port" style="fill:rgb(48, 48, 48);stroke:rgb(48, 48, 48);"/><text class="clickable sprotty-label port" id="sprotty_ArchitectureBlockImpl$eh2_cmp_and_mux/BPortImpl$b_priority/label" transform="translate(6, 6) translate(27.765625, 14)" style="cursor:default;font-size:12px;perspective-origin:0px 0px;fill:rgb(48, 48, 48);text-anchor:middle;">b_priority</text></g><g id="sprotty_ArchitectureBlockImpl$eh2_cmp_and_mux/BPortImpl$b_id" class="triangle" transform="translate(0, 125)"><path d="M 0,0 L 5,2.5 L 0,5 Z" transform="translate(-1.67, -2.5)" class="sprotty-port" style="fill:rgb(48, 48, 48);stroke:rgb(48, 48, 48);"/><text class="clickable sprotty-label port" id="sprotty_ArchitectureBlockImpl$eh2_cmp_and_mux/BPortImpl$b_id/label" transform="translate(6, 6) translate(12.4375, 14)" style="cursor:default;font-size:12px;perspective-origin:0px 0px;fill:rgb(48, 48, 48);text-anchor:middle;">b_id</text></g><g id="sprotty_ArchitectureBlockImpl$eh2_cmp_and_mux/BPortImpl$a_priority" class="triangle" transform="translate(0, 70)"><path d="M 0,0 L 5,2.5 L 0,5 Z" transform="translate(-1.67, -2.5)" class="sprotty-port" style="fill:rgb(48, 48, 48);stroke:rgb(48, 48, 48);"/><text class="clickable sprotty-label port" id="sprotty_ArchitectureBlockImpl$eh2_cmp_and_mux/BPortImpl$a_priority/label" transform="translate(6, 6) translate(27.453125, 14)" style="cursor:default;font-size:12px;perspective-origin:0px 0px;fill:rgb(48, 48, 48);text-anchor:middle;">a_priority</text></g><g id="sprotty_ArchitectureBlockImpl$eh2_cmp_and_mux/BPortImpl$a_id" class="triangle" transform="translate(0, 159)"><path d="M 0,0 L 5,2.5 L 0,5 Z" transform="translate(-1.67, -2.5)" class="sprotty-port" style="fill:rgb(48, 48, 48);stroke:rgb(48, 48, 48);"/><text class="clickable sprotty-label port" id="sprotty_ArchitectureBlockImpl$eh2_cmp_and_mux/BPortImpl$a_id/label" transform="translate(6, 6) translate(12.109375, 14)" style="cursor:default;font-size:12px;perspective-origin:0px 0px;fill:rgb(48, 48, 48);text-anchor:middle;">a_id</text></g><g id="sprotty_ArchitectureBlockImpl$eh2_cmp_and_mux/BPortImpl$out_id" class="triangle" transform="translate(253.625, 125)"><path d="M 0,0 L 5,2.5 L 0,5 Z" transform="translate(-1.67, -2.5)" class="sprotty-port" style="fill:rgb(48, 48, 48);stroke:rgb(48, 48, 48);"/><text class="clickable sprotty-label port" id="sprotty_ArchitectureBlockImpl$eh2_cmp_and_mux/BPortImpl$out_id/label" transform="translate(-42.53125, 6) translate(18.265625, 14)" style="cursor:default;font-size:12px;perspective-origin:0px 0px;fill:rgb(48, 48, 48);text-anchor:middle;">out_id</text></g><g id="sprotty_ArchitectureBlockImpl$eh2_cmp_and_mux/BPortImpl$out_priority" class="triangle" transform="translate(253.625, 65)"><path d="M 0,0 L 5,2.5 L 0,5 Z" transform="translate(-1.67, -2.5)" class="sprotty-port" style="fill:rgb(48, 48, 48);stroke:rgb(48, 48, 48);"/><text class="clickable sprotty-label port" id="sprotty_ArchitectureBlockImpl$eh2_cmp_and_mux/BPortImpl$out_priority/label" transform="translate(-73.21875, 6) translate(33.609375, 14)" style="cursor:default;font-size:12px;perspective-origin:0px 0px;fill:rgb(48, 48, 48);text-anchor:middle;">out_priority</text></g></g></g></svg>