<svg xmlns="http://www.w3.org/2000/svg" id="sprotty_work.eh2_btb_ghr_hash" class="sprotty-graph sprotty-block-diagram blockdiagram" style="font-family:&quot;Noto Sans&quot;, Helvetica, Arial, sans-serif;perspective-origin:0px 0px;transform-origin:0px 0px;" version="1.1" viewBox="7 7 216 170" width="216" height="170"><g transform="scale(1) translate(0,0)"><g id="sprotty_ArchitectureBlockImpl$eh2_btb_ghr_hash" class="architecture" transform="translate(12, 12)"><g class="sprotty-block" style="fill:rgb(255, 255, 255);stroke:rgb(48, 48, 48);stroke-dasharray:0px;"><rect x="0" y="0" rx="1" ry="1" width="206" height="160"/><text x="103" y="12" class="sprotty-block-name" style="cursor:pointer;font-weight:700;perspective-origin:103px 0px;fill:rgb(48, 48, 48);stroke:rgba(0, 0, 0, 0);dominant-baseline:middle;text-anchor:middle;">eh2_btb_ghr_hash</text><line x1="0" y1="20" x2="206" y2="20"/></g><g id="sprotty_ArchitectureBlockImpl$eh2_btb_ghr_hash/GenerateStatementBlockImpl$null3/GPortImpl$hash_to_ArchitectureBlockImpl$eh2_btb_ghr_hash/BPortImpl$hash" class="sprotty-edge thick edge" style="fill:none;stroke:rgb(112, 112, 112);stroke-linejoin:round;stroke-width:3px;"><g><path d="M 158.03125 65 L 206 65 "/><path d="M 158.03125 65 L 206 65 " class="clickable"/></g></g><g id="sprotty_ArchitectureBlockImpl$eh2_btb_ghr_hash/BPortImpl$ghr_to_ArchitectureBlockImpl$eh2_btb_ghr_hash/GenerateStatementBlockImpl$null3/GPortImpl$ghr" class="sprotty-edge thick edge" style="fill:none;stroke:rgb(112, 112, 112);stroke-linejoin:round;stroke-width:3px;"><g><path d="M 0 120 L 58.59375 120 "/><path d="M 0 120 L 58.59375 120 " class="clickable"/></g></g><g id="sprotty_ArchitectureBlockImpl$eh2_btb_ghr_hash/BPortImpl$hashin_to_ArchitectureBlockImpl$eh2_btb_ghr_hash/GenerateStatementBlockImpl$null3/GPortImpl$hashin" class="sprotty-edge thick edge" style="fill:none;stroke:rgb(112, 112, 112);stroke-linejoin:round;stroke-width:3px;"><g><path d="M 0 60 L 58.59375 60 "/><path d="M 0 60 L 58.59375 60 " class="clickable"/></g></g><g id="sprotty_ArchitectureBlockImpl$eh2_btb_ghr_hash/GenerateStatementBlockImpl$null3" class="generate" transform="translate(58.59375, 35)"><g class="sprotty-block sprotty-block-generate" style="fill:rgb(255, 255, 255);stroke:rgb(48, 48, 48);stroke-dasharray:0px;"><rect x="0" y="0" rx="1" ry="1" width="99.4375" height="110" style="stroke-dasharray:3px, 1px;"/><text x="49.71875" y="12" class="sprotty-block-name" style="cursor:pointer;font-weight:700;fill:rgb(48, 48, 48);stroke:rgba(0, 0, 0, 0);dominant-baseline:middle;text-anchor:middle;"/></g><g id="sprotty_ArchitectureBlockImpl$eh2_btb_ghr_hash/GenerateStatementBlockImpl$null3/AssignmentBlockImpl$hash1/GPortImpl$hashOUT_to_ArchitectureBlockImpl$eh2_btb_ghr_hash/GenerateStatementBlockImpl$null3/GPortImpl$hash" class="sprotty-edge thick edge" style="fill:none;stroke:rgb(112, 112, 112);stroke-linejoin:round;stroke-width:3px;"><g><path d="M 64.4375 80 L 72.4375 80 C 73.4375 80 74.4375 79 74.4375 78 L 74.4375 32 C 74.4375 31 75.4375 30 76.4375 30 L 99.4375 30 "/><path d="M 64.4375 80 L 72.4375 80 C 73.4375 80 74.4375 79 74.4375 78 L 74.4375 32 C 74.4375 31 75.4375 30 76.4375 30 L 99.4375 30 " class="clickable"/></g><circle r="3" id="sprotty_ArchitectureBlockImpl$eh2_btb_ghr_hash/GenerateStatementBlockImpl$null3/AssignmentBlockImpl$hash1/GPortImpl$hashOUT_to_ArchitectureBlockImpl$eh2_btb_ghr_hash/GenerateStatementBlockImpl$null3/GPortImpl$hash/junction0" transform="translate(74.4375, 30)" class="sprotty-junction thick" style="fill:rgb(112, 112, 112);stroke:none;"/></g><g id="sprotty_ArchitectureBlockImpl$eh2_btb_ghr_hash/GenerateStatementBlockImpl$null3/AssignmentBlockImpl$hash/GPortImpl$hashOUT_to_ArchitectureBlockImpl$eh2_btb_ghr_hash/GenerateStatementBlockImpl$null3/GPortImpl$hash" class="sprotty-edge thick edge" style="fill:none;stroke:rgb(112, 112, 112);stroke-linejoin:round;stroke-width:3px;"><g><path d="M 64.4375 30 L 99.4375 30 "/><path d="M 64.4375 30 L 99.4375 30 " class="clickable"/></g></g><g id="sprotty_ArchitectureBlockImpl$eh2_btb_ghr_hash/GenerateStatementBlockImpl$null3/GPortImpl$ghr_to_ArchitectureBlockImpl$eh2_btb_ghr_hash/GenerateStatementBlockImpl$null3/AssignmentBlockImpl$hash1/GPortImpl$ghrIN" class="sprotty-edge thick edge" style="fill:none;stroke:rgb(112, 112, 112);stroke-linejoin:round;stroke-width:3px;"><g><path d="M 0 85 L 45 85 "/><path d="M 0 85 L 45 85 " class="clickable"/></g></g><g id="sprotty_ArchitectureBlockImpl$eh2_btb_ghr_hash/GenerateStatementBlockImpl$null3/GPortImpl$hashin_to_ArchitectureBlockImpl$eh2_btb_ghr_hash/GenerateStatementBlockImpl$null3/AssignmentBlockImpl$hash1/GPortImpl$hashinIN" class="sprotty-edge thick edge" style="fill:none;stroke:rgb(112, 112, 112);stroke-linejoin:round;stroke-width:3px;"><g><path d="M 0 25 L 33 25 C 34 25 35 26 35 27 L 35 73 C 35 74 36 75 37 75 L 45 75 "/><path d="M 0 25 L 33 25 C 34 25 35 26 35 27 L 35 73 C 35 74 36 75 37 75 L 45 75 " class="clickable"/></g><circle r="3" id="sprotty_ArchitectureBlockImpl$eh2_btb_ghr_hash/GenerateStatementBlockImpl$null3/GPortImpl$hashin_to_ArchitectureBlockImpl$eh2_btb_ghr_hash/GenerateStatementBlockImpl$null3/AssignmentBlockImpl$hash1/GPortImpl$hashinIN/junction0" transform="translate(35, 25)" class="sprotty-junction thick" style="fill:rgb(112, 112, 112);stroke:none;"/></g><g id="sprotty_ArchitectureBlockImpl$eh2_btb_ghr_hash/GenerateStatementBlockImpl$null3/GPortImpl$hashin_to_ArchitectureBlockImpl$eh2_btb_ghr_hash/GenerateStatementBlockImpl$null3/AssignmentBlockImpl$hash/GPortImpl$hashinIN" class="sprotty-edge thick edge" style="fill:none;stroke:rgb(112, 112, 112);stroke-linejoin:round;stroke-width:3px;"><g><path d="M 0 25 L 45 25 "/><path d="M 0 25 L 45 25 " class="clickable"/></g></g><g id="sprotty_ArchitectureBlockImpl$eh2_btb_ghr_hash/GenerateStatementBlockImpl$null3/GPortImpl$ghr_to_ArchitectureBlockImpl$eh2_btb_ghr_hash/GenerateStatementBlockImpl$null3/AssignmentBlockImpl$hash/GPortImpl$ghrIN" class="sprotty-edge thick edge" style="fill:none;stroke:rgb(112, 112, 112);stroke-linejoin:round;stroke-width:3px;"><g><path d="M 0 85 L 23 85 C 24 85 25 84 25 83 L 25 37 C 25 36 26 35 27 35 L 45 35 "/><path d="M 0 85 L 23 85 C 24 85 25 84 25 83 L 25 37 C 25 36 26 35 27 35 L 45 35 " class="clickable"/></g><circle r="3" id="sprotty_ArchitectureBlockImpl$eh2_btb_ghr_hash/GenerateStatementBlockImpl$null3/GPortImpl$ghr_to_ArchitectureBlockImpl$eh2_btb_ghr_hash/GenerateStatementBlockImpl$null3/AssignmentBlockImpl$hash/GPortImpl$ghrIN/junction0" transform="translate(25, 85)" class="sprotty-junction thick" style="fill:rgb(112, 112, 112);stroke:none;"/></g><g id="sprotty_ArchitectureBlockImpl$eh2_btb_ghr_hash/GenerateStatementBlockImpl$null3/AssignmentBlockImpl$hash" class="statement" transform="translate(45, 15)"><rect x="0" y="0" rx="10" ry="5" width="19.4375" height="30" class="sprotty-node" style="fill:rgb(245, 245, 245);stroke:rgb(112, 112, 112);"/><text class="clickable sprotty-label statementtype" id="sprotty_ArchitectureBlockImpl$eh2_btb_ghr_hash/GenerateStatementBlockImpl$null3/AssignmentBlockImpl$hash/labeltype" transform="translate(5, 9) translate(4.71875, 9.5)" style="cursor:default;font-size:8px;font-weight:700;perspective-origin:0px 0px;fill:rgb(112, 112, 112);text-anchor:middle;">&lt;=</text><g id="sprotty_ArchitectureBlockImpl$eh2_btb_ghr_hash/GenerateStatementBlockImpl$null3/AssignmentBlockImpl$hash/GPortImpl$ghrIN" class="sprotty-hidden hidden" transform="translate(0, 20)" style="display:block;height:0px;width:0px;"/><g id="sprotty_ArchitectureBlockImpl$eh2_btb_ghr_hash/GenerateStatementBlockImpl$null3/AssignmentBlockImpl$hash/GPortImpl$hashinIN" class="sprotty-hidden hidden" transform="translate(0, 10)" style="display:block;height:0px;width:0px;"/><g id="sprotty_ArchitectureBlockImpl$eh2_btb_ghr_hash/GenerateStatementBlockImpl$null3/AssignmentBlockImpl$hash/GPortImpl$hashOUT" class="sprotty-hidden hidden" transform="translate(19.4375, 15)" style="display:block;height:0px;width:0px;"/></g><g id="sprotty_ArchitectureBlockImpl$eh2_btb_ghr_hash/GenerateStatementBlockImpl$null3/AssignmentBlockImpl$hash1" class="statement" transform="translate(45, 65)"><rect x="0" y="0" rx="10" ry="5" width="19.4375" height="30" class="sprotty-node" style="fill:rgb(245, 245, 245);stroke:rgb(112, 112, 112);"/><text class="clickable sprotty-label statementtype" id="sprotty_ArchitectureBlockImpl$eh2_btb_ghr_hash/GenerateStatementBlockImpl$null3/AssignmentBlockImpl$hash1/labeltype" transform="translate(5, 9) translate(4.71875, 9.5)" style="cursor:default;font-size:8px;font-weight:700;perspective-origin:0px 0px;fill:rgb(112, 112, 112);text-anchor:middle;">&lt;=</text><g id="sprotty_ArchitectureBlockImpl$eh2_btb_ghr_hash/GenerateStatementBlockImpl$null3/AssignmentBlockImpl$hash1/GPortImpl$hashinIN" class="sprotty-hidden hidden" transform="translate(0, 10)" style="display:block;height:0px;width:0px;"/><g id="sprotty_ArchitectureBlockImpl$eh2_btb_ghr_hash/GenerateStatementBlockImpl$null3/AssignmentBlockImpl$hash1/GPortImpl$ghrIN" class="sprotty-hidden hidden" transform="translate(0, 20)" style="display:block;height:0px;width:0px;"/><g id="sprotty_ArchitectureBlockImpl$eh2_btb_ghr_hash/GenerateStatementBlockImpl$null3/AssignmentBlockImpl$hash1/GPortImpl$hashOUT" class="sprotty-hidden hidden" transform="translate(19.4375, 15)" style="display:block;height:0px;width:0px;"/></g><g id="sprotty_ArchitectureBlockImpl$eh2_btb_ghr_hash/GenerateStatementBlockImpl$null3/GPortImpl$hashin" class="triangle" transform="translate(0, 25)"><path d="M 0,0 L 5,2.5 L 0,5 Z" transform="translate(-1.67, -2.5)" class="sprotty-port" style="fill:rgb(48, 48, 48);stroke:rgb(48, 48, 48);"/></g><g id="sprotty_ArchitectureBlockImpl$eh2_btb_ghr_hash/GenerateStatementBlockImpl$null3/GPortImpl$ghr" class="triangle" transform="translate(0, 85)"><path d="M 0,0 L 5,2.5 L 0,5 Z" transform="translate(-1.67, -2.5)" class="sprotty-port" style="fill:rgb(48, 48, 48);stroke:rgb(48, 48, 48);"/></g><g id="sprotty_ArchitectureBlockImpl$eh2_btb_ghr_hash/GenerateStatementBlockImpl$null3/GPortImpl$hash" class="triangle" transform="translate(99.4375, 30)"><path d="M 0,0 L 5,2.5 L 0,5 Z" transform="translate(-1.67, -2.5)" class="sprotty-port" style="fill:rgb(48, 48, 48);stroke:rgb(48, 48, 48);"/></g></g><g id="sprotty_ArchitectureBlockImpl$eh2_btb_ghr_hash/BPortImpl$ghr" class="triangle" transform="translate(0, 120)"><path d="M 0,0 L 5,2.5 L 0,5 Z" transform="translate(-1.67, -2.5)" class="sprotty-port" style="fill:rgb(48, 48, 48);stroke:rgb(48, 48, 48);"/><text class="clickable sprotty-label port" id="sprotty_ArchitectureBlockImpl$eh2_btb_ghr_hash/BPortImpl$ghr/label" transform="translate(6, 6) translate(9.359375, 14)" style="cursor:default;font-size:12px;perspective-origin:0px 0px;fill:rgb(48, 48, 48);text-anchor:middle;">ghr</text></g><g id="sprotty_ArchitectureBlockImpl$eh2_btb_ghr_hash/BPortImpl$hashin" class="triangle" transform="translate(0, 60)"><path d="M 0,0 L 5,2.5 L 0,5 Z" transform="translate(-1.67, -2.5)" class="sprotty-port" style="fill:rgb(48, 48, 48);stroke:rgb(48, 48, 48);"/><text class="clickable sprotty-label port" id="sprotty_ArchitectureBlockImpl$eh2_btb_ghr_hash/BPortImpl$hashin/label" transform="translate(6, 6) translate(18.796875, 14)" style="cursor:default;font-size:12px;perspective-origin:0px 0px;fill:rgb(48, 48, 48);text-anchor:middle;">hashin</text></g><g id="sprotty_ArchitectureBlockImpl$eh2_btb_ghr_hash/BPortImpl$hash" class="triangle" transform="translate(206, 65)"><path d="M 0,0 L 5,2.5 L 0,5 Z" transform="translate(-1.67, -2.5)" class="sprotty-port" style="fill:rgb(48, 48, 48);stroke:rgb(48, 48, 48);"/><text class="clickable sprotty-label port" id="sprotty_ArchitectureBlockImpl$eh2_btb_ghr_hash/BPortImpl$hash/label" transform="translate(-32.96875, 6) translate(13.484375, 14)" style="cursor:default;font-size:12px;perspective-origin:0px 0px;fill:rgb(48, 48, 48);text-anchor:middle;">hash</text></g></g></g></svg>