<svg xmlns="http://www.w3.org/2000/svg" id="sprotty_work.rvdffppie" class="sprotty-graph sprotty-block-diagram blockdiagram" style="font-family:&quot;Noto Sans&quot;, Helvetica, Arial, sans-serif;perspective-origin:0px 0px;transform-origin:0px 0px;" version="1.1" viewBox="7 7 425.15625 634" width="425.15625" height="634"><g transform="scale(1) translate(0,0)"><g id="sprotty_ArchitectureBlockImpl$rvdffppie" class="architecture" transform="translate(12, 12)"><g class="sprotty-block" style="fill:rgb(255, 255, 255);stroke:rgb(48, 48, 48);stroke-dasharray:0px;"><rect x="0" y="0" rx="1" ry="1" width="415.15625" height="624"/><text x="207.578125" y="12" class="sprotty-block-name" style="cursor:pointer;font-weight:700;perspective-origin:207.578px 0px;fill:rgb(48, 48, 48);stroke:rgba(0, 0, 0, 0);dominant-baseline:middle;text-anchor:middle;">rvdffppie</text><line x1="0" y1="20" x2="415.15625" y2="20"/></g><g id="sprotty_ArchitectureBlockImpl$rvdffppie/GenerateStatementBlockImpl$null7/GPortImpl$dout_to_ArchitectureBlockImpl$rvdffppie/BPortImpl$dout" class="sprotty-edge thick edge" style="fill:none;stroke:rgb(112, 112, 112);stroke-linejoin:round;stroke-width:3px;"><g><path d="M 367.625 332 L 415.15625 332 "/><path d="M 367.625 332 L 415.15625 332 " class="clickable"/></g></g><g id="sprotty_ArchitectureBlockImpl$rvdffppie/BPortImpl$din_to_ArchitectureBlockImpl$rvdffppie/GenerateStatementBlockImpl$null7/GPortImpl$din" class="sprotty-edge thick edge" style="fill:none;stroke:rgb(112, 112, 112);stroke-linejoin:round;stroke-width:3px;"><g><path d="M 0 110 L 93.875 110 C 94.875 110 95.875 111 95.875 112 L 95.875 132 C 95.875 133 96.875 134 97.875 134 L 115.875 134 "/><path d="M 0 110 L 93.875 110 C 94.875 110 95.875 111 95.875 112 L 95.875 132 C 95.875 133 96.875 134 97.875 134 L 115.875 134 " class="clickable"/></g></g><g id="sprotty_ArchitectureBlockImpl$rvdffppie/BPortImpl$clk_to_ArchitectureBlockImpl$rvdffppie/GenerateStatementBlockImpl$null7/GPortImpl$clk" class="sprotty-edge edge" style="fill:none;stroke:rgb(112, 112, 112);stroke-linejoin:round;"><g><path d="M 0 144 L 115.875 144 "/><path d="M 0 144 L 115.875 144 " class="clickable"/></g></g><g id="sprotty_ArchitectureBlockImpl$rvdffppie/BPortImpl$rst_l_to_ArchitectureBlockImpl$rvdffppie/GenerateStatementBlockImpl$null7/GPortImpl$rst_l" class="sprotty-edge edge" style="fill:none;stroke:rgb(112, 112, 112);stroke-linejoin:round;"><g><path d="M 0 332 L 115.875 332 "/><path d="M 0 332 L 115.875 332 " class="clickable"/></g></g><g id="sprotty_ArchitectureBlockImpl$rvdffppie/BPortImpl$scan_mode_to_ArchitectureBlockImpl$rvdffppie/GenerateStatementBlockImpl$null7/GPortImpl$scan_mode" class="sprotty-edge edge" style="fill:none;stroke:rgb(112, 112, 112);stroke-linejoin:round;"><g><path d="M 0 366 L 93.875 366 C 94.875 366 95.875 365 95.875 364 L 95.875 362 C 95.875 361 96.875 360 97.875 360 L 115.875 360 "/><path d="M 0 366 L 93.875 366 C 94.875 366 95.875 365 95.875 364 L 95.875 362 C 95.875 361 96.875 360 97.875 360 L 115.875 360 " class="clickable"/></g></g><g id="sprotty_ArchitectureBlockImpl$rvdffppie/BPortImpl$den_to_ArchitectureBlockImpl$rvdffppie/GenerateStatementBlockImpl$null7/GPortImpl$den" class="sprotty-edge edge" style="fill:none;stroke:rgb(112, 112, 112);stroke-linejoin:round;"><g><path d="M 0 400 L 93.875 400 C 94.875 400 95.875 399 95.875 398 L 95.875 390 C 95.875 389 96.875 388 97.875 388 L 115.875 388 "/><path d="M 0 400 L 93.875 400 C 94.875 400 95.875 399 95.875 398 L 95.875 390 C 95.875 389 96.875 388 97.875 388 L 115.875 388 " class="clickable"/></g></g><g id="sprotty_ArchitectureBlockImpl$rvdffppie/BPortImpl$en_to_ArchitectureBlockImpl$rvdffppie/GenerateStatementBlockImpl$null7/GPortImpl$en" class="sprotty-edge edge" style="fill:none;stroke:rgb(112, 112, 112);stroke-linejoin:round;"><g><path d="M 0 76 L 103.875 76 C 104.875 76 105.875 77 105.875 78 L 105.875 114 C 105.875 115 106.875 116 107.875 116 L 115.875 116 "/><path d="M 0 76 L 103.875 76 C 104.875 76 105.875 77 105.875 78 L 105.875 114 C 105.875 115 106.875 116 107.875 116 L 115.875 116 " class="clickable"/></g></g><g id="sprotty_ArchitectureBlockImpl$rvdffppie/GenerateStatementBlockImpl$null7" class="generate" transform="translate(115.875, 35)"><g class="sprotty-block sprotty-block-generate" style="fill:rgb(255, 255, 255);stroke:rgb(48, 48, 48);stroke-dasharray:0px;"><rect x="0" y="0" rx="1" ry="1" width="251.75" height="574" style="stroke-dasharray:3px, 1px;"/><text x="125.875" y="12" class="sprotty-block-name" style="cursor:pointer;font-weight:700;fill:rgb(48, 48, 48);stroke:rgba(0, 0, 0, 0);dominant-baseline:middle;text-anchor:middle;"/></g><g id="sprotty_ArchitectureBlockImpl$rvdffppie/GenerateStatementBlockImpl$null7/InstantiationBlockImpl$dff_left/BPortImpl$dout_to_ArchitectureBlockImpl$rvdffppie/GenerateStatementBlockImpl$null7/GPortImpl$dout" class="sprotty-edge thick edge" style="fill:none;stroke:rgb(112, 112, 112);stroke-linejoin:round;stroke-width:3px;"><g><path d="M 216.75 297 L 251.75 297 "/><path d="M 216.75 297 L 251.75 297 " class="clickable"/></g></g><g id="sprotty_ArchitectureBlockImpl$rvdffppie/GenerateStatementBlockImpl$null7/InstantiationBlockImpl$dff_pad/BPortImpl$dout_to_ArchitectureBlockImpl$rvdffppie/GenerateStatementBlockImpl$null7/GPortImpl$dout" class="sprotty-edge thick edge" style="fill:none;stroke:rgb(112, 112, 112);stroke-linejoin:round;stroke-width:3px;"><g><path d="M 216.75 485 L 224.75 485 C 225.75 485 226.75 484 226.75 483 L 226.75 299 C 226.75 298 227.75 297 228.75 297 L 251.75 297 "/><path d="M 216.75 485 L 224.75 485 C 225.75 485 226.75 484 226.75 483 L 226.75 299 C 226.75 298 227.75 297 228.75 297 L 251.75 297 " class="clickable"/></g></g><g id="sprotty_ArchitectureBlockImpl$rvdffppie/GenerateStatementBlockImpl$null7/InstantiationBlockImpl$dff_right/BPortImpl$dout_to_ArchitectureBlockImpl$rvdffppie/GenerateStatementBlockImpl$null7/GPortImpl$dout" class="sprotty-edge thick edge" style="fill:none;stroke:rgb(112, 112, 112);stroke-linejoin:round;stroke-width:3px;"><g><path d="M 216.75 109 L 224.75 109 C 225.75 109 226.75 110 226.75 111 L 226.75 295 C 226.75 296 227.75 297 228.75 297 L 251.75 297 "/><path d="M 216.75 109 L 224.75 109 C 225.75 109 226.75 110 226.75 111 L 226.75 295 C 226.75 296 227.75 297 228.75 297 L 251.75 297 " class="clickable"/></g><circle r="3" id="sprotty_ArchitectureBlockImpl$rvdffppie/GenerateStatementBlockImpl$null7/InstantiationBlockImpl$dff_right/BPortImpl$dout_to_ArchitectureBlockImpl$rvdffppie/GenerateStatementBlockImpl$null7/GPortImpl$dout/junction0" transform="translate(226.75, 297)" class="sprotty-junction thick" style="fill:rgb(112, 112, 112);stroke:none;"/></g><g id="sprotty_ArchitectureBlockImpl$rvdffppie/GenerateStatementBlockImpl$null7/GPortImpl$din_to_ArchitectureBlockImpl$rvdffppie/GenerateStatementBlockImpl$null7/InstantiationBlockImpl$dff_left/BPortImpl$din" class="sprotty-edge thick edge" style="fill:none;stroke:rgb(112, 112, 112);stroke-linejoin:round;stroke-width:3px;"><g><path d="M 0 99 L 63 99 C 64 99 65 100 65 101 L 65 239 C 65 240 66 241 67 241 L 75 241 "/><path d="M 0 99 L 63 99 C 64 99 65 100 65 101 L 65 239 C 65 240 66 241 67 241 L 75 241 " class="clickable"/></g><circle r="3" id="sprotty_ArchitectureBlockImpl$rvdffppie/GenerateStatementBlockImpl$null7/GPortImpl$din_to_ArchitectureBlockImpl$rvdffppie/GenerateStatementBlockImpl$null7/InstantiationBlockImpl$dff_left/BPortImpl$din/junction0" transform="translate(65, 99)" class="sprotty-junction thick" style="fill:rgb(112, 112, 112);stroke:none;"/><circle r="3" id="sprotty_ArchitectureBlockImpl$rvdffppie/GenerateStatementBlockImpl$null7/GPortImpl$din_to_ArchitectureBlockImpl$rvdffppie/GenerateStatementBlockImpl$null7/InstantiationBlockImpl$dff_left/BPortImpl$din/junction1" transform="translate(65, 241)" class="sprotty-junction thick" style="fill:rgb(112, 112, 112);stroke:none;"/></g><g id="sprotty_ArchitectureBlockImpl$rvdffppie/GenerateStatementBlockImpl$null7/GPortImpl$clk_to_ArchitectureBlockImpl$rvdffppie/GenerateStatementBlockImpl$null7/InstantiationBlockImpl$dff_left/BPortImpl$clk" class="sprotty-edge edge" style="fill:none;stroke:rgb(112, 112, 112);stroke-linejoin:round;"><g><path d="M 0 109 L 43 109 C 44 109 45 110 45 111 L 45 267 C 45 268 46 269 47 269 L 75 269 "/><path d="M 0 109 L 43 109 C 44 109 45 110 45 111 L 45 267 C 45 268 46 269 47 269 L 75 269 " class="clickable"/></g><circle r="2" id="sprotty_ArchitectureBlockImpl$rvdffppie/GenerateStatementBlockImpl$null7/GPortImpl$clk_to_ArchitectureBlockImpl$rvdffppie/GenerateStatementBlockImpl$null7/InstantiationBlockImpl$dff_left/BPortImpl$clk/junction0" transform="translate(45, 109)" class="sprotty-junction junction" style="fill:rgb(112, 112, 112);stroke:none;"/><circle r="2" id="sprotty_ArchitectureBlockImpl$rvdffppie/GenerateStatementBlockImpl$null7/GPortImpl$clk_to_ArchitectureBlockImpl$rvdffppie/GenerateStatementBlockImpl$null7/InstantiationBlockImpl$dff_left/BPortImpl$clk/junction1" transform="translate(45, 269)" class="sprotty-junction junction" style="fill:rgb(112, 112, 112);stroke:none;"/></g><g id="sprotty_ArchitectureBlockImpl$rvdffppie/GenerateStatementBlockImpl$null7/GPortImpl$rst_l_to_ArchitectureBlockImpl$rvdffppie/GenerateStatementBlockImpl$null7/InstantiationBlockImpl$dff_left/BPortImpl$rst_l" class="sprotty-edge edge" style="fill:none;stroke:rgb(112, 112, 112);stroke-linejoin:round;"><g><path d="M 0 297 L 75 297 "/><path d="M 0 297 L 75 297 " class="clickable"/></g></g><g id="sprotty_ArchitectureBlockImpl$rvdffppie/GenerateStatementBlockImpl$null7/GPortImpl$scan_mode_to_ArchitectureBlockImpl$rvdffppie/GenerateStatementBlockImpl$null7/InstantiationBlockImpl$dff_left/BPortImpl$scan_mode" class="sprotty-edge edge" style="fill:none;stroke:rgb(112, 112, 112);stroke-linejoin:round;"><g><path d="M 0 325 L 75 325 "/><path d="M 0 325 L 75 325 " class="clickable"/></g></g><g id="sprotty_ArchitectureBlockImpl$rvdffppie/GenerateStatementBlockImpl$null7/GPortImpl$den_to_ArchitectureBlockImpl$rvdffppie/GenerateStatementBlockImpl$null7/InstantiationBlockImpl$dff_left/BPortImpl$en" class="sprotty-edge edge" style="fill:none;stroke:rgb(112, 112, 112);stroke-linejoin:round;"><g><path d="M 0 353 L 75 353 "/><path d="M 0 353 L 75 353 " class="clickable"/></g></g><g id="sprotty_ArchitectureBlockImpl$rvdffppie/GenerateStatementBlockImpl$null7/GPortImpl$din_to_ArchitectureBlockImpl$rvdffppie/GenerateStatementBlockImpl$null7/InstantiationBlockImpl$dff_pad/BPortImpl$din" class="sprotty-edge thick edge" style="fill:none;stroke:rgb(112, 112, 112);stroke-linejoin:round;stroke-width:3px;"><g><path d="M 0 99 L 63 99 C 64 99 65 100 65 101 L 65 427 C 65 428 66 429 67 429 L 75 429 "/><path d="M 0 99 L 63 99 C 64 99 65 100 65 101 L 65 427 C 65 428 66 429 67 429 L 75 429 " class="clickable"/></g></g><g id="sprotty_ArchitectureBlockImpl$rvdffppie/GenerateStatementBlockImpl$null7/GPortImpl$den_to_ArchitectureBlockImpl$rvdffppie/GenerateStatementBlockImpl$null7/InstantiationBlockImpl$dff_pad/BPortImpl$en" class="sprotty-edge edge" style="fill:none;stroke:rgb(112, 112, 112);stroke-linejoin:round;"><g><path d="M 0 353 L 53 353 C 54 353 55 354 55 355 L 55 455 C 55 456 56 457 57 457 L 75 457 "/><path d="M 0 353 L 53 353 C 54 353 55 354 55 355 L 55 455 C 55 456 56 457 57 457 L 75 457 " class="clickable"/></g><circle r="2" id="sprotty_ArchitectureBlockImpl$rvdffppie/GenerateStatementBlockImpl$null7/GPortImpl$den_to_ArchitectureBlockImpl$rvdffppie/GenerateStatementBlockImpl$null7/InstantiationBlockImpl$dff_pad/BPortImpl$en/junction0" transform="translate(55, 353)" class="sprotty-junction junction" style="fill:rgb(112, 112, 112);stroke:none;"/></g><g id="sprotty_ArchitectureBlockImpl$rvdffppie/GenerateStatementBlockImpl$null7/GPortImpl$clk_to_ArchitectureBlockImpl$rvdffppie/GenerateStatementBlockImpl$null7/InstantiationBlockImpl$dff_pad/BPortImpl$clk" class="sprotty-edge edge" style="fill:none;stroke:rgb(112, 112, 112);stroke-linejoin:round;"><g><path d="M 0 109 L 43 109 C 44 109 45 110 45 111 L 45 483 C 45 484 46 485 47 485 L 75 485 "/><path d="M 0 109 L 43 109 C 44 109 45 110 45 111 L 45 483 C 45 484 46 485 47 485 L 75 485 " class="clickable"/></g></g><g id="sprotty_ArchitectureBlockImpl$rvdffppie/GenerateStatementBlockImpl$null7/GPortImpl$rst_l_to_ArchitectureBlockImpl$rvdffppie/GenerateStatementBlockImpl$null7/InstantiationBlockImpl$dff_pad/BPortImpl$rst_l" class="sprotty-edge edge" style="fill:none;stroke:rgb(112, 112, 112);stroke-linejoin:round;"><g><path d="M 0 297 L 23 297 C 24 297 25 298 25 299 L 25 511 C 25 512 26 513 27 513 L 75 513 "/><path d="M 0 297 L 23 297 C 24 297 25 298 25 299 L 25 511 C 25 512 26 513 27 513 L 75 513 " class="clickable"/></g><circle r="2" id="sprotty_ArchitectureBlockImpl$rvdffppie/GenerateStatementBlockImpl$null7/GPortImpl$rst_l_to_ArchitectureBlockImpl$rvdffppie/GenerateStatementBlockImpl$null7/InstantiationBlockImpl$dff_pad/BPortImpl$rst_l/junction0" transform="translate(25, 297)" class="sprotty-junction junction" style="fill:rgb(112, 112, 112);stroke:none;"/></g><g id="sprotty_ArchitectureBlockImpl$rvdffppie/GenerateStatementBlockImpl$null7/GPortImpl$scan_mode_to_ArchitectureBlockImpl$rvdffppie/GenerateStatementBlockImpl$null7/InstantiationBlockImpl$dff_pad/BPortImpl$scan_mode" class="sprotty-edge edge" style="fill:none;stroke:rgb(112, 112, 112);stroke-linejoin:round;"><g><path d="M 0 325 L 33 325 C 34 325 35 326 35 327 L 35 539 C 35 540 36 541 37 541 L 75 541 "/><path d="M 0 325 L 33 325 C 34 325 35 326 35 327 L 35 539 C 35 540 36 541 37 541 L 75 541 " class="clickable"/></g><circle r="2" id="sprotty_ArchitectureBlockImpl$rvdffppie/GenerateStatementBlockImpl$null7/GPortImpl$scan_mode_to_ArchitectureBlockImpl$rvdffppie/GenerateStatementBlockImpl$null7/InstantiationBlockImpl$dff_pad/BPortImpl$scan_mode/junction0" transform="translate(35, 325)" class="sprotty-junction junction" style="fill:rgb(112, 112, 112);stroke:none;"/></g><g id="sprotty_ArchitectureBlockImpl$rvdffppie/GenerateStatementBlockImpl$null7/GPortImpl$din_to_ArchitectureBlockImpl$rvdffppie/GenerateStatementBlockImpl$null7/InstantiationBlockImpl$dff_right/BPortImpl$din" class="sprotty-edge thick edge" style="fill:none;stroke:rgb(112, 112, 112);stroke-linejoin:round;stroke-width:3px;"><g><path d="M 0 99 L 63 99 C 64 99 65 98 65 97 L 65 55 C 65 54 66 53 67 53 L 75 53 "/><path d="M 0 99 L 63 99 C 64 99 65 98 65 97 L 65 55 C 65 54 66 53 67 53 L 75 53 " class="clickable"/></g></g><g id="sprotty_ArchitectureBlockImpl$rvdffppie/GenerateStatementBlockImpl$null7/GPortImpl$en_to_ArchitectureBlockImpl$rvdffppie/GenerateStatementBlockImpl$null7/InstantiationBlockImpl$dff_right/BPortImpl$en" class="sprotty-edge edge" style="fill:none;stroke:rgb(112, 112, 112);stroke-linejoin:round;"><g><path d="M 0 81 L 75 81 "/><path d="M 0 81 L 75 81 " class="clickable"/></g></g><g id="sprotty_ArchitectureBlockImpl$rvdffppie/GenerateStatementBlockImpl$null7/GPortImpl$clk_to_ArchitectureBlockImpl$rvdffppie/GenerateStatementBlockImpl$null7/InstantiationBlockImpl$dff_right/BPortImpl$clk" class="sprotty-edge edge" style="fill:none;stroke:rgb(112, 112, 112);stroke-linejoin:round;"><g><path d="M 0 109 L 75 109 "/><path d="M 0 109 L 75 109 " class="clickable"/></g></g><g id="sprotty_ArchitectureBlockImpl$rvdffppie/GenerateStatementBlockImpl$null7/GPortImpl$rst_l_to_ArchitectureBlockImpl$rvdffppie/GenerateStatementBlockImpl$null7/InstantiationBlockImpl$dff_right/BPortImpl$rst_l" class="sprotty-edge edge" style="fill:none;stroke:rgb(112, 112, 112);stroke-linejoin:round;"><g><path d="M 0 297 L 23 297 C 24 297 25 296 25 295 L 25 139 C 25 138 26 137 27 137 L 75 137 "/><path d="M 0 297 L 23 297 C 24 297 25 296 25 295 L 25 139 C 25 138 26 137 27 137 L 75 137 " class="clickable"/></g></g><g id="sprotty_ArchitectureBlockImpl$rvdffppie/GenerateStatementBlockImpl$null7/GPortImpl$scan_mode_to_ArchitectureBlockImpl$rvdffppie/GenerateStatementBlockImpl$null7/InstantiationBlockImpl$dff_right/BPortImpl$scan_mode" class="sprotty-edge edge" style="fill:none;stroke:rgb(112, 112, 112);stroke-linejoin:round;"><g><path d="M 0 325 L 33 325 C 34 325 35 324 35 323 L 35 167 C 35 166 36 165 37 165 L 75 165 "/><path d="M 0 325 L 33 325 C 34 325 35 324 35 323 L 35 167 C 35 166 36 165 37 165 L 75 165 " class="clickable"/></g></g><g id="sprotty_ArchitectureBlockImpl$rvdffppie/GenerateStatementBlockImpl$null7/InstantiationBlockImpl$dff_right" class="instantiation" transform="translate(75, 15)"><g class="sprotty-block" style="fill:rgb(255, 255, 255);stroke:rgb(48, 48, 48);stroke-dasharray:0px;"><rect x="0" y="0" rx="1" ry="1" width="141.75" height="168"/><text x="70.875" y="12" class="sprotty-block-name" style="cursor:pointer;font-weight:700;perspective-origin:70.875px 0px;fill:rgb(48, 48, 48);stroke:rgba(0, 0, 0, 0);dominant-baseline:middle;text-anchor:middle;">dff_right : rvdffe</text><line x1="0" y1="20" x2="141.75" y2="20"/></g><g id="sprotty_ArchitectureBlockImpl$rvdffppie/GenerateStatementBlockImpl$null7/InstantiationBlockImpl$dff_right/BPortImpl$scan_mode" class="triangle" transform="translate(0, 150)"><path d="M 0,0 L 5,2.5 L 0,5 Z" transform="translate(-1.67, -2.5)" class="sprotty-port" style="fill:rgb(48, 48, 48);stroke:rgb(48, 48, 48);"/><text class="clickable sprotty-label port" id="sprotty_ArchitectureBlockImpl$rvdffppie/GenerateStatementBlockImpl$null7/InstantiationBlockImpl$dff_right/BPortImpl$scan_mode/label" transform="translate(6, -9) translate(32.4375, 14)" style="cursor:default;font-size:12px;perspective-origin:0px 0px;fill:rgb(48, 48, 48);text-anchor:middle;">scan_mode</text></g><g id="sprotty_ArchitectureBlockImpl$rvdffppie/GenerateStatementBlockImpl$null7/InstantiationBlockImpl$dff_right/BPortImpl$rst_l" class="triangle" transform="translate(0, 122)"><path d="M 0,0 L 5,2.5 L 0,5 Z" transform="translate(-1.67, -2.5)" class="sprotty-port" style="fill:rgb(48, 48, 48);stroke:rgb(48, 48, 48);"/><text class="clickable sprotty-label port" id="sprotty_ArchitectureBlockImpl$rvdffppie/GenerateStatementBlockImpl$null7/InstantiationBlockImpl$dff_right/BPortImpl$rst_l/label" transform="translate(6, -9) translate(12.3125, 14)" style="cursor:default;font-size:12px;perspective-origin:0px 0px;fill:rgb(48, 48, 48);text-anchor:middle;">rst_l</text></g><g id="sprotty_ArchitectureBlockImpl$rvdffppie/GenerateStatementBlockImpl$null7/InstantiationBlockImpl$dff_right/BPortImpl$clk" class="triangle" transform="translate(0, 94)"><path d="M 0,0 L 5,2.5 L 0,5 Z" transform="translate(-1.67, -2.5)" class="sprotty-port" style="fill:rgb(48, 48, 48);stroke:rgb(48, 48, 48);"/><text class="clickable sprotty-label port" id="sprotty_ArchitectureBlockImpl$rvdffppie/GenerateStatementBlockImpl$null7/InstantiationBlockImpl$dff_right/BPortImpl$clk/label" transform="translate(6, -9) translate(8.078125, 14)" style="cursor:default;font-size:12px;perspective-origin:0px 0px;fill:rgb(48, 48, 48);text-anchor:middle;">clk</text></g><g id="sprotty_ArchitectureBlockImpl$rvdffppie/GenerateStatementBlockImpl$null7/InstantiationBlockImpl$dff_right/BPortImpl$en" class="triangle" transform="translate(0, 66)"><path d="M 0,0 L 5,2.5 L 0,5 Z" transform="translate(-1.67, -2.5)" class="sprotty-port" style="fill:rgb(48, 48, 48);stroke:rgb(48, 48, 48);"/><text class="clickable sprotty-label port" id="sprotty_ArchitectureBlockImpl$rvdffppie/GenerateStatementBlockImpl$null7/InstantiationBlockImpl$dff_right/BPortImpl$en/label" transform="translate(6, -9) translate(7, 14)" style="cursor:default;font-size:12px;perspective-origin:0px 0px;fill:rgb(48, 48, 48);text-anchor:middle;">en</text></g><g id="sprotty_ArchitectureBlockImpl$rvdffppie/GenerateStatementBlockImpl$null7/InstantiationBlockImpl$dff_right/BPortImpl$din" class="triangle" transform="translate(0, 38)"><path d="M 0,0 L 5,2.5 L 0,5 Z" transform="translate(-1.67, -2.5)" class="sprotty-port" style="fill:rgb(48, 48, 48);stroke:rgb(48, 48, 48);"/><text class="clickable sprotty-label port" id="sprotty_ArchitectureBlockImpl$rvdffppie/GenerateStatementBlockImpl$null7/InstantiationBlockImpl$dff_right/BPortImpl$din/label" transform="translate(6, -9) translate(9.046875, 14)" style="cursor:default;font-size:12px;perspective-origin:0px 0px;fill:rgb(48, 48, 48);text-anchor:middle;">din</text></g><g id="sprotty_ArchitectureBlockImpl$rvdffppie/GenerateStatementBlockImpl$null7/InstantiationBlockImpl$dff_right/BPortImpl$dout" class="triangle" transform="translate(141.75, 94)"><path d="M 0,0 L 5,2.5 L 0,5 Z" transform="translate(-1.67, -2.5)" class="sprotty-port" style="fill:rgb(48, 48, 48);stroke:rgb(48, 48, 48);"/><text class="clickable sprotty-label port" id="sprotty_ArchitectureBlockImpl$rvdffppie/GenerateStatementBlockImpl$null7/InstantiationBlockImpl$dff_right/BPortImpl$dout/label" transform="translate(-32.53125, -9) translate(13.265625, 14)" style="cursor:default;font-size:12px;perspective-origin:0px 0px;fill:rgb(48, 48, 48);text-anchor:middle;">dout</text></g></g><g id="sprotty_ArchitectureBlockImpl$rvdffppie/GenerateStatementBlockImpl$null7/InstantiationBlockImpl$dff_pad" class="instantiation" transform="translate(75, 391)"><g class="sprotty-block" style="fill:rgb(255, 255, 255);stroke:rgb(48, 48, 48);stroke-dasharray:0px;"><rect x="0" y="0" rx="1" ry="1" width="141.75" height="168"/><text x="70.875" y="12" class="sprotty-block-name" style="cursor:pointer;font-weight:700;perspective-origin:70.875px 0px;fill:rgb(48, 48, 48);stroke:rgba(0, 0, 0, 0);dominant-baseline:middle;text-anchor:middle;">dff_pad : rvdffe</text><line x1="0" y1="20" x2="141.75" y2="20"/></g><g id="sprotty_ArchitectureBlockImpl$rvdffppie/GenerateStatementBlockImpl$null7/InstantiationBlockImpl$dff_pad/BPortImpl$scan_mode" class="triangle" transform="translate(0, 150)"><path d="M 0,0 L 5,2.5 L 0,5 Z" transform="translate(-1.67, -2.5)" class="sprotty-port" style="fill:rgb(48, 48, 48);stroke:rgb(48, 48, 48);"/><text class="clickable sprotty-label port" id="sprotty_ArchitectureBlockImpl$rvdffppie/GenerateStatementBlockImpl$null7/InstantiationBlockImpl$dff_pad/BPortImpl$scan_mode/label" transform="translate(6, -9) translate(32.4375, 14)" style="cursor:default;font-size:12px;perspective-origin:0px 0px;fill:rgb(48, 48, 48);text-anchor:middle;">scan_mode</text></g><g id="sprotty_ArchitectureBlockImpl$rvdffppie/GenerateStatementBlockImpl$null7/InstantiationBlockImpl$dff_pad/BPortImpl$rst_l" class="triangle" transform="translate(0, 122)"><path d="M 0,0 L 5,2.5 L 0,5 Z" transform="translate(-1.67, -2.5)" class="sprotty-port" style="fill:rgb(48, 48, 48);stroke:rgb(48, 48, 48);"/><text class="clickable sprotty-label port" id="sprotty_ArchitectureBlockImpl$rvdffppie/GenerateStatementBlockImpl$null7/InstantiationBlockImpl$dff_pad/BPortImpl$rst_l/label" transform="translate(6, -9) translate(12.3125, 14)" style="cursor:default;font-size:12px;perspective-origin:0px 0px;fill:rgb(48, 48, 48);text-anchor:middle;">rst_l</text></g><g id="sprotty_ArchitectureBlockImpl$rvdffppie/GenerateStatementBlockImpl$null7/InstantiationBlockImpl$dff_pad/BPortImpl$clk" class="triangle" transform="translate(0, 94)"><path d="M 0,0 L 5,2.5 L 0,5 Z" transform="translate(-1.67, -2.5)" class="sprotty-port" style="fill:rgb(48, 48, 48);stroke:rgb(48, 48, 48);"/><text class="clickable sprotty-label port" id="sprotty_ArchitectureBlockImpl$rvdffppie/GenerateStatementBlockImpl$null7/InstantiationBlockImpl$dff_pad/BPortImpl$clk/label" transform="translate(6, -9) translate(8.078125, 14)" style="cursor:default;font-size:12px;perspective-origin:0px 0px;fill:rgb(48, 48, 48);text-anchor:middle;">clk</text></g><g id="sprotty_ArchitectureBlockImpl$rvdffppie/GenerateStatementBlockImpl$null7/InstantiationBlockImpl$dff_pad/BPortImpl$en" class="triangle" transform="translate(0, 66)"><path d="M 0,0 L 5,2.5 L 0,5 Z" transform="translate(-1.67, -2.5)" class="sprotty-port" style="fill:rgb(48, 48, 48);stroke:rgb(48, 48, 48);"/><text class="clickable sprotty-label port" id="sprotty_ArchitectureBlockImpl$rvdffppie/GenerateStatementBlockImpl$null7/InstantiationBlockImpl$dff_pad/BPortImpl$en/label" transform="translate(6, -9) translate(7, 14)" style="cursor:default;font-size:12px;perspective-origin:0px 0px;fill:rgb(48, 48, 48);text-anchor:middle;">en</text></g><g id="sprotty_ArchitectureBlockImpl$rvdffppie/GenerateStatementBlockImpl$null7/InstantiationBlockImpl$dff_pad/BPortImpl$din" class="triangle" transform="translate(0, 38)"><path d="M 0,0 L 5,2.5 L 0,5 Z" transform="translate(-1.67, -2.5)" class="sprotty-port" style="fill:rgb(48, 48, 48);stroke:rgb(48, 48, 48);"/><text class="clickable sprotty-label port" id="sprotty_ArchitectureBlockImpl$rvdffppie/GenerateStatementBlockImpl$null7/InstantiationBlockImpl$dff_pad/BPortImpl$din/label" transform="translate(6, -9) translate(9.046875, 14)" style="cursor:default;font-size:12px;perspective-origin:0px 0px;fill:rgb(48, 48, 48);text-anchor:middle;">din</text></g><g id="sprotty_ArchitectureBlockImpl$rvdffppie/GenerateStatementBlockImpl$null7/InstantiationBlockImpl$dff_pad/BPortImpl$dout" class="triangle" transform="translate(141.75, 94)"><path d="M 0,0 L 5,2.5 L 0,5 Z" transform="translate(-1.67, -2.5)" class="sprotty-port" style="fill:rgb(48, 48, 48);stroke:rgb(48, 48, 48);"/><text class="clickable sprotty-label port" id="sprotty_ArchitectureBlockImpl$rvdffppie/GenerateStatementBlockImpl$null7/InstantiationBlockImpl$dff_pad/BPortImpl$dout/label" transform="translate(-32.53125, -9) translate(13.265625, 14)" style="cursor:default;font-size:12px;perspective-origin:0px 0px;fill:rgb(48, 48, 48);text-anchor:middle;">dout</text></g></g><g id="sprotty_ArchitectureBlockImpl$rvdffppie/GenerateStatementBlockImpl$null7/InstantiationBlockImpl$dff_left" class="instantiation" transform="translate(75, 203)"><g class="sprotty-block" style="fill:rgb(255, 255, 255);stroke:rgb(48, 48, 48);stroke-dasharray:0px;"><rect x="0" y="0" rx="1" ry="1" width="141.75" height="168"/><text x="70.875" y="12" class="sprotty-block-name" style="cursor:pointer;font-weight:700;perspective-origin:70.875px 0px;fill:rgb(48, 48, 48);stroke:rgba(0, 0, 0, 0);dominant-baseline:middle;text-anchor:middle;">dff_left : rvdffiee</text><line x1="0" y1="20" x2="141.75" y2="20"/></g><g id="sprotty_ArchitectureBlockImpl$rvdffppie/GenerateStatementBlockImpl$null7/InstantiationBlockImpl$dff_left/BPortImpl$en" class="triangle" transform="translate(0, 150)"><path d="M 0,0 L 5,2.5 L 0,5 Z" transform="translate(-1.67, -2.5)" class="sprotty-port" style="fill:rgb(48, 48, 48);stroke:rgb(48, 48, 48);"/><text class="clickable sprotty-label port" id="sprotty_ArchitectureBlockImpl$rvdffppie/GenerateStatementBlockImpl$null7/InstantiationBlockImpl$dff_left/BPortImpl$en/label" transform="translate(6, -9) translate(7, 14)" style="cursor:default;font-size:12px;perspective-origin:0px 0px;fill:rgb(48, 48, 48);text-anchor:middle;">en</text></g><g id="sprotty_ArchitectureBlockImpl$rvdffppie/GenerateStatementBlockImpl$null7/InstantiationBlockImpl$dff_left/BPortImpl$scan_mode" class="triangle" transform="translate(0, 122)"><path d="M 0,0 L 5,2.5 L 0,5 Z" transform="translate(-1.67, -2.5)" class="sprotty-port" style="fill:rgb(48, 48, 48);stroke:rgb(48, 48, 48);"/><text class="clickable sprotty-label port" id="sprotty_ArchitectureBlockImpl$rvdffppie/GenerateStatementBlockImpl$null7/InstantiationBlockImpl$dff_left/BPortImpl$scan_mode/label" transform="translate(6, -9) translate(32.4375, 14)" style="cursor:default;font-size:12px;perspective-origin:0px 0px;fill:rgb(48, 48, 48);text-anchor:middle;">scan_mode</text></g><g id="sprotty_ArchitectureBlockImpl$rvdffppie/GenerateStatementBlockImpl$null7/InstantiationBlockImpl$dff_left/BPortImpl$rst_l" class="triangle" transform="translate(0, 94)"><path d="M 0,0 L 5,2.5 L 0,5 Z" transform="translate(-1.67, -2.5)" class="sprotty-port" style="fill:rgb(48, 48, 48);stroke:rgb(48, 48, 48);"/><text class="clickable sprotty-label port" id="sprotty_ArchitectureBlockImpl$rvdffppie/GenerateStatementBlockImpl$null7/InstantiationBlockImpl$dff_left/BPortImpl$rst_l/label" transform="translate(6, -9) translate(12.3125, 14)" style="cursor:default;font-size:12px;perspective-origin:0px 0px;fill:rgb(48, 48, 48);text-anchor:middle;">rst_l</text></g><g id="sprotty_ArchitectureBlockImpl$rvdffppie/GenerateStatementBlockImpl$null7/InstantiationBlockImpl$dff_left/BPortImpl$clk" class="triangle" transform="translate(0, 66)"><path d="M 0,0 L 5,2.5 L 0,5 Z" transform="translate(-1.67, -2.5)" class="sprotty-port" style="fill:rgb(48, 48, 48);stroke:rgb(48, 48, 48);"/><text class="clickable sprotty-label port" id="sprotty_ArchitectureBlockImpl$rvdffppie/GenerateStatementBlockImpl$null7/InstantiationBlockImpl$dff_left/BPortImpl$clk/label" transform="translate(6, -9) translate(8.078125, 14)" style="cursor:default;font-size:12px;perspective-origin:0px 0px;fill:rgb(48, 48, 48);text-anchor:middle;">clk</text></g><g id="sprotty_ArchitectureBlockImpl$rvdffppie/GenerateStatementBlockImpl$null7/InstantiationBlockImpl$dff_left/BPortImpl$din" class="triangle" transform="translate(0, 38)"><path d="M 0,0 L 5,2.5 L 0,5 Z" transform="translate(-1.67, -2.5)" class="sprotty-port" style="fill:rgb(48, 48, 48);stroke:rgb(48, 48, 48);"/><text class="clickable sprotty-label port" id="sprotty_ArchitectureBlockImpl$rvdffppie/GenerateStatementBlockImpl$null7/InstantiationBlockImpl$dff_left/BPortImpl$din/label" transform="translate(6, -9) translate(9.046875, 14)" style="cursor:default;font-size:12px;perspective-origin:0px 0px;fill:rgb(48, 48, 48);text-anchor:middle;">din</text></g><g id="sprotty_ArchitectureBlockImpl$rvdffppie/GenerateStatementBlockImpl$null7/InstantiationBlockImpl$dff_left/BPortImpl$dout" class="triangle" transform="translate(141.75, 94)"><path d="M 0,0 L 5,2.5 L 0,5 Z" transform="translate(-1.67, -2.5)" class="sprotty-port" style="fill:rgb(48, 48, 48);stroke:rgb(48, 48, 48);"/><text class="clickable sprotty-label port" id="sprotty_ArchitectureBlockImpl$rvdffppie/GenerateStatementBlockImpl$null7/InstantiationBlockImpl$dff_left/BPortImpl$dout/label" transform="translate(-32.53125, -9) translate(13.265625, 14)" style="cursor:default;font-size:12px;perspective-origin:0px 0px;fill:rgb(48, 48, 48);text-anchor:middle;">dout</text></g></g><g id="sprotty_ArchitectureBlockImpl$rvdffppie/GenerateStatementBlockImpl$null7/GPortImpl$en" class="triangle" transform="translate(0, 81)"><path d="M 0,0 L 5,2.5 L 0,5 Z" transform="translate(-1.67, -2.5)" class="sprotty-port" style="fill:rgb(48, 48, 48);stroke:rgb(48, 48, 48);"/></g><g id="sprotty_ArchitectureBlockImpl$rvdffppie/GenerateStatementBlockImpl$null7/GPortImpl$den" class="triangle" transform="translate(0, 353)"><path d="M 0,0 L 5,2.5 L 0,5 Z" transform="translate(-1.67, -2.5)" class="sprotty-port" style="fill:rgb(48, 48, 48);stroke:rgb(48, 48, 48);"/></g><g id="sprotty_ArchitectureBlockImpl$rvdffppie/GenerateStatementBlockImpl$null7/GPortImpl$scan_mode" class="triangle" transform="translate(0, 325)"><path d="M 0,0 L 5,2.5 L 0,5 Z" transform="translate(-1.67, -2.5)" class="sprotty-port" style="fill:rgb(48, 48, 48);stroke:rgb(48, 48, 48);"/></g><g id="sprotty_ArchitectureBlockImpl$rvdffppie/GenerateStatementBlockImpl$null7/GPortImpl$rst_l" class="triangle" transform="translate(0, 297)"><path d="M 0,0 L 5,2.5 L 0,5 Z" transform="translate(-1.67, -2.5)" class="sprotty-port" style="fill:rgb(48, 48, 48);stroke:rgb(48, 48, 48);"/></g><g id="sprotty_ArchitectureBlockImpl$rvdffppie/GenerateStatementBlockImpl$null7/GPortImpl$clk" class="triangle" transform="translate(0, 109)"><path d="M 0,0 L 5,2.5 L 0,5 Z" transform="translate(-1.67, -2.5)" class="sprotty-port" style="fill:rgb(48, 48, 48);stroke:rgb(48, 48, 48);"/></g><g id="sprotty_ArchitectureBlockImpl$rvdffppie/GenerateStatementBlockImpl$null7/GPortImpl$din" class="triangle" transform="translate(0, 99)"><path d="M 0,0 L 5,2.5 L 0,5 Z" transform="translate(-1.67, -2.5)" class="sprotty-port" style="fill:rgb(48, 48, 48);stroke:rgb(48, 48, 48);"/></g><g id="sprotty_ArchitectureBlockImpl$rvdffppie/GenerateStatementBlockImpl$null7/GPortImpl$dout" class="triangle" transform="translate(251.75, 297)"><path d="M 0,0 L 5,2.5 L 0,5 Z" transform="translate(-1.67, -2.5)" class="sprotty-port" style="fill:rgb(48, 48, 48);stroke:rgb(48, 48, 48);"/></g></g><g id="sprotty_ArchitectureBlockImpl$rvdffppie/BPortImpl$scan_mode" class="triangle" transform="translate(0, 366)"><path d="M 0,0 L 5,2.5 L 0,5 Z" transform="translate(-1.67, -2.5)" class="sprotty-port" style="fill:rgb(48, 48, 48);stroke:rgb(48, 48, 48);"/><text class="clickable sprotty-label port" id="sprotty_ArchitectureBlockImpl$rvdffppie/BPortImpl$scan_mode/label" transform="translate(6, 6) translate(32.4375, 14)" style="cursor:default;font-size:12px;perspective-origin:0px 0px;fill:rgb(48, 48, 48);text-anchor:middle;">scan_mode</text></g><g id="sprotty_ArchitectureBlockImpl$rvdffppie/BPortImpl$den" class="triangle" transform="translate(0, 400)"><path d="M 0,0 L 5,2.5 L 0,5 Z" transform="translate(-1.67, -2.5)" class="sprotty-port" style="fill:rgb(48, 48, 48);stroke:rgb(48, 48, 48);"/><text class="clickable sprotty-label port" id="sprotty_ArchitectureBlockImpl$rvdffppie/BPortImpl$den/label" transform="translate(6, 6) translate(10.71875, 14)" style="cursor:default;font-size:12px;perspective-origin:0px 0px;fill:rgb(48, 48, 48);text-anchor:middle;">den</text></g><g id="sprotty_ArchitectureBlockImpl$rvdffppie/BPortImpl$en" class="triangle" transform="translate(0, 76)"><path d="M 0,0 L 5,2.5 L 0,5 Z" transform="translate(-1.67, -2.5)" class="sprotty-port" style="fill:rgb(48, 48, 48);stroke:rgb(48, 48, 48);"/><text class="clickable sprotty-label port" id="sprotty_ArchitectureBlockImpl$rvdffppie/BPortImpl$en/label" transform="translate(6, 6) translate(7, 14)" style="cursor:default;font-size:12px;perspective-origin:0px 0px;fill:rgb(48, 48, 48);text-anchor:middle;">en</text></g><g id="sprotty_ArchitectureBlockImpl$rvdffppie/BPortImpl$rst_l" class="triangle" transform="translate(0, 332)"><path d="M 0,0 L 5,2.5 L 0,5 Z" transform="translate(-1.67, -2.5)" class="sprotty-port" style="fill:rgb(48, 48, 48);stroke:rgb(48, 48, 48);"/><text class="clickable sprotty-label port" id="sprotty_ArchitectureBlockImpl$rvdffppie/BPortImpl$rst_l/label" transform="translate(6, 6) translate(12.3125, 14)" style="cursor:default;font-size:12px;perspective-origin:0px 0px;fill:rgb(48, 48, 48);text-anchor:middle;">rst_l</text></g><g id="sprotty_ArchitectureBlockImpl$rvdffppie/BPortImpl$clk" class="triangle" transform="translate(0, 144)"><path d="M 0,0 L 5,2.5 L 0,5 Z" transform="translate(-1.67, -2.5)" class="sprotty-port" style="fill:rgb(48, 48, 48);stroke:rgb(48, 48, 48);"/><text class="clickable sprotty-label port" id="sprotty_ArchitectureBlockImpl$rvdffppie/BPortImpl$clk/label" transform="translate(6, 6) translate(8.078125, 14)" style="cursor:default;font-size:12px;perspective-origin:0px 0px;fill:rgb(48, 48, 48);text-anchor:middle;">clk</text></g><g id="sprotty_ArchitectureBlockImpl$rvdffppie/BPortImpl$din" class="triangle" transform="translate(0, 110)"><path d="M 0,0 L 5,2.5 L 0,5 Z" transform="translate(-1.67, -2.5)" class="sprotty-port" style="fill:rgb(48, 48, 48);stroke:rgb(48, 48, 48);"/><text class="clickable sprotty-label port" id="sprotty_ArchitectureBlockImpl$rvdffppie/BPortImpl$din/label" transform="translate(6, 6) translate(9.046875, 14)" style="cursor:default;font-size:12px;perspective-origin:0px 0px;fill:rgb(48, 48, 48);text-anchor:middle;">din</text></g><g id="sprotty_ArchitectureBlockImpl$rvdffppie/BPortImpl$dout" class="triangle" transform="translate(415.15625, 332)"><path d="M 0,0 L 5,2.5 L 0,5 Z" transform="translate(-1.67, -2.5)" class="sprotty-port" style="fill:rgb(48, 48, 48);stroke:rgb(48, 48, 48);"/><text class="clickable sprotty-label port" id="sprotty_ArchitectureBlockImpl$rvdffppie/BPortImpl$dout/label" transform="translate(-32.53125, 6) translate(13.265625, 14)" style="cursor:default;font-size:12px;perspective-origin:0px 0px;fill:rgb(48, 48, 48);text-anchor:middle;">dout</text></g></g></g></svg>