<svg xmlns="http://www.w3.org/2000/svg" id="sprotty_work.rvdff_fpga" class="sprotty-graph sprotty-block-diagram blockdiagram" style="font-family:&quot;Noto Sans&quot;, Helvetica, Arial, sans-serif;perspective-origin:0px 0px;transform-origin:0px 0px;" version="1.1" viewBox="7 7 204.109375 266" width="204.109375" height="266"><g transform="scale(1) translate(0,0)"><g id="sprotty_ArchitectureBlockImpl$rvdff_fpga" class="architecture" transform="translate(12, 12)"><g class="sprotty-block" style="fill:rgb(255, 255, 255);stroke:rgb(48, 48, 48);stroke-dasharray:0px;"><rect x="0" y="0" rx="1" ry="1" width="194.109375" height="256"/><text x="97.0546875" y="12" class="sprotty-block-name" style="cursor:pointer;font-weight:700;perspective-origin:97.0469px 0px;fill:rgb(48, 48, 48);stroke:rgba(0, 0, 0, 0);dominant-baseline:middle;text-anchor:middle;">rvdff_fpga</text><line x1="0" y1="20" x2="194.109375" y2="20"/></g><g id="sprotty_ArchitectureBlockImpl$rvdff_fpga/InstantiationBlockImpl$dff/BPortImpl$dout_to_ArchitectureBlockImpl$rvdff_fpga/BPortImpl$dout" class="sprotty-edge thick edge" style="fill:none;stroke:rgb(112, 112, 112);stroke-linejoin:round;stroke-width:3px;"><g><path d="M 146.578125 101 L 194.109375 101 "/><path d="M 146.578125 101 L 194.109375 101 " class="clickable"/></g></g><g id="sprotty_ArchitectureBlockImpl$rvdff_fpga/BPortImpl$din_to_ArchitectureBlockImpl$rvdff_fpga/InstantiationBlockImpl$dff/BPortImpl$din" class="sprotty-edge thick edge" style="fill:none;stroke:rgb(112, 112, 112);stroke-linejoin:round;stroke-width:3px;"><g><path d="M 0 61 L 53.625 61 C 54.625 61 55.625 62 55.625 63 L 55.625 71 C 55.625 72 56.625 73 57.625 73 L 65.625 73 "/><path d="M 0 61 L 53.625 61 C 54.625 61 55.625 62 55.625 63 L 55.625 71 C 55.625 72 56.625 73 57.625 73 L 65.625 73 " class="clickable"/></g></g><g id="sprotty_ArchitectureBlockImpl$rvdff_fpga/BPortImpl$clk_to_ArchitectureBlockImpl$rvdff_fpga/InstantiationBlockImpl$dff/BPortImpl$clk" class="sprotty-edge edge" style="fill:none;stroke:rgb(112, 112, 112);stroke-linejoin:round;"><g><path d="M 0 95 L 53.625 95 C 54.625 95 55.625 96 55.625 97 L 55.625 99 C 55.625 100 56.625 101 57.625 101 L 65.625 101 "/><path d="M 0 95 L 53.625 95 C 54.625 95 55.625 96 55.625 97 L 55.625 99 C 55.625 100 56.625 101 57.625 101 L 65.625 101 " class="clickable"/></g></g><g id="sprotty_ArchitectureBlockImpl$rvdff_fpga/BPortImpl$rst_l_to_ArchitectureBlockImpl$rvdff_fpga/InstantiationBlockImpl$dff/BPortImpl$rst_l" class="sprotty-edge edge" style="fill:none;stroke:rgb(112, 112, 112);stroke-linejoin:round;"><g><path d="M 0 129 L 65.625 129 "/><path d="M 0 129 L 65.625 129 " class="clickable"/></g></g><g id="sprotty_ArchitectureBlockImpl$rvdff_fpga/InstantiationBlockImpl$dff" class="instantiation" transform="translate(65.625, 35)"><g class="sprotty-block" style="fill:rgb(255, 255, 255);stroke:rgb(48, 48, 48);stroke-dasharray:0px;"><rect x="0" y="0" rx="1" ry="1" width="80.953125" height="112"/><text x="40.4765625" y="12" class="sprotty-block-name" style="cursor:pointer;font-weight:700;perspective-origin:40.75px 0px;fill:rgb(48, 48, 48);stroke:rgba(0, 0, 0, 0);dominant-baseline:middle;text-anchor:middle;">dff : rvdff</text><line x1="0" y1="20" x2="80.953125" y2="20"/></g><g id="sprotty_ArchitectureBlockImpl$rvdff_fpga/InstantiationBlockImpl$dff/BPortImpl$rst_l" class="triangle" transform="translate(0, 94)"><path d="M 0,0 L 5,2.5 L 0,5 Z" transform="translate(-1.67, -2.5)" class="sprotty-port" style="fill:rgb(48, 48, 48);stroke:rgb(48, 48, 48);"/><text class="clickable sprotty-label port" id="sprotty_ArchitectureBlockImpl$rvdff_fpga/InstantiationBlockImpl$dff/BPortImpl$rst_l/label" transform="translate(6, -9) translate(12.3125, 14)" style="cursor:default;font-size:12px;perspective-origin:0px 0px;fill:rgb(48, 48, 48);text-anchor:middle;">rst_l</text></g><g id="sprotty_ArchitectureBlockImpl$rvdff_fpga/InstantiationBlockImpl$dff/BPortImpl$clk" class="triangle" transform="translate(0, 66)"><path d="M 0,0 L 5,2.5 L 0,5 Z" transform="translate(-1.67, -2.5)" class="sprotty-port" style="fill:rgb(48, 48, 48);stroke:rgb(48, 48, 48);"/><text class="clickable sprotty-label port" id="sprotty_ArchitectureBlockImpl$rvdff_fpga/InstantiationBlockImpl$dff/BPortImpl$clk/label" transform="translate(6, -9) translate(8.078125, 14)" style="cursor:default;font-size:12px;perspective-origin:0px 0px;fill:rgb(48, 48, 48);text-anchor:middle;">clk</text></g><g id="sprotty_ArchitectureBlockImpl$rvdff_fpga/InstantiationBlockImpl$dff/BPortImpl$din" class="triangle" transform="translate(0, 38)"><path d="M 0,0 L 5,2.5 L 0,5 Z" transform="translate(-1.67, -2.5)" class="sprotty-port" style="fill:rgb(48, 48, 48);stroke:rgb(48, 48, 48);"/><text class="clickable sprotty-label port" id="sprotty_ArchitectureBlockImpl$rvdff_fpga/InstantiationBlockImpl$dff/BPortImpl$din/label" transform="translate(6, -9) translate(9.046875, 14)" style="cursor:default;font-size:12px;perspective-origin:0px 0px;fill:rgb(48, 48, 48);text-anchor:middle;">din</text></g><g id="sprotty_ArchitectureBlockImpl$rvdff_fpga/InstantiationBlockImpl$dff/BPortImpl$dout" class="triangle" transform="translate(80.953125, 66)"><path d="M 0,0 L 5,2.5 L 0,5 Z" transform="translate(-1.67, -2.5)" class="sprotty-port" style="fill:rgb(48, 48, 48);stroke:rgb(48, 48, 48);"/><text class="clickable sprotty-label port" id="sprotty_ArchitectureBlockImpl$rvdff_fpga/InstantiationBlockImpl$dff/BPortImpl$dout/label" transform="translate(-32.53125, -9) translate(13.265625, 14)" style="cursor:default;font-size:12px;perspective-origin:0px 0px;fill:rgb(48, 48, 48);text-anchor:middle;">dout</text></g></g><g id="sprotty_ArchitectureBlockImpl$rvdff_fpga/BPortImpl$rst_l" class="triangle" transform="translate(0, 129)"><path d="M 0,0 L 5,2.5 L 0,5 Z" transform="translate(-1.67, -2.5)" class="sprotty-port" style="fill:rgb(48, 48, 48);stroke:rgb(48, 48, 48);"/><text class="clickable sprotty-label port" id="sprotty_ArchitectureBlockImpl$rvdff_fpga/BPortImpl$rst_l/label" transform="translate(6, 6) translate(12.3125, 14)" style="cursor:default;font-size:12px;perspective-origin:0px 0px;fill:rgb(48, 48, 48);text-anchor:middle;">rst_l</text></g><g id="sprotty_ArchitectureBlockImpl$rvdff_fpga/BPortImpl$rawclk" class="triangle" transform="translate(0, 173)"><path d="M 0,0 L 5,2.5 L 0,5 Z" transform="translate(-1.67, -2.5)" class="sprotty-port" style="fill:rgb(48, 48, 48);stroke:rgb(48, 48, 48);"/><text class="clickable sprotty-label port" id="sprotty_ArchitectureBlockImpl$rvdff_fpga/BPortImpl$rawclk/label" transform="translate(6, 6) translate(18.421875, 14)" style="cursor:default;font-size:12px;perspective-origin:0px 0px;fill:rgb(48, 48, 48);text-anchor:middle;">rawclk</text></g><g id="sprotty_ArchitectureBlockImpl$rvdff_fpga/BPortImpl$clken" class="triangle" transform="translate(0, 217)"><path d="M 0,0 L 5,2.5 L 0,5 Z" transform="translate(-1.67, -2.5)" class="sprotty-port" style="fill:rgb(48, 48, 48);stroke:rgb(48, 48, 48);"/><text class="clickable sprotty-label port" id="sprotty_ArchitectureBlockImpl$rvdff_fpga/BPortImpl$clken/label" transform="translate(6, 6) translate(14.953125, 14)" style="cursor:default;font-size:12px;perspective-origin:0px 0px;fill:rgb(48, 48, 48);text-anchor:middle;">clken</text></g><g id="sprotty_ArchitectureBlockImpl$rvdff_fpga/BPortImpl$clk" class="triangle" transform="translate(0, 95)"><path d="M 0,0 L 5,2.5 L 0,5 Z" transform="translate(-1.67, -2.5)" class="sprotty-port" style="fill:rgb(48, 48, 48);stroke:rgb(48, 48, 48);"/><text class="clickable sprotty-label port" id="sprotty_ArchitectureBlockImpl$rvdff_fpga/BPortImpl$clk/label" transform="translate(6, 6) translate(8.078125, 14)" style="cursor:default;font-size:12px;perspective-origin:0px 0px;fill:rgb(48, 48, 48);text-anchor:middle;">clk</text></g><g id="sprotty_ArchitectureBlockImpl$rvdff_fpga/BPortImpl$din" class="triangle" transform="translate(0, 61)"><path d="M 0,0 L 5,2.5 L 0,5 Z" transform="translate(-1.67, -2.5)" class="sprotty-port" style="fill:rgb(48, 48, 48);stroke:rgb(48, 48, 48);"/><text class="clickable sprotty-label port" id="sprotty_ArchitectureBlockImpl$rvdff_fpga/BPortImpl$din/label" transform="translate(6, 6) translate(9.046875, 14)" style="cursor:default;font-size:12px;perspective-origin:0px 0px;fill:rgb(48, 48, 48);text-anchor:middle;">din</text></g><g id="sprotty_ArchitectureBlockImpl$rvdff_fpga/BPortImpl$dout" class="triangle" transform="translate(194.109375, 101)"><path d="M 0,0 L 5,2.5 L 0,5 Z" transform="translate(-1.67, -2.5)" class="sprotty-port" style="fill:rgb(48, 48, 48);stroke:rgb(48, 48, 48);"/><text class="clickable sprotty-label port" id="sprotty_ArchitectureBlockImpl$rvdff_fpga/BPortImpl$dout/label" transform="translate(-32.53125, 6) translate(13.265625, 14)" style="cursor:default;font-size:12px;perspective-origin:0px 0px;fill:rgb(48, 48, 48);text-anchor:middle;">dout</text></g></g></g></svg>