<svg xmlns="http://www.w3.org/2000/svg" id="sprotty_work.rvdff4e" class="sprotty-graph sprotty-block-diagram blockdiagram" style="font-family:&quot;Noto Sans&quot;, Helvetica, Arial, sans-serif;perspective-origin:0px 0px;transform-origin:0px 0px;" version="1.1" viewBox="7 7 459.96875 822" width="459.96875" height="822"><g transform="scale(1) translate(0,0)"><g id="sprotty_ArchitectureBlockImpl$rvdff4e" class="architecture" transform="translate(12, 12)"><g class="sprotty-block" style="fill:rgb(255, 255, 255);stroke:rgb(48, 48, 48);stroke-dasharray:0px;"><rect x="0" y="0" rx="1" ry="1" width="449.96875" height="812"/><text x="224.984375" y="12" class="sprotty-block-name" style="cursor:pointer;font-weight:700;perspective-origin:224.984px 0px;fill:rgb(48, 48, 48);stroke:rgba(0, 0, 0, 0);dominant-baseline:middle;text-anchor:middle;">rvdff4e</text><line x1="0" y1="20" x2="449.96875" y2="20"/></g><g id="sprotty_ArchitectureBlockImpl$rvdff4e/GenerateStatementBlockImpl$null6/GPortImpl$dout_to_ArchitectureBlockImpl$rvdff4e/BPortImpl$dout" class="sprotty-edge thick edge" style="fill:none;stroke:rgb(112, 112, 112);stroke-linejoin:round;stroke-width:3px;"><g><path d="M 402.4375 332 L 449.96875 332 "/><path d="M 402.4375 332 L 449.96875 332 " class="clickable"/></g></g><g id="sprotty_ArchitectureBlockImpl$rvdff4e/BPortImpl$din_to_ArchitectureBlockImpl$rvdff4e/GenerateStatementBlockImpl$null6/GPortImpl$din" class="sprotty-edge thick edge" style="fill:none;stroke:rgb(112, 112, 112);stroke-linejoin:round;stroke-width:3px;"><g><path d="M 0 76 L 103.875 76 C 104.875 76 105.875 77 105.875 78 L 105.875 122 C 105.875 123 106.875 124 107.875 124 L 115.875 124 "/><path d="M 0 76 L 103.875 76 C 104.875 76 105.875 77 105.875 78 L 105.875 122 C 105.875 123 106.875 124 107.875 124 L 115.875 124 " class="clickable"/></g></g><g id="sprotty_ArchitectureBlockImpl$rvdff4e/BPortImpl$en_to_ArchitectureBlockImpl$rvdff4e/GenerateStatementBlockImpl$null6/GPortImpl$en" class="sprotty-edge thick edge" style="fill:none;stroke:rgb(112, 112, 112);stroke-linejoin:round;stroke-width:3px;"><g><path d="M 0 110 L 93.875 110 C 94.875 110 95.875 111 95.875 112 L 95.875 132 C 95.875 133 96.875 134 97.875 134 L 115.875 134 "/><path d="M 0 110 L 93.875 110 C 94.875 110 95.875 111 95.875 112 L 95.875 132 C 95.875 133 96.875 134 97.875 134 L 115.875 134 " class="clickable"/></g></g><g id="sprotty_ArchitectureBlockImpl$rvdff4e/BPortImpl$clk_to_ArchitectureBlockImpl$rvdff4e/GenerateStatementBlockImpl$null6/GPortImpl$clk" class="sprotty-edge edge" style="fill:none;stroke:rgb(112, 112, 112);stroke-linejoin:round;"><g><path d="M 0 144 L 115.875 144 "/><path d="M 0 144 L 115.875 144 " class="clickable"/></g></g><g id="sprotty_ArchitectureBlockImpl$rvdff4e/BPortImpl$rst_l_to_ArchitectureBlockImpl$rvdff4e/GenerateStatementBlockImpl$null6/GPortImpl$rst_l" class="sprotty-edge edge" style="fill:none;stroke:rgb(112, 112, 112);stroke-linejoin:round;"><g><path d="M 0 178 L 93.875 178 C 94.875 178 95.875 177 95.875 176 L 95.875 174 C 95.875 173 96.875 172 97.875 172 L 115.875 172 "/><path d="M 0 178 L 93.875 178 C 94.875 178 95.875 177 95.875 176 L 95.875 174 C 95.875 173 96.875 172 97.875 172 L 115.875 172 " class="clickable"/></g></g><g id="sprotty_ArchitectureBlockImpl$rvdff4e/BPortImpl$scan_mode_to_ArchitectureBlockImpl$rvdff4e/GenerateStatementBlockImpl$null6/GPortImpl$scan_mode" class="sprotty-edge edge" style="fill:none;stroke:rgb(112, 112, 112);stroke-linejoin:round;"><g><path d="M 0 212 L 93.875 212 C 94.875 212 95.875 211 95.875 210 L 95.875 202 C 95.875 201 96.875 200 97.875 200 L 115.875 200 "/><path d="M 0 212 L 93.875 212 C 94.875 212 95.875 211 95.875 210 L 95.875 202 C 95.875 201 96.875 200 97.875 200 L 115.875 200 " class="clickable"/></g></g><g id="sprotty_ArchitectureBlockImpl$rvdff4e/GenerateStatementBlockImpl$null6" class="generate" transform="translate(115.875, 35)"><g class="sprotty-block sprotty-block-generate" style="fill:rgb(255, 255, 255);stroke:rgb(48, 48, 48);stroke-dasharray:0px;"><rect x="0" y="0" rx="1" ry="1" width="286.5625" height="762" style="stroke-dasharray:3px, 1px;"/><text x="143.28125" y="12" class="sprotty-block-name" style="cursor:pointer;font-weight:700;fill:rgb(48, 48, 48);stroke:rgba(0, 0, 0, 0);dominant-baseline:middle;text-anchor:middle;"/></g><g id="sprotty_ArchitectureBlockImpl$rvdff4e/GenerateStatementBlockImpl$null6/InstantiationBlockImpl$dff_leftmost/BPortImpl$dout_to_ArchitectureBlockImpl$rvdff4e/GenerateStatementBlockImpl$null6/GPortImpl$dout" class="sprotty-edge thick edge" style="fill:none;stroke:rgb(112, 112, 112);stroke-linejoin:round;stroke-width:3px;"><g><path d="M 242.05729166666666 673 L 259.5625 673 C 260.5625 673 261.5625 672 261.5625 671 L 261.5625 299 C 261.5625 298 262.5625 297 263.5625 297 L 286.5625 297 "/><path d="M 242.05729166666666 673 L 259.5625 673 C 260.5625 673 261.5625 672 261.5625 671 L 261.5625 299 C 261.5625 298 262.5625 297 263.5625 297 L 286.5625 297 " class="clickable"/></g></g><g id="sprotty_ArchitectureBlockImpl$rvdff4e/GenerateStatementBlockImpl$null6/InstantiationBlockImpl$dff_left/BPortImpl$dout_to_ArchitectureBlockImpl$rvdff4e/GenerateStatementBlockImpl$null6/GPortImpl$dout" class="sprotty-edge thick edge" style="fill:none;stroke:rgb(112, 112, 112);stroke-linejoin:round;stroke-width:3px;"><g><path d="M 222.55208333333331 297 L 286.5625 297 "/><path d="M 222.55208333333331 297 L 286.5625 297 " class="clickable"/></g></g><g id="sprotty_ArchitectureBlockImpl$rvdff4e/GenerateStatementBlockImpl$null6/InstantiationBlockImpl$dff_right/BPortImpl$dout_to_ArchitectureBlockImpl$rvdff4e/GenerateStatementBlockImpl$null6/GPortImpl$dout" class="sprotty-edge thick edge" style="fill:none;stroke:rgb(112, 112, 112);stroke-linejoin:round;stroke-width:3px;"><g><path d="M 222.55208333333331 109 L 259.5625 109 C 260.5625 109 261.5625 110 261.5625 111 L 261.5625 295 C 261.5625 296 262.5625 297 263.5625 297 L 286.5625 297 "/><path d="M 222.55208333333331 109 L 259.5625 109 C 260.5625 109 261.5625 110 261.5625 111 L 261.5625 295 C 261.5625 296 262.5625 297 263.5625 297 L 286.5625 297 " class="clickable"/></g><circle r="3" id="sprotty_ArchitectureBlockImpl$rvdff4e/GenerateStatementBlockImpl$null6/InstantiationBlockImpl$dff_right/BPortImpl$dout_to_ArchitectureBlockImpl$rvdff4e/GenerateStatementBlockImpl$null6/GPortImpl$dout/junction0" transform="translate(261.5625, 297)" class="sprotty-junction thick" style="fill:rgb(112, 112, 112);stroke:none;"/></g><g id="sprotty_ArchitectureBlockImpl$rvdff4e/GenerateStatementBlockImpl$null6/InstantiationBlockImpl$dff_rightmost/BPortImpl$dout_to_ArchitectureBlockImpl$rvdff4e/GenerateStatementBlockImpl$null6/GPortImpl$dout" class="sprotty-edge thick edge" style="fill:none;stroke:rgb(112, 112, 112);stroke-linejoin:round;stroke-width:3px;"><g><path d="M 251.5625 485 L 259.5625 485 C 260.5625 485 261.5625 484 261.5625 483 L 261.5625 299 C 261.5625 298 262.5625 297 263.5625 297 L 286.5625 297 "/><path d="M 251.5625 485 L 259.5625 485 C 260.5625 485 261.5625 484 261.5625 483 L 261.5625 299 C 261.5625 298 262.5625 297 263.5625 297 L 286.5625 297 " class="clickable"/></g><circle r="3" id="sprotty_ArchitectureBlockImpl$rvdff4e/GenerateStatementBlockImpl$null6/InstantiationBlockImpl$dff_rightmost/BPortImpl$dout_to_ArchitectureBlockImpl$rvdff4e/GenerateStatementBlockImpl$null6/GPortImpl$dout/junction0" transform="translate(261.5625, 485)" class="sprotty-junction thick" style="fill:rgb(112, 112, 112);stroke:none;"/></g><g id="sprotty_ArchitectureBlockImpl$rvdff4e/GenerateStatementBlockImpl$null6/GPortImpl$din_to_ArchitectureBlockImpl$rvdff4e/GenerateStatementBlockImpl$null6/InstantiationBlockImpl$dff_leftmost/BPortImpl$din" class="sprotty-edge thick edge" style="fill:none;stroke:rgb(112, 112, 112);stroke-linejoin:round;stroke-width:3px;"><g><path d="M 0 89 L 63 89 C 64 89 65 90 65 91 L 65 615 C 65 616 66 617 67 617 L 76.90104166666666 617 "/><path d="M 0 89 L 63 89 C 64 89 65 90 65 91 L 65 615 C 65 616 66 617 67 617 L 76.90104166666666 617 " class="clickable"/></g><circle r="3" id="sprotty_ArchitectureBlockImpl$rvdff4e/GenerateStatementBlockImpl$null6/GPortImpl$din_to_ArchitectureBlockImpl$rvdff4e/GenerateStatementBlockImpl$null6/InstantiationBlockImpl$dff_leftmost/BPortImpl$din/junction0" transform="translate(65, 89)" class="sprotty-junction thick" style="fill:rgb(112, 112, 112);stroke:none;"/></g><g id="sprotty_ArchitectureBlockImpl$rvdff4e/GenerateStatementBlockImpl$null6/GPortImpl$en_to_ArchitectureBlockImpl$rvdff4e/GenerateStatementBlockImpl$null6/InstantiationBlockImpl$dff_leftmost/BPortImpl$en" class="sprotty-edge thick edge" style="fill:none;stroke:rgb(112, 112, 112);stroke-linejoin:round;stroke-width:3px;"><g><path d="M 0 99 L 53 99 C 54 99 55 100 55 101 L 55 643 C 55 644 56 645 57 645 L 76.90104166666666 645 "/><path d="M 0 99 L 53 99 C 54 99 55 100 55 101 L 55 643 C 55 644 56 645 57 645 L 76.90104166666666 645 " class="clickable"/></g><circle r="3" id="sprotty_ArchitectureBlockImpl$rvdff4e/GenerateStatementBlockImpl$null6/GPortImpl$en_to_ArchitectureBlockImpl$rvdff4e/GenerateStatementBlockImpl$null6/InstantiationBlockImpl$dff_leftmost/BPortImpl$en/junction0" transform="translate(55, 99)" class="sprotty-junction thick" style="fill:rgb(112, 112, 112);stroke:none;"/></g><g id="sprotty_ArchitectureBlockImpl$rvdff4e/GenerateStatementBlockImpl$null6/GPortImpl$clk_to_ArchitectureBlockImpl$rvdff4e/GenerateStatementBlockImpl$null6/InstantiationBlockImpl$dff_leftmost/BPortImpl$clk" class="sprotty-edge edge" style="fill:none;stroke:rgb(112, 112, 112);stroke-linejoin:round;"><g><path d="M 0 109 L 43 109 C 44 109 45 110 45 111 L 45 671 C 45 672 46 673 47 673 L 76.90104166666666 673 "/><path d="M 0 109 L 43 109 C 44 109 45 110 45 111 L 45 671 C 45 672 46 673 47 673 L 76.90104166666666 673 " class="clickable"/></g><circle r="2" id="sprotty_ArchitectureBlockImpl$rvdff4e/GenerateStatementBlockImpl$null6/GPortImpl$clk_to_ArchitectureBlockImpl$rvdff4e/GenerateStatementBlockImpl$null6/InstantiationBlockImpl$dff_leftmost/BPortImpl$clk/junction0" transform="translate(45, 109)" class="sprotty-junction junction" style="fill:rgb(112, 112, 112);stroke:none;"/></g><g id="sprotty_ArchitectureBlockImpl$rvdff4e/GenerateStatementBlockImpl$null6/GPortImpl$rst_l_to_ArchitectureBlockImpl$rvdff4e/GenerateStatementBlockImpl$null6/InstantiationBlockImpl$dff_leftmost/BPortImpl$rst_l" class="sprotty-edge edge" style="fill:none;stroke:rgb(112, 112, 112);stroke-linejoin:round;"><g><path d="M 0 137 L 33 137 C 34 137 35 138 35 139 L 35 699 C 35 700 36 701 37 701 L 76.90104166666666 701 "/><path d="M 0 137 L 33 137 C 34 137 35 138 35 139 L 35 699 C 35 700 36 701 37 701 L 76.90104166666666 701 " class="clickable"/></g><circle r="2" id="sprotty_ArchitectureBlockImpl$rvdff4e/GenerateStatementBlockImpl$null6/GPortImpl$rst_l_to_ArchitectureBlockImpl$rvdff4e/GenerateStatementBlockImpl$null6/InstantiationBlockImpl$dff_leftmost/BPortImpl$rst_l/junction0" transform="translate(35, 137)" class="sprotty-junction junction" style="fill:rgb(112, 112, 112);stroke:none;"/></g><g id="sprotty_ArchitectureBlockImpl$rvdff4e/GenerateStatementBlockImpl$null6/GPortImpl$scan_mode_to_ArchitectureBlockImpl$rvdff4e/GenerateStatementBlockImpl$null6/InstantiationBlockImpl$dff_leftmost/BPortImpl$scan_mode" class="sprotty-edge edge" style="fill:none;stroke:rgb(112, 112, 112);stroke-linejoin:round;"><g><path d="M 0 165 L 23 165 C 24 165 25 166 25 167 L 25 727 C 25 728 26 729 27 729 L 76.90104166666666 729 "/><path d="M 0 165 L 23 165 C 24 165 25 166 25 167 L 25 727 C 25 728 26 729 27 729 L 76.90104166666666 729 " class="clickable"/></g><circle r="2" id="sprotty_ArchitectureBlockImpl$rvdff4e/GenerateStatementBlockImpl$null6/GPortImpl$scan_mode_to_ArchitectureBlockImpl$rvdff4e/GenerateStatementBlockImpl$null6/InstantiationBlockImpl$dff_leftmost/BPortImpl$scan_mode/junction0" transform="translate(25, 165)" class="sprotty-junction junction" style="fill:rgb(112, 112, 112);stroke:none;"/></g><g id="sprotty_ArchitectureBlockImpl$rvdff4e/GenerateStatementBlockImpl$null6/GPortImpl$din_to_ArchitectureBlockImpl$rvdff4e/GenerateStatementBlockImpl$null6/InstantiationBlockImpl$dff_left/BPortImpl$din" class="sprotty-edge thick edge" style="fill:none;stroke:rgb(112, 112, 112);stroke-linejoin:round;stroke-width:3px;"><g><path d="M 0 89 L 63 89 C 64 89 65 90 65 91 L 65 239 C 65 240 66 241 67 241 L 80.80208333333333 241 "/><path d="M 0 89 L 63 89 C 64 89 65 90 65 91 L 65 239 C 65 240 66 241 67 241 L 80.80208333333333 241 " class="clickable"/></g><circle r="3" id="sprotty_ArchitectureBlockImpl$rvdff4e/GenerateStatementBlockImpl$null6/GPortImpl$din_to_ArchitectureBlockImpl$rvdff4e/GenerateStatementBlockImpl$null6/InstantiationBlockImpl$dff_left/BPortImpl$din/junction0" transform="translate(65, 241)" class="sprotty-junction thick" style="fill:rgb(112, 112, 112);stroke:none;"/></g><g id="sprotty_ArchitectureBlockImpl$rvdff4e/GenerateStatementBlockImpl$null6/GPortImpl$en_to_ArchitectureBlockImpl$rvdff4e/GenerateStatementBlockImpl$null6/InstantiationBlockImpl$dff_left/BPortImpl$en" class="sprotty-edge thick edge" style="fill:none;stroke:rgb(112, 112, 112);stroke-linejoin:round;stroke-width:3px;"><g><path d="M 0 99 L 53 99 C 54 99 55 100 55 101 L 55 267 C 55 268 56 269 57 269 L 80.80208333333333 269 "/><path d="M 0 99 L 53 99 C 54 99 55 100 55 101 L 55 267 C 55 268 56 269 57 269 L 80.80208333333333 269 " class="clickable"/></g><circle r="3" id="sprotty_ArchitectureBlockImpl$rvdff4e/GenerateStatementBlockImpl$null6/GPortImpl$en_to_ArchitectureBlockImpl$rvdff4e/GenerateStatementBlockImpl$null6/InstantiationBlockImpl$dff_left/BPortImpl$en/junction0" transform="translate(55, 269)" class="sprotty-junction thick" style="fill:rgb(112, 112, 112);stroke:none;"/></g><g id="sprotty_ArchitectureBlockImpl$rvdff4e/GenerateStatementBlockImpl$null6/GPortImpl$clk_to_ArchitectureBlockImpl$rvdff4e/GenerateStatementBlockImpl$null6/InstantiationBlockImpl$dff_left/BPortImpl$clk" class="sprotty-edge edge" style="fill:none;stroke:rgb(112, 112, 112);stroke-linejoin:round;"><g><path d="M 0 109 L 43 109 C 44 109 45 110 45 111 L 45 295 C 45 296 46 297 47 297 L 80.80208333333333 297 "/><path d="M 0 109 L 43 109 C 44 109 45 110 45 111 L 45 295 C 45 296 46 297 47 297 L 80.80208333333333 297 " class="clickable"/></g><circle r="2" id="sprotty_ArchitectureBlockImpl$rvdff4e/GenerateStatementBlockImpl$null6/GPortImpl$clk_to_ArchitectureBlockImpl$rvdff4e/GenerateStatementBlockImpl$null6/InstantiationBlockImpl$dff_left/BPortImpl$clk/junction0" transform="translate(45, 297)" class="sprotty-junction junction" style="fill:rgb(112, 112, 112);stroke:none;"/></g><g id="sprotty_ArchitectureBlockImpl$rvdff4e/GenerateStatementBlockImpl$null6/GPortImpl$rst_l_to_ArchitectureBlockImpl$rvdff4e/GenerateStatementBlockImpl$null6/InstantiationBlockImpl$dff_left/BPortImpl$rst_l" class="sprotty-edge edge" style="fill:none;stroke:rgb(112, 112, 112);stroke-linejoin:round;"><g><path d="M 0 137 L 33 137 C 34 137 35 138 35 139 L 35 323 C 35 324 36 325 37 325 L 80.80208333333333 325 "/><path d="M 0 137 L 33 137 C 34 137 35 138 35 139 L 35 323 C 35 324 36 325 37 325 L 80.80208333333333 325 " class="clickable"/></g><circle r="2" id="sprotty_ArchitectureBlockImpl$rvdff4e/GenerateStatementBlockImpl$null6/GPortImpl$rst_l_to_ArchitectureBlockImpl$rvdff4e/GenerateStatementBlockImpl$null6/InstantiationBlockImpl$dff_left/BPortImpl$rst_l/junction0" transform="translate(35, 325)" class="sprotty-junction junction" style="fill:rgb(112, 112, 112);stroke:none;"/></g><g id="sprotty_ArchitectureBlockImpl$rvdff4e/GenerateStatementBlockImpl$null6/GPortImpl$scan_mode_to_ArchitectureBlockImpl$rvdff4e/GenerateStatementBlockImpl$null6/InstantiationBlockImpl$dff_left/BPortImpl$scan_mode" class="sprotty-edge edge" style="fill:none;stroke:rgb(112, 112, 112);stroke-linejoin:round;"><g><path d="M 0 165 L 23 165 C 24 165 25 166 25 167 L 25 351 C 25 352 26 353 27 353 L 80.80208333333333 353 "/><path d="M 0 165 L 23 165 C 24 165 25 166 25 167 L 25 351 C 25 352 26 353 27 353 L 80.80208333333333 353 " class="clickable"/></g><circle r="2" id="sprotty_ArchitectureBlockImpl$rvdff4e/GenerateStatementBlockImpl$null6/GPortImpl$scan_mode_to_ArchitectureBlockImpl$rvdff4e/GenerateStatementBlockImpl$null6/InstantiationBlockImpl$dff_left/BPortImpl$scan_mode/junction0" transform="translate(25, 353)" class="sprotty-junction junction" style="fill:rgb(112, 112, 112);stroke:none;"/></g><g id="sprotty_ArchitectureBlockImpl$rvdff4e/GenerateStatementBlockImpl$null6/GPortImpl$din_to_ArchitectureBlockImpl$rvdff4e/GenerateStatementBlockImpl$null6/InstantiationBlockImpl$dff_right/BPortImpl$din" class="sprotty-edge thick edge" style="fill:none;stroke:rgb(112, 112, 112);stroke-linejoin:round;stroke-width:3px;"><g><path d="M 0 89 L 63 89 C 64 89 65 88 65 87 L 65 55 C 65 54 66 53 67 53 L 80.80208333333333 53 "/><path d="M 0 89 L 63 89 C 64 89 65 88 65 87 L 65 55 C 65 54 66 53 67 53 L 80.80208333333333 53 " class="clickable"/></g></g><g id="sprotty_ArchitectureBlockImpl$rvdff4e/GenerateStatementBlockImpl$null6/GPortImpl$en_to_ArchitectureBlockImpl$rvdff4e/GenerateStatementBlockImpl$null6/InstantiationBlockImpl$dff_right/BPortImpl$en" class="sprotty-edge thick edge" style="fill:none;stroke:rgb(112, 112, 112);stroke-linejoin:round;stroke-width:3px;"><g><path d="M 0 99 L 53 99 C 54 99 55 98 55 97 L 55 83 C 55 82 56 81 57 81 L 80.80208333333333 81 "/><path d="M 0 99 L 53 99 C 54 99 55 98 55 97 L 55 83 C 55 82 56 81 57 81 L 80.80208333333333 81 " class="clickable"/></g></g><g id="sprotty_ArchitectureBlockImpl$rvdff4e/GenerateStatementBlockImpl$null6/GPortImpl$clk_to_ArchitectureBlockImpl$rvdff4e/GenerateStatementBlockImpl$null6/InstantiationBlockImpl$dff_right/BPortImpl$clk" class="sprotty-edge edge" style="fill:none;stroke:rgb(112, 112, 112);stroke-linejoin:round;"><g><path d="M 0 109 L 80.80208333333333 109 "/><path d="M 0 109 L 80.80208333333333 109 " class="clickable"/></g></g><g id="sprotty_ArchitectureBlockImpl$rvdff4e/GenerateStatementBlockImpl$null6/GPortImpl$rst_l_to_ArchitectureBlockImpl$rvdff4e/GenerateStatementBlockImpl$null6/InstantiationBlockImpl$dff_right/BPortImpl$rst_l" class="sprotty-edge edge" style="fill:none;stroke:rgb(112, 112, 112);stroke-linejoin:round;"><g><path d="M 0 137 L 80.80208333333333 137 "/><path d="M 0 137 L 80.80208333333333 137 " class="clickable"/></g></g><g id="sprotty_ArchitectureBlockImpl$rvdff4e/GenerateStatementBlockImpl$null6/GPortImpl$scan_mode_to_ArchitectureBlockImpl$rvdff4e/GenerateStatementBlockImpl$null6/InstantiationBlockImpl$dff_right/BPortImpl$scan_mode" class="sprotty-edge edge" style="fill:none;stroke:rgb(112, 112, 112);stroke-linejoin:round;"><g><path d="M 0 165 L 80.80208333333333 165 "/><path d="M 0 165 L 80.80208333333333 165 " class="clickable"/></g></g><g id="sprotty_ArchitectureBlockImpl$rvdff4e/GenerateStatementBlockImpl$null6/GPortImpl$din_to_ArchitectureBlockImpl$rvdff4e/GenerateStatementBlockImpl$null6/InstantiationBlockImpl$dff_rightmost/BPortImpl$din" class="sprotty-edge thick edge" style="fill:none;stroke:rgb(112, 112, 112);stroke-linejoin:round;stroke-width:3px;"><g><path d="M 0 89 L 63 89 C 64 89 65 90 65 91 L 65 427 C 65 428 66 429 67 429 L 75 429 "/><path d="M 0 89 L 63 89 C 64 89 65 90 65 91 L 65 427 C 65 428 66 429 67 429 L 75 429 " class="clickable"/></g><circle r="3" id="sprotty_ArchitectureBlockImpl$rvdff4e/GenerateStatementBlockImpl$null6/GPortImpl$din_to_ArchitectureBlockImpl$rvdff4e/GenerateStatementBlockImpl$null6/InstantiationBlockImpl$dff_rightmost/BPortImpl$din/junction0" transform="translate(65, 429)" class="sprotty-junction thick" style="fill:rgb(112, 112, 112);stroke:none;"/></g><g id="sprotty_ArchitectureBlockImpl$rvdff4e/GenerateStatementBlockImpl$null6/GPortImpl$en_to_ArchitectureBlockImpl$rvdff4e/GenerateStatementBlockImpl$null6/InstantiationBlockImpl$dff_rightmost/BPortImpl$en" class="sprotty-edge thick edge" style="fill:none;stroke:rgb(112, 112, 112);stroke-linejoin:round;stroke-width:3px;"><g><path d="M 0 99 L 53 99 C 54 99 55 100 55 101 L 55 455 C 55 456 56 457 57 457 L 75 457 "/><path d="M 0 99 L 53 99 C 54 99 55 100 55 101 L 55 455 C 55 456 56 457 57 457 L 75 457 " class="clickable"/></g><circle r="3" id="sprotty_ArchitectureBlockImpl$rvdff4e/GenerateStatementBlockImpl$null6/GPortImpl$en_to_ArchitectureBlockImpl$rvdff4e/GenerateStatementBlockImpl$null6/InstantiationBlockImpl$dff_rightmost/BPortImpl$en/junction0" transform="translate(55, 457)" class="sprotty-junction thick" style="fill:rgb(112, 112, 112);stroke:none;"/></g><g id="sprotty_ArchitectureBlockImpl$rvdff4e/GenerateStatementBlockImpl$null6/GPortImpl$clk_to_ArchitectureBlockImpl$rvdff4e/GenerateStatementBlockImpl$null6/InstantiationBlockImpl$dff_rightmost/BPortImpl$clk" class="sprotty-edge edge" style="fill:none;stroke:rgb(112, 112, 112);stroke-linejoin:round;"><g><path d="M 0 109 L 43 109 C 44 109 45 110 45 111 L 45 483 C 45 484 46 485 47 485 L 75 485 "/><path d="M 0 109 L 43 109 C 44 109 45 110 45 111 L 45 483 C 45 484 46 485 47 485 L 75 485 " class="clickable"/></g><circle r="2" id="sprotty_ArchitectureBlockImpl$rvdff4e/GenerateStatementBlockImpl$null6/GPortImpl$clk_to_ArchitectureBlockImpl$rvdff4e/GenerateStatementBlockImpl$null6/InstantiationBlockImpl$dff_rightmost/BPortImpl$clk/junction0" transform="translate(45, 485)" class="sprotty-junction junction" style="fill:rgb(112, 112, 112);stroke:none;"/></g><g id="sprotty_ArchitectureBlockImpl$rvdff4e/GenerateStatementBlockImpl$null6/GPortImpl$rst_l_to_ArchitectureBlockImpl$rvdff4e/GenerateStatementBlockImpl$null6/InstantiationBlockImpl$dff_rightmost/BPortImpl$rst_l" class="sprotty-edge edge" style="fill:none;stroke:rgb(112, 112, 112);stroke-linejoin:round;"><g><path d="M 0 137 L 33 137 C 34 137 35 138 35 139 L 35 511 C 35 512 36 513 37 513 L 75 513 "/><path d="M 0 137 L 33 137 C 34 137 35 138 35 139 L 35 511 C 35 512 36 513 37 513 L 75 513 " class="clickable"/></g><circle r="2" id="sprotty_ArchitectureBlockImpl$rvdff4e/GenerateStatementBlockImpl$null6/GPortImpl$rst_l_to_ArchitectureBlockImpl$rvdff4e/GenerateStatementBlockImpl$null6/InstantiationBlockImpl$dff_rightmost/BPortImpl$rst_l/junction0" transform="translate(35, 513)" class="sprotty-junction junction" style="fill:rgb(112, 112, 112);stroke:none;"/></g><g id="sprotty_ArchitectureBlockImpl$rvdff4e/GenerateStatementBlockImpl$null6/GPortImpl$scan_mode_to_ArchitectureBlockImpl$rvdff4e/GenerateStatementBlockImpl$null6/InstantiationBlockImpl$dff_rightmost/BPortImpl$scan_mode" class="sprotty-edge edge" style="fill:none;stroke:rgb(112, 112, 112);stroke-linejoin:round;"><g><path d="M 0 165 L 23 165 C 24 165 25 166 25 167 L 25 539 C 25 540 26 541 27 541 L 75 541 "/><path d="M 0 165 L 23 165 C 24 165 25 166 25 167 L 25 539 C 25 540 26 541 27 541 L 75 541 " class="clickable"/></g><circle r="2" id="sprotty_ArchitectureBlockImpl$rvdff4e/GenerateStatementBlockImpl$null6/GPortImpl$scan_mode_to_ArchitectureBlockImpl$rvdff4e/GenerateStatementBlockImpl$null6/InstantiationBlockImpl$dff_rightmost/BPortImpl$scan_mode/junction0" transform="translate(25, 541)" class="sprotty-junction junction" style="fill:rgb(112, 112, 112);stroke:none;"/></g><g id="sprotty_ArchitectureBlockImpl$rvdff4e/GenerateStatementBlockImpl$null6/InstantiationBlockImpl$dff_rightmost" class="instantiation" transform="translate(75, 391)"><g class="sprotty-block" style="fill:rgb(255, 255, 255);stroke:rgb(48, 48, 48);stroke-dasharray:0px;"><rect x="0" y="0" rx="1" ry="1" width="176.5625" height="168"/><text x="88.28125" y="12" class="sprotty-block-name" style="cursor:pointer;font-weight:700;perspective-origin:88.2812px 0px;fill:rgb(48, 48, 48);stroke:rgba(0, 0, 0, 0);dominant-baseline:middle;text-anchor:middle;">dff_rightmost : rvdffe</text><line x1="0" y1="20" x2="176.5625" y2="20"/></g><g id="sprotty_ArchitectureBlockImpl$rvdff4e/GenerateStatementBlockImpl$null6/InstantiationBlockImpl$dff_rightmost/BPortImpl$scan_mode" class="triangle" transform="translate(0, 150)"><path d="M 0,0 L 5,2.5 L 0,5 Z" transform="translate(-1.67, -2.5)" class="sprotty-port" style="fill:rgb(48, 48, 48);stroke:rgb(48, 48, 48);"/><text class="clickable sprotty-label port" id="sprotty_ArchitectureBlockImpl$rvdff4e/GenerateStatementBlockImpl$null6/InstantiationBlockImpl$dff_rightmost/BPortImpl$scan_mode/label" transform="translate(6, -9) translate(32.4375, 14)" style="cursor:default;font-size:12px;perspective-origin:0px 0px;fill:rgb(48, 48, 48);text-anchor:middle;">scan_mode</text></g><g id="sprotty_ArchitectureBlockImpl$rvdff4e/GenerateStatementBlockImpl$null6/InstantiationBlockImpl$dff_rightmost/BPortImpl$rst_l" class="triangle" transform="translate(0, 122)"><path d="M 0,0 L 5,2.5 L 0,5 Z" transform="translate(-1.67, -2.5)" class="sprotty-port" style="fill:rgb(48, 48, 48);stroke:rgb(48, 48, 48);"/><text class="clickable sprotty-label port" id="sprotty_ArchitectureBlockImpl$rvdff4e/GenerateStatementBlockImpl$null6/InstantiationBlockImpl$dff_rightmost/BPortImpl$rst_l/label" transform="translate(6, -9) translate(12.3125, 14)" style="cursor:default;font-size:12px;perspective-origin:0px 0px;fill:rgb(48, 48, 48);text-anchor:middle;">rst_l</text></g><g id="sprotty_ArchitectureBlockImpl$rvdff4e/GenerateStatementBlockImpl$null6/InstantiationBlockImpl$dff_rightmost/BPortImpl$clk" class="triangle" transform="translate(0, 94)"><path d="M 0,0 L 5,2.5 L 0,5 Z" transform="translate(-1.67, -2.5)" class="sprotty-port" style="fill:rgb(48, 48, 48);stroke:rgb(48, 48, 48);"/><text class="clickable sprotty-label port" id="sprotty_ArchitectureBlockImpl$rvdff4e/GenerateStatementBlockImpl$null6/InstantiationBlockImpl$dff_rightmost/BPortImpl$clk/label" transform="translate(6, -9) translate(8.078125, 14)" style="cursor:default;font-size:12px;perspective-origin:0px 0px;fill:rgb(48, 48, 48);text-anchor:middle;">clk</text></g><g id="sprotty_ArchitectureBlockImpl$rvdff4e/GenerateStatementBlockImpl$null6/InstantiationBlockImpl$dff_rightmost/BPortImpl$en" class="triangle" transform="translate(0, 66)"><path d="M 0,0 L 5,2.5 L 0,5 Z" transform="translate(-1.67, -2.5)" class="sprotty-port" style="fill:rgb(48, 48, 48);stroke:rgb(48, 48, 48);"/><text class="clickable sprotty-label port" id="sprotty_ArchitectureBlockImpl$rvdff4e/GenerateStatementBlockImpl$null6/InstantiationBlockImpl$dff_rightmost/BPortImpl$en/label" transform="translate(6, -9) translate(7, 14)" style="cursor:default;font-size:12px;perspective-origin:0px 0px;fill:rgb(48, 48, 48);text-anchor:middle;">en</text></g><g id="sprotty_ArchitectureBlockImpl$rvdff4e/GenerateStatementBlockImpl$null6/InstantiationBlockImpl$dff_rightmost/BPortImpl$din" class="triangle" transform="translate(0, 38)"><path d="M 0,0 L 5,2.5 L 0,5 Z" transform="translate(-1.67, -2.5)" class="sprotty-port" style="fill:rgb(48, 48, 48);stroke:rgb(48, 48, 48);"/><text class="clickable sprotty-label port" id="sprotty_ArchitectureBlockImpl$rvdff4e/GenerateStatementBlockImpl$null6/InstantiationBlockImpl$dff_rightmost/BPortImpl$din/label" transform="translate(6, -9) translate(9.046875, 14)" style="cursor:default;font-size:12px;perspective-origin:0px 0px;fill:rgb(48, 48, 48);text-anchor:middle;">din</text></g><g id="sprotty_ArchitectureBlockImpl$rvdff4e/GenerateStatementBlockImpl$null6/InstantiationBlockImpl$dff_rightmost/BPortImpl$dout" class="triangle" transform="translate(176.5625, 94)"><path d="M 0,0 L 5,2.5 L 0,5 Z" transform="translate(-1.67, -2.5)" class="sprotty-port" style="fill:rgb(48, 48, 48);stroke:rgb(48, 48, 48);"/><text class="clickable sprotty-label port" id="sprotty_ArchitectureBlockImpl$rvdff4e/GenerateStatementBlockImpl$null6/InstantiationBlockImpl$dff_rightmost/BPortImpl$dout/label" transform="translate(-32.53125, -9) translate(13.265625, 14)" style="cursor:default;font-size:12px;perspective-origin:0px 0px;fill:rgb(48, 48, 48);text-anchor:middle;">dout</text></g></g><g id="sprotty_ArchitectureBlockImpl$rvdff4e/GenerateStatementBlockImpl$null6/InstantiationBlockImpl$dff_right" class="instantiation" transform="translate(80.80208333333333, 15)"><g class="sprotty-block" style="fill:rgb(255, 255, 255);stroke:rgb(48, 48, 48);stroke-dasharray:0px;"><rect x="0" y="0" rx="1" ry="1" width="141.75" height="168"/><text x="70.875" y="12" class="sprotty-block-name" style="cursor:pointer;font-weight:700;perspective-origin:70.875px 0px;fill:rgb(48, 48, 48);stroke:rgba(0, 0, 0, 0);dominant-baseline:middle;text-anchor:middle;">dff_right : rvdffe</text><line x1="0" y1="20" x2="141.75" y2="20"/></g><g id="sprotty_ArchitectureBlockImpl$rvdff4e/GenerateStatementBlockImpl$null6/InstantiationBlockImpl$dff_right/BPortImpl$scan_mode" class="triangle" transform="translate(0, 150)"><path d="M 0,0 L 5,2.5 L 0,5 Z" transform="translate(-1.67, -2.5)" class="sprotty-port" style="fill:rgb(48, 48, 48);stroke:rgb(48, 48, 48);"/><text class="clickable sprotty-label port" id="sprotty_ArchitectureBlockImpl$rvdff4e/GenerateStatementBlockImpl$null6/InstantiationBlockImpl$dff_right/BPortImpl$scan_mode/label" transform="translate(6, -9) translate(32.4375, 14)" style="cursor:default;font-size:12px;perspective-origin:0px 0px;fill:rgb(48, 48, 48);text-anchor:middle;">scan_mode</text></g><g id="sprotty_ArchitectureBlockImpl$rvdff4e/GenerateStatementBlockImpl$null6/InstantiationBlockImpl$dff_right/BPortImpl$rst_l" class="triangle" transform="translate(0, 122)"><path d="M 0,0 L 5,2.5 L 0,5 Z" transform="translate(-1.67, -2.5)" class="sprotty-port" style="fill:rgb(48, 48, 48);stroke:rgb(48, 48, 48);"/><text class="clickable sprotty-label port" id="sprotty_ArchitectureBlockImpl$rvdff4e/GenerateStatementBlockImpl$null6/InstantiationBlockImpl$dff_right/BPortImpl$rst_l/label" transform="translate(6, -9) translate(12.3125, 14)" style="cursor:default;font-size:12px;perspective-origin:0px 0px;fill:rgb(48, 48, 48);text-anchor:middle;">rst_l</text></g><g id="sprotty_ArchitectureBlockImpl$rvdff4e/GenerateStatementBlockImpl$null6/InstantiationBlockImpl$dff_right/BPortImpl$clk" class="triangle" transform="translate(0, 94)"><path d="M 0,0 L 5,2.5 L 0,5 Z" transform="translate(-1.67, -2.5)" class="sprotty-port" style="fill:rgb(48, 48, 48);stroke:rgb(48, 48, 48);"/><text class="clickable sprotty-label port" id="sprotty_ArchitectureBlockImpl$rvdff4e/GenerateStatementBlockImpl$null6/InstantiationBlockImpl$dff_right/BPortImpl$clk/label" transform="translate(6, -9) translate(8.078125, 14)" style="cursor:default;font-size:12px;perspective-origin:0px 0px;fill:rgb(48, 48, 48);text-anchor:middle;">clk</text></g><g id="sprotty_ArchitectureBlockImpl$rvdff4e/GenerateStatementBlockImpl$null6/InstantiationBlockImpl$dff_right/BPortImpl$en" class="triangle" transform="translate(0, 66)"><path d="M 0,0 L 5,2.5 L 0,5 Z" transform="translate(-1.67, -2.5)" class="sprotty-port" style="fill:rgb(48, 48, 48);stroke:rgb(48, 48, 48);"/><text class="clickable sprotty-label port" id="sprotty_ArchitectureBlockImpl$rvdff4e/GenerateStatementBlockImpl$null6/InstantiationBlockImpl$dff_right/BPortImpl$en/label" transform="translate(6, -9) translate(7, 14)" style="cursor:default;font-size:12px;perspective-origin:0px 0px;fill:rgb(48, 48, 48);text-anchor:middle;">en</text></g><g id="sprotty_ArchitectureBlockImpl$rvdff4e/GenerateStatementBlockImpl$null6/InstantiationBlockImpl$dff_right/BPortImpl$din" class="triangle" transform="translate(0, 38)"><path d="M 0,0 L 5,2.5 L 0,5 Z" transform="translate(-1.67, -2.5)" class="sprotty-port" style="fill:rgb(48, 48, 48);stroke:rgb(48, 48, 48);"/><text class="clickable sprotty-label port" id="sprotty_ArchitectureBlockImpl$rvdff4e/GenerateStatementBlockImpl$null6/InstantiationBlockImpl$dff_right/BPortImpl$din/label" transform="translate(6, -9) translate(9.046875, 14)" style="cursor:default;font-size:12px;perspective-origin:0px 0px;fill:rgb(48, 48, 48);text-anchor:middle;">din</text></g><g id="sprotty_ArchitectureBlockImpl$rvdff4e/GenerateStatementBlockImpl$null6/InstantiationBlockImpl$dff_right/BPortImpl$dout" class="triangle" transform="translate(141.75, 94)"><path d="M 0,0 L 5,2.5 L 0,5 Z" transform="translate(-1.67, -2.5)" class="sprotty-port" style="fill:rgb(48, 48, 48);stroke:rgb(48, 48, 48);"/><text class="clickable sprotty-label port" id="sprotty_ArchitectureBlockImpl$rvdff4e/GenerateStatementBlockImpl$null6/InstantiationBlockImpl$dff_right/BPortImpl$dout/label" transform="translate(-32.53125, -9) translate(13.265625, 14)" style="cursor:default;font-size:12px;perspective-origin:0px 0px;fill:rgb(48, 48, 48);text-anchor:middle;">dout</text></g></g><g id="sprotty_ArchitectureBlockImpl$rvdff4e/GenerateStatementBlockImpl$null6/InstantiationBlockImpl$dff_left" class="instantiation" transform="translate(80.80208333333333, 203)"><g class="sprotty-block" style="fill:rgb(255, 255, 255);stroke:rgb(48, 48, 48);stroke-dasharray:0px;"><rect x="0" y="0" rx="1" ry="1" width="141.75" height="168"/><text x="70.875" y="12" class="sprotty-block-name" style="cursor:pointer;font-weight:700;perspective-origin:70.875px 0px;fill:rgb(48, 48, 48);stroke:rgba(0, 0, 0, 0);dominant-baseline:middle;text-anchor:middle;">dff_left : rvdffe</text><line x1="0" y1="20" x2="141.75" y2="20"/></g><g id="sprotty_ArchitectureBlockImpl$rvdff4e/GenerateStatementBlockImpl$null6/InstantiationBlockImpl$dff_left/BPortImpl$scan_mode" class="triangle" transform="translate(0, 150)"><path d="M 0,0 L 5,2.5 L 0,5 Z" transform="translate(-1.67, -2.5)" class="sprotty-port" style="fill:rgb(48, 48, 48);stroke:rgb(48, 48, 48);"/><text class="clickable sprotty-label port" id="sprotty_ArchitectureBlockImpl$rvdff4e/GenerateStatementBlockImpl$null6/InstantiationBlockImpl$dff_left/BPortImpl$scan_mode/label" transform="translate(6, -9) translate(32.4375, 14)" style="cursor:default;font-size:12px;perspective-origin:0px 0px;fill:rgb(48, 48, 48);text-anchor:middle;">scan_mode</text></g><g id="sprotty_ArchitectureBlockImpl$rvdff4e/GenerateStatementBlockImpl$null6/InstantiationBlockImpl$dff_left/BPortImpl$rst_l" class="triangle" transform="translate(0, 122)"><path d="M 0,0 L 5,2.5 L 0,5 Z" transform="translate(-1.67, -2.5)" class="sprotty-port" style="fill:rgb(48, 48, 48);stroke:rgb(48, 48, 48);"/><text class="clickable sprotty-label port" id="sprotty_ArchitectureBlockImpl$rvdff4e/GenerateStatementBlockImpl$null6/InstantiationBlockImpl$dff_left/BPortImpl$rst_l/label" transform="translate(6, -9) translate(12.3125, 14)" style="cursor:default;font-size:12px;perspective-origin:0px 0px;fill:rgb(48, 48, 48);text-anchor:middle;">rst_l</text></g><g id="sprotty_ArchitectureBlockImpl$rvdff4e/GenerateStatementBlockImpl$null6/InstantiationBlockImpl$dff_left/BPortImpl$clk" class="triangle" transform="translate(0, 94)"><path d="M 0,0 L 5,2.5 L 0,5 Z" transform="translate(-1.67, -2.5)" class="sprotty-port" style="fill:rgb(48, 48, 48);stroke:rgb(48, 48, 48);"/><text class="clickable sprotty-label port" id="sprotty_ArchitectureBlockImpl$rvdff4e/GenerateStatementBlockImpl$null6/InstantiationBlockImpl$dff_left/BPortImpl$clk/label" transform="translate(6, -9) translate(8.078125, 14)" style="cursor:default;font-size:12px;perspective-origin:0px 0px;fill:rgb(48, 48, 48);text-anchor:middle;">clk</text></g><g id="sprotty_ArchitectureBlockImpl$rvdff4e/GenerateStatementBlockImpl$null6/InstantiationBlockImpl$dff_left/BPortImpl$en" class="triangle" transform="translate(0, 66)"><path d="M 0,0 L 5,2.5 L 0,5 Z" transform="translate(-1.67, -2.5)" class="sprotty-port" style="fill:rgb(48, 48, 48);stroke:rgb(48, 48, 48);"/><text class="clickable sprotty-label port" id="sprotty_ArchitectureBlockImpl$rvdff4e/GenerateStatementBlockImpl$null6/InstantiationBlockImpl$dff_left/BPortImpl$en/label" transform="translate(6, -9) translate(7, 14)" style="cursor:default;font-size:12px;perspective-origin:0px 0px;fill:rgb(48, 48, 48);text-anchor:middle;">en</text></g><g id="sprotty_ArchitectureBlockImpl$rvdff4e/GenerateStatementBlockImpl$null6/InstantiationBlockImpl$dff_left/BPortImpl$din" class="triangle" transform="translate(0, 38)"><path d="M 0,0 L 5,2.5 L 0,5 Z" transform="translate(-1.67, -2.5)" class="sprotty-port" style="fill:rgb(48, 48, 48);stroke:rgb(48, 48, 48);"/><text class="clickable sprotty-label port" id="sprotty_ArchitectureBlockImpl$rvdff4e/GenerateStatementBlockImpl$null6/InstantiationBlockImpl$dff_left/BPortImpl$din/label" transform="translate(6, -9) translate(9.046875, 14)" style="cursor:default;font-size:12px;perspective-origin:0px 0px;fill:rgb(48, 48, 48);text-anchor:middle;">din</text></g><g id="sprotty_ArchitectureBlockImpl$rvdff4e/GenerateStatementBlockImpl$null6/InstantiationBlockImpl$dff_left/BPortImpl$dout" class="triangle" transform="translate(141.75, 94)"><path d="M 0,0 L 5,2.5 L 0,5 Z" transform="translate(-1.67, -2.5)" class="sprotty-port" style="fill:rgb(48, 48, 48);stroke:rgb(48, 48, 48);"/><text class="clickable sprotty-label port" id="sprotty_ArchitectureBlockImpl$rvdff4e/GenerateStatementBlockImpl$null6/InstantiationBlockImpl$dff_left/BPortImpl$dout/label" transform="translate(-32.53125, -9) translate(13.265625, 14)" style="cursor:default;font-size:12px;perspective-origin:0px 0px;fill:rgb(48, 48, 48);text-anchor:middle;">dout</text></g></g><g id="sprotty_ArchitectureBlockImpl$rvdff4e/GenerateStatementBlockImpl$null6/InstantiationBlockImpl$dff_leftmost" class="instantiation" transform="translate(76.90104166666666, 579)"><g class="sprotty-block" style="fill:rgb(255, 255, 255);stroke:rgb(48, 48, 48);stroke-dasharray:0px;"><rect x="0" y="0" rx="1" ry="1" width="165.15625" height="168"/><text x="82.578125" y="12" class="sprotty-block-name" style="cursor:pointer;font-weight:700;perspective-origin:82.5781px 0px;fill:rgb(48, 48, 48);stroke:rgba(0, 0, 0, 0);dominant-baseline:middle;text-anchor:middle;">dff_leftmost : rvdffe</text><line x1="0" y1="20" x2="165.15625" y2="20"/></g><g id="sprotty_ArchitectureBlockImpl$rvdff4e/GenerateStatementBlockImpl$null6/InstantiationBlockImpl$dff_leftmost/BPortImpl$scan_mode" class="triangle" transform="translate(0, 150)"><path d="M 0,0 L 5,2.5 L 0,5 Z" transform="translate(-1.67, -2.5)" class="sprotty-port" style="fill:rgb(48, 48, 48);stroke:rgb(48, 48, 48);"/><text class="clickable sprotty-label port" id="sprotty_ArchitectureBlockImpl$rvdff4e/GenerateStatementBlockImpl$null6/InstantiationBlockImpl$dff_leftmost/BPortImpl$scan_mode/label" transform="translate(6, -9) translate(32.4375, 14)" style="cursor:default;font-size:12px;perspective-origin:0px 0px;fill:rgb(48, 48, 48);text-anchor:middle;">scan_mode</text></g><g id="sprotty_ArchitectureBlockImpl$rvdff4e/GenerateStatementBlockImpl$null6/InstantiationBlockImpl$dff_leftmost/BPortImpl$rst_l" class="triangle" transform="translate(0, 122)"><path d="M 0,0 L 5,2.5 L 0,5 Z" transform="translate(-1.67, -2.5)" class="sprotty-port" style="fill:rgb(48, 48, 48);stroke:rgb(48, 48, 48);"/><text class="clickable sprotty-label port" id="sprotty_ArchitectureBlockImpl$rvdff4e/GenerateStatementBlockImpl$null6/InstantiationBlockImpl$dff_leftmost/BPortImpl$rst_l/label" transform="translate(6, -9) translate(12.3125, 14)" style="cursor:default;font-size:12px;perspective-origin:0px 0px;fill:rgb(48, 48, 48);text-anchor:middle;">rst_l</text></g><g id="sprotty_ArchitectureBlockImpl$rvdff4e/GenerateStatementBlockImpl$null6/InstantiationBlockImpl$dff_leftmost/BPortImpl$clk" class="triangle" transform="translate(0, 94)"><path d="M 0,0 L 5,2.5 L 0,5 Z" transform="translate(-1.67, -2.5)" class="sprotty-port" style="fill:rgb(48, 48, 48);stroke:rgb(48, 48, 48);"/><text class="clickable sprotty-label port" id="sprotty_ArchitectureBlockImpl$rvdff4e/GenerateStatementBlockImpl$null6/InstantiationBlockImpl$dff_leftmost/BPortImpl$clk/label" transform="translate(6, -9) translate(8.078125, 14)" style="cursor:default;font-size:12px;perspective-origin:0px 0px;fill:rgb(48, 48, 48);text-anchor:middle;">clk</text></g><g id="sprotty_ArchitectureBlockImpl$rvdff4e/GenerateStatementBlockImpl$null6/InstantiationBlockImpl$dff_leftmost/BPortImpl$en" class="triangle" transform="translate(0, 66)"><path d="M 0,0 L 5,2.5 L 0,5 Z" transform="translate(-1.67, -2.5)" class="sprotty-port" style="fill:rgb(48, 48, 48);stroke:rgb(48, 48, 48);"/><text class="clickable sprotty-label port" id="sprotty_ArchitectureBlockImpl$rvdff4e/GenerateStatementBlockImpl$null6/InstantiationBlockImpl$dff_leftmost/BPortImpl$en/label" transform="translate(6, -9) translate(7, 14)" style="cursor:default;font-size:12px;perspective-origin:0px 0px;fill:rgb(48, 48, 48);text-anchor:middle;">en</text></g><g id="sprotty_ArchitectureBlockImpl$rvdff4e/GenerateStatementBlockImpl$null6/InstantiationBlockImpl$dff_leftmost/BPortImpl$din" class="triangle" transform="translate(0, 38)"><path d="M 0,0 L 5,2.5 L 0,5 Z" transform="translate(-1.67, -2.5)" class="sprotty-port" style="fill:rgb(48, 48, 48);stroke:rgb(48, 48, 48);"/><text class="clickable sprotty-label port" id="sprotty_ArchitectureBlockImpl$rvdff4e/GenerateStatementBlockImpl$null6/InstantiationBlockImpl$dff_leftmost/BPortImpl$din/label" transform="translate(6, -9) translate(9.046875, 14)" style="cursor:default;font-size:12px;perspective-origin:0px 0px;fill:rgb(48, 48, 48);text-anchor:middle;">din</text></g><g id="sprotty_ArchitectureBlockImpl$rvdff4e/GenerateStatementBlockImpl$null6/InstantiationBlockImpl$dff_leftmost/BPortImpl$dout" class="triangle" transform="translate(165.15625, 94)"><path d="M 0,0 L 5,2.5 L 0,5 Z" transform="translate(-1.67, -2.5)" class="sprotty-port" style="fill:rgb(48, 48, 48);stroke:rgb(48, 48, 48);"/><text class="clickable sprotty-label port" id="sprotty_ArchitectureBlockImpl$rvdff4e/GenerateStatementBlockImpl$null6/InstantiationBlockImpl$dff_leftmost/BPortImpl$dout/label" transform="translate(-32.53125, -9) translate(13.265625, 14)" style="cursor:default;font-size:12px;perspective-origin:0px 0px;fill:rgb(48, 48, 48);text-anchor:middle;">dout</text></g></g><g id="sprotty_ArchitectureBlockImpl$rvdff4e/GenerateStatementBlockImpl$null6/GPortImpl$scan_mode" class="triangle" transform="translate(0, 165)"><path d="M 0,0 L 5,2.5 L 0,5 Z" transform="translate(-1.67, -2.5)" class="sprotty-port" style="fill:rgb(48, 48, 48);stroke:rgb(48, 48, 48);"/></g><g id="sprotty_ArchitectureBlockImpl$rvdff4e/GenerateStatementBlockImpl$null6/GPortImpl$rst_l" class="triangle" transform="translate(0, 137)"><path d="M 0,0 L 5,2.5 L 0,5 Z" transform="translate(-1.67, -2.5)" class="sprotty-port" style="fill:rgb(48, 48, 48);stroke:rgb(48, 48, 48);"/></g><g id="sprotty_ArchitectureBlockImpl$rvdff4e/GenerateStatementBlockImpl$null6/GPortImpl$clk" class="triangle" transform="translate(0, 109)"><path d="M 0,0 L 5,2.5 L 0,5 Z" transform="translate(-1.67, -2.5)" class="sprotty-port" style="fill:rgb(48, 48, 48);stroke:rgb(48, 48, 48);"/></g><g id="sprotty_ArchitectureBlockImpl$rvdff4e/GenerateStatementBlockImpl$null6/GPortImpl$en" class="triangle" transform="translate(0, 99)"><path d="M 0,0 L 5,2.5 L 0,5 Z" transform="translate(-1.67, -2.5)" class="sprotty-port" style="fill:rgb(48, 48, 48);stroke:rgb(48, 48, 48);"/></g><g id="sprotty_ArchitectureBlockImpl$rvdff4e/GenerateStatementBlockImpl$null6/GPortImpl$din" class="triangle" transform="translate(0, 89)"><path d="M 0,0 L 5,2.5 L 0,5 Z" transform="translate(-1.67, -2.5)" class="sprotty-port" style="fill:rgb(48, 48, 48);stroke:rgb(48, 48, 48);"/></g><g id="sprotty_ArchitectureBlockImpl$rvdff4e/GenerateStatementBlockImpl$null6/GPortImpl$dout" class="triangle" transform="translate(286.5625, 297)"><path d="M 0,0 L 5,2.5 L 0,5 Z" transform="translate(-1.67, -2.5)" class="sprotty-port" style="fill:rgb(48, 48, 48);stroke:rgb(48, 48, 48);"/></g></g><g id="sprotty_ArchitectureBlockImpl$rvdff4e/BPortImpl$scan_mode" class="triangle" transform="translate(0, 212)"><path d="M 0,0 L 5,2.5 L 0,5 Z" transform="translate(-1.67, -2.5)" class="sprotty-port" style="fill:rgb(48, 48, 48);stroke:rgb(48, 48, 48);"/><text class="clickable sprotty-label port" id="sprotty_ArchitectureBlockImpl$rvdff4e/BPortImpl$scan_mode/label" transform="translate(6, 6) translate(32.4375, 14)" style="cursor:default;font-size:12px;perspective-origin:0px 0px;fill:rgb(48, 48, 48);text-anchor:middle;">scan_mode</text></g><g id="sprotty_ArchitectureBlockImpl$rvdff4e/BPortImpl$rst_l" class="triangle" transform="translate(0, 178)"><path d="M 0,0 L 5,2.5 L 0,5 Z" transform="translate(-1.67, -2.5)" class="sprotty-port" style="fill:rgb(48, 48, 48);stroke:rgb(48, 48, 48);"/><text class="clickable sprotty-label port" id="sprotty_ArchitectureBlockImpl$rvdff4e/BPortImpl$rst_l/label" transform="translate(6, 6) translate(12.3125, 14)" style="cursor:default;font-size:12px;perspective-origin:0px 0px;fill:rgb(48, 48, 48);text-anchor:middle;">rst_l</text></g><g id="sprotty_ArchitectureBlockImpl$rvdff4e/BPortImpl$clk" class="triangle" transform="translate(0, 144)"><path d="M 0,0 L 5,2.5 L 0,5 Z" transform="translate(-1.67, -2.5)" class="sprotty-port" style="fill:rgb(48, 48, 48);stroke:rgb(48, 48, 48);"/><text class="clickable sprotty-label port" id="sprotty_ArchitectureBlockImpl$rvdff4e/BPortImpl$clk/label" transform="translate(6, 6) translate(8.078125, 14)" style="cursor:default;font-size:12px;perspective-origin:0px 0px;fill:rgb(48, 48, 48);text-anchor:middle;">clk</text></g><g id="sprotty_ArchitectureBlockImpl$rvdff4e/BPortImpl$en" class="triangle" transform="translate(0, 110)"><path d="M 0,0 L 5,2.5 L 0,5 Z" transform="translate(-1.67, -2.5)" class="sprotty-port" style="fill:rgb(48, 48, 48);stroke:rgb(48, 48, 48);"/><text class="clickable sprotty-label port" id="sprotty_ArchitectureBlockImpl$rvdff4e/BPortImpl$en/label" transform="translate(6, 6) translate(7, 14)" style="cursor:default;font-size:12px;perspective-origin:0px 0px;fill:rgb(48, 48, 48);text-anchor:middle;">en</text></g><g id="sprotty_ArchitectureBlockImpl$rvdff4e/BPortImpl$din" class="triangle" transform="translate(0, 76)"><path d="M 0,0 L 5,2.5 L 0,5 Z" transform="translate(-1.67, -2.5)" class="sprotty-port" style="fill:rgb(48, 48, 48);stroke:rgb(48, 48, 48);"/><text class="clickable sprotty-label port" id="sprotty_ArchitectureBlockImpl$rvdff4e/BPortImpl$din/label" transform="translate(6, 6) translate(9.046875, 14)" style="cursor:default;font-size:12px;perspective-origin:0px 0px;fill:rgb(48, 48, 48);text-anchor:middle;">din</text></g><g id="sprotty_ArchitectureBlockImpl$rvdff4e/BPortImpl$dout" class="triangle" transform="translate(449.96875, 332)"><path d="M 0,0 L 5,2.5 L 0,5 Z" transform="translate(-1.67, -2.5)" class="sprotty-port" style="fill:rgb(48, 48, 48);stroke:rgb(48, 48, 48);"/><text class="clickable sprotty-label port" id="sprotty_ArchitectureBlockImpl$rvdff4e/BPortImpl$dout/label" transform="translate(-32.53125, 6) translate(13.265625, 14)" style="cursor:default;font-size:12px;perspective-origin:0px 0px;fill:rgb(48, 48, 48);text-anchor:middle;">dout</text></g></g></g></svg>