<svg xmlns="http://www.w3.org/2000/svg" id="sprotty_work.eh2_exu_div_cls" class="sprotty-graph sprotty-block-diagram blockdiagram" style="font-family:&quot;Noto Sans&quot;, Helvetica, Arial, sans-serif;perspective-origin:0px 0px;transform-origin:0px 0px;" version="1.1" viewBox="7 7 193.28125 137" width="193.28125" height="137"><g transform="scale(1) translate(0,0)"><g id="sprotty_ArchitectureBlockImpl$eh2_exu_div_cls" class="architecture" transform="translate(12, 12)"><g class="sprotty-block" style="fill:rgb(255, 255, 255);stroke:rgb(48, 48, 48);stroke-dasharray:0px;"><rect x="0" y="0" rx="1" ry="1" width="183.28125" height="127"/><text x="91.640625" y="12" class="sprotty-block-name" style="cursor:pointer;font-weight:700;perspective-origin:91.6406px 0px;fill:rgb(48, 48, 48);stroke:rgba(0, 0, 0, 0);dominant-baseline:middle;text-anchor:middle;">eh2_exu_div_cls</text><line x1="0" y1="20" x2="183.28125" y2="20"/></g><g id="sprotty_ArchitectureBlockImpl$eh2_exu_div_cls/AssignmentBlockImpl$cls/GPortImpl$clsOUT_to_ArchitectureBlockImpl$eh2_exu_div_cls/BPortImpl$cls" class="sprotty-edge thick edge" style="fill:none;stroke:rgb(112, 112, 112);stroke-linejoin:round;stroke-width:3px;"><g><path d="M 147.125 59 L 183.28125 59 "/><path d="M 147.125 59 L 183.28125 59 " class="clickable"/></g></g><g id="sprotty_ArchitectureBlockImpl$eh2_exu_div_cls/BPortImpl$operand_to_ArchitectureBlockImpl$eh2_exu_div_cls/AssignmentBlockImpl$cls_zeros/GPortImpl$operandIN" class="sprotty-edge thick edge" style="fill:none;stroke:rgb(112, 112, 112);stroke-linejoin:round;stroke-width:3px;"><g><path d="M 0 36 L 76.25 36 C 77.25 36 78.25 37 78.25 38 L 78.25 99 C 78.25 100 79.25 101 80.25 101 L 88.25 101 "/><path d="M 0 36 L 76.25 36 C 77.25 36 78.25 37 78.25 38 L 78.25 99 C 78.25 100 79.25 101 80.25 101 L 88.25 101 " class="clickable"/></g><circle r="3" id="sprotty_ArchitectureBlockImpl$eh2_exu_div_cls/BPortImpl$operand_to_ArchitectureBlockImpl$eh2_exu_div_cls/AssignmentBlockImpl$cls_zeros/GPortImpl$operandIN/junction0" transform="translate(78.25, 36)" class="sprotty-junction thick" style="fill:rgb(112, 112, 112);stroke:none;"/></g><g id="sprotty_ArchitectureBlockImpl$eh2_exu_div_cls/BPortImpl$operand_to_ArchitectureBlockImpl$eh2_exu_div_cls/AssignmentBlockImpl$cls_ones/GPortImpl$operandIN" class="sprotty-edge thick edge" style="fill:none;stroke:rgb(112, 112, 112);stroke-linejoin:round;stroke-width:3px;"><g><path d="M 0 36 L 76.25 36 C 77.25 36 78.25 37 78.25 38 L 78.25 57 C 78.25 58 79.25 59 80.25 59 L 88.25 59 "/><path d="M 0 36 L 76.25 36 C 77.25 36 78.25 37 78.25 38 L 78.25 57 C 78.25 58 79.25 59 80.25 59 L 88.25 59 " class="clickable"/></g><circle r="3" id="sprotty_ArchitectureBlockImpl$eh2_exu_div_cls/BPortImpl$operand_to_ArchitectureBlockImpl$eh2_exu_div_cls/AssignmentBlockImpl$cls_ones/GPortImpl$operandIN/junction0" transform="translate(78.25, 59)" class="sprotty-junction thick" style="fill:rgb(112, 112, 112);stroke:none;"/></g><g id="sprotty_ArchitectureBlockImpl$eh2_exu_div_cls/BPortImpl$operand_to_ArchitectureBlockImpl$eh2_exu_div_cls/AssignmentBlockImpl$cls/GPortImpl$operandIN" class="sprotty-edge thick edge" style="fill:none;stroke:rgb(112, 112, 112);stroke-linejoin:round;stroke-width:3px;"><g><path d="M 0 36 L 115.6875 36 C 116.6875 36 117.6875 37 117.6875 38 L 117.6875 47 C 117.6875 48 118.6875 49 119.6875 49 L 127.6875 49 "/><path d="M 0 36 L 115.6875 36 C 116.6875 36 117.6875 37 117.6875 38 L 117.6875 47 C 117.6875 48 118.6875 49 119.6875 49 L 127.6875 49 " class="clickable"/></g></g><g id="sprotty_ArchitectureBlockImpl$eh2_exu_div_cls/AssignmentBlockImpl$cls_zeros/GPortImpl$cls_zerosOUT_to_ArchitectureBlockImpl$eh2_exu_div_cls/AssignmentBlockImpl$cls/GPortImpl$cls_zerosIN" class="sprotty-edge thick edge" style="fill:none;stroke:rgb(112, 112, 112);stroke-linejoin:round;stroke-width:3px;"><g><path d="M 107.6875 101 L 115.6875 101 C 116.6875 101 117.6875 100 117.6875 99 L 117.6875 71 C 117.6875 70 118.6875 69 119.6875 69 L 127.6875 69 "/><path d="M 107.6875 101 L 115.6875 101 C 116.6875 101 117.6875 100 117.6875 99 L 117.6875 71 C 117.6875 70 118.6875 69 119.6875 69 L 127.6875 69 " class="clickable"/></g></g><g id="sprotty_ArchitectureBlockImpl$eh2_exu_div_cls/AssignmentBlockImpl$cls_ones/GPortImpl$cls_onesOUT_to_ArchitectureBlockImpl$eh2_exu_div_cls/AssignmentBlockImpl$cls/GPortImpl$cls_onesIN" class="sprotty-edge thick edge" style="fill:none;stroke:rgb(112, 112, 112);stroke-linejoin:round;stroke-width:3px;"><g><path d="M 107.6875 59 L 127.6875 59 "/><path d="M 107.6875 59 L 127.6875 59 " class="clickable"/></g></g><g id="sprotty_ArchitectureBlockImpl$eh2_exu_div_cls/AssignmentBlockImpl$cls" class="statement" transform="translate(127.6875, 39)"><rect x="0" y="0" rx="10" ry="5" width="19.4375" height="40" class="sprotty-node" style="fill:rgb(245, 245, 245);stroke:rgb(112, 112, 112);"/><text class="clickable sprotty-label statementtype" id="sprotty_ArchitectureBlockImpl$eh2_exu_div_cls/AssignmentBlockImpl$cls/labeltype" transform="translate(5, 14) translate(4.71875, 9.5)" style="cursor:default;font-size:8px;font-weight:700;perspective-origin:0px 0px;fill:rgb(112, 112, 112);text-anchor:middle;">&lt;=</text><g id="sprotty_ArchitectureBlockImpl$eh2_exu_div_cls/AssignmentBlockImpl$cls/GPortImpl$cls_zerosIN" class="sprotty-hidden hidden" transform="translate(0, 30)" style="display:block;height:0px;width:0px;"/><g id="sprotty_ArchitectureBlockImpl$eh2_exu_div_cls/AssignmentBlockImpl$cls/GPortImpl$cls_onesIN" class="sprotty-hidden hidden" transform="translate(0, 20)" style="display:block;height:0px;width:0px;"/><g id="sprotty_ArchitectureBlockImpl$eh2_exu_div_cls/AssignmentBlockImpl$cls/GPortImpl$operandIN" class="sprotty-hidden hidden" transform="translate(0, 10)" style="display:block;height:0px;width:0px;"/><g id="sprotty_ArchitectureBlockImpl$eh2_exu_div_cls/AssignmentBlockImpl$cls/GPortImpl$clsOUT" class="sprotty-hidden hidden" transform="translate(19.4375, 20)" style="display:block;height:0px;width:0px;"/></g><g id="sprotty_ArchitectureBlockImpl$eh2_exu_div_cls/AssignmentBlockImpl$cls_ones" class="statement" transform="translate(88.25, 48)"><rect x="0" y="0" rx="10" ry="5" width="19.4375" height="22" class="sprotty-node" style="fill:rgb(245, 245, 245);stroke:rgb(112, 112, 112);"/><text class="clickable sprotty-label statementtype" id="sprotty_ArchitectureBlockImpl$eh2_exu_div_cls/AssignmentBlockImpl$cls_ones/labeltype" transform="translate(5, 5) translate(4.71875, 9.5)" style="cursor:default;font-size:8px;font-weight:700;perspective-origin:0px 0px;fill:rgb(112, 112, 112);text-anchor:middle;">&lt;=</text><g id="sprotty_ArchitectureBlockImpl$eh2_exu_div_cls/AssignmentBlockImpl$cls_ones/GPortImpl$operandIN" class="sprotty-hidden hidden" transform="translate(0, 11)" style="display:block;height:0px;width:0px;"/><g id="sprotty_ArchitectureBlockImpl$eh2_exu_div_cls/AssignmentBlockImpl$cls_ones/GPortImpl$cls_onesOUT" class="sprotty-hidden hidden" transform="translate(19.4375, 11)" style="display:block;height:0px;width:0px;"/></g><g id="sprotty_ArchitectureBlockImpl$eh2_exu_div_cls/AssignmentBlockImpl$cls_zeros" class="statement" transform="translate(88.25, 90)"><rect x="0" y="0" rx="10" ry="5" width="19.4375" height="22" class="sprotty-node" style="fill:rgb(245, 245, 245);stroke:rgb(112, 112, 112);"/><text class="clickable sprotty-label statementtype" id="sprotty_ArchitectureBlockImpl$eh2_exu_div_cls/AssignmentBlockImpl$cls_zeros/labeltype" transform="translate(5, 5) translate(4.71875, 9.5)" style="cursor:default;font-size:8px;font-weight:700;perspective-origin:0px 0px;fill:rgb(112, 112, 112);text-anchor:middle;">&lt;=</text><g id="sprotty_ArchitectureBlockImpl$eh2_exu_div_cls/AssignmentBlockImpl$cls_zeros/GPortImpl$operandIN" class="sprotty-hidden hidden" transform="translate(0, 11)" style="display:block;height:0px;width:0px;"/><g id="sprotty_ArchitectureBlockImpl$eh2_exu_div_cls/AssignmentBlockImpl$cls_zeros/GPortImpl$cls_zerosOUT" class="sprotty-hidden hidden" transform="translate(19.4375, 11)" style="display:block;height:0px;width:0px;"/></g><g id="sprotty_ArchitectureBlockImpl$eh2_exu_div_cls/BPortImpl$operand" class="triangle" transform="translate(0, 36)"><path d="M 0,0 L 5,2.5 L 0,5 Z" transform="translate(-1.67, -2.5)" class="sprotty-port" style="fill:rgb(48, 48, 48);stroke:rgb(48, 48, 48);"/><text class="clickable sprotty-label port" id="sprotty_ArchitectureBlockImpl$eh2_exu_div_cls/BPortImpl$operand/label" transform="translate(6, 6) translate(23.625, 14)" style="cursor:default;font-size:12px;perspective-origin:0px 0px;fill:rgb(48, 48, 48);text-anchor:middle;">operand</text></g><g id="sprotty_ArchitectureBlockImpl$eh2_exu_div_cls/BPortImpl$cls" class="triangle" transform="translate(183.28125, 59)"><path d="M 0,0 L 5,2.5 L 0,5 Z" transform="translate(-1.67, -2.5)" class="sprotty-port" style="fill:rgb(48, 48, 48);stroke:rgb(48, 48, 48);"/><text class="clickable sprotty-label port" id="sprotty_ArchitectureBlockImpl$eh2_exu_div_cls/BPortImpl$cls/label" transform="translate(-21.15625, 6) translate(7.578125, 14)" style="cursor:default;font-size:12px;perspective-origin:0px 0px;fill:rgb(48, 48, 48);text-anchor:middle;">cls</text></g></g></g></svg>