<svg xmlns="http://www.w3.org/2000/svg" id="sprotty_work.rvdff2iee" class="sprotty-graph sprotty-block-diagram blockdiagram" style="font-family:&quot;Noto Sans&quot;, Helvetica, Arial, sans-serif;perspective-origin:0px 0px;transform-origin:0px 0px;" version="1.1" viewBox="7 7 454.59375 459" width="454.59375" height="459"><g transform="scale(1) translate(0,0)"><g id="sprotty_ArchitectureBlockImpl$rvdff2iee" class="architecture" transform="translate(12, 12)"><g class="sprotty-block" style="fill:rgb(255, 255, 255);stroke:rgb(48, 48, 48);stroke-dasharray:0px;"><rect x="0" y="0" rx="1" ry="1" width="444.59375" height="449"/><text x="222.296875" y="12" class="sprotty-block-name" style="cursor:pointer;font-weight:700;perspective-origin:222.297px 0px;fill:rgb(48, 48, 48);stroke:rgba(0, 0, 0, 0);dominant-baseline:middle;text-anchor:middle;">rvdff2iee</text><line x1="0" y1="20" x2="444.59375" y2="20"/></g><g id="sprotty_ArchitectureBlockImpl$rvdff2iee/GenerateStatementBlockImpl$null6/GPortImpl$dout_to_ArchitectureBlockImpl$rvdff2iee/BPortImpl$dout" class="sprotty-edge thick edge" style="fill:none;stroke:rgb(112, 112, 112);stroke-linejoin:round;stroke-width:3px;"><g><path d="M 397.0625 157 L 444.59375 157 "/><path d="M 397.0625 157 L 444.59375 157 " class="clickable"/></g></g><g id="sprotty_ArchitectureBlockImpl$rvdff2iee/BPortImpl$din_to_ArchitectureBlockImpl$rvdff2iee/GenerateStatementBlockImpl$null6/GPortImpl$din" class="sprotty-edge thick edge" style="fill:none;stroke:rgb(112, 112, 112);stroke-linejoin:round;stroke-width:3px;"><g><path d="M 0 115 L 93.875 115 C 94.875 115 95.875 114 95.875 113 L 95.875 113 C 95.875 112.5 96.875 112 97.875 112 L 105.875 112 "/><path d="M 0 115 L 93.875 115 C 94.875 115 95.875 114 95.875 113 L 95.875 113 C 95.875 112.5 96.875 112 97.875 112 L 105.875 112 " class="clickable"/></g></g><g id="sprotty_ArchitectureBlockImpl$rvdff2iee/BPortImpl$clk_to_ArchitectureBlockImpl$rvdff2iee/GenerateStatementBlockImpl$null6/GPortImpl$clk" class="sprotty-edge edge" style="fill:none;stroke:rgb(112, 112, 112);stroke-linejoin:round;"><g><path d="M 0 157 L 105.875 157 "/><path d="M 0 157 L 105.875 157 " class="clickable"/></g></g><g id="sprotty_ArchitectureBlockImpl$rvdff2iee/BPortImpl$rst_l_to_ArchitectureBlockImpl$rvdff2iee/GenerateStatementBlockImpl$null6/GPortImpl$rst_l" class="sprotty-edge edge" style="fill:none;stroke:rgb(112, 112, 112);stroke-linejoin:round;"><g><path d="M 0 191 L 93.875 191 C 94.875 191 95.875 190 95.875 189 L 95.875 187 C 95.875 186 96.875 185 97.875 185 L 105.875 185 "/><path d="M 0 191 L 93.875 191 C 94.875 191 95.875 190 95.875 189 L 95.875 187 C 95.875 186 96.875 185 97.875 185 L 105.875 185 " class="clickable"/></g></g><g id="sprotty_ArchitectureBlockImpl$rvdff2iee/BPortImpl$scan_mode_to_ArchitectureBlockImpl$rvdff2iee/GenerateStatementBlockImpl$null6/GPortImpl$scan_mode" class="sprotty-edge edge" style="fill:none;stroke:rgb(112, 112, 112);stroke-linejoin:round;"><g><path d="M 0 225 L 93.875 225 C 94.875 225 95.875 224 95.875 223 L 95.875 215 C 95.875 214 96.875 213 97.875 213 L 105.875 213 "/><path d="M 0 225 L 93.875 225 C 94.875 225 95.875 224 95.875 223 L 95.875 215 C 95.875 214 96.875 213 97.875 213 L 105.875 213 " class="clickable"/></g></g><g id="sprotty_ArchitectureBlockImpl$rvdff2iee/BPortImpl$dout_to_ArchitectureBlockImpl$rvdff2iee/GenerateStatementBlockImpl$null6/GPortImpl$dout" class="sprotty-edge thick edge" style="fill:none;stroke:rgb(112, 112, 112);stroke-linejoin:round;stroke-width:3px;"><g><path d="M 444.59375 157 L 397.0625 157 "/><path d="M 444.59375 157 L 397.0625 157 " class="clickable"/></g></g><g id="sprotty_ArchitectureBlockImpl$rvdff2iee/BPortImpl$en_to_ArchitectureBlockImpl$rvdff2iee/GenerateStatementBlockImpl$null6/GPortImpl$en" class="sprotty-edge edge" style="fill:none;stroke:rgb(112, 112, 112);stroke-linejoin:round;"><g><path d="M 0 81 L 105.875 81 "/><path d="M 0 81 L 105.875 81 " class="clickable"/></g></g><g id="sprotty_ArchitectureBlockImpl$rvdff2iee/GenerateStatementBlockImpl$null6" class="generate" transform="translate(105.875, 35)"><g class="sprotty-block sprotty-block-generate" style="fill:rgb(255, 255, 255);stroke:rgb(48, 48, 48);stroke-dasharray:0px;"><rect x="0" y="0" rx="1" ry="1" width="291.1875" height="399" style="stroke-dasharray:3px, 1px;"/><text x="145.59375" y="12" class="sprotty-block-name" style="cursor:pointer;font-weight:700;fill:rgb(48, 48, 48);stroke:rgba(0, 0, 0, 0);dominant-baseline:middle;text-anchor:middle;"/></g><g id="sprotty_ArchitectureBlockImpl$rvdff2iee/GenerateStatementBlockImpl$null6/InstantiationBlockImpl$dff_left/BPortImpl$dout_to_ArchitectureBlockImpl$rvdff2iee/GenerateStatementBlockImpl$null6/GPortImpl$dout" class="sprotty-edge thick edge" style="fill:none;stroke:rgb(112, 112, 112);stroke-linejoin:round;stroke-width:3px;"><g><path d="M 256.1875 310 L 264.1875 310 C 265.1875 310 266.1875 309 266.1875 308 L 266.1875 124 C 266.1875 123 267.1875 122 268.1875 122 L 291.1875 122 "/><path d="M 256.1875 310 L 264.1875 310 C 265.1875 310 266.1875 309 266.1875 308 L 266.1875 124 C 266.1875 123 267.1875 122 268.1875 122 L 291.1875 122 " class="clickable"/></g></g><g id="sprotty_ArchitectureBlockImpl$rvdff2iee/GenerateStatementBlockImpl$null6/InstantiationBlockImpl$dff_right/BPortImpl$dout_to_ArchitectureBlockImpl$rvdff2iee/GenerateStatementBlockImpl$null6/GPortImpl$dout" class="sprotty-edge thick edge" style="fill:none;stroke:rgb(112, 112, 112);stroke-linejoin:round;stroke-width:3px;"><g><path d="M 256.1875 122 L 291.1875 122 "/><path d="M 256.1875 122 L 291.1875 122 " class="clickable"/></g></g><g id="sprotty_ArchitectureBlockImpl$rvdff2iee/GenerateStatementBlockImpl$null6/GPortImpl$din_to_ArchitectureBlockImpl$rvdff2iee/GenerateStatementBlockImpl$null6/InstantiationBlockImpl$dff_left/BPortImpl$din" class="sprotty-edge thick edge" style="fill:none;stroke:rgb(112, 112, 112);stroke-linejoin:round;stroke-width:3px;"><g><path d="M 0 77 L 92.4375 77 C 93.4375 77 94.4375 78 94.4375 79 L 94.4375 252 C 94.4375 253 95.4375 254 96.4375 254 L 114.4375 254 "/><path d="M 0 77 L 92.4375 77 C 93.4375 77 94.4375 78 94.4375 79 L 94.4375 252 C 94.4375 253 95.4375 254 96.4375 254 L 114.4375 254 " class="clickable"/></g></g><g id="sprotty_ArchitectureBlockImpl$rvdff2iee/GenerateStatementBlockImpl$null6/GPortImpl$clk_to_ArchitectureBlockImpl$rvdff2iee/GenerateStatementBlockImpl$null6/InstantiationBlockImpl$dff_left/BPortImpl$clk" class="sprotty-edge edge" style="fill:none;stroke:rgb(112, 112, 112);stroke-linejoin:round;"><g><path d="M 0 122 L 82.4375 122 C 83.4375 122 84.4375 123 84.4375 124 L 84.4375 308 C 84.4375 309 85.4375 310 86.4375 310 L 114.4375 310 "/><path d="M 0 122 L 82.4375 122 C 83.4375 122 84.4375 123 84.4375 124 L 84.4375 308 C 84.4375 309 85.4375 310 86.4375 310 L 114.4375 310 " class="clickable"/></g><circle r="2" id="sprotty_ArchitectureBlockImpl$rvdff2iee/GenerateStatementBlockImpl$null6/GPortImpl$clk_to_ArchitectureBlockImpl$rvdff2iee/GenerateStatementBlockImpl$null6/InstantiationBlockImpl$dff_left/BPortImpl$clk/junction0" transform="translate(84.4375, 122)" class="sprotty-junction junction" style="fill:rgb(112, 112, 112);stroke:none;"/></g><g id="sprotty_ArchitectureBlockImpl$rvdff2iee/GenerateStatementBlockImpl$null6/GPortImpl$rst_l_to_ArchitectureBlockImpl$rvdff2iee/GenerateStatementBlockImpl$null6/InstantiationBlockImpl$dff_left/BPortImpl$rst_l" class="sprotty-edge edge" style="fill:none;stroke:rgb(112, 112, 112);stroke-linejoin:round;"><g><path d="M 0 150 L 72.4375 150 C 73.4375 150 74.4375 151 74.4375 152 L 74.4375 336 C 74.4375 337 75.4375 338 76.4375 338 L 114.4375 338 "/><path d="M 0 150 L 72.4375 150 C 73.4375 150 74.4375 151 74.4375 152 L 74.4375 336 C 74.4375 337 75.4375 338 76.4375 338 L 114.4375 338 " class="clickable"/></g><circle r="2" id="sprotty_ArchitectureBlockImpl$rvdff2iee/GenerateStatementBlockImpl$null6/GPortImpl$rst_l_to_ArchitectureBlockImpl$rvdff2iee/GenerateStatementBlockImpl$null6/InstantiationBlockImpl$dff_left/BPortImpl$rst_l/junction0" transform="translate(74.4375, 150)" class="sprotty-junction junction" style="fill:rgb(112, 112, 112);stroke:none;"/></g><g id="sprotty_ArchitectureBlockImpl$rvdff2iee/GenerateStatementBlockImpl$null6/GPortImpl$scan_mode_to_ArchitectureBlockImpl$rvdff2iee/GenerateStatementBlockImpl$null6/InstantiationBlockImpl$dff_left/BPortImpl$scan_mode" class="sprotty-edge edge" style="fill:none;stroke:rgb(112, 112, 112);stroke-linejoin:round;"><g><path d="M 0 178 L 62.4375 178 C 63.4375 178 64.4375 179 64.4375 180 L 64.4375 364 C 64.4375 365 65.4375 366 66.4375 366 L 114.4375 366 "/><path d="M 0 178 L 62.4375 178 C 63.4375 178 64.4375 179 64.4375 180 L 64.4375 364 C 64.4375 365 65.4375 366 66.4375 366 L 114.4375 366 " class="clickable"/></g><circle r="2" id="sprotty_ArchitectureBlockImpl$rvdff2iee/GenerateStatementBlockImpl$null6/GPortImpl$scan_mode_to_ArchitectureBlockImpl$rvdff2iee/GenerateStatementBlockImpl$null6/InstantiationBlockImpl$dff_left/BPortImpl$scan_mode/junction0" transform="translate(64.4375, 178)" class="sprotty-junction junction" style="fill:rgb(112, 112, 112);stroke:none;"/></g><g id="sprotty_ArchitectureBlockImpl$rvdff2iee/GenerateStatementBlockImpl$null6/GPortImpl$din_to_ArchitectureBlockImpl$rvdff2iee/GenerateStatementBlockImpl$null6/InstantiationBlockImpl$dff_right/BPortImpl$din" class="sprotty-edge thick edge" style="fill:none;stroke:rgb(112, 112, 112);stroke-linejoin:round;stroke-width:3px;"><g><path d="M 0 77 L 92.4375 77 C 93.4375 77 94.4375 76 94.4375 75 L 94.4375 68 C 94.4375 67 95.4375 66 96.4375 66 L 114.4375 66 "/><path d="M 0 77 L 92.4375 77 C 93.4375 77 94.4375 76 94.4375 75 L 94.4375 68 C 94.4375 67 95.4375 66 96.4375 66 L 114.4375 66 " class="clickable"/></g><circle r="3" id="sprotty_ArchitectureBlockImpl$rvdff2iee/GenerateStatementBlockImpl$null6/GPortImpl$din_to_ArchitectureBlockImpl$rvdff2iee/GenerateStatementBlockImpl$null6/InstantiationBlockImpl$dff_right/BPortImpl$din/junction0" transform="translate(94.4375, 77)" class="sprotty-junction thick" style="fill:rgb(112, 112, 112);stroke:none;"/></g><g id="sprotty_ArchitectureBlockImpl$rvdff2iee/GenerateStatementBlockImpl$null6/GPortImpl$clk_to_ArchitectureBlockImpl$rvdff2iee/GenerateStatementBlockImpl$null6/InstantiationBlockImpl$dff_right/BPortImpl$clk" class="sprotty-edge edge" style="fill:none;stroke:rgb(112, 112, 112);stroke-linejoin:round;"><g><path d="M 0 122 L 114.4375 122 "/><path d="M 0 122 L 114.4375 122 " class="clickable"/></g></g><g id="sprotty_ArchitectureBlockImpl$rvdff2iee/GenerateStatementBlockImpl$null6/GPortImpl$rst_l_to_ArchitectureBlockImpl$rvdff2iee/GenerateStatementBlockImpl$null6/InstantiationBlockImpl$dff_right/BPortImpl$rst_l" class="sprotty-edge edge" style="fill:none;stroke:rgb(112, 112, 112);stroke-linejoin:round;"><g><path d="M 0 150 L 114.4375 150 "/><path d="M 0 150 L 114.4375 150 " class="clickable"/></g></g><g id="sprotty_ArchitectureBlockImpl$rvdff2iee/GenerateStatementBlockImpl$null6/GPortImpl$scan_mode_to_ArchitectureBlockImpl$rvdff2iee/GenerateStatementBlockImpl$null6/InstantiationBlockImpl$dff_right/BPortImpl$scan_mode" class="sprotty-edge edge" style="fill:none;stroke:rgb(112, 112, 112);stroke-linejoin:round;"><g><path d="M 0 178 L 114.4375 178 "/><path d="M 0 178 L 114.4375 178 " class="clickable"/></g></g><g id="sprotty_ArchitectureBlockImpl$rvdff2iee/GenerateStatementBlockImpl$null6/GPortImpl$din_to_ArchitectureBlockImpl$rvdff2iee/GenerateStatementBlockImpl$null6/AssignmentBlockImpl$final_en/GPortImpl$dinIN" class="sprotty-edge thick edge" style="fill:none;stroke:rgb(112, 112, 112);stroke-linejoin:round;stroke-width:3px;"><g><path d="M 0 77 L 23 77 C 24 77 25 76 25 75 L 25 58 C 25 57 26 56 27 56 L 35 56 "/><path d="M 0 77 L 23 77 C 24 77 25 76 25 75 L 25 58 C 25 57 26 56 27 56 L 35 56 " class="clickable"/></g><circle r="3" id="sprotty_ArchitectureBlockImpl$rvdff2iee/GenerateStatementBlockImpl$null6/GPortImpl$din_to_ArchitectureBlockImpl$rvdff2iee/GenerateStatementBlockImpl$null6/AssignmentBlockImpl$final_en/GPortImpl$dinIN/junction0" transform="translate(25, 77)" class="sprotty-junction thick" style="fill:rgb(112, 112, 112);stroke:none;"/></g><g id="sprotty_ArchitectureBlockImpl$rvdff2iee/GenerateStatementBlockImpl$null6/GPortImpl$dout_to_ArchitectureBlockImpl$rvdff2iee/GenerateStatementBlockImpl$null6/AssignmentBlockImpl$final_en/GPortImpl$doutIN" class="sprotty-edge thick edge" style="fill:none;stroke:rgb(112, 112, 112);stroke-linejoin:round;stroke-width:3px;"><g><path d="M 291.1875 122 L 268.1875 122 C 267.1875 122 266.1875 121 266.1875 120 L 266.1875 18 C 266.1875 17 265.1875 16 264.1875 16 L 27 16 C 26 16 25 17 25 18 L 25 34 C 25 35 26 36 27 36 L 35 36 "/><path d="M 291.1875 122 L 268.1875 122 C 267.1875 122 266.1875 121 266.1875 120 L 266.1875 18 C 266.1875 17 265.1875 16 264.1875 16 L 27 16 C 26 16 25 17 25 18 L 25 34 C 25 35 26 36 27 36 L 35 36 " class="clickable"/></g><circle r="3" id="sprotty_ArchitectureBlockImpl$rvdff2iee/GenerateStatementBlockImpl$null6/GPortImpl$dout_to_ArchitectureBlockImpl$rvdff2iee/GenerateStatementBlockImpl$null6/AssignmentBlockImpl$final_en/GPortImpl$doutIN/junction0" transform="translate(266.1875, 122)" class="sprotty-junction thick" style="fill:rgb(112, 112, 112);stroke:none;"/></g><g id="sprotty_ArchitectureBlockImpl$rvdff2iee/GenerateStatementBlockImpl$null6/GPortImpl$en_to_ArchitectureBlockImpl$rvdff2iee/GenerateStatementBlockImpl$null6/AssignmentBlockImpl$final_en/GPortImpl$enIN" class="sprotty-edge edge" style="fill:none;stroke:rgb(112, 112, 112);stroke-linejoin:round;"><g><path d="M 0 46 L 35 46 "/><path d="M 0 46 L 35 46 " class="clickable"/></g></g><g id="sprotty_ArchitectureBlockImpl$rvdff2iee/GenerateStatementBlockImpl$null6/AssignmentBlockImpl$final_en/GPortImpl$final_enOUT_to_ArchitectureBlockImpl$rvdff2iee/GenerateStatementBlockImpl$null6/InstantiationBlockImpl$dff_right/BPortImpl$en" class="sprotty-edge edge" style="fill:none;stroke:rgb(112, 112, 112);stroke-linejoin:round;"><g><path d="M 54.4375 46 L 102.4375 46 C 103.4375 46 104.4375 47 104.4375 48 L 104.4375 92 C 104.4375 93 105.4375 94 106.4375 94 L 114.4375 94 "/><path d="M 54.4375 46 L 102.4375 46 C 103.4375 46 104.4375 47 104.4375 48 L 104.4375 92 C 104.4375 93 105.4375 94 106.4375 94 L 114.4375 94 " class="clickable"/></g><circle r="2" id="sprotty_ArchitectureBlockImpl$rvdff2iee/GenerateStatementBlockImpl$null6/AssignmentBlockImpl$final_en/GPortImpl$final_enOUT_to_ArchitectureBlockImpl$rvdff2iee/GenerateStatementBlockImpl$null6/InstantiationBlockImpl$dff_right/BPortImpl$en/junction0" transform="translate(104.4375, 94)" class="sprotty-junction junction" style="fill:rgb(112, 112, 112);stroke:none;"/></g><g id="sprotty_ArchitectureBlockImpl$rvdff2iee/GenerateStatementBlockImpl$null6/AssignmentBlockImpl$final_en/GPortImpl$final_enOUT_to_ArchitectureBlockImpl$rvdff2iee/GenerateStatementBlockImpl$null6/InstantiationBlockImpl$dff_left/BPortImpl$en" class="sprotty-edge edge" style="fill:none;stroke:rgb(112, 112, 112);stroke-linejoin:round;"><g><path d="M 54.4375 46 L 102.4375 46 C 103.4375 46 104.4375 47 104.4375 48 L 104.4375 280 C 104.4375 281 105.4375 282 106.4375 282 L 114.4375 282 "/><path d="M 54.4375 46 L 102.4375 46 C 103.4375 46 104.4375 47 104.4375 48 L 104.4375 280 C 104.4375 281 105.4375 282 106.4375 282 L 114.4375 282 " class="clickable"/></g></g><g id="sprotty_ArchitectureBlockImpl$rvdff2iee/GenerateStatementBlockImpl$null6/AssignmentBlockImpl$final_en" class="statement" transform="translate(35, 26)"><rect x="0" y="0" rx="10" ry="5" width="19.4375" height="40" class="sprotty-node" style="fill:rgb(245, 245, 245);stroke:rgb(112, 112, 112);"/><text class="clickable sprotty-label statementtype" id="sprotty_ArchitectureBlockImpl$rvdff2iee/GenerateStatementBlockImpl$null6/AssignmentBlockImpl$final_en/labeltype" transform="translate(5, 14) translate(4.71875, 9.5)" style="cursor:default;font-size:8px;font-weight:700;perspective-origin:0px 0px;fill:rgb(112, 112, 112);text-anchor:middle;">&lt;=</text><g id="sprotty_ArchitectureBlockImpl$rvdff2iee/GenerateStatementBlockImpl$null6/AssignmentBlockImpl$final_en/GPortImpl$enIN" class="sprotty-hidden hidden" transform="translate(0, 20)" style="display:block;height:0px;width:0px;"/><g id="sprotty_ArchitectureBlockImpl$rvdff2iee/GenerateStatementBlockImpl$null6/AssignmentBlockImpl$final_en/GPortImpl$doutIN" class="sprotty-hidden hidden" transform="translate(0, 10)" style="display:block;height:0px;width:0px;"/><g id="sprotty_ArchitectureBlockImpl$rvdff2iee/GenerateStatementBlockImpl$null6/AssignmentBlockImpl$final_en/GPortImpl$dinIN" class="sprotty-hidden hidden" transform="translate(0, 30)" style="display:block;height:0px;width:0px;"/><g id="sprotty_ArchitectureBlockImpl$rvdff2iee/GenerateStatementBlockImpl$null6/AssignmentBlockImpl$final_en/GPortImpl$final_enOUT" class="sprotty-hidden hidden" transform="translate(19.4375, 20)" style="display:block;height:0px;width:0px;"/></g><g id="sprotty_ArchitectureBlockImpl$rvdff2iee/GenerateStatementBlockImpl$null6/InstantiationBlockImpl$dff_right" class="instantiation" transform="translate(114.4375, 28)"><g class="sprotty-block" style="fill:rgb(255, 255, 255);stroke:rgb(48, 48, 48);stroke-dasharray:0px;"><rect x="0" y="0" rx="1" ry="1" width="141.75" height="168"/><text x="70.875" y="12" class="sprotty-block-name" style="cursor:pointer;font-weight:700;perspective-origin:70.875px 0px;fill:rgb(48, 48, 48);stroke:rgba(0, 0, 0, 0);dominant-baseline:middle;text-anchor:middle;">dff_right : rvdffe</text><line x1="0" y1="20" x2="141.75" y2="20"/></g><g id="sprotty_ArchitectureBlockImpl$rvdff2iee/GenerateStatementBlockImpl$null6/InstantiationBlockImpl$dff_right/BPortImpl$scan_mode" class="triangle" transform="translate(0, 150)"><path d="M 0,0 L 5,2.5 L 0,5 Z" transform="translate(-1.67, -2.5)" class="sprotty-port" style="fill:rgb(48, 48, 48);stroke:rgb(48, 48, 48);"/><text class="clickable sprotty-label port" id="sprotty_ArchitectureBlockImpl$rvdff2iee/GenerateStatementBlockImpl$null6/InstantiationBlockImpl$dff_right/BPortImpl$scan_mode/label" transform="translate(6, -9) translate(32.4375, 14)" style="cursor:default;font-size:12px;perspective-origin:0px 0px;fill:rgb(48, 48, 48);text-anchor:middle;">scan_mode</text></g><g id="sprotty_ArchitectureBlockImpl$rvdff2iee/GenerateStatementBlockImpl$null6/InstantiationBlockImpl$dff_right/BPortImpl$rst_l" class="triangle" transform="translate(0, 122)"><path d="M 0,0 L 5,2.5 L 0,5 Z" transform="translate(-1.67, -2.5)" class="sprotty-port" style="fill:rgb(48, 48, 48);stroke:rgb(48, 48, 48);"/><text class="clickable sprotty-label port" id="sprotty_ArchitectureBlockImpl$rvdff2iee/GenerateStatementBlockImpl$null6/InstantiationBlockImpl$dff_right/BPortImpl$rst_l/label" transform="translate(6, -9) translate(12.3125, 14)" style="cursor:default;font-size:12px;perspective-origin:0px 0px;fill:rgb(48, 48, 48);text-anchor:middle;">rst_l</text></g><g id="sprotty_ArchitectureBlockImpl$rvdff2iee/GenerateStatementBlockImpl$null6/InstantiationBlockImpl$dff_right/BPortImpl$clk" class="triangle" transform="translate(0, 94)"><path d="M 0,0 L 5,2.5 L 0,5 Z" transform="translate(-1.67, -2.5)" class="sprotty-port" style="fill:rgb(48, 48, 48);stroke:rgb(48, 48, 48);"/><text class="clickable sprotty-label port" id="sprotty_ArchitectureBlockImpl$rvdff2iee/GenerateStatementBlockImpl$null6/InstantiationBlockImpl$dff_right/BPortImpl$clk/label" transform="translate(6, -9) translate(8.078125, 14)" style="cursor:default;font-size:12px;perspective-origin:0px 0px;fill:rgb(48, 48, 48);text-anchor:middle;">clk</text></g><g id="sprotty_ArchitectureBlockImpl$rvdff2iee/GenerateStatementBlockImpl$null6/InstantiationBlockImpl$dff_right/BPortImpl$en" class="triangle" transform="translate(0, 66)"><path d="M 0,0 L 5,2.5 L 0,5 Z" transform="translate(-1.67, -2.5)" class="sprotty-port" style="fill:rgb(48, 48, 48);stroke:rgb(48, 48, 48);"/><text class="clickable sprotty-label port" id="sprotty_ArchitectureBlockImpl$rvdff2iee/GenerateStatementBlockImpl$null6/InstantiationBlockImpl$dff_right/BPortImpl$en/label" transform="translate(6, -9) translate(7, 14)" style="cursor:default;font-size:12px;perspective-origin:0px 0px;fill:rgb(48, 48, 48);text-anchor:middle;">en</text></g><g id="sprotty_ArchitectureBlockImpl$rvdff2iee/GenerateStatementBlockImpl$null6/InstantiationBlockImpl$dff_right/BPortImpl$din" class="triangle" transform="translate(0, 38)"><path d="M 0,0 L 5,2.5 L 0,5 Z" transform="translate(-1.67, -2.5)" class="sprotty-port" style="fill:rgb(48, 48, 48);stroke:rgb(48, 48, 48);"/><text class="clickable sprotty-label port" id="sprotty_ArchitectureBlockImpl$rvdff2iee/GenerateStatementBlockImpl$null6/InstantiationBlockImpl$dff_right/BPortImpl$din/label" transform="translate(6, -9) translate(9.046875, 14)" style="cursor:default;font-size:12px;perspective-origin:0px 0px;fill:rgb(48, 48, 48);text-anchor:middle;">din</text></g><g id="sprotty_ArchitectureBlockImpl$rvdff2iee/GenerateStatementBlockImpl$null6/InstantiationBlockImpl$dff_right/BPortImpl$dout" class="triangle" transform="translate(141.75, 94)"><path d="M 0,0 L 5,2.5 L 0,5 Z" transform="translate(-1.67, -2.5)" class="sprotty-port" style="fill:rgb(48, 48, 48);stroke:rgb(48, 48, 48);"/><text class="clickable sprotty-label port" id="sprotty_ArchitectureBlockImpl$rvdff2iee/GenerateStatementBlockImpl$null6/InstantiationBlockImpl$dff_right/BPortImpl$dout/label" transform="translate(-32.53125, -9) translate(13.265625, 14)" style="cursor:default;font-size:12px;perspective-origin:0px 0px;fill:rgb(48, 48, 48);text-anchor:middle;">dout</text></g></g><g id="sprotty_ArchitectureBlockImpl$rvdff2iee/GenerateStatementBlockImpl$null6/InstantiationBlockImpl$dff_left" class="instantiation" transform="translate(114.4375, 216)"><g class="sprotty-block" style="fill:rgb(255, 255, 255);stroke:rgb(48, 48, 48);stroke-dasharray:0px;"><rect x="0" y="0" rx="1" ry="1" width="141.75" height="168"/><text x="70.875" y="12" class="sprotty-block-name" style="cursor:pointer;font-weight:700;perspective-origin:70.875px 0px;fill:rgb(48, 48, 48);stroke:rgba(0, 0, 0, 0);dominant-baseline:middle;text-anchor:middle;">dff_left : rvdffe</text><line x1="0" y1="20" x2="141.75" y2="20"/></g><g id="sprotty_ArchitectureBlockImpl$rvdff2iee/GenerateStatementBlockImpl$null6/InstantiationBlockImpl$dff_left/BPortImpl$scan_mode" class="triangle" transform="translate(0, 150)"><path d="M 0,0 L 5,2.5 L 0,5 Z" transform="translate(-1.67, -2.5)" class="sprotty-port" style="fill:rgb(48, 48, 48);stroke:rgb(48, 48, 48);"/><text class="clickable sprotty-label port" id="sprotty_ArchitectureBlockImpl$rvdff2iee/GenerateStatementBlockImpl$null6/InstantiationBlockImpl$dff_left/BPortImpl$scan_mode/label" transform="translate(6, -9) translate(32.4375, 14)" style="cursor:default;font-size:12px;perspective-origin:0px 0px;fill:rgb(48, 48, 48);text-anchor:middle;">scan_mode</text></g><g id="sprotty_ArchitectureBlockImpl$rvdff2iee/GenerateStatementBlockImpl$null6/InstantiationBlockImpl$dff_left/BPortImpl$rst_l" class="triangle" transform="translate(0, 122)"><path d="M 0,0 L 5,2.5 L 0,5 Z" transform="translate(-1.67, -2.5)" class="sprotty-port" style="fill:rgb(48, 48, 48);stroke:rgb(48, 48, 48);"/><text class="clickable sprotty-label port" id="sprotty_ArchitectureBlockImpl$rvdff2iee/GenerateStatementBlockImpl$null6/InstantiationBlockImpl$dff_left/BPortImpl$rst_l/label" transform="translate(6, -9) translate(12.3125, 14)" style="cursor:default;font-size:12px;perspective-origin:0px 0px;fill:rgb(48, 48, 48);text-anchor:middle;">rst_l</text></g><g id="sprotty_ArchitectureBlockImpl$rvdff2iee/GenerateStatementBlockImpl$null6/InstantiationBlockImpl$dff_left/BPortImpl$clk" class="triangle" transform="translate(0, 94)"><path d="M 0,0 L 5,2.5 L 0,5 Z" transform="translate(-1.67, -2.5)" class="sprotty-port" style="fill:rgb(48, 48, 48);stroke:rgb(48, 48, 48);"/><text class="clickable sprotty-label port" id="sprotty_ArchitectureBlockImpl$rvdff2iee/GenerateStatementBlockImpl$null6/InstantiationBlockImpl$dff_left/BPortImpl$clk/label" transform="translate(6, -9) translate(8.078125, 14)" style="cursor:default;font-size:12px;perspective-origin:0px 0px;fill:rgb(48, 48, 48);text-anchor:middle;">clk</text></g><g id="sprotty_ArchitectureBlockImpl$rvdff2iee/GenerateStatementBlockImpl$null6/InstantiationBlockImpl$dff_left/BPortImpl$en" class="triangle" transform="translate(0, 66)"><path d="M 0,0 L 5,2.5 L 0,5 Z" transform="translate(-1.67, -2.5)" class="sprotty-port" style="fill:rgb(48, 48, 48);stroke:rgb(48, 48, 48);"/><text class="clickable sprotty-label port" id="sprotty_ArchitectureBlockImpl$rvdff2iee/GenerateStatementBlockImpl$null6/InstantiationBlockImpl$dff_left/BPortImpl$en/label" transform="translate(6, -9) translate(7, 14)" style="cursor:default;font-size:12px;perspective-origin:0px 0px;fill:rgb(48, 48, 48);text-anchor:middle;">en</text></g><g id="sprotty_ArchitectureBlockImpl$rvdff2iee/GenerateStatementBlockImpl$null6/InstantiationBlockImpl$dff_left/BPortImpl$din" class="triangle" transform="translate(0, 38)"><path d="M 0,0 L 5,2.5 L 0,5 Z" transform="translate(-1.67, -2.5)" class="sprotty-port" style="fill:rgb(48, 48, 48);stroke:rgb(48, 48, 48);"/><text class="clickable sprotty-label port" id="sprotty_ArchitectureBlockImpl$rvdff2iee/GenerateStatementBlockImpl$null6/InstantiationBlockImpl$dff_left/BPortImpl$din/label" transform="translate(6, -9) translate(9.046875, 14)" style="cursor:default;font-size:12px;perspective-origin:0px 0px;fill:rgb(48, 48, 48);text-anchor:middle;">din</text></g><g id="sprotty_ArchitectureBlockImpl$rvdff2iee/GenerateStatementBlockImpl$null6/InstantiationBlockImpl$dff_left/BPortImpl$dout" class="triangle" transform="translate(141.75, 94)"><path d="M 0,0 L 5,2.5 L 0,5 Z" transform="translate(-1.67, -2.5)" class="sprotty-port" style="fill:rgb(48, 48, 48);stroke:rgb(48, 48, 48);"/><text class="clickable sprotty-label port" id="sprotty_ArchitectureBlockImpl$rvdff2iee/GenerateStatementBlockImpl$null6/InstantiationBlockImpl$dff_left/BPortImpl$dout/label" transform="translate(-32.53125, -9) translate(13.265625, 14)" style="cursor:default;font-size:12px;perspective-origin:0px 0px;fill:rgb(48, 48, 48);text-anchor:middle;">dout</text></g></g><g id="sprotty_ArchitectureBlockImpl$rvdff2iee/GenerateStatementBlockImpl$null6/GPortImpl$en" class="triangle" transform="translate(0, 46)"><path d="M 0,0 L 5,2.5 L 0,5 Z" transform="translate(-1.67, -2.5)" class="sprotty-port" style="fill:rgb(48, 48, 48);stroke:rgb(48, 48, 48);"/></g><g id="sprotty_ArchitectureBlockImpl$rvdff2iee/GenerateStatementBlockImpl$null6/GPortImpl$scan_mode" class="triangle" transform="translate(0, 178)"><path d="M 0,0 L 5,2.5 L 0,5 Z" transform="translate(-1.67, -2.5)" class="sprotty-port" style="fill:rgb(48, 48, 48);stroke:rgb(48, 48, 48);"/></g><g id="sprotty_ArchitectureBlockImpl$rvdff2iee/GenerateStatementBlockImpl$null6/GPortImpl$rst_l" class="triangle" transform="translate(0, 150)"><path d="M 0,0 L 5,2.5 L 0,5 Z" transform="translate(-1.67, -2.5)" class="sprotty-port" style="fill:rgb(48, 48, 48);stroke:rgb(48, 48, 48);"/></g><g id="sprotty_ArchitectureBlockImpl$rvdff2iee/GenerateStatementBlockImpl$null6/GPortImpl$clk" class="triangle" transform="translate(0, 122)"><path d="M 0,0 L 5,2.5 L 0,5 Z" transform="translate(-1.67, -2.5)" class="sprotty-port" style="fill:rgb(48, 48, 48);stroke:rgb(48, 48, 48);"/></g><g id="sprotty_ArchitectureBlockImpl$rvdff2iee/GenerateStatementBlockImpl$null6/GPortImpl$din" class="triangle" transform="translate(0, 77)"><path d="M 0,0 L 5,2.5 L 0,5 Z" transform="translate(-1.67, -2.5)" class="sprotty-port" style="fill:rgb(48, 48, 48);stroke:rgb(48, 48, 48);"/></g><g id="sprotty_ArchitectureBlockImpl$rvdff2iee/GenerateStatementBlockImpl$null6/GPortImpl$dout" class="triangle" transform="translate(291.1875, 122)"><path d="M 0,0 L 5,2.5 L 0,5 Z" transform="translate(-1.67, -2.5)" class="sprotty-port" style="fill:rgb(48, 48, 48);stroke:rgb(48, 48, 48);"/></g></g><g id="sprotty_ArchitectureBlockImpl$rvdff2iee/BPortImpl$en" class="triangle" transform="translate(0, 81)"><path d="M 0,0 L 5,2.5 L 0,5 Z" transform="translate(-1.67, -2.5)" class="sprotty-port" style="fill:rgb(48, 48, 48);stroke:rgb(48, 48, 48);"/><text class="clickable sprotty-label port" id="sprotty_ArchitectureBlockImpl$rvdff2iee/BPortImpl$en/label" transform="translate(6, 6) translate(7, 14)" style="cursor:default;font-size:12px;perspective-origin:0px 0px;fill:rgb(48, 48, 48);text-anchor:middle;">en</text></g><g id="sprotty_ArchitectureBlockImpl$rvdff2iee/BPortImpl$scan_mode" class="triangle" transform="translate(0, 225)"><path d="M 0,0 L 5,2.5 L 0,5 Z" transform="translate(-1.67, -2.5)" class="sprotty-port" style="fill:rgb(48, 48, 48);stroke:rgb(48, 48, 48);"/><text class="clickable sprotty-label port" id="sprotty_ArchitectureBlockImpl$rvdff2iee/BPortImpl$scan_mode/label" transform="translate(6, 6) translate(32.4375, 14)" style="cursor:default;font-size:12px;perspective-origin:0px 0px;fill:rgb(48, 48, 48);text-anchor:middle;">scan_mode</text></g><g id="sprotty_ArchitectureBlockImpl$rvdff2iee/BPortImpl$rst_l" class="triangle" transform="translate(0, 191)"><path d="M 0,0 L 5,2.5 L 0,5 Z" transform="translate(-1.67, -2.5)" class="sprotty-port" style="fill:rgb(48, 48, 48);stroke:rgb(48, 48, 48);"/><text class="clickable sprotty-label port" id="sprotty_ArchitectureBlockImpl$rvdff2iee/BPortImpl$rst_l/label" transform="translate(6, 6) translate(12.3125, 14)" style="cursor:default;font-size:12px;perspective-origin:0px 0px;fill:rgb(48, 48, 48);text-anchor:middle;">rst_l</text></g><g id="sprotty_ArchitectureBlockImpl$rvdff2iee/BPortImpl$clk" class="triangle" transform="translate(0, 157)"><path d="M 0,0 L 5,2.5 L 0,5 Z" transform="translate(-1.67, -2.5)" class="sprotty-port" style="fill:rgb(48, 48, 48);stroke:rgb(48, 48, 48);"/><text class="clickable sprotty-label port" id="sprotty_ArchitectureBlockImpl$rvdff2iee/BPortImpl$clk/label" transform="translate(6, 6) translate(8.078125, 14)" style="cursor:default;font-size:12px;perspective-origin:0px 0px;fill:rgb(48, 48, 48);text-anchor:middle;">clk</text></g><g id="sprotty_ArchitectureBlockImpl$rvdff2iee/BPortImpl$din" class="triangle" transform="translate(0, 115)"><path d="M 0,0 L 5,2.5 L 0,5 Z" transform="translate(-1.67, -2.5)" class="sprotty-port" style="fill:rgb(48, 48, 48);stroke:rgb(48, 48, 48);"/><text class="clickable sprotty-label port" id="sprotty_ArchitectureBlockImpl$rvdff2iee/BPortImpl$din/label" transform="translate(6, 6) translate(9.046875, 14)" style="cursor:default;font-size:12px;perspective-origin:0px 0px;fill:rgb(48, 48, 48);text-anchor:middle;">din</text></g><g id="sprotty_ArchitectureBlockImpl$rvdff2iee/BPortImpl$dout" class="triangle" transform="translate(444.59375, 157)"><path d="M 0,0 L 5,2.5 L 0,5 Z" transform="translate(-1.67, -2.5)" class="sprotty-port" style="fill:rgb(48, 48, 48);stroke:rgb(48, 48, 48);"/><text class="clickable sprotty-label port" id="sprotty_ArchitectureBlockImpl$rvdff2iee/BPortImpl$dout/label" transform="translate(-32.53125, 6) translate(13.265625, 14)" style="cursor:default;font-size:12px;perspective-origin:0px 0px;fill:rgb(48, 48, 48);text-anchor:middle;">dout</text></g></g></g></svg>