<svg xmlns="http://www.w3.org/2000/svg" id="sprotty_work.SimJTAG" class="sprotty-graph sprotty-block-diagram blockdiagram" style="font-family:&quot;Noto Sans&quot;, Helvetica, Arial, sans-serif;perspective-origin:0px 0px;transform-origin:0px 0px;" version="1.1" viewBox="7 7 312.6875 427" width="312.6875" height="427"><g transform="scale(1) translate(0,0)"><g id="sprotty_ArchitectureBlockImpl$SimJTAG" class="architecture" transform="translate(12, 12)"><g class="sprotty-block" style="fill:rgb(255, 255, 255);stroke:rgb(48, 48, 48);stroke-dasharray:0px;"><rect x="0" y="0" rx="1" ry="1" width="302.6875" height="417"/><text x="151.34375" y="12" class="sprotty-block-name" style="cursor:pointer;font-weight:700;perspective-origin:151.344px 0px;fill:rgb(48, 48, 48);stroke:rgba(0, 0, 0, 0);dominant-baseline:middle;text-anchor:middle;">SimJTAG</text><line x1="0" y1="20" x2="302.6875" y2="20"/></g><g id="sprotty_ArchitectureBlockImpl$SimJTAG/AssignmentBlockImpl$jtag_TCK/GPortImpl$jtag_TCKOUT_to_ArchitectureBlockImpl$SimJTAG/BPortImpl$jtag_TCK" class="sprotty-edge edge" style="fill:none;stroke:rgb(112, 112, 112);stroke-linejoin:round;"><g><path d="M 231.09375 131 L 302.6875 131 "/><path d="M 231.09375 131 L 302.6875 131 " class="clickable"/></g></g><g id="sprotty_ArchitectureBlockImpl$SimJTAG/AssignmentBlockImpl$jtag_TMS/GPortImpl$jtag_TMSOUT_to_ArchitectureBlockImpl$SimJTAG/BPortImpl$jtag_TMS" class="sprotty-edge edge" style="fill:none;stroke:rgb(112, 112, 112);stroke-linejoin:round;"><g><path d="M 155.375 213 L 302.6875 213 "/><path d="M 155.375 213 L 302.6875 213 " class="clickable"/></g></g><g id="sprotty_ArchitectureBlockImpl$SimJTAG/AssignmentBlockImpl$jtag_TDI/GPortImpl$jtag_TDIOUT_to_ArchitectureBlockImpl$SimJTAG/BPortImpl$jtag_TDI" class="sprotty-edge edge" style="fill:none;stroke:rgb(112, 112, 112);stroke-linejoin:round;"><g><path d="M 155.375 268 L 302.6875 268 "/><path d="M 155.375 268 L 302.6875 268 " class="clickable"/></g></g><g id="sprotty_ArchitectureBlockImpl$SimJTAG/AssignmentBlockImpl$jtag_TRSTn/GPortImpl$jtag_TRSTnOUT_to_ArchitectureBlockImpl$SimJTAG/BPortImpl$jtag_TRSTn" class="sprotty-edge edge" style="fill:none;stroke:rgb(112, 112, 112);stroke-linejoin:round;"><g><path d="M 155.375 323 L 302.6875 323 "/><path d="M 155.375 323 L 302.6875 323 " class="clickable"/></g></g><g id="sprotty_ArchitectureBlockImpl$SimJTAG/AssignmentBlockImpl$srstn/GPortImpl$srstnOUT_to_ArchitectureBlockImpl$SimJTAG/BPortImpl$srstn" class="sprotty-edge edge" style="fill:none;stroke:rgb(112, 112, 112);stroke-linejoin:round;"><g><path d="M 155.375 378 L 302.6875 378 "/><path d="M 155.375 378 L 302.6875 378 " class="clickable"/></g></g><g id="sprotty_ArchitectureBlockImpl$SimJTAG/AssignmentBlockImpl$exit/GPortImpl$exitOUT_to_ArchitectureBlockImpl$SimJTAG/BPortImpl$exit" class="sprotty-edge thick edge" style="fill:none;stroke:rgb(112, 112, 112);stroke-linejoin:round;stroke-width:3px;"><g><path d="M 231.09375 89 L 302.6875 89 "/><path d="M 231.09375 89 L 302.6875 89 " class="clickable"/></g></g><g id="sprotty_ArchitectureBlockImpl$SimJTAG/BPortImpl$clock_to_ArchitectureBlockImpl$SimJTAG/AlwaysBlockImpl$null12/GPortImpl$clockIN" class="sprotty-edge edge" style="fill:none;stroke:rgb(112, 112, 112);stroke-linejoin:round;"><g><path d="M 0 70 L 122.3125 70 C 123.3125 70 124.3125 71 124.3125 72 L 124.3125 92 C 124.3125 93 125.3125 94 126.3125 94 L 144.3125 94 "/><path d="M 0 70 L 122.3125 70 C 123.3125 70 124.3125 71 124.3125 72 L 124.3125 92 C 124.3125 93 125.3125 94 126.3125 94 L 144.3125 94 " class="clickable"/></g></g><g id="sprotty_ArchitectureBlockImpl$SimJTAG/BPortImpl$reset_to_ArchitectureBlockImpl$SimJTAG/AlwaysBlockImpl$null12/GPortImpl$resetIN" class="sprotty-edge edge" style="fill:none;stroke:rgb(112, 112, 112);stroke-linejoin:round;"><g><path d="M 0 138 L 122.3125 138 C 123.3125 138 124.3125 137 124.3125 136 L 124.3125 116 C 124.3125 115 125.3125 114 126.3125 114 L 144.3125 114 "/><path d="M 0 138 L 122.3125 138 C 123.3125 138 124.3125 137 124.3125 136 L 124.3125 116 C 124.3125 115 125.3125 114 126.3125 114 L 144.3125 114 " class="clickable"/></g></g><g id="sprotty_ArchitectureBlockImpl$SimJTAG/BPortImpl$init_done_to_ArchitectureBlockImpl$SimJTAG/AlwaysBlockImpl$null12/GPortImpl$init_doneIN" class="sprotty-edge edge" style="fill:none;stroke:rgb(112, 112, 112);stroke-linejoin:round;"><g><path d="M 0 104 L 144.3125 104 "/><path d="M 0 104 L 144.3125 104 " class="clickable"/></g></g><g id="sprotty_ArchitectureBlockImpl$SimJTAG/BPortImpl$enable_to_ArchitectureBlockImpl$SimJTAG/AlwaysBlockImpl$null12/GPortImpl$enableIN" class="sprotty-edge edge" style="fill:none;stroke:rgb(112, 112, 112);stroke-linejoin:round;"><g><path d="M 0 36 L 132.3125 36 C 133.3125 36 134.3125 37 134.3125 38 L 134.3125 82 C 134.3125 83 135.3125 84 136.3125 84 L 144.3125 84 "/><path d="M 0 36 L 132.3125 36 C 133.3125 36 134.3125 37 134.3125 38 L 134.3125 82 C 134.3125 83 135.3125 84 136.3125 84 L 144.3125 84 " class="clickable"/></g></g><g id="sprotty_ArchitectureBlockImpl$SimJTAG/AlwaysBlockImpl$null12/GPortImpl$tickCounterRegOUT_to_ArchitectureBlockImpl$SimJTAG/AssignmentBlockImpl$tickCounterNxt/GPortImpl$tickCounterRegIN" class="sprotty-edge thick edge" style="fill:none;stroke:rgb(112, 112, 112);stroke-linejoin:round;stroke-width:3px;"><g><path d="M 181.65625 119 L 189.65625 119 C 190.65625 119 191.65625 120 191.65625 121 L 191.65625 180 C 191.65625 181 190.65625 182 189.65625 182 L 86.875 182 C 85.875 182 84.875 181 84.875 180 L 84.875 163 C 84.875 162 85.875 161 86.875 161 L 94.875 161 "/><path d="M 181.65625 119 L 189.65625 119 C 190.65625 119 191.65625 120 191.65625 121 L 191.65625 180 C 191.65625 181 190.65625 182 189.65625 182 L 86.875 182 C 85.875 182 84.875 181 84.875 180 L 84.875 163 C 84.875 162 85.875 161 86.875 161 L 94.875 161 " class="clickable"/></g></g><g id="sprotty_ArchitectureBlockImpl$SimJTAG/AssignmentBlockImpl$tickCounterNxt/GPortImpl$tickCounterRegOUT_to_ArchitectureBlockImpl$SimJTAG/AlwaysBlockImpl$null12/GPortImpl$tickCounterNxtIN" class="sprotty-edge thick edge" style="fill:none;stroke:rgb(112, 112, 112);stroke-linejoin:round;stroke-width:3px;"><g><path d="M 114.3125 161 L 132.3125 161 C 133.3125 161 134.3125 160 134.3125 159 L 134.3125 126 C 134.3125 125 135.3125 124 136.3125 124 L 144.3125 124 "/><path d="M 114.3125 161 L 132.3125 161 C 133.3125 161 134.3125 160 134.3125 159 L 134.3125 126 C 134.3125 125 135.3125 124 136.3125 124 L 144.3125 124 " class="clickable"/></g></g><g id="sprotty_ArchitectureBlockImpl$SimJTAG/AlwaysBlockImpl$null12/GPortImpl$__jtag_TCKOUT_to_ArchitectureBlockImpl$SimJTAG/AssignmentBlockImpl$jtag_TCK/GPortImpl$__jtag_TCKIN" class="sprotty-edge edge" style="fill:none;stroke:rgb(112, 112, 112);stroke-linejoin:round;"><g><path d="M 181.65625 104 L 199.65625 104 C 200.65625 104 201.65625 105 201.65625 106 L 201.65625 129 C 201.65625 130 202.65625 131 203.65625 131 L 211.65625 131 "/><path d="M 181.65625 104 L 199.65625 104 C 200.65625 104 201.65625 105 201.65625 106 L 201.65625 129 C 201.65625 130 202.65625 131 203.65625 131 L 211.65625 131 " class="clickable"/></g></g><g id="sprotty_ArchitectureBlockImpl$SimJTAG/AlwaysBlockImpl$null12/GPortImpl$__exitOUT_to_ArchitectureBlockImpl$SimJTAG/AssignmentBlockImpl$exit/GPortImpl$__exitIN" class="sprotty-edge thick edge" style="fill:none;stroke:rgb(112, 112, 112);stroke-linejoin:round;stroke-width:3px;"><g><path d="M 181.65625 89 L 211.65625 89 "/><path d="M 181.65625 89 L 211.65625 89 " class="clickable"/></g></g><g id="sprotty_ArchitectureBlockImpl$SimJTAG/AlwaysBlockImpl$null12" class="statement" transform="translate(144.3125, 74)"><rect x="0" y="0" rx="10" ry="5" width="37.34375" height="60" class="sprotty-node" style="fill:rgb(245, 245, 245);stroke:rgb(112, 112, 112);"/><text class="clickable sprotty-label statementtype" id="sprotty_ArchitectureBlockImpl$SimJTAG/AlwaysBlockImpl$null12/labeltype" transform="translate(5, 24) translate(13.671875, 9)" style="cursor:default;font-size:8px;font-weight:700;perspective-origin:0px 0px;fill:rgb(112, 112, 112);text-anchor:middle;">always</text><g id="sprotty_ArchitectureBlockImpl$SimJTAG/AlwaysBlockImpl$null12/GPortImpl$tickCounterNxtIN" class="sprotty-hidden hidden" transform="translate(0, 50)" style="display:block;height:0px;width:0px;"/><g id="sprotty_ArchitectureBlockImpl$SimJTAG/AlwaysBlockImpl$null12/GPortImpl$enableIN" class="sprotty-hidden hidden" transform="translate(0, 10)" style="display:block;height:0px;width:0px;"/><g id="sprotty_ArchitectureBlockImpl$SimJTAG/AlwaysBlockImpl$null12/GPortImpl$init_doneIN" class="sprotty-hidden hidden" transform="translate(0, 30)" style="display:block;height:0px;width:0px;"/><g id="sprotty_ArchitectureBlockImpl$SimJTAG/AlwaysBlockImpl$null12/GPortImpl$resetIN" class="sprotty-hidden hidden" transform="translate(0, 40)" style="display:block;height:0px;width:0px;"/><g id="sprotty_ArchitectureBlockImpl$SimJTAG/AlwaysBlockImpl$null12/GPortImpl$clockIN" class="sprotty-hidden hidden" transform="translate(0, 20)" style="display:block;height:0px;width:0px;"/><g id="sprotty_ArchitectureBlockImpl$SimJTAG/AlwaysBlockImpl$null12/GPortImpl$__exitOUT" class="sprotty-hidden hidden" transform="translate(37.34375, 15)" style="display:block;height:0px;width:0px;"/><g id="sprotty_ArchitectureBlockImpl$SimJTAG/AlwaysBlockImpl$null12/GPortImpl$tickCounterRegOUT" class="sprotty-hidden hidden" transform="translate(37.34375, 45)" style="display:block;height:0px;width:0px;"/><g id="sprotty_ArchitectureBlockImpl$SimJTAG/AlwaysBlockImpl$null12/GPortImpl$__jtag_TCKOUT" class="sprotty-hidden hidden" transform="translate(37.34375, 30)" style="display:block;height:0px;width:0px;"/></g><g id="sprotty_ArchitectureBlockImpl$SimJTAG/AssignmentBlockImpl$exit" class="statement" transform="translate(211.65625, 78)"><rect x="0" y="0" rx="10" ry="5" width="19.4375" height="22" class="sprotty-node" style="fill:rgb(245, 245, 245);stroke:rgb(112, 112, 112);"/><text class="clickable sprotty-label statementtype" id="sprotty_ArchitectureBlockImpl$SimJTAG/AssignmentBlockImpl$exit/labeltype" transform="translate(5, 5) translate(4.71875, 9)" style="cursor:default;font-size:8px;font-weight:700;perspective-origin:0px 0px;fill:rgb(112, 112, 112);text-anchor:middle;">&lt;=</text><g id="sprotty_ArchitectureBlockImpl$SimJTAG/AssignmentBlockImpl$exit/GPortImpl$__exitIN" class="sprotty-hidden hidden" transform="translate(0, 11)" style="display:block;height:0px;width:0px;"/><g id="sprotty_ArchitectureBlockImpl$SimJTAG/AssignmentBlockImpl$exit/GPortImpl$exitOUT" class="sprotty-hidden hidden" transform="translate(19.4375, 11)" style="display:block;height:0px;width:0px;"/></g><g id="sprotty_ArchitectureBlockImpl$SimJTAG/AssignmentBlockImpl$srstn" class="statement" transform="translate(135.9375, 367)"><rect x="0" y="0" rx="10" ry="5" width="19.4375" height="22" class="sprotty-node" style="fill:rgb(245, 245, 245);stroke:rgb(112, 112, 112);"/><text class="clickable sprotty-label statementtype" id="sprotty_ArchitectureBlockImpl$SimJTAG/AssignmentBlockImpl$srstn/labeltype" transform="translate(5, 5) translate(4.71875, 9)" style="cursor:default;font-size:8px;font-weight:700;perspective-origin:0px 0px;fill:rgb(112, 112, 112);text-anchor:middle;">&lt;=</text><g id="sprotty_ArchitectureBlockImpl$SimJTAG/AssignmentBlockImpl$srstn/GPortImpl$srstnOUT" class="sprotty-hidden hidden" transform="translate(19.4375, 11)" style="display:block;height:0px;width:0px;"/></g><g id="sprotty_ArchitectureBlockImpl$SimJTAG/AssignmentBlockImpl$jtag_TRSTn" class="statement" transform="translate(135.9375, 312)"><rect x="0" y="0" rx="10" ry="5" width="19.4375" height="22" class="sprotty-node" style="fill:rgb(245, 245, 245);stroke:rgb(112, 112, 112);"/><text class="clickable sprotty-label statementtype" id="sprotty_ArchitectureBlockImpl$SimJTAG/AssignmentBlockImpl$jtag_TRSTn/labeltype" transform="translate(5, 5) translate(4.71875, 9)" style="cursor:default;font-size:8px;font-weight:700;perspective-origin:0px 0px;fill:rgb(112, 112, 112);text-anchor:middle;">&lt;=</text><g id="sprotty_ArchitectureBlockImpl$SimJTAG/AssignmentBlockImpl$jtag_TRSTn/GPortImpl$jtag_TRSTnOUT" class="sprotty-hidden hidden" transform="translate(19.4375, 11)" style="display:block;height:0px;width:0px;"/></g><g id="sprotty_ArchitectureBlockImpl$SimJTAG/AssignmentBlockImpl$jtag_TDI" class="statement" transform="translate(135.9375, 257)"><rect x="0" y="0" rx="10" ry="5" width="19.4375" height="22" class="sprotty-node" style="fill:rgb(245, 245, 245);stroke:rgb(112, 112, 112);"/><text class="clickable sprotty-label statementtype" id="sprotty_ArchitectureBlockImpl$SimJTAG/AssignmentBlockImpl$jtag_TDI/labeltype" transform="translate(5, 5) translate(4.71875, 9)" style="cursor:default;font-size:8px;font-weight:700;perspective-origin:0px 0px;fill:rgb(112, 112, 112);text-anchor:middle;">&lt;=</text><g id="sprotty_ArchitectureBlockImpl$SimJTAG/AssignmentBlockImpl$jtag_TDI/GPortImpl$jtag_TDIOUT" class="sprotty-hidden hidden" transform="translate(19.4375, 11)" style="display:block;height:0px;width:0px;"/></g><g id="sprotty_ArchitectureBlockImpl$SimJTAG/AssignmentBlockImpl$jtag_TMS" class="statement" transform="translate(135.9375, 202)"><rect x="0" y="0" rx="10" ry="5" width="19.4375" height="22" class="sprotty-node" style="fill:rgb(245, 245, 245);stroke:rgb(112, 112, 112);"/><text class="clickable sprotty-label statementtype" id="sprotty_ArchitectureBlockImpl$SimJTAG/AssignmentBlockImpl$jtag_TMS/labeltype" transform="translate(5, 5) translate(4.71875, 9)" style="cursor:default;font-size:8px;font-weight:700;perspective-origin:0px 0px;fill:rgb(112, 112, 112);text-anchor:middle;">&lt;=</text><g id="sprotty_ArchitectureBlockImpl$SimJTAG/AssignmentBlockImpl$jtag_TMS/GPortImpl$jtag_TMSOUT" class="sprotty-hidden hidden" transform="translate(19.4375, 11)" style="display:block;height:0px;width:0px;"/></g><g id="sprotty_ArchitectureBlockImpl$SimJTAG/AssignmentBlockImpl$jtag_TCK" class="statement" transform="translate(211.65625, 120)"><rect x="0" y="0" rx="10" ry="5" width="19.4375" height="22" class="sprotty-node" style="fill:rgb(245, 245, 245);stroke:rgb(112, 112, 112);"/><text class="clickable sprotty-label statementtype" id="sprotty_ArchitectureBlockImpl$SimJTAG/AssignmentBlockImpl$jtag_TCK/labeltype" transform="translate(5, 5) translate(4.71875, 9)" style="cursor:default;font-size:8px;font-weight:700;perspective-origin:0px 0px;fill:rgb(112, 112, 112);text-anchor:middle;">&lt;=</text><g id="sprotty_ArchitectureBlockImpl$SimJTAG/AssignmentBlockImpl$jtag_TCK/GPortImpl$__jtag_TCKIN" class="sprotty-hidden hidden" transform="translate(0, 11)" style="display:block;height:0px;width:0px;"/><g id="sprotty_ArchitectureBlockImpl$SimJTAG/AssignmentBlockImpl$jtag_TCK/GPortImpl$jtag_TCKOUT" class="sprotty-hidden hidden" transform="translate(19.4375, 11)" style="display:block;height:0px;width:0px;"/></g><g id="sprotty_ArchitectureBlockImpl$SimJTAG/AssignmentBlockImpl$tickCounterNxt" class="statement" transform="translate(94.875, 150)"><rect x="0" y="0" rx="10" ry="5" width="19.4375" height="22" class="sprotty-node" style="fill:rgb(245, 245, 245);stroke:rgb(112, 112, 112);"/><text class="clickable sprotty-label statementtype" id="sprotty_ArchitectureBlockImpl$SimJTAG/AssignmentBlockImpl$tickCounterNxt/labeltype" transform="translate(5, 5) translate(4.71875, 9)" style="cursor:default;font-size:8px;font-weight:700;perspective-origin:0px 0px;fill:rgb(112, 112, 112);text-anchor:middle;">&lt;=</text><g id="sprotty_ArchitectureBlockImpl$SimJTAG/AssignmentBlockImpl$tickCounterNxt/GPortImpl$tickCounterRegIN" class="sprotty-hidden hidden" transform="translate(0, 11)" style="display:block;height:0px;width:0px;"/><g id="sprotty_ArchitectureBlockImpl$SimJTAG/AssignmentBlockImpl$tickCounterNxt/GPortImpl$tickCounterRegOUT" class="sprotty-hidden hidden" transform="translate(19.4375, 11)" style="display:block;height:0px;width:0px;"/></g><g id="sprotty_ArchitectureBlockImpl$SimJTAG/BPortImpl$jtag_TDO_driven" class="triangle" transform="translate(0, 202)"><path d="M 0,0 L 5,2.5 L 0,5 Z" transform="translate(-1.67, -2.5)" class="sprotty-port" style="fill:rgb(48, 48, 48);stroke:rgb(48, 48, 48);"/><text class="clickable sprotty-label port" id="sprotty_ArchitectureBlockImpl$SimJTAG/BPortImpl$jtag_TDO_driven/label" transform="translate(6, 6) translate(47.734375, 14)" style="cursor:default;font-size:12px;perspective-origin:-0.265625px 0px;fill:rgb(48, 48, 48);text-anchor:middle;">jtag_TDO_driven</text></g><g id="sprotty_ArchitectureBlockImpl$SimJTAG/BPortImpl$jtag_TDO_data" class="triangle" transform="translate(0, 246)"><path d="M 0,0 L 5,2.5 L 0,5 Z" transform="translate(-1.67, -2.5)" class="sprotty-port" style="fill:rgb(48, 48, 48);stroke:rgb(48, 48, 48);"/><text class="clickable sprotty-label port" id="sprotty_ArchitectureBlockImpl$SimJTAG/BPortImpl$jtag_TDO_data/label" transform="translate(6, 6) translate(42.453125, 14)" style="cursor:default;font-size:12px;perspective-origin:-0.25px 0px;fill:rgb(48, 48, 48);text-anchor:middle;">jtag_TDO_data</text></g><g id="sprotty_ArchitectureBlockImpl$SimJTAG/BPortImpl$init_done" class="triangle" transform="translate(0, 104)"><path d="M 0,0 L 5,2.5 L 0,5 Z" transform="translate(-1.67, -2.5)" class="sprotty-port" style="fill:rgb(48, 48, 48);stroke:rgb(48, 48, 48);"/><text class="clickable sprotty-label port" id="sprotty_ArchitectureBlockImpl$SimJTAG/BPortImpl$init_done/label" transform="translate(6, 6) translate(26.9375, 14)" style="cursor:default;font-size:12px;perspective-origin:0px 0px;fill:rgb(48, 48, 48);text-anchor:middle;">init_done</text></g><g id="sprotty_ArchitectureBlockImpl$SimJTAG/BPortImpl$enable" class="triangle" transform="translate(0, 36)"><path d="M 0,0 L 5,2.5 L 0,5 Z" transform="translate(-1.67, -2.5)" class="sprotty-port" style="fill:rgb(48, 48, 48);stroke:rgb(48, 48, 48);"/><text class="clickable sprotty-label port" id="sprotty_ArchitectureBlockImpl$SimJTAG/BPortImpl$enable/label" transform="translate(6, 6) translate(19.125, 14)" style="cursor:default;font-size:12px;perspective-origin:0px 0px;fill:rgb(48, 48, 48);text-anchor:middle;">enable</text></g><g id="sprotty_ArchitectureBlockImpl$SimJTAG/BPortImpl$reset" class="triangle" transform="translate(0, 138)"><path d="M 0,0 L 5,2.5 L 0,5 Z" transform="translate(-1.67, -2.5)" class="sprotty-port" style="fill:rgb(48, 48, 48);stroke:rgb(48, 48, 48);"/><text class="clickable sprotty-label port" id="sprotty_ArchitectureBlockImpl$SimJTAG/BPortImpl$reset/label" transform="translate(6, 6) translate(13.921875, 14)" style="cursor:default;font-size:12px;perspective-origin:0px 0px;fill:rgb(48, 48, 48);text-anchor:middle;">reset</text></g><g id="sprotty_ArchitectureBlockImpl$SimJTAG/BPortImpl$clock" class="triangle" transform="translate(0, 70)"><path d="M 0,0 L 5,2.5 L 0,5 Z" transform="translate(-1.67, -2.5)" class="sprotty-port" style="fill:rgb(48, 48, 48);stroke:rgb(48, 48, 48);"/><text class="clickable sprotty-label port" id="sprotty_ArchitectureBlockImpl$SimJTAG/BPortImpl$clock/label" transform="translate(6, 6) translate(14.78125, 14)" style="cursor:default;font-size:12px;perspective-origin:0px 0px;fill:rgb(48, 48, 48);text-anchor:middle;">clock</text></g><g id="sprotty_ArchitectureBlockImpl$SimJTAG/BPortImpl$jtag_TCK" class="triangle" transform="translate(302.6875, 131)"><path d="M 0,0 L 5,2.5 L 0,5 Z" transform="translate(-1.67, -2.5)" class="sprotty-port" style="fill:rgb(48, 48, 48);stroke:rgb(48, 48, 48);"/><text class="clickable sprotty-label port" id="sprotty_ArchitectureBlockImpl$SimJTAG/BPortImpl$jtag_TCK/label" transform="translate(-56.59375, 6) translate(25.5625, 14)" style="cursor:default;font-size:12px;perspective-origin:-0.265625px 0px;fill:rgb(48, 48, 48);text-anchor:middle;">jtag_TCK</text></g><g id="sprotty_ArchitectureBlockImpl$SimJTAG/BPortImpl$jtag_TMS" class="triangle" transform="translate(302.6875, 213)"><path d="M 0,0 L 5,2.5 L 0,5 Z" transform="translate(-1.67, -2.5)" class="sprotty-port" style="fill:rgb(48, 48, 48);stroke:rgb(48, 48, 48);"/><text class="clickable sprotty-label port" id="sprotty_ArchitectureBlockImpl$SimJTAG/BPortImpl$jtag_TMS/label" transform="translate(-58.40625, 6) translate(26.46875, 14)" style="cursor:default;font-size:12px;perspective-origin:-0.265625px 0px;fill:rgb(48, 48, 48);text-anchor:middle;">jtag_TMS</text></g><g id="sprotty_ArchitectureBlockImpl$SimJTAG/BPortImpl$jtag_TDI" class="triangle" transform="translate(302.6875, 268)"><path d="M 0,0 L 5,2.5 L 0,5 Z" transform="translate(-1.67, -2.5)" class="sprotty-port" style="fill:rgb(48, 48, 48);stroke:rgb(48, 48, 48);"/><text class="clickable sprotty-label port" id="sprotty_ArchitectureBlockImpl$SimJTAG/BPortImpl$jtag_TDI/label" transform="translate(-53.25, 6) translate(23.890625, 14)" style="cursor:default;font-size:12px;perspective-origin:-0.265625px 0px;fill:rgb(48, 48, 48);text-anchor:middle;">jtag_TDI</text></g><g id="sprotty_ArchitectureBlockImpl$SimJTAG/BPortImpl$jtag_TRSTn" class="triangle" transform="translate(302.6875, 323)"><path d="M 0,0 L 5,2.5 L 0,5 Z" transform="translate(-1.67, -2.5)" class="sprotty-port" style="fill:rgb(48, 48, 48);stroke:rgb(48, 48, 48);"/><text class="clickable sprotty-label port" id="sprotty_ArchitectureBlockImpl$SimJTAG/BPortImpl$jtag_TRSTn/label" transform="translate(-69.734375, 6) translate(32.125, 14)" style="cursor:default;font-size:12px;perspective-origin:-0.25px 0px;fill:rgb(48, 48, 48);text-anchor:middle;">jtag_TRSTn</text></g><g id="sprotty_ArchitectureBlockImpl$SimJTAG/BPortImpl$srstn" class="triangle" transform="translate(302.6875, 378)"><path d="M 0,0 L 5,2.5 L 0,5 Z" transform="translate(-1.67, -2.5)" class="sprotty-port" style="fill:rgb(48, 48, 48);stroke:rgb(48, 48, 48);"/><text class="clickable sprotty-label port" id="sprotty_ArchitectureBlockImpl$SimJTAG/BPortImpl$srstn/label" transform="translate(-33.4375, 6) translate(13.71875, 14)" style="cursor:default;font-size:12px;perspective-origin:0px 0px;fill:rgb(48, 48, 48);text-anchor:middle;">srstn</text></g><g id="sprotty_ArchitectureBlockImpl$SimJTAG/BPortImpl$exit" class="triangle" transform="translate(302.6875, 89)"><path d="M 0,0 L 5,2.5 L 0,5 Z" transform="translate(-1.67, -2.5)" class="sprotty-port" style="fill:rgb(48, 48, 48);stroke:rgb(48, 48, 48);"/><text class="clickable sprotty-label port" id="sprotty_ArchitectureBlockImpl$SimJTAG/BPortImpl$exit/label" transform="translate(-26.375, 6) translate(10.1875, 14)" style="cursor:default;font-size:12px;perspective-origin:0px 0px;fill:rgb(48, 48, 48);text-anchor:middle;">exit</text></g></g></g></svg>