<svg xmlns="http://www.w3.org/2000/svg" id="sprotty_root" class="sprotty-graph sprotty-state-machine statemachine" style="font-family:&quot;Noto Sans&quot;, Helvetica, Arial, sans-serif;perspective-origin:0px 0px;transform-origin:0px 0px;" version="1.1" viewBox="10 10 952.578125 398.928125" width="952.578125" height="398.928125"><g transform="scale(1) translate(0,0)"><g id="sprotty_fsm$buf_state" class="statemachine" transform="translate(15, 15)"><g class="sprotty-block" style="fill:rgb(255, 255, 255);stroke:rgb(48, 48, 48);stroke-dasharray:0px;"><rect x="0" y="0" rx="1" ry="1" width="942.578125" height="388.928125"/><text x="471.2890625" y="12" class="sprotty-block-name" style="cursor:pointer;font-weight:700;perspective-origin:471.281px 0px;fill:rgb(48, 48, 48);stroke:rgba(0, 0, 0, 0);dominant-baseline:middle;text-anchor:middle;">buf_state</text><line x1="0" y1="20" x2="942.578125" y2="20"/></g><g id="sprotty_fsm$buf_state/state$RD" class="state" transform="translate(145, 96)"><ellipse cx="20" cy="20" rx="20" ry="20" class="sprotty-node clickable" style="fill:rgb(255, 255, 255);stroke:rgb(48, 48, 48);"/><text class="clickable sprotty-label state" id="sprotty_fsm$buf_state/state$RD/label" transform="translate(9.421875, 8) translate(10.578125, 19)" style="cursor:default;perspective-origin:0px 0px;fill:rgb(48, 48, 48);text-anchor:middle;">RD</text></g><g id="sprotty_fsm$buf_state/state$IDLE" class="state" transform="translate(84, 336.928125)"><ellipse cx="30" cy="20" rx="30" ry="20" class="sprotty-node clickable" style="fill:rgb(255, 255, 255);stroke:rgb(48, 48, 48);"/><text class="clickable sprotty-label state" id="sprotty_fsm$buf_state/state$IDLE/label" transform="translate(13.109375, 8) translate(16.890625, 19)" style="cursor:default;perspective-origin:0px 0px;fill:rgb(48, 48, 48);text-anchor:middle;">IDLE</text></g><g id="sprotty_fsm$buf_state/state$WR" class="state" transform="translate(43, 36)"><ellipse cx="20" cy="20" rx="20" ry="20" class="sprotty-node clickable" style="fill:rgb(255, 255, 255);stroke:rgb(48, 48, 48);"/><text class="clickable sprotty-label state" id="sprotty_fsm$buf_state/state$WR/label" transform="translate(7.890625, 8) translate(12.109375, 19)" style="cursor:default;perspective-origin:0px 0px;fill:rgb(48, 48, 48);text-anchor:middle;">WR</text></g><g id="sprotty_fsm$buf_state/state$PEND" class="state" transform="translate(492.09375, 214.4140625)"><ellipse cx="27.046875" cy="20" rx="27.046875" ry="20" class="sprotty-node clickable" style="fill:rgb(255, 255, 255);stroke:rgb(48, 48, 48);"/><text class="clickable sprotty-label state" id="sprotty_fsm$buf_state/state$PEND/label" transform="translate(6, 8) translate(21.046875, 19)" style="cursor:default;perspective-origin:0px 0px;fill:rgb(48, 48, 48);text-anchor:middle;">PEND</text></g><g id="sprotty_fsm$buf_state/state$IDLE_to_fsm$buf_state/state$WR" class="sprotty-edge transition" style="fill:none;stroke:rgb(48, 48, 48);stroke-linejoin:round;"><g><path d=" M94,336.928125 C12,317.67109375 12,308.042578125 12,297.5616536458333 C12,287.08072916666663 12,275.7473958333333 12,265.08072916666663 C12,254.4140625 12,244.4140625 12,234.4140625 C12,224.4140625 12,214.4140625 12,200.87955729166666 C12,187.34505208333331 12,170.27604166666666 12,156.97428385416666 C12,143.67252604166666 12,134.13802083333331 12,124.603515625 C12,115.06901041666666 12,105.53450520833333 12,98.26725260416666 C12,91 12,86 53,76"/><path d=" M94,336.928125 C12,317.67109375 12,308.042578125 12,297.5616536458333 C12,287.08072916666663 12,275.7473958333333 12,265.08072916666663 C12,254.4140625 12,244.4140625 12,234.4140625 C12,224.4140625 12,214.4140625 12,200.87955729166666 C12,187.34505208333331 12,170.27604166666666 12,156.97428385416666 C12,143.67252604166666 12,134.13802083333331 12,124.603515625 C12,115.06901041666666 12,105.53450520833333 12,98.26725260416666 C12,91 12,86 53,76" class="clickable"/></g><path d="M 53,76 L 60,73.5 L 60,78.5 Z" transform="rotate(166.2930389959202 53 76)" class="arrow" style="fill:rgb(48, 48, 48);stroke-linejoin:miter;stroke-miterlimit:2;"/></g><g id="sprotty_fsm$buf_state/state$IDLE_to_fsm$buf_state/state$RD" class="sprotty-edge transition" style="fill:none;stroke:rgb(48, 48, 48);stroke-linejoin:round;"><g><path d=" M114,336.928125 C114,317.67109375 114,304.3568359375 114,293.26162109374997 C114,282.16640625 114,273.290234375 113.99999999999994,258.8521484375 C113.99999999999994,244.41406249999997 113.99999999999994,224.41406250000003 114,211.58072916666666 C114,198.74739583333331 114,193.08072916666666 114.00000000000006,187.4140625 C114.00000000000006,181.74739583333334 114,176.08072916666669 114,168.94563802083334 C114,161.810546875 114,153.20703125 155,136"/><path d=" M114,336.928125 C114,317.67109375 114,304.3568359375 114,293.26162109374997 C114,282.16640625 114,273.290234375 113.99999999999994,258.8521484375 C113.99999999999994,244.41406249999997 113.99999999999994,224.41406250000003 114,211.58072916666666 C114,198.74739583333331 114,193.08072916666666 114.00000000000006,187.4140625 C114.00000000000006,181.74739583333334 114,176.08072916666669 114,168.94563802083334 C114,161.810546875 114,153.20703125 155,136" class="clickable"/></g><path d="M 155,136 L 162,133.5 L 162,138.5 Z" transform="rotate(157.23300172477934 155 136)" class="arrow" style="fill:rgb(48, 48, 48);stroke-linejoin:miter;stroke-miterlimit:2;"/></g><g id="sprotty_fsm$buf_state/state$WR_to_fsm$buf_state/state$IDLE" class="sprotty-edge transition" style="fill:none;stroke:rgb(48, 48, 48);stroke-linejoin:round;"><g><path d=" M63,76 C63,86 63,102.8017578125 63,116.80322265625 C63,130.8046875 63,142.005859375 63,156.14095052083334 C63,170.27604166666669 63,187.34505208333331 63.00000000000006,200.87955729166663 C63.00000000000006,214.41406249999997 63,224.4140625 62.99999999999994,234.4140625 C63,244.4140625 63,254.4140625 63,265.08072916666663 C63,275.74739583333337 63,287.08072916666663 63,297.5616536458333 C63,308.042578125 63,317.67109375 104,336.928125"/><path d=" M63,76 C63,86 63,102.8017578125 63,116.80322265625 C63,130.8046875 63,142.005859375 63,156.14095052083334 C63,170.27604166666669 63,187.34505208333331 63.00000000000006,200.87955729166663 C63.00000000000006,214.41406249999997 63,224.4140625 62.99999999999994,234.4140625 C63,244.4140625 63,254.4140625 63,265.08072916666663 C63,275.74739583333337 63,287.08072916666663 63,297.5616536458333 C63,308.042578125 63,317.67109375 104,336.928125" class="clickable"/></g><path d="M 104,336.928125 L 111,334.428125 L 111,339.428125 Z" transform="rotate(-154.841321483013 104 336.928125)" class="arrow" style="fill:rgb(48, 48, 48);stroke-linejoin:miter;stroke-miterlimit:2;"/></g><g id="sprotty_fsm$buf_state/state$WR_to_fsm$buf_state/state$RD" class="sprotty-edge transition" style="fill:none;stroke:rgb(48, 48, 48);stroke-linejoin:round;"><g><path d=" M73,76 C73,76 155.8,86 165,96"/><path d=" M73,76 C73,76 155.8,86 165,96" class="clickable"/></g><path d="M 165,96 L 172,93.5 L 172,98.5 Z" transform="rotate(-132.61405596961117 165 96)" class="arrow" style="fill:rgb(48, 48, 48);stroke-linejoin:miter;stroke-miterlimit:2;"/></g><g id="sprotty_fsm$buf_state/state$RD_to_fsm$buf_state/state$IDLE" class="sprotty-edge transition" style="fill:none;stroke:rgb(48, 48, 48);stroke-linejoin:round;"><g><path d=" M165,136 C165,153.20703125 165,166.0087890625 165,176.67692057291666 C165,187.34505208333334 165.00000000000006,195.87955729166663 165.00000000000006,210.14680989583331 C165,224.4140625 165,244.41406249999997 165,257.2473958333333 C164.99999999999994,270.0807291666667 164.99999999999994,275.7473958333333 164.99999999999994,281.4140625 C165,287.0807291666667 165.00000000000006,292.7473958333333 165.00000000000006,300.3949869791666 C165.00000000000006,308.042578125 165,317.67109375 124,336.928125"/><path d=" M165,136 C165,153.20703125 165,166.0087890625 165,176.67692057291666 C165,187.34505208333334 165.00000000000006,195.87955729166663 165.00000000000006,210.14680989583331 C165,224.4140625 165,244.41406249999997 165,257.2473958333333 C164.99999999999994,270.0807291666667 164.99999999999994,275.7473958333333 164.99999999999994,281.4140625 C165,287.0807291666667 165.00000000000006,292.7473958333333 165.00000000000006,300.3949869791666 C165.00000000000006,308.042578125 165,317.67109375 124,336.928125" class="clickable"/></g><path d="M 124,336.928125 L 131,334.428125 L 131,339.428125 Z" transform="rotate(-25.158678516987035 124 336.928125)" class="arrow" style="fill:rgb(48, 48, 48);stroke-linejoin:miter;stroke-miterlimit:2;"/><text class="clickable sprotty-label transition" id="sprotty_fsm$buf_state/state$RD_to_fsm$buf_state/state$IDLE/label0" transform="translate(172, 222.4140625) translate(147.546875, 19)" style="cursor:default;perspective-origin:0px 0px;fill:rgb(48, 48, 48);stroke:none;text-anchor:middle;">If error go to idle, else wait for read data</text></g><g id="sprotty_fsm$buf_state/state$RD_to_fsm$buf_state/state$PEND" class="sprotty-edge transition" style="fill:none;stroke:rgb(48, 48, 48);stroke-linejoin:round;"><g><path d=" M175,136 C519.140625,153.20703125 519.140625,161.810546875 519.140625,168.94563802083334 C519.140625,176.08072916666669 519.140625,181.74739583333334 519.140625,188.83072916666663 C519.140625,195.91406249999997 519.140625,204.4140625 519.140625,214.4140625"/><path d=" M175,136 C519.140625,153.20703125 519.140625,161.810546875 519.140625,168.94563802083334 C519.140625,176.08072916666669 519.140625,181.74739583333334 519.140625,188.83072916666663 C519.140625,195.91406249999997 519.140625,204.4140625 519.140625,214.4140625" class="clickable"/></g><path d="M 519.140625,214.4140625 L 526.140625,211.9140625 L 526.140625,216.9140625 Z" transform="rotate(-90 519.140625 214.4140625)" class="arrow" style="fill:rgb(48, 48, 48);stroke-linejoin:miter;stroke-miterlimit:2;"/><text class="clickable sprotty-label transition" id="sprotty_fsm$buf_state/state$RD_to_fsm$buf_state/state$PEND/label0" transform="translate(526.140625, 170.4140625) translate(147.546875, 19)" style="cursor:default;perspective-origin:0px 0px;fill:rgb(48, 48, 48);stroke:none;text-anchor:middle;">If error go to idle, else wait for read data</text></g><g id="sprotty_fsm$buf_state/state$PEND_to_fsm$buf_state/state$IDLE" class="sprotty-edge transition" style="fill:none;stroke:rgb(48, 48, 48);stroke-linejoin:round;"><g><path d=" M519.140625,254.4140625 C519.140625,264.4140625 519.140625,272.9140625 519.140625,279.9973958333333 C519.140625,287.0807291666667 519.140625,292.74739583333326 519.140625,300.39498697916656 C519.140625,308.042578125 519.140625,317.67109375 134,336.928125"/><path d=" M519.140625,254.4140625 C519.140625,264.4140625 519.140625,272.9140625 519.140625,279.9973958333333 C519.140625,287.0807291666667 519.140625,292.74739583333326 519.140625,300.39498697916656 C519.140625,308.042578125 519.140625,317.67109375 134,336.928125" class="clickable"/></g><path d="M 134,336.928125 L 141,334.428125 L 141,339.428125 Z" transform="rotate(-2.862405226111749 134 336.928125)" class="arrow" style="fill:rgb(48, 48, 48);stroke-linejoin:miter;stroke-miterlimit:2;"/><text class="clickable sprotty-label transition" id="sprotty_fsm$buf_state/state$PEND_to_fsm$buf_state/state$IDLE/label0" transform="translate(526.140625, 274.4140625) translate(202.21875, 19)" style="cursor:default;perspective-origin:0px 0px;fill:rgb(48, 48, 48);stroke:none;text-anchor:middle;">go back for next command and present data next cycle</text></g></g></g></svg>