<svg xmlns="http://www.w3.org/2000/svg" id="sprotty_root" class="sprotty-graph sprotty-state-machine statemachine" style="font-family:&quot;Noto Sans&quot;, Helvetica, Arial, sans-serif;perspective-origin:0px 0px;transform-origin:0px 0px;" version="1.1" viewBox="10 10 261.3359375 288" width="261.3359375" height="288"><g transform="scale(1) translate(0,0)"><g id="sprotty_fsm$perr_state" class="statemachine" transform="translate(15, 15)"><g class="sprotty-block" style="fill:rgb(255, 255, 255);stroke:rgb(48, 48, 48);stroke-dasharray:0px;"><rect x="0" y="0" rx="1" ry="1" width="251.3359375" height="278"/><text x="125.66796875" y="12" class="sprotty-block-name" style="cursor:pointer;font-weight:700;perspective-origin:125.672px 0px;fill:rgb(48, 48, 48);stroke:rgba(0, 0, 0, 0);dominant-baseline:middle;text-anchor:middle;">perr_state</text><line x1="0" y1="20" x2="251.3359375" y2="20"/></g><g id="sprotty_fsm$perr_state/state$ECC_WFF" class="state" transform="translate(150.75911458333334, 36)"><ellipse cx="40.984375" cy="20" rx="40.984375" ry="20" class="sprotty-node clickable" style="fill:rgb(255, 255, 255);stroke:rgb(48, 48, 48);"/><text class="clickable sprotty-label state" id="sprotty_fsm$perr_state/state$ECC_WFF/label" transform="translate(6, 8) translate(34.984375, 19)" style="cursor:default;perspective-origin:0px 0px;fill:rgb(48, 48, 48);text-anchor:middle;">ECC_WFF</text></g><g id="sprotty_fsm$perr_state/state$ERR_IDLE" class="state" transform="translate(91.7578125, 166)"><ellipse cx="42.21875" cy="20" rx="42.21875" ry="20" class="sprotty-node clickable" style="fill:rgb(255, 255, 255);stroke:rgb(48, 48, 48);"/><text class="clickable sprotty-label state" id="sprotty_fsm$perr_state/state$ERR_IDLE/label" transform="translate(6, 8) translate(36.21875, 19)" style="cursor:default;perspective-origin:0px 0px;fill:rgb(48, 48, 48);text-anchor:middle;">ERR_IDLE</text></g><g id="sprotty_fsm$perr_state/state$ECC_CORR" class="state" transform="translate(80.4140625, 96)"><ellipse cx="46.078125" cy="20" rx="46.078125" ry="20" class="sprotty-node clickable" style="fill:rgb(255, 255, 255);stroke:rgb(48, 48, 48);"/><text class="clickable sprotty-label state" id="sprotty_fsm$perr_state/state$ECC_CORR/label" transform="translate(6, 8) translate(40.078125, 19)" style="cursor:default;perspective-origin:0px 0px;fill:rgb(48, 48, 48);text-anchor:middle;">ECC_CORR</text></g><g id="sprotty_fsm$perr_state/state$DMA_SB_ERR" class="state" transform="translate(12, 36)"><ellipse cx="56.703125" cy="20" rx="56.703125" ry="20" class="sprotty-node clickable" style="fill:rgb(255, 255, 255);stroke:rgb(48, 48, 48);"/><text class="clickable sprotty-label state" id="sprotty_fsm$perr_state/state$DMA_SB_ERR/label" transform="translate(6, 8) translate(50.703125, 19)" style="cursor:default;perspective-origin:0px 0px;fill:rgb(48, 48, 48);text-anchor:middle;">DMA_SB_ERR</text></g><g id="sprotty_fsm$perr_state/state$IC_WFF" class="state" transform="translate(97.3828125, 226)"><ellipse cx="33.78125" cy="20" rx="33.78125" ry="20" class="sprotty-node clickable" style="fill:rgb(255, 255, 255);stroke:rgb(48, 48, 48);"/><text class="clickable sprotty-label state" id="sprotty_fsm$perr_state/state$IC_WFF/label" transform="translate(6, 8) translate(27.78125, 19)" style="cursor:default;perspective-origin:0px 0px;fill:rgb(48, 48, 48);text-anchor:middle;">IC_WFF</text></g><g id="sprotty_fsm$perr_state/state$ERR_IDLE_to_fsm$perr_state/state$DMA_SB_ERR" class="sprotty-edge transition" style="fill:none;stroke:rgb(48, 48, 48);stroke-linejoin:round;"><g><path d=" M105.83072916666667,166 C15.204427083333314,151 15.204427083333314,143.5 15.204427083333314,136.41666666666666 C15.204427083333314,129.33333333333331 15.204427083333314,122.66666666666666 15.204427083333314,116 C15.204427083333314,109.33333333333333 15.204427083333314,102.66666666666666 15.204427083333314,96.83333333333333 C15.204427083333314,91 15.204427083333314,86 40.3515625,76"/><path d=" M105.83072916666667,166 C15.204427083333314,151 15.204427083333314,143.5 15.204427083333314,136.41666666666666 C15.204427083333314,129.33333333333331 15.204427083333314,122.66666666666666 15.204427083333314,116 C15.204427083333314,109.33333333333333 15.204427083333314,102.66666666666666 15.204427083333314,96.83333333333333 C15.204427083333314,91 15.204427083333314,86 40.3515625,76" class="clickable"/></g><path d="M 40.3515625,76 L 47.3515625,73.5 L 47.3515625,78.5 Z" transform="rotate(158.31428252679655 40.3515625 76)" class="arrow" style="fill:rgb(48, 48, 48);stroke-linejoin:miter;stroke-miterlimit:2;"/></g><g id="sprotty_fsm$perr_state/state$ERR_IDLE_to_fsm$perr_state/state$IC_WFF" class="sprotty-edge transition" style="fill:none;stroke:rgb(48, 48, 48);stroke-linejoin:round;"><g><path d=" M119.90364583333333,206 C119.90364583333333,206 119.90364583333333,216 119.90364583333334,226"/><path d=" M119.90364583333333,206 C119.90364583333333,206 119.90364583333333,216 119.90364583333334,226" class="clickable"/></g><path d="M 119.90364583333334,226 L 126.90364583333334,223.5 L 126.90364583333334,228.5 Z" transform="rotate(-90.0000000000001 119.90364583333334 226)" class="arrow" style="fill:rgb(48, 48, 48);stroke-linejoin:miter;stroke-miterlimit:2;"/></g><g id="sprotty_fsm$perr_state/state$ERR_IDLE_to_fsm$perr_state/state$ECC_WFF" class="sprotty-edge transition" style="fill:none;stroke:rgb(48, 48, 48);stroke-linejoin:round;"><g><path d=" M148.04947916666669,166 C187.3359375,151 187.3359375,143.5 187.3359375,136.41666666666666 C187.3359375,129.33333333333331 187.3359375,122.66666666666666 187.3359375,116 C187.3359375,109.33333333333333 187.3359375,102.66666666666666 187.3359375,96.83333333333333 C187.3359375,91 187.3359375,86 191.74348958333334,76"/><path d=" M148.04947916666669,166 C187.3359375,151 187.3359375,143.5 187.3359375,136.41666666666666 C187.3359375,129.33333333333331 187.3359375,122.66666666666666 187.3359375,116 C187.3359375,109.33333333333333 187.3359375,102.66666666666666 187.3359375,96.83333333333333 C187.3359375,91 187.3359375,86 191.74348958333334,76" class="clickable"/></g><path d="M 191.74348958333334,76 L 198.74348958333334,73.5 L 198.74348958333334,78.5 Z" transform="rotate(113.78573628369888 191.74348958333334 76)" class="arrow" style="fill:rgb(48, 48, 48);stroke-linejoin:miter;stroke-miterlimit:2;"/></g><g id="sprotty_fsm$perr_state/state$IC_WFF_to_fsm$perr_state/state$ERR_IDLE" class="sprotty-edge transition" style="fill:none;stroke:rgb(48, 48, 48);stroke-linejoin:round;"><g><path d=" M142.42447916666669,226 C145.23697916666666,216 148.04947916666666,206 148.04947916666666,206"/><path d=" M142.42447916666669,226 C145.23697916666666,216 148.04947916666666,206 148.04947916666666,206" class="clickable"/></g><path d="M 148.04947916666666,206 L 155.04947916666666,203.5 L 155.04947916666666,208.5 Z" transform="rotate(105.70863782901576 148.04947916666666 206)" class="arrow" style="fill:rgb(48, 48, 48);stroke-linejoin:miter;stroke-miterlimit:2;"/></g><g id="sprotty_fsm$perr_state/state$ECC_WFF_to_fsm$perr_state/state$ERR_IDLE" class="sprotty-edge transition" style="fill:none;stroke:rgb(48, 48, 48);stroke-linejoin:round;"><g><path d=" M212.23567708333334,76 C238.3359375,86 238.3359375,91 238.3359375,96.83333333333333 C238.3359375,102.66666666666666 238.3359375,109.33333333333333 238.3359375,116 C238.3359375,122.66666666666666 238.3359375,129.33333333333331 238.3359375,136.41666666666666 C238.3359375,143.5 238.3359375,151 162.12239583333334,166"/><path d=" M212.23567708333334,76 C238.3359375,86 238.3359375,91 238.3359375,96.83333333333333 C238.3359375,102.66666666666666 238.3359375,109.33333333333333 238.3359375,116 C238.3359375,122.66666666666666 238.3359375,129.33333333333331 238.3359375,136.41666666666666 C238.3359375,143.5 238.3359375,151 162.12239583333334,166" class="clickable"/></g><path d="M 162.12239583333334,166 L 169.12239583333334,163.5 L 169.12239583333334,168.5 Z" transform="rotate(-11.134380171427127 162.12239583333334 166)" class="arrow" style="fill:rgb(48, 48, 48);stroke-linejoin:miter;stroke-miterlimit:2;"/></g><g id="sprotty_fsm$perr_state/state$ECC_WFF_to_fsm$perr_state/state$ECC_CORR" class="sprotty-edge transition" style="fill:none;stroke:rgb(48, 48, 48);stroke-linejoin:round;"><g><path d=" M171.25130208333334,76 C171.25130208333334,76 144.79153645833333,86 141.8515625,96"/><path d=" M171.25130208333334,76 C171.25130208333334,76 144.79153645833333,86 141.8515625,96" class="clickable"/></g><path d="M 141.8515625,96 L 148.8515625,93.5 L 148.8515625,98.5 Z" transform="rotate(-73.61680120213339 141.8515625 96)" class="arrow" style="fill:rgb(48, 48, 48);stroke-linejoin:miter;stroke-miterlimit:2;"/></g><g id="sprotty_fsm$perr_state/state$DMA_SB_ERR_to_fsm$perr_state/state$ERR_IDLE" class="sprotty-edge transition" style="fill:none;stroke:rgb(48, 48, 48);stroke-linejoin:round;"><g><path d=" M68.703125,76 C66.20442708333334,86 66.20442708333334,91 66.20442708333334,96.83333333333333 C66.20442708333334,102.66666666666666 66.20442708333334,109.33333333333333 66.20442708333334,116 C66.20442708333334,122.66666666666666 66.20442708333334,129.33333333333331 66.20442708333334,136.41666666666666 C66.20442708333334,143.5 66.20442708333334,151 119.90364583333334,166"/><path d=" M68.703125,76 C66.20442708333334,86 66.20442708333334,91 66.20442708333334,96.83333333333333 C66.20442708333334,102.66666666666666 66.20442708333334,109.33333333333333 66.20442708333334,116 C66.20442708333334,122.66666666666666 66.20442708333334,129.33333333333331 66.20442708333334,136.41666666666666 C66.20442708333334,143.5 66.20442708333334,151 119.90364583333334,166" class="clickable"/></g><path d="M 119.90364583333334,166 L 126.90364583333334,163.5 L 126.90364583333334,168.5 Z" transform="rotate(-164.39316186770438 119.90364583333334 166)" class="arrow" style="fill:rgb(48, 48, 48);stroke-linejoin:miter;stroke-miterlimit:2;"/></g><g id="sprotty_fsm$perr_state/state$DMA_SB_ERR_to_fsm$perr_state/state$ECC_CORR" class="sprotty-edge transition" style="fill:none;stroke:rgb(48, 48, 48);stroke-linejoin:round;"><g><path d=" M97.0546875,76 C97.0546875,76 109.725,86 111.1328125,96"/><path d=" M97.0546875,76 C97.0546875,76 109.725,86 111.1328125,96" class="clickable"/></g><path d="M 111.1328125,96 L 118.1328125,93.5 L 118.1328125,98.5 Z" transform="rotate(-98.01350752823402 111.1328125 96)" class="arrow" style="fill:rgb(48, 48, 48);stroke-linejoin:miter;stroke-miterlimit:2;"/></g><g id="sprotty_fsm$perr_state/state$ECC_CORR_to_fsm$perr_state/state$ERR_IDLE" class="sprotty-edge transition" style="fill:none;stroke:rgb(48, 48, 48);stroke-linejoin:round;"><g><path d=" M126.4921875,136 C126.4921875,136 127.240625,151 133.9765625,166"/><path d=" M126.4921875,136 C126.4921875,136 127.240625,151 133.9765625,166" class="clickable"/></g><path d="M 133.9765625,166 L 140.9765625,163.5 L 140.9765625,168.5 Z" transform="rotate(-114.1830603833515 133.9765625 166)" class="arrow" style="fill:rgb(48, 48, 48);stroke-linejoin:miter;stroke-miterlimit:2;"/></g></g></g></svg>