<svg xmlns="http://www.w3.org/2000/svg" id="sprotty_root" class="sprotty-graph sprotty-state-machine statemachine" style="font-family:&quot;Noto Sans&quot;, Helvetica, Arial, sans-serif;perspective-origin:0px 0px;transform-origin:0px 0px;" version="1.1" viewBox="10 10 246.921875 278" width="246.921875" height="278"><g transform="scale(1) translate(0,0)"><g id="sprotty_fsm$err_stop_state" class="statemachine" transform="translate(15, 15)"><g class="sprotty-block" style="fill:rgb(255, 255, 255);stroke:rgb(48, 48, 48);stroke-dasharray:0px;"><rect x="0" y="0" rx="1" ry="1" width="236.921875" height="268"/><text x="118.4609375" y="12" class="sprotty-block-name" style="cursor:pointer;font-weight:700;perspective-origin:118.453px 0px;fill:rgb(48, 48, 48);stroke:rgba(0, 0, 0, 0);dominant-baseline:middle;text-anchor:middle;">err_stop_state</text><line x1="0" y1="20" x2="236.921875" y2="20"/></g><g id="sprotty_fsm$err_stop_state/state$ERR_STOP_FETCH" class="state" transform="translate(75.703125, 96)"><ellipse cx="74.609375" cy="20" rx="74.609375" ry="20" class="sprotty-node clickable" style="fill:rgb(255, 255, 255);stroke:rgb(48, 48, 48);"/><text class="clickable sprotty-label state" id="sprotty_fsm$err_stop_state/state$ERR_STOP_FETCH/label" transform="translate(6, 8) translate(68.609375, 19)" style="cursor:default;perspective-origin:0px 0px;fill:rgb(48, 48, 48);text-anchor:middle;">ERR_STOP_FETCH</text></g><g id="sprotty_fsm$err_stop_state/state$ERR_FETCH2" class="state" transform="translate(12, 36)"><ellipse cx="54.40625" cy="20" rx="54.40625" ry="20" class="sprotty-node clickable" style="fill:rgb(255, 255, 255);stroke:rgb(48, 48, 48);"/><text class="clickable sprotty-label state" id="sprotty_fsm$err_stop_state/state$ERR_FETCH2/label" transform="translate(6, 8) translate(48.40625, 19)" style="cursor:default;perspective-origin:0px 0px;fill:rgb(48, 48, 48);text-anchor:middle;">ERR_FETCH2</text></g><g id="sprotty_fsm$err_stop_state/state$ERR_STOP_IDLE" class="state" transform="translate(46.66536458333333, 216)"><ellipse cx="66.859375" cy="20" rx="66.859375" ry="20" class="sprotty-node clickable" style="fill:rgb(255, 255, 255);stroke:rgb(48, 48, 48);"/><text class="clickable sprotty-label state" id="sprotty_fsm$err_stop_state/state$ERR_STOP_IDLE/label" transform="translate(6, 8) translate(60.859375, 19)" style="cursor:default;perspective-origin:0px 0px;fill:rgb(48, 48, 48);text-anchor:middle;">ERR_STOP_IDLE</text></g><g id="sprotty_fsm$err_stop_state/state$ERR_FETCH1" class="state" transform="translate(55.33125, 156)"><ellipse cx="54.40625" cy="20" rx="54.40625" ry="20" class="sprotty-node clickable" style="fill:rgb(255, 255, 255);stroke:rgb(48, 48, 48);"/><text class="clickable sprotty-label state" id="sprotty_fsm$err_stop_state/state$ERR_FETCH1/label" transform="translate(6, 8) translate(48.40625, 19)" style="cursor:default;perspective-origin:0px 0px;fill:rgb(48, 48, 48);text-anchor:middle;">ERR_FETCH1</text></g><g id="sprotty_fsm$err_stop_state/state$ERR_STOP_IDLE_to_fsm$err_stop_state/state$ERR_FETCH1" class="sprotty-edge transition" style="fill:none;stroke:rgb(48, 48, 48);stroke-linejoin:round;"><g><path d=" M100.15286458333333,216 C92.45716145833333,206 91.60208333333333,196 91.60208333333333,196"/><path d=" M100.15286458333333,216 C92.45716145833333,206 91.60208333333333,196 91.60208333333333,196" class="clickable"/></g><path d="M 91.60208333333333,196 L 98.60208333333333,193.5 L 98.60208333333333,198.5 Z" transform="rotate(85.11265151542611 91.60208333333333 196)" class="arrow" style="fill:rgb(48, 48, 48);stroke-linejoin:miter;stroke-miterlimit:2;"/></g><g id="sprotty_fsm$err_stop_state/state$ERR_FETCH1_to_fsm$err_stop_state/state$ERR_STOP_IDLE" class="sprotty-edge transition" style="fill:none;stroke:rgb(48, 48, 48);stroke-linejoin:round;"><g><path d=" M127.87291666666665,196 C127.87291666666665,196 127.77528645833333,206 126.89661458333332,216"/><path d=" M127.87291666666665,196 C127.87291666666665,196 127.77528645833333,206 126.89661458333332,216" class="clickable"/></g><path d="M 126.89661458333332,216 L 133.8966145833333,213.5 L 133.8966145833333,218.5 Z" transform="rotate(-84.97847762559184 126.89661458333332 216)" class="arrow" style="fill:rgb(48, 48, 48);stroke-linejoin:miter;stroke-miterlimit:2;"/></g><g id="sprotty_fsm$err_stop_state/state$ERR_FETCH1_to_fsm$err_stop_state/state$ERR_STOP_FETCH" class="sprotty-edge transition" style="fill:none;stroke:rgb(48, 48, 48);stroke-linejoin:round;"><g><path d=" M109.7375,156 C111.37265625,146 113.0078125,136 113.0078125,136"/><path d=" M109.7375,156 C111.37265625,146 113.0078125,136 113.0078125,136" class="clickable"/></g><path d="M 113.0078125,136 L 120.0078125,133.5 L 120.0078125,138.5 Z" transform="rotate(99.2865710621153 113.0078125 136)" class="arrow" style="fill:rgb(48, 48, 48);stroke-linejoin:miter;stroke-miterlimit:2;"/></g><g id="sprotty_fsm$err_stop_state/state$ERR_FETCH1_to_fsm$err_stop_state/state$ERR_FETCH2" class="sprotty-edge transition" style="fill:none;stroke:rgb(48, 48, 48);stroke-linejoin:round;"><g><path d=" M82.534375,156 C64.703125,146 64.703125,141 64.703125,135.16666666666666 C64.703125,129.33333333333331 64.703125,122.66666666666666 64.703125,116 C64.703125,109.33333333333333 64.703125,102.66666666666666 64.703125,96.83333333333333 C64.703125,91 64.703125,86 66.40625,76"/><path d=" M82.534375,156 C64.703125,146 64.703125,141 64.703125,135.16666666666666 C64.703125,129.33333333333331 64.703125,122.66666666666666 64.703125,116 C64.703125,109.33333333333333 64.703125,102.66666666666666 64.703125,96.83333333333333 C64.703125,91 64.703125,86 66.40625,76" class="clickable"/></g><path d="M 66.40625,76 L 73.40625,73.5 L 73.40625,78.5 Z" transform="rotate(99.665446430019 66.40625 76)" class="arrow" style="fill:rgb(48, 48, 48);stroke-linejoin:miter;stroke-miterlimit:2;"/></g><g id="sprotty_fsm$err_stop_state/state$ERR_FETCH2_to_fsm$err_stop_state/state$ERR_STOP_IDLE" class="sprotty-edge transition" style="fill:none;stroke:rgb(48, 48, 48);stroke-linejoin:round;"><g><path d=" M39.203125,76 C13.703125,86 13.703124999999993,91 13.703124999999993,97.66666666666669 C13.703124999999993,104.33333333333334 13.703125,112.66666666666666 13.703125,121 C13.703125,129.33333333333331 13.703125,137.66666666666669 13.703124999999993,150.16666666666669 C13.703124999999993,162.66666666666669 13.703124999999993,179.33333333333337 13.703124999999993,190.1666666666667 C13.703125,201 13.703125,206 73.40911458333332,216"/><path d=" M39.203125,76 C13.703125,86 13.703124999999993,91 13.703124999999993,97.66666666666669 C13.703124999999993,104.33333333333334 13.703125,112.66666666666666 13.703125,121 C13.703125,129.33333333333331 13.703125,137.66666666666669 13.703124999999993,150.16666666666669 C13.703124999999993,162.66666666666669 13.703124999999993,179.33333333333337 13.703124999999993,190.1666666666667 C13.703125,201 13.703125,206 73.40911458333332,216" class="clickable"/></g><path d="M 73.40911458333332,216 L 80.40911458333332,213.5 L 80.40911458333332,218.5 Z" transform="rotate(-170.49193116403083 73.40911458333332 216)" class="arrow" style="fill:rgb(48, 48, 48);stroke-linejoin:miter;stroke-miterlimit:2;"/></g><g id="sprotty_fsm$err_stop_state/state$ERR_FETCH2_to_fsm$err_stop_state/state$ERR_STOP_FETCH" class="sprotty-edge transition" style="fill:none;stroke:rgb(48, 48, 48);stroke-linejoin:round;"><g><path d=" M93.609375,76 C93.609375,76 144.6421875,86 150.3125,96"/><path d=" M93.609375,76 C93.609375,76 144.6421875,86 150.3125,96" class="clickable"/></g><path d="M 150.3125,96 L 157.3125,93.5 L 157.3125,98.5 Z" transform="rotate(-119.55459154268426 150.3125 96)" class="arrow" style="fill:rgb(48, 48, 48);stroke-linejoin:miter;stroke-miterlimit:2;"/></g><g id="sprotty_fsm$err_stop_state/state$ERR_STOP_FETCH_to_fsm$err_stop_state/state$ERR_STOP_IDLE" class="sprotty-edge transition" style="fill:none;stroke:rgb(48, 48, 48);stroke-linejoin:round;"><g><path d=" M187.6171875,136 C174.19453125,146 174.19453125,151 174.19453125,156.83333333333331 C174.19453125,162.66666666666666 174.19453125,169.33333333333331 174.19453125,176 C174.19453125,182.66666666666666 174.19453125,189.33333333333331 174.19453125,195.16666666666666 C174.19453125,201 174.19453125,206 153.64036458333334,216"/><path d=" M187.6171875,136 C174.19453125,146 174.19453125,151 174.19453125,156.83333333333331 C174.19453125,162.66666666666666 174.19453125,169.33333333333331 174.19453125,176 C174.19453125,182.66666666666666 174.19453125,189.33333333333331 174.19453125,195.16666666666666 C174.19453125,201 174.19453125,206 153.64036458333334,216" class="clickable"/></g><path d="M 153.64036458333334,216 L 160.64036458333334,213.5 L 160.64036458333334,218.5 Z" transform="rotate(-25.943818496933467 153.64036458333334 216)" class="arrow" style="fill:rgb(48, 48, 48);stroke-linejoin:miter;stroke-miterlimit:2;"/></g><g id="sprotty_fsm$err_stop_state/state$ERR_STOP_FETCH_to_fsm$err_stop_state/state$ERR_FETCH1" class="sprotty-edge transition" style="fill:none;stroke:rgb(48, 48, 48);stroke-linejoin:round;"><g><path d=" M150.3125,136 C150.3125,136 143.62656249999998,146 136.940625,156"/><path d=" M150.3125,136 C150.3125,136 143.62656249999998,146 136.940625,156" class="clickable"/></g><path d="M 136.940625,156 L 143.940625,153.5 L 143.940625,158.5 Z" transform="rotate(-56.23356016382342 136.940625 156)" class="arrow" style="fill:rgb(48, 48, 48);stroke-linejoin:miter;stroke-miterlimit:2;"/></g></g></g></svg>