<svg xmlns="http://www.w3.org/2000/svg" id="sprotty_root" class="sprotty-graph sprotty-state-machine statemachine" style="font-family:&quot;Noto Sans&quot;, Helvetica, Arial, sans-serif;perspective-origin:0px 0px;transform-origin:0px 0px;" version="1.1" viewBox="10 10 590.28125 358.362890625" width="590.28125" height="358.362890625"><g transform="scale(1) translate(0,0)"><g id="sprotty_fsm$sb_state" class="statemachine" transform="translate(15, 15)"><g class="sprotty-block" style="fill:rgb(255, 255, 255);stroke:rgb(48, 48, 48);stroke-dasharray:0px;"><rect x="0" y="0" rx="1" ry="1" width="580.28125" height="348.362890625"/><text x="290.140625" y="12" class="sprotty-block-name" style="cursor:pointer;font-weight:700;perspective-origin:290.141px 0px;fill:rgb(48, 48, 48);stroke:rgba(0, 0, 0, 0);dominant-baseline:middle;text-anchor:middle;">sb_state</text><line x1="0" y1="20" x2="580.28125" y2="20"/></g><g id="sprotty_fsm$sb_state/state$WAIT_WR" class="state" transform="translate(21.40625, 36)"><ellipse cx="41.59375" cy="19.75" rx="41.59375" ry="19.75" class="sprotty-node clickable" style="fill:rgb(255, 255, 255);stroke:rgb(48, 48, 48);"/><text class="clickable sprotty-label state" id="sprotty_fsm$sb_state/state$WAIT_WR/label" transform="translate(6, 8) translate(35.59375, 18.5)" style="cursor:default;perspective-origin:0px 0px;fill:rgb(48, 48, 48);text-anchor:middle;">WAIT_WR</text></g><g id="sprotty_fsm$sb_state/state$CMD_WR" class="state" transform="translate(74, 95.5)"><ellipse cx="39.6875" cy="19.75" rx="39.6875" ry="19.75" class="sprotty-node clickable" style="fill:rgb(255, 255, 255);stroke:rgb(48, 48, 48);"/><text class="clickable sprotty-label state" id="sprotty_fsm$sb_state/state$CMD_WR/label" transform="translate(6, 8) translate(33.6875, 18.5)" style="cursor:default;perspective-origin:0px 0px;fill:rgb(48, 48, 48);text-anchor:middle;">CMD_WR</text></g><g id="sprotty_fsm$sb_state/state$DONE" class="state" transform="translate(329.16796875, 224.5)"><ellipse cx="27.921875" cy="19.75" rx="27.921875" ry="19.75" class="sprotty-node clickable" style="fill:rgb(255, 255, 255);stroke:rgb(48, 48, 48);"/><text class="clickable sprotty-label state" id="sprotty_fsm$sb_state/state$DONE/label" transform="translate(6, 8) translate(21.921875, 18.5)" style="cursor:default;perspective-origin:0px 0px;fill:rgb(48, 48, 48);text-anchor:middle;">DONE</text></g><g id="sprotty_fsm$sb_state/state$CMD_WR_ADDR" class="state" transform="translate(178.375, 95.5)"><ellipse cx="65.078125" cy="19.75" rx="65.078125" ry="19.75" class="sprotty-node clickable" style="fill:rgb(255, 255, 255);stroke:rgb(48, 48, 48);"/><text class="clickable sprotty-label state" id="sprotty_fsm$sb_state/state$CMD_WR_ADDR/label" transform="translate(6, 8) translate(59.078125, 18.5)" style="cursor:default;perspective-origin:0px 0px;fill:rgb(48, 48, 48);text-anchor:middle;">CMD_WR_ADDR</text></g><g id="sprotty_fsm$sb_state/state$SBIDLE" class="state" transform="translate(324.16796875, 296.862890625)"><ellipse cx="32.921875" cy="19.75" rx="32.921875" ry="19.75" class="sprotty-node clickable" style="fill:rgb(255, 255, 255);stroke:rgb(48, 48, 48);"/><text class="clickable sprotty-label state" id="sprotty_fsm$sb_state/state$SBIDLE/label" transform="translate(6, 8) translate(26.921875, 18.5)" style="cursor:default;perspective-origin:0px 0px;fill:rgb(48, 48, 48);text-anchor:middle;">SBIDLE</text></g><g id="sprotty_fsm$sb_state/state$CMD_RD" class="state" transform="translate(480.96875, 95.5)"><ellipse cx="38.15625" cy="19.75" rx="38.15625" ry="19.75" class="sprotty-node clickable" style="fill:rgb(255, 255, 255);stroke:rgb(48, 48, 48);"/><text class="clickable sprotty-label state" id="sprotty_fsm$sb_state/state$CMD_RD/label" transform="translate(6, 8) translate(32.15625, 18.5)" style="cursor:default;perspective-origin:0px 0px;fill:rgb(48, 48, 48);text-anchor:middle;">CMD_RD</text></g><g id="sprotty_fsm$sb_state/state$RSP_RD" class="state" transform="translate(483.28125, 155)"><ellipse cx="35.84375" cy="19.75" rx="35.84375" ry="19.75" class="sprotty-node clickable" style="fill:rgb(255, 255, 255);stroke:rgb(48, 48, 48);"/><text class="clickable sprotty-label state" id="sprotty_fsm$sb_state/state$RSP_RD/label" transform="translate(6, 8) translate(29.84375, 18.5)" style="cursor:default;perspective-origin:0px 0px;fill:rgb(48, 48, 48);text-anchor:middle;">RSP_RD</text></g><g id="sprotty_fsm$sb_state/state$WAIT_RD" class="state" transform="translate(479.046875, 36)"><ellipse cx="40.078125" cy="19.75" rx="40.078125" ry="19.75" class="sprotty-node clickable" style="fill:rgb(255, 255, 255);stroke:rgb(48, 48, 48);"/><text class="clickable sprotty-label state" id="sprotty_fsm$sb_state/state$WAIT_RD/label" transform="translate(6, 8) translate(34.078125, 18.5)" style="cursor:default;perspective-origin:0px 0px;fill:rgb(48, 48, 48);text-anchor:middle;">WAIT_RD</text></g><g id="sprotty_fsm$sb_state/state$CMD_WR_DATA" class="state" transform="translate(333.53125, 95.5)"><ellipse cx="63.21875" cy="19.75" rx="63.21875" ry="19.75" class="sprotty-node clickable" style="fill:rgb(255, 255, 255);stroke:rgb(48, 48, 48);"/><text class="clickable sprotty-label state" id="sprotty_fsm$sb_state/state$CMD_WR_DATA/label" transform="translate(6, 8) translate(57.21875, 18.5)" style="cursor:default;perspective-origin:0px 0px;fill:rgb(48, 48, 48);text-anchor:middle;">CMD_WR_DATA</text></g><g id="sprotty_fsm$sb_state/state$RSP_WR" class="state" transform="translate(206.45703125, 155)"><ellipse cx="37.375" cy="19.75" rx="37.375" ry="19.75" class="sprotty-node clickable" style="fill:rgb(255, 255, 255);stroke:rgb(48, 48, 48);"/><text class="clickable sprotty-label state" id="sprotty_fsm$sb_state/state$RSP_WR/label" transform="translate(6, 8) translate(31.375, 18.5)" style="cursor:default;perspective-origin:0px 0px;fill:rgb(48, 48, 48);text-anchor:middle;">RSP_WR</text></g><g id="sprotty_fsm$sb_state/state$SBIDLE_to_fsm$sb_state/state$WAIT_WR" class="sprotty-edge transition" style="fill:none;stroke:rgb(48, 48, 48);stroke-linejoin:round;"><g><path d=" M340.62890625,296.862890625 C12,280.4314453125 12.000000000000057,272.21572265624997 12.00000000000017,263.5661946614583 C12.00000000000017,254.91666666666666 12.000000000000114,245.83333333333334 12.00000000000017,236.75 C12.000000000000057,227.66666666666666 12,218.58333333333334 12.000000000000057,203.29166666666666 C12.000000000000057,188 12.000000000000114,166.5 12.00000000000017,151.625 C12.000000000000057,136.75 12,128.5 12.000000000000057,120.25 C12.000000000000057,112 12,103.75 12.000000000000057,97.125 C12.000000000000057,90.5 12,85.5 42.203125,75.5"/><path d=" M340.62890625,296.862890625 C12,280.4314453125 12.000000000000057,272.21572265624997 12.00000000000017,263.5661946614583 C12.00000000000017,254.91666666666666 12.000000000000114,245.83333333333334 12.00000000000017,236.75 C12.000000000000057,227.66666666666666 12,218.58333333333334 12.000000000000057,203.29166666666666 C12.000000000000057,188 12.000000000000114,166.5 12.00000000000017,151.625 C12.000000000000057,136.75 12,128.5 12.000000000000057,120.25 C12.000000000000057,112 12,103.75 12.000000000000057,97.125 C12.000000000000057,90.5 12,85.5 42.203125,75.5" class="clickable"/></g><path d="M 42.203125,75.5 L 49.203125,73 L 49.203125,78 Z" transform="rotate(161.68072816444246 42.203125 75.5)" class="arrow" style="fill:rgb(48, 48, 48);stroke-linejoin:miter;stroke-miterlimit:2;"/></g><g id="sprotty_fsm$sb_state/state$SBIDLE_to_fsm$sb_state/state$WAIT_RD" class="sprotty-edge transition" style="fill:none;stroke:rgb(48, 48, 48);stroke-linejoin:round;"><g><path d=" M373.55078125,296.862890625 C567.28125,280.4314453125 567.28125,272.21572265624997 567.28125,263.5661946614583 C567.28125,254.91666666666666 567.28125,245.83333333333334 567.28125,236.75 C567.28125,227.66666666666666 567.28125,218.58333333333334 567.28125,203.29166666666666 C567.28125,188 567.28125,166.5 567.28125,151.625 C567.28125,136.75 567.28125,128.5 567.28125,120.25 C567.28125,112 567.28125,103.75 567.28125,97.125 C567.28125,90.5 567.28125,85.5 539.1640625,75.5"/><path d=" M373.55078125,296.862890625 C567.28125,280.4314453125 567.28125,272.21572265624997 567.28125,263.5661946614583 C567.28125,254.91666666666666 567.28125,245.83333333333334 567.28125,236.75 C567.28125,227.66666666666666 567.28125,218.58333333333334 567.28125,203.29166666666666 C567.28125,188 567.28125,166.5 567.28125,151.625 C567.28125,136.75 567.28125,128.5 567.28125,120.25 C567.28125,112 567.28125,103.75 567.28125,97.125 C567.28125,90.5 567.28125,85.5 539.1640625,75.5" class="clickable"/></g><path d="M 539.1640625,75.5 L 546.1640625,73 L 546.1640625,78 Z" transform="rotate(19.578150811745243 539.1640625 75.5)" class="arrow" style="fill:rgb(48, 48, 48);stroke-linejoin:miter;stroke-miterlimit:2;"/></g><g id="sprotty_fsm$sb_state/state$WAIT_RD_to_fsm$sb_state/state$DONE" class="sprotty-edge transition" style="fill:none;stroke:rgb(48, 48, 48);stroke-linejoin:round;"><g><path d=" M499.0859375,75.5 C469.96875,85.5 469.96875,90.5 469.96875,97.125 C469.96875,103.75 469.96875,112 469.96875,120.24999999999997 C469.96875,128.5 469.96875,136.75 469.96875,149.125 C469.96875,161.5 469.96875,178 469.96875,190.00000000000003 C469.96875,202 469.96875,209.5 362.67421875,224.5"/><path d=" M499.0859375,75.5 C469.96875,85.5 469.96875,90.5 469.96875,97.125 C469.96875,103.75 469.96875,112 469.96875,120.24999999999997 C469.96875,128.5 469.96875,136.75 469.96875,149.125 C469.96875,161.5 469.96875,178 469.96875,190.00000000000003 C469.96875,202 469.96875,209.5 362.67421875,224.5" class="clickable"/></g><path d="M 362.67421875,224.5 L 369.67421875,222 L 369.67421875,227 Z" transform="rotate(-7.958488814120633 362.67421875 224.5)" class="arrow" style="fill:rgb(48, 48, 48);stroke-linejoin:miter;stroke-miterlimit:2;"/></g><g id="sprotty_fsm$sb_state/state$WAIT_RD_to_fsm$sb_state/state$CMD_RD" class="sprotty-edge transition" style="fill:none;stroke:rgb(48, 48, 48);stroke-linejoin:round;"><g><path d=" M519.125,75.5 C519.125,75.5 519.125,85.5 519.125,95.5"/><path d=" M519.125,75.5 C519.125,75.5 519.125,85.5 519.125,95.5" class="clickable"/></g><path d="M 519.125,95.5 L 526.125,93 L 526.125,98 Z" transform="rotate(-90 519.125 95.5)" class="arrow" style="fill:rgb(48, 48, 48);stroke-linejoin:miter;stroke-miterlimit:2;"/></g><g id="sprotty_fsm$sb_state/state$WAIT_WR_to_fsm$sb_state/state$DONE" class="sprotty-edge transition" style="fill:none;stroke:rgb(48, 48, 48);stroke-linejoin:round;"><g><path d=" M63,75.5 C63,85.5 63,100.375 63,112.77083333333333 C63,125.16666666666666 63,135.08333333333331 63,148.29166666666666 C63,161.5 63,178 63,190 C63,202 63,209.5 340.33671875,224.5"/><path d=" M63,75.5 C63,85.5 63,100.375 63,112.77083333333333 C63,125.16666666666666 63,135.08333333333331 63,148.29166666666666 C63,161.5 63,178 63,190 C63,202 63,209.5 340.33671875,224.5" class="clickable"/></g><path d="M 340.33671875,224.5 L 347.33671875,222 L 347.33671875,227 Z" transform="rotate(-176.9041238651687 340.33671875 224.5)" class="arrow" style="fill:rgb(48, 48, 48);stroke-linejoin:miter;stroke-miterlimit:2;"/></g><g id="sprotty_fsm$sb_state/state$WAIT_WR_to_fsm$sb_state/state$CMD_WR" class="sprotty-edge transition" style="fill:none;stroke:rgb(48, 48, 48);stroke-linejoin:round;"><g><path d=" M83.796875,75.5 C83.796875,75.5 110.69843750000001,85.5 113.6875,95.5"/><path d=" M83.796875,75.5 C83.796875,75.5 110.69843750000001,85.5 113.6875,95.5" class="clickable"/></g><path d="M 113.6875,95.5 L 120.6875,93 L 120.6875,98 Z" transform="rotate(-106.64173404286682 113.6875 95.5)" class="arrow" style="fill:rgb(48, 48, 48);stroke-linejoin:miter;stroke-miterlimit:2;"/></g><g id="sprotty_fsm$sb_state/state$CMD_RD_to_fsm$sb_state/state$RSP_RD" class="sprotty-edge transition" style="fill:none;stroke:rgb(48, 48, 48);stroke-linejoin:round;"><g><path d=" M519.125,135 C519.125,135 519.125,145 519.125,155"/><path d=" M519.125,135 C519.125,135 519.125,145 519.125,155" class="clickable"/></g><path d="M 519.125,155 L 526.125,152.5 L 526.125,157.5 Z" transform="rotate(-90 519.125 155)" class="arrow" style="fill:rgb(48, 48, 48);stroke-linejoin:miter;stroke-miterlimit:2;"/></g><g id="sprotty_fsm$sb_state/state$CMD_WR_to_fsm$sb_state/state$RSP_WR" class="sprotty-edge transition" style="fill:none;stroke:rgb(48, 48, 48);stroke-linejoin:round;"><g><path d=" M113.6875,135 C113.6875,135 124.83320312500001,145 225.14453125,155"/><path d=" M113.6875,135 C113.6875,135 124.83320312500001,145 225.14453125,155" class="clickable"/></g><path d="M 225.14453125,155 L 232.14453125,152.5 L 232.14453125,157.5 Z" transform="rotate(-174.30701376527702 225.14453125 155)" class="arrow" style="fill:rgb(48, 48, 48);stroke-linejoin:miter;stroke-miterlimit:2;"/></g><g id="sprotty_fsm$sb_state/state$CMD_WR_ADDR_to_fsm$sb_state/state$RSP_WR" class="sprotty-edge transition" style="fill:none;stroke:rgb(48, 48, 48);stroke-linejoin:round;"><g><path d=" M243.453125,135 C243.453125,135 243.491015625,145 243.83203125,155"/><path d=" M243.453125,135 C243.453125,135 243.491015625,145 243.83203125,155" class="clickable"/></g><path d="M 243.83203125,155 L 250.83203125,152.5 L 250.83203125,157.5 Z" transform="rotate(-91.95311873598486 243.83203125 155)" class="arrow" style="fill:rgb(48, 48, 48);stroke-linejoin:miter;stroke-miterlimit:2;"/></g><g id="sprotty_fsm$sb_state/state$CMD_WR_DATA_to_fsm$sb_state/state$RSP_WR" class="sprotty-edge transition" style="fill:none;stroke:rgb(48, 48, 48);stroke-linejoin:round;"><g><path d=" M396.75,135 C396.75,135 383.326953125,145 262.51953125,155"/><path d=" M396.75,135 C396.75,135 383.326953125,145 262.51953125,155" class="clickable"/></g><path d="M 262.51953125,155 L 269.51953125,152.5 L 269.51953125,157.5 Z" transform="rotate(-4.731948734880812 262.51953125 155)" class="arrow" style="fill:rgb(48, 48, 48);stroke-linejoin:miter;stroke-miterlimit:2;"/></g><g id="sprotty_fsm$sb_state/state$RSP_RD_to_fsm$sb_state/state$DONE" class="sprotty-edge transition" style="fill:none;stroke:rgb(48, 48, 48);stroke-linejoin:round;"><g><path d=" M519.125,194.5 C519.125,194.5 504.596796875,209.5 373.84296875,224.5"/><path d=" M519.125,194.5 C519.125,194.5 504.596796875,209.5 373.84296875,224.5" class="clickable"/></g><path d="M 373.84296875,224.5 L 380.84296875,222 L 380.84296875,227 Z" transform="rotate(-6.54432823842768 373.84296875 224.5)" class="arrow" style="fill:rgb(48, 48, 48);stroke-linejoin:miter;stroke-miterlimit:2;"/></g><g id="sprotty_fsm$sb_state/state$RSP_WR_to_fsm$sb_state/state$DONE" class="sprotty-edge transition" style="fill:none;stroke:rgb(48, 48, 48);stroke-linejoin:round;"><g><path d=" M243.83203125,194.5 C243.83203125,194.5 254.59937499999998,209.5 351.50546875,224.5"/><path d=" M243.83203125,194.5 C243.83203125,194.5 254.59937499999998,209.5 351.50546875,224.5" class="clickable"/></g><path d="M 351.50546875,224.5 L 358.50546875,222 L 358.50546875,227 Z" transform="rotate(-171.20107163385657 351.50546875 224.5)" class="arrow" style="fill:rgb(48, 48, 48);stroke-linejoin:miter;stroke-miterlimit:2;"/></g><g id="sprotty_fsm$sb_state/state$DONE_to_fsm$sb_state/state$SBIDLE" class="sprotty-edge transition" style="fill:none;stroke:rgb(48, 48, 48);stroke-linejoin:round;"><g><path d=" M357.08984375,264 C357.08984375,264 357.08984375,280.4314453125 357.08984375,296.862890625"/><path d=" M357.08984375,264 C357.08984375,264 357.08984375,280.4314453125 357.08984375,296.862890625" class="clickable"/></g><path d="M 357.08984375,296.862890625 L 364.08984375,294.362890625 L 364.08984375,299.362890625 Z" transform="rotate(-90 357.08984375 296.862890625)" class="arrow" style="fill:rgb(48, 48, 48);stroke-linejoin:miter;stroke-miterlimit:2;"/></g></g></g></svg>