<svg xmlns="http://www.w3.org/2000/svg" id="sprotty_root" class="sprotty-graph sprotty-state-machine statemachine" style="font-family:&quot;Noto Sans&quot;, Helvetica, Arial, sans-serif;perspective-origin:0px 0px;transform-origin:0px 0px;" version="1.1" viewBox="10 10 590.28125 360.862890625" width="590.28125" height="360.862890625"><g transform="scale(1) translate(0,0)"><g id="sprotty_fsm$sb_state" class="statemachine" transform="translate(15, 15)"><g class="sprotty-block" style="fill:rgb(255, 255, 255);stroke:rgb(48, 48, 48);stroke-dasharray:0px;"><rect x="0" y="0" rx="1" ry="1" width="580.28125" height="350.862890625"/><text x="290.140625" y="12" class="sprotty-block-name" style="cursor:pointer;font-weight:700;perspective-origin:290.141px 0px;fill:rgb(48, 48, 48);stroke:rgba(0, 0, 0, 0);dominant-baseline:middle;text-anchor:middle;">sb_state</text><line x1="0" y1="20" x2="580.28125" y2="20"/></g><g id="sprotty_fsm$sb_state/state$WAIT_WR" class="state" transform="translate(21.40625, 36)"><ellipse cx="41.59375" cy="20" rx="41.59375" ry="20" class="sprotty-node clickable" style="fill:rgb(255, 255, 255);stroke:rgb(48, 48, 48);"/><text class="clickable sprotty-label state" id="sprotty_fsm$sb_state/state$WAIT_WR/label" transform="translate(6, 8) translate(35.59375, 19)" style="cursor:default;perspective-origin:0px 0px;fill:rgb(48, 48, 48);text-anchor:middle;">WAIT_WR</text></g><g id="sprotty_fsm$sb_state/state$CMD_WR" class="state" transform="translate(74, 96)"><ellipse cx="39.6875" cy="20" rx="39.6875" ry="20" class="sprotty-node clickable" style="fill:rgb(255, 255, 255);stroke:rgb(48, 48, 48);"/><text class="clickable sprotty-label state" id="sprotty_fsm$sb_state/state$CMD_WR/label" transform="translate(6, 8) translate(33.6875, 19)" style="cursor:default;perspective-origin:0px 0px;fill:rgb(48, 48, 48);text-anchor:middle;">CMD_WR</text></g><g id="sprotty_fsm$sb_state/state$DONE" class="state" transform="translate(329.16796875, 226)"><ellipse cx="27.921875" cy="20" rx="27.921875" ry="20" class="sprotty-node clickable" style="fill:rgb(255, 255, 255);stroke:rgb(48, 48, 48);"/><text class="clickable sprotty-label state" id="sprotty_fsm$sb_state/state$DONE/label" transform="translate(6, 8) translate(21.921875, 19)" style="cursor:default;perspective-origin:0px 0px;fill:rgb(48, 48, 48);text-anchor:middle;">DONE</text></g><g id="sprotty_fsm$sb_state/state$CMD_WR_ADDR" class="state" transform="translate(178.375, 96)"><ellipse cx="65.078125" cy="20" rx="65.078125" ry="20" class="sprotty-node clickable" style="fill:rgb(255, 255, 255);stroke:rgb(48, 48, 48);"/><text class="clickable sprotty-label state" id="sprotty_fsm$sb_state/state$CMD_WR_ADDR/label" transform="translate(6, 8) translate(59.078125, 19)" style="cursor:default;perspective-origin:0px 0px;fill:rgb(48, 48, 48);text-anchor:middle;">CMD_WR_ADDR</text></g><g id="sprotty_fsm$sb_state/state$SBIDLE" class="state" transform="translate(324.16796875, 298.862890625)"><ellipse cx="32.921875" cy="20" rx="32.921875" ry="20" class="sprotty-node clickable" style="fill:rgb(255, 255, 255);stroke:rgb(48, 48, 48);"/><text class="clickable sprotty-label state" id="sprotty_fsm$sb_state/state$SBIDLE/label" transform="translate(6, 8) translate(26.921875, 19)" style="cursor:default;perspective-origin:0px 0px;fill:rgb(48, 48, 48);text-anchor:middle;">SBIDLE</text></g><g id="sprotty_fsm$sb_state/state$CMD_RD" class="state" transform="translate(480.96875, 96)"><ellipse cx="38.15625" cy="20" rx="38.15625" ry="20" class="sprotty-node clickable" style="fill:rgb(255, 255, 255);stroke:rgb(48, 48, 48);"/><text class="clickable sprotty-label state" id="sprotty_fsm$sb_state/state$CMD_RD/label" transform="translate(6, 8) translate(32.15625, 19)" style="cursor:default;perspective-origin:0px 0px;fill:rgb(48, 48, 48);text-anchor:middle;">CMD_RD</text></g><g id="sprotty_fsm$sb_state/state$RSP_RD" class="state" transform="translate(483.28125, 156)"><ellipse cx="35.84375" cy="20" rx="35.84375" ry="20" class="sprotty-node clickable" style="fill:rgb(255, 255, 255);stroke:rgb(48, 48, 48);"/><text class="clickable sprotty-label state" id="sprotty_fsm$sb_state/state$RSP_RD/label" transform="translate(6, 8) translate(29.84375, 19)" style="cursor:default;perspective-origin:0px 0px;fill:rgb(48, 48, 48);text-anchor:middle;">RSP_RD</text></g><g id="sprotty_fsm$sb_state/state$WAIT_RD" class="state" transform="translate(479.046875, 36)"><ellipse cx="40.078125" cy="20" rx="40.078125" ry="20" class="sprotty-node clickable" style="fill:rgb(255, 255, 255);stroke:rgb(48, 48, 48);"/><text class="clickable sprotty-label state" id="sprotty_fsm$sb_state/state$WAIT_RD/label" transform="translate(6, 8) translate(34.078125, 19)" style="cursor:default;perspective-origin:0px 0px;fill:rgb(48, 48, 48);text-anchor:middle;">WAIT_RD</text></g><g id="sprotty_fsm$sb_state/state$CMD_WR_DATA" class="state" transform="translate(333.53125, 96)"><ellipse cx="63.21875" cy="20" rx="63.21875" ry="20" class="sprotty-node clickable" style="fill:rgb(255, 255, 255);stroke:rgb(48, 48, 48);"/><text class="clickable sprotty-label state" id="sprotty_fsm$sb_state/state$CMD_WR_DATA/label" transform="translate(6, 8) translate(57.21875, 19)" style="cursor:default;perspective-origin:0px 0px;fill:rgb(48, 48, 48);text-anchor:middle;">CMD_WR_DATA</text></g><g id="sprotty_fsm$sb_state/state$RSP_WR" class="state" transform="translate(206.45703125, 156)"><ellipse cx="37.375" cy="20" rx="37.375" ry="20" class="sprotty-node clickable" style="fill:rgb(255, 255, 255);stroke:rgb(48, 48, 48);"/><text class="clickable sprotty-label state" id="sprotty_fsm$sb_state/state$RSP_WR/label" transform="translate(6, 8) translate(31.375, 19)" style="cursor:default;perspective-origin:0px 0px;fill:rgb(48, 48, 48);text-anchor:middle;">RSP_WR</text></g><g id="sprotty_fsm$sb_state/state$SBIDLE_to_fsm$sb_state/state$WAIT_WR" class="sprotty-edge transition" style="fill:none;stroke:rgb(48, 48, 48);stroke-linejoin:round;"><g><path d=" M340.62890625,298.862890625 C12,282.4314453125 12.000000000000057,274.21572265625 12.00000000000017,265.52452799479164 C12.00000000000017,256.8333333333333 12.000000000000114,247.66666666666666 12.00000000000017,238.5 C12.000000000000057,229.33333333333334 12,220.16666666666669 12.000000000000057,204.75 C12.000000000000057,189.33333333333331 12.000000000000114,167.66666666666666 12.00000000000017,152.66666666666666 C12.000000000000057,137.66666666666669 12,129.33333333333334 12.000000000000057,121 C12.000000000000057,112.66666666666667 12,104.33333333333333 12.000000000000057,97.66666666666666 C12.000000000000057,91 12,86 42.203125,76"/><path d=" M340.62890625,298.862890625 C12,282.4314453125 12.000000000000057,274.21572265625 12.00000000000017,265.52452799479164 C12.00000000000017,256.8333333333333 12.000000000000114,247.66666666666666 12.00000000000017,238.5 C12.000000000000057,229.33333333333334 12,220.16666666666669 12.000000000000057,204.75 C12.000000000000057,189.33333333333331 12.000000000000114,167.66666666666666 12.00000000000017,152.66666666666666 C12.000000000000057,137.66666666666669 12,129.33333333333334 12.000000000000057,121 C12.000000000000057,112.66666666666667 12,104.33333333333333 12.000000000000057,97.66666666666666 C12.000000000000057,91 12,86 42.203125,76" class="clickable"/></g><path d="M 42.203125,76 L 49.203125,73.5 L 49.203125,78.5 Z" transform="rotate(161.68072816444246 42.203125 76)" class="arrow" style="fill:rgb(48, 48, 48);stroke-linejoin:miter;stroke-miterlimit:2;"/></g><g id="sprotty_fsm$sb_state/state$SBIDLE_to_fsm$sb_state/state$WAIT_RD" class="sprotty-edge transition" style="fill:none;stroke:rgb(48, 48, 48);stroke-linejoin:round;"><g><path d=" M373.55078125,298.862890625 C567.28125,282.4314453125 567.28125,274.21572265625 567.28125,265.52452799479164 C567.28125,256.8333333333333 567.28125,247.66666666666666 567.28125,238.5 C567.28125,229.33333333333334 567.28125,220.16666666666669 567.28125,204.75 C567.28125,189.33333333333331 567.28125,167.66666666666666 567.28125,152.66666666666666 C567.28125,137.66666666666669 567.28125,129.33333333333334 567.28125,121 C567.28125,112.66666666666667 567.28125,104.33333333333333 567.28125,97.66666666666666 C567.28125,91 567.28125,86 539.1640625,76"/><path d=" M373.55078125,298.862890625 C567.28125,282.4314453125 567.28125,274.21572265625 567.28125,265.52452799479164 C567.28125,256.8333333333333 567.28125,247.66666666666666 567.28125,238.5 C567.28125,229.33333333333334 567.28125,220.16666666666669 567.28125,204.75 C567.28125,189.33333333333331 567.28125,167.66666666666666 567.28125,152.66666666666666 C567.28125,137.66666666666669 567.28125,129.33333333333334 567.28125,121 C567.28125,112.66666666666667 567.28125,104.33333333333333 567.28125,97.66666666666666 C567.28125,91 567.28125,86 539.1640625,76" class="clickable"/></g><path d="M 539.1640625,76 L 546.1640625,73.5 L 546.1640625,78.5 Z" transform="rotate(19.578150811745243 539.1640625 76)" class="arrow" style="fill:rgb(48, 48, 48);stroke-linejoin:miter;stroke-miterlimit:2;"/></g><g id="sprotty_fsm$sb_state/state$WAIT_RD_to_fsm$sb_state/state$DONE" class="sprotty-edge transition" style="fill:none;stroke:rgb(48, 48, 48);stroke-linejoin:round;"><g><path d=" M499.0859375,76 C469.96875,86 469.96875,91 469.96875,97.66666666666669 C469.96875,104.33333333333334 469.96875,112.66666666666666 469.96875,121 C469.96875,129.33333333333331 469.96875,137.66666666666669 469.96875,150.16666666666669 C469.96875,162.66666666666669 469.96875,179.33333333333337 469.96875,191.4166666666667 C469.96875,203.5 469.96875,211 362.67421875,226"/><path d=" M499.0859375,76 C469.96875,86 469.96875,91 469.96875,97.66666666666669 C469.96875,104.33333333333334 469.96875,112.66666666666666 469.96875,121 C469.96875,129.33333333333331 469.96875,137.66666666666669 469.96875,150.16666666666669 C469.96875,162.66666666666669 469.96875,179.33333333333337 469.96875,191.4166666666667 C469.96875,203.5 469.96875,211 362.67421875,226" class="clickable"/></g><path d="M 362.67421875,226 L 369.67421875,223.5 L 369.67421875,228.5 Z" transform="rotate(-7.958488814120633 362.67421875 226)" class="arrow" style="fill:rgb(48, 48, 48);stroke-linejoin:miter;stroke-miterlimit:2;"/></g><g id="sprotty_fsm$sb_state/state$WAIT_RD_to_fsm$sb_state/state$CMD_RD" class="sprotty-edge transition" style="fill:none;stroke:rgb(48, 48, 48);stroke-linejoin:round;"><g><path d=" M519.125,76 C519.125,76 519.125,86 519.125,96"/><path d=" M519.125,76 C519.125,76 519.125,86 519.125,96" class="clickable"/></g><path d="M 519.125,96 L 526.125,93.5 L 526.125,98.5 Z" transform="rotate(-90 519.125 96)" class="arrow" style="fill:rgb(48, 48, 48);stroke-linejoin:miter;stroke-miterlimit:2;"/></g><g id="sprotty_fsm$sb_state/state$WAIT_WR_to_fsm$sb_state/state$DONE" class="sprotty-edge transition" style="fill:none;stroke:rgb(48, 48, 48);stroke-linejoin:round;"><g><path d=" M63,76 C63,86 63,101 63,113.5 C63,126 63,136 63,149.33333333333331 C63,162.66666666666666 63,179.33333333333331 63,191.41666666666666 C63,203.5 63,211 340.33671875,226"/><path d=" M63,76 C63,86 63,101 63,113.5 C63,126 63,136 63,149.33333333333331 C63,162.66666666666666 63,179.33333333333331 63,191.41666666666666 C63,203.5 63,211 340.33671875,226" class="clickable"/></g><path d="M 340.33671875,226 L 347.33671875,223.5 L 347.33671875,228.5 Z" transform="rotate(-176.9041238651687 340.33671875 226)" class="arrow" style="fill:rgb(48, 48, 48);stroke-linejoin:miter;stroke-miterlimit:2;"/></g><g id="sprotty_fsm$sb_state/state$WAIT_WR_to_fsm$sb_state/state$CMD_WR" class="sprotty-edge transition" style="fill:none;stroke:rgb(48, 48, 48);stroke-linejoin:round;"><g><path d=" M83.796875,76 C83.796875,76 110.69843750000001,86 113.6875,96"/><path d=" M83.796875,76 C83.796875,76 110.69843750000001,86 113.6875,96" class="clickable"/></g><path d="M 113.6875,96 L 120.6875,93.5 L 120.6875,98.5 Z" transform="rotate(-106.64173404286682 113.6875 96)" class="arrow" style="fill:rgb(48, 48, 48);stroke-linejoin:miter;stroke-miterlimit:2;"/></g><g id="sprotty_fsm$sb_state/state$CMD_RD_to_fsm$sb_state/state$RSP_RD" class="sprotty-edge transition" style="fill:none;stroke:rgb(48, 48, 48);stroke-linejoin:round;"><g><path d=" M519.125,136 C519.125,136 519.125,146 519.125,156"/><path d=" M519.125,136 C519.125,136 519.125,146 519.125,156" class="clickable"/></g><path d="M 519.125,156 L 526.125,153.5 L 526.125,158.5 Z" transform="rotate(-90 519.125 156)" class="arrow" style="fill:rgb(48, 48, 48);stroke-linejoin:miter;stroke-miterlimit:2;"/></g><g id="sprotty_fsm$sb_state/state$CMD_WR_to_fsm$sb_state/state$RSP_WR" class="sprotty-edge transition" style="fill:none;stroke:rgb(48, 48, 48);stroke-linejoin:round;"><g><path d=" M113.6875,136 C113.6875,136 124.83320312500001,146 225.14453125,156"/><path d=" M113.6875,136 C113.6875,136 124.83320312500001,146 225.14453125,156" class="clickable"/></g><path d="M 225.14453125,156 L 232.14453125,153.5 L 232.14453125,158.5 Z" transform="rotate(-174.30701376527702 225.14453125 156)" class="arrow" style="fill:rgb(48, 48, 48);stroke-linejoin:miter;stroke-miterlimit:2;"/></g><g id="sprotty_fsm$sb_state/state$CMD_WR_ADDR_to_fsm$sb_state/state$RSP_WR" class="sprotty-edge transition" style="fill:none;stroke:rgb(48, 48, 48);stroke-linejoin:round;"><g><path d=" M243.453125,136 C243.453125,136 243.491015625,146 243.83203125,156"/><path d=" M243.453125,136 C243.453125,136 243.491015625,146 243.83203125,156" class="clickable"/></g><path d="M 243.83203125,156 L 250.83203125,153.5 L 250.83203125,158.5 Z" transform="rotate(-91.95311873598486 243.83203125 156)" class="arrow" style="fill:rgb(48, 48, 48);stroke-linejoin:miter;stroke-miterlimit:2;"/></g><g id="sprotty_fsm$sb_state/state$CMD_WR_DATA_to_fsm$sb_state/state$RSP_WR" class="sprotty-edge transition" style="fill:none;stroke:rgb(48, 48, 48);stroke-linejoin:round;"><g><path d=" M396.75,136 C396.75,136 383.326953125,146 262.51953125,156"/><path d=" M396.75,136 C396.75,136 383.326953125,146 262.51953125,156" class="clickable"/></g><path d="M 262.51953125,156 L 269.51953125,153.5 L 269.51953125,158.5 Z" transform="rotate(-4.731948734880812 262.51953125 156)" class="arrow" style="fill:rgb(48, 48, 48);stroke-linejoin:miter;stroke-miterlimit:2;"/></g><g id="sprotty_fsm$sb_state/state$RSP_RD_to_fsm$sb_state/state$DONE" class="sprotty-edge transition" style="fill:none;stroke:rgb(48, 48, 48);stroke-linejoin:round;"><g><path d=" M519.125,196 C519.125,196 504.596796875,211 373.84296875,226"/><path d=" M519.125,196 C519.125,196 504.596796875,211 373.84296875,226" class="clickable"/></g><path d="M 373.84296875,226 L 380.84296875,223.5 L 380.84296875,228.5 Z" transform="rotate(-6.54432823842768 373.84296875 226)" class="arrow" style="fill:rgb(48, 48, 48);stroke-linejoin:miter;stroke-miterlimit:2;"/></g><g id="sprotty_fsm$sb_state/state$RSP_WR_to_fsm$sb_state/state$DONE" class="sprotty-edge transition" style="fill:none;stroke:rgb(48, 48, 48);stroke-linejoin:round;"><g><path d=" M243.83203125,196 C243.83203125,196 254.59937499999998,211 351.50546875,226"/><path d=" M243.83203125,196 C243.83203125,196 254.59937499999998,211 351.50546875,226" class="clickable"/></g><path d="M 351.50546875,226 L 358.50546875,223.5 L 358.50546875,228.5 Z" transform="rotate(-171.20107163385657 351.50546875 226)" class="arrow" style="fill:rgb(48, 48, 48);stroke-linejoin:miter;stroke-miterlimit:2;"/></g><g id="sprotty_fsm$sb_state/state$DONE_to_fsm$sb_state/state$SBIDLE" class="sprotty-edge transition" style="fill:none;stroke:rgb(48, 48, 48);stroke-linejoin:round;"><g><path d=" M357.08984375,266 C357.08984375,266 357.08984375,282.4314453125 357.08984375,298.862890625"/><path d=" M357.08984375,266 C357.08984375,266 357.08984375,282.4314453125 357.08984375,298.862890625" class="clickable"/></g><path d="M 357.08984375,298.862890625 L 364.08984375,296.362890625 L 364.08984375,301.362890625 Z" transform="rotate(-90 357.08984375 298.862890625)" class="arrow" style="fill:rgb(48, 48, 48);stroke-linejoin:miter;stroke-miterlimit:2;"/></g></g></g></svg>