<svg xmlns="http://www.w3.org/2000/svg" id="sprotty_root" class="sprotty-graph sprotty-state-machine statemachine" style="font-family:&quot;Noto Sans&quot;, Helvetica, Arial, sans-serif;perspective-origin:0px 0px;transform-origin:0px 0px;" version="1.1" viewBox="10 10 789.921875 558" width="789.921875" height="558"><g transform="scale(1) translate(0,0)"><g id="sprotty_fsm$miss_state" class="statemachine" transform="translate(15, 15)"><g class="sprotty-block" style="fill:rgb(255, 255, 255);stroke:rgb(48, 48, 48);stroke-dasharray:0px;"><rect x="0" y="0" rx="1" ry="1" width="779.921875" height="548"/><text x="389.9609375" y="12" class="sprotty-block-name" style="cursor:pointer;font-weight:700;perspective-origin:389.953px 0px;fill:rgb(48, 48, 48);stroke:rgba(0, 0, 0, 0);dominant-baseline:middle;text-anchor:middle;">miss_state</text><line x1="0" y1="20" x2="779.921875" y2="20"/></g><g id="sprotty_fsm$miss_state/state$PRE_CRIT_BYP" class="state" transform="translate(104, 36)"><ellipse cx="61.546875" cy="20" rx="61.546875" ry="20" class="sprotty-node clickable" style="fill:rgb(255, 255, 255);stroke:rgb(48, 48, 48);"/><text class="clickable sprotty-label state" id="sprotty_fsm$miss_state/state$PRE_CRIT_BYP/label" transform="translate(6, 8) translate(55.546875, 19)" style="cursor:default;perspective-origin:0px 0px;fill:rgb(48, 48, 48);text-anchor:middle;">PRE_CRIT_BYP</text></g><g id="sprotty_fsm$miss_state/state$CRIT_BYP_OK" class="state" transform="translate(429.34375, 106)"><ellipse cx="57.8125" cy="20" rx="57.8125" ry="20" class="sprotty-node clickable" style="fill:rgb(255, 255, 255);stroke:rgb(48, 48, 48);"/><text class="clickable sprotty-label state" id="sprotty_fsm$miss_state/state$CRIT_BYP_OK/label" transform="translate(6, 8) translate(51.8125, 19)" style="cursor:default;perspective-origin:0px 0px;fill:rgb(48, 48, 48);text-anchor:middle;">CRIT_BYP_OK</text></g><g id="sprotty_fsm$miss_state/state$IDLE" class="state" transform="translate(287.184375, 436)"><ellipse cx="60" cy="20" rx="60" ry="20" class="sprotty-node clickable" style="fill:rgb(255, 255, 255);stroke:rgb(48, 48, 48);"/><text class="clickable sprotty-label state" id="sprotty_fsm$miss_state/state$IDLE/label" transform="translate(43.109375, 8) translate(16.890625, 19)" style="cursor:default;perspective-origin:0px 0px;fill:rgb(48, 48, 48);text-anchor:middle;">IDLE</text></g><g id="sprotty_fsm$miss_state/state$CRIT_WRD_RDY" class="state" transform="translate(638.875, 256)"><ellipse cx="64.5234375" cy="20" rx="64.5234375" ry="20" class="sprotty-node clickable" style="fill:rgb(255, 255, 255);stroke:rgb(48, 48, 48);"/><text class="clickable sprotty-label state" id="sprotty_fsm$miss_state/state$CRIT_WRD_RDY/label" transform="translate(6, 8) translate(58.515625, 19)" style="cursor:default;perspective-origin:0px 0px;fill:rgb(48, 48, 48);text-anchor:middle;">CRIT_WRD_RDY</text></g><g id="sprotty_fsm$miss_state/state$STREAM" class="state" transform="translate(450.625, 186)"><ellipse cx="36.53125" cy="20" rx="36.53125" ry="20" class="sprotty-node clickable" style="fill:rgb(255, 255, 255);stroke:rgb(48, 48, 48);"/><text class="clickable sprotty-label state" id="sprotty_fsm$miss_state/state$STREAM/label" transform="translate(6, 8) translate(30.53125, 19)" style="cursor:default;perspective-origin:0px 0px;fill:rgb(48, 48, 48);text-anchor:middle;">STREAM</text></g><g id="sprotty_fsm$miss_state/state$SCND_MISS" class="state" transform="translate(510.3333333333333, 326)"><ellipse cx="49.90625" cy="20" rx="49.90625" ry="20" class="sprotty-node clickable" style="fill:rgb(255, 255, 255);stroke:rgb(48, 48, 48);"/><text class="clickable sprotty-label state" id="sprotty_fsm$miss_state/state$SCND_MISS/label" transform="translate(6, 8) translate(43.90625, 19)" style="cursor:default;perspective-origin:0px 0px;fill:rgb(48, 48, 48);text-anchor:middle;">SCND_MISS</text></g><g id="sprotty_fsm$miss_state/state$STALL_SCND_MISS" class="state" transform="translate(125, 326)"><ellipse cx="76.9375" cy="20" rx="76.9375" ry="20" class="sprotty-node clickable" style="fill:rgb(255, 255, 255);stroke:rgb(48, 48, 48);"/><text class="clickable sprotty-label state" id="sprotty_fsm$miss_state/state$STALL_SCND_MISS/label" transform="translate(6, 8) translate(70.9375, 19)" style="cursor:default;perspective-origin:0px 0px;fill:rgb(48, 48, 48);text-anchor:middle;">STALL_SCND_MISS</text></g><g id="sprotty_fsm$miss_state/state$HIT_U_MISS" class="state" transform="translate(262.421875, 256)"><ellipse cx="51.953125" cy="20" rx="51.953125" ry="20" class="sprotty-node clickable" style="fill:rgb(255, 255, 255);stroke:rgb(48, 48, 48);"/><text class="clickable sprotty-label state" id="sprotty_fsm$miss_state/state$HIT_U_MISS/label" transform="translate(6, 8) translate(45.953125, 19)" style="cursor:default;perspective-origin:0px 0px;fill:rgb(48, 48, 48);text-anchor:middle;">HIT_U_MISS</text></g><g id="sprotty_fsm$miss_state/state$DUPL_MISS_WAIT" class="state" transform="translate(290.7390625, 496)"><ellipse cx="72.890625" cy="20" rx="72.890625" ry="20" class="sprotty-node clickable" style="fill:rgb(255, 255, 255);stroke:rgb(48, 48, 48);"/><text class="clickable sprotty-label state" id="sprotty_fsm$miss_state/state$DUPL_MISS_WAIT/label" transform="translate(6, 8) translate(66.890625, 19)" style="cursor:default;perspective-origin:0px 0px;fill:rgb(48, 48, 48);text-anchor:middle;">DUPL_MISS_WAIT</text></g><g id="sprotty_fsm$miss_state/state$MISS_WAIT" class="state" transform="translate(330.09375, 186)"><ellipse cx="47.765625" cy="20" rx="47.765625" ry="20" class="sprotty-node clickable" style="fill:rgb(255, 255, 255);stroke:rgb(48, 48, 48);"/><text class="clickable sprotty-label state" id="sprotty_fsm$miss_state/state$MISS_WAIT/label" transform="translate(6, 8) translate(41.765625, 19)" style="cursor:default;perspective-origin:0px 0px;fill:rgb(48, 48, 48);text-anchor:middle;">MISS_WAIT</text></g><g id="sprotty_fsm$miss_state/state$IDLE_to_fsm$miss_state/state$HIT_U_MISS" class="sprotty-edge transition" style="fill:none;stroke:rgb(48, 48, 48);stroke-linejoin:round;"><g><path d=" M337.184375,436 C288.875,401 288.875,383.5 288.875,371.41666666666663 C288.875,359.3333333333333 288.875,352.66666666666663 288.875,346 C288.875,339.3333333333333 288.875,332.66666666666663 288.875,325.5833333333333 C288.875,318.5 288.875,311 303.984375,296"/><path d=" M337.184375,436 C288.875,401 288.875,383.5 288.875,371.41666666666663 C288.875,359.3333333333333 288.875,352.66666666666663 288.875,346 C288.875,339.3333333333333 288.875,332.66666666666663 288.875,325.5833333333333 C288.875,318.5 288.875,311 303.984375,296" class="clickable"/></g><path d="M 303.984375,296 L 310.984375,293.5 L 310.984375,298.5 Z" transform="rotate(135.2081311325737 303.984375 296)" class="arrow" style="fill:rgb(48, 48, 48);stroke-linejoin:miter;stroke-miterlimit:2;"/></g><g id="sprotty_fsm$miss_state/state$IDLE_to_fsm$miss_state/state$DUPL_MISS_WAIT" class="sprotty-edge transition" style="fill:none;stroke:rgb(48, 48, 48);stroke-linejoin:round;"><g><path d=" M367.184375,476 C367.184375,476 366.82890625,486 363.6296875,496"/><path d=" M367.184375,476 C367.184375,476 366.82890625,486 363.6296875,496" class="clickable"/></g><path d="M 363.6296875,496 L 370.6296875,493.5 L 370.6296875,498.5 Z" transform="rotate(-72.25938891039331 363.6296875 496)" class="arrow" style="fill:rgb(48, 48, 48);stroke-linejoin:miter;stroke-miterlimit:2;"/></g><g id="sprotty_fsm$miss_state/state$IDLE_to_fsm$miss_state/state$PRE_CRIT_BYP" class="sprotty-edge transition" style="fill:none;stroke:rgb(48, 48, 48);stroke-linejoin:round;"><g><path d=" M297.184375,436 C12,401 12,383.5 12.000000000000114,365.5833333333333 C12.000000000000114,347.66666666666663 12.000000000000114,329.3333333333333 12.000000000000114,314.3333333333333 C12.000000000000114,299.3333333333333 12.000000000000114,287.66666666666663 12.000000000000114,276 C12.000000000000114,264.3333333333333 12.000000000000114,252.66666666666666 12.000000000000114,234.33333333333331 C12.000000000000114,216 12.000000000000114,191 12.000000000000114,173.5 C12.000000000000114,156 12.000000000000114,146 12.000000000000114,136 C12.000000000000114,126 12.000000000000114,116 12.000000000000114,107.25 C12,98.5 12,91 128.61875,76"/><path d=" M297.184375,436 C12,401 12,383.5 12.000000000000114,365.5833333333333 C12.000000000000114,347.66666666666663 12.000000000000114,329.3333333333333 12.000000000000114,314.3333333333333 C12.000000000000114,299.3333333333333 12.000000000000114,287.66666666666663 12.000000000000114,276 C12.000000000000114,264.3333333333333 12.000000000000114,252.66666666666666 12.000000000000114,234.33333333333331 C12.000000000000114,216 12.000000000000114,191 12.000000000000114,173.5 C12.000000000000114,156 12.000000000000114,146 12.000000000000114,136 C12.000000000000114,126 12.000000000000114,116 12.000000000000114,107.25 C12,98.5 12,91 128.61875,76" class="clickable"/></g><path d="M 128.61875,76 L 135.61875,73.5 L 135.61875,78.5 Z" transform="rotate(172.67061577000615 128.61875 76)" class="arrow" style="fill:rgb(48, 48, 48);stroke-linejoin:miter;stroke-miterlimit:2;"/></g><g id="sprotty_fsm$miss_state/state$IDLE_to_fsm$miss_state/state$CRIT_BYP_OK" class="sprotty-edge transition" style="fill:none;stroke:rgb(48, 48, 48);stroke-linejoin:round;"><g><path d=" M317.184375,436 C114,401 114.00000000000006,383.5 114.00000000000006,370.1666666666666 C114.00000000000006,356.8333333333333 114,347.66666666666663 114.00000000000006,338.49999999999994 C114,329.3333333333333 113.99999999999994,320.1666666666667 113.99999999999994,303.9166666666667 C114,287.66666666666663 114.00000000000006,264.3333333333333 114,248.08333333333331 C113.99999999999994,231.83333333333331 113.99999999999994,222.66666666666669 113.99999999999994,213.49999999999997 C113.99999999999994,204.33333333333331 113.99999999999994,195.16666666666666 113.99999999999994,185.58333333333334 C114,176 114,166 443.796875,146"/><path d=" M317.184375,436 C114,401 114.00000000000006,383.5 114.00000000000006,370.1666666666666 C114.00000000000006,356.8333333333333 114,347.66666666666663 114.00000000000006,338.49999999999994 C114,329.3333333333333 113.99999999999994,320.1666666666667 113.99999999999994,303.9166666666667 C114,287.66666666666663 114.00000000000006,264.3333333333333 114,248.08333333333331 C113.99999999999994,231.83333333333331 113.99999999999994,222.66666666666669 113.99999999999994,213.49999999999997 C113.99999999999994,204.33333333333331 113.99999999999994,195.16666666666666 113.99999999999994,185.58333333333334 C114,176 114,166 443.796875,146" class="clickable"/></g><path d="M 443.796875,146 L 450.796875,143.5 L 450.796875,148.5 Z" transform="rotate(176.52963984500977 443.796875 146)" class="arrow" style="fill:rgb(48, 48, 48);stroke-linejoin:miter;stroke-miterlimit:2;"/></g><g id="sprotty_fsm$miss_state/state$PRE_CRIT_BYP_to_fsm$miss_state/state$IDLE" class="sprotty-edge transition" style="fill:none;stroke:rgb(48, 48, 48);stroke-linejoin:round;"><g><path d=" M153.2375,76 C63,91 63,98.5 63,107.25 C63.00000000000006,116 63,126 63,136 C63.00000000000006,146 63,156 63,173.5 C63.00000000000006,191 63,216 63,234.33333333333331 C63.00000000000006,252.66666666666666 63,264.3333333333333 63,276 C63.00000000000006,287.66666666666663 63,299.3333333333333 63,314.3333333333333 C63.00000000000006,329.3333333333333 63,347.66666666666663 63,365.5833333333333 C63,383.5 63,401 307.184375,436"/><path d=" M153.2375,76 C63,91 63,98.5 63,107.25 C63.00000000000006,116 63,126 63,136 C63.00000000000006,146 63,156 63,173.5 C63.00000000000006,191 63,216 63,234.33333333333331 C63.00000000000006,252.66666666666666 63,264.3333333333333 63,276 C63.00000000000006,287.66666666666663 63,299.3333333333333 63,314.3333333333333 C63.00000000000006,329.3333333333333 63,347.66666666666663 63,365.5833333333333 C63,383.5 63,401 307.184375,436" class="clickable"/></g><path d="M 307.184375,436 L 314.184375,433.5 L 314.184375,438.5 Z" transform="rotate(-171.8431063152655 307.184375 436)" class="arrow" style="fill:rgb(48, 48, 48);stroke-linejoin:miter;stroke-miterlimit:2;"/></g><g id="sprotty_fsm$miss_state/state$PRE_CRIT_BYP_to_fsm$miss_state/state$HIT_U_MISS" class="sprotty-edge transition" style="fill:none;stroke:rgb(48, 48, 48);stroke-linejoin:round;"><g><path d=" M177.85625,76 C263.09375,91 263.09375,98.5 263.09375,107.25 C263.09375,116 263.09375000000006,126 263.09375000000006,136 C263.09375,146 263.09375,156 263.09375,171 C263.09375,186 263.09375,206 263.09375,219.75 C263.09375,233.5 263.09375,241 283.203125,256"/><path d=" M177.85625,76 C263.09375,91 263.09375,98.5 263.09375,107.25 C263.09375,116 263.09375000000006,126 263.09375000000006,136 C263.09375,146 263.09375,156 263.09375,171 C263.09375,186 263.09375,206 263.09375,219.75 C263.09375,233.5 263.09375,241 283.203125,256" class="clickable"/></g><path d="M 283.203125,256 L 290.203125,253.5 L 290.203125,258.5 Z" transform="rotate(-143.27997886454514 283.203125 256)" class="arrow" style="fill:rgb(48, 48, 48);stroke-linejoin:miter;stroke-miterlimit:2;"/></g><g id="sprotty_fsm$miss_state/state$PRE_CRIT_BYP_to_fsm$miss_state/state$CRIT_BYP_OK" class="sprotty-edge transition" style="fill:none;stroke:rgb(48, 48, 48);stroke-linejoin:round;"><g><path d=" M202.475,76 C202.47500000000002,76 458.688125,91 487.15625,106"/><path d=" M202.475,76 C202.47500000000002,76 458.688125,91 487.15625,106" class="clickable"/></g><path d="M 487.15625,106 L 494.15625,103.5 L 494.15625,108.5 Z" transform="rotate(-152.2150255053017 487.15625 106)" class="arrow" style="fill:rgb(48, 48, 48);stroke-linejoin:miter;stroke-miterlimit:2;"/></g><g id="sprotty_fsm$miss_state/state$DUPL_MISS_WAIT_to_fsm$miss_state/state$IDLE" class="sprotty-edge transition" style="fill:none;stroke:rgb(48, 48, 48);stroke-linejoin:round;"><g><path d=" M327.184375,496 C327.184375,486 327.184375,476 327.184375,476"/><path d=" M327.184375,496 C327.184375,486 327.184375,476 327.184375,476" class="clickable"/></g><path d="M 327.184375,476 L 334.184375,473.5 L 334.184375,478.5 Z" transform="rotate(90 327.184375 476)" class="arrow" style="fill:rgb(48, 48, 48);stroke-linejoin:miter;stroke-miterlimit:2;"/></g><g id="sprotty_fsm$miss_state/state$CRIT_BYP_OK_to_fsm$miss_state/state$IDLE" class="sprotty-edge transition" style="fill:none;stroke:rgb(48, 48, 48);stroke-linejoin:round;"><g><path d=" M516.0625,146 C627.875,166 627.875,176 627.875,185.58333333333334 C627.875,195.16666666666666 627.875,204.33333333333331 627.875,213.49999999999997 C627.875,222.66666666666669 627.875,231.83333333333331 627.875,248.08333333333331 C627.875,264.3333333333333 627.875,287.66666666666663 627.875,303.9166666666667 C627.875,320.1666666666667 627.875,329.3333333333333 627.875,338.49999999999994 C627.875,347.66666666666663 627.875,356.8333333333333 627.875,370.1666666666666 C627.875,383.5 627.875,401 387.184375,436"/><path d=" M516.0625,146 C627.875,166 627.875,176 627.875,185.58333333333334 C627.875,195.16666666666666 627.875,204.33333333333331 627.875,213.49999999999997 C627.875,222.66666666666669 627.875,231.83333333333331 627.875,248.08333333333331 C627.875,264.3333333333333 627.875,287.66666666666663 627.875,303.9166666666667 C627.875,320.1666666666667 627.875,329.3333333333333 627.875,338.49999999999994 C627.875,347.66666666666663 627.875,356.8333333333333 627.875,370.1666666666666 C627.875,383.5 627.875,401 387.184375,436" class="clickable"/></g><path d="M 387.184375,436 L 394.184375,433.5 L 394.184375,438.5 Z" transform="rotate(-8.27366762223735 387.184375 436)" class="arrow" style="fill:rgb(48, 48, 48);stroke-linejoin:miter;stroke-miterlimit:2;"/></g><g id="sprotty_fsm$miss_state/state$CRIT_BYP_OK_to_fsm$miss_state/state$MISS_WAIT" class="sprotty-edge transition" style="fill:none;stroke:rgb(48, 48, 48);stroke-linejoin:round;"><g><path d=" M472.703125,146 C472.703125,146 387.34375,166 377.859375,186"/><path d=" M472.703125,146 C472.703125,146 387.34375,166 377.859375,186" class="clickable"/></g><path d="M 377.859375,186 L 384.859375,183.5 L 384.859375,188.5 Z" transform="rotate(-64.62881498957913 377.859375 186)" class="arrow" style="fill:rgb(48, 48, 48);stroke-linejoin:miter;stroke-miterlimit:2;"/></g><g id="sprotty_fsm$miss_state/state$CRIT_BYP_OK_to_fsm$miss_state/state$CRIT_WRD_RDY" class="sprotty-edge transition" style="fill:none;stroke:rgb(48, 48, 48);stroke-linejoin:round;"><g><path d=" M530.515625,146 C703.3984375,166 703.3984375,176 703.3984375,185.58333333333334 C703.3984375,195.16666666666669 703.3984375,204.33333333333331 703.3984375,215.79166666666663 C703.3984375,227.24999999999997 703.3984375,241 703.3984375,256"/><path d=" M530.515625,146 C703.3984375,166 703.3984375,176 703.3984375,185.58333333333334 C703.3984375,195.16666666666669 703.3984375,204.33333333333331 703.3984375,215.79166666666663 C703.3984375,227.24999999999997 703.3984375,241 703.3984375,256" class="clickable"/></g><path d="M 703.3984375,256 L 710.3984375,253.5 L 710.3984375,258.5 Z" transform="rotate(-90 703.3984375 256)" class="arrow" style="fill:rgb(48, 48, 48);stroke-linejoin:miter;stroke-miterlimit:2;"/></g><g id="sprotty_fsm$miss_state/state$CRIT_BYP_OK_to_fsm$miss_state/state$STREAM" class="sprotty-edge transition" style="fill:none;stroke:rgb(48, 48, 48);stroke-linejoin:round;"><g><path d=" M487.15625,146 C487.15625,146 487.15625,166 487.15625,186"/><path d=" M487.15625,146 C487.15625,146 487.15625,166 487.15625,186" class="clickable"/></g><path d="M 487.15625,186 L 494.15625,183.5 L 494.15625,188.5 Z" transform="rotate(-90 487.15625 186)" class="arrow" style="fill:rgb(48, 48, 48);stroke-linejoin:miter;stroke-miterlimit:2;"/></g><g id="sprotty_fsm$miss_state/state$CRIT_BYP_OK_to_fsm$miss_state/state$HIT_U_MISS" class="sprotty-edge transition" style="fill:none;stroke:rgb(48, 48, 48);stroke-linejoin:round;"><g><path d=" M458.25,146 C314.09375,166 314.09375,176 314.09375,184.33333333333331 C314.09375,192.66666666666666 314.09375,199.33333333333331 314.09375,206 C314.09375,212.66666666666666 314.09375,219.33333333333331 314.09375,226.41666666666666 C314.09375,233.5 314.09375,241 303.984375,256"/><path d=" M458.25,146 C314.09375,166 314.09375,176 314.09375,184.33333333333331 C314.09375,192.66666666666666 314.09375,199.33333333333331 314.09375,206 C314.09375,212.66666666666666 314.09375,219.33333333333331 314.09375,226.41666666666666 C314.09375,233.5 314.09375,241 303.984375,256" class="clickable"/></g><path d="M 303.984375,256 L 310.984375,253.5 L 310.984375,258.5 Z" transform="rotate(-56.02167152101008 303.984375 256)" class="arrow" style="fill:rgb(48, 48, 48);stroke-linejoin:miter;stroke-miterlimit:2;"/></g><g id="sprotty_fsm$miss_state/state$CRIT_WRD_RDY_to_fsm$miss_state/state$IDLE" class="sprotty-edge transition" style="fill:none;stroke:rgb(48, 48, 48);stroke-linejoin:round;"><g><path d=" M703.3984375,296 C703.3984375,311 703.3984375,324.75 703.3984375,336.2083333333333 C703.3984375,347.6666666666667 703.3984375,356.8333333333333 703.3984375,370.16666666666663 C703.3984375,383.5 703.3984375,401 397.184375,436"/><path d=" M703.3984375,296 C703.3984375,311 703.3984375,324.75 703.3984375,336.2083333333333 C703.3984375,347.6666666666667 703.3984375,356.8333333333333 703.3984375,370.16666666666663 C703.3984375,383.5 703.3984375,401 397.184375,436" class="clickable"/></g><path d="M 397.184375,436 L 404.184375,433.5 L 404.184375,438.5 Z" transform="rotate(-6.5205603309092 397.184375 436)" class="arrow" style="fill:rgb(48, 48, 48);stroke-linejoin:miter;stroke-miterlimit:2;"/></g><g id="sprotty_fsm$miss_state/state$STREAM_to_fsm$miss_state/state$HIT_U_MISS" class="sprotty-edge transition" style="fill:none;stroke:rgb(48, 48, 48);stroke-linejoin:round;"><g><path d=" M474.9791666666667,226 C474.97916666666663,226 462.0359375,241 345.546875,256"/><path d=" M474.9791666666667,226 C474.97916666666663,226 462.0359375,241 345.546875,256" class="clickable"/></g><path d="M 345.546875,256 L 352.546875,253.5 L 352.546875,258.5 Z" transform="rotate(-7.337455174095813 345.546875 256)" class="arrow" style="fill:rgb(48, 48, 48);stroke-linejoin:miter;stroke-miterlimit:2;"/></g><g id="sprotty_fsm$miss_state/state$STREAM_to_fsm$miss_state/state$IDLE" class="sprotty-edge transition" style="fill:none;stroke:rgb(48, 48, 48);stroke-linejoin:round;"><g><path d=" M499.3333333333333,226 C499.3333333333333,241 499.3333333333333,258.5 499.3333333333333,273.0833333333333 C499.3333333333333,287.66666666666663 499.3333333333333,299.3333333333333 499.3333333333333,314.3333333333333 C499.3333333333333,329.3333333333333 499.3333333333333,347.66666666666663 499.3333333333333,365.5833333333333 C499.3333333333333,383.5 499.3333333333333,401 367.184375,436"/><path d=" M499.3333333333333,226 C499.3333333333333,241 499.3333333333333,258.5 499.3333333333333,273.0833333333333 C499.3333333333333,287.66666666666663 499.3333333333333,299.3333333333333 499.3333333333333,314.3333333333333 C499.3333333333333,329.3333333333333 499.3333333333333,347.66666666666663 499.3333333333333,365.5833333333333 C499.3333333333333,383.5 499.3333333333333,401 367.184375,436" class="clickable"/></g><path d="M 367.184375,436 L 374.184375,433.5 L 374.184375,438.5 Z" transform="rotate(-14.83433747803361 367.184375 436)" class="arrow" style="fill:rgb(48, 48, 48);stroke-linejoin:miter;stroke-miterlimit:2;"/></g><g id="sprotty_fsm$miss_state/state$MISS_WAIT_to_fsm$miss_state/state$HIT_U_MISS" class="sprotty-edge transition" style="fill:none;stroke:rgb(48, 48, 48);stroke-linejoin:round;"><g><path d=" M361.9375,226 C361.9375,226 358.2203125,241 324.765625,256"/><path d=" M361.9375,226 C361.9375,226 358.2203125,241 324.765625,256" class="clickable"/></g><path d="M 324.765625,256 L 331.765625,253.5 L 331.765625,258.5 Z" transform="rotate(-24.14992143771256 324.765625 256)" class="arrow" style="fill:rgb(48, 48, 48);stroke-linejoin:miter;stroke-miterlimit:2;"/></g><g id="sprotty_fsm$miss_state/state$MISS_WAIT_to_fsm$miss_state/state$IDLE" class="sprotty-edge transition" style="fill:none;stroke:rgb(48, 48, 48);stroke-linejoin:round;"><g><path d=" M393.78125,226 C393.78125,241 393.78125,258.5 393.78125,273.0833333333333 C393.78125,287.66666666666663 393.78125,299.3333333333333 393.78125,314.3333333333333 C393.78125,329.3333333333333 393.78125,347.66666666666663 393.78125,365.5833333333333 C393.78125,383.5 393.78125,401 357.184375,436"/><path d=" M393.78125,226 C393.78125,241 393.78125,258.5 393.78125,273.0833333333333 C393.78125,287.66666666666663 393.78125,299.3333333333333 393.78125,314.3333333333333 C393.78125,329.3333333333333 393.78125,347.66666666666663 393.78125,365.5833333333333 C393.78125,383.5 393.78125,401 357.184375,436" class="clickable"/></g><path d="M 357.184375,436 L 364.184375,433.5 L 364.184375,438.5 Z" transform="rotate(-43.722304136537176 357.184375 436)" class="arrow" style="fill:rgb(48, 48, 48);stroke-linejoin:miter;stroke-miterlimit:2;"/></g><g id="sprotty_fsm$miss_state/state$HIT_U_MISS_to_fsm$miss_state/state$SCND_MISS" class="sprotty-edge transition" style="fill:none;stroke:rgb(48, 48, 48);stroke-linejoin:round;"><g><path d=" M345.546875,296 C345.546875,296 523.7984375,311 543.6041666666666,326"/><path d=" M345.546875,296 C345.546875,296 523.7984375,311 543.6041666666666,326" class="clickable"/></g><path d="M 543.6041666666666,326 L 550.6041666666666,323.5 L 550.6041666666666,328.5 Z" transform="rotate(-142.8612916355998 543.6041666666666 326)" class="arrow" style="fill:rgb(48, 48, 48);stroke-linejoin:miter;stroke-miterlimit:2;"/></g><g id="sprotty_fsm$miss_state/state$HIT_U_MISS_to_fsm$miss_state/state$STALL_SCND_MISS" class="sprotty-edge transition" style="fill:none;stroke:rgb(48, 48, 48);stroke-linejoin:round;"><g><path d=" M283.203125,296 C283.203125,296 210.06406249999998,311 201.9375,326"/><path d=" M283.203125,296 C283.203125,296 210.06406249999998,311 201.9375,326" class="clickable"/></g><path d="M 201.9375,326 L 208.9375,323.5 L 208.9375,328.5 Z" transform="rotate(-61.55245715174266 201.9375 326)" class="arrow" style="fill:rgb(48, 48, 48);stroke-linejoin:miter;stroke-miterlimit:2;"/></g><g id="sprotty_fsm$miss_state/state$HIT_U_MISS_to_fsm$miss_state/state$IDLE" class="sprotty-edge transition" style="fill:none;stroke:rgb(48, 48, 48);stroke-linejoin:round;"><g><path d=" M324.765625,296 C339.875,311 339.875,318.5 339.875,325.5833333333333 C339.875,332.66666666666663 339.875,339.3333333333333 339.875,346 C339.875,352.66666666666663 339.875,359.3333333333333 339.875,371.41666666666663 C339.875,383.5 339.875,401 347.184375,436"/><path d=" M324.765625,296 C339.875,311 339.875,318.5 339.875,325.5833333333333 C339.875,332.66666666666663 339.875,339.3333333333333 339.875,346 C339.875,352.66666666666663 339.875,359.3333333333333 339.875,371.41666666666663 C339.875,383.5 339.875,401 347.184375,436" class="clickable"/></g><path d="M 347.184375,436 L 354.184375,433.5 L 354.184375,438.5 Z" transform="rotate(-101.79606919692077 347.184375 436)" class="arrow" style="fill:rgb(48, 48, 48);stroke-linejoin:miter;stroke-miterlimit:2;"/></g><g id="sprotty_fsm$miss_state/state$SCND_MISS_to_fsm$miss_state/state$IDLE" class="sprotty-edge transition" style="fill:none;stroke:rgb(48, 48, 48);stroke-linejoin:round;"><g><path d=" M543.6041666666666,366 C543.6041666666666,366 526.9621875,401 377.184375,436"/><path d=" M543.6041666666666,366 C543.6041666666666,366 526.9621875,401 377.184375,436" class="clickable"/></g><path d="M 377.184375,436 L 384.184375,433.5 L 384.184375,438.5 Z" transform="rotate(-13.152829092034692 377.184375 436)" class="arrow" style="fill:rgb(48, 48, 48);stroke-linejoin:miter;stroke-miterlimit:2;"/></g><g id="sprotty_fsm$miss_state/state$SCND_MISS_to_fsm$miss_state/state$DUPL_MISS_WAIT" class="sprotty-edge transition" style="fill:none;stroke:rgb(48, 48, 48);stroke-linejoin:round;"><g><path d=" M576.875,366 C587.73125,401 587.73125,418.5 587.73125,430.5833333333333 C587.73125,442.66666666666663 587.73125,449.3333333333333 587.73125,456 C587.73125,462.66666666666663 587.73125,469.3333333333333 587.73125,475.16666666666663 C587.73125,481 587.73125,486 400.075,496"/><path d=" M576.875,366 C587.73125,401 587.73125,418.5 587.73125,430.5833333333333 C587.73125,442.66666666666663 587.73125,449.3333333333333 587.73125,456 C587.73125,462.66666666666663 587.73125,469.3333333333333 587.73125,475.16666666666663 C587.73125,481 587.73125,486 400.075,496" class="clickable"/></g><path d="M 400.075,496 L 407.075,493.5 L 407.075,498.5 Z" transform="rotate(-3.050345366771232 400.075 496)" class="arrow" style="fill:rgb(48, 48, 48);stroke-linejoin:miter;stroke-miterlimit:2;"/></g><g id="sprotty_fsm$miss_state/state$SCND_MISS_to_fsm$miss_state/state$CRIT_BYP_OK" class="sprotty-edge transition" style="fill:none;stroke:rgb(48, 48, 48);stroke-linejoin:round;"><g><path d=" M576.875,326 C576.875,311 576.875,276 576.875,253.91666666666666 C576.875,231.83333333333331 576.875,222.66666666666666 576.875,213.5 C576.875,204.33333333333331 576.875,195.16666666666666 576.875,185.58333333333331 C576.875,176 576.875,166 501.609375,146"/><path d=" M576.875,326 C576.875,311 576.875,276 576.875,253.91666666666666 C576.875,231.83333333333331 576.875,222.66666666666666 576.875,213.5 C576.875,204.33333333333331 576.875,195.16666666666666 576.875,185.58333333333331 C576.875,176 576.875,166 501.609375,146" class="clickable"/></g><path d="M 501.609375,146 L 508.609375,143.5 L 508.609375,148.5 Z" transform="rotate(14.881063549655092 501.609375 146)" class="arrow" style="fill:rgb(48, 48, 48);stroke-linejoin:miter;stroke-miterlimit:2;"/></g><g id="sprotty_fsm$miss_state/state$STALL_SCND_MISS_to_fsm$miss_state/state$IDLE" class="sprotty-edge transition" style="fill:none;stroke:rgb(48, 48, 48);stroke-linejoin:round;"><g><path d=" M201.9375,366 C201.9375,366 214.46218750000003,401 327.184375,436"/><path d=" M201.9375,366 C201.9375,366 214.46218750000003,401 327.184375,436" class="clickable"/></g><path d="M 327.184375,436 L 334.184375,433.5 L 334.184375,438.5 Z" transform="rotate(-162.7505422062747 327.184375 436)" class="arrow" style="fill:rgb(48, 48, 48);stroke-linejoin:miter;stroke-miterlimit:2;"/></g></g></g></svg>